<?xml version="1.0" encoding="utf-8" standalone="no"?>
<!DOCTYPE svg PUBLIC "-//W3C//DTD SVG 1.1//EN"
  "http://www.w3.org/Graphics/SVG/1.1/DTD/svg11.dtd">
<svg xmlns:xlink="http://www.w3.org/1999/xlink" width="1000.198125pt" height="388.844525pt" viewBox="0 0 1000.198125 388.844525" xmlns="http://www.w3.org/2000/svg" version="1.1">
 <metadata>
  <rdf:RDF xmlns:dc="http://purl.org/dc/elements/1.1/" xmlns:cc="http://creativecommons.org/ns#" xmlns:rdf="http://www.w3.org/1999/02/22-rdf-syntax-ns#">
   <cc:Work>
    <dc:type rdf:resource="http://purl.org/dc/dcmitype/StillImage"/>
    <dc:date>2025-03-11T15:51:15.456109</dc:date>
    <dc:format>image/svg+xml</dc:format>
    <dc:creator>
     <cc:Agent>
      <dc:title>Matplotlib v3.8.2, https://matplotlib.org/</dc:title>
     </cc:Agent>
    </dc:creator>
   </cc:Work>
  </rdf:RDF>
 </metadata>
 <defs>
  <style type="text/css">*{stroke-linejoin: round; stroke-linecap: butt}</style>
 </defs>
 <g id="figure_1">
  <g id="axes_1">
   <g id="patch_1">
    <path d="M 53.328125 353.2239 
L 992.998125 353.2239 
L 992.998125 35.2559 
L 53.328125 35.2559 
z
" style="fill: #ffffff"/>
   </g>
   <g id="matplotlib.axis_1">
    <g id="xtick_1">
     <g id="text_1">
      <!-- 0 -->
      <g transform="translate(84.952943 366.30265) scale(0.08 -0.08)">
       <defs>
        <path id="DejaVuSans-30" d="M 2034 4250 
Q 1547 4250 1301 3770 
Q 1056 3291 1056 2328 
Q 1056 1369 1301 889 
Q 1547 409 2034 409 
Q 2525 409 2770 889 
Q 3016 1369 3016 2328 
Q 3016 3291 2770 3770 
Q 2525 4250 2034 4250 
z
M 2034 4750 
Q 2819 4750 3233 4129 
Q 3647 3509 3647 2328 
Q 3647 1150 3233 529 
Q 2819 -91 2034 -91 
Q 1250 -91 836 529 
Q 422 1150 422 2328 
Q 422 3509 836 4129 
Q 1250 4750 2034 4750 
z
" transform="scale(0.015625)"/>
       </defs>
       <use xlink:href="#DejaVuSans-30"/>
      </g>
     </g>
    </g>
    <g id="xtick_2">
     <g id="text_2">
      <!-- 20 -->
      <g transform="translate(253.257034 366.30265) scale(0.08 -0.08)">
       <defs>
        <path id="DejaVuSans-32" d="M 1228 531 
L 3431 531 
L 3431 0 
L 469 0 
L 469 531 
Q 828 903 1448 1529 
Q 2069 2156 2228 2338 
Q 2531 2678 2651 2914 
Q 2772 3150 2772 3378 
Q 2772 3750 2511 3984 
Q 2250 4219 1831 4219 
Q 1534 4219 1204 4116 
Q 875 4013 500 3803 
L 500 4441 
Q 881 4594 1212 4672 
Q 1544 4750 1819 4750 
Q 2544 4750 2975 4387 
Q 3406 4025 3406 3419 
Q 3406 3131 3298 2873 
Q 3191 2616 2906 2266 
Q 2828 2175 2409 1742 
Q 1991 1309 1228 531 
z
" transform="scale(0.015625)"/>
       </defs>
       <use xlink:href="#DejaVuSans-32"/>
       <use xlink:href="#DejaVuSans-30" x="63.623047"/>
      </g>
     </g>
    </g>
    <g id="xtick_3">
     <g id="text_3">
      <!-- 40 -->
      <g transform="translate(424.106125 366.30265) scale(0.08 -0.08)">
       <defs>
        <path id="DejaVuSans-34" d="M 2419 4116 
L 825 1625 
L 2419 1625 
L 2419 4116 
z
M 2253 4666 
L 3047 4666 
L 3047 1625 
L 3713 1625 
L 3713 1100 
L 3047 1100 
L 3047 0 
L 2419 0 
L 2419 1100 
L 313 1100 
L 313 1709 
L 2253 4666 
z
" transform="scale(0.015625)"/>
       </defs>
       <use xlink:href="#DejaVuSans-34"/>
       <use xlink:href="#DejaVuSans-30" x="63.623047"/>
      </g>
     </g>
    </g>
    <g id="xtick_4">
     <g id="text_4">
      <!-- 60 -->
      <g transform="translate(594.955216 366.30265) scale(0.08 -0.08)">
       <defs>
        <path id="DejaVuSans-36" d="M 2113 2584 
Q 1688 2584 1439 2293 
Q 1191 2003 1191 1497 
Q 1191 994 1439 701 
Q 1688 409 2113 409 
Q 2538 409 2786 701 
Q 3034 994 3034 1497 
Q 3034 2003 2786 2293 
Q 2538 2584 2113 2584 
z
M 3366 4563 
L 3366 3988 
Q 3128 4100 2886 4159 
Q 2644 4219 2406 4219 
Q 1781 4219 1451 3797 
Q 1122 3375 1075 2522 
Q 1259 2794 1537 2939 
Q 1816 3084 2150 3084 
Q 2853 3084 3261 2657 
Q 3669 2231 3669 1497 
Q 3669 778 3244 343 
Q 2819 -91 2113 -91 
Q 1303 -91 875 529 
Q 447 1150 447 2328 
Q 447 3434 972 4092 
Q 1497 4750 2381 4750 
Q 2619 4750 2861 4703 
Q 3103 4656 3366 4563 
z
" transform="scale(0.015625)"/>
       </defs>
       <use xlink:href="#DejaVuSans-36"/>
       <use xlink:href="#DejaVuSans-30" x="63.623047"/>
      </g>
     </g>
    </g>
    <g id="xtick_5">
     <g id="text_5">
      <!-- 80 -->
      <g transform="translate(765.804307 366.30265) scale(0.08 -0.08)">
       <defs>
        <path id="DejaVuSans-38" d="M 2034 2216 
Q 1584 2216 1326 1975 
Q 1069 1734 1069 1313 
Q 1069 891 1326 650 
Q 1584 409 2034 409 
Q 2484 409 2743 651 
Q 3003 894 3003 1313 
Q 3003 1734 2745 1975 
Q 2488 2216 2034 2216 
z
M 1403 2484 
Q 997 2584 770 2862 
Q 544 3141 544 3541 
Q 544 4100 942 4425 
Q 1341 4750 2034 4750 
Q 2731 4750 3128 4425 
Q 3525 4100 3525 3541 
Q 3525 3141 3298 2862 
Q 3072 2584 2669 2484 
Q 3125 2378 3379 2068 
Q 3634 1759 3634 1313 
Q 3634 634 3220 271 
Q 2806 -91 2034 -91 
Q 1263 -91 848 271 
Q 434 634 434 1313 
Q 434 1759 690 2068 
Q 947 2378 1403 2484 
z
M 1172 3481 
Q 1172 3119 1398 2916 
Q 1625 2713 2034 2713 
Q 2441 2713 2670 2916 
Q 2900 3119 2900 3481 
Q 2900 3844 2670 4047 
Q 2441 4250 2034 4250 
Q 1625 4250 1398 4047 
Q 1172 3844 1172 3481 
z
" transform="scale(0.015625)"/>
       </defs>
       <use xlink:href="#DejaVuSans-38"/>
       <use xlink:href="#DejaVuSans-30" x="63.623047"/>
      </g>
     </g>
    </g>
    <g id="xtick_6">
     <g id="text_6">
      <!-- 100 -->
      <g transform="translate(934.108398 366.30265) scale(0.08 -0.08)">
       <defs>
        <path id="DejaVuSans-31" d="M 794 531 
L 1825 531 
L 1825 4091 
L 703 3866 
L 703 4441 
L 1819 4666 
L 2450 4666 
L 2450 531 
L 3481 531 
L 3481 0 
L 794 0 
L 794 531 
z
" transform="scale(0.015625)"/>
       </defs>
       <use xlink:href="#DejaVuSans-31"/>
       <use xlink:href="#DejaVuSans-30" x="63.623047"/>
       <use xlink:href="#DejaVuSans-30" x="127.246094"/>
      </g>
     </g>
    </g>
    <g id="text_7">
     <!-- Length Trimmed (bp) -->
     <g transform="translate(470.735781 379.564837) scale(0.1 -0.1)">
      <defs>
       <path id="DejaVuSans-4c" d="M 628 4666 
L 1259 4666 
L 1259 531 
L 3531 531 
L 3531 0 
L 628 0 
L 628 4666 
z
" transform="scale(0.015625)"/>
       <path id="DejaVuSans-65" d="M 3597 1894 
L 3597 1613 
L 953 1613 
Q 991 1019 1311 708 
Q 1631 397 2203 397 
Q 2534 397 2845 478 
Q 3156 559 3463 722 
L 3463 178 
Q 3153 47 2828 -22 
Q 2503 -91 2169 -91 
Q 1331 -91 842 396 
Q 353 884 353 1716 
Q 353 2575 817 3079 
Q 1281 3584 2069 3584 
Q 2775 3584 3186 3129 
Q 3597 2675 3597 1894 
z
M 3022 2063 
Q 3016 2534 2758 2815 
Q 2500 3097 2075 3097 
Q 1594 3097 1305 2825 
Q 1016 2553 972 2059 
L 3022 2063 
z
" transform="scale(0.015625)"/>
       <path id="DejaVuSans-6e" d="M 3513 2113 
L 3513 0 
L 2938 0 
L 2938 2094 
Q 2938 2591 2744 2837 
Q 2550 3084 2163 3084 
Q 1697 3084 1428 2787 
Q 1159 2491 1159 1978 
L 1159 0 
L 581 0 
L 581 3500 
L 1159 3500 
L 1159 2956 
Q 1366 3272 1645 3428 
Q 1925 3584 2291 3584 
Q 2894 3584 3203 3211 
Q 3513 2838 3513 2113 
z
" transform="scale(0.015625)"/>
       <path id="DejaVuSans-67" d="M 2906 1791 
Q 2906 2416 2648 2759 
Q 2391 3103 1925 3103 
Q 1463 3103 1205 2759 
Q 947 2416 947 1791 
Q 947 1169 1205 825 
Q 1463 481 1925 481 
Q 2391 481 2648 825 
Q 2906 1169 2906 1791 
z
M 3481 434 
Q 3481 -459 3084 -895 
Q 2688 -1331 1869 -1331 
Q 1566 -1331 1297 -1286 
Q 1028 -1241 775 -1147 
L 775 -588 
Q 1028 -725 1275 -790 
Q 1522 -856 1778 -856 
Q 2344 -856 2625 -561 
Q 2906 -266 2906 331 
L 2906 616 
Q 2728 306 2450 153 
Q 2172 0 1784 0 
Q 1141 0 747 490 
Q 353 981 353 1791 
Q 353 2603 747 3093 
Q 1141 3584 1784 3584 
Q 2172 3584 2450 3431 
Q 2728 3278 2906 2969 
L 2906 3500 
L 3481 3500 
L 3481 434 
z
" transform="scale(0.015625)"/>
       <path id="DejaVuSans-74" d="M 1172 4494 
L 1172 3500 
L 2356 3500 
L 2356 3053 
L 1172 3053 
L 1172 1153 
Q 1172 725 1289 603 
Q 1406 481 1766 481 
L 2356 481 
L 2356 0 
L 1766 0 
Q 1100 0 847 248 
Q 594 497 594 1153 
L 594 3053 
L 172 3053 
L 172 3500 
L 594 3500 
L 594 4494 
L 1172 4494 
z
" transform="scale(0.015625)"/>
       <path id="DejaVuSans-68" d="M 3513 2113 
L 3513 0 
L 2938 0 
L 2938 2094 
Q 2938 2591 2744 2837 
Q 2550 3084 2163 3084 
Q 1697 3084 1428 2787 
Q 1159 2491 1159 1978 
L 1159 0 
L 581 0 
L 581 4863 
L 1159 4863 
L 1159 2956 
Q 1366 3272 1645 3428 
Q 1925 3584 2291 3584 
Q 2894 3584 3203 3211 
Q 3513 2838 3513 2113 
z
" transform="scale(0.015625)"/>
       <path id="DejaVuSans-20" transform="scale(0.015625)"/>
       <path id="DejaVuSans-54" d="M -19 4666 
L 3928 4666 
L 3928 4134 
L 2272 4134 
L 2272 0 
L 1638 0 
L 1638 4134 
L -19 4134 
L -19 4666 
z
" transform="scale(0.015625)"/>
       <path id="DejaVuSans-72" d="M 2631 2963 
Q 2534 3019 2420 3045 
Q 2306 3072 2169 3072 
Q 1681 3072 1420 2755 
Q 1159 2438 1159 1844 
L 1159 0 
L 581 0 
L 581 3500 
L 1159 3500 
L 1159 2956 
Q 1341 3275 1631 3429 
Q 1922 3584 2338 3584 
Q 2397 3584 2469 3576 
Q 2541 3569 2628 3553 
L 2631 2963 
z
" transform="scale(0.015625)"/>
       <path id="DejaVuSans-69" d="M 603 3500 
L 1178 3500 
L 1178 0 
L 603 0 
L 603 3500 
z
M 603 4863 
L 1178 4863 
L 1178 4134 
L 603 4134 
L 603 4863 
z
" transform="scale(0.015625)"/>
       <path id="DejaVuSans-6d" d="M 3328 2828 
Q 3544 3216 3844 3400 
Q 4144 3584 4550 3584 
Q 5097 3584 5394 3201 
Q 5691 2819 5691 2113 
L 5691 0 
L 5113 0 
L 5113 2094 
Q 5113 2597 4934 2840 
Q 4756 3084 4391 3084 
Q 3944 3084 3684 2787 
Q 3425 2491 3425 1978 
L 3425 0 
L 2847 0 
L 2847 2094 
Q 2847 2600 2669 2842 
Q 2491 3084 2119 3084 
Q 1678 3084 1418 2786 
Q 1159 2488 1159 1978 
L 1159 0 
L 581 0 
L 581 3500 
L 1159 3500 
L 1159 2956 
Q 1356 3278 1631 3431 
Q 1906 3584 2284 3584 
Q 2666 3584 2933 3390 
Q 3200 3197 3328 2828 
z
" transform="scale(0.015625)"/>
       <path id="DejaVuSans-64" d="M 2906 2969 
L 2906 4863 
L 3481 4863 
L 3481 0 
L 2906 0 
L 2906 525 
Q 2725 213 2448 61 
Q 2172 -91 1784 -91 
Q 1150 -91 751 415 
Q 353 922 353 1747 
Q 353 2572 751 3078 
Q 1150 3584 1784 3584 
Q 2172 3584 2448 3432 
Q 2725 3281 2906 2969 
z
M 947 1747 
Q 947 1113 1208 752 
Q 1469 391 1925 391 
Q 2381 391 2643 752 
Q 2906 1113 2906 1747 
Q 2906 2381 2643 2742 
Q 2381 3103 1925 3103 
Q 1469 3103 1208 2742 
Q 947 2381 947 1747 
z
" transform="scale(0.015625)"/>
       <path id="DejaVuSans-28" d="M 1984 4856 
Q 1566 4138 1362 3434 
Q 1159 2731 1159 2009 
Q 1159 1288 1364 580 
Q 1569 -128 1984 -844 
L 1484 -844 
Q 1016 -109 783 600 
Q 550 1309 550 2009 
Q 550 2706 781 3412 
Q 1013 4119 1484 4856 
L 1984 4856 
z
" transform="scale(0.015625)"/>
       <path id="DejaVuSans-62" d="M 3116 1747 
Q 3116 2381 2855 2742 
Q 2594 3103 2138 3103 
Q 1681 3103 1420 2742 
Q 1159 2381 1159 1747 
Q 1159 1113 1420 752 
Q 1681 391 2138 391 
Q 2594 391 2855 752 
Q 3116 1113 3116 1747 
z
M 1159 2969 
Q 1341 3281 1617 3432 
Q 1894 3584 2278 3584 
Q 2916 3584 3314 3078 
Q 3713 2572 3713 1747 
Q 3713 922 3314 415 
Q 2916 -91 2278 -91 
Q 1894 -91 1617 61 
Q 1341 213 1159 525 
L 1159 0 
L 581 0 
L 581 4863 
L 1159 4863 
L 1159 2969 
z
" transform="scale(0.015625)"/>
       <path id="DejaVuSans-70" d="M 1159 525 
L 1159 -1331 
L 581 -1331 
L 581 3500 
L 1159 3500 
L 1159 2969 
Q 1341 3281 1617 3432 
Q 1894 3584 2278 3584 
Q 2916 3584 3314 3078 
Q 3713 2572 3713 1747 
Q 3713 922 3314 415 
Q 2916 -91 2278 -91 
Q 1894 -91 1617 61 
Q 1341 213 1159 525 
z
M 3116 1747 
Q 3116 2381 2855 2742 
Q 2594 3103 2138 3103 
Q 1681 3103 1420 2742 
Q 1159 2381 1159 1747 
Q 1159 1113 1420 752 
Q 1681 391 2138 391 
Q 2594 391 2855 752 
Q 3116 1113 3116 1747 
z
" transform="scale(0.015625)"/>
       <path id="DejaVuSans-29" d="M 513 4856 
L 1013 4856 
Q 1481 4119 1714 3412 
Q 1947 2706 1947 2009 
Q 1947 1309 1714 600 
Q 1481 -109 1013 -844 
L 513 -844 
Q 928 -128 1133 580 
Q 1338 1288 1338 2009 
Q 1338 2731 1133 3434 
Q 928 4138 513 4856 
z
" transform="scale(0.015625)"/>
      </defs>
      <use xlink:href="#DejaVuSans-4c"/>
      <use xlink:href="#DejaVuSans-65" x="53.962891"/>
      <use xlink:href="#DejaVuSans-6e" x="115.486328"/>
      <use xlink:href="#DejaVuSans-67" x="178.865234"/>
      <use xlink:href="#DejaVuSans-74" x="242.341797"/>
      <use xlink:href="#DejaVuSans-68" x="281.550781"/>
      <use xlink:href="#DejaVuSans-20" x="344.929688"/>
      <use xlink:href="#DejaVuSans-54" x="376.716797"/>
      <use xlink:href="#DejaVuSans-72" x="423.050781"/>
      <use xlink:href="#DejaVuSans-69" x="464.164062"/>
      <use xlink:href="#DejaVuSans-6d" x="491.947266"/>
      <use xlink:href="#DejaVuSans-6d" x="589.359375"/>
      <use xlink:href="#DejaVuSans-65" x="686.771484"/>
      <use xlink:href="#DejaVuSans-64" x="748.294922"/>
      <use xlink:href="#DejaVuSans-20" x="811.771484"/>
      <use xlink:href="#DejaVuSans-28" x="843.558594"/>
      <use xlink:href="#DejaVuSans-62" x="882.572266"/>
      <use xlink:href="#DejaVuSans-70" x="946.048828"/>
      <use xlink:href="#DejaVuSans-29" x="1009.525391"/>
     </g>
    </g>
   </g>
   <g id="matplotlib.axis_2">
    <g id="ytick_1">
     <g id="line2d_1">
      <path d="M 53.328125 353.2239 
L 992.998125 353.2239 
" clip-path="url(#p7a5191d783)" style="fill: none; stroke: #dedede; stroke-linecap: square"/>
     </g>
     <g id="text_8">
      <!-- 0 -->
      <g transform="translate(41.238125 356.263275) scale(0.08 -0.08)">
       <use xlink:href="#DejaVuSans-30"/>
      </g>
     </g>
    </g>
    <g id="ytick_2">
     <g id="line2d_2">
      <path d="M 53.328125 293.3314 
L 992.998125 293.3314 
" clip-path="url(#p7a5191d783)" style="fill: none; stroke: #dedede; stroke-linecap: square"/>
     </g>
     <g id="text_9">
      <!-- 2000 -->
      <g transform="translate(25.968125 296.370775) scale(0.08 -0.08)">
       <use xlink:href="#DejaVuSans-32"/>
       <use xlink:href="#DejaVuSans-30" x="63.623047"/>
       <use xlink:href="#DejaVuSans-30" x="127.246094"/>
       <use xlink:href="#DejaVuSans-30" x="190.869141"/>
      </g>
     </g>
    </g>
    <g id="ytick_3">
     <g id="line2d_3">
      <path d="M 53.328125 233.438901 
L 992.998125 233.438901 
" clip-path="url(#p7a5191d783)" style="fill: none; stroke: #dedede; stroke-linecap: square"/>
     </g>
     <g id="text_10">
      <!-- 4000 -->
      <g transform="translate(25.968125 236.478276) scale(0.08 -0.08)">
       <use xlink:href="#DejaVuSans-34"/>
       <use xlink:href="#DejaVuSans-30" x="63.623047"/>
       <use xlink:href="#DejaVuSans-30" x="127.246094"/>
       <use xlink:href="#DejaVuSans-30" x="190.869141"/>
      </g>
     </g>
    </g>
    <g id="ytick_4">
     <g id="line2d_4">
      <path d="M 53.328125 173.546401 
L 992.998125 173.546401 
" clip-path="url(#p7a5191d783)" style="fill: none; stroke: #dedede; stroke-linecap: square"/>
     </g>
     <g id="text_11">
      <!-- 6000 -->
      <g transform="translate(25.968125 176.585776) scale(0.08 -0.08)">
       <use xlink:href="#DejaVuSans-36"/>
       <use xlink:href="#DejaVuSans-30" x="63.623047"/>
       <use xlink:href="#DejaVuSans-30" x="127.246094"/>
       <use xlink:href="#DejaVuSans-30" x="190.869141"/>
      </g>
     </g>
    </g>
    <g id="ytick_5">
     <g id="line2d_5">
      <path d="M 53.328125 113.653902 
L 992.998125 113.653902 
" clip-path="url(#p7a5191d783)" style="fill: none; stroke: #dedede; stroke-linecap: square"/>
     </g>
     <g id="text_12">
      <!-- 8000 -->
      <g transform="translate(25.968125 116.693277) scale(0.08 -0.08)">
       <use xlink:href="#DejaVuSans-38"/>
       <use xlink:href="#DejaVuSans-30" x="63.623047"/>
       <use xlink:href="#DejaVuSans-30" x="127.246094"/>
       <use xlink:href="#DejaVuSans-30" x="190.869141"/>
      </g>
     </g>
    </g>
    <g id="ytick_6">
     <g id="line2d_6">
      <path d="M 53.328125 53.761402 
L 992.998125 53.761402 
" clip-path="url(#p7a5191d783)" style="fill: none; stroke: #dedede; stroke-linecap: square"/>
     </g>
     <g id="text_13">
      <!-- 10000 -->
      <g transform="translate(20.878125 56.800777) scale(0.08 -0.08)">
       <use xlink:href="#DejaVuSans-31"/>
       <use xlink:href="#DejaVuSans-30" x="63.623047"/>
       <use xlink:href="#DejaVuSans-30" x="127.246094"/>
       <use xlink:href="#DejaVuSans-30" x="190.869141"/>
       <use xlink:href="#DejaVuSans-30" x="254.492188"/>
      </g>
     </g>
    </g>
    <g id="text_14">
     <!-- Observed / Expected -->
     <g transform="translate(14.798438 246.489119) rotate(-90) scale(0.1 -0.1)">
      <defs>
       <path id="DejaVuSans-4f" d="M 2522 4238 
Q 1834 4238 1429 3725 
Q 1025 3213 1025 2328 
Q 1025 1447 1429 934 
Q 1834 422 2522 422 
Q 3209 422 3611 934 
Q 4013 1447 4013 2328 
Q 4013 3213 3611 3725 
Q 3209 4238 2522 4238 
z
M 2522 4750 
Q 3503 4750 4090 4092 
Q 4678 3434 4678 2328 
Q 4678 1225 4090 567 
Q 3503 -91 2522 -91 
Q 1538 -91 948 565 
Q 359 1222 359 2328 
Q 359 3434 948 4092 
Q 1538 4750 2522 4750 
z
" transform="scale(0.015625)"/>
       <path id="DejaVuSans-73" d="M 2834 3397 
L 2834 2853 
Q 2591 2978 2328 3040 
Q 2066 3103 1784 3103 
Q 1356 3103 1142 2972 
Q 928 2841 928 2578 
Q 928 2378 1081 2264 
Q 1234 2150 1697 2047 
L 1894 2003 
Q 2506 1872 2764 1633 
Q 3022 1394 3022 966 
Q 3022 478 2636 193 
Q 2250 -91 1575 -91 
Q 1294 -91 989 -36 
Q 684 19 347 128 
L 347 722 
Q 666 556 975 473 
Q 1284 391 1588 391 
Q 1994 391 2212 530 
Q 2431 669 2431 922 
Q 2431 1156 2273 1281 
Q 2116 1406 1581 1522 
L 1381 1569 
Q 847 1681 609 1914 
Q 372 2147 372 2553 
Q 372 3047 722 3315 
Q 1072 3584 1716 3584 
Q 2034 3584 2315 3537 
Q 2597 3491 2834 3397 
z
" transform="scale(0.015625)"/>
       <path id="DejaVuSans-76" d="M 191 3500 
L 800 3500 
L 1894 563 
L 2988 3500 
L 3597 3500 
L 2284 0 
L 1503 0 
L 191 3500 
z
" transform="scale(0.015625)"/>
       <path id="DejaVuSans-2f" d="M 1625 4666 
L 2156 4666 
L 531 -594 
L 0 -594 
L 1625 4666 
z
" transform="scale(0.015625)"/>
       <path id="DejaVuSans-45" d="M 628 4666 
L 3578 4666 
L 3578 4134 
L 1259 4134 
L 1259 2753 
L 3481 2753 
L 3481 2222 
L 1259 2222 
L 1259 531 
L 3634 531 
L 3634 0 
L 628 0 
L 628 4666 
z
" transform="scale(0.015625)"/>
       <path id="DejaVuSans-78" d="M 3513 3500 
L 2247 1797 
L 3578 0 
L 2900 0 
L 1881 1375 
L 863 0 
L 184 0 
L 1544 1831 
L 300 3500 
L 978 3500 
L 1906 2253 
L 2834 3500 
L 3513 3500 
z
" transform="scale(0.015625)"/>
       <path id="DejaVuSans-63" d="M 3122 3366 
L 3122 2828 
Q 2878 2963 2633 3030 
Q 2388 3097 2138 3097 
Q 1578 3097 1268 2742 
Q 959 2388 959 1747 
Q 959 1106 1268 751 
Q 1578 397 2138 397 
Q 2388 397 2633 464 
Q 2878 531 3122 666 
L 3122 134 
Q 2881 22 2623 -34 
Q 2366 -91 2075 -91 
Q 1284 -91 818 406 
Q 353 903 353 1747 
Q 353 2603 823 3093 
Q 1294 3584 2113 3584 
Q 2378 3584 2631 3529 
Q 2884 3475 3122 3366 
z
" transform="scale(0.015625)"/>
      </defs>
      <use xlink:href="#DejaVuSans-4f"/>
      <use xlink:href="#DejaVuSans-62" x="78.710938"/>
      <use xlink:href="#DejaVuSans-73" x="142.1875"/>
      <use xlink:href="#DejaVuSans-65" x="194.287109"/>
      <use xlink:href="#DejaVuSans-72" x="255.810547"/>
      <use xlink:href="#DejaVuSans-76" x="296.923828"/>
      <use xlink:href="#DejaVuSans-65" x="356.103516"/>
      <use xlink:href="#DejaVuSans-64" x="417.626953"/>
      <use xlink:href="#DejaVuSans-20" x="481.103516"/>
      <use xlink:href="#DejaVuSans-2f" x="512.890625"/>
      <use xlink:href="#DejaVuSans-20" x="546.582031"/>
      <use xlink:href="#DejaVuSans-45" x="578.369141"/>
      <use xlink:href="#DejaVuSans-78" x="641.552734"/>
      <use xlink:href="#DejaVuSans-70" x="700.732422"/>
      <use xlink:href="#DejaVuSans-65" x="764.208984"/>
      <use xlink:href="#DejaVuSans-63" x="825.732422"/>
      <use xlink:href="#DejaVuSans-74" x="880.712891"/>
      <use xlink:href="#DejaVuSans-65" x="919.921875"/>
      <use xlink:href="#DejaVuSans-64" x="981.445312"/>
     </g>
    </g>
   </g>
   <g id="line2d_7">
    <path d="M 96.040398 353.212383 
L 104.582852 353.210134 
L 113.125307 353.204377 
L 121.667761 353.221634 
L 130.210216 353.206262 
L 138.75267 353.219999 
L 147.295125 353.185895 
L 155.83758 353.192963 
L 164.380034 352.726459 
L 172.922489 350.915506 
L 181.464943 343.864206 
L 190.007398 349.639857 
L 198.549852 341.060019 
L 207.092307 349.444968 
L 215.634761 336.915077 
L 224.177216 342.718946 
L 232.71967 345.181193 
L 241.262125 343.279844 
L 249.80458 345.67079 
L 258.347034 346.032047 
L 266.889489 345.390341 
L 275.431943 346.583438 
L 283.974398 343.094462 
L 292.516852 346.863887 
L 301.059307 346.78308 
L 309.601761 348.589361 
L 318.144216 347.619673 
L 326.68667 348.128284 
L 335.229125 348.042723 
L 343.77158 347.938149 
L 352.314034 347.420032 
L 360.856489 347.833575 
L 369.398943 346.245948 
L 377.941398 348.603621 
L 386.483852 349.568556 
L 395.026307 351.469905 
L 403.568761 351.122909 
L 412.111216 350.756899 
L 420.65367 350.338603 
L 429.196125 350.196001 
L 437.73858 350.367123 
L 446.281034 349.468735 
L 454.823489 348.945864 
L 463.365943 350.47645 
L 471.908398 350.595285 
L 480.450852 350.44793 
L 488.993307 350.585778 
L 497.535761 350.566765 
L 506.078216 350.723626 
L 514.62067 350.932774 
L 523.163125 349.891786 
L 531.70558 350.40515 
L 540.248034 350.913761 
L 548.790489 350.481204 
L 557.332943 350.343356 
L 565.875398 350.966048 
L 574.417852 351.536453 
L 582.960307 349.088466 
L 591.502761 351.284524 
L 600.045216 351.522192 
L 608.58767 351.189456 
L 617.130125 351.22273 
L 625.67258 351.227483 
L 634.215034 351.294031 
L 642.757489 350.628558 
L 651.299943 351.270264 
L 659.842398 351.275017 
L 668.384852 350.395643 
L 676.927307 351.084882 
L 685.469761 351.108649 
L 694.012216 351.346318 
L 702.55467 350.281562 
L 711.097125 351.778875 
L 719.63958 351.731341 
L 728.182034 349.57331 
L 736.724489 351.892956 
L 745.266943 350.542998 
L 753.809398 350.837707 
L 762.351852 351.507932 
L 770.894307 350.542998 
L 779.436761 351.146676 
L 787.979216 351.132416 
L 796.52167 350.657079 
L 805.064125 351.151429 
L 813.60658 350.88524 
L 822.149034 351.17995 
L 830.691489 350.875734 
L 839.233943 350.590531 
L 847.776398 351.008828 
L 856.318852 350.8282 
L 864.861307 350.928021 
L 873.403761 351.479412 
L 881.946216 350.970801 
L 890.48867 350.913761 
L 899.031125 351.522192 
L 907.57358 350.652325 
L 916.116034 351.498426 
L 924.658489 349.121739 
L 933.200943 350.609545 
L 941.743398 347.662454 
L 950.285852 295.175709 
" clip-path="url(#p7a5191d783)" style="fill: none; stroke: #7cb5ec; stroke-linecap: square"/>
   </g>
   <g id="line2d_8">
    <path d="M 96.040398 353.212241 
L 104.582852 353.210046 
L 113.125307 353.204175 
L 121.667761 353.221609 
L 130.210216 353.206464 
L 138.75267 353.220089 
L 147.295125 353.186439 
L 155.83758 353.193077 
L 164.380034 352.73669 
L 172.922489 350.934742 
L 181.464943 344.075261 
L 190.007398 349.548239 
L 198.549852 342.052017 
L 207.092307 349.330888 
L 215.634761 337.936823 
L 224.177216 342.786183 
L 232.71967 345.809788 
L 241.262125 343.530009 
L 249.80458 346.0851 
L 258.347034 346.766136 
L 266.889489 345.655227 
L 275.431943 346.06578 
L 283.974398 342.37563 
L 292.516852 346.461844 
L 301.059307 346.505314 
L 309.601761 348.215148 
L 318.144216 346.862737 
L 326.68667 347.910856 
L 335.229125 348.587061 
L 343.77158 348.065417 
L 352.314034 346.954508 
L 360.856489 347.650034 
L 369.398943 348.823733 
L 377.941398 349.519259 
L 386.483852 348.364879 
L 395.026307 349.461299 
L 403.568761 348.48563 
L 412.111216 349.118366 
L 420.65367 350.007093 
L 429.196125 350.581868 
L 437.73858 351.528556 
L 446.281034 350.016753 
L 454.823489 348.843053 
L 463.365943 350.321046 
L 471.908398 350.340366 
L 480.450852 350.277575 
L 488.993307 350.673639 
L 497.535761 350.350026 
L 506.078216 350.301726 
L 514.62067 350.8282 
L 523.163125 350.427307 
L 531.70558 350.562548 
L 540.248034 351.040722 
L 548.790489 350.654319 
L 557.332943 350.519077 
L 565.875398 350.968271 
L 574.417852 351.470595 
L 582.960307 349.166666 
L 591.502761 351.243583 
L 600.045216 351.499576 
L 608.58767 351.557536 
L 617.130125 351.538216 
L 625.67258 351.316034 
L 634.215034 351.209773 
L 642.757489 350.717109 
L 651.299943 351.287054 
L 659.842398 351.229093 
L 668.384852 350.504587 
L 676.927307 351.074532 
L 685.469761 351.161473 
L 694.012216 351.446445 
L 702.55467 350.359686 
L 711.097125 351.924619 
L 719.63958 351.842508 
L 728.182034 349.229457 
L 736.724489 352.02605 
L 745.266943 350.736429 
L 753.809398 351.093852 
L 762.351852 351.422295 
L 770.894307 350.726769 
L 779.436761 351.127663 
L 787.979216 351.108342 
L 796.52167 350.557718 
L 805.064125 351.142153 
L 813.60658 351.282224 
L 822.149034 350.929631 
L 830.691489 350.83786 
L 839.233943 350.78473 
L 847.776398 351.098682 
L 856.318852 351.035892 
L 864.861307 351.055212 
L 873.403761 351.601006 
L 881.946216 351.282224 
L 890.48867 351.175963 
L 899.031125 351.707267 
L 907.57358 350.741259 
L 916.116034 351.485085 
L 924.658489 348.852714 
L 933.200943 350.248595 
L 941.743398 347.592073 
L 950.285852 265.68425 
" clip-path="url(#p7a5191d783)" style="fill: none; stroke: #434348; stroke-linecap: square"/>
   </g>
   <g id="line2d_9">
    <path d="M 96.040398 353.212183 
L 104.582852 353.209985 
L 113.125307 353.204557 
L 121.667761 353.221625 
L 130.210216 353.206254 
L 138.75267 353.220292 
L 147.295125 353.186512 
L 155.83758 353.193537 
L 164.380034 352.736493 
L 172.922489 351.139496 
L 181.464943 342.725638 
L 190.007398 349.688141 
L 198.549852 343.073697 
L 207.092307 349.872022 
L 215.634761 339.543192 
L 224.177216 343.746175 
L 232.71967 346.43083 
L 241.262125 345.117398 
L 249.80458 346.866889 
L 258.347034 346.683009 
L 266.889489 346.026293 
L 275.431943 347.245158 
L 283.974398 344.597279 
L 292.516852 347.492083 
L 301.059307 347.092799 
L 309.601761 348.616381 
L 318.144216 347.786291 
L 326.68667 347.481575 
L 335.229125 347.870351 
L 343.77158 342.149041 
L 352.314034 347.602411 
L 360.856489 347.954411 
L 369.398943 348.852798 
L 377.941398 350.139962 
L 386.483852 349.667126 
L 395.026307 350.20826 
L 403.568761 349.845753 
L 412.111216 350.113693 
L 420.65367 350.528738 
L 429.196125 350.055902 
L 437.73858 350.150469 
L 446.281034 348.884321 
L 454.823489 349.462231 
L 463.365943 350.512976 
L 471.908398 350.029633 
L 480.450852 349.819484 
L 488.993307 350.129454 
L 497.535761 350.171484 
L 506.078216 349.851007 
L 514.62067 350.833454 
L 523.163125 350.234529 
L 531.70558 350.308081 
L 540.248034 351.201215 
L 548.790489 350.8282 
L 557.332943 350.8282 
L 565.875398 350.838707 
L 574.417852 351.589991 
L 582.960307 348.96838 
L 591.502761 350.754648 
L 600.045216 351.012081 
L 608.58767 351.206468 
L 617.130125 350.738887 
L 625.67258 350.959543 
L 634.215034 350.928021 
L 642.757489 350.570767 
L 651.299943 351.316797 
L 659.842398 351.080379 
L 668.384852 350.460439 
L 676.927307 351.185454 
L 685.469761 351.358827 
L 694.012216 351.400856 
L 702.55467 350.386887 
L 711.097125 351.75811 
L 719.63958 351.626767 
L 728.182034 348.915843 
L 736.724489 351.899961 
L 745.266943 350.64432 
L 753.809398 350.959543 
L 762.351852 351.159185 
L 770.894307 350.581275 
L 779.436761 351.090886 
L 787.979216 351.395603 
L 796.52167 350.891245 
L 805.064125 350.891245 
L 813.60658 351.269513 
L 822.149034 351.05411 
L 830.691489 350.791424 
L 839.233943 350.707364 
L 847.776398 350.996319 
L 856.318852 351.148677 
L 864.861307 350.801931 
L 873.403761 351.458647 
L 881.946216 350.449932 
L 890.48867 351.09614 
L 899.031125 351.32205 
L 907.57358 350.607543 
L 916.116034 351.385095 
L 924.658489 348.695186 
L 933.200943 349.929813 
L 941.743398 345.632263 
L 950.285852 182.246575 
" clip-path="url(#p7a5191d783)" style="fill: none; stroke: #90ed7d; stroke-linecap: square"/>
   </g>
   <g id="line2d_10">
    <path d="M 96.040398 353.212592 
L 104.582852 353.210596 
L 113.125307 353.204766 
L 121.667761 353.221409 
L 130.210216 353.207574 
L 138.75267 353.219961 
L 147.295125 353.183926 
L 155.83758 353.193398 
L 164.380034 352.743533 
L 172.922489 351.055476 
L 181.464943 341.670298 
L 190.007398 349.553216 
L 198.549852 340.374236 
L 207.092307 350.165753 
L 215.634761 335.596448 
L 224.177216 342.583907 
L 232.71967 343.314414 
L 241.262125 341.131967 
L 249.80458 345.415189 
L 258.347034 346.041337 
L 266.889489 345.056741 
L 275.431943 346.817217 
L 283.974398 341.345221 
L 292.516852 345.437875 
L 301.059307 345.701039 
L 309.601761 348.178411 
L 318.144216 346.436083 
L 326.68667 348.137575 
L 335.229125 347.084919 
L 343.77158 346.3408 
L 352.314034 348.164799 
L 360.856489 348.641216 
L 369.398943 348.255545 
L 377.941398 349.344499 
L 386.483852 348.527784 
L 395.026307 349.839066 
L 403.568761 349.752857 
L 412.111216 350.106768 
L 420.65367 350.40623 
L 429.196125 349.535067 
L 437.73858 350.224738 
L 446.281034 350.447066 
L 454.823489 350.079544 
L 463.365943 350.397156 
L 471.908398 350.247424 
L 480.450852 350.310947 
L 488.993307 350.501514 
L 497.535761 350.941633 
L 506.078216 350.823663 
L 514.62067 351.154886 
L 523.163125 350.923484 
L 531.70558 350.887185 
L 540.248034 351.381752 
L 548.790489 350.932558 
L 557.332943 350.76014 
L 565.875398 351.145812 
L 574.417852 351.427125 
L 582.960307 350.537812 
L 591.502761 351.526946 
L 600.045216 351.626767 
L 608.58767 351.699364 
L 617.130125 351.145812 
L 625.67258 351.55417 
L 634.215034 351.744737 
L 642.757489 351.159424 
L 651.299943 351.817334 
L 659.842398 351.526946 
L 668.384852 350.977931 
L 676.927307 351.25017 
L 685.469761 351.853632 
L 694.012216 351.517871 
L 702.55467 350.950707 
L 711.097125 351.894468 
L 719.63958 351.781035 
L 728.182034 350.732916 
L 736.724489 352.134945 
L 745.266943 351.272856 
L 753.809398 351.472498 
L 762.351852 351.690289 
L 770.894307 350.891722 
L 779.436761 351.304618 
L 787.979216 351.622229 
L 796.52167 351.767423 
L 805.064125 351.653991 
L 813.60658 351.504259 
L 822.149034 351.241095 
L 830.691489 351.803722 
L 839.233943 350.800976 
L 847.776398 351.540558 
L 856.318852 351.422588 
L 864.861307 351.222946 
L 873.403761 351.72205 
L 881.946216 351.431662 
L 890.48867 351.60408 
L 899.031125 351.699364 
L 907.57358 351.086827 
L 916.116034 351.590468 
L 924.658489 350.065932 
L 933.200943 351.01423 
L 941.743398 348.309993 
L 950.285852 274.061442 
" clip-path="url(#p7a5191d783)" style="fill: none; stroke: #f7a35c; stroke-linecap: square"/>
   </g>
   <g id="line2d_11">
    <path d="M 96.040398 353.212428 
L 104.582852 353.210235 
L 113.125307 353.204454 
L 121.667761 353.221389 
L 130.210216 353.207411 
L 138.75267 353.220653 
L 147.295125 353.188016 
L 155.83758 353.196413 
L 164.380034 352.813021 
L 172.922489 351.375214 
L 181.464943 342.125638 
L 190.007398 350.033075 
L 198.549852 345.907721 
L 207.092307 350.657816 
L 215.634761 343.300332 
L 224.177216 346.542788 
L 232.71967 347.487644 
L 241.262125 346.842251 
L 249.80458 348.659678 
L 258.347034 348.344727 
L 266.889489 347.967817 
L 275.431943 348.608047 
L 283.974398 346.439525 
L 292.516852 348.824899 
L 301.059307 349.139851 
L 309.601761 350.213786 
L 318.144216 349.284419 
L 326.68667 349.428987 
L 335.229125 349.981444 
L 343.77158 349.72845 
L 352.314034 350.002097 
L 360.856489 350.146665 
L 369.398943 350.126012 
L 377.941398 350.74559 
L 386.483852 349.444477 
L 395.026307 350.977931 
L 403.568761 350.456453 
L 412.111216 350.544227 
L 420.65367 351.014073 
L 429.196125 350.492595 
L 437.73858 350.895321 
L 446.281034 350.802384 
L 454.823489 350.348027 
L 463.365943 351.019236 
L 471.908398 351.096684 
L 480.450852 350.812711 
L 488.993307 351.086357 
L 497.535761 350.931463 
L 506.078216 351.096684 
L 514.62067 350.621674 
L 523.163125 351.452941 
L 531.70558 350.7301 
L 540.248034 351.117336 
L 548.790489 350.967605 
L 557.332943 351.076031 
L 565.875398 351.246415 
L 574.417852 351.329025 
L 582.960307 350.719774 
L 591.502761 351.076031 
L 600.045216 351.427125 
L 608.58767 351.401309 
L 617.130125 350.084707 
L 625.67258 351.112173 
L 634.215034 351.313536 
L 642.757489 350.786895 
L 651.299943 351.37033 
L 659.842398 351.447778 
L 668.384852 350.709448 
L 676.927307 351.354841 
L 685.469761 351.416799 
L 694.012216 351.019236 
L 702.55467 350.874668 
L 711.097125 351.814361 
L 719.63958 351.447778 
L 728.182034 350.601022 
L 736.724489 352.253228 
L 745.266943 350.962442 
L 753.809398 350.931463 
L 762.351852 351.504572 
L 770.894307 350.632 
L 779.436761 350.64749 
L 787.979216 351.194783 
L 796.52167 351.282557 
L 805.064125 351.158641 
L 813.60658 351.344515 
L 822.149034 351.039889 
L 830.691489 351.168968 
L 839.233943 349.702634 
L 847.776398 350.957279 
L 856.318852 350.962442 
L 864.861307 350.461617 
L 873.403761 351.576856 
L 881.946216 351.10701 
L 890.48867 351.329025 
L 899.031125 351.458104 
L 907.57358 350.673306 
L 916.116034 351.64914 
L 924.658489 349.005609 
L 933.200943 350.580369 
L 941.743398 348.256953 
L 950.285852 315.744619 
" clip-path="url(#p7a5191d783)" style="fill: none; stroke: #8085e9; stroke-linecap: square"/>
   </g>
   <g id="line2d_12">
    <path d="M 96.040398 353.212387 
L 104.582852 353.210325 
L 113.125307 353.204378 
L 121.667761 353.221322 
L 130.210216 353.207429 
L 138.75267 353.22049 
L 147.295125 353.185088 
L 155.83758 353.194285 
L 164.380034 352.798084 
L 172.922489 351.262273 
L 181.464943 342.803675 
L 190.007398 349.767247 
L 198.549852 344.051792 
L 207.092307 350.379006 
L 215.634761 341.262512 
L 224.177216 345.185471 
L 232.71967 346.498828 
L 241.262125 345.241085 
L 249.80458 347.765126 
L 258.347034 348.115925 
L 266.889489 346.960856 
L 275.431943 348.017531 
L 283.974398 345.549104 
L 292.516852 347.795073 
L 301.059307 347.743736 
L 309.601761 349.604682 
L 318.144216 348.663514 
L 326.68667 349.270995 
L 335.229125 349.069927 
L 343.77158 349.715911 
L 352.314034 349.275273 
L 360.856489 348.967254 
L 369.398943 349.480619 
L 377.941398 350.575796 
L 386.483852 350.618576 
L 395.026307 350.986487 
L 403.568761 350.939429 
L 412.111216 350.263499 
L 420.65367 351.037824 
L 429.196125 350.511625 
L 437.73858 350.845312 
L 446.281034 350.661357 
L 454.823489 350.113768 
L 463.365943 350.853868 
L 471.908398 350.687025 
L 480.450852 350.533016 
L 488.993307 350.793976 
L 497.535761 350.960819 
L 506.078216 351.020712 
L 514.62067 351.106272 
L 523.163125 351.037824 
L 531.70558 350.746917 
L 540.248034 351.170443 
L 548.790489 350.986487 
L 557.332943 350.939429 
L 565.875398 351.294506 
L 574.417852 351.700919 
L 582.960307 350.554406 
L 591.502761 351.551188 
L 600.045216 351.487018 
L 608.58767 351.551188 
L 617.130125 350.973653 
L 625.67258 351.54691 
L 634.215034 351.418569 
L 642.757489 351.208945 
L 651.299943 351.414291 
L 659.842398 351.739422 
L 668.384852 350.909483 
L 676.927307 351.345842 
L 685.469761 351.944767 
L 694.012216 351.512686 
L 702.55467 351.213223 
L 711.097125 352.021772 
L 719.63958 351.923377 
L 728.182034 350.383284 
L 736.724489 352.218562 
L 745.266943 351.161887 
L 753.809398 351.080604 
L 762.351852 351.611081 
L 770.894307 350.592908 
L 779.436761 351.35012 
L 787.979216 351.315896 
L 796.52167 351.581134 
L 805.064125 351.166165 
L 813.60658 351.491296 
L 822.149034 351.140497 
L 830.691489 351.341564 
L 839.233943 350.54585 
L 847.776398 351.410013 
L 856.318852 351.007878 
L 864.861307 351.003599 
L 873.403761 351.897709 
L 881.946216 351.52552 
L 890.48867 351.641027 
L 899.031125 351.534076 
L 907.57358 351.435681 
L 916.116034 351.790758 
L 924.658489 349.206824 
L 933.200943 350.674191 
L 941.743398 347.927692 
L 950.285852 287.085468 
" clip-path="url(#p7a5191d783)" style="fill: none; stroke: #f15c80; stroke-linecap: square"/>
   </g>
   <g id="line2d_13">
    <path d="M 96.040398 353.211825 
L 104.582852 353.209474 
L 113.125307 353.203528 
L 121.667761 353.221675 
L 130.210216 353.205872 
L 138.75267 353.220398 
L 147.295125 353.18626 
L 155.83758 353.194166 
L 164.380034 352.802334 
L 172.922489 351.390861 
L 181.464943 344.235533 
L 190.007398 349.893877 
L 198.549852 345.551671 
L 207.092307 349.86992 
L 215.634761 343.706982 
L 224.177216 344.83895 
L 232.71967 347.863521 
L 241.262125 346.617757 
L 249.80458 347.719779 
L 258.347034 348.216887 
L 266.889489 347.300532 
L 275.431943 347.749726 
L 283.974398 345.695413 
L 292.516852 348.905651 
L 301.059307 348.27678 
L 309.601761 349.70821 
L 318.144216 349.444683 
L 326.68667 347.869511 
L 335.229125 348.210898 
L 343.77158 339.676217 
L 352.314034 349.115275 
L 360.856489 349.450673 
L 369.398943 349.444683 
L 377.941398 350.163393 
L 386.483852 349.528533 
L 395.026307 351.049802 
L 403.568761 350.151415 
L 412.111216 350.822211 
L 420.65367 351.097716 
L 429.196125 350.408953 
L 437.73858 351.175577 
L 446.281034 350.115479 
L 454.823489 349.241049 
L 463.365943 350.983921 
L 471.908398 351.331297 
L 480.450852 351.037824 
L 488.993307 351.097716 
L 497.535761 350.606598 
L 506.078216 350.696437 
L 514.62067 351.217501 
L 523.163125 350.576652 
L 531.70558 350.42692 
L 540.248034 351.3852 
L 548.790489 350.480824 
L 557.332943 350.576652 
L 565.875398 350.744351 
L 574.417852 351.510975 
L 582.960307 348.708006 
L 591.502761 351.019856 
L 600.045216 351.403168 
L 608.58767 351.223491 
L 617.130125 351.061781 
L 625.67258 350.822211 
L 634.215034 350.947985 
L 642.757489 350.516759 
L 651.299943 351.019856 
L 659.842398 351.181566 
L 668.384852 350.414942 
L 676.927307 350.738361 
L 685.469761 351.007878 
L 694.012216 351.193544 
L 702.55467 349.582436 
L 711.097125 351.702631 
L 719.63958 351.660706 
L 728.182034 349.384791 
L 736.724489 351.816426 
L 745.266943 350.486813 
L 753.809398 350.612587 
L 762.351852 351.319319 
L 770.894307 350.241254 
L 779.436761 350.726383 
L 787.979216 351.073759 
L 796.52167 350.462856 
L 805.064125 350.983921 
L 813.60658 350.804243 
L 822.149034 351.007878 
L 830.691489 350.600609 
L 839.233943 350.402963 
L 847.776398 350.75034 
L 856.318852 350.67248 
L 864.861307 350.594619 
L 873.403761 351.516964 
L 881.946216 350.690447 
L 890.48867 350.798254 
L 899.031125 351.415147 
L 907.57358 350.414942 
L 916.116034 351.235469 
L 924.658489 348.402554 
L 933.200943 350.205318 
L 941.743398 348.11507 
L 950.285852 315.323926 
" clip-path="url(#p7a5191d783)" style="fill: none; stroke: #e4d354; stroke-linecap: square"/>
   </g>
   <g id="line2d_14">
    <path d="M 96.040398 353.212636 
L 104.582852 353.210546 
L 113.125307 353.204871 
L 121.667761 353.221594 
L 130.210216 353.206935 
L 138.75267 353.219963 
L 147.295125 353.187153 
L 155.83758 353.192361 
L 164.380034 352.710321 
L 172.922489 350.834815 
L 181.464943 343.599007 
L 190.007398 349.388848 
L 198.549852 339.99925 
L 207.092307 349.6545 
L 215.634761 337.178506 
L 224.177216 342.496381 
L 232.71967 344.911401 
L 241.262125 343.61695 
L 249.80458 345.954689 
L 258.347034 346.244492 
L 266.889489 345.515156 
L 275.431943 346.688855 
L 283.974398 343.428578 
L 292.516852 346.688855 
L 301.059307 346.568104 
L 309.601761 348.601551 
L 318.144216 347.075259 
L 326.68667 347.775615 
L 335.229125 348.171678 
L 343.77158 348.42284 
L 352.314034 347.775615 
L 360.856489 347.307101 
L 369.398943 347.563093 
L 377.941398 350.055394 
L 386.483852 350.306556 
L 395.026307 350.760579 
L 403.568761 349.755931 
L 412.111216 350.446627 
L 420.65367 350.929631 
L 429.196125 350.137504 
L 437.73858 350.485267 
L 446.281034 349.422658 
L 454.823489 348.828563 
L 463.365943 350.606018 
L 471.908398 350.335536 
L 480.450852 349.61586 
L 488.993307 350.552888 
L 497.535761 350.557718 
L 506.078216 350.736429 
L 514.62067 350.963441 
L 523.163125 350.519077 
L 531.70558 350.156824 
L 540.248034 351.224263 
L 548.790489 350.601188 
L 557.332943 350.890991 
L 565.875398 350.963441 
L 574.417852 351.359504 
L 582.960307 349.036255 
L 591.502761 351.113172 
L 600.045216 351.301544 
L 608.58767 351.151813 
L 617.130125 351.267734 
L 625.67258 351.262904 
L 634.215034 351.045552 
L 642.757489 350.85718 
L 651.299943 351.243583 
L 659.842398 351.156643 
L 668.384852 350.85718 
L 676.927307 351.272564 
L 685.469761 351.407805 
L 694.012216 351.629987 
L 702.55467 350.354856 
L 711.097125 351.837678 
L 719.63958 351.905299 
L 728.182034 349.707631 
L 736.724489 351.885979 
L 745.266943 350.80405 
L 753.809398 350.915141 
L 762.351852 351.644477 
L 770.894307 350.499757 
L 779.436761 350.929631 
L 787.979216 351.258074 
L 796.52167 350.939291 
L 805.064125 350.910311 
L 813.60658 351.446445 
L 822.149034 351.330524 
L 830.691489 350.944121 
L 839.233943 350.272745 
L 847.776398 351.050382 
L 856.318852 350.987591 
L 864.861307 350.85235 
L 873.403761 351.644477 
L 881.946216 351.209773 
L 890.48867 351.045552 
L 899.031125 351.629987 
L 907.57358 350.79922 
L 916.116034 351.533386 
L 924.658489 348.857544 
L 933.200943 350.301726 
L 941.743398 347.075259 
L 950.285852 253.778201 
" clip-path="url(#p7a5191d783)" style="fill: none; stroke: #2b908f; stroke-linecap: square"/>
   </g>
   <g id="line2d_15">
    <path d="M 96.040398 353.212505 
L 104.582852 353.210424 
L 113.125307 353.204627 
L 121.667761 353.221697 
L 130.210216 353.20689 
L 138.75267 353.220209 
L 147.295125 353.186959 
L 155.83758 353.192052 
L 164.380034 352.719268 
L 172.922489 350.855342 
L 181.464943 344.342663 
L 190.007398 349.301907 
L 198.549852 342.38529 
L 207.092307 349.374358 
L 215.634761 338.77725 
L 224.177216 343.563819 
L 232.71967 345.824278 
L 241.262125 343.906752 
L 249.80458 346.133401 
L 258.347034 346.659875 
L 266.889489 345.761488 
L 275.431943 346.553614 
L 283.974398 343.776341 
L 292.516852 346.563274 
L 301.059307 346.732326 
L 309.601761 348.823733 
L 318.144216 347.664524 
L 326.68667 348.42767 
L 335.229125 347.823915 
L 343.77158 347.794935 
L 352.314034 347.548603 
L 360.856489 347.002808 
L 369.398943 347.756294 
L 377.941398 349.982943 
L 386.483852 350.412817 
L 395.026307 350.272745 
L 403.568761 349.871852 
L 412.111216 349.746271 
L 420.65367 350.692959 
L 429.196125 349.62552 
L 437.73858 350.601188 
L 446.281034 349.243947 
L 454.823489 348.920334 
L 463.365943 350.045733 
L 471.908398 350.258255 
L 480.450852 350.219615 
L 488.993307 350.721939 
L 497.535761 350.663979 
L 506.078216 350.321046 
L 514.62067 351.171133 
L 523.163125 350.436967 
L 531.70558 350.82337 
L 540.248034 351.089022 
L 548.790489 351.209773 
L 557.332943 350.567378 
L 565.875398 351.050382 
L 574.417852 351.460935 
L 582.960307 348.949314 
L 591.502761 351.296714 
L 600.045216 350.992421 
L 608.58767 351.132493 
L 617.130125 351.291884 
L 625.67258 351.243583 
L 634.215034 351.200113 
L 642.757489 350.79922 
L 651.299943 351.180793 
L 659.842398 351.084192 
L 668.384852 350.475607 
L 676.927307 351.045552 
L 685.469761 351.146983 
L 694.012216 351.229093 
L 702.55467 350.562548 
L 711.097125 351.518896 
L 719.63958 351.919789 
L 728.182034 349.355038 
L 736.724489 351.99707 
L 745.266943 350.702619 
L 753.809398 350.919971 
L 762.351852 351.335354 
L 770.894307 350.673639 
L 779.436761 351.118002 
L 787.979216 351.103512 
L 796.52167 350.963441 
L 805.064125 350.83786 
L 813.60658 350.977931 
L 822.149034 351.229093 
L 830.691489 350.958611 
L 839.233943 350.485267 
L 847.776398 351.122832 
L 856.318852 351.060042 
L 864.861307 350.968271 
L 873.403761 351.320864 
L 881.946216 350.83786 
L 890.48867 351.224263 
L 899.031125 351.562366 
L 907.57358 351.166303 
L 916.116034 351.509236 
L 924.658489 349.301907 
L 933.200943 350.229275 
L 941.743398 347.432682 
L 950.285852 285.323194 
" clip-path="url(#p7a5191d783)" style="fill: none; stroke: #f45b5b; stroke-linecap: square"/>
   </g>
   <g id="line2d_16">
    <path d="M 96.040398 353.21206 
L 104.582852 353.209927 
L 113.125307 353.203762 
L 121.667761 353.221251 
L 130.210216 353.207259 
L 138.75267 353.220577 
L 147.295125 353.183881 
L 155.83758 353.193346 
L 164.380034 352.82611 
L 172.922489 351.336445 
L 181.464943 343.186481 
L 190.007398 349.994913 
L 198.549852 344.318146 
L 207.092307 350.420237 
L 215.634761 342.043967 
L 224.177216 345.793758 
L 232.71967 347.28673 
L 241.262125 346.258142 
L 249.80458 348.028877 
L 258.347034 348.597421 
L 266.889489 347.399571 
L 275.431943 348.38476 
L 283.974398 346.175681 
L 292.516852 348.44552 
L 301.059307 348.840463 
L 309.601761 349.977553 
L 318.144216 349.244087 
L 326.68667 349.192006 
L 335.229125 349.60431 
L 343.77158 349.165966 
L 352.314034 349.64337 
L 360.856489 350.055674 
L 369.398943 350.277015 
L 377.941398 350.654599 
L 386.483852 349.695451 
L 395.026307 350.402876 
L 403.568761 351.006142 
L 412.111216 350.697999 
L 420.65367 350.919341 
L 429.196125 350.86726 
L 437.73858 350.572138 
L 446.281034 350.76744 
L 454.823489 350.450617 
L 463.365943 351.448825 
L 471.908398 351.214463 
L 480.450852 350.580818 
L 488.993307 350.83688 
L 497.535761 350.8065 
L 506.078216 351.231823 
L 514.62067 351.448825 
L 523.163125 350.988781 
L 531.70558 350.958401 
L 540.248034 351.505246 
L 548.790489 351.084262 
L 557.332943 351.036522 
L 565.875398 351.197103 
L 574.417852 351.765648 
L 582.960307 350.86292 
L 591.502761 351.730928 
L 600.045216 351.583366 
L 608.58767 351.570346 
L 617.130125 351.492226 
L 625.67258 351.587706 
L 634.215034 351.661487 
L 642.757489 351.370705 
L 651.299943 351.683187 
L 659.842398 351.613747 
L 668.384852 350.78914 
L 676.927307 351.223143 
L 685.469761 351.535626 
L 694.012216 351.500906 
L 702.55467 351.114642 
L 711.097125 351.960949 
L 719.63958 351.926229 
L 728.182034 350.732719 
L 736.724489 352.503454 
L 745.266943 351.253524 
L 753.809398 351.253524 
L 762.351852 351.657147 
L 770.894307 350.81518 
L 779.436761 351.305604 
L 787.979216 351.717907 
L 796.52167 351.735268 
L 805.064125 351.579026 
L 813.60658 351.431465 
L 822.149034 351.053882 
L 830.691489 351.474865 
L 839.233943 351.101622 
L 847.776398 351.522606 
L 856.318852 351.257864 
L 864.861307 350.82386 
L 873.403761 351.835088 
L 881.946216 351.487886 
L 890.48867 351.626767 
L 899.031125 351.796028 
L 907.57358 351.006142 
L 916.116034 351.626767 
L 924.658489 349.261447 
L 933.200943 351.066902 
L 941.743398 348.219838 
L 950.285852 278.050133 
" clip-path="url(#p7a5191d783)" style="fill: none; stroke: #91e8e1; stroke-linecap: square"/>
   </g>
   <g id="line2d_17">
    <path d="M 96.040398 353.212217 
L 104.582852 353.210222 
L 113.125307 353.20416 
L 121.667761 353.221207 
L 130.210216 353.207247 
L 138.75267 353.220426 
L 147.295125 353.184657 
L 155.83758 353.193964 
L 164.380034 352.794173 
L 172.922489 351.242941 
L 181.464943 342.322942 
L 190.007398 349.677634 
L 198.549852 342.684922 
L 207.092307 350.360618 
L 215.634761 339.322536 
L 224.177216 344.455428 
L 232.71967 345.753099 
L 241.262125 344.339846 
L 249.80458 347.612918 
L 258.347034 347.639187 
L 266.889489 346.809098 
L 275.431943 347.991187 
L 283.974398 345.784621 
L 292.516852 347.439545 
L 301.059307 347.791545 
L 309.601761 349.393932 
L 318.144216 348.358948 
L 326.68667 349.346649 
L 335.229125 349.399186 
L 343.77158 349.54629 
L 352.314034 349.420201 
L 360.856489 349.062947 
L 369.398943 349.509514 
L 377.941398 350.775663 
L 386.483852 350.139962 
L 395.026307 349.640857 
L 403.568761 350.675842 
L 412.111216 351.012081 
L 420.65367 351.174946 
L 429.196125 350.996319 
L 437.73858 351.101394 
L 446.281034 350.702111 
L 454.823489 350.134708 
L 463.365943 350.954289 
L 471.908398 351.033095 
L 480.450852 350.702111 
L 488.993307 351.117155 
L 497.535761 351.264259 
L 506.078216 351.101394 
L 514.62067 351.479662 
L 523.163125 351.379841 
L 531.70558 351.101394 
L 540.248034 351.626767 
L 548.790489 351.206468 
L 557.332943 351.495423 
L 565.875398 351.432379 
L 574.417852 351.826408 
L 582.960307 350.759902 
L 591.502761 351.500677 
L 600.045216 351.605752 
L 608.58767 351.821155 
L 617.130125 351.201215 
L 625.67258 351.67405 
L 634.215034 351.773871 
L 642.757489 351.416618 
L 651.299943 351.653035 
L 659.842398 351.721334 
L 668.384852 351.012081 
L 676.927307 351.563722 
L 685.469761 351.899961 
L 694.012216 351.863184 
L 702.55467 350.996319 
L 711.097125 352.057572 
L 719.63958 351.936737 
L 728.182034 350.607543 
L 736.724489 352.178408 
L 745.266943 351.13817 
L 753.809398 351.353573 
L 762.351852 351.794886 
L 770.894307 350.570767 
L 779.436761 351.495423 
L 787.979216 351.731841 
L 796.52167 351.826408 
L 805.064125 351.568976 
L 813.60658 351.616259 
L 822.149034 351.174946 
L 830.691489 351.500677 
L 839.233943 350.549752 
L 847.776398 351.863184 
L 856.318852 351.411364 
L 864.861307 351.038349 
L 873.403761 351.894707 
L 881.946216 351.337812 
L 890.48867 351.679304 
L 899.031125 351.936737 
L 907.57358 351.185454 
L 916.116034 351.721334 
L 924.658489 349.556798 
L 933.200943 351.080379 
L 941.743398 348.668918 
L 950.285852 301.632291 
" clip-path="url(#p7a5191d783)" style="fill: none; stroke: #7cb5ec; stroke-linecap: square"/>
   </g>
   <g id="line2d_18">
    <path d="M 96.040398 353.210989 
L 104.582852 353.210809 
L 113.125307 353.204548 
L 121.667761 353.221083 
L 130.210216 353.207746 
L 138.75267 353.219865 
L 147.295125 353.187511 
L 155.83758 353.195518 
L 164.380034 352.760569 
L 172.922489 351.129021 
L 181.464943 342.651513 
L 190.007398 349.777359 
L 198.549852 341.659203 
L 207.092307 350.300057 
L 215.634761 336.470334 
L 224.177216 343.363417 
L 232.71967 344.027679 
L 241.262125 343.428754 
L 249.80458 346.025911 
L 258.347034 346.711952 
L 266.889489 345.497768 
L 275.431943 346.891629 
L 283.974398 343.907894 
L 292.516852 346.314483 
L 301.059307 346.374376 
L 309.601761 347.898912 
L 318.144216 346.020466 
L 326.68667 347.027749 
L 335.229125 346.978746 
L 343.77158 346.548609 
L 352.314034 347.212871 
L 360.856489 348.176596 
L 369.398943 347.94247 
L 377.941398 345.955128 
L 386.483852 342.949614 
L 395.026307 349.238326 
L 403.568761 350.893537 
L 412.111216 350.163938 
L 420.65367 349.069538 
L 429.196125 350.506958 
L 437.73858 350.898982 
L 446.281034 351.187555 
L 454.823489 349.123986 
L 463.365943 349.891699 
L 471.908398 349.031425 
L 480.450852 348.035032 
L 488.993307 349.967926 
L 497.535761 350.414397 
L 506.078216 350.975209 
L 514.62067 350.376284 
L 523.163125 350.104045 
L 531.70558 349.717466 
L 540.248034 350.768308 
L 548.790489 350.300057 
L 557.332943 350.670302 
L 565.875398 350.991543 
L 574.417852 350.539627 
L 582.960307 350.142159 
L 591.502761 351.094994 
L 600.045216 351.334564 
L 608.58767 351.819149 
L 617.130125 350.95343 
L 625.67258 351.29645 
L 634.215034 351.840928 
L 642.757489 351.06777 
L 651.299943 351.193 
L 659.842398 351.334564 
L 668.384852 350.621299 
L 676.927307 351.203889 
L 685.469761 351.693919 
L 694.012216 351.454349 
L 702.55467 351.133107 
L 711.097125 351.813704 
L 719.63958 351.949823 
L 728.182034 350.643078 
L 736.724489 352.396295 
L 745.266943 351.133107 
L 753.809398 351.252892 
L 762.351852 351.770146 
L 770.894307 350.81731 
L 779.436761 351.285561 
L 787.979216 351.67214 
L 796.52167 351.759256 
L 805.064125 351.601358 
L 813.60658 351.704808 
L 822.149034 351.073215 
L 830.691489 351.748367 
L 839.233943 351.06777 
L 847.776398 351.655805 
L 856.318852 351.465238 
L 864.861307 350.724749 
L 873.403761 351.514241 
L 881.946216 351.247448 
L 890.48867 351.519686 
L 899.031125 351.683029 
L 907.57358 351.045991 
L 916.116034 351.263782 
L 924.658489 348.601288 
L 933.200943 351.013322 
L 941.743398 345.356203 
L 950.285852 181.092856 
" clip-path="url(#p7a5191d783)" style="fill: none; stroke: #434348; stroke-linecap: square"/>
   </g>
   <g id="line2d_19">
    <path d="M 96.040398 353.213032 
L 104.582852 353.210939 
L 113.125307 353.205662 
L 121.667761 353.221696 
L 130.210216 353.206947 
L 138.75267 353.219802 
L 147.295125 353.185026 
L 155.83758 353.185627 
L 164.380034 352.668036 
L 172.922489 350.502494 
L 181.464943 342.515494 
L 190.007398 348.778754 
L 198.549852 338.657857 
L 207.092307 348.549478 
L 215.634761 332.958711 
L 224.177216 339.827632 
L 232.71967 342.957951 
L 241.262125 340.276826 
L 249.80458 343.940563 
L 258.347034 344.366361 
L 266.889489 343.411824 
L 275.431943 344.99804 
L 283.974398 341.301549 
L 292.516852 344.399115 
L 301.059307 344.179197 
L 309.601761 347.332911 
L 318.144216 344.937211 
L 326.68667 346.027442 
L 335.229125 344.609674 
L 343.77158 333.969397 
L 352.314034 346.345621 
L 360.856489 345.662472 
L 369.398943 346.92115 
L 377.941398 347.786784 
L 386.483852 348.540119 
L 395.026307 349.957887 
L 403.568761 349.737969 
L 412.111216 349.321529 
L 420.65367 348.493328 
L 429.196125 348.699209 
L 437.73858 350.210559 
L 446.281034 349.513372 
L 454.823489 348.315523 
L 463.365943 349.52741 
L 471.908398 348.633701 
L 480.450852 348.853619 
L 488.993307 349.438507 
L 497.535761 349.990641 
L 506.078216 349.878342 
L 514.62067 350.04679 
L 523.163125 349.546126 
L 531.70558 349.84091 
L 540.248034 350.280745 
L 548.790489 350.570849 
L 557.332943 350.449193 
L 565.875398 350.743976 
L 574.417852 351.127663 
L 582.960307 349.466581 
L 591.502761 350.991969 
L 600.045216 351.300789 
L 608.58767 351.235282 
L 617.130125 350.870312 
L 625.67258 351.006006 
L 634.215034 351.19317 
L 642.757489 350.407081 
L 651.299943 351.225924 
L 659.842398 351.020043 
L 668.384852 350.683148 
L 676.927307 351.375655 
L 685.469761 351.277394 
L 694.012216 351.211886 
L 702.55467 350.416439 
L 711.097125 351.562819 
L 719.63958 351.436483 
L 728.182034 350.093581 
L 736.724489 351.778058 
L 745.266943 351.03876 
L 753.809398 350.818842 
L 762.351852 351.394371 
L 770.894307 350.818842 
L 779.436761 351.057476 
L 787.979216 351.436483 
L 796.52167 351.001327 
L 805.064125 351.094909 
L 813.60658 351.356938 
L 822.149034 350.837558 
L 830.691489 351.080872 
L 839.233943 350.762693 
L 847.776398 351.024722 
L 856.318852 351.108946 
L 864.861307 351.478595 
L 873.403761 351.4552 
L 881.946216 350.842237 
L 890.48867 351.202528 
L 899.031125 351.684476 
L 907.57358 350.87967 
L 916.116034 351.417767 
L 924.658489 348.802149 
L 933.200943 349.789439 
L 941.743398 343.566234 
L 950.285852 50.397128 
" clip-path="url(#p7a5191d783)" style="fill: none; stroke: #90ed7d; stroke-linecap: square"/>
   </g>
   <g id="line2d_20">
    <path d="M 96.040398 353.212725 
L 104.582852 353.210525 
L 113.125307 353.2048 
L 121.667761 353.221542 
L 130.210216 353.207058 
L 138.75267 353.220001 
L 147.295125 353.186865 
L 155.83758 353.190392 
L 164.380034 352.719672 
L 172.922489 350.733811 
L 181.464943 342.790577 
L 190.007398 349.507619 
L 198.549852 341.147216 
L 207.092307 349.905266 
L 215.634761 337.195293 
L 224.177216 342.914535 
L 232.71967 345.192414 
L 241.262125 343.606736 
L 249.80458 346.022072 
L 258.347034 346.076074 
L 266.889489 345.187505 
L 275.431943 346.576814 
L 283.974398 343.601826 
L 292.516852 346.193895 
L 301.059307 346.778092 
L 309.601761 348.638687 
L 318.144216 347.323016 
L 326.68667 347.072646 
L 335.229125 348.353952 
L 343.77158 349.330888 
L 352.314034 347.691208 
L 360.856489 347.637206 
L 369.398943 348.49632 
L 377.941398 350.219457 
L 386.483852 349.949449 
L 395.026307 349.615622 
L 403.568761 349.522347 
L 412.111216 349.394707 
L 420.65367 350.680923 
L 429.196125 350.769289 
L 437.73858 350.838018 
L 446.281034 350.027997 
L 454.823489 349.213066 
L 463.365943 350.214547 
L 471.908398 350.268549 
L 480.450852 350.042725 
L 488.993307 350.32255 
L 497.535761 350.779108 
L 506.078216 350.499282 
L 514.62067 350.715288 
L 523.163125 350.415825 
L 531.70558 350.430553 
L 540.248034 351.108026 
L 548.790489 350.676014 
L 557.332943 351.063843 
L 565.875398 350.739834 
L 574.417852 351.618585 
L 582.960307 349.389798 
L 591.502761 351.378033 
L 600.045216 351.500763 
L 608.58767 351.530219 
L 617.130125 351.103116 
L 625.67258 351.216028 
L 634.215034 351.27003 
L 642.757489 350.587648 
L 651.299943 351.348577 
L 659.842398 351.132572 
L 668.384852 350.690742 
L 676.927307 351.279848 
L 685.469761 351.319122 
L 694.012216 351.530219 
L 702.55467 350.489464 
L 711.097125 351.952412 
L 719.63958 351.608766 
L 728.182034 349.8169 
L 736.724489 352.050596 
L 745.266943 350.921475 
L 753.809398 351.294576 
L 762.351852 351.486036 
L 770.894307 350.906748 
L 779.436761 351.093298 
L 787.979216 351.490945 
L 796.52167 351.068752 
L 805.064125 351.058933 
L 813.60658 351.39276 
L 822.149034 351.422216 
L 830.691489 351.186573 
L 839.233943 350.656377 
L 847.776398 351.235665 
L 856.318852 351.009841 
L 864.861307 351.054024 
L 873.403761 351.849318 
L 881.946216 351.166936 
L 890.48867 351.328941 
L 899.031125 351.780589 
L 907.57358 351.073661 
L 916.116034 351.819863 
L 924.658489 349.713807 
L 933.200943 350.288186 
L 941.743398 346.797729 
L 950.285852 252.413041 
" clip-path="url(#p7a5191d783)" style="fill: none; stroke: #f7a35c; stroke-linecap: square"/>
   </g>
   <g id="line2d_21">
    <path d="M 96.040398 353.212874 
L 104.582852 353.210826 
L 113.125307 353.205179 
L 121.667761 353.221604 
L 130.210216 353.20766 
L 138.75267 353.220169 
L 147.295125 353.186704 
L 155.83758 353.193781 
L 164.380034 352.741394 
L 172.922489 350.902101 
L 181.464943 342.991344 
L 190.007398 349.115098 
L 198.549852 340.258935 
L 207.092307 349.714023 
L 215.634761 336.577308 
L 224.177216 341.835517 
L 232.71967 343.812851 
L 241.262125 342.002864 
L 249.80458 345.552375 
L 258.347034 345.266125 
L 266.889489 344.6672 
L 275.431943 346.459571 
L 283.974398 341.980845 
L 292.516852 345.499529 
L 301.059307 345.547972 
L 309.601761 347.859998 
L 318.144216 346.072031 
L 326.68667 347.807152 
L 335.229125 347.195015 
L 343.77158 348.128634 
L 352.314034 347.089323 
L 360.856489 347.472459 
L 369.398943 348.467731 
L 377.941398 349.084271 
L 386.483852 348.692328 
L 395.026307 349.832928 
L 403.568761 348.604251 
L 412.111216 349.612735 
L 420.65367 349.51585 
L 429.196125 350.180833 
L 437.73858 350.32616 
L 446.281034 349.692004 
L 454.823489 349.009406 
L 463.365943 350.022294 
L 471.908398 349.471811 
L 480.450852 349.599523 
L 488.993307 350.057524 
L 497.535761 350.330564 
L 506.078216 350.63443 
L 514.62067 350.431853 
L 523.163125 350.453872 
L 531.70558 350.704892 
L 540.248034 351.308221 
L 548.790489 351.030778 
L 557.332943 350.682873 
L 565.875398 350.951508 
L 574.417852 351.515202 
L 582.960307 349.282445 
L 591.502761 351.048393 
L 600.045216 351.493183 
L 608.58767 351.110047 
L 617.130125 350.748931 
L 625.67258 351.008758 
L 634.215034 351.38749 
L 642.757489 350.630026 
L 651.299943 351.343452 
L 659.842398 351.356663 
L 668.384852 350.559565 
L 676.927307 351.202528 
L 685.469761 351.493183 
L 694.012216 351.550433 
L 702.55467 350.559565 
L 711.097125 351.757415 
L 719.63958 351.722184 
L 728.182034 349.736043 
L 736.724489 352.061281 
L 745.266943 351.224547 
L 753.809398 351.396298 
L 762.351852 351.576856 
L 770.894307 350.933893 
L 779.436761 350.999951 
L 787.979216 351.427125 
L 796.52167 351.312625 
L 805.064125 351.237759 
L 813.60658 351.268586 
L 822.149034 350.955912 
L 830.691489 350.920681 
L 839.233943 350.753334 
L 847.776398 351.114451 
L 856.318852 351.140874 
L 864.861307 351.250971 
L 873.403761 351.607683 
L 881.946216 350.709296 
L 890.48867 351.211336 
L 899.031125 351.876319 
L 907.57358 351.176105 
L 916.116034 351.642914 
L 924.658489 349.440984 
L 933.200943 350.726911 
L 941.743398 347.049688 
L 950.285852 257.140477 
" clip-path="url(#p7a5191d783)" style="fill: none; stroke: #8085e9; stroke-linecap: square"/>
   </g>
   <g id="line2d_22">
    <path d="M 96.040398 353.211921 
L 104.582852 353.209803 
L 113.125307 353.203524 
L 121.667761 353.220784 
L 130.210216 353.2077 
L 138.75267 353.220696 
L 147.295125 353.187369 
L 155.83758 353.195193 
L 164.380034 352.847092 
L 172.922489 351.596687 
L 181.464943 339.790245 
L 190.007398 350.352583 
L 198.549852 345.54944 
L 207.092307 350.616815 
L 215.634761 344.210666 
L 224.177216 346.060287 
L 232.71967 347.657421 
L 241.262125 346.301032 
L 249.80458 348.684988 
L 258.347034 349.043169 
L 266.889489 348.30332 
L 275.431943 348.825912 
L 283.974398 346.888213 
L 292.516852 348.790681 
L 301.059307 349.002066 
L 309.601761 350.8282 
L 318.144216 349.665581 
L 326.68667 349.424837 
L 335.229125 349.82412 
L 343.77158 349.195836 
L 352.314034 350.223403 
L 360.856489 350.188172 
L 369.398943 350.56984 
L 377.941398 350.76361 
L 386.483852 350.21166 
L 395.026307 350.393686 
L 403.568761 350.89279 
L 412.111216 351.110047 
L 420.65367 351.168765 
L 429.196125 350.986739 
L 437.73858 351.50933 
L 446.281034 350.546353 
L 454.823489 350.869303 
L 463.365943 351.603279 
L 471.908398 351.315561 
L 480.450852 351.368407 
L 488.993307 351.397766 
L 497.535761 351.485843 
L 506.078216 351.57392 
L 514.62067 351.491715 
L 523.163125 351.15115 
L 531.70558 351.133534 
L 540.248034 352.020178 
L 548.790489 351.544561 
L 557.332943 351.620895 
L 565.875398 351.644382 
L 574.417852 351.808793 
L 582.960307 350.487635 
L 591.502761 351.57392 
L 600.045216 351.667869 
L 608.58767 351.7031 
L 617.130125 351.4741 
L 625.67258 351.526946 
L 634.215034 351.585664 
L 642.757489 351.432997 
L 651.299943 351.838152 
L 659.842398 351.656126 
L 668.384852 350.95738 
L 676.927307 351.720716 
L 685.469761 351.808793 
L 694.012216 351.708972 
L 702.55467 351.139406 
L 711.097125 352.061281 
L 719.63958 351.984947 
L 728.182034 350.939764 
L 736.724489 352.349 
L 745.266943 351.63851 
L 753.809398 351.356663 
L 762.351852 351.914486 
L 770.894307 350.875175 
L 779.436761 351.609151 
L 787.979216 351.685485 
L 796.52167 351.755947 
L 805.064125 351.632638 
L 813.60658 351.609151 
L 822.149034 351.339048 
L 830.691489 351.679613 
L 839.233943 351.092432 
L 847.776398 351.861639 
L 856.318852 351.438869 
L 864.861307 351.503459 
L 873.403761 351.744203 
L 881.946216 351.491715 
L 890.48867 351.838152 
L 899.031125 352.008435 
L 907.57358 351.63851 
L 916.116034 351.949716 
L 924.658489 349.712555 
L 933.200943 351.28033 
L 941.743398 349.166477 
L 950.285852 311.856973 
" clip-path="url(#p7a5191d783)" style="fill: none; stroke: #f15c80; stroke-linecap: square"/>
   </g>
   <g id="line2d_23">
    <path d="M 96.040398 353.213537 
L 104.582852 353.212157 
L 113.125307 353.206912 
L 121.667761 353.220786 
L 130.210216 353.209779 
L 138.75267 353.2207 
L 147.295125 353.188637 
L 155.83758 353.197474 
L 164.380034 352.839368 
L 172.922489 351.070054 
L 181.464943 335.877951 
L 190.007398 350.146091 
L 198.549852 340.401082 
L 207.092307 350.799086 
L 215.634761 336.61205 
L 224.177216 343.229339 
L 232.71967 344.863905 
L 241.262125 342.800941 
L 249.80458 346.361218 
L 258.347034 346.465198 
L 266.889489 345.429557 
L 275.431943 347.463406 
L 283.974398 342.958991 
L 292.516852 346.282193 
L 301.059307 346.906073 
L 309.601761 348.669575 
L 318.144216 346.768819 
L 326.68667 348.228699 
L 335.229125 347.051645 
L 343.77158 342.484842 
L 352.314034 348.507366 
L 360.856489 348.740281 
L 369.398943 348.411704 
L 377.941398 348.960719 
L 386.483852 349.314251 
L 395.026307 349.721852 
L 403.568761 349.58044 
L 412.111216 349.821673 
L 420.65367 349.863265 
L 429.196125 349.954768 
L 437.73858 350.586966 
L 446.281034 350.599444 
L 454.823489 350.478827 
L 463.365943 349.692738 
L 471.908398 348.939923 
L 480.450852 347.679685 
L 488.993307 349.405753 
L 497.535761 350.528738 
L 506.078216 351.335623 
L 514.62067 350.695106 
L 523.163125 350.595285 
L 531.70558 350.757494 
L 540.248034 351.356419 
L 548.790489 351.306508 
L 557.332943 351.851364 
L 565.875398 351.76818 
L 574.417852 352.342149 
L 582.960307 351.331463 
L 591.502761 352.17994 
L 600.045216 352.063483 
L 608.58767 352.196577 
L 617.130125 352.105075 
L 625.67258 352.146667 
L 634.215034 352.08012 
L 642.757489 351.863841 
L 651.299943 352.138348 
L 659.842398 351.784816 
L 668.384852 351.859682 
L 676.927307 352.07596 
L 685.469761 352.375423 
L 694.012216 352.021891 
L 702.55467 352.175781 
L 711.097125 352.383741 
L 719.63958 352.358786 
L 728.182034 351.601811 
L 736.724489 352.60002 
L 745.266943 352.067642 
L 753.809398 352.100916 
L 762.351852 352.400378 
L 770.894307 351.734906 
L 779.436761 351.863841 
L 787.979216 352.417015 
L 796.52167 352.396219 
L 805.064125 351.793135 
L 813.60658 352.030209 
L 822.149034 352.134189 
L 830.691489 352.146667 
L 839.233943 352.13003 
L 847.776398 352.001095 
L 856.318852 351.967821 
L 864.861307 351.967821 
L 873.403761 352.100916 
L 881.946216 352.150826 
L 890.48867 351.809772 
L 899.031125 352.121712 
L 907.57358 351.805612 
L 916.116034 351.709951 
L 924.658489 350.661832 
L 933.200943 351.044478 
L 941.743398 343.06713 
L 950.285852 62.242014 
" clip-path="url(#p7a5191d783)" style="fill: none; stroke: #e4d354; stroke-linecap: square"/>
   </g>
   <g id="line2d_24">
    <path d="M 96.040398 353.212237 
L 104.582852 353.210139 
L 113.125307 353.203843 
L 121.667761 353.221262 
L 130.210216 353.207648 
L 138.75267 353.220858 
L 147.295125 353.188049 
L 155.83758 353.193473 
L 164.380034 352.834251 
L 172.922489 351.733939 
L 181.464943 340.969092 
L 190.007398 350.641036 
L 198.549852 345.612562 
L 207.092307 350.628558 
L 215.634761 343.666055 
L 224.177216 346.66068 
L 232.71967 347.658889 
L 241.262125 346.978859 
L 249.80458 349.143723 
L 258.347034 349.231067 
L 266.889489 348.289008 
L 275.431943 348.950321 
L 283.974398 346.66068 
L 292.516852 348.975276 
L 301.059307 349.062619 
L 309.601761 350.092021 
L 318.144216 349.168679 
L 326.68667 349.574201 
L 335.229125 349.798798 
L 343.77158 349.649066 
L 352.314034 349.468141 
L 360.856489 349.455664 
L 369.398943 349.387037 
L 377.941398 350.647275 
L 386.483852 349.929813 
L 395.026307 350.534976 
L 403.568761 350.510021 
L 412.111216 350.815722 
L 420.65367 350.784528 
L 429.196125 350.572409 
L 437.73858 350.940498 
L 446.281034 350.815722 
L 454.823489 350.397723 
L 463.365943 350.884349 
L 471.908398 350.04835 
L 480.450852 350.871872 
L 488.993307 351.102707 
L 497.535761 351.040319 
L 506.078216 350.946737 
L 514.62067 351.495752 
L 523.163125 350.803245 
L 531.70558 351.071513 
L 540.248034 351.389692 
L 548.790489 351.14014 
L 557.332943 351.083991 
L 565.875398 351.2462 
L 574.417852 351.570617 
L 582.960307 350.46635 
L 591.502761 351.221245 
L 600.045216 351.277394 
L 608.58767 351.576856 
L 617.130125 350.840678 
L 625.67258 351.358498 
L 634.215034 351.302349 
L 642.757489 351.040319 
L 651.299943 351.551901 
L 659.842398 351.45208 
L 668.384852 350.740857 
L 676.927307 351.670438 
L 685.469761 351.508229 
L 694.012216 351.55814 
L 702.55467 351.002886 
L 711.097125 351.720349 
L 719.63958 351.932468 
L 728.182034 350.965454 
L 736.724489 352.119632 
L 745.266943 351.09023 
L 753.809398 351.271155 
L 762.351852 351.807692 
L 770.894307 350.784528 
L 779.436761 351.059036 
L 787.979216 351.514468 
L 796.52167 351.414647 
L 805.064125 351.45208 
L 813.60658 351.395931 
L 822.149034 351.501991 
L 830.691489 351.533185 
L 839.233943 351.027842 
L 847.776398 351.614289 
L 856.318852 351.2462 
L 864.861307 351.121424 
L 873.403761 351.832647 
L 881.946216 351.239961 
L 890.48867 351.657961 
L 899.031125 351.913752 
L 907.57358 351.14014 
L 916.116034 351.639244 
L 924.658489 350.023395 
L 933.200943 350.915543 
L 941.743398 348.301485 
L 950.285852 301.441843 
" clip-path="url(#p7a5191d783)" style="fill: none; stroke: #2b908f; stroke-linecap: square"/>
   </g>
   <g id="line2d_25">
    <path d="M 53.328125 353.2239 
L 992.998125 353.2239 
" clip-path="url(#p7a5191d783)" style="fill: none; stroke: #dedede; stroke-width: 2; stroke-linecap: square"/>
   </g>
   <g id="text_15">
    <!-- Cutadapt: Lengths of Trimmed Sequences (3' end) -->
    <g transform="translate(321.810625 19.3575) scale(0.16 -0.16)">
     <defs>
      <path id="DejaVuSans-43" d="M 4122 4306 
L 4122 3641 
Q 3803 3938 3442 4084 
Q 3081 4231 2675 4231 
Q 1875 4231 1450 3742 
Q 1025 3253 1025 2328 
Q 1025 1406 1450 917 
Q 1875 428 2675 428 
Q 3081 428 3442 575 
Q 3803 722 4122 1019 
L 4122 359 
Q 3791 134 3420 21 
Q 3050 -91 2638 -91 
Q 1578 -91 968 557 
Q 359 1206 359 2328 
Q 359 3453 968 4101 
Q 1578 4750 2638 4750 
Q 3056 4750 3426 4639 
Q 3797 4528 4122 4306 
z
" transform="scale(0.015625)"/>
      <path id="DejaVuSans-75" d="M 544 1381 
L 544 3500 
L 1119 3500 
L 1119 1403 
Q 1119 906 1312 657 
Q 1506 409 1894 409 
Q 2359 409 2629 706 
Q 2900 1003 2900 1516 
L 2900 3500 
L 3475 3500 
L 3475 0 
L 2900 0 
L 2900 538 
Q 2691 219 2414 64 
Q 2138 -91 1772 -91 
Q 1169 -91 856 284 
Q 544 659 544 1381 
z
M 1991 3584 
L 1991 3584 
z
" transform="scale(0.015625)"/>
      <path id="DejaVuSans-61" d="M 2194 1759 
Q 1497 1759 1228 1600 
Q 959 1441 959 1056 
Q 959 750 1161 570 
Q 1363 391 1709 391 
Q 2188 391 2477 730 
Q 2766 1069 2766 1631 
L 2766 1759 
L 2194 1759 
z
M 3341 1997 
L 3341 0 
L 2766 0 
L 2766 531 
Q 2569 213 2275 61 
Q 1981 -91 1556 -91 
Q 1019 -91 701 211 
Q 384 513 384 1019 
Q 384 1609 779 1909 
Q 1175 2209 1959 2209 
L 2766 2209 
L 2766 2266 
Q 2766 2663 2505 2880 
Q 2244 3097 1772 3097 
Q 1472 3097 1187 3025 
Q 903 2953 641 2809 
L 641 3341 
Q 956 3463 1253 3523 
Q 1550 3584 1831 3584 
Q 2591 3584 2966 3190 
Q 3341 2797 3341 1997 
z
" transform="scale(0.015625)"/>
      <path id="DejaVuSans-3a" d="M 750 794 
L 1409 794 
L 1409 0 
L 750 0 
L 750 794 
z
M 750 3309 
L 1409 3309 
L 1409 2516 
L 750 2516 
L 750 3309 
z
" transform="scale(0.015625)"/>
      <path id="DejaVuSans-6f" d="M 1959 3097 
Q 1497 3097 1228 2736 
Q 959 2375 959 1747 
Q 959 1119 1226 758 
Q 1494 397 1959 397 
Q 2419 397 2687 759 
Q 2956 1122 2956 1747 
Q 2956 2369 2687 2733 
Q 2419 3097 1959 3097 
z
M 1959 3584 
Q 2709 3584 3137 3096 
Q 3566 2609 3566 1747 
Q 3566 888 3137 398 
Q 2709 -91 1959 -91 
Q 1206 -91 779 398 
Q 353 888 353 1747 
Q 353 2609 779 3096 
Q 1206 3584 1959 3584 
z
" transform="scale(0.015625)"/>
      <path id="DejaVuSans-66" d="M 2375 4863 
L 2375 4384 
L 1825 4384 
Q 1516 4384 1395 4259 
Q 1275 4134 1275 3809 
L 1275 3500 
L 2222 3500 
L 2222 3053 
L 1275 3053 
L 1275 0 
L 697 0 
L 697 3053 
L 147 3053 
L 147 3500 
L 697 3500 
L 697 3744 
Q 697 4328 969 4595 
Q 1241 4863 1831 4863 
L 2375 4863 
z
" transform="scale(0.015625)"/>
      <path id="DejaVuSans-53" d="M 3425 4513 
L 3425 3897 
Q 3066 4069 2747 4153 
Q 2428 4238 2131 4238 
Q 1616 4238 1336 4038 
Q 1056 3838 1056 3469 
Q 1056 3159 1242 3001 
Q 1428 2844 1947 2747 
L 2328 2669 
Q 3034 2534 3370 2195 
Q 3706 1856 3706 1288 
Q 3706 609 3251 259 
Q 2797 -91 1919 -91 
Q 1588 -91 1214 -16 
Q 841 59 441 206 
L 441 856 
Q 825 641 1194 531 
Q 1563 422 1919 422 
Q 2459 422 2753 634 
Q 3047 847 3047 1241 
Q 3047 1584 2836 1778 
Q 2625 1972 2144 2069 
L 1759 2144 
Q 1053 2284 737 2584 
Q 422 2884 422 3419 
Q 422 4038 858 4394 
Q 1294 4750 2059 4750 
Q 2388 4750 2728 4690 
Q 3069 4631 3425 4513 
z
" transform="scale(0.015625)"/>
      <path id="DejaVuSans-71" d="M 947 1747 
Q 947 1113 1208 752 
Q 1469 391 1925 391 
Q 2381 391 2643 752 
Q 2906 1113 2906 1747 
Q 2906 2381 2643 2742 
Q 2381 3103 1925 3103 
Q 1469 3103 1208 2742 
Q 947 2381 947 1747 
z
M 2906 525 
Q 2725 213 2448 61 
Q 2172 -91 1784 -91 
Q 1150 -91 751 415 
Q 353 922 353 1747 
Q 353 2572 751 3078 
Q 1150 3584 1784 3584 
Q 2172 3584 2448 3432 
Q 2725 3281 2906 2969 
L 2906 3500 
L 3481 3500 
L 3481 -1331 
L 2906 -1331 
L 2906 525 
z
" transform="scale(0.015625)"/>
      <path id="DejaVuSans-33" d="M 2597 2516 
Q 3050 2419 3304 2112 
Q 3559 1806 3559 1356 
Q 3559 666 3084 287 
Q 2609 -91 1734 -91 
Q 1441 -91 1130 -33 
Q 819 25 488 141 
L 488 750 
Q 750 597 1062 519 
Q 1375 441 1716 441 
Q 2309 441 2620 675 
Q 2931 909 2931 1356 
Q 2931 1769 2642 2001 
Q 2353 2234 1838 2234 
L 1294 2234 
L 1294 2753 
L 1863 2753 
Q 2328 2753 2575 2939 
Q 2822 3125 2822 3475 
Q 2822 3834 2567 4026 
Q 2313 4219 1838 4219 
Q 1578 4219 1281 4162 
Q 984 4106 628 3988 
L 628 4550 
Q 988 4650 1302 4700 
Q 1616 4750 1894 4750 
Q 2613 4750 3031 4423 
Q 3450 4097 3450 3541 
Q 3450 3153 3228 2886 
Q 3006 2619 2597 2516 
z
" transform="scale(0.015625)"/>
      <path id="DejaVuSans-27" d="M 1147 4666 
L 1147 2931 
L 616 2931 
L 616 4666 
L 1147 4666 
z
" transform="scale(0.015625)"/>
     </defs>
     <use xlink:href="#DejaVuSans-43"/>
     <use xlink:href="#DejaVuSans-75" x="69.824219"/>
     <use xlink:href="#DejaVuSans-74" x="133.203125"/>
     <use xlink:href="#DejaVuSans-61" x="172.412109"/>
     <use xlink:href="#DejaVuSans-64" x="233.691406"/>
     <use xlink:href="#DejaVuSans-61" x="297.167969"/>
     <use xlink:href="#DejaVuSans-70" x="358.447266"/>
     <use xlink:href="#DejaVuSans-74" x="421.923828"/>
     <use xlink:href="#DejaVuSans-3a" x="461.132812"/>
     <use xlink:href="#DejaVuSans-20" x="494.824219"/>
     <use xlink:href="#DejaVuSans-4c" x="526.611328"/>
     <use xlink:href="#DejaVuSans-65" x="580.574219"/>
     <use xlink:href="#DejaVuSans-6e" x="642.097656"/>
     <use xlink:href="#DejaVuSans-67" x="705.476562"/>
     <use xlink:href="#DejaVuSans-74" x="768.953125"/>
     <use xlink:href="#DejaVuSans-68" x="808.162109"/>
     <use xlink:href="#DejaVuSans-73" x="871.541016"/>
     <use xlink:href="#DejaVuSans-20" x="923.640625"/>
     <use xlink:href="#DejaVuSans-6f" x="955.427734"/>
     <use xlink:href="#DejaVuSans-66" x="1016.609375"/>
     <use xlink:href="#DejaVuSans-20" x="1051.814453"/>
     <use xlink:href="#DejaVuSans-54" x="1083.601562"/>
     <use xlink:href="#DejaVuSans-72" x="1129.935547"/>
     <use xlink:href="#DejaVuSans-69" x="1171.048828"/>
     <use xlink:href="#DejaVuSans-6d" x="1198.832031"/>
     <use xlink:href="#DejaVuSans-6d" x="1296.244141"/>
     <use xlink:href="#DejaVuSans-65" x="1393.65625"/>
     <use xlink:href="#DejaVuSans-64" x="1455.179688"/>
     <use xlink:href="#DejaVuSans-20" x="1518.65625"/>
     <use xlink:href="#DejaVuSans-53" x="1550.443359"/>
     <use xlink:href="#DejaVuSans-65" x="1613.919922"/>
     <use xlink:href="#DejaVuSans-71" x="1675.443359"/>
     <use xlink:href="#DejaVuSans-75" x="1738.919922"/>
     <use xlink:href="#DejaVuSans-65" x="1802.298828"/>
     <use xlink:href="#DejaVuSans-6e" x="1863.822266"/>
     <use xlink:href="#DejaVuSans-63" x="1927.201172"/>
     <use xlink:href="#DejaVuSans-65" x="1982.181641"/>
     <use xlink:href="#DejaVuSans-73" x="2043.705078"/>
     <use xlink:href="#DejaVuSans-20" x="2095.804688"/>
     <use xlink:href="#DejaVuSans-28" x="2127.591797"/>
     <use xlink:href="#DejaVuSans-33" x="2166.605469"/>
     <use xlink:href="#DejaVuSans-27" x="2230.228516"/>
     <use xlink:href="#DejaVuSans-20" x="2257.71875"/>
     <use xlink:href="#DejaVuSans-65" x="2289.505859"/>
     <use xlink:href="#DejaVuSans-6e" x="2351.029297"/>
     <use xlink:href="#DejaVuSans-64" x="2414.408203"/>
     <use xlink:href="#DejaVuSans-29" x="2477.884766"/>
    </g>
   </g>
  </g>
 </g>
 <defs>
  <clipPath id="p7a5191d783">
   <rect x="53.328125" y="35.2559" width="939.67" height="317.968"/>
  </clipPath>
 </defs>
</svg>
