<?xml version="1.0" encoding="utf-8" standalone="no"?>
<!DOCTYPE svg PUBLIC "-//W3C//DTD SVG 1.1//EN"
  "http://www.w3.org/Graphics/SVG/1.1/DTD/svg11.dtd">
<svg xmlns:xlink="http://www.w3.org/1999/xlink" width="1000.298125pt" height="388.844525pt" viewBox="0 0 1000.298125 388.844525" xmlns="http://www.w3.org/2000/svg" version="1.1">
 <metadata>
  <rdf:RDF xmlns:dc="http://purl.org/dc/elements/1.1/" xmlns:cc="http://creativecommons.org/ns#" xmlns:rdf="http://www.w3.org/1999/02/22-rdf-syntax-ns#">
   <cc:Work>
    <dc:type rdf:resource="http://purl.org/dc/dcmitype/StillImage"/>
    <dc:date>2025-03-11T15:51:17.004901</dc:date>
    <dc:format>image/svg+xml</dc:format>
    <dc:creator>
     <cc:Agent>
      <dc:title>Matplotlib v3.8.2, https://matplotlib.org/</dc:title>
     </cc:Agent>
    </dc:creator>
   </cc:Work>
  </rdf:RDF>
 </metadata>
 <defs>
  <style type="text/css">*{stroke-linejoin: round; stroke-linecap: butt}</style>
 </defs>
 <g id="figure_1">
  <g id="axes_1">
   <g id="patch_1">
    <path d="M 32.968125 353.2239 
L 985.463125 353.2239 
L 985.463125 35.2559 
L 32.968125 35.2559 
z
" style="fill: #ffffff"/>
   </g>
   <g id="matplotlib.axis_1">
    <g id="xtick_1">
     <g id="text_1">
      <!-- 0 -->
      <g transform="translate(30.423125 366.30265) scale(0.08 -0.08)">
       <defs>
        <path id="DejaVuSans-30" d="M 2034 4250 
Q 1547 4250 1301 3770 
Q 1056 3291 1056 2328 
Q 1056 1369 1301 889 
Q 1547 409 2034 409 
Q 2525 409 2770 889 
Q 3016 1369 3016 2328 
Q 3016 3291 2770 3770 
Q 2525 4250 2034 4250 
z
M 2034 4750 
Q 2819 4750 3233 4129 
Q 3647 3509 3647 2328 
Q 3647 1150 3233 529 
Q 2819 -91 2034 -91 
Q 1250 -91 836 529 
Q 422 1150 422 2328 
Q 422 3509 836 4129 
Q 1250 4750 2034 4750 
z
" transform="scale(0.015625)"/>
       </defs>
       <use xlink:href="#DejaVuSans-30"/>
      </g>
     </g>
    </g>
    <g id="xtick_2">
     <g id="text_2">
      <!-- 20 -->
      <g transform="translate(218.377125 366.30265) scale(0.08 -0.08)">
       <defs>
        <path id="DejaVuSans-32" d="M 1228 531 
L 3431 531 
L 3431 0 
L 469 0 
L 469 531 
Q 828 903 1448 1529 
Q 2069 2156 2228 2338 
Q 2531 2678 2651 2914 
Q 2772 3150 2772 3378 
Q 2772 3750 2511 3984 
Q 2250 4219 1831 4219 
Q 1534 4219 1204 4116 
Q 875 4013 500 3803 
L 500 4441 
Q 881 4594 1212 4672 
Q 1544 4750 1819 4750 
Q 2544 4750 2975 4387 
Q 3406 4025 3406 3419 
Q 3406 3131 3298 2873 
Q 3191 2616 2906 2266 
Q 2828 2175 2409 1742 
Q 1991 1309 1228 531 
z
" transform="scale(0.015625)"/>
       </defs>
       <use xlink:href="#DejaVuSans-32"/>
       <use xlink:href="#DejaVuSans-30" x="63.623047"/>
      </g>
     </g>
    </g>
    <g id="xtick_3">
     <g id="text_3">
      <!-- 40 -->
      <g transform="translate(408.876125 366.30265) scale(0.08 -0.08)">
       <defs>
        <path id="DejaVuSans-34" d="M 2419 4116 
L 825 1625 
L 2419 1625 
L 2419 4116 
z
M 2253 4666 
L 3047 4666 
L 3047 1625 
L 3713 1625 
L 3713 1100 
L 3047 1100 
L 3047 0 
L 2419 0 
L 2419 1100 
L 313 1100 
L 313 1709 
L 2253 4666 
z
" transform="scale(0.015625)"/>
       </defs>
       <use xlink:href="#DejaVuSans-34"/>
       <use xlink:href="#DejaVuSans-30" x="63.623047"/>
      </g>
     </g>
    </g>
    <g id="xtick_4">
     <g id="text_4">
      <!-- 60 -->
      <g transform="translate(599.375125 366.30265) scale(0.08 -0.08)">
       <defs>
        <path id="DejaVuSans-36" d="M 2113 2584 
Q 1688 2584 1439 2293 
Q 1191 2003 1191 1497 
Q 1191 994 1439 701 
Q 1688 409 2113 409 
Q 2538 409 2786 701 
Q 3034 994 3034 1497 
Q 3034 2003 2786 2293 
Q 2538 2584 2113 2584 
z
M 3366 4563 
L 3366 3988 
Q 3128 4100 2886 4159 
Q 2644 4219 2406 4219 
Q 1781 4219 1451 3797 
Q 1122 3375 1075 2522 
Q 1259 2794 1537 2939 
Q 1816 3084 2150 3084 
Q 2853 3084 3261 2657 
Q 3669 2231 3669 1497 
Q 3669 778 3244 343 
Q 2819 -91 2113 -91 
Q 1303 -91 875 529 
Q 447 1150 447 2328 
Q 447 3434 972 4092 
Q 1497 4750 2381 4750 
Q 2619 4750 2861 4703 
Q 3103 4656 3366 4563 
z
" transform="scale(0.015625)"/>
       </defs>
       <use xlink:href="#DejaVuSans-36"/>
       <use xlink:href="#DejaVuSans-30" x="63.623047"/>
      </g>
     </g>
    </g>
    <g id="xtick_5">
     <g id="text_5">
      <!-- 80 -->
      <g transform="translate(789.874125 366.30265) scale(0.08 -0.08)">
       <defs>
        <path id="DejaVuSans-38" d="M 2034 2216 
Q 1584 2216 1326 1975 
Q 1069 1734 1069 1313 
Q 1069 891 1326 650 
Q 1584 409 2034 409 
Q 2484 409 2743 651 
Q 3003 894 3003 1313 
Q 3003 1734 2745 1975 
Q 2488 2216 2034 2216 
z
M 1403 2484 
Q 997 2584 770 2862 
Q 544 3141 544 3541 
Q 544 4100 942 4425 
Q 1341 4750 2034 4750 
Q 2731 4750 3128 4425 
Q 3525 4100 3525 3541 
Q 3525 3141 3298 2862 
Q 3072 2584 2669 2484 
Q 3125 2378 3379 2068 
Q 3634 1759 3634 1313 
Q 3634 634 3220 271 
Q 2806 -91 2034 -91 
Q 1263 -91 848 271 
Q 434 634 434 1313 
Q 434 1759 690 2068 
Q 947 2378 1403 2484 
z
M 1172 3481 
Q 1172 3119 1398 2916 
Q 1625 2713 2034 2713 
Q 2441 2713 2670 2916 
Q 2900 3119 2900 3481 
Q 2900 3844 2670 4047 
Q 2441 4250 2034 4250 
Q 1625 4250 1398 4047 
Q 1172 3844 1172 3481 
z
" transform="scale(0.015625)"/>
       </defs>
       <use xlink:href="#DejaVuSans-38"/>
       <use xlink:href="#DejaVuSans-30" x="63.623047"/>
      </g>
     </g>
    </g>
    <g id="xtick_6">
     <g id="text_6">
      <!-- 100 -->
      <g transform="translate(977.828125 366.30265) scale(0.08 -0.08)">
       <defs>
        <path id="DejaVuSans-31" d="M 794 531 
L 1825 531 
L 1825 4091 
L 703 3866 
L 703 4441 
L 1819 4666 
L 2450 4666 
L 2450 531 
L 3481 531 
L 3481 0 
L 794 0 
L 794 531 
z
" transform="scale(0.015625)"/>
       </defs>
       <use xlink:href="#DejaVuSans-31"/>
       <use xlink:href="#DejaVuSans-30" x="63.623047"/>
       <use xlink:href="#DejaVuSans-30" x="127.246094"/>
      </g>
     </g>
    </g>
    <g id="text_7">
     <!-- % GC -->
     <g transform="translate(495.510156 379.564837) scale(0.1 -0.1)">
      <defs>
       <path id="DejaVuSans-25" d="M 4653 2053 
Q 4381 2053 4226 1822 
Q 4072 1591 4072 1178 
Q 4072 772 4226 539 
Q 4381 306 4653 306 
Q 4919 306 5073 539 
Q 5228 772 5228 1178 
Q 5228 1588 5073 1820 
Q 4919 2053 4653 2053 
z
M 4653 2450 
Q 5147 2450 5437 2106 
Q 5728 1763 5728 1178 
Q 5728 594 5436 251 
Q 5144 -91 4653 -91 
Q 4153 -91 3862 251 
Q 3572 594 3572 1178 
Q 3572 1766 3864 2108 
Q 4156 2450 4653 2450 
z
M 1428 4353 
Q 1159 4353 1004 4120 
Q 850 3888 850 3481 
Q 850 3069 1003 2837 
Q 1156 2606 1428 2606 
Q 1700 2606 1854 2837 
Q 2009 3069 2009 3481 
Q 2009 3884 1853 4118 
Q 1697 4353 1428 4353 
z
M 4250 4750 
L 4750 4750 
L 1831 -91 
L 1331 -91 
L 4250 4750 
z
M 1428 4750 
Q 1922 4750 2215 4408 
Q 2509 4066 2509 3481 
Q 2509 2891 2217 2550 
Q 1925 2209 1428 2209 
Q 931 2209 642 2551 
Q 353 2894 353 3481 
Q 353 4063 643 4406 
Q 934 4750 1428 4750 
z
" transform="scale(0.015625)"/>
       <path id="DejaVuSans-20" transform="scale(0.015625)"/>
       <path id="DejaVuSans-47" d="M 3809 666 
L 3809 1919 
L 2778 1919 
L 2778 2438 
L 4434 2438 
L 4434 434 
Q 4069 175 3628 42 
Q 3188 -91 2688 -91 
Q 1594 -91 976 548 
Q 359 1188 359 2328 
Q 359 3472 976 4111 
Q 1594 4750 2688 4750 
Q 3144 4750 3555 4637 
Q 3966 4525 4313 4306 
L 4313 3634 
Q 3963 3931 3569 4081 
Q 3175 4231 2741 4231 
Q 1884 4231 1454 3753 
Q 1025 3275 1025 2328 
Q 1025 1384 1454 906 
Q 1884 428 2741 428 
Q 3075 428 3337 486 
Q 3600 544 3809 666 
z
" transform="scale(0.015625)"/>
       <path id="DejaVuSans-43" d="M 4122 4306 
L 4122 3641 
Q 3803 3938 3442 4084 
Q 3081 4231 2675 4231 
Q 1875 4231 1450 3742 
Q 1025 3253 1025 2328 
Q 1025 1406 1450 917 
Q 1875 428 2675 428 
Q 3081 428 3442 575 
Q 3803 722 4122 1019 
L 4122 359 
Q 3791 134 3420 21 
Q 3050 -91 2638 -91 
Q 1578 -91 968 557 
Q 359 1206 359 2328 
Q 359 3453 968 4101 
Q 1578 4750 2638 4750 
Q 3056 4750 3426 4639 
Q 3797 4528 4122 4306 
z
" transform="scale(0.015625)"/>
      </defs>
      <use xlink:href="#DejaVuSans-25"/>
      <use xlink:href="#DejaVuSans-20" x="95.019531"/>
      <use xlink:href="#DejaVuSans-47" x="126.806641"/>
      <use xlink:href="#DejaVuSans-43" x="204.296875"/>
     </g>
    </g>
   </g>
   <g id="matplotlib.axis_2">
    <g id="ytick_1">
     <g id="line2d_1">
      <path d="M 32.968125 353.2239 
L 985.463125 353.2239 
" clip-path="url(#p9d7724fbd0)" style="fill: none; stroke: #dedede; stroke-linecap: square"/>
     </g>
     <g id="text_8">
      <!-- 0 -->
      <g transform="translate(20.878125 356.263275) scale(0.08 -0.08)">
       <use xlink:href="#DejaVuSans-30"/>
      </g>
     </g>
    </g>
    <g id="ytick_2">
     <g id="line2d_2">
      <path d="M 32.968125 290.233494 
L 985.463125 290.233494 
" clip-path="url(#p9d7724fbd0)" style="fill: none; stroke: #dedede; stroke-linecap: square"/>
     </g>
     <g id="text_9">
      <!-- 1 -->
      <g transform="translate(20.878125 293.272869) scale(0.08 -0.08)">
       <use xlink:href="#DejaVuSans-31"/>
      </g>
     </g>
    </g>
    <g id="ytick_3">
     <g id="line2d_3">
      <path d="M 32.968125 227.243087 
L 985.463125 227.243087 
" clip-path="url(#p9d7724fbd0)" style="fill: none; stroke: #dedede; stroke-linecap: square"/>
     </g>
     <g id="text_10">
      <!-- 2 -->
      <g transform="translate(20.878125 230.282462) scale(0.08 -0.08)">
       <use xlink:href="#DejaVuSans-32"/>
      </g>
     </g>
    </g>
    <g id="ytick_4">
     <g id="line2d_4">
      <path d="M 32.968125 164.252681 
L 985.463125 164.252681 
" clip-path="url(#p9d7724fbd0)" style="fill: none; stroke: #dedede; stroke-linecap: square"/>
     </g>
     <g id="text_11">
      <!-- 3 -->
      <g transform="translate(20.878125 167.292056) scale(0.08 -0.08)">
       <defs>
        <path id="DejaVuSans-33" d="M 2597 2516 
Q 3050 2419 3304 2112 
Q 3559 1806 3559 1356 
Q 3559 666 3084 287 
Q 2609 -91 1734 -91 
Q 1441 -91 1130 -33 
Q 819 25 488 141 
L 488 750 
Q 750 597 1062 519 
Q 1375 441 1716 441 
Q 2309 441 2620 675 
Q 2931 909 2931 1356 
Q 2931 1769 2642 2001 
Q 2353 2234 1838 2234 
L 1294 2234 
L 1294 2753 
L 1863 2753 
Q 2328 2753 2575 2939 
Q 2822 3125 2822 3475 
Q 2822 3834 2567 4026 
Q 2313 4219 1838 4219 
Q 1578 4219 1281 4162 
Q 984 4106 628 3988 
L 628 4550 
Q 988 4650 1302 4700 
Q 1616 4750 1894 4750 
Q 2613 4750 3031 4423 
Q 3450 4097 3450 3541 
Q 3450 3153 3228 2886 
Q 3006 2619 2597 2516 
z
" transform="scale(0.015625)"/>
       </defs>
       <use xlink:href="#DejaVuSans-33"/>
      </g>
     </g>
    </g>
    <g id="ytick_5">
     <g id="line2d_5">
      <path d="M 32.968125 101.262274 
L 985.463125 101.262274 
" clip-path="url(#p9d7724fbd0)" style="fill: none; stroke: #dedede; stroke-linecap: square"/>
     </g>
     <g id="text_12">
      <!-- 4 -->
      <g transform="translate(20.878125 104.301649) scale(0.08 -0.08)">
       <use xlink:href="#DejaVuSans-34"/>
      </g>
     </g>
    </g>
    <g id="ytick_6">
     <g id="line2d_6">
      <path d="M 32.968125 38.271868 
L 985.463125 38.271868 
" clip-path="url(#p9d7724fbd0)" style="fill: none; stroke: #dedede; stroke-linecap: square"/>
     </g>
     <g id="text_13">
      <!-- 5 -->
      <g transform="translate(20.878125 41.311243) scale(0.08 -0.08)">
       <defs>
        <path id="DejaVuSans-35" d="M 691 4666 
L 3169 4666 
L 3169 4134 
L 1269 4134 
L 1269 2991 
Q 1406 3038 1543 3061 
Q 1681 3084 1819 3084 
Q 2600 3084 3056 2656 
Q 3513 2228 3513 1497 
Q 3513 744 3044 326 
Q 2575 -91 1722 -91 
Q 1428 -91 1123 -41 
Q 819 9 494 109 
L 494 744 
Q 775 591 1075 516 
Q 1375 441 1709 441 
Q 2250 441 2565 725 
Q 2881 1009 2881 1497 
Q 2881 1984 2565 2268 
Q 2250 2553 1709 2553 
Q 1456 2553 1204 2497 
Q 953 2441 691 2322 
L 691 4666 
z
" transform="scale(0.015625)"/>
       </defs>
       <use xlink:href="#DejaVuSans-35"/>
      </g>
     </g>
    </g>
    <g id="text_14">
     <!-- Count -->
     <g transform="translate(14.798437 209.088338) rotate(-90) scale(0.1 -0.1)">
      <defs>
       <path id="DejaVuSans-6f" d="M 1959 3097 
Q 1497 3097 1228 2736 
Q 959 2375 959 1747 
Q 959 1119 1226 758 
Q 1494 397 1959 397 
Q 2419 397 2687 759 
Q 2956 1122 2956 1747 
Q 2956 2369 2687 2733 
Q 2419 3097 1959 3097 
z
M 1959 3584 
Q 2709 3584 3137 3096 
Q 3566 2609 3566 1747 
Q 3566 888 3137 398 
Q 2709 -91 1959 -91 
Q 1206 -91 779 398 
Q 353 888 353 1747 
Q 353 2609 779 3096 
Q 1206 3584 1959 3584 
z
" transform="scale(0.015625)"/>
       <path id="DejaVuSans-75" d="M 544 1381 
L 544 3500 
L 1119 3500 
L 1119 1403 
Q 1119 906 1312 657 
Q 1506 409 1894 409 
Q 2359 409 2629 706 
Q 2900 1003 2900 1516 
L 2900 3500 
L 3475 3500 
L 3475 0 
L 2900 0 
L 2900 538 
Q 2691 219 2414 64 
Q 2138 -91 1772 -91 
Q 1169 -91 856 284 
Q 544 659 544 1381 
z
M 1991 3584 
L 1991 3584 
z
" transform="scale(0.015625)"/>
       <path id="DejaVuSans-6e" d="M 3513 2113 
L 3513 0 
L 2938 0 
L 2938 2094 
Q 2938 2591 2744 2837 
Q 2550 3084 2163 3084 
Q 1697 3084 1428 2787 
Q 1159 2491 1159 1978 
L 1159 0 
L 581 0 
L 581 3500 
L 1159 3500 
L 1159 2956 
Q 1366 3272 1645 3428 
Q 1925 3584 2291 3584 
Q 2894 3584 3203 3211 
Q 3513 2838 3513 2113 
z
" transform="scale(0.015625)"/>
       <path id="DejaVuSans-74" d="M 1172 4494 
L 1172 3500 
L 2356 3500 
L 2356 3053 
L 1172 3053 
L 1172 1153 
Q 1172 725 1289 603 
Q 1406 481 1766 481 
L 2356 481 
L 2356 0 
L 1766 0 
Q 1100 0 847 248 
Q 594 497 594 1153 
L 594 3053 
L 172 3053 
L 172 3500 
L 594 3500 
L 594 4494 
L 1172 4494 
z
" transform="scale(0.015625)"/>
      </defs>
      <use xlink:href="#DejaVuSans-43"/>
      <use xlink:href="#DejaVuSans-6f" x="69.824219"/>
      <use xlink:href="#DejaVuSans-75" x="131.005859"/>
      <use xlink:href="#DejaVuSans-6e" x="194.384766"/>
      <use xlink:href="#DejaVuSans-74" x="257.763672"/>
     </g>
    </g>
    <g id="text_15">
     <!-- 1e6 -->
     <g transform="translate(32.968125 32.2559) scale(0.1 -0.1)">
      <defs>
       <path id="DejaVuSans-65" d="M 3597 1894 
L 3597 1613 
L 953 1613 
Q 991 1019 1311 708 
Q 1631 397 2203 397 
Q 2534 397 2845 478 
Q 3156 559 3463 722 
L 3463 178 
Q 3153 47 2828 -22 
Q 2503 -91 2169 -91 
Q 1331 -91 842 396 
Q 353 884 353 1716 
Q 353 2575 817 3079 
Q 1281 3584 2069 3584 
Q 2775 3584 3186 3129 
Q 3597 2675 3597 1894 
z
M 3022 2063 
Q 3016 2534 2758 2815 
Q 2500 3097 2075 3097 
Q 1594 3097 1305 2825 
Q 1016 2553 972 2059 
L 3022 2063 
z
" transform="scale(0.015625)"/>
      </defs>
      <use xlink:href="#DejaVuSans-31"/>
      <use xlink:href="#DejaVuSans-65" x="63.623047"/>
      <use xlink:href="#DejaVuSans-36" x="125.146484"/>
     </g>
    </g>
   </g>
   <g id="line2d_7">
    <path d="M 32.968125 353.145288 
L 42.493075 353.1725 
L 52.018025 353.201318 
L 61.542975 353.202326 
L 71.067925 353.201003 
L 80.592875 353.19968 
L 90.117825 353.19735 
L 99.642775 353.194043 
L 109.167725 353.190389 
L 118.692675 353.185003 
L 128.217625 353.178578 
L 137.742575 353.171964 
L 147.267525 353.161634 
L 156.792475 353.150516 
L 166.317425 353.133698 
L 175.842375 353.108565 
L 185.367325 353.066802 
L 194.892275 353.00126 
L 204.417225 352.907436 
L 213.942175 352.742968 
L 223.467125 352.469338 
L 232.992075 352.036184 
L 242.517025 351.407446 
L 252.041975 350.582618 
L 261.566925 349.655934 
L 271.091875 348.47373 
L 280.616825 346.725936 
L 290.141775 344.500831 
L 299.666725 342.002695 
L 309.191675 339.254392 
L 318.716625 335.75833 
L 328.241575 331.420936 
L 337.766525 326.58069 
L 347.291475 320.596318 
L 356.816425 311.928019 
L 366.341375 301.553374 
L 375.866325 288.846823 
L 385.391275 272.954784 
L 394.916225 254.243075 
L 404.441175 233.866686 
L 413.966125 212.928643 
L 423.491075 190.90263 
L 433.016025 168.101804 
L 442.540975 146.724687 
L 452.065925 132.263475 
L 461.590875 120.88177 
L 471.115825 111.147642 
L 480.640775 107.494892 
L 490.165725 107.23597 
L 499.690675 103.839653 
L 509.215625 101.424821 
L 518.740575 102.74214 
L 528.265525 105.685051 
L 537.790475 108.64897 
L 547.315425 108.218998 
L 556.840375 112.123742 
L 566.365325 121.12589 
L 575.890275 129.833368 
L 585.415225 140.123828 
L 594.940175 151.076789 
L 604.465125 160.07796 
L 613.990075 172.041193 
L 623.515025 186.6681 
L 633.039975 199.198341 
L 642.564925 212.204033 
L 652.089875 229.069305 
L 661.614825 245.897696 
L 671.139775 259.631715 
L 680.664725 271.761085 
L 690.189675 283.802835 
L 699.714625 296.378712 
L 709.239575 307.101852 
L 718.764525 315.095083 
L 728.289475 321.620385 
L 737.814425 326.473008 
L 747.339375 330.682342 
L 756.864325 334.907959 
L 766.389275 337.820415 
L 775.914225 340.004009 
L 785.439175 342.205587 
L 794.964125 344.145093 
L 804.489075 345.71557 
L 814.014025 346.974181 
L 823.538975 348.217423 
L 833.063925 349.419878 
L 842.588875 350.318845 
L 852.113825 351.018165 
L 861.638775 351.521647 
L 871.163725 352.03735 
L 880.688675 352.539982 
L 890.213625 352.838808 
L 899.738575 352.980253 
L 909.263525 353.053668 
L 918.788475 353.10236 
L 928.313425 353.159807 
L 937.838375 353.191271 
L 947.363325 353.190767 
L 956.888275 353.114171 
L 966.413225 352.879405 
L 975.938175 352.966899 
L 985.463125 353.220624 
" clip-path="url(#p9d7724fbd0)" style="fill: none; stroke: #5cb85c; stroke-linecap: square"/>
   </g>
   <g id="line2d_8">
    <path d="M 32.968125 353.16639 
L 42.493075 353.184279 
L 52.018025 353.205223 
L 61.542975 353.208656 
L 71.067925 353.208089 
L 80.592875 353.206294 
L 90.117825 353.20409 
L 99.642775 353.200027 
L 109.167725 353.195901 
L 118.692675 353.190736 
L 128.217625 353.185098 
L 137.742575 353.180153 
L 147.267525 353.174264 
L 156.792475 353.167429 
L 166.317425 353.155713 
L 175.842375 353.135745 
L 185.367325 353.099651 
L 194.892275 353.049133 
L 204.417225 352.97745 
L 213.942175 352.85465 
L 223.467125 352.653616 
L 232.992075 352.322098 
L 242.517025 351.833985 
L 252.041975 351.153342 
L 261.566925 350.397426 
L 271.091875 349.482364 
L 280.616825 348.054781 
L 290.141775 346.101669 
L 299.666725 343.909792 
L 309.191675 341.530329 
L 318.716625 338.416997 
L 328.241575 334.493955 
L 337.766525 330.042864 
L 347.291475 324.455614 
L 356.816425 316.308939 
L 366.341375 306.559631 
L 375.866325 294.834313 
L 385.391275 280.241168 
L 394.916225 262.260997 
L 404.441175 242.39987 
L 413.966125 221.804086 
L 423.491075 199.408886 
L 433.016025 175.63215 
L 442.540975 152.765309 
L 452.065925 136.526225 
L 461.590875 123.596531 
L 471.115825 112.702592 
L 480.640775 107.980233 
L 490.165725 106.81765 
L 499.690675 102.019577 
L 509.215625 98.843254 
L 518.740575 100.497886 
L 528.265525 103.826897 
L 537.790475 106.310767 
L 547.315425 104.764006 
L 556.840375 108.732433 
L 566.365325 117.900623 
L 575.890275 125.982828 
L 585.415225 137.064856 
L 594.940175 148.944406 
L 604.465125 157.405025 
L 613.990075 169.321361 
L 623.515025 184.305519 
L 633.039975 196.865271 
L 642.564925 210.034801 
L 652.089875 227.240001 
L 661.614825 244.418083 
L 671.139775 258.46214 
L 680.664725 270.486033 
L 690.189675 282.507059 
L 699.714625 295.1658 
L 709.239575 305.74759 
L 718.764525 313.782268 
L 728.289475 320.442181 
L 737.814425 325.45713 
L 747.339375 329.765737 
L 756.864325 333.979134 
L 766.389275 336.995871 
L 775.914225 339.290139 
L 785.439175 341.614233 
L 794.964125 343.696381 
L 804.489075 345.486095 
L 814.014025 347.017676 
L 823.538975 348.388284 
L 833.063925 349.62803 
L 842.588875 350.535595 
L 852.113825 351.218915 
L 861.638775 351.679501 
L 871.163725 352.166638 
L 880.688675 352.643412 
L 890.213625 352.892539 
L 899.738575 352.998898 
L 909.263525 353.048629 
L 918.788475 353.092534 
L 928.313425 353.154611 
L 937.838375 353.187806 
L 947.363325 353.181004 
L 956.888275 353.02674 
L 966.413225 352.63979 
L 975.938175 352.806053 
L 985.463125 353.220373 
" clip-path="url(#p9d7724fbd0)" style="fill: none; stroke: #5cb85c; stroke-linecap: square"/>
   </g>
   <g id="line2d_9">
    <path d="M 32.968125 353.129792 
L 42.493075 353.161886 
L 52.018025 353.198042 
L 61.542975 353.201885 
L 71.067925 353.200594 
L 80.592875 353.198231 
L 90.117825 353.193948 
L 99.642775 353.189161 
L 109.167725 353.183019 
L 118.692675 353.175838 
L 128.217625 353.171681 
L 137.742575 353.166925 
L 147.267525 353.158831 
L 156.792475 353.146863 
L 166.317425 353.127682 
L 175.842375 353.098014 
L 185.367325 353.055653 
L 194.892275 352.990048 
L 204.417225 352.890019 
L 213.942175 352.725205 
L 223.467125 352.459511 
L 232.992075 352.045349 
L 242.517025 351.405052 
L 252.041975 350.587374 
L 261.566925 349.66954 
L 271.091875 348.483777 
L 280.616825 346.791477 
L 290.141775 344.544893 
L 299.666725 341.98827 
L 309.191675 339.148505 
L 318.716625 335.480573 
L 328.241575 330.909958 
L 337.766525 325.866852 
L 347.291475 319.740121 
L 356.816425 310.617126 
L 366.341375 299.700479 
L 375.866325 286.99037 
L 385.391275 271.314546 
L 394.916225 253.222787 
L 404.441175 233.778562 
L 413.966125 214.485672 
L 423.491075 195.656705 
L 433.016025 176.082878 
L 442.540975 158.131336 
L 452.065925 148.063391 
L 461.590875 140.865918 
L 471.115825 132.569483 
L 480.640775 128.663416 
L 490.165725 129.293982 
L 499.690675 127.11801 
L 509.215625 125.115608 
L 518.740575 127.311327 
L 528.265525 132.274593 
L 537.790475 136.579137 
L 547.315425 136.70115 
L 556.840375 140.321429 
L 566.365325 147.663559 
L 575.890275 155.940876 
L 585.415225 165.201348 
L 594.940175 175.346047 
L 604.465125 184.551717 
L 613.990075 195.218072 
L 623.515025 209.074733 
L 633.039975 220.456501 
L 642.564925 231.963809 
L 652.089875 248.196373 
L 661.614825 263.484114 
L 671.139775 274.488443 
L 680.664725 284.307262 
L 690.189675 294.673435 
L 699.714625 305.55106 
L 709.239575 314.209752 
L 718.764525 320.686647 
L 728.289475 326.286021 
L 737.814425 330.313785 
L 747.339375 333.723613 
L 756.864325 337.511951 
L 766.389275 339.94842 
L 775.914225 341.755079 
L 785.439175 344.050513 
L 794.964125 345.811598 
L 804.489075 347.079028 
L 814.014025 348.257201 
L 823.538975 349.444791 
L 833.063925 350.399757 
L 842.588875 350.983678 
L 852.113825 351.417713 
L 861.638775 351.640069 
L 871.163725 352.068593 
L 880.688675 352.646058 
L 890.213625 352.927026 
L 899.738575 352.98504 
L 909.263525 352.990489 
L 918.788475 353.025134 
L 928.313425 353.120092 
L 937.838375 353.181224 
L 947.363325 353.187744 
L 956.888275 353.097163 
L 966.413225 352.863437 
L 975.938175 352.966049 
L 985.463125 353.220813 
" clip-path="url(#p9d7724fbd0)" style="fill: none; stroke: #5cb85c; stroke-linecap: square"/>
   </g>
   <g id="line2d_10">
    <path d="M 32.968125 353.126832 
L 42.493075 353.162169 
L 52.018025 353.200499 
L 61.542975 353.203491 
L 71.067925 353.203334 
L 80.592875 353.202609 
L 90.117825 353.200468 
L 99.642775 353.197066 
L 109.167725 353.192972 
L 118.692675 353.188814 
L 128.217625 353.184059 
L 137.742575 353.176941 
L 147.267525 353.167524 
L 156.792475 353.158358 
L 166.317425 353.148375 
L 175.842375 353.12806 
L 185.367325 353.093919 
L 194.892275 353.041763 
L 204.417225 352.951404 
L 213.942175 352.7864 
L 223.467125 352.527478 
L 232.992075 352.116182 
L 242.517025 351.474845 
L 252.041975 350.711024 
L 261.566925 349.849504 
L 271.091875 348.745692 
L 280.616825 347.103878 
L 290.141775 345.014612 
L 299.666725 342.63537 
L 309.191675 339.729434 
L 318.716625 336.116115 
L 328.241575 331.962402 
L 337.766525 327.468288 
L 347.291475 321.891968 
L 356.816425 313.736852 
L 366.341375 303.434645 
L 375.866325 290.793478 
L 385.391275 275.046759 
L 394.916225 255.450821 
L 404.441175 233.642724 
L 413.966125 211.614569 
L 423.491075 188.383172 
L 433.016025 164.824665 
L 442.540975 141.763279 
L 452.065925 125.382876 
L 461.590875 113.094991 
L 471.115825 102.730423 
L 480.640775 99.764615 
L 490.165725 98.849742 
L 499.690675 94.954762 
L 509.215625 93.174495 
L 518.740575 94.216829 
L 528.265525 96.167925 
L 537.790475 96.492704 
L 547.315425 93.040735 
L 556.840375 96.690935 
L 566.365325 106.495895 
L 575.890275 114.613721 
L 585.415225 122.786254 
L 594.940175 132.423219 
L 604.465125 139.18883 
L 613.990075 148.026982 
L 623.515025 163.971901 
L 633.039975 181.266358 
L 642.564925 197.745782 
L 652.089875 215.587752 
L 661.614825 234.563139 
L 671.139775 250.39392 
L 680.664725 264.089073 
L 690.189675 277.682151 
L 699.714625 290.879397 
L 709.239575 302.252473 
L 718.764525 310.902756 
L 728.289475 318.081962 
L 737.814425 323.726028 
L 747.339375 328.247763 
L 756.864325 332.111217 
L 766.389275 335.01857 
L 775.914225 337.571634 
L 785.439175 340.075661 
L 794.964125 342.738171 
L 804.489075 344.958519 
L 814.014025 346.368938 
L 823.538975 347.716176 
L 833.063925 349.005842 
L 842.588875 349.952777 
L 852.113825 350.684631 
L 861.638775 351.211703 
L 871.163725 351.772947 
L 880.688675 352.329153 
L 890.213625 352.695159 
L 899.738575 352.886996 
L 909.263525 352.992536 
L 918.788475 353.067652 
L 928.313425 353.144154 
L 937.838375 353.182484 
L 947.363325 353.18598 
L 956.888275 353.099148 
L 966.413225 352.873957 
L 975.938175 352.973828 
L 985.463125 353.219459 
" clip-path="url(#p9d7724fbd0)" style="fill: none; stroke: #5cb85c; stroke-linecap: square"/>
   </g>
   <g id="line2d_11">
    <path d="M 32.968125 353.113667 
L 42.493075 353.153288 
L 52.018025 353.194515 
L 61.542975 353.19694 
L 71.067925 353.197664 
L 80.592875 353.196594 
L 90.117825 353.193129 
L 99.642775 353.189318 
L 109.167725 353.187366 
L 118.692675 353.184311 
L 128.217625 353.178988 
L 137.742575 353.17313 
L 147.267525 353.165224 
L 156.792475 353.15713 
L 166.317425 353.144942 
L 175.842375 353.118265 
L 185.367325 353.081794 
L 194.892275 353.020504 
L 204.417225 352.907877 
L 213.942175 352.712733 
L 223.467125 352.408458 
L 232.992075 351.927778 
L 242.517025 351.167704 
L 252.041975 350.290342 
L 261.566925 349.187097 
L 271.091875 347.720302 
L 280.616825 345.560456 
L 290.141775 342.419502 
L 299.666725 338.60326 
L 309.191675 333.807044 
L 318.716625 327.625103 
L 328.241575 320.407977 
L 337.766525 312.542207 
L 347.291475 303.302397 
L 356.816425 291.022795 
L 366.341375 276.978485 
L 375.866325 261.88948 
L 385.391275 245.597169 
L 394.916225 229.086879 
L 404.441175 213.133205 
L 413.966125 198.513131 
L 423.491075 184.978351 
L 433.016025 172.328208 
L 442.540975 160.043977 
L 452.065925 152.977902 
L 461.590875 148.287384 
L 471.115825 142.713017 
L 480.640775 142.256683 
L 490.165725 143.30308 
L 499.690675 141.689864 
L 509.215625 141.38351 
L 518.740575 142.565525 
L 528.265525 144.980388 
L 537.790475 146.519433 
L 547.315425 144.197543 
L 556.840375 146.834668 
L 566.365325 155.253493 
L 575.890275 163.491158 
L 585.415225 170.395568 
L 594.940175 177.883458 
L 604.465125 184.188609 
L 613.990075 191.465828 
L 623.515025 203.828986 
L 633.039975 217.622216 
L 642.564925 230.903869 
L 652.089875 245.734141 
L 661.614825 261.459381 
L 671.139775 274.068959 
L 680.664725 284.904411 
L 690.189675 295.683298 
L 699.714625 306.322251 
L 709.239575 315.239331 
L 718.764525 322.003681 
L 728.289475 327.689007 
L 737.814425 331.881868 
L 747.339375 335.20077 
L 756.864325 338.16976 
L 766.389275 340.426927 
L 775.914225 342.429518 
L 785.439175 344.332489 
L 794.964125 346.238642 
L 804.489075 347.888392 
L 814.014025 349.009117 
L 823.538975 349.985815 
L 833.063925 350.896404 
L 842.588875 351.516136 
L 852.113825 351.968029 
L 861.638775 352.245659 
L 871.163725 352.55869 
L 880.688675 352.88224 
L 890.213625 353.037858 
L 899.738575 353.077605 
L 909.263525 353.094329 
L 918.788475 353.125194 
L 928.313425 353.175712 
L 937.838375 353.200783 
L 947.363325 353.202011 
L 956.888275 353.162138 
L 966.413225 353.039496 
L 975.938175 353.087589 
L 985.463125 353.222609 
" clip-path="url(#p9d7724fbd0)" style="fill: none; stroke: #5cb85c; stroke-linecap: square"/>
   </g>
   <g id="line2d_12">
    <path d="M 32.968125 353.026488 
L 42.493075 353.100313 
L 52.018025 353.181098 
L 61.542975 353.188625 
L 71.067925 353.18724 
L 80.592875 353.184185 
L 90.117825 353.181791 
L 99.642775 353.180909 
L 109.167725 353.177382 
L 118.692675 353.171397 
L 128.217625 353.167177 
L 137.742575 353.161036 
L 147.267525 353.150926 
L 156.792475 353.138957 
L 166.317425 353.126548 
L 175.842375 353.103462 
L 185.367325 353.061826 
L 194.892275 352.996095 
L 204.417225 352.885264 
L 213.942175 352.700072 
L 223.467125 352.401907 
L 232.992075 351.907589 
L 242.517025 351.165594 
L 252.041975 350.297082 
L 261.566925 349.276669 
L 271.091875 347.966437 
L 280.616825 346.058773 
L 290.141775 343.502024 
L 299.666725 340.64796 
L 309.191675 337.237313 
L 318.716625 332.883006 
L 328.241575 327.791429 
L 337.766525 322.225849 
L 347.291475 315.429499 
L 356.816425 305.303444 
L 366.341375 292.369372 
L 375.866325 276.994831 
L 385.391275 258.528501 
L 394.916225 235.659046 
L 404.441175 211.146739 
L 413.966125 187.482661 
L 423.491075 163.278534 
L 433.016025 139.099478 
L 442.540975 115.982943 
L 452.065925 101.211882 
L 461.590875 90.467514 
L 471.115825 81.716855 
L 480.640775 81.453492 
L 490.165725 82.375137 
L 499.690675 78.90109 
L 509.215625 78.287154 
L 518.740575 82.015934 
L 528.265525 86.787205 
L 537.790475 88.471096 
L 547.315425 84.38157 
L 556.840375 87.697605 
L 566.365325 99.369035 
L 575.890275 109.34303 
L 585.415225 119.558909 
L 594.940175 131.302242 
L 604.465125 138.643112 
L 613.990075 148.229055 
L 623.515025 165.004944 
L 633.039975 182.458829 
L 642.564925 198.944332 
L 652.089875 217.406694 
L 661.614825 237.247664 
L 671.139775 253.659059 
L 680.664725 267.298844 
L 690.189675 280.595395 
L 699.714625 293.986494 
L 709.239575 305.257713 
L 718.764525 313.539283 
L 728.289475 320.667781 
L 737.814425 326.055445 
L 747.339375 330.193379 
L 756.864325 333.988677 
L 766.389275 336.769515 
L 775.914225 339.217196 
L 785.439175 341.646956 
L 794.964125 344.112023 
L 804.489075 346.169006 
L 814.014025 347.497096 
L 823.538975 348.723613 
L 833.063925 349.898227 
L 842.588875 350.727779 
L 852.113825 351.343384 
L 861.638775 351.717957 
L 871.163725 352.159488 
L 880.688675 352.631853 
L 890.213625 352.886586 
L 899.738575 352.988662 
L 909.263525 353.035653 
L 918.788475 353.082203 
L 928.313425 353.154107 
L 937.838375 353.19294 
L 947.363325 353.196909 
L 956.888275 353.135776 
L 966.413225 352.986269 
L 975.938175 353.057007 
L 985.463125 353.221632 
" clip-path="url(#p9d7724fbd0)" style="fill: none; stroke: #5cb85c; stroke-linecap: square"/>
   </g>
   <g id="line2d_13">
    <path d="M 32.968125 353.19631 
L 42.493075 353.205066 
L 52.018025 353.213601 
L 61.542975 353.213601 
L 71.067925 353.212184 
L 80.592875 353.209255 
L 90.117825 353.206578 
L 99.642775 353.205003 
L 109.167725 353.202546 
L 118.692675 353.19735 
L 128.217625 353.192153 
L 137.742575 353.187586 
L 147.267525 353.179775 
L 156.792475 353.170421 
L 166.317425 353.15691 
L 175.842375 353.129729 
L 185.367325 353.091148 
L 194.892275 353.036315 
L 204.417225 352.945766 
L 213.942175 352.792542 
L 223.467125 352.547887 
L 232.992075 352.156276 
L 242.517025 351.597897 
L 252.041975 350.839146 
L 261.566925 349.973847 
L 271.091875 348.899924 
L 280.616825 347.304062 
L 290.141775 345.177726 
L 299.666725 342.74406 
L 309.191675 340.094621 
L 318.716625 336.708792 
L 328.241575 332.532591 
L 337.766525 328.085689 
L 347.291475 322.657459 
L 356.816425 314.945732 
L 366.341375 306.052432 
L 375.866325 295.598953 
L 385.391275 282.73732 
L 394.916225 268.4379 
L 404.441175 252.909788 
L 413.966125 237.076079 
L 423.491075 221.093775 
L 433.016025 204.267336 
L 442.540975 188.684833 
L 452.065925 178.664035 
L 461.590875 170.771747 
L 471.115825 163.128617 
L 480.640775 159.994876 
L 490.165725 160.101834 
L 499.690675 158.461374 
L 509.215625 156.548104 
L 518.740575 156.740665 
L 528.265525 159.726316 
L 537.790475 163.307226 
L 547.315425 163.562369 
L 556.840375 166.276342 
L 566.365325 172.634499 
L 575.890275 180.1005 
L 585.415225 187.266131 
L 594.940175 194.38052 
L 604.465125 202.175457 
L 613.990075 211.287869 
L 623.515025 222.448824 
L 633.039975 232.553714 
L 642.564925 242.782883 
L 652.089875 256.072883 
L 661.614825 269.244933 
L 671.139775 279.805999 
L 680.664725 288.957717 
L 690.189675 298.433333 
L 699.714625 308.337031 
L 709.239575 316.359048 
L 718.764525 322.528392 
L 728.289475 327.74891 
L 737.814425 331.623041 
L 747.339375 334.959989 
L 756.864325 338.337976 
L 766.389275 340.530136 
L 775.914225 342.156769 
L 785.439175 344.064559 
L 794.964125 345.643446 
L 804.489075 346.801965 
L 814.014025 347.803324 
L 823.538975 348.935009 
L 833.063925 349.947674 
L 842.588875 350.609956 
L 852.113825 351.133532 
L 861.638775 351.48357 
L 871.163725 351.961761 
L 880.688675 352.50118 
L 890.213625 352.803754 
L 899.738575 352.942553 
L 909.263525 353.014961 
L 918.788475 353.077983 
L 928.313425 353.158138 
L 937.838375 353.195838 
L 947.363325 353.20157 
L 956.888275 353.16387 
L 966.413225 353.069322 
L 975.938175 353.115399 
L 985.463125 353.221506 
" clip-path="url(#p9d7724fbd0)" style="fill: none; stroke: #5cb85c; stroke-linecap: square"/>
   </g>
   <g id="line2d_14">
    <path d="M 32.968125 353.102958 
L 42.493075 353.146611 
L 52.018025 353.19272 
L 61.542975 353.196153 
L 71.067925 353.196531 
L 80.592875 353.195365 
L 90.117825 353.193696 
L 99.642775 353.192216 
L 109.167725 353.190452 
L 118.692675 353.184972 
L 128.217625 353.178232 
L 137.742575 353.172216 
L 147.267525 353.163965 
L 156.792475 353.154044 
L 166.317425 353.141162 
L 175.842375 353.121698 
L 185.367325 353.08551 
L 194.892275 353.027149 
L 204.417225 352.947183 
L 213.942175 352.80514 
L 223.467125 352.577177 
L 232.992075 352.228526 
L 242.517025 351.696446 
L 252.041975 350.949757 
L 261.566925 350.110851 
L 271.091875 349.083667 
L 280.616825 347.549913 
L 290.141775 345.472521 
L 299.666725 343.082508 
L 309.191675 340.441036 
L 318.716625 336.978044 
L 328.241575 332.694256 
L 337.766525 327.903394 
L 347.291475 321.932093 
L 356.816425 313.027454 
L 366.341375 302.338486 
L 375.866325 289.663493 
L 385.391275 273.637632 
L 394.916225 253.613107 
L 404.441175 232.544958 
L 413.966125 211.493344 
L 423.491075 189.47552 
L 433.016025 166.178801 
L 442.540975 144.24444 
L 452.065925 130.156698 
L 461.590875 118.392673 
L 471.115825 109.242183 
L 480.640775 106.869428 
L 490.165725 107.614888 
L 499.690675 102.641197 
L 509.215625 99.75293 
L 518.740575 104.185281 
L 528.265525 109.381076 
L 537.790475 111.988092 
L 547.315425 109.804026 
L 556.840375 113.626063 
L 566.365325 123.188416 
L 575.890275 130.905717 
L 585.415225 143.154202 
L 594.940175 157.319547 
L 604.465125 165.158168 
L 613.990075 176.883202 
L 623.515025 192.760186 
L 633.039975 205.054591 
L 642.564925 217.563729 
L 652.089875 234.530983 
L 661.614825 251.229897 
L 671.139775 264.49807 
L 680.664725 276.193184 
L 690.189675 287.637848 
L 699.714625 299.530059 
L 709.239575 309.48585 
L 718.764525 317.047502 
L 728.289475 323.35218 
L 737.814425 328.134664 
L 747.339375 332.16205 
L 756.864325 335.971584 
L 766.389275 338.655069 
L 775.914225 340.751422 
L 785.439175 342.965125 
L 794.964125 344.849451 
L 804.489075 346.34286 
L 814.014025 347.599424 
L 823.538975 348.831547 
L 833.063925 349.940683 
L 842.588875 350.719874 
L 852.113825 351.319606 
L 861.638775 351.714555 
L 871.163725 352.153158 
L 880.688675 352.617838 
L 890.213625 352.886838 
L 899.738575 353.007182 
L 909.263525 353.060062 
L 918.788475 353.100029 
L 928.313425 353.156973 
L 937.838375 353.189066 
L 947.363325 353.189381 
L 956.888275 353.11395 
L 966.413225 352.908413 
L 975.938175 352.996158 
L 985.463125 353.221317 
" clip-path="url(#p9d7724fbd0)" style="fill: none; stroke: #5cb85c; stroke-linecap: square"/>
   </g>
   <g id="line2d_15">
    <path d="M 32.968125 353.082864 
L 42.493075 353.132091 
L 52.018025 353.186137 
L 61.542975 353.191869 
L 71.067925 353.19168 
L 80.592875 353.189161 
L 90.117825 353.187177 
L 99.642775 353.185129 
L 109.167725 353.18135 
L 118.692675 353.177161 
L 128.217625 353.171649 
L 137.742575 353.163807 
L 147.267525 353.156091 
L 156.792475 353.145729 
L 166.317425 353.128186 
L 175.842375 353.104124 
L 185.367325 353.070613 
L 194.892275 353.01915 
L 204.417225 352.937924 
L 213.942175 352.806652 
L 223.467125 352.595665 
L 232.992075 352.252336 
L 242.517025 351.740287 
L 252.041975 351.046448 
L 261.566925 350.270689 
L 271.091875 349.288637 
L 280.616825 347.849685 
L 290.141775 345.911155 
L 299.666725 343.678428 
L 309.191675 341.227094 
L 318.716625 337.996064 
L 328.241575 333.963166 
L 337.766525 329.382567 
L 347.291475 323.709808 
L 356.816425 315.138577 
L 366.341375 304.798608 
L 375.866325 292.542186 
L 385.391275 276.727248 
L 394.916225 256.872641 
L 404.441175 235.613945 
L 413.966125 214.318401 
L 423.491075 191.533889 
L 433.016025 166.627514 
L 442.540975 143.198515 
L 452.065925 128.050173 
L 461.590875 116.068579 
L 471.115825 106.479171 
L 480.640775 103.412861 
L 490.165725 103.715688 
L 499.690675 99.168032 
L 509.215625 96.45661 
L 518.740575 100.62204 
L 528.265525 106.68515 
L 537.790475 110.679403 
L 547.315425 109.352353 
L 556.840375 112.935531 
L 566.365325 122.382139 
L 575.890275 130.751076 
L 585.415225 142.48918 
L 594.940175 156.025819 
L 604.465125 164.570278 
L 613.990075 176.367311 
L 623.515025 192.27812 
L 633.039975 204.817117 
L 642.564925 217.307831 
L 652.089875 234.207275 
L 661.614825 250.687109 
L 671.139775 263.640298 
L 680.664725 275.187479 
L 690.189675 286.888199 
L 699.714625 299.047174 
L 709.239575 309.104663 
L 718.764525 316.681433 
L 728.289475 323.008599 
L 737.814425 327.781728 
L 747.339375 331.847633 
L 756.864325 335.801604 
L 766.389275 338.630692 
L 775.914225 340.829876 
L 785.439175 343.160017 
L 794.964125 345.084532 
L 804.489075 346.619009 
L 814.014025 347.975382 
L 823.538975 349.236355 
L 833.063925 350.298279 
L 842.588875 351.054731 
L 852.113825 351.61081 
L 861.638775 351.90992 
L 871.163725 352.288807 
L 880.688675 352.720796 
L 890.213625 352.955466 
L 899.738575 353.025165 
L 909.263525 353.05496 
L 918.788475 353.092439 
L 928.313425 353.153603 
L 937.838375 353.18935 
L 947.363325 353.189696 
L 956.888275 353.099494 
L 966.413225 352.864414 
L 975.938175 352.966553 
L 985.463125 353.222073 
" clip-path="url(#p9d7724fbd0)" style="fill: none; stroke: #f0ad4e; stroke-linecap: square"/>
   </g>
   <g id="line2d_16">
    <path d="M 32.968125 353.136532 
L 42.493075 353.168153 
L 52.018025 353.201727 
L 61.542975 353.203397 
L 71.067925 353.203302 
L 80.592875 353.201822 
L 90.117825 353.197979 
L 99.642775 353.194578 
L 109.167725 353.192405 
L 118.692675 353.188468 
L 128.217625 353.183555 
L 137.742575 353.178956 
L 147.267525 353.171114 
L 156.792475 353.16113 
L 166.317425 353.149351 
L 175.842375 353.127493 
L 185.367325 353.091053 
L 194.892275 353.038992 
L 204.417225 352.94479 
L 213.942175 352.777959 
L 223.467125 352.521935 
L 232.992075 352.083553 
L 242.517025 351.425083 
L 252.041975 350.705733 
L 261.566925 349.862071 
L 271.091875 348.749188 
L 280.616825 347.129263 
L 290.141775 344.996849 
L 299.666725 342.609733 
L 309.191675 339.725087 
L 318.716625 335.977473 
L 328.241575 331.638757 
L 337.766525 326.889753 
L 347.291475 320.945065 
L 356.816425 312.296041 
L 366.341375 301.14803 
L 375.866325 287.71457 
L 385.391275 271.220784 
L 394.916225 250.570356 
L 404.441175 227.971067 
L 413.966125 205.227783 
L 423.491075 181.194329 
L 433.016025 157.16878 
L 442.540975 133.241212 
L 452.065925 116.149711 
L 461.590875 103.539913 
L 471.115825 92.629912 
L 480.640775 89.938804 
L 490.165725 89.441652 
L 499.690675 85.8586 
L 509.215625 84.571769 
L 518.740575 85.487209 
L 528.265525 87.531216 
L 537.790475 87.751525 
L 547.315425 82.726088 
L 556.840375 85.372913 
L 566.365325 95.924499 
L 575.890275 105.220214 
L 585.415225 114.229102 
L 594.940175 124.866764 
L 604.465125 132.257113 
L 613.990075 141.085219 
L 623.515025 157.928727 
L 633.039975 176.144167 
L 642.564925 192.96481 
L 652.089875 211.831382 
L 661.614825 232.187803 
L 671.139775 248.948731 
L 680.664725 263.047622 
L 690.189675 277.081443 
L 699.714625 290.933065 
L 709.239575 302.572653 
L 718.764525 311.205299 
L 728.289475 318.584468 
L 737.814425 324.374546 
L 747.339375 328.777418 
L 756.864325 332.631328 
L 766.389275 335.506431 
L 775.914225 338.101352 
L 785.439175 340.740587 
L 794.964125 343.42042 
L 804.489075 345.671319 
L 814.014025 347.078272 
L 823.538975 348.39767 
L 833.063925 349.649919 
L 842.588875 350.495723 
L 852.113825 351.128997 
L 861.638775 351.528545 
L 871.163725 352.031303 
L 880.688675 352.573241 
L 890.213625 352.849611 
L 899.738575 352.9526 
L 909.263525 353.000473 
L 918.788475 353.052881 
L 928.313425 353.137225 
L 937.838375 353.18387 
L 947.363325 353.184468 
L 956.888275 353.08362 
L 966.413225 352.84158 
L 975.938175 352.95534 
L 985.463125 353.220184 
" clip-path="url(#p9d7724fbd0)" style="fill: none; stroke: #5cb85c; stroke-linecap: square"/>
   </g>
   <g id="line2d_17">
    <path d="M 32.968125 353.086266 
L 42.493075 353.13795 
L 52.018025 353.19357 
L 61.542975 353.197507 
L 71.067925 353.196436 
L 80.592875 353.194106 
L 90.117825 353.191901 
L 99.642775 353.190326 
L 109.167725 353.187964 
L 118.692675 353.183618 
L 128.217625 353.180909 
L 137.742575 353.175996 
L 147.267525 353.166768 
L 156.792475 353.158264 
L 166.317425 353.146201 
L 175.842375 353.126076 
L 185.367325 353.097258 
L 194.892275 353.044535 
L 204.417225 352.963939 
L 213.942175 352.822179 
L 223.467125 352.580233 
L 232.992075 352.201282 
L 242.517025 351.641612 
L 252.041975 350.986355 
L 261.566925 350.228171 
L 271.091875 349.27837 
L 280.616825 347.864708 
L 290.141775 345.972602 
L 299.666725 343.903084 
L 309.191675 341.446804 
L 318.716625 338.390541 
L 328.241575 334.885534 
L 337.766525 331.064221 
L 347.291475 326.415939 
L 356.816425 319.452098 
L 366.341375 310.577033 
L 375.866325 299.816697 
L 385.391275 286.439361 
L 394.916225 269.289309 
L 404.441175 250.525853 
L 413.966125 231.840001 
L 423.491075 211.583263 
L 433.016025 190.722541 
L 442.540975 169.869031 
L 452.065925 155.061373 
L 461.590875 144.000068 
L 471.115825 134.305404 
L 480.640775 131.541196 
L 490.165725 131.12716 
L 499.690675 127.426033 
L 509.215625 125.683938 
L 518.740575 127.540675 
L 528.265525 129.875541 
L 537.790475 130.012482 
L 547.315425 126.057629 
L 556.840375 128.503893 
L 566.365325 137.411555 
L 575.890275 145.332441 
L 585.415225 153.681032 
L 594.940175 162.935362 
L 604.465125 168.520627 
L 613.990075 176.403184 
L 623.515025 191.190402 
L 633.039975 206.299564 
L 642.564925 220.424502 
L 652.089875 236.37657 
L 661.614825 253.386751 
L 671.139775 267.120802 
L 680.664725 278.723572 
L 690.189675 290.184487 
L 699.714625 301.522225 
L 709.239575 311.217236 
L 718.764525 318.59379 
L 728.289475 324.679577 
L 737.814425 329.176556 
L 747.339375 332.80071 
L 756.864325 335.993725 
L 766.389275 338.278229 
L 775.914225 340.393699 
L 785.439175 342.47276 
L 794.964125 344.580734 
L 804.489075 346.251051 
L 814.014025 347.152129 
L 823.538975 348.204541 
L 833.063925 349.328384 
L 842.588875 350.139354 
L 852.113825 350.752062 
L 861.638775 351.166948 
L 871.163725 351.703343 
L 880.688675 352.260304 
L 890.213625 352.605964 
L 899.738575 352.827722 
L 909.263525 352.976757 
L 918.788475 353.051999 
L 928.313425 353.136154 
L 937.838375 353.184468 
L 947.363325 353.189728 
L 956.888275 353.112187 
L 966.413225 352.908759 
L 975.938175 352.999024 
L 985.463125 353.220813 
" clip-path="url(#p9d7724fbd0)" style="fill: none; stroke: #5cb85c; stroke-linecap: square"/>
   </g>
   <g id="line2d_18">
    <path d="M 32.968125 353.041165 
L 42.493075 353.110832 
L 52.018025 353.185098 
L 61.542975 353.190452 
L 71.067925 353.189161 
L 80.592875 353.186421 
L 90.117825 353.185003 
L 99.642775 353.18346 
L 109.167725 353.181318 
L 118.692675 353.176689 
L 128.217625 353.171838 
L 137.742575 353.166327 
L 147.267525 353.15776 
L 156.792475 353.149477 
L 166.317425 353.135619 
L 175.842375 353.111588 
L 185.367325 353.079778 
L 194.892275 353.028693 
L 204.417225 352.937892 
L 213.942175 352.782778 
L 223.467125 352.532801 
L 232.992075 352.107584 
L 242.517025 351.504797 
L 252.041975 350.836847 
L 261.566925 350.04805 
L 271.091875 349.056014 
L 280.616825 347.618478 
L 290.141775 345.639162 
L 299.666725 343.449679 
L 309.191675 340.919511 
L 318.716625 337.664766 
L 328.241575 333.786068 
L 337.766525 329.463761 
L 347.291475 324.178583 
L 356.816425 316.247303 
L 366.341375 306.013 
L 375.866325 294.092727 
L 385.391275 279.651074 
L 394.916225 260.301901 
L 404.441175 241.49158 
L 413.966125 225.339643 
L 423.491075 207.876561 
L 433.016025 191.078909 
L 442.540975 175.041772 
L 452.065925 164.355985 
L 461.590875 156.237089 
L 471.115825 151.685685 
L 480.640775 153.772022 
L 490.165725 155.164456 
L 499.690675 150.621935 
L 509.215625 150.628013 
L 518.740575 156.023268 
L 528.265525 159.629122 
L 537.790475 158.839947 
L 547.315425 151.078678 
L 556.840375 152.260662 
L 566.365325 160.704746 
L 575.890275 163.562841 
L 585.415225 172.692167 
L 594.940175 184.51575 
L 604.465125 185.307319 
L 613.990075 189.577564 
L 623.515025 200.652475 
L 633.039975 209.603947 
L 642.564925 218.011749 
L 652.089875 229.034786 
L 661.614825 241.3833 
L 671.139775 252.190879 
L 680.664725 261.513931 
L 690.189675 271.36856 
L 699.714625 282.537987 
L 709.239575 293.046803 
L 718.764525 302.218741 
L 728.289475 310.917496 
L 737.814425 318.619207 
L 747.339375 325.159627 
L 756.864325 330.841582 
L 766.389275 335.499974 
L 775.914225 339.317728 
L 785.439175 342.558396 
L 794.964125 345.279991 
L 804.489075 347.298015 
L 814.014025 348.597601 
L 823.538975 349.713382 
L 833.063925 350.724693 
L 842.588875 351.367352 
L 852.113825 351.784538 
L 861.638775 352.063144 
L 871.163725 352.421528 
L 880.688675 352.768857 
L 890.213625 352.940569 
L 899.738575 353.025197 
L 909.263525 353.072943 
L 918.788475 353.112848 
L 928.313425 353.167807 
L 937.838375 353.196562 
L 947.363325 353.197885 
L 956.888275 353.1251 
L 966.413225 352.924822 
L 975.938175 353.006552 
L 985.463125 353.222042 
" clip-path="url(#p9d7724fbd0)" style="fill: none; stroke: #f0ad4e; stroke-linecap: square"/>
   </g>
   <g id="line2d_19">
    <path d="M 32.968125 353.065038 
L 42.493075 353.118328 
L 52.018025 353.179744 
L 61.542975 353.18831 
L 71.067925 353.186358 
L 80.592875 353.182106 
L 90.117825 353.176815 
L 99.642775 353.171272 
L 109.167725 353.167083 
L 118.692675 353.161539 
L 128.217625 353.156784 
L 137.742575 353.151241 
L 147.267525 353.143272 
L 156.792475 353.127525 
L 166.317425 353.107336 
L 175.842375 353.08277 
L 185.367325 353.039055 
L 194.892275 352.972978 
L 204.417225 352.861233 
L 213.942175 352.681994 
L 223.467125 352.381592 
L 232.992075 351.925573 
L 242.517025 351.289654 
L 252.041975 350.506683 
L 261.566925 349.593763 
L 271.091875 348.441353 
L 280.616825 346.771856 
L 290.141775 344.56064 
L 299.666725 342.173147 
L 309.191675 339.373254 
L 318.716625 335.692316 
L 328.241575 331.174171 
L 337.766525 325.883701 
L 347.291475 319.501104 
L 356.816425 310.223405 
L 366.341375 298.668067 
L 375.866325 284.816193 
L 385.391275 267.772752 
L 394.916225 246.579504 
L 404.441175 225.390665 
L 413.966125 205.259404 
L 423.491075 183.687237 
L 433.016025 161.478772 
L 442.540975 140.113277 
L 452.065925 125.560918 
L 461.590875 114.447458 
L 471.115825 105.688516 
L 480.640775 102.521547 
L 490.165725 102.876246 
L 499.690675 97.918114 
L 509.215625 96.569458 
L 518.740575 102.089685 
L 528.265525 106.809336 
L 537.790475 109.404824 
L 547.315425 106.995535 
L 556.840375 110.826423 
L 566.365325 118.64432 
L 575.890275 124.198467 
L 585.415225 137.334487 
L 594.940175 153.894538 
L 604.465125 162.709384 
L 613.990075 175.315339 
L 623.515025 192.933977 
L 633.039975 205.8666 
L 642.564925 219.312438 
L 652.089875 236.580911 
L 661.614825 252.860215 
L 671.139775 265.758067 
L 680.664725 276.90296 
L 690.189675 288.083379 
L 699.714625 299.186667 
L 709.239575 308.653778 
L 718.764525 316.048064 
L 728.289475 322.058956 
L 737.814425 326.580627 
L 747.339375 330.230953 
L 756.864325 333.885026 
L 766.389275 336.336676 
L 775.914225 338.275143 
L 785.439175 340.861812 
L 794.964125 342.91489 
L 804.489075 343.709514 
L 814.014025 344.356583 
L 823.538975 345.74823 
L 833.063925 347.25411 
L 842.588875 348.343025 
L 852.113825 348.968615 
L 861.638775 349.314274 
L 871.163725 349.836528 
L 880.688675 350.600853 
L 890.213625 351.40143 
L 899.738575 352.10623 
L 909.263525 352.592138 
L 918.788475 352.848887 
L 928.313425 353.040062 
L 937.838375 353.143808 
L 947.363325 353.164878 
L 956.888275 353.070644 
L 966.413225 352.828131 
L 975.938175 352.947813 
L 985.463125 353.220247 
" clip-path="url(#p9d7724fbd0)" style="fill: none; stroke: #5cb85c; stroke-linecap: square"/>
   </g>
   <g id="line2d_20">
    <path d="M 32.968125 353.094833 
L 42.493075 353.143398 
L 52.018025 353.196846 
L 61.542975 353.201601 
L 71.067925 353.200562 
L 80.592875 353.198452 
L 90.117825 353.195743 
L 99.642775 353.193602 
L 109.167725 353.190862 
L 118.692675 353.185917 
L 128.217625 353.179019 
L 137.742575 353.171335 
L 147.267525 353.164721 
L 156.792475 353.1565 
L 166.317425 353.143808 
L 175.842375 353.124564 
L 185.367325 353.087526 
L 194.892275 353.031244 
L 204.417225 352.942805 
L 213.942175 352.786684 
L 223.467125 352.540927 
L 232.992075 352.165409 
L 242.517025 351.628353 
L 252.041975 350.937065 
L 261.566925 350.144079 
L 271.091875 349.162877 
L 280.616825 347.71057 
L 290.141775 345.781552 
L 299.666725 343.652476 
L 309.191675 341.195567 
L 318.716625 337.894712 
L 328.241575 333.83687 
L 337.766525 329.237027 
L 347.291475 323.290197 
L 356.816425 314.19791 
L 366.341375 303.024231 
L 375.866325 289.63014 
L 385.391275 272.924895 
L 394.916225 252.242814 
L 404.441175 231.249529 
L 413.966125 210.686405 
L 423.491075 189.252786 
L 433.016025 168.071033 
L 442.540975 148.284298 
L 452.065925 136.182392 
L 461.590875 126.972281 
L 471.115825 118.852219 
L 480.640775 117.109684 
L 490.165725 118.294471 
L 499.690675 113.477783 
L 509.215625 111.007174 
L 518.740575 114.933271 
L 528.265525 119.125692 
L 537.790475 121.524524 
L 547.315425 119.771974 
L 556.840375 122.957052 
L 566.365325 130.604025 
L 575.890275 137.366202 
L 585.415225 148.855967 
L 594.940175 161.978066 
L 604.465125 169.496128 
L 613.990075 181.137763 
L 623.515025 197.143185 
L 633.039975 209.201312 
L 642.564925 221.356319 
L 652.089875 237.758139 
L 661.614825 253.899178 
L 671.139775 266.42986 
L 680.664725 277.552548 
L 690.189675 288.83413 
L 699.714625 300.595888 
L 709.239575 310.373385 
L 718.764525 317.497411 
L 728.289475 323.494727 
L 737.814425 328.017848 
L 747.339375 331.881491 
L 756.864325 335.722268 
L 766.389275 338.426918 
L 775.914225 340.552372 
L 785.439175 342.88645 
L 794.964125 344.804161 
L 804.489075 346.320813 
L 814.014025 347.655107 
L 823.538975 348.93756 
L 833.063925 349.974981 
L 842.588875 350.661576 
L 852.113825 351.240616 
L 861.638775 351.608196 
L 871.163725 352.058231 
L 880.688675 352.593429 
L 890.213625 352.898838 
L 899.738575 352.992253 
L 909.263525 353.024472 
L 918.788475 353.06444 
L 928.313425 353.137288 
L 937.838375 353.183901 
L 947.363325 353.1902 
L 956.888275 353.11184 
L 966.413225 352.850997 
L 975.938175 352.942679 
L 985.463125 353.221884 
" clip-path="url(#p9d7724fbd0)" style="fill: none; stroke: #5cb85c; stroke-linecap: square"/>
   </g>
   <g id="line2d_21">
    <path d="M 32.968125 353.093069 
L 42.493075 353.139241 
L 52.018025 353.189854 
L 61.542975 353.194641 
L 71.067925 353.19546 
L 80.592875 353.194232 
L 90.117825 353.191586 
L 99.642775 353.190043 
L 109.167725 353.186704 
L 118.692675 353.179397 
L 128.217625 353.171901 
L 137.742575 353.165823 
L 147.267525 353.159461 
L 156.792475 353.150674 
L 166.317425 353.136627 
L 175.842375 353.113383 
L 185.367325 353.076565 
L 194.892275 353.028252 
L 204.417225 352.94923 
L 213.942175 352.802841 
L 223.467125 352.564422 
L 232.992075 352.197786 
L 242.517025 351.6818 
L 252.041975 351.006323 
L 261.566925 350.207636 
L 271.091875 349.166341 
L 280.616825 347.634257 
L 290.141775 345.524835 
L 299.666725 343.028682 
L 309.191675 340.091786 
L 318.716625 336.061975 
L 328.241575 330.704074 
L 337.766525 324.179811 
L 347.291475 315.768009 
L 356.816425 303.35512 
L 366.341375 288.276287 
L 375.866325 270.978051 
L 385.391275 250.541664 
L 394.916225 227.009393 
L 404.441175 204.870753 
L 413.966125 184.462932 
L 423.491075 164.036592 
L 433.016025 143.405439 
L 442.540975 123.836556 
L 452.065925 112.478346 
L 461.590875 102.521705 
L 471.115825 93.253359 
L 480.640775 91.538414 
L 490.165725 92.695107 
L 499.690675 86.29251 
L 509.215625 82.584233 
L 518.740575 88.184553 
L 528.265525 95.169716 
L 537.790475 98.117415 
L 547.315425 94.938069 
L 556.840375 97.78933 
L 566.365325 106.620868 
L 575.890275 113.556805 
L 585.415225 126.468106 
L 594.940175 142.316965 
L 604.465125 150.733617 
L 613.990075 163.861038 
L 623.515025 181.718724 
L 633.039975 194.873829 
L 642.564925 208.458277 
L 652.089875 226.339836 
L 661.614825 243.593664 
L 671.139775 257.376627 
L 680.664725 269.324364 
L 690.189675 281.679018 
L 699.714625 294.52988 
L 709.239575 305.025499 
L 718.764525 313.053658 
L 728.289475 319.756404 
L 737.814425 325.080196 
L 747.339375 329.401464 
L 756.864325 333.152448 
L 766.389275 335.908625 
L 775.914225 338.253285 
L 785.439175 340.930566 
L 794.964125 343.14827 
L 804.489075 344.771564 
L 814.014025 346.259555 
L 823.538975 347.865054 
L 833.063925 349.264732 
L 842.588875 350.189306 
L 852.113825 350.86324 
L 861.638775 351.237309 
L 871.163725 351.71824 
L 880.688675 352.346129 
L 890.213625 352.748763 
L 899.738575 352.891752 
L 909.263525 352.950081 
L 918.788475 353.019276 
L 928.313425 353.120848 
L 937.838375 353.175523 
L 947.363325 353.18346 
L 956.888275 353.113572 
L 966.413225 352.88476 
L 975.938175 352.971151 
L 985.463125 353.220373 
" clip-path="url(#p9d7724fbd0)" style="fill: none; stroke: #5cb85c; stroke-linecap: square"/>
   </g>
   <g id="line2d_22">
    <path d="M 32.968125 353.204877 
L 42.493075 353.20979 
L 52.018025 353.213633 
L 61.542975 353.212593 
L 71.067925 353.211743 
L 80.592875 353.209759 
L 90.117825 353.2079 
L 99.642775 353.206546 
L 109.167725 353.204593 
L 118.692675 353.199869 
L 128.217625 353.194232 
L 137.742575 353.18957 
L 147.267525 353.182074 
L 156.792475 353.171523 
L 166.317425 353.158642 
L 175.842375 353.14302 
L 185.367325 353.114297 
L 194.892275 353.060377 
L 204.417225 352.971371 
L 213.942175 352.796038 
L 223.467125 352.534501 
L 232.992075 352.153945 
L 242.517025 351.594559 
L 252.041975 350.901192 
L 261.566925 350.099135 
L 271.091875 349.163633 
L 280.616825 347.72953 
L 290.141775 345.774371 
L 299.666725 343.736694 
L 309.191675 341.270935 
L 318.716625 338.01052 
L 328.241575 334.318589 
L 337.766525 330.398066 
L 347.291475 325.530388 
L 356.816425 318.263469 
L 366.341375 308.763885 
L 375.866325 297.476823 
L 385.391275 284.345213 
L 394.916225 268.915713 
L 404.441175 251.159064 
L 413.966125 233.137131 
L 423.491075 215.849949 
L 433.016025 198.77851 
L 442.540975 181.524241 
L 452.065925 170.607814 
L 461.590875 162.356701 
L 471.115825 152.627234 
L 480.640775 150.476647 
L 490.165725 151.738503 
L 499.690675 150.946083 
L 509.215625 149.746967 
L 518.740575 150.250669 
L 528.265525 155.295319 
L 537.790475 158.266073 
L 547.315425 156.304709 
L 556.840375 159.127435 
L 566.365325 166.829272 
L 575.890275 175.123754 
L 585.415225 180.967941 
L 594.940175 187.183299 
L 604.465125 194.600356 
L 613.990075 202.10812 
L 623.515025 214.57937 
L 633.039975 227.904424 
L 642.564925 239.55746 
L 652.089875 252.816279 
L 661.614825 266.579777 
L 671.139775 278.236246 
L 680.664725 288.288948 
L 690.189675 298.269369 
L 699.714625 308.354353 
L 709.239575 316.561657 
L 718.764525 322.592232 
L 728.289475 327.935205 
L 737.814425 332.258457 
L 747.339375 335.46829 
L 756.864325 338.471389 
L 766.389275 340.689156 
L 775.914225 342.371094 
L 785.439175 344.363575 
L 794.964125 346.300309 
L 804.489075 347.862944 
L 814.014025 348.902034 
L 823.538975 349.868622 
L 833.063925 350.781919 
L 842.588875 351.297748 
L 852.113825 351.69043 
L 861.638775 351.941258 
L 871.163725 352.314287 
L 880.688675 352.73689 
L 890.213625 352.933262 
L 899.738575 352.99619 
L 909.263525 353.027842 
L 918.788475 353.081668 
L 928.313425 353.161351 
L 937.838375 353.198137 
L 947.363325 353.205034 
L 956.888275 353.180752 
L 966.413225 353.124722 
L 975.938175 353.157477 
L 985.463125 353.222672 
" clip-path="url(#p9d7724fbd0)" style="fill: none; stroke: #5cb85c; stroke-linecap: square"/>
   </g>
   <g id="line2d_23">
    <path d="M 32.968125 352.896539 
L 42.493075 353.015181 
L 52.018025 353.150737 
L 61.542975 353.168846 
L 71.067925 353.169728 
L 80.592875 353.169854 
L 90.117825 353.167618 
L 99.642775 353.164626 
L 109.167725 353.160437 
L 118.692675 353.152973 
L 128.217625 353.146548 
L 137.742575 353.138579 
L 147.267525 353.124533 
L 156.792475 353.110864 
L 166.317425 353.102864 
L 175.842375 353.09014 
L 185.367325 353.062298 
L 194.892275 353.019937 
L 204.417225 352.947152 
L 213.942175 352.787251 
L 223.467125 352.570154 
L 232.992075 352.238762 
L 242.517025 351.733673 
L 252.041975 351.131642 
L 261.566925 350.433268 
L 271.091875 349.663399 
L 280.616825 348.422078 
L 290.141775 346.665811 
L 299.666725 344.813641 
L 309.191675 342.490713 
L 318.716625 339.435017 
L 328.241575 335.736062 
L 337.766525 331.904639 
L 347.291475 327.520161 
L 356.816425 320.238564 
L 366.341375 310.735391 
L 375.866325 299.978015 
L 385.391275 287.045423 
L 394.916225 264.817463 
L 404.441175 244.974824 
L 413.966125 229.129429 
L 423.491075 206.75445 
L 433.016025 182.986343 
L 442.540975 154.147634 
L 452.065925 129.815038 
L 461.590875 110.050381 
L 471.115825 95.537076 
L 480.640775 92.996831 
L 490.165725 89.104591 
L 499.690675 70.707581 
L 509.215625 65.243226 
L 518.740575 75.321093 
L 528.265525 78.56828 
L 537.790475 70.664181 
L 547.315425 51.414186 
L 556.840375 50.397175 
L 566.365325 61.858626 
L 575.890275 64.558678 
L 585.415225 88.441743 
L 594.940175 116.927044 
L 604.465125 118.913509 
L 613.990075 132.425361 
L 623.515025 159.323682 
L 633.039975 176.82059 
L 642.564925 193.555345 
L 652.089875 215.946388 
L 661.614825 236.662389 
L 671.139775 252.971015 
L 680.664725 267.13362 
L 690.189675 280.090747 
L 699.714625 293.402226 
L 709.239575 304.679682 
L 718.764525 312.364008 
L 728.289475 319.21412 
L 737.814425 324.74767 
L 747.339375 328.967649 
L 756.864325 332.780269 
L 766.389275 335.686741 
L 775.914225 338.289662 
L 785.439175 340.800554 
L 794.964125 343.220488 
L 804.489075 345.114106 
L 814.014025 346.316718 
L 823.538975 347.612085 
L 833.063925 348.974819 
L 842.588875 349.887739 
L 852.113825 350.535469 
L 861.638775 350.982607 
L 871.163725 351.564071 
L 880.688675 352.181188 
L 890.213625 352.546533 
L 899.738575 352.776353 
L 909.263525 352.926554 
L 918.788475 353.012158 
L 928.313425 353.11184 
L 937.838375 353.171083 
L 947.363325 353.174201 
L 956.888275 353.066046 
L 966.413225 352.777046 
L 975.938175 352.901925 
L 985.463125 353.218892 
" clip-path="url(#p9d7724fbd0)" style="fill: none; stroke: #5cb85c; stroke-linecap: square"/>
   </g>
   <g id="line2d_24">
    <path d="M 32.968125 352.986174 
L 42.493075 353.077951 
L 52.018025 353.177256 
L 61.542975 353.186074 
L 71.067925 353.186736 
L 80.592875 353.185822 
L 90.117825 353.18324 
L 99.642775 353.180783 
L 109.167725 353.179964 
L 118.692675 353.175586 
L 128.217625 353.16976 
L 137.742575 353.163335 
L 147.267525 353.15291 
L 156.792475 353.143524 
L 166.317425 353.129635 
L 175.842375 353.105541 
L 185.367325 353.07329 
L 194.892275 353.018898 
L 204.417225 352.92668 
L 213.942175 352.756259 
L 223.467125 352.497904 
L 232.992075 352.113064 
L 242.517025 351.539253 
L 252.041975 350.880184 
L 261.566925 350.07734 
L 271.091875 349.047888 
L 280.616825 347.535772 
L 290.141775 345.540204 
L 299.666725 343.31869 
L 309.191675 340.485571 
L 318.716625 336.909511 
L 328.241575 332.667611 
L 337.766525 327.823271 
L 347.291475 321.997634 
L 356.816425 313.739498 
L 366.341375 303.694575 
L 375.866325 291.989635 
L 385.391275 278.627952 
L 394.916225 264.11849 
L 404.441175 248.157445 
L 413.966125 232.974584 
L 423.491075 219.31102 
L 433.016025 204.856895 
L 442.540975 190.590261 
L 452.065925 183.116481 
L 461.590875 177.661512 
L 471.115825 170.896751 
L 480.640775 170.181464 
L 490.165725 171.353558 
L 499.690675 170.077624 
L 509.215625 168.932427 
L 518.740575 170.654144 
L 528.265525 174.982719 
L 537.790475 177.21091 
L 547.315425 176.677696 
L 556.840375 179.371953 
L 566.365325 186.118761 
L 575.890275 193.169876 
L 585.415225 197.915951 
L 594.940175 202.83525 
L 604.465125 208.603974 
L 613.990075 215.333302 
L 623.515025 225.576487 
L 633.039975 236.466772 
L 642.564925 246.713327 
L 652.089875 258.111441 
L 661.614825 270.100752 
L 671.139775 280.319969 
L 680.664725 289.793348 
L 690.189675 299.403479 
L 699.714625 308.798247 
L 709.239575 316.891538 
L 718.764525 323.049921 
L 728.289475 328.45456 
L 737.814425 332.654761 
L 747.339375 335.782077 
L 756.864325 338.656707 
L 766.389275 340.939637 
L 775.914225 342.793728 
L 785.439175 344.496863 
L 794.964125 346.287554 
L 804.489075 347.856204 
L 814.014025 348.83413 
L 823.538975 349.775585 
L 833.063925 350.639498 
L 842.588875 351.219829 
L 852.113825 351.721169 
L 861.638775 352.046546 
L 871.163725 352.412647 
L 880.688675 352.789613 
L 890.213625 352.986678 
L 899.738575 353.059495 
L 909.263525 353.099809 
L 918.788475 353.132375 
L 928.313425 353.173886 
L 937.838375 353.195743 
L 947.363325 353.200499 
L 956.888275 353.162169 
L 966.413225 353.044913 
L 975.938175 353.093636 
L 985.463125 353.222546 
" clip-path="url(#p9d7724fbd0)" style="fill: none; stroke: #5cb85c; stroke-linecap: square"/>
   </g>
   <g id="line2d_25">
    <path d="M 32.968125 353.2239 
L 985.463125 353.2239 
" clip-path="url(#p9d7724fbd0)" style="fill: none; stroke: #dedede; stroke-width: 2; stroke-linecap: square"/>
   </g>
   <g id="text_16">
    <!-- FastQC: Per Sequence GC Content -->
    <g transform="translate(372.579375 19.3575) scale(0.16 -0.16)">
     <defs>
      <path id="DejaVuSans-46" d="M 628 4666 
L 3309 4666 
L 3309 4134 
L 1259 4134 
L 1259 2759 
L 3109 2759 
L 3109 2228 
L 1259 2228 
L 1259 0 
L 628 0 
L 628 4666 
z
" transform="scale(0.015625)"/>
      <path id="DejaVuSans-61" d="M 2194 1759 
Q 1497 1759 1228 1600 
Q 959 1441 959 1056 
Q 959 750 1161 570 
Q 1363 391 1709 391 
Q 2188 391 2477 730 
Q 2766 1069 2766 1631 
L 2766 1759 
L 2194 1759 
z
M 3341 1997 
L 3341 0 
L 2766 0 
L 2766 531 
Q 2569 213 2275 61 
Q 1981 -91 1556 -91 
Q 1019 -91 701 211 
Q 384 513 384 1019 
Q 384 1609 779 1909 
Q 1175 2209 1959 2209 
L 2766 2209 
L 2766 2266 
Q 2766 2663 2505 2880 
Q 2244 3097 1772 3097 
Q 1472 3097 1187 3025 
Q 903 2953 641 2809 
L 641 3341 
Q 956 3463 1253 3523 
Q 1550 3584 1831 3584 
Q 2591 3584 2966 3190 
Q 3341 2797 3341 1997 
z
" transform="scale(0.015625)"/>
      <path id="DejaVuSans-73" d="M 2834 3397 
L 2834 2853 
Q 2591 2978 2328 3040 
Q 2066 3103 1784 3103 
Q 1356 3103 1142 2972 
Q 928 2841 928 2578 
Q 928 2378 1081 2264 
Q 1234 2150 1697 2047 
L 1894 2003 
Q 2506 1872 2764 1633 
Q 3022 1394 3022 966 
Q 3022 478 2636 193 
Q 2250 -91 1575 -91 
Q 1294 -91 989 -36 
Q 684 19 347 128 
L 347 722 
Q 666 556 975 473 
Q 1284 391 1588 391 
Q 1994 391 2212 530 
Q 2431 669 2431 922 
Q 2431 1156 2273 1281 
Q 2116 1406 1581 1522 
L 1381 1569 
Q 847 1681 609 1914 
Q 372 2147 372 2553 
Q 372 3047 722 3315 
Q 1072 3584 1716 3584 
Q 2034 3584 2315 3537 
Q 2597 3491 2834 3397 
z
" transform="scale(0.015625)"/>
      <path id="DejaVuSans-51" d="M 2522 4238 
Q 1834 4238 1429 3725 
Q 1025 3213 1025 2328 
Q 1025 1447 1429 934 
Q 1834 422 2522 422 
Q 3209 422 3611 934 
Q 4013 1447 4013 2328 
Q 4013 3213 3611 3725 
Q 3209 4238 2522 4238 
z
M 3406 84 
L 4238 -825 
L 3475 -825 
L 2784 -78 
Q 2681 -84 2626 -87 
Q 2572 -91 2522 -91 
Q 1538 -91 948 567 
Q 359 1225 359 2328 
Q 359 3434 948 4092 
Q 1538 4750 2522 4750 
Q 3503 4750 4090 4092 
Q 4678 3434 4678 2328 
Q 4678 1516 4351 937 
Q 4025 359 3406 84 
z
" transform="scale(0.015625)"/>
      <path id="DejaVuSans-3a" d="M 750 794 
L 1409 794 
L 1409 0 
L 750 0 
L 750 794 
z
M 750 3309 
L 1409 3309 
L 1409 2516 
L 750 2516 
L 750 3309 
z
" transform="scale(0.015625)"/>
      <path id="DejaVuSans-50" d="M 1259 4147 
L 1259 2394 
L 2053 2394 
Q 2494 2394 2734 2622 
Q 2975 2850 2975 3272 
Q 2975 3691 2734 3919 
Q 2494 4147 2053 4147 
L 1259 4147 
z
M 628 4666 
L 2053 4666 
Q 2838 4666 3239 4311 
Q 3641 3956 3641 3272 
Q 3641 2581 3239 2228 
Q 2838 1875 2053 1875 
L 1259 1875 
L 1259 0 
L 628 0 
L 628 4666 
z
" transform="scale(0.015625)"/>
      <path id="DejaVuSans-72" d="M 2631 2963 
Q 2534 3019 2420 3045 
Q 2306 3072 2169 3072 
Q 1681 3072 1420 2755 
Q 1159 2438 1159 1844 
L 1159 0 
L 581 0 
L 581 3500 
L 1159 3500 
L 1159 2956 
Q 1341 3275 1631 3429 
Q 1922 3584 2338 3584 
Q 2397 3584 2469 3576 
Q 2541 3569 2628 3553 
L 2631 2963 
z
" transform="scale(0.015625)"/>
      <path id="DejaVuSans-53" d="M 3425 4513 
L 3425 3897 
Q 3066 4069 2747 4153 
Q 2428 4238 2131 4238 
Q 1616 4238 1336 4038 
Q 1056 3838 1056 3469 
Q 1056 3159 1242 3001 
Q 1428 2844 1947 2747 
L 2328 2669 
Q 3034 2534 3370 2195 
Q 3706 1856 3706 1288 
Q 3706 609 3251 259 
Q 2797 -91 1919 -91 
Q 1588 -91 1214 -16 
Q 841 59 441 206 
L 441 856 
Q 825 641 1194 531 
Q 1563 422 1919 422 
Q 2459 422 2753 634 
Q 3047 847 3047 1241 
Q 3047 1584 2836 1778 
Q 2625 1972 2144 2069 
L 1759 2144 
Q 1053 2284 737 2584 
Q 422 2884 422 3419 
Q 422 4038 858 4394 
Q 1294 4750 2059 4750 
Q 2388 4750 2728 4690 
Q 3069 4631 3425 4513 
z
" transform="scale(0.015625)"/>
      <path id="DejaVuSans-71" d="M 947 1747 
Q 947 1113 1208 752 
Q 1469 391 1925 391 
Q 2381 391 2643 752 
Q 2906 1113 2906 1747 
Q 2906 2381 2643 2742 
Q 2381 3103 1925 3103 
Q 1469 3103 1208 2742 
Q 947 2381 947 1747 
z
M 2906 525 
Q 2725 213 2448 61 
Q 2172 -91 1784 -91 
Q 1150 -91 751 415 
Q 353 922 353 1747 
Q 353 2572 751 3078 
Q 1150 3584 1784 3584 
Q 2172 3584 2448 3432 
Q 2725 3281 2906 2969 
L 2906 3500 
L 3481 3500 
L 3481 -1331 
L 2906 -1331 
L 2906 525 
z
" transform="scale(0.015625)"/>
      <path id="DejaVuSans-63" d="M 3122 3366 
L 3122 2828 
Q 2878 2963 2633 3030 
Q 2388 3097 2138 3097 
Q 1578 3097 1268 2742 
Q 959 2388 959 1747 
Q 959 1106 1268 751 
Q 1578 397 2138 397 
Q 2388 397 2633 464 
Q 2878 531 3122 666 
L 3122 134 
Q 2881 22 2623 -34 
Q 2366 -91 2075 -91 
Q 1284 -91 818 406 
Q 353 903 353 1747 
Q 353 2603 823 3093 
Q 1294 3584 2113 3584 
Q 2378 3584 2631 3529 
Q 2884 3475 3122 3366 
z
" transform="scale(0.015625)"/>
     </defs>
     <use xlink:href="#DejaVuSans-46"/>
     <use xlink:href="#DejaVuSans-61" x="48.394531"/>
     <use xlink:href="#DejaVuSans-73" x="109.673828"/>
     <use xlink:href="#DejaVuSans-74" x="161.773438"/>
     <use xlink:href="#DejaVuSans-51" x="200.982422"/>
     <use xlink:href="#DejaVuSans-43" x="279.693359"/>
     <use xlink:href="#DejaVuSans-3a" x="349.517578"/>
     <use xlink:href="#DejaVuSans-20" x="383.208984"/>
     <use xlink:href="#DejaVuSans-50" x="414.996094"/>
     <use xlink:href="#DejaVuSans-65" x="471.673828"/>
     <use xlink:href="#DejaVuSans-72" x="533.197266"/>
     <use xlink:href="#DejaVuSans-20" x="574.310547"/>
     <use xlink:href="#DejaVuSans-53" x="606.097656"/>
     <use xlink:href="#DejaVuSans-65" x="669.574219"/>
     <use xlink:href="#DejaVuSans-71" x="731.097656"/>
     <use xlink:href="#DejaVuSans-75" x="794.574219"/>
     <use xlink:href="#DejaVuSans-65" x="857.953125"/>
     <use xlink:href="#DejaVuSans-6e" x="919.476562"/>
     <use xlink:href="#DejaVuSans-63" x="982.855469"/>
     <use xlink:href="#DejaVuSans-65" x="1037.835938"/>
     <use xlink:href="#DejaVuSans-20" x="1099.359375"/>
     <use xlink:href="#DejaVuSans-47" x="1131.146484"/>
     <use xlink:href="#DejaVuSans-43" x="1208.636719"/>
     <use xlink:href="#DejaVuSans-20" x="1278.460938"/>
     <use xlink:href="#DejaVuSans-43" x="1310.248047"/>
     <use xlink:href="#DejaVuSans-6f" x="1380.072266"/>
     <use xlink:href="#DejaVuSans-6e" x="1441.253906"/>
     <use xlink:href="#DejaVuSans-74" x="1504.632812"/>
     <use xlink:href="#DejaVuSans-65" x="1543.841797"/>
     <use xlink:href="#DejaVuSans-6e" x="1605.365234"/>
     <use xlink:href="#DejaVuSans-74" x="1668.744141"/>
    </g>
   </g>
  </g>
 </g>
 <defs>
  <clipPath id="p9d7724fbd0">
   <rect x="32.968125" y="35.2559" width="952.495" height="317.968"/>
  </clipPath>
 </defs>
</svg>
