<?xml version="1.0" encoding="utf-8" standalone="no"?>
<!DOCTYPE svg PUBLIC "-//W3C//DTD SVG 1.1//EN"
  "http://www.w3.org/Graphics/SVG/1.1/DTD/svg11.dtd">
<svg xmlns:xlink="http://www.w3.org/1999/xlink" width="998.855255pt" height="385.971725pt" viewBox="0 0 998.855255 385.971725" xmlns="http://www.w3.org/2000/svg" version="1.1">
 <metadata>
  <rdf:RDF xmlns:dc="http://purl.org/dc/elements/1.1/" xmlns:cc="http://creativecommons.org/ns#" xmlns:rdf="http://www.w3.org/1999/02/22-rdf-syntax-ns#">
   <cc:Work>
    <dc:type rdf:resource="http://purl.org/dc/dcmitype/StillImage"/>
    <dc:date>2025-03-11T15:51:04.926328</dc:date>
    <dc:format>image/svg+xml</dc:format>
    <dc:creator>
     <cc:Agent>
      <dc:title>Matplotlib v3.8.2, https://matplotlib.org/</dc:title>
     </cc:Agent>
    </dc:creator>
   </cc:Work>
  </rdf:RDF>
 </metadata>
 <defs>
  <style type="text/css">*{stroke-linejoin: round; stroke-linecap: butt}</style>
 </defs>
 <g id="figure_1">
  <g id="axes_1">
   <g id="patch_1">
    <path d="M 43.148125 350.3511 
L 990.544459 350.3511 
L 990.544459 35.1191 
L 43.148125 35.1191 
z
" style="fill: #ffffff"/>
   </g>
   <g id="matplotlib.axis_1">
    <g id="xtick_1">
     <g id="text_1">
      <!-- $\mathdefault{10^{-1}}$ -->
      <g transform="translate(144.986046 363.42985) scale(0.08 -0.08)">
       <defs>
        <path id="DejaVuSans-31" d="M 794 531 
L 1825 531 
L 1825 4091 
L 703 3866 
L 703 4441 
L 1819 4666 
L 2450 4666 
L 2450 531 
L 3481 531 
L 3481 0 
L 794 0 
L 794 531 
z
" transform="scale(0.015625)"/>
        <path id="DejaVuSans-30" d="M 2034 4250 
Q 1547 4250 1301 3770 
Q 1056 3291 1056 2328 
Q 1056 1369 1301 889 
Q 1547 409 2034 409 
Q 2525 409 2770 889 
Q 3016 1369 3016 2328 
Q 3016 3291 2770 3770 
Q 2525 4250 2034 4250 
z
M 2034 4750 
Q 2819 4750 3233 4129 
Q 3647 3509 3647 2328 
Q 3647 1150 3233 529 
Q 2819 -91 2034 -91 
Q 1250 -91 836 529 
Q 422 1150 422 2328 
Q 422 3509 836 4129 
Q 1250 4750 2034 4750 
z
" transform="scale(0.015625)"/>
        <path id="DejaVuSans-2212" d="M 678 2272 
L 4684 2272 
L 4684 1741 
L 678 1741 
L 678 2272 
z
" transform="scale(0.015625)"/>
       </defs>
       <use xlink:href="#DejaVuSans-31" transform="translate(0 0.684375)"/>
       <use xlink:href="#DejaVuSans-30" transform="translate(63.623047 0.684375)"/>
       <use xlink:href="#DejaVuSans-2212" transform="translate(128.203125 38.965625) scale(0.7)"/>
       <use xlink:href="#DejaVuSans-31" transform="translate(186.855469 38.965625) scale(0.7)"/>
      </g>
     </g>
    </g>
    <g id="xtick_2">
     <g id="text_2">
      <!-- $\mathdefault{10^{0}}$ -->
      <g transform="translate(265.950219 363.42985) scale(0.08 -0.08)">
       <use xlink:href="#DejaVuSans-31" transform="translate(0 0.765625)"/>
       <use xlink:href="#DejaVuSans-30" transform="translate(63.623047 0.765625)"/>
       <use xlink:href="#DejaVuSans-30" transform="translate(128.203125 39.046875) scale(0.7)"/>
      </g>
     </g>
    </g>
    <g id="xtick_3">
     <g id="text_3">
      <!-- $\mathdefault{10^{1}}$ -->
      <g transform="translate(384.554391 363.42985) scale(0.08 -0.08)">
       <use xlink:href="#DejaVuSans-31" transform="translate(0 0.684375)"/>
       <use xlink:href="#DejaVuSans-30" transform="translate(63.623047 0.684375)"/>
       <use xlink:href="#DejaVuSans-31" transform="translate(128.203125 38.965625) scale(0.7)"/>
      </g>
     </g>
    </g>
    <g id="xtick_4">
     <g id="text_4">
      <!-- $\mathdefault{10^{2}}$ -->
      <g transform="translate(503.158564 363.42985) scale(0.08 -0.08)">
       <defs>
        <path id="DejaVuSans-32" d="M 1228 531 
L 3431 531 
L 3431 0 
L 469 0 
L 469 531 
Q 828 903 1448 1529 
Q 2069 2156 2228 2338 
Q 2531 2678 2651 2914 
Q 2772 3150 2772 3378 
Q 2772 3750 2511 3984 
Q 2250 4219 1831 4219 
Q 1534 4219 1204 4116 
Q 875 4013 500 3803 
L 500 4441 
Q 881 4594 1212 4672 
Q 1544 4750 1819 4750 
Q 2544 4750 2975 4387 
Q 3406 4025 3406 3419 
Q 3406 3131 3298 2873 
Q 3191 2616 2906 2266 
Q 2828 2175 2409 1742 
Q 1991 1309 1228 531 
z
" transform="scale(0.015625)"/>
       </defs>
       <use xlink:href="#DejaVuSans-31" transform="translate(0 0.765625)"/>
       <use xlink:href="#DejaVuSans-30" transform="translate(63.623047 0.765625)"/>
       <use xlink:href="#DejaVuSans-32" transform="translate(128.203125 39.046875) scale(0.7)"/>
      </g>
     </g>
    </g>
    <g id="xtick_5">
     <g id="text_5">
      <!-- $\mathdefault{10^{3}}$ -->
      <g transform="translate(621.762737 363.42985) scale(0.08 -0.08)">
       <defs>
        <path id="DejaVuSans-33" d="M 2597 2516 
Q 3050 2419 3304 2112 
Q 3559 1806 3559 1356 
Q 3559 666 3084 287 
Q 2609 -91 1734 -91 
Q 1441 -91 1130 -33 
Q 819 25 488 141 
L 488 750 
Q 750 597 1062 519 
Q 1375 441 1716 441 
Q 2309 441 2620 675 
Q 2931 909 2931 1356 
Q 2931 1769 2642 2001 
Q 2353 2234 1838 2234 
L 1294 2234 
L 1294 2753 
L 1863 2753 
Q 2328 2753 2575 2939 
Q 2822 3125 2822 3475 
Q 2822 3834 2567 4026 
Q 2313 4219 1838 4219 
Q 1578 4219 1281 4162 
Q 984 4106 628 3988 
L 628 4550 
Q 988 4650 1302 4700 
Q 1616 4750 1894 4750 
Q 2613 4750 3031 4423 
Q 3450 4097 3450 3541 
Q 3450 3153 3228 2886 
Q 3006 2619 2597 2516 
z
" transform="scale(0.015625)"/>
       </defs>
       <use xlink:href="#DejaVuSans-31" transform="translate(0 0.765625)"/>
       <use xlink:href="#DejaVuSans-30" transform="translate(63.623047 0.765625)"/>
       <use xlink:href="#DejaVuSans-33" transform="translate(128.203125 39.046875) scale(0.7)"/>
      </g>
     </g>
    </g>
    <g id="xtick_6">
     <g id="text_6">
      <!-- $\mathdefault{10^{4}}$ -->
      <g transform="translate(740.366909 363.42985) scale(0.08 -0.08)">
       <defs>
        <path id="DejaVuSans-34" d="M 2419 4116 
L 825 1625 
L 2419 1625 
L 2419 4116 
z
M 2253 4666 
L 3047 4666 
L 3047 1625 
L 3713 1625 
L 3713 1100 
L 3047 1100 
L 3047 0 
L 2419 0 
L 2419 1100 
L 313 1100 
L 313 1709 
L 2253 4666 
z
" transform="scale(0.015625)"/>
       </defs>
       <use xlink:href="#DejaVuSans-31" transform="translate(0 0.684375)"/>
       <use xlink:href="#DejaVuSans-30" transform="translate(63.623047 0.684375)"/>
       <use xlink:href="#DejaVuSans-34" transform="translate(128.203125 38.965625) scale(0.7)"/>
      </g>
     </g>
    </g>
    <g id="xtick_7">
     <g id="text_7">
      <!-- $\mathdefault{10^{5}}$ -->
      <g transform="translate(858.971082 363.42985) scale(0.08 -0.08)">
       <defs>
        <path id="DejaVuSans-35" d="M 691 4666 
L 3169 4666 
L 3169 4134 
L 1269 4134 
L 1269 2991 
Q 1406 3038 1543 3061 
Q 1681 3084 1819 3084 
Q 2600 3084 3056 2656 
Q 3513 2228 3513 1497 
Q 3513 744 3044 326 
Q 2575 -91 1722 -91 
Q 1428 -91 1123 -41 
Q 819 9 494 109 
L 494 744 
Q 775 591 1075 516 
Q 1375 441 1709 441 
Q 2250 441 2565 725 
Q 2881 1009 2881 1497 
Q 2881 1984 2565 2268 
Q 2250 2553 1709 2553 
Q 1456 2553 1204 2497 
Q 953 2441 691 2322 
L 691 4666 
z
" transform="scale(0.015625)"/>
       </defs>
       <use xlink:href="#DejaVuSans-31" transform="translate(0 0.684375)"/>
       <use xlink:href="#DejaVuSans-30" transform="translate(63.623047 0.684375)"/>
       <use xlink:href="#DejaVuSans-35" transform="translate(128.203125 38.965625) scale(0.7)"/>
      </g>
     </g>
    </g>
    <g id="xtick_8">
     <g id="text_8">
      <!-- $\mathdefault{10^{6}}$ -->
      <g transform="translate(977.575255 363.42985) scale(0.08 -0.08)">
       <defs>
        <path id="DejaVuSans-36" d="M 2113 2584 
Q 1688 2584 1439 2293 
Q 1191 2003 1191 1497 
Q 1191 994 1439 701 
Q 1688 409 2113 409 
Q 2538 409 2786 701 
Q 3034 994 3034 1497 
Q 3034 2003 2786 2293 
Q 2538 2584 2113 2584 
z
M 3366 4563 
L 3366 3988 
Q 3128 4100 2886 4159 
Q 2644 4219 2406 4219 
Q 1781 4219 1451 3797 
Q 1122 3375 1075 2522 
Q 1259 2794 1537 2939 
Q 1816 3084 2150 3084 
Q 2853 3084 3261 2657 
Q 3669 2231 3669 1497 
Q 3669 778 3244 343 
Q 2819 -91 2113 -91 
Q 1303 -91 875 529 
Q 447 1150 447 2328 
Q 447 3434 972 4092 
Q 1497 4750 2381 4750 
Q 2619 4750 2861 4703 
Q 3103 4656 3366 4563 
z
" transform="scale(0.015625)"/>
       </defs>
       <use xlink:href="#DejaVuSans-31" transform="translate(0 0.765625)"/>
       <use xlink:href="#DejaVuSans-30" transform="translate(63.623047 0.765625)"/>
       <use xlink:href="#DejaVuSans-36" transform="translate(128.203125 39.046875) scale(0.7)"/>
      </g>
     </g>
    </g>
    <g id="xtick_9">
     <g id="line2d_1">
      <defs>
       <path id="m97bc67101c" d="M 0 0 
L 0 2 
" style="stroke: #000000; stroke-width: 0.6"/>
      </defs>
      <g>
       <use xlink:href="#m97bc67101c" x="71.485287" y="350.3511" style="stroke: #000000; stroke-width: 0.6"/>
      </g>
     </g>
    </g>
    <g id="xtick_10">
     <g id="line2d_2">
      <g>
       <use xlink:href="#m97bc67101c" x="92.370445" y="350.3511" style="stroke: #000000; stroke-width: 0.6"/>
      </g>
     </g>
    </g>
    <g id="xtick_11">
     <g id="line2d_3">
      <g>
       <use xlink:href="#m97bc67101c" x="107.1887" y="350.3511" style="stroke: #000000; stroke-width: 0.6"/>
      </g>
     </g>
    </g>
    <g id="xtick_12">
     <g id="line2d_4">
      <g>
       <use xlink:href="#m97bc67101c" x="118.682632" y="350.3511" style="stroke: #000000; stroke-width: 0.6"/>
      </g>
     </g>
    </g>
    <g id="xtick_13">
     <g id="line2d_5">
      <g>
       <use xlink:href="#m97bc67101c" x="128.073858" y="350.3511" style="stroke: #000000; stroke-width: 0.6"/>
      </g>
     </g>
    </g>
    <g id="xtick_14">
     <g id="line2d_6">
      <g>
       <use xlink:href="#m97bc67101c" x="136.014027" y="350.3511" style="stroke: #000000; stroke-width: 0.6"/>
      </g>
     </g>
    </g>
    <g id="xtick_15">
     <g id="line2d_7">
      <g>
       <use xlink:href="#m97bc67101c" x="142.892114" y="350.3511" style="stroke: #000000; stroke-width: 0.6"/>
      </g>
     </g>
    </g>
    <g id="xtick_16">
     <g id="line2d_8">
      <g>
       <use xlink:href="#m97bc67101c" x="148.959017" y="350.3511" style="stroke: #000000; stroke-width: 0.6"/>
      </g>
     </g>
    </g>
    <g id="xtick_17">
     <g id="line2d_9">
      <g>
       <use xlink:href="#m97bc67101c" x="190.089459" y="350.3511" style="stroke: #000000; stroke-width: 0.6"/>
      </g>
     </g>
    </g>
    <g id="xtick_18">
     <g id="line2d_10">
      <g>
       <use xlink:href="#m97bc67101c" x="210.974618" y="350.3511" style="stroke: #000000; stroke-width: 0.6"/>
      </g>
     </g>
    </g>
    <g id="xtick_19">
     <g id="line2d_11">
      <g>
       <use xlink:href="#m97bc67101c" x="225.792873" y="350.3511" style="stroke: #000000; stroke-width: 0.6"/>
      </g>
     </g>
    </g>
    <g id="xtick_20">
     <g id="line2d_12">
      <g>
       <use xlink:href="#m97bc67101c" x="237.286805" y="350.3511" style="stroke: #000000; stroke-width: 0.6"/>
      </g>
     </g>
    </g>
    <g id="xtick_21">
     <g id="line2d_13">
      <g>
       <use xlink:href="#m97bc67101c" x="246.678031" y="350.3511" style="stroke: #000000; stroke-width: 0.6"/>
      </g>
     </g>
    </g>
    <g id="xtick_22">
     <g id="line2d_14">
      <g>
       <use xlink:href="#m97bc67101c" x="254.6182" y="350.3511" style="stroke: #000000; stroke-width: 0.6"/>
      </g>
     </g>
    </g>
    <g id="xtick_23">
     <g id="line2d_15">
      <g>
       <use xlink:href="#m97bc67101c" x="261.496287" y="350.3511" style="stroke: #000000; stroke-width: 0.6"/>
      </g>
     </g>
    </g>
    <g id="xtick_24">
     <g id="line2d_16">
      <g>
       <use xlink:href="#m97bc67101c" x="267.563189" y="350.3511" style="stroke: #000000; stroke-width: 0.6"/>
      </g>
     </g>
    </g>
    <g id="xtick_25">
     <g id="line2d_17">
      <g>
       <use xlink:href="#m97bc67101c" x="308.693632" y="350.3511" style="stroke: #000000; stroke-width: 0.6"/>
      </g>
     </g>
    </g>
    <g id="xtick_26">
     <g id="line2d_18">
      <g>
       <use xlink:href="#m97bc67101c" x="329.57879" y="350.3511" style="stroke: #000000; stroke-width: 0.6"/>
      </g>
     </g>
    </g>
    <g id="xtick_27">
     <g id="line2d_19">
      <g>
       <use xlink:href="#m97bc67101c" x="344.397046" y="350.3511" style="stroke: #000000; stroke-width: 0.6"/>
      </g>
     </g>
    </g>
    <g id="xtick_28">
     <g id="line2d_20">
      <g>
       <use xlink:href="#m97bc67101c" x="355.890978" y="350.3511" style="stroke: #000000; stroke-width: 0.6"/>
      </g>
     </g>
    </g>
    <g id="xtick_29">
     <g id="line2d_21">
      <g>
       <use xlink:href="#m97bc67101c" x="365.282204" y="350.3511" style="stroke: #000000; stroke-width: 0.6"/>
      </g>
     </g>
    </g>
    <g id="xtick_30">
     <g id="line2d_22">
      <g>
       <use xlink:href="#m97bc67101c" x="373.222372" y="350.3511" style="stroke: #000000; stroke-width: 0.6"/>
      </g>
     </g>
    </g>
    <g id="xtick_31">
     <g id="line2d_23">
      <g>
       <use xlink:href="#m97bc67101c" x="380.100459" y="350.3511" style="stroke: #000000; stroke-width: 0.6"/>
      </g>
     </g>
    </g>
    <g id="xtick_32">
     <g id="line2d_24">
      <g>
       <use xlink:href="#m97bc67101c" x="386.167362" y="350.3511" style="stroke: #000000; stroke-width: 0.6"/>
      </g>
     </g>
    </g>
    <g id="xtick_33">
     <g id="line2d_25">
      <g>
       <use xlink:href="#m97bc67101c" x="427.297805" y="350.3511" style="stroke: #000000; stroke-width: 0.6"/>
      </g>
     </g>
    </g>
    <g id="xtick_34">
     <g id="line2d_26">
      <g>
       <use xlink:href="#m97bc67101c" x="448.182963" y="350.3511" style="stroke: #000000; stroke-width: 0.6"/>
      </g>
     </g>
    </g>
    <g id="xtick_35">
     <g id="line2d_27">
      <g>
       <use xlink:href="#m97bc67101c" x="463.001218" y="350.3511" style="stroke: #000000; stroke-width: 0.6"/>
      </g>
     </g>
    </g>
    <g id="xtick_36">
     <g id="line2d_28">
      <g>
       <use xlink:href="#m97bc67101c" x="474.49515" y="350.3511" style="stroke: #000000; stroke-width: 0.6"/>
      </g>
     </g>
    </g>
    <g id="xtick_37">
     <g id="line2d_29">
      <g>
       <use xlink:href="#m97bc67101c" x="483.886377" y="350.3511" style="stroke: #000000; stroke-width: 0.6"/>
      </g>
     </g>
    </g>
    <g id="xtick_38">
     <g id="line2d_30">
      <g>
       <use xlink:href="#m97bc67101c" x="491.826545" y="350.3511" style="stroke: #000000; stroke-width: 0.6"/>
      </g>
     </g>
    </g>
    <g id="xtick_39">
     <g id="line2d_31">
      <g>
       <use xlink:href="#m97bc67101c" x="498.704632" y="350.3511" style="stroke: #000000; stroke-width: 0.6"/>
      </g>
     </g>
    </g>
    <g id="xtick_40">
     <g id="line2d_32">
      <g>
       <use xlink:href="#m97bc67101c" x="504.771535" y="350.3511" style="stroke: #000000; stroke-width: 0.6"/>
      </g>
     </g>
    </g>
    <g id="xtick_41">
     <g id="line2d_33">
      <g>
       <use xlink:href="#m97bc67101c" x="545.901978" y="350.3511" style="stroke: #000000; stroke-width: 0.6"/>
      </g>
     </g>
    </g>
    <g id="xtick_42">
     <g id="line2d_34">
      <g>
       <use xlink:href="#m97bc67101c" x="566.787136" y="350.3511" style="stroke: #000000; stroke-width: 0.6"/>
      </g>
     </g>
    </g>
    <g id="xtick_43">
     <g id="line2d_35">
      <g>
       <use xlink:href="#m97bc67101c" x="581.605391" y="350.3511" style="stroke: #000000; stroke-width: 0.6"/>
      </g>
     </g>
    </g>
    <g id="xtick_44">
     <g id="line2d_36">
      <g>
       <use xlink:href="#m97bc67101c" x="593.099323" y="350.3511" style="stroke: #000000; stroke-width: 0.6"/>
      </g>
     </g>
    </g>
    <g id="xtick_45">
     <g id="line2d_37">
      <g>
       <use xlink:href="#m97bc67101c" x="602.490549" y="350.3511" style="stroke: #000000; stroke-width: 0.6"/>
      </g>
     </g>
    </g>
    <g id="xtick_46">
     <g id="line2d_38">
      <g>
       <use xlink:href="#m97bc67101c" x="610.430718" y="350.3511" style="stroke: #000000; stroke-width: 0.6"/>
      </g>
     </g>
    </g>
    <g id="xtick_47">
     <g id="line2d_39">
      <g>
       <use xlink:href="#m97bc67101c" x="617.308805" y="350.3511" style="stroke: #000000; stroke-width: 0.6"/>
      </g>
     </g>
    </g>
    <g id="xtick_48">
     <g id="line2d_40">
      <g>
       <use xlink:href="#m97bc67101c" x="623.375707" y="350.3511" style="stroke: #000000; stroke-width: 0.6"/>
      </g>
     </g>
    </g>
    <g id="xtick_49">
     <g id="line2d_41">
      <g>
       <use xlink:href="#m97bc67101c" x="664.50615" y="350.3511" style="stroke: #000000; stroke-width: 0.6"/>
      </g>
     </g>
    </g>
    <g id="xtick_50">
     <g id="line2d_42">
      <g>
       <use xlink:href="#m97bc67101c" x="685.391308" y="350.3511" style="stroke: #000000; stroke-width: 0.6"/>
      </g>
     </g>
    </g>
    <g id="xtick_51">
     <g id="line2d_43">
      <g>
       <use xlink:href="#m97bc67101c" x="700.209564" y="350.3511" style="stroke: #000000; stroke-width: 0.6"/>
      </g>
     </g>
    </g>
    <g id="xtick_52">
     <g id="line2d_44">
      <g>
       <use xlink:href="#m97bc67101c" x="711.703496" y="350.3511" style="stroke: #000000; stroke-width: 0.6"/>
      </g>
     </g>
    </g>
    <g id="xtick_53">
     <g id="line2d_45">
      <g>
       <use xlink:href="#m97bc67101c" x="721.094722" y="350.3511" style="stroke: #000000; stroke-width: 0.6"/>
      </g>
     </g>
    </g>
    <g id="xtick_54">
     <g id="line2d_46">
      <g>
       <use xlink:href="#m97bc67101c" x="729.034891" y="350.3511" style="stroke: #000000; stroke-width: 0.6"/>
      </g>
     </g>
    </g>
    <g id="xtick_55">
     <g id="line2d_47">
      <g>
       <use xlink:href="#m97bc67101c" x="735.912977" y="350.3511" style="stroke: #000000; stroke-width: 0.6"/>
      </g>
     </g>
    </g>
    <g id="xtick_56">
     <g id="line2d_48">
      <g>
       <use xlink:href="#m97bc67101c" x="741.97988" y="350.3511" style="stroke: #000000; stroke-width: 0.6"/>
      </g>
     </g>
    </g>
    <g id="xtick_57">
     <g id="line2d_49">
      <g>
       <use xlink:href="#m97bc67101c" x="783.110323" y="350.3511" style="stroke: #000000; stroke-width: 0.6"/>
      </g>
     </g>
    </g>
    <g id="xtick_58">
     <g id="line2d_50">
      <g>
       <use xlink:href="#m97bc67101c" x="803.995481" y="350.3511" style="stroke: #000000; stroke-width: 0.6"/>
      </g>
     </g>
    </g>
    <g id="xtick_59">
     <g id="line2d_51">
      <g>
       <use xlink:href="#m97bc67101c" x="818.813737" y="350.3511" style="stroke: #000000; stroke-width: 0.6"/>
      </g>
     </g>
    </g>
    <g id="xtick_60">
     <g id="line2d_52">
      <g>
       <use xlink:href="#m97bc67101c" x="830.307668" y="350.3511" style="stroke: #000000; stroke-width: 0.6"/>
      </g>
     </g>
    </g>
    <g id="xtick_61">
     <g id="line2d_53">
      <g>
       <use xlink:href="#m97bc67101c" x="839.698895" y="350.3511" style="stroke: #000000; stroke-width: 0.6"/>
      </g>
     </g>
    </g>
    <g id="xtick_62">
     <g id="line2d_54">
      <g>
       <use xlink:href="#m97bc67101c" x="847.639063" y="350.3511" style="stroke: #000000; stroke-width: 0.6"/>
      </g>
     </g>
    </g>
    <g id="xtick_63">
     <g id="line2d_55">
      <g>
       <use xlink:href="#m97bc67101c" x="854.51715" y="350.3511" style="stroke: #000000; stroke-width: 0.6"/>
      </g>
     </g>
    </g>
    <g id="xtick_64">
     <g id="line2d_56">
      <g>
       <use xlink:href="#m97bc67101c" x="860.584053" y="350.3511" style="stroke: #000000; stroke-width: 0.6"/>
      </g>
     </g>
    </g>
    <g id="xtick_65">
     <g id="line2d_57">
      <g>
       <use xlink:href="#m97bc67101c" x="901.714496" y="350.3511" style="stroke: #000000; stroke-width: 0.6"/>
      </g>
     </g>
    </g>
    <g id="xtick_66">
     <g id="line2d_58">
      <g>
       <use xlink:href="#m97bc67101c" x="922.599654" y="350.3511" style="stroke: #000000; stroke-width: 0.6"/>
      </g>
     </g>
    </g>
    <g id="xtick_67">
     <g id="line2d_59">
      <g>
       <use xlink:href="#m97bc67101c" x="937.417909" y="350.3511" style="stroke: #000000; stroke-width: 0.6"/>
      </g>
     </g>
    </g>
    <g id="xtick_68">
     <g id="line2d_60">
      <g>
       <use xlink:href="#m97bc67101c" x="948.911841" y="350.3511" style="stroke: #000000; stroke-width: 0.6"/>
      </g>
     </g>
    </g>
    <g id="xtick_69">
     <g id="line2d_61">
      <g>
       <use xlink:href="#m97bc67101c" x="958.303067" y="350.3511" style="stroke: #000000; stroke-width: 0.6"/>
      </g>
     </g>
    </g>
    <g id="xtick_70">
     <g id="line2d_62">
      <g>
       <use xlink:href="#m97bc67101c" x="966.243236" y="350.3511" style="stroke: #000000; stroke-width: 0.6"/>
      </g>
     </g>
    </g>
    <g id="xtick_71">
     <g id="line2d_63">
      <g>
       <use xlink:href="#m97bc67101c" x="973.121323" y="350.3511" style="stroke: #000000; stroke-width: 0.6"/>
      </g>
     </g>
    </g>
    <g id="xtick_72">
     <g id="line2d_64">
      <g>
       <use xlink:href="#m97bc67101c" x="979.188225" y="350.3511" style="stroke: #000000; stroke-width: 0.6"/>
      </g>
     </g>
    </g>
    <g id="text_9">
     <!-- expression (reads/kbp) -->
     <g transform="translate(459.596292 376.692037) scale(0.1 -0.1)">
      <defs>
       <path id="DejaVuSans-65" d="M 3597 1894 
L 3597 1613 
L 953 1613 
Q 991 1019 1311 708 
Q 1631 397 2203 397 
Q 2534 397 2845 478 
Q 3156 559 3463 722 
L 3463 178 
Q 3153 47 2828 -22 
Q 2503 -91 2169 -91 
Q 1331 -91 842 396 
Q 353 884 353 1716 
Q 353 2575 817 3079 
Q 1281 3584 2069 3584 
Q 2775 3584 3186 3129 
Q 3597 2675 3597 1894 
z
M 3022 2063 
Q 3016 2534 2758 2815 
Q 2500 3097 2075 3097 
Q 1594 3097 1305 2825 
Q 1016 2553 972 2059 
L 3022 2063 
z
" transform="scale(0.015625)"/>
       <path id="DejaVuSans-78" d="M 3513 3500 
L 2247 1797 
L 3578 0 
L 2900 0 
L 1881 1375 
L 863 0 
L 184 0 
L 1544 1831 
L 300 3500 
L 978 3500 
L 1906 2253 
L 2834 3500 
L 3513 3500 
z
" transform="scale(0.015625)"/>
       <path id="DejaVuSans-70" d="M 1159 525 
L 1159 -1331 
L 581 -1331 
L 581 3500 
L 1159 3500 
L 1159 2969 
Q 1341 3281 1617 3432 
Q 1894 3584 2278 3584 
Q 2916 3584 3314 3078 
Q 3713 2572 3713 1747 
Q 3713 922 3314 415 
Q 2916 -91 2278 -91 
Q 1894 -91 1617 61 
Q 1341 213 1159 525 
z
M 3116 1747 
Q 3116 2381 2855 2742 
Q 2594 3103 2138 3103 
Q 1681 3103 1420 2742 
Q 1159 2381 1159 1747 
Q 1159 1113 1420 752 
Q 1681 391 2138 391 
Q 2594 391 2855 752 
Q 3116 1113 3116 1747 
z
" transform="scale(0.015625)"/>
       <path id="DejaVuSans-72" d="M 2631 2963 
Q 2534 3019 2420 3045 
Q 2306 3072 2169 3072 
Q 1681 3072 1420 2755 
Q 1159 2438 1159 1844 
L 1159 0 
L 581 0 
L 581 3500 
L 1159 3500 
L 1159 2956 
Q 1341 3275 1631 3429 
Q 1922 3584 2338 3584 
Q 2397 3584 2469 3576 
Q 2541 3569 2628 3553 
L 2631 2963 
z
" transform="scale(0.015625)"/>
       <path id="DejaVuSans-73" d="M 2834 3397 
L 2834 2853 
Q 2591 2978 2328 3040 
Q 2066 3103 1784 3103 
Q 1356 3103 1142 2972 
Q 928 2841 928 2578 
Q 928 2378 1081 2264 
Q 1234 2150 1697 2047 
L 1894 2003 
Q 2506 1872 2764 1633 
Q 3022 1394 3022 966 
Q 3022 478 2636 193 
Q 2250 -91 1575 -91 
Q 1294 -91 989 -36 
Q 684 19 347 128 
L 347 722 
Q 666 556 975 473 
Q 1284 391 1588 391 
Q 1994 391 2212 530 
Q 2431 669 2431 922 
Q 2431 1156 2273 1281 
Q 2116 1406 1581 1522 
L 1381 1569 
Q 847 1681 609 1914 
Q 372 2147 372 2553 
Q 372 3047 722 3315 
Q 1072 3584 1716 3584 
Q 2034 3584 2315 3537 
Q 2597 3491 2834 3397 
z
" transform="scale(0.015625)"/>
       <path id="DejaVuSans-69" d="M 603 3500 
L 1178 3500 
L 1178 0 
L 603 0 
L 603 3500 
z
M 603 4863 
L 1178 4863 
L 1178 4134 
L 603 4134 
L 603 4863 
z
" transform="scale(0.015625)"/>
       <path id="DejaVuSans-6f" d="M 1959 3097 
Q 1497 3097 1228 2736 
Q 959 2375 959 1747 
Q 959 1119 1226 758 
Q 1494 397 1959 397 
Q 2419 397 2687 759 
Q 2956 1122 2956 1747 
Q 2956 2369 2687 2733 
Q 2419 3097 1959 3097 
z
M 1959 3584 
Q 2709 3584 3137 3096 
Q 3566 2609 3566 1747 
Q 3566 888 3137 398 
Q 2709 -91 1959 -91 
Q 1206 -91 779 398 
Q 353 888 353 1747 
Q 353 2609 779 3096 
Q 1206 3584 1959 3584 
z
" transform="scale(0.015625)"/>
       <path id="DejaVuSans-6e" d="M 3513 2113 
L 3513 0 
L 2938 0 
L 2938 2094 
Q 2938 2591 2744 2837 
Q 2550 3084 2163 3084 
Q 1697 3084 1428 2787 
Q 1159 2491 1159 1978 
L 1159 0 
L 581 0 
L 581 3500 
L 1159 3500 
L 1159 2956 
Q 1366 3272 1645 3428 
Q 1925 3584 2291 3584 
Q 2894 3584 3203 3211 
Q 3513 2838 3513 2113 
z
" transform="scale(0.015625)"/>
       <path id="DejaVuSans-20" transform="scale(0.015625)"/>
       <path id="DejaVuSans-28" d="M 1984 4856 
Q 1566 4138 1362 3434 
Q 1159 2731 1159 2009 
Q 1159 1288 1364 580 
Q 1569 -128 1984 -844 
L 1484 -844 
Q 1016 -109 783 600 
Q 550 1309 550 2009 
Q 550 2706 781 3412 
Q 1013 4119 1484 4856 
L 1984 4856 
z
" transform="scale(0.015625)"/>
       <path id="DejaVuSans-61" d="M 2194 1759 
Q 1497 1759 1228 1600 
Q 959 1441 959 1056 
Q 959 750 1161 570 
Q 1363 391 1709 391 
Q 2188 391 2477 730 
Q 2766 1069 2766 1631 
L 2766 1759 
L 2194 1759 
z
M 3341 1997 
L 3341 0 
L 2766 0 
L 2766 531 
Q 2569 213 2275 61 
Q 1981 -91 1556 -91 
Q 1019 -91 701 211 
Q 384 513 384 1019 
Q 384 1609 779 1909 
Q 1175 2209 1959 2209 
L 2766 2209 
L 2766 2266 
Q 2766 2663 2505 2880 
Q 2244 3097 1772 3097 
Q 1472 3097 1187 3025 
Q 903 2953 641 2809 
L 641 3341 
Q 956 3463 1253 3523 
Q 1550 3584 1831 3584 
Q 2591 3584 2966 3190 
Q 3341 2797 3341 1997 
z
" transform="scale(0.015625)"/>
       <path id="DejaVuSans-64" d="M 2906 2969 
L 2906 4863 
L 3481 4863 
L 3481 0 
L 2906 0 
L 2906 525 
Q 2725 213 2448 61 
Q 2172 -91 1784 -91 
Q 1150 -91 751 415 
Q 353 922 353 1747 
Q 353 2572 751 3078 
Q 1150 3584 1784 3584 
Q 2172 3584 2448 3432 
Q 2725 3281 2906 2969 
z
M 947 1747 
Q 947 1113 1208 752 
Q 1469 391 1925 391 
Q 2381 391 2643 752 
Q 2906 1113 2906 1747 
Q 2906 2381 2643 2742 
Q 2381 3103 1925 3103 
Q 1469 3103 1208 2742 
Q 947 2381 947 1747 
z
" transform="scale(0.015625)"/>
       <path id="DejaVuSans-2f" d="M 1625 4666 
L 2156 4666 
L 531 -594 
L 0 -594 
L 1625 4666 
z
" transform="scale(0.015625)"/>
       <path id="DejaVuSans-6b" d="M 581 4863 
L 1159 4863 
L 1159 1991 
L 2875 3500 
L 3609 3500 
L 1753 1863 
L 3688 0 
L 2938 0 
L 1159 1709 
L 1159 0 
L 581 0 
L 581 4863 
z
" transform="scale(0.015625)"/>
       <path id="DejaVuSans-62" d="M 3116 1747 
Q 3116 2381 2855 2742 
Q 2594 3103 2138 3103 
Q 1681 3103 1420 2742 
Q 1159 2381 1159 1747 
Q 1159 1113 1420 752 
Q 1681 391 2138 391 
Q 2594 391 2855 752 
Q 3116 1113 3116 1747 
z
M 1159 2969 
Q 1341 3281 1617 3432 
Q 1894 3584 2278 3584 
Q 2916 3584 3314 3078 
Q 3713 2572 3713 1747 
Q 3713 922 3314 415 
Q 2916 -91 2278 -91 
Q 1894 -91 1617 61 
Q 1341 213 1159 525 
L 1159 0 
L 581 0 
L 581 4863 
L 1159 4863 
L 1159 2969 
z
" transform="scale(0.015625)"/>
       <path id="DejaVuSans-29" d="M 513 4856 
L 1013 4856 
Q 1481 4119 1714 3412 
Q 1947 2706 1947 2009 
Q 1947 1309 1714 600 
Q 1481 -109 1013 -844 
L 513 -844 
Q 928 -128 1133 580 
Q 1338 1288 1338 2009 
Q 1338 2731 1133 3434 
Q 928 4138 513 4856 
z
" transform="scale(0.015625)"/>
      </defs>
      <use xlink:href="#DejaVuSans-65"/>
      <use xlink:href="#DejaVuSans-78" x="59.773438"/>
      <use xlink:href="#DejaVuSans-70" x="118.953125"/>
      <use xlink:href="#DejaVuSans-72" x="182.429688"/>
      <use xlink:href="#DejaVuSans-65" x="221.292969"/>
      <use xlink:href="#DejaVuSans-73" x="282.816406"/>
      <use xlink:href="#DejaVuSans-73" x="334.916016"/>
      <use xlink:href="#DejaVuSans-69" x="387.015625"/>
      <use xlink:href="#DejaVuSans-6f" x="414.798828"/>
      <use xlink:href="#DejaVuSans-6e" x="475.980469"/>
      <use xlink:href="#DejaVuSans-20" x="539.359375"/>
      <use xlink:href="#DejaVuSans-28" x="571.146484"/>
      <use xlink:href="#DejaVuSans-72" x="610.160156"/>
      <use xlink:href="#DejaVuSans-65" x="649.023438"/>
      <use xlink:href="#DejaVuSans-61" x="710.546875"/>
      <use xlink:href="#DejaVuSans-64" x="771.826172"/>
      <use xlink:href="#DejaVuSans-73" x="835.302734"/>
      <use xlink:href="#DejaVuSans-2f" x="887.402344"/>
      <use xlink:href="#DejaVuSans-6b" x="921.09375"/>
      <use xlink:href="#DejaVuSans-62" x="979.003906"/>
      <use xlink:href="#DejaVuSans-70" x="1042.480469"/>
      <use xlink:href="#DejaVuSans-29" x="1105.957031"/>
     </g>
    </g>
   </g>
   <g id="matplotlib.axis_2">
    <g id="ytick_1">
     <g id="line2d_65">
      <path d="M 43.148125 350.3511 
L 990.544459 350.3511 
" clip-path="url(#p6f7d49ec60)" style="fill: none; stroke: #dedede; stroke-linecap: square"/>
     </g>
     <g id="text_10">
      <!-- 0 -->
      <g transform="translate(31.058125 353.390475) scale(0.08 -0.08)">
       <use xlink:href="#DejaVuSans-30"/>
      </g>
     </g>
    </g>
    <g id="ytick_2">
     <g id="line2d_66">
      <path d="M 43.148125 287.3047 
L 990.544459 287.3047 
" clip-path="url(#p6f7d49ec60)" style="fill: none; stroke: #dedede; stroke-linecap: square"/>
     </g>
     <g id="text_11">
      <!-- 20 -->
      <g transform="translate(25.968125 290.344075) scale(0.08 -0.08)">
       <use xlink:href="#DejaVuSans-32"/>
       <use xlink:href="#DejaVuSans-30" x="63.623047"/>
      </g>
     </g>
    </g>
    <g id="ytick_3">
     <g id="line2d_67">
      <path d="M 43.148125 224.2583 
L 990.544459 224.2583 
" clip-path="url(#p6f7d49ec60)" style="fill: none; stroke: #dedede; stroke-linecap: square"/>
     </g>
     <g id="text_12">
      <!-- 40 -->
      <g transform="translate(25.968125 227.297675) scale(0.08 -0.08)">
       <use xlink:href="#DejaVuSans-34"/>
       <use xlink:href="#DejaVuSans-30" x="63.623047"/>
      </g>
     </g>
    </g>
    <g id="ytick_4">
     <g id="line2d_68">
      <path d="M 43.148125 161.2119 
L 990.544459 161.2119 
" clip-path="url(#p6f7d49ec60)" style="fill: none; stroke: #dedede; stroke-linecap: square"/>
     </g>
     <g id="text_13">
      <!-- 60 -->
      <g transform="translate(25.968125 164.251275) scale(0.08 -0.08)">
       <use xlink:href="#DejaVuSans-36"/>
       <use xlink:href="#DejaVuSans-30" x="63.623047"/>
      </g>
     </g>
    </g>
    <g id="ytick_5">
     <g id="line2d_69">
      <path d="M 43.148125 98.1655 
L 990.544459 98.1655 
" clip-path="url(#p6f7d49ec60)" style="fill: none; stroke: #dedede; stroke-linecap: square"/>
     </g>
     <g id="text_14">
      <!-- 80 -->
      <g transform="translate(25.968125 101.204875) scale(0.08 -0.08)">
       <defs>
        <path id="DejaVuSans-38" d="M 2034 2216 
Q 1584 2216 1326 1975 
Q 1069 1734 1069 1313 
Q 1069 891 1326 650 
Q 1584 409 2034 409 
Q 2484 409 2743 651 
Q 3003 894 3003 1313 
Q 3003 1734 2745 1975 
Q 2488 2216 2034 2216 
z
M 1403 2484 
Q 997 2584 770 2862 
Q 544 3141 544 3541 
Q 544 4100 942 4425 
Q 1341 4750 2034 4750 
Q 2731 4750 3128 4425 
Q 3525 4100 3525 3541 
Q 3525 3141 3298 2862 
Q 3072 2584 2669 2484 
Q 3125 2378 3379 2068 
Q 3634 1759 3634 1313 
Q 3634 634 3220 271 
Q 2806 -91 2034 -91 
Q 1263 -91 848 271 
Q 434 634 434 1313 
Q 434 1759 690 2068 
Q 947 2378 1403 2484 
z
M 1172 3481 
Q 1172 3119 1398 2916 
Q 1625 2713 2034 2713 
Q 2441 2713 2670 2916 
Q 2900 3119 2900 3481 
Q 2900 3844 2670 4047 
Q 2441 4250 2034 4250 
Q 1625 4250 1398 4047 
Q 1172 3844 1172 3481 
z
" transform="scale(0.015625)"/>
       </defs>
       <use xlink:href="#DejaVuSans-38"/>
       <use xlink:href="#DejaVuSans-30" x="63.623047"/>
      </g>
     </g>
    </g>
    <g id="ytick_6">
     <g id="line2d_70">
      <path d="M 43.148125 35.1191 
L 990.544459 35.1191 
" clip-path="url(#p6f7d49ec60)" style="fill: none; stroke: #dedede; stroke-linecap: square"/>
     </g>
     <g id="text_15">
      <!-- 100 -->
      <g transform="translate(20.878125 38.158475) scale(0.08 -0.08)">
       <use xlink:href="#DejaVuSans-31"/>
       <use xlink:href="#DejaVuSans-30" x="63.623047"/>
       <use xlink:href="#DejaVuSans-30" x="127.246094"/>
      </g>
     </g>
    </g>
    <g id="text_16">
     <!-- % duplicate reads -->
     <g transform="translate(14.798438 237.671819) rotate(-90) scale(0.1 -0.1)">
      <defs>
       <path id="DejaVuSans-25" d="M 4653 2053 
Q 4381 2053 4226 1822 
Q 4072 1591 4072 1178 
Q 4072 772 4226 539 
Q 4381 306 4653 306 
Q 4919 306 5073 539 
Q 5228 772 5228 1178 
Q 5228 1588 5073 1820 
Q 4919 2053 4653 2053 
z
M 4653 2450 
Q 5147 2450 5437 2106 
Q 5728 1763 5728 1178 
Q 5728 594 5436 251 
Q 5144 -91 4653 -91 
Q 4153 -91 3862 251 
Q 3572 594 3572 1178 
Q 3572 1766 3864 2108 
Q 4156 2450 4653 2450 
z
M 1428 4353 
Q 1159 4353 1004 4120 
Q 850 3888 850 3481 
Q 850 3069 1003 2837 
Q 1156 2606 1428 2606 
Q 1700 2606 1854 2837 
Q 2009 3069 2009 3481 
Q 2009 3884 1853 4118 
Q 1697 4353 1428 4353 
z
M 4250 4750 
L 4750 4750 
L 1831 -91 
L 1331 -91 
L 4250 4750 
z
M 1428 4750 
Q 1922 4750 2215 4408 
Q 2509 4066 2509 3481 
Q 2509 2891 2217 2550 
Q 1925 2209 1428 2209 
Q 931 2209 642 2551 
Q 353 2894 353 3481 
Q 353 4063 643 4406 
Q 934 4750 1428 4750 
z
" transform="scale(0.015625)"/>
       <path id="DejaVuSans-75" d="M 544 1381 
L 544 3500 
L 1119 3500 
L 1119 1403 
Q 1119 906 1312 657 
Q 1506 409 1894 409 
Q 2359 409 2629 706 
Q 2900 1003 2900 1516 
L 2900 3500 
L 3475 3500 
L 3475 0 
L 2900 0 
L 2900 538 
Q 2691 219 2414 64 
Q 2138 -91 1772 -91 
Q 1169 -91 856 284 
Q 544 659 544 1381 
z
M 1991 3584 
L 1991 3584 
z
" transform="scale(0.015625)"/>
       <path id="DejaVuSans-6c" d="M 603 4863 
L 1178 4863 
L 1178 0 
L 603 0 
L 603 4863 
z
" transform="scale(0.015625)"/>
       <path id="DejaVuSans-63" d="M 3122 3366 
L 3122 2828 
Q 2878 2963 2633 3030 
Q 2388 3097 2138 3097 
Q 1578 3097 1268 2742 
Q 959 2388 959 1747 
Q 959 1106 1268 751 
Q 1578 397 2138 397 
Q 2388 397 2633 464 
Q 2878 531 3122 666 
L 3122 134 
Q 2881 22 2623 -34 
Q 2366 -91 2075 -91 
Q 1284 -91 818 406 
Q 353 903 353 1747 
Q 353 2603 823 3093 
Q 1294 3584 2113 3584 
Q 2378 3584 2631 3529 
Q 2884 3475 3122 3366 
z
" transform="scale(0.015625)"/>
       <path id="DejaVuSans-74" d="M 1172 4494 
L 1172 3500 
L 2356 3500 
L 2356 3053 
L 1172 3053 
L 1172 1153 
Q 1172 725 1289 603 
Q 1406 481 1766 481 
L 2356 481 
L 2356 0 
L 1766 0 
Q 1100 0 847 248 
Q 594 497 594 1153 
L 594 3053 
L 172 3053 
L 172 3500 
L 594 3500 
L 594 4494 
L 1172 4494 
z
" transform="scale(0.015625)"/>
      </defs>
      <use xlink:href="#DejaVuSans-25"/>
      <use xlink:href="#DejaVuSans-20" x="95.019531"/>
      <use xlink:href="#DejaVuSans-64" x="126.806641"/>
      <use xlink:href="#DejaVuSans-75" x="190.283203"/>
      <use xlink:href="#DejaVuSans-70" x="253.662109"/>
      <use xlink:href="#DejaVuSans-6c" x="317.138672"/>
      <use xlink:href="#DejaVuSans-69" x="344.921875"/>
      <use xlink:href="#DejaVuSans-63" x="372.705078"/>
      <use xlink:href="#DejaVuSans-61" x="427.685547"/>
      <use xlink:href="#DejaVuSans-74" x="488.964844"/>
      <use xlink:href="#DejaVuSans-65" x="528.173828"/>
      <use xlink:href="#DejaVuSans-20" x="589.697266"/>
      <use xlink:href="#DejaVuSans-72" x="621.484375"/>
      <use xlink:href="#DejaVuSans-65" x="660.347656"/>
      <use xlink:href="#DejaVuSans-61" x="721.871094"/>
      <use xlink:href="#DejaVuSans-64" x="783.150391"/>
      <use xlink:href="#DejaVuSans-73" x="846.626953"/>
     </g>
    </g>
   </g>
   <g id="line2d_71">
    <path d="M 122.66079 333.364139 
L 148.580786 329.974021 
L 165.412088 327.445499 
L 182.738379 324.543214 
L 197.298264 321.849379 
L 209.785706 319.339959 
L 224.190373 316.202435 
L 237.158193 313.142686 
L 249.690127 309.962948 
L 261.993163 306.618651 
L 274.267909 303.053583 
L 286.369341 299.307931 
L 298.577814 295.290281 
L 310.539434 291.11606 
L 322.586223 286.670518 
L 334.389504 282.077676 
L 346.392552 277.16612 
L 358.628823 271.910824 
L 371.053777 266.322292 
L 383.617444 260.420197 
L 396.482053 254.125767 
L 409.819451 247.347237 
L 423.632559 240.076728 
L 438.355759 232.076442 
L 454.685668 222.94497 
L 473.624553 212.088879 
L 499.0393 197.241701 
L 544.645595 170.573796 
L 563.72573 159.703442 
L 580.009383 150.675076 
L 594.950749 142.642829 
L 608.814177 135.439204 
L 622.149517 128.760372 
L 634.852687 122.643615 
L 647.361132 116.867109 
L 659.582574 111.468052 
L 671.557408 106.41831 
L 683.307303 101.697694 
L 695.106373 97.191776 
L 706.866118 92.933773 
L 718.899327 88.81484 
L 730.711996 85.001623 
L 743.008367 81.268918 
L 755.499975 77.716938 
L 768.208277 74.342873 
L 781.440863 71.075889 
L 794.90815 67.996944 
L 809.283606 64.969673 
L 818.740914 63.116534 
L 834.758149 60.213847 
L 848.030811 58.019663 
L 859.974343 56.197743 
L 875.447336 54.037393 
L 893.425745 51.78808 
L 893.425745 51.78808 
" clip-path="url(#p6f7d49ec60)" style="fill: none; stroke: #7cb5ec; stroke-linecap: square"/>
   </g>
   <g id="line2d_72">
    <path d="M 86.211595 327.841913 
L 148.118078 317.64717 
L 166.809032 313.84632 
L 181.958326 310.489305 
L 197.050027 306.885995 
L 211.212106 303.259518 
L 224.490835 299.636073 
L 238.14816 295.677604 
L 251.541554 291.562375 
L 265.10711 287.155 
L 278.679548 282.502201 
L 292.252907 277.605376 
L 305.546676 272.574678 
L 319.322082 267.120435 
L 333.286642 261.347135 
L 347.29277 255.319145 
L 361.883556 248.799955 
L 377.215835 241.704944 
L 393.65584 233.846228 
L 411.528442 225.048001 
L 431.701198 214.861634 
L 457.471274 201.58122 
L 523.386799 167.488325 
L 543.691886 157.311553 
L 561.44928 148.656529 
L 577.847257 140.910958 
L 593.099323 133.949156 
L 607.881488 127.446532 
L 622.002084 121.475352 
L 635.856458 115.856252 
L 649.471469 110.573118 
L 662.897543 105.600172 
L 676.155212 100.923025 
L 689.576697 96.424975 
L 702.80904 92.222484 
L 716.210819 88.198363 
L 729.446017 84.449461 
L 742.226696 81.036759 
L 755.723213 77.647928 
L 769.779452 74.345464 
L 784.121973 71.204967 
L 798.345088 68.309107 
L 815.719868 65.051364 
L 833.849206 61.96014 
L 850.60609 59.363415 
L 864.030446 57.451438 
L 880.895313 55.246995 
L 900.278426 52.964504 
L 900.278426 52.964504 
" clip-path="url(#p6f7d49ec60)" style="fill: none; stroke: #434348; stroke-linecap: square"/>
   </g>
   <g id="line2d_73">
    <path d="M 118.198156 333.688884 
L 142.399985 330.59103 
L 161.21706 327.8193 
L 176.393361 325.326876 
L 190.565537 322.774406 
L 204.97644 319.939814 
L 218.522241 317.040971 
L 231.288627 314.088596 
L 243.959266 310.935847 
L 256.399975 307.614592 
L 268.942625 304.030338 
L 281.401844 300.227103 
L 293.541651 296.281571 
L 305.256755 292.244363 
L 316.622356 288.10834 
L 328.732206 283.461408 
L 340.41779 278.741689 
L 352.165803 273.764553 
L 364.435619 268.3211 
L 376.490766 262.734536 
L 389.156779 256.619411 
L 402.116424 250.115131 
L 415.886354 242.948916 
L 430.406732 235.134077 
L 446.158316 226.396179 
L 464.048994 216.20501 
L 486.219549 203.301555 
L 551.176322 165.324874 
L 568.776834 155.395828 
L 584.390864 146.840041 
L 598.849556 139.171155 
L 612.422174 132.223235 
L 625.337013 125.858074 
L 637.895085 119.913512 
L 650.070806 114.390677 
L 662.136472 109.158656 
L 674.140625 104.195705 
L 686.027763 99.52148 
L 697.836477 95.114971 
L 709.689348 90.927698 
L 721.667105 86.932852 
L 733.494403 83.216829 
L 745.3531 79.7132 
L 757.127268 76.448015 
L 769.164565 73.322003 
L 782.307143 70.143869 
L 791.273959 68.11041 
L 804.543777 65.292602 
L 819.636389 62.350969 
L 836.912524 59.304344 
L 847.650148 57.57149 
L 860.399079 55.663204 
L 867.457674 54.672613 
L 890.774129 51.709067 
L 927.230071 47.911662 
L 927.230071 47.911662 
" clip-path="url(#p6f7d49ec60)" style="fill: none; stroke: #90ed7d; stroke-linecap: square"/>
   </g>
   <g id="line2d_74">
    <path d="M 121.915008 326.265144 
L 158.574693 320.020612 
L 173.506682 317.085475 
L 188.877903 313.80512 
L 203.046224 310.53606 
L 216.919331 307.095899 
L 230.537652 303.479143 
L 243.91531 299.686828 
L 256.549494 295.881077 
L 269.746441 291.66798 
L 282.587894 287.331326 
L 294.981743 282.921998 
L 308.130125 278.003351 
L 321.195348 272.871578 
L 334.147914 267.547293 
L 347.511184 261.813316 
L 361.318007 255.64167 
L 375.785262 248.919404 
L 390.444683 241.860489 
L 406.251302 233.997591 
L 423.123299 225.35539 
L 442.488391 215.180668 
L 467.156353 201.949482 
L 532.107643 166.978268 
L 551.629003 156.803912 
L 568.757257 148.12665 
L 584.345825 140.475398 
L 598.98282 133.533793 
L 613.180173 127.046485 
L 626.887388 121.02836 
L 640.150022 115.44576 
L 653.32112 110.143301 
L 666.227622 105.185753 
L 678.955981 100.530184 
L 691.823761 96.059837 
L 704.565415 91.866019 
L 717.263231 87.914161 
L 730.161859 84.128062 
L 743.383619 80.48006 
L 756.740265 77.027089 
L 770.000909 73.821709 
L 782.972782 70.89242 
L 798.150066 67.712286 
L 814.586654 64.552839 
L 826.175296 62.493181 
L 841.375542 59.989635 
L 862.794753 56.816571 
L 876.968616 54.927376 
L 885.40985 53.876317 
L 904.614517 51.676759 
L 942.69046 48.017172 
L 942.69046 48.017172 
" clip-path="url(#p6f7d49ec60)" style="fill: none; stroke: #f7a35c; stroke-linecap: square"/>
   </g>
   <g id="line2d_75">
    <path d="M 86.211595 343.020919 
L 142.399985 338.739946 
L 166.691162 336.21787 
L 182.542255 334.298925 
L 198.642788 332.099051 
L 213.165931 329.874821 
L 226.728484 327.572321 
L 239.779988 325.133344 
L 251.950764 322.646439 
L 264.116677 319.941126 
L 276.013238 317.069978 
L 287.774146 313.999201 
L 299.2595 310.765478 
L 310.404361 307.395189 
L 321.359757 303.849821 
L 332.329418 300.060792 
L 343.175428 296.07232 
L 353.7658 291.940075 
L 364.304483 287.590847 
L 374.803556 283.020397 
L 385.375095 278.178199 
L 396.129816 273.006135 
L 407.104055 267.476567 
L 418.128601 261.671958 
L 429.477218 255.445298 
L 441.364449 248.664347 
L 453.970018 241.205995 
L 467.08876 233.181438 
L 481.504545 224.098778 
L 498.022382 213.42225 
L 519.892707 199.000224 
L 564.868692 169.280268 
L 581.61609 158.52456 
L 596.168018 149.439034 
L 609.438706 141.414495 
L 621.802542 134.195866 
L 633.650237 127.535439 
L 645.026976 121.393278 
L 656.178363 115.625948 
L 667.100916 110.22825 
L 677.669226 105.247377 
L 688.191146 100.527148 
L 698.889307 95.972618 
L 709.480182 91.705456 
L 720.129871 87.65397 
L 730.992786 83.763886 
L 741.453342 80.243588 
L 752.011756 76.908151 
L 763.135505 73.622488 
L 774.358251 70.535415 
L 784.569721 67.916565 
L 793.431539 65.78407 
L 805.56387 63.065512 
L 814.110865 61.282929 
L 826.974699 58.794552 
L 840.701691 56.380494 
L 855.217551 54.077561 
L 866.476084 52.454395 
L 874.088805 51.431982 
L 887.086313 49.817007 
L 914.678243 46.878901 
L 914.678243 46.878901 
" clip-path="url(#p6f7d49ec60)" style="fill: none; stroke: #8085e9; stroke-linecap: square"/>
   </g>
   <g id="line2d_76">
    <path d="M 136.992142 321.957974 
L 159.755875 317.691813 
L 176.575302 314.18438 
L 191.81794 310.72695 
L 205.906308 307.283375 
L 219.007586 303.858279 
L 232.761303 300.023413 
L 245.992392 296.096276 
L 258.99296 292.004933 
L 272.054436 287.658331 
L 284.807093 283.183914 
L 297.61343 278.460758 
L 310.368874 273.528488 
L 323.845796 268.073541 
L 337.503508 262.296108 
L 351.107214 256.301083 
L 365.55149 249.686376 
L 380.247839 242.710988 
L 396.16524 234.903428 
L 412.948479 226.423407 
L 432.368715 216.352896 
L 456.071648 203.797356 
L 529.299498 164.826477 
L 548.273661 155.090954 
L 564.991072 146.756013 
L 580.649909 139.194748 
L 595.407944 132.313935 
L 609.551006 125.963382 
L 623.217572 120.067635 
L 636.610133 114.530055 
L 649.732039 109.341778 
L 662.859181 104.390973 
L 675.900204 99.712037 
L 688.987043 95.256666 
L 701.956469 91.076822 
L 714.785935 87.169657 
L 727.808391 83.430644 
L 741.154177 79.829983 
L 754.006946 76.576814 
L 766.852121 73.528484 
L 781.692398 70.248983 
L 794.583864 67.601528 
L 804.914101 65.609046 
L 820.419737 62.823106 
L 834.1664 60.547769 
L 853.409475 57.648732 
L 868.077104 55.647198 
L 881.827157 53.92227 
L 894.285689 52.477467 
L 908.424113 50.964692 
L 908.424113 50.964692 
" clip-path="url(#p6f7d49ec60)" style="fill: none; stroke: #f15c80; stroke-linecap: square"/>
   </g>
   <g id="line2d_77">
    <path d="M 121.915008 345.017151 
L 145.782026 343.691202 
L 169.645732 342.044729 
L 187.546895 340.555887 
L 204.239022 338.937001 
L 220.029047 337.170646 
L 234.164083 335.370133 
L 247.744942 333.421892 
L 260.314926 331.407794 
L 272.764076 329.193714 
L 284.944057 326.797157 
L 296.436184 324.309557 
L 307.539127 321.681462 
L 318.575791 318.834893 
L 328.89654 315.948424 
L 339.145446 312.855062 
L 349.277554 309.563334 
L 359.220796 306.096913 
L 369.052689 302.430297 
L 378.739303 298.577631 
L 388.109353 294.617808 
L 397.833278 290.260994 
L 407.464575 285.693666 
L 416.694543 281.079611 
L 426.581678 275.879855 
L 436.476786 270.412124 
L 446.468431 264.628671 
L 456.604697 258.500749 
L 467.04279 251.928633 
L 477.901955 244.827733 
L 489.57031 236.924703 
L 501.886103 228.314115 
L 515.886917 218.249282 
L 532.989891 205.666642 
L 592.017237 161.987692 
L 605.698009 152.290268 
L 617.898632 143.9076 
L 629.386968 136.283138 
L 640.010705 129.491312 
L 650.385022 123.118279 
L 660.508293 117.160413 
L 670.394331 111.600604 
L 680.181384 106.354296 
L 689.614248 101.543902 
L 698.867146 97.060878 
L 708.13113 92.805305 
L 718.040652 88.508174 
L 727.690406 84.572415 
L 737.031364 80.990738 
L 746.519181 77.575793 
L 756.545019 74.203027 
L 766.6116 71.050588 
L 776.173335 68.263737 
L 783.239423 66.328499 
L 793.606034 63.67141 
L 801.591887 61.765267 
L 812.672365 59.311761 
L 826.375397 56.564624 
L 841.367466 53.892127 
L 855.641681 51.640297 
L 872.236771 49.343435 
L 896.548791 46.520864 
L 896.548791 46.520864 
" clip-path="url(#p6f7d49ec60)" style="fill: none; stroke: #e4d354; stroke-linecap: square"/>
   </g>
   <g id="line2d_78">
    <path d="M 120.022403 314.568073 
L 151.413829 307.905233 
L 170.568309 303.344582 
L 186.460205 299.260327 
L 200.311496 295.471163 
L 215.356387 291.107949 
L 229.298829 286.830798 
L 243.303832 282.306186 
L 257.780696 277.388353 
L 272.037579 272.307649 
L 286.519831 266.909065 
L 301.434929 261.105454 
L 316.34274 255.067134 
L 331.713699 248.605819 
L 347.987614 241.523243 
L 365.364684 233.713043 
L 383.909053 225.13431 
L 405.072624 215.096139 
L 432.111464 202.008147 
L 504.222661 166.970683 
L 525.486154 156.967653 
L 544.136618 148.434198 
L 561.442985 140.759008 
L 577.700215 133.79175 
L 593.174245 127.39941 
L 608.201116 121.430365 
L 622.843933 115.850969 
L 637.251421 110.597293 
L 651.441452 105.656664 
L 665.519248 100.986937 
L 679.627979 96.539247 
L 693.638671 92.351494 
L 707.907193 88.318522 
L 721.879211 84.592057 
L 736.234776 80.987428 
L 750.921802 77.527864 
L 764.860549 74.450928 
L 780.086793 71.310551 
L 795.100848 68.429898 
L 811.247207 65.559486 
L 827.269556 62.931553 
L 841.984137 60.700456 
L 861.799194 57.953855 
L 878.474694 55.855835 
L 889.268791 54.594783 
L 907.412299 52.635359 
L 907.412299 52.635359 
" clip-path="url(#p6f7d49ec60)" style="fill: none; stroke: #2b908f; stroke-linecap: square"/>
   </g>
   <g id="line2d_79">
    <path d="M 121.915008 322.744831 
L 152.393068 317.206875 
L 170.561257 313.456756 
L 185.89684 310.009955 
L 200.173486 306.557795 
L 214.319549 302.896199 
L 228.218521 299.056853 
L 241.890579 295.039837 
L 254.855688 291.005582 
L 268.174612 286.629786 
L 281.491447 282.018247 
L 294.863467 277.149495 
L 308.334324 272.005254 
L 322.107038 266.501325 
L 335.771861 260.802889 
L 350.191671 254.543166 
L 364.795177 247.959967 
L 380.37591 240.686206 
L 396.503736 232.912767 
L 414.42154 224.02631 
L 434.857357 213.63549 
L 461.138824 200.008694 
L 520.949205 168.916353 
L 541.668664 158.452564 
L 559.583086 149.650594 
L 576.004122 141.828229 
L 591.38695 134.745062 
L 606.153669 128.190783 
L 620.382984 122.118628 
L 634.284257 116.429159 
L 647.786526 111.140731 
L 661.257539 106.103313 
L 674.626883 101.342619 
L 687.952958 96.834803 
L 700.911751 92.677639 
L 714.076283 88.680538 
L 727.70911 84.777221 
L 741.339555 81.108988 
L 754.60848 77.756696 
L 768.507813 74.468612 
L 782.514255 71.377532 
L 797.911095 68.225489 
L 812.70575 65.427101 
L 831.590907 62.163247 
L 847.844509 59.612772 
L 861.420717 57.653284 
L 877.19178 55.559185 
L 887.600738 54.277788 
L 913.957453 51.361758 
L 913.957453 51.361758 
" clip-path="url(#p6f7d49ec60)" style="fill: none; stroke: #f45b5b; stroke-linecap: square"/>
   </g>
   <g id="line2d_80">
    <path d="M 116.127812 328.593595 
L 145.547202 324.006422 
L 164.589241 320.584867 
L 181.459295 317.226498 
L 195.310863 314.223236 
L 209.382104 310.932383 
L 222.597484 307.610952 
L 235.44022 304.160123 
L 248.620022 300.381993 
L 261.167679 296.555648 
L 273.690328 292.508516 
L 286.319276 288.191933 
L 298.620156 283.758077 
L 310.769517 279.155793 
L 323.603541 274.054359 
L 336.604257 268.638679 
L 349.335833 263.098737 
L 362.861127 256.966088 
L 376.66037 250.459489 
L 390.80443 243.546135 
L 405.730397 236.006778 
L 422.126897 227.471848 
L 440.537976 217.628976 
L 462.927686 205.392867 
L 540.603882 162.706819 
L 558.480352 153.276604 
L 574.601045 145.021411 
L 589.43516 137.670215 
L 603.630577 130.881565 
L 617.257693 124.609866 
L 630.53871 118.742269 
L 643.36025 113.316444 
L 656.12871 108.15265 
L 668.789604 103.272297 
L 681.435753 98.637808 
L 694.123809 94.22889 
L 706.842412 90.049452 
L 719.381855 86.160616 
L 731.911387 82.499791 
L 745.019701 78.904047 
L 758.40193 75.472119 
L 770.699224 72.52337 
L 784.25996 69.489679 
L 797.021524 66.834174 
L 812.154633 63.922637 
L 825.354886 61.581664 
L 839.172815 59.317509 
L 853.519116 57.155899 
L 872.383977 54.585071 
L 890.121681 52.425891 
L 907.111118 50.570964 
L 946.728827 46.952064 
L 946.728827 46.952064 
" clip-path="url(#p6f7d49ec60)" style="fill: none; stroke: #91e8e1; stroke-linecap: square"/>
   </g>
   <g id="line2d_81">
    <path d="M 107.754274 331.354568 
L 152.123703 324.886642 
L 168.596658 322.010483 
L 185.395968 318.779004 
L 200.085853 315.68905 
L 213.937587 312.535749 
L 227.4043 309.23558 
L 240.255231 305.861131 
L 253.180737 302.236733 
L 265.567734 298.53955 
L 278.546182 294.424572 
L 290.697594 290.343456 
L 303.212179 285.90626 
L 315.512885 281.311752 
L 328.156357 276.348399 
L 340.695834 271.186816 
L 353.50648 265.672202 
L 366.337847 259.911105 
L 380.018111 253.518008 
L 393.966075 246.748817 
L 408.515352 239.439271 
L 424.266681 231.270769 
L 441.513607 222.068748 
L 461.495107 211.146974 
L 489.313406 195.661766 
L 533.02234 171.332166 
L 553.412193 160.259032 
L 570.667635 151.138097 
L 586.32625 143.110769 
L 600.872844 135.900055 
L 614.772161 129.256035 
L 628.082317 123.135996 
L 641.171608 117.361313 
L 653.977186 111.954593 
L 666.476901 106.914336 
L 678.910083 102.136728 
L 691.325376 97.601817 
L 703.749836 93.298752 
L 716.415018 89.152006 
L 728.955401 85.280559 
L 742.12355 81.46059 
L 754.968921 77.969395 
L 767.719051 74.725913 
L 780.97376 71.579274 
L 795.407497 68.402125 
L 809.723683 65.494596 
L 822.687772 63.059661 
L 835.401028 60.84437 
L 853.802072 57.920926 
L 870.925417 55.478667 
L 877.563848 54.599031 
L 892.012656 52.805871 
L 919.532155 49.812366 
L 919.532155 49.812366 
" clip-path="url(#p6f7d49ec60)" style="fill: none; stroke: #7cb5ec; stroke-linecap: square"/>
   </g>
   <g id="line2d_82">
    <path d="M 118.198156 305.980728 
L 142.727548 300.233117 
L 159.238248 296.033975 
L 174.807143 291.82363 
L 190.993608 287.18373 
L 206.173086 282.586918 
L 221.382296 277.742231 
L 236.774272 272.597415 
L 251.694627 267.381459 
L 267.66115 261.556676 
L 283.611634 255.496197 
L 300.143188 248.973587 
L 317.383973 241.928088 
L 335.101295 234.453949 
L 355.124078 225.759388 
L 377.382583 215.843506 
L 405.160083 203.211106 
L 487.199683 165.736423 
L 509.347154 155.963959 
L 528.924561 147.564983 
L 546.855168 140.108851 
L 563.907382 133.255079 
L 580.280652 126.911702 
L 596.181413 120.9888 
L 611.78302 115.415418 
L 627.035324 110.202168 
L 642.064548 105.297436 
L 657.097581 100.62455 
L 672.058337 96.206061 
L 687.025713 92.015901 
L 702.240096 87.989786 
L 717.512329 84.180448 
L 732.548582 80.651657 
L 747.860799 77.277527 
L 762.726821 74.206417 
L 779.394209 70.993541 
L 796.589161 67.922635 
L 811.705589 65.417215 
L 830.879795 62.486131 
L 848.232377 60.057256 
L 867.035907 57.649029 
L 878.18468 56.324359 
L 900.332312 53.904844 
L 900.332312 53.904844 
" clip-path="url(#p6f7d49ec60)" style="fill: none; stroke: #434348; stroke-linecap: square"/>
   </g>
   <g id="line2d_83">
    <path d="M 134.34915 296.320239 
L 149.923484 292.260753 
L 166.157586 287.782137 
L 185.801963 282.021732 
L 201.828643 277.044997 
L 217.319776 271.999591 
L 233.898135 266.348513 
L 250.150915 260.562869 
L 266.801365 254.393751 
L 283.844277 247.839687 
L 301.644134 240.75514 
L 320.770326 232.897644 
L 341.479035 224.143781 
L 365.102237 213.908882 
L 395.749525 200.368015 
L 467.122818 168.741182 
L 491.019836 158.455437 
L 511.631275 149.820063 
L 530.633386 142.096756 
L 548.399583 135.112172 
L 565.387945 128.668627 
L 581.973246 122.61585 
L 598.019685 116.995014 
L 613.766683 111.712158 
L 629.449497 106.685743 
L 644.905662 101.964392 
L 660.351958 97.477599 
L 675.776552 93.22734 
L 691.305453 89.178378 
L 707.064832 85.301383 
L 722.757701 81.667822 
L 738.89924 78.160121 
L 754.54259 74.975656 
L 770.622448 71.914545 
L 786.467186 69.099867 
L 804.715252 66.094406 
L 823.766257 63.211652 
L 842.573236 60.605481 
L 864.903634 57.798498 
L 885.522106 55.462688 
L 899.625202 53.996064 
L 899.625202 53.996064 
" clip-path="url(#p6f7d49ec60)" style="fill: none; stroke: #90ed7d; stroke-linecap: square"/>
   </g>
   <g id="line2d_84">
    <path d="M 116.127812 318.71736 
L 151.306974 311.691741 
L 169.112354 307.648088 
L 184.519433 303.866462 
L 199.303798 299.981324 
L 213.335515 296.054659 
L 227.192153 291.942909 
L 240.886579 287.646952 
L 254.064884 283.292684 
L 267.614724 278.589815 
L 281.817938 273.415574 
L 295.978082 268.011257 
L 310.315689 262.295264 
L 324.810116 256.276264 
L 340.052706 249.69902 
L 355.826631 242.64385 
L 372.189733 235.082978 
L 390.272268 226.477693 
L 410.707562 216.495346 
L 435.68045 204.034652 
L 514.21146 164.659497 
L 534.268921 154.966617 
L 552.049426 146.617817 
L 568.525442 139.125051 
L 583.92682 132.359527 
L 598.990126 125.985248 
L 613.496817 120.087783 
L 627.581937 114.598387 
L 641.520243 109.402763 
L 655.119025 104.564752 
L 668.978381 99.871007 
L 682.558199 95.504163 
L 696.227541 91.339155 
L 710.012834 87.37006 
L 724.070574 83.557015 
L 737.917614 80.026789 
L 751.361347 76.807231 
L 765.170388 73.706058 
L 780.451178 70.507823 
L 793.80728 67.904489 
L 809.04901 65.141742 
L 822.471062 62.883267 
L 834.628268 60.97129 
L 856.552821 57.824023 
L 867.210057 56.425202 
L 877.923288 55.099949 
L 901.310037 52.469808 
L 901.310037 52.469808 
" clip-path="url(#p6f7d49ec60)" style="fill: none; stroke: #f7a35c; stroke-linecap: square"/>
   </g>
   <g id="line2d_85">
    <path d="M 122.66079 302.268136 
L 156.773913 293.771597 
L 175.006613 288.769514 
L 189.617742 284.524501 
L 205.460097 279.682751 
L 220.696562 274.792237 
L 236.528364 269.470429 
L 252.242602 263.951144 
L 268.292025 258.078298 
L 284.871925 251.772497 
L 302.034926 245.005214 
L 319.994766 237.684623 
L 339.453656 229.50863 
L 360.466597 220.439789 
L 385.910458 209.205657 
L 423.272105 192.431562 
L 468.931481 171.979557 
L 493.973212 161.013991 
L 515.040783 152.025647 
L 533.973746 144.181225 
L 551.917826 136.983279 
L 569.003293 130.367651 
L 585.493656 124.220009 
L 601.53504 118.476387 
L 617.292093 113.070882 
L 632.698755 108.018085 
L 647.995769 103.232304 
L 663.379472 98.653156 
L 678.829287 94.289952 
L 694.041086 90.222717 
L 709.597038 86.294681 
L 725.322911 82.556383 
L 741.040278 79.047574 
L 756.454085 75.820396 
L 772.149299 72.744032 
L 787.179938 69.988419 
L 804.826181 66.980273 
L 823.679269 64.023052 
L 831.295804 62.899924 
L 854.808618 59.677651 
L 872.033334 57.538174 
L 897.401734 54.699284 
L 911.610401 53.259453 
L 911.610401 53.259453 
" clip-path="url(#p6f7d49ec60)" style="fill: none; stroke: #8085e9; stroke-linecap: square"/>
   </g>
   <g id="line2d_86">
    <path d="M 131.043376 341.0519 
L 155.806501 338.926221 
L 174.807143 336.985374 
L 190.753032 335.116964 
L 205.543468 333.164469 
L 220.195117 330.999568 
L 234.01885 328.725654 
L 247.289454 326.312128 
L 260.073853 323.75567 
L 272.051064 321.139193 
L 283.865479 318.334166 
L 295.447623 315.354961 
L 306.822206 312.195814 
L 317.766488 308.92703 
L 328.528483 305.483938 
L 339.280002 301.809102 
L 349.595653 298.055296 
L 360.120066 293.989462 
L 370.537822 289.725362 
L 380.597336 285.378789 
L 391.227777 280.539367 
L 401.816428 275.467881 
L 412.519187 270.089714 
L 422.818044 264.680065 
L 433.882392 258.620168 
L 445.181582 252.17829 
L 457.163756 245.085078 
L 469.704993 237.397203 
L 483.114864 228.914215 
L 498.294198 219.040386 
L 516.509072 206.91253 
L 549.268367 184.768262 
L 572.814205 168.994724 
L 589.311837 158.206852 
L 603.413305 149.243574 
L 616.340061 141.284503 
L 628.490694 134.060954 
L 640.008229 127.467529 
L 651.272268 121.275083 
L 662.249915 115.495719 
L 672.981723 110.098026 
L 683.378552 105.111677 
L 693.703736 100.398746 
L 704.135236 95.879643 
L 714.733582 91.536233 
L 725.190109 87.492682 
L 736.064522 83.537185 
L 746.135559 80.095204 
L 756.280641 76.836589 
L 767.135999 73.573699 
L 778.53395 70.386633 
L 789.825733 67.459343 
L 800.00002 65.008158 
L 813.570559 61.998173 
L 824.113859 59.852229 
L 840.327327 56.856809 
L 856.983703 54.132207 
L 872.393925 51.899124 
L 882.337367 50.592087 
L 898.779942 48.640354 
L 922.267163 46.255996 
L 922.267163 46.255996 
" clip-path="url(#p6f7d49ec60)" style="fill: none; stroke: #f15c80; stroke-linecap: square"/>
   </g>
   <g id="line2d_87">
    <path d="M 86.957376 232.505621 
L 170.223906 204.453993 
L 281.031215 166.259796 
L 310.020377 156.596317 
L 335.78431 148.23973 
L 359.46314 140.79068 
L 381.920336 133.957928 
L 403.459537 127.636604 
L 424.120022 121.801139 
L 444.530755 116.266024 
L 464.570146 111.061321 
L 484.332619 106.156342 
L 503.963276 101.510738 
L 523.703135 97.067891 
L 543.457978 92.850261 
L 563.35322 88.831287 
L 583.409926 85.007981 
L 603.557072 81.392919 
L 624.116002 77.930324 
L 644.946632 74.647313 
L 666.211724 71.520693 
L 687.85428 68.561599 
L 709.83032 65.775886 
L 732.829757 63.083991 
L 755.767277 60.613685 
L 779.987153 58.222712 
L 805.766109 55.906029 
L 829.747834 53.94646 
L 855.086318 52.064831 
L 881.532835 50.290936 
L 908.188784 48.682303 
L 920.388206 48.001633 
L 947.480989 46.605104 
L 947.480989 46.605104 
" clip-path="url(#p6f7d49ec60)" style="fill: none; stroke: #e4d354; stroke-linecap: square"/>
   </g>
   <g id="line2d_88">
    <path d="M 120.571162 342.078339 
L 159.283545 338.960849 
L 177.422222 337.136076 
L 193.24374 335.319003 
L 208.594101 333.330998 
L 223.0448 331.235117 
L 236.859341 329.007868 
L 250.250194 326.621357 
L 262.98335 324.127037 
L 275.388877 321.469927 
L 287.329952 318.686145 
L 299.066862 315.720227 
L 310.439872 312.616736 
L 321.47699 309.378009 
L 332.484894 305.915334 
L 343.449222 302.226538 
L 354.141616 298.391063 
L 364.606732 294.403246 
L 375.036615 290.193944 
L 385.640369 285.670696 
L 396.117913 280.958186 
L 406.634422 275.98534 
L 417.386655 270.651889 
L 428.338429 264.965501 
L 439.253705 259.050882 
L 450.825036 252.523355 
L 462.656097 245.592339 
L 475.250799 237.952741 
L 488.461996 229.683241 
L 503.72679 219.856061 
L 521.600728 208.072434 
L 550.674754 188.590547 
L 577.661215 170.607573 
L 594.711509 159.511898 
L 609.21038 150.335722 
L 622.406095 142.243464 
L 634.823833 134.889033 
L 646.54589 128.203146 
L 657.951543 121.954673 
L 668.900602 116.207181 
L 679.700772 110.787154 
L 690.163665 105.777814 
L 700.353794 101.130151 
L 711.108008 96.473258 
L 721.385899 92.259531 
L 731.99247 88.150903 
L 742.712383 84.241351 
L 753.154186 80.662346 
L 763.016078 77.48372 
L 773.455588 74.325204 
L 784.337579 71.250051 
L 796.295992 68.114971 
L 808.032663 65.274089 
L 820.073778 62.588791 
L 835.675744 59.431778 
L 848.020744 57.173201 
L 862.297042 54.803988 
L 869.680173 53.673949 
L 886.242602 51.356672 
L 918.502598 47.607425 
L 918.502598 47.607425 
" clip-path="url(#p6f7d49ec60)" style="fill: none; stroke: #2b908f; stroke-linecap: square"/>
   </g>
   <g id="line2d_89">
    <path d="M 43.148125 350.3511 
L 990.544459 350.3511 
" clip-path="url(#p6f7d49ec60)" style="fill: none; stroke: #dedede; stroke-width: 2; stroke-linecap: square"/>
   </g>
   <g id="text_17">
    <!-- DupRadar General Linear Model -->
    <g transform="translate(388.946292 19.3575) scale(0.16 -0.16)">
     <defs>
      <path id="DejaVuSans-44" d="M 1259 4147 
L 1259 519 
L 2022 519 
Q 2988 519 3436 956 
Q 3884 1394 3884 2338 
Q 3884 3275 3436 3711 
Q 2988 4147 2022 4147 
L 1259 4147 
z
M 628 4666 
L 1925 4666 
Q 3281 4666 3915 4102 
Q 4550 3538 4550 2338 
Q 4550 1131 3912 565 
Q 3275 0 1925 0 
L 628 0 
L 628 4666 
z
" transform="scale(0.015625)"/>
      <path id="DejaVuSans-52" d="M 2841 2188 
Q 3044 2119 3236 1894 
Q 3428 1669 3622 1275 
L 4263 0 
L 3584 0 
L 2988 1197 
Q 2756 1666 2539 1819 
Q 2322 1972 1947 1972 
L 1259 1972 
L 1259 0 
L 628 0 
L 628 4666 
L 2053 4666 
Q 2853 4666 3247 4331 
Q 3641 3997 3641 3322 
Q 3641 2881 3436 2590 
Q 3231 2300 2841 2188 
z
M 1259 4147 
L 1259 2491 
L 2053 2491 
Q 2509 2491 2742 2702 
Q 2975 2913 2975 3322 
Q 2975 3731 2742 3939 
Q 2509 4147 2053 4147 
L 1259 4147 
z
" transform="scale(0.015625)"/>
      <path id="DejaVuSans-47" d="M 3809 666 
L 3809 1919 
L 2778 1919 
L 2778 2438 
L 4434 2438 
L 4434 434 
Q 4069 175 3628 42 
Q 3188 -91 2688 -91 
Q 1594 -91 976 548 
Q 359 1188 359 2328 
Q 359 3472 976 4111 
Q 1594 4750 2688 4750 
Q 3144 4750 3555 4637 
Q 3966 4525 4313 4306 
L 4313 3634 
Q 3963 3931 3569 4081 
Q 3175 4231 2741 4231 
Q 1884 4231 1454 3753 
Q 1025 3275 1025 2328 
Q 1025 1384 1454 906 
Q 1884 428 2741 428 
Q 3075 428 3337 486 
Q 3600 544 3809 666 
z
" transform="scale(0.015625)"/>
      <path id="DejaVuSans-4c" d="M 628 4666 
L 1259 4666 
L 1259 531 
L 3531 531 
L 3531 0 
L 628 0 
L 628 4666 
z
" transform="scale(0.015625)"/>
      <path id="DejaVuSans-4d" d="M 628 4666 
L 1569 4666 
L 2759 1491 
L 3956 4666 
L 4897 4666 
L 4897 0 
L 4281 0 
L 4281 4097 
L 3078 897 
L 2444 897 
L 1241 4097 
L 1241 0 
L 628 0 
L 628 4666 
z
" transform="scale(0.015625)"/>
     </defs>
     <use xlink:href="#DejaVuSans-44"/>
     <use xlink:href="#DejaVuSans-75" x="77.001953"/>
     <use xlink:href="#DejaVuSans-70" x="140.380859"/>
     <use xlink:href="#DejaVuSans-52" x="203.857422"/>
     <use xlink:href="#DejaVuSans-61" x="271.089844"/>
     <use xlink:href="#DejaVuSans-64" x="332.369141"/>
     <use xlink:href="#DejaVuSans-61" x="395.845703"/>
     <use xlink:href="#DejaVuSans-72" x="457.125"/>
     <use xlink:href="#DejaVuSans-20" x="498.238281"/>
     <use xlink:href="#DejaVuSans-47" x="530.025391"/>
     <use xlink:href="#DejaVuSans-65" x="607.515625"/>
     <use xlink:href="#DejaVuSans-6e" x="669.039062"/>
     <use xlink:href="#DejaVuSans-65" x="732.417969"/>
     <use xlink:href="#DejaVuSans-72" x="793.941406"/>
     <use xlink:href="#DejaVuSans-61" x="835.054688"/>
     <use xlink:href="#DejaVuSans-6c" x="896.333984"/>
     <use xlink:href="#DejaVuSans-20" x="924.117188"/>
     <use xlink:href="#DejaVuSans-4c" x="955.904297"/>
     <use xlink:href="#DejaVuSans-69" x="1011.617188"/>
     <use xlink:href="#DejaVuSans-6e" x="1039.400391"/>
     <use xlink:href="#DejaVuSans-65" x="1102.779297"/>
     <use xlink:href="#DejaVuSans-61" x="1164.302734"/>
     <use xlink:href="#DejaVuSans-72" x="1225.582031"/>
     <use xlink:href="#DejaVuSans-20" x="1266.695312"/>
     <use xlink:href="#DejaVuSans-4d" x="1298.482422"/>
     <use xlink:href="#DejaVuSans-6f" x="1384.761719"/>
     <use xlink:href="#DejaVuSans-64" x="1445.943359"/>
     <use xlink:href="#DejaVuSans-65" x="1509.419922"/>
     <use xlink:href="#DejaVuSans-6c" x="1570.943359"/>
    </g>
   </g>
  </g>
 </g>
 <defs>
  <clipPath id="p6f7d49ec60">
   <rect x="43.148125" y="35.1191" width="947.396334" height="315.232"/>
  </clipPath>
 </defs>
</svg>
