<?xml version="1.0" encoding="utf-8" standalone="no"?>
<!DOCTYPE svg PUBLIC "-//W3C//DTD SVG 1.1//EN"
  "http://www.w3.org/Graphics/SVG/1.1/DTD/svg11.dtd">
<svg xmlns:xlink="http://www.w3.org/1999/xlink" width="1000.298125pt" height="388.844525pt" viewBox="0 0 1000.298125 388.844525" xmlns="http://www.w3.org/2000/svg" version="1.1">
 <metadata>
  <rdf:RDF xmlns:dc="http://purl.org/dc/elements/1.1/" xmlns:cc="http://creativecommons.org/ns#" xmlns:rdf="http://www.w3.org/1999/02/22-rdf-syntax-ns#">
   <cc:Work>
    <dc:type rdf:resource="http://purl.org/dc/dcmitype/StillImage"/>
    <dc:date>2025-03-11T15:51:13.571026</dc:date>
    <dc:format>image/svg+xml</dc:format>
    <dc:creator>
     <cc:Agent>
      <dc:title>Matplotlib v3.8.2, https://matplotlib.org/</dc:title>
     </cc:Agent>
    </dc:creator>
   </cc:Work>
  </rdf:RDF>
 </metadata>
 <defs>
  <style type="text/css">*{stroke-linejoin: round; stroke-linecap: butt}</style>
 </defs>
 <g id="figure_1">
  <g id="axes_1">
   <g id="patch_1">
    <path d="M 32.968125 353.2239 
L 985.463125 353.2239 
L 985.463125 35.2559 
L 32.968125 35.2559 
z
" style="fill: #ffffff"/>
   </g>
   <g id="matplotlib.axis_1">
    <g id="xtick_1">
     <g id="text_1">
      <!-- 0 -->
      <g transform="translate(30.423125 366.30265) scale(0.08 -0.08)">
       <defs>
        <path id="DejaVuSans-30" d="M 2034 4250 
Q 1547 4250 1301 3770 
Q 1056 3291 1056 2328 
Q 1056 1369 1301 889 
Q 1547 409 2034 409 
Q 2525 409 2770 889 
Q 3016 1369 3016 2328 
Q 3016 3291 2770 3770 
Q 2525 4250 2034 4250 
z
M 2034 4750 
Q 2819 4750 3233 4129 
Q 3647 3509 3647 2328 
Q 3647 1150 3233 529 
Q 2819 -91 2034 -91 
Q 1250 -91 836 529 
Q 422 1150 422 2328 
Q 422 3509 836 4129 
Q 1250 4750 2034 4750 
z
" transform="scale(0.015625)"/>
       </defs>
       <use xlink:href="#DejaVuSans-30"/>
      </g>
     </g>
    </g>
    <g id="xtick_2">
     <g id="text_2">
      <!-- 20 -->
      <g transform="translate(218.377125 366.30265) scale(0.08 -0.08)">
       <defs>
        <path id="DejaVuSans-32" d="M 1228 531 
L 3431 531 
L 3431 0 
L 469 0 
L 469 531 
Q 828 903 1448 1529 
Q 2069 2156 2228 2338 
Q 2531 2678 2651 2914 
Q 2772 3150 2772 3378 
Q 2772 3750 2511 3984 
Q 2250 4219 1831 4219 
Q 1534 4219 1204 4116 
Q 875 4013 500 3803 
L 500 4441 
Q 881 4594 1212 4672 
Q 1544 4750 1819 4750 
Q 2544 4750 2975 4387 
Q 3406 4025 3406 3419 
Q 3406 3131 3298 2873 
Q 3191 2616 2906 2266 
Q 2828 2175 2409 1742 
Q 1991 1309 1228 531 
z
" transform="scale(0.015625)"/>
       </defs>
       <use xlink:href="#DejaVuSans-32"/>
       <use xlink:href="#DejaVuSans-30" x="63.623047"/>
      </g>
     </g>
    </g>
    <g id="xtick_3">
     <g id="text_3">
      <!-- 40 -->
      <g transform="translate(408.876125 366.30265) scale(0.08 -0.08)">
       <defs>
        <path id="DejaVuSans-34" d="M 2419 4116 
L 825 1625 
L 2419 1625 
L 2419 4116 
z
M 2253 4666 
L 3047 4666 
L 3047 1625 
L 3713 1625 
L 3713 1100 
L 3047 1100 
L 3047 0 
L 2419 0 
L 2419 1100 
L 313 1100 
L 313 1709 
L 2253 4666 
z
" transform="scale(0.015625)"/>
       </defs>
       <use xlink:href="#DejaVuSans-34"/>
       <use xlink:href="#DejaVuSans-30" x="63.623047"/>
      </g>
     </g>
    </g>
    <g id="xtick_4">
     <g id="text_4">
      <!-- 60 -->
      <g transform="translate(599.375125 366.30265) scale(0.08 -0.08)">
       <defs>
        <path id="DejaVuSans-36" d="M 2113 2584 
Q 1688 2584 1439 2293 
Q 1191 2003 1191 1497 
Q 1191 994 1439 701 
Q 1688 409 2113 409 
Q 2538 409 2786 701 
Q 3034 994 3034 1497 
Q 3034 2003 2786 2293 
Q 2538 2584 2113 2584 
z
M 3366 4563 
L 3366 3988 
Q 3128 4100 2886 4159 
Q 2644 4219 2406 4219 
Q 1781 4219 1451 3797 
Q 1122 3375 1075 2522 
Q 1259 2794 1537 2939 
Q 1816 3084 2150 3084 
Q 2853 3084 3261 2657 
Q 3669 2231 3669 1497 
Q 3669 778 3244 343 
Q 2819 -91 2113 -91 
Q 1303 -91 875 529 
Q 447 1150 447 2328 
Q 447 3434 972 4092 
Q 1497 4750 2381 4750 
Q 2619 4750 2861 4703 
Q 3103 4656 3366 4563 
z
" transform="scale(0.015625)"/>
       </defs>
       <use xlink:href="#DejaVuSans-36"/>
       <use xlink:href="#DejaVuSans-30" x="63.623047"/>
      </g>
     </g>
    </g>
    <g id="xtick_5">
     <g id="text_5">
      <!-- 80 -->
      <g transform="translate(789.874125 366.30265) scale(0.08 -0.08)">
       <defs>
        <path id="DejaVuSans-38" d="M 2034 2216 
Q 1584 2216 1326 1975 
Q 1069 1734 1069 1313 
Q 1069 891 1326 650 
Q 1584 409 2034 409 
Q 2484 409 2743 651 
Q 3003 894 3003 1313 
Q 3003 1734 2745 1975 
Q 2488 2216 2034 2216 
z
M 1403 2484 
Q 997 2584 770 2862 
Q 544 3141 544 3541 
Q 544 4100 942 4425 
Q 1341 4750 2034 4750 
Q 2731 4750 3128 4425 
Q 3525 4100 3525 3541 
Q 3525 3141 3298 2862 
Q 3072 2584 2669 2484 
Q 3125 2378 3379 2068 
Q 3634 1759 3634 1313 
Q 3634 634 3220 271 
Q 2806 -91 2034 -91 
Q 1263 -91 848 271 
Q 434 634 434 1313 
Q 434 1759 690 2068 
Q 947 2378 1403 2484 
z
M 1172 3481 
Q 1172 3119 1398 2916 
Q 1625 2713 2034 2713 
Q 2441 2713 2670 2916 
Q 2900 3119 2900 3481 
Q 2900 3844 2670 4047 
Q 2441 4250 2034 4250 
Q 1625 4250 1398 4047 
Q 1172 3844 1172 3481 
z
" transform="scale(0.015625)"/>
       </defs>
       <use xlink:href="#DejaVuSans-38"/>
       <use xlink:href="#DejaVuSans-30" x="63.623047"/>
      </g>
     </g>
    </g>
    <g id="xtick_6">
     <g id="text_6">
      <!-- 100 -->
      <g transform="translate(977.828125 366.30265) scale(0.08 -0.08)">
       <defs>
        <path id="DejaVuSans-31" d="M 794 531 
L 1825 531 
L 1825 4091 
L 703 3866 
L 703 4441 
L 1819 4666 
L 2450 4666 
L 2450 531 
L 3481 531 
L 3481 0 
L 794 0 
L 794 531 
z
" transform="scale(0.015625)"/>
       </defs>
       <use xlink:href="#DejaVuSans-31"/>
       <use xlink:href="#DejaVuSans-30" x="63.623047"/>
       <use xlink:href="#DejaVuSans-30" x="127.246094"/>
      </g>
     </g>
    </g>
    <g id="text_7">
     <!-- % GC -->
     <g transform="translate(495.510156 379.564837) scale(0.1 -0.1)">
      <defs>
       <path id="DejaVuSans-25" d="M 4653 2053 
Q 4381 2053 4226 1822 
Q 4072 1591 4072 1178 
Q 4072 772 4226 539 
Q 4381 306 4653 306 
Q 4919 306 5073 539 
Q 5228 772 5228 1178 
Q 5228 1588 5073 1820 
Q 4919 2053 4653 2053 
z
M 4653 2450 
Q 5147 2450 5437 2106 
Q 5728 1763 5728 1178 
Q 5728 594 5436 251 
Q 5144 -91 4653 -91 
Q 4153 -91 3862 251 
Q 3572 594 3572 1178 
Q 3572 1766 3864 2108 
Q 4156 2450 4653 2450 
z
M 1428 4353 
Q 1159 4353 1004 4120 
Q 850 3888 850 3481 
Q 850 3069 1003 2837 
Q 1156 2606 1428 2606 
Q 1700 2606 1854 2837 
Q 2009 3069 2009 3481 
Q 2009 3884 1853 4118 
Q 1697 4353 1428 4353 
z
M 4250 4750 
L 4750 4750 
L 1831 -91 
L 1331 -91 
L 4250 4750 
z
M 1428 4750 
Q 1922 4750 2215 4408 
Q 2509 4066 2509 3481 
Q 2509 2891 2217 2550 
Q 1925 2209 1428 2209 
Q 931 2209 642 2551 
Q 353 2894 353 3481 
Q 353 4063 643 4406 
Q 934 4750 1428 4750 
z
" transform="scale(0.015625)"/>
       <path id="DejaVuSans-20" transform="scale(0.015625)"/>
       <path id="DejaVuSans-47" d="M 3809 666 
L 3809 1919 
L 2778 1919 
L 2778 2438 
L 4434 2438 
L 4434 434 
Q 4069 175 3628 42 
Q 3188 -91 2688 -91 
Q 1594 -91 976 548 
Q 359 1188 359 2328 
Q 359 3472 976 4111 
Q 1594 4750 2688 4750 
Q 3144 4750 3555 4637 
Q 3966 4525 4313 4306 
L 4313 3634 
Q 3963 3931 3569 4081 
Q 3175 4231 2741 4231 
Q 1884 4231 1454 3753 
Q 1025 3275 1025 2328 
Q 1025 1384 1454 906 
Q 1884 428 2741 428 
Q 3075 428 3337 486 
Q 3600 544 3809 666 
z
" transform="scale(0.015625)"/>
       <path id="DejaVuSans-43" d="M 4122 4306 
L 4122 3641 
Q 3803 3938 3442 4084 
Q 3081 4231 2675 4231 
Q 1875 4231 1450 3742 
Q 1025 3253 1025 2328 
Q 1025 1406 1450 917 
Q 1875 428 2675 428 
Q 3081 428 3442 575 
Q 3803 722 4122 1019 
L 4122 359 
Q 3791 134 3420 21 
Q 3050 -91 2638 -91 
Q 1578 -91 968 557 
Q 359 1206 359 2328 
Q 359 3453 968 4101 
Q 1578 4750 2638 4750 
Q 3056 4750 3426 4639 
Q 3797 4528 4122 4306 
z
" transform="scale(0.015625)"/>
      </defs>
      <use xlink:href="#DejaVuSans-25"/>
      <use xlink:href="#DejaVuSans-20" x="95.019531"/>
      <use xlink:href="#DejaVuSans-47" x="126.806641"/>
      <use xlink:href="#DejaVuSans-43" x="204.296875"/>
     </g>
    </g>
   </g>
   <g id="matplotlib.axis_2">
    <g id="ytick_1">
     <g id="line2d_1">
      <path d="M 32.968125 353.2239 
L 985.463125 353.2239 
" clip-path="url(#p65dc35b491)" style="fill: none; stroke: #dedede; stroke-linecap: square"/>
     </g>
     <g id="text_8">
      <!-- 0 -->
      <g transform="translate(20.878125 356.263275) scale(0.08 -0.08)">
       <use xlink:href="#DejaVuSans-30"/>
      </g>
     </g>
    </g>
    <g id="ytick_2">
     <g id="line2d_2">
      <path d="M 32.968125 311.936496 
L 985.463125 311.936496 
" clip-path="url(#p65dc35b491)" style="fill: none; stroke: #dedede; stroke-linecap: square"/>
     </g>
     <g id="text_9">
      <!-- 1 -->
      <g transform="translate(20.878125 314.975871) scale(0.08 -0.08)">
       <use xlink:href="#DejaVuSans-31"/>
      </g>
     </g>
    </g>
    <g id="ytick_3">
     <g id="line2d_3">
      <path d="M 32.968125 270.649092 
L 985.463125 270.649092 
" clip-path="url(#p65dc35b491)" style="fill: none; stroke: #dedede; stroke-linecap: square"/>
     </g>
     <g id="text_10">
      <!-- 2 -->
      <g transform="translate(20.878125 273.688467) scale(0.08 -0.08)">
       <use xlink:href="#DejaVuSans-32"/>
      </g>
     </g>
    </g>
    <g id="ytick_4">
     <g id="line2d_4">
      <path d="M 32.968125 229.361687 
L 985.463125 229.361687 
" clip-path="url(#p65dc35b491)" style="fill: none; stroke: #dedede; stroke-linecap: square"/>
     </g>
     <g id="text_11">
      <!-- 3 -->
      <g transform="translate(20.878125 232.401062) scale(0.08 -0.08)">
       <defs>
        <path id="DejaVuSans-33" d="M 2597 2516 
Q 3050 2419 3304 2112 
Q 3559 1806 3559 1356 
Q 3559 666 3084 287 
Q 2609 -91 1734 -91 
Q 1441 -91 1130 -33 
Q 819 25 488 141 
L 488 750 
Q 750 597 1062 519 
Q 1375 441 1716 441 
Q 2309 441 2620 675 
Q 2931 909 2931 1356 
Q 2931 1769 2642 2001 
Q 2353 2234 1838 2234 
L 1294 2234 
L 1294 2753 
L 1863 2753 
Q 2328 2753 2575 2939 
Q 2822 3125 2822 3475 
Q 2822 3834 2567 4026 
Q 2313 4219 1838 4219 
Q 1578 4219 1281 4162 
Q 984 4106 628 3988 
L 628 4550 
Q 988 4650 1302 4700 
Q 1616 4750 1894 4750 
Q 2613 4750 3031 4423 
Q 3450 4097 3450 3541 
Q 3450 3153 3228 2886 
Q 3006 2619 2597 2516 
z
" transform="scale(0.015625)"/>
       </defs>
       <use xlink:href="#DejaVuSans-33"/>
      </g>
     </g>
    </g>
    <g id="ytick_5">
     <g id="line2d_5">
      <path d="M 32.968125 188.074283 
L 985.463125 188.074283 
" clip-path="url(#p65dc35b491)" style="fill: none; stroke: #dedede; stroke-linecap: square"/>
     </g>
     <g id="text_12">
      <!-- 4 -->
      <g transform="translate(20.878125 191.113658) scale(0.08 -0.08)">
       <use xlink:href="#DejaVuSans-34"/>
      </g>
     </g>
    </g>
    <g id="ytick_6">
     <g id="line2d_6">
      <path d="M 32.968125 146.786879 
L 985.463125 146.786879 
" clip-path="url(#p65dc35b491)" style="fill: none; stroke: #dedede; stroke-linecap: square"/>
     </g>
     <g id="text_13">
      <!-- 5 -->
      <g transform="translate(20.878125 149.826254) scale(0.08 -0.08)">
       <defs>
        <path id="DejaVuSans-35" d="M 691 4666 
L 3169 4666 
L 3169 4134 
L 1269 4134 
L 1269 2991 
Q 1406 3038 1543 3061 
Q 1681 3084 1819 3084 
Q 2600 3084 3056 2656 
Q 3513 2228 3513 1497 
Q 3513 744 3044 326 
Q 2575 -91 1722 -91 
Q 1428 -91 1123 -41 
Q 819 9 494 109 
L 494 744 
Q 775 591 1075 516 
Q 1375 441 1709 441 
Q 2250 441 2565 725 
Q 2881 1009 2881 1497 
Q 2881 1984 2565 2268 
Q 2250 2553 1709 2553 
Q 1456 2553 1204 2497 
Q 953 2441 691 2322 
L 691 4666 
z
" transform="scale(0.015625)"/>
       </defs>
       <use xlink:href="#DejaVuSans-35"/>
      </g>
     </g>
    </g>
    <g id="ytick_7">
     <g id="line2d_7">
      <path d="M 32.968125 105.499475 
L 985.463125 105.499475 
" clip-path="url(#p65dc35b491)" style="fill: none; stroke: #dedede; stroke-linecap: square"/>
     </g>
     <g id="text_14">
      <!-- 6 -->
      <g transform="translate(20.878125 108.53885) scale(0.08 -0.08)">
       <use xlink:href="#DejaVuSans-36"/>
      </g>
     </g>
    </g>
    <g id="ytick_8">
     <g id="line2d_8">
      <path d="M 32.968125 64.212071 
L 985.463125 64.212071 
" clip-path="url(#p65dc35b491)" style="fill: none; stroke: #dedede; stroke-linecap: square"/>
     </g>
     <g id="text_15">
      <!-- 7 -->
      <g transform="translate(20.878125 67.251446) scale(0.08 -0.08)">
       <defs>
        <path id="DejaVuSans-37" d="M 525 4666 
L 3525 4666 
L 3525 4397 
L 1831 0 
L 1172 0 
L 2766 4134 
L 525 4134 
L 525 4666 
z
" transform="scale(0.015625)"/>
       </defs>
       <use xlink:href="#DejaVuSans-37"/>
      </g>
     </g>
    </g>
    <g id="text_16">
     <!-- Count -->
     <g transform="translate(14.798437 209.088338) rotate(-90) scale(0.1 -0.1)">
      <defs>
       <path id="DejaVuSans-6f" d="M 1959 3097 
Q 1497 3097 1228 2736 
Q 959 2375 959 1747 
Q 959 1119 1226 758 
Q 1494 397 1959 397 
Q 2419 397 2687 759 
Q 2956 1122 2956 1747 
Q 2956 2369 2687 2733 
Q 2419 3097 1959 3097 
z
M 1959 3584 
Q 2709 3584 3137 3096 
Q 3566 2609 3566 1747 
Q 3566 888 3137 398 
Q 2709 -91 1959 -91 
Q 1206 -91 779 398 
Q 353 888 353 1747 
Q 353 2609 779 3096 
Q 1206 3584 1959 3584 
z
" transform="scale(0.015625)"/>
       <path id="DejaVuSans-75" d="M 544 1381 
L 544 3500 
L 1119 3500 
L 1119 1403 
Q 1119 906 1312 657 
Q 1506 409 1894 409 
Q 2359 409 2629 706 
Q 2900 1003 2900 1516 
L 2900 3500 
L 3475 3500 
L 3475 0 
L 2900 0 
L 2900 538 
Q 2691 219 2414 64 
Q 2138 -91 1772 -91 
Q 1169 -91 856 284 
Q 544 659 544 1381 
z
M 1991 3584 
L 1991 3584 
z
" transform="scale(0.015625)"/>
       <path id="DejaVuSans-6e" d="M 3513 2113 
L 3513 0 
L 2938 0 
L 2938 2094 
Q 2938 2591 2744 2837 
Q 2550 3084 2163 3084 
Q 1697 3084 1428 2787 
Q 1159 2491 1159 1978 
L 1159 0 
L 581 0 
L 581 3500 
L 1159 3500 
L 1159 2956 
Q 1366 3272 1645 3428 
Q 1925 3584 2291 3584 
Q 2894 3584 3203 3211 
Q 3513 2838 3513 2113 
z
" transform="scale(0.015625)"/>
       <path id="DejaVuSans-74" d="M 1172 4494 
L 1172 3500 
L 2356 3500 
L 2356 3053 
L 1172 3053 
L 1172 1153 
Q 1172 725 1289 603 
Q 1406 481 1766 481 
L 2356 481 
L 2356 0 
L 1766 0 
Q 1100 0 847 248 
Q 594 497 594 1153 
L 594 3053 
L 172 3053 
L 172 3500 
L 594 3500 
L 594 4494 
L 1172 4494 
z
" transform="scale(0.015625)"/>
      </defs>
      <use xlink:href="#DejaVuSans-43"/>
      <use xlink:href="#DejaVuSans-6f" x="69.824219"/>
      <use xlink:href="#DejaVuSans-75" x="131.005859"/>
      <use xlink:href="#DejaVuSans-6e" x="194.384766"/>
      <use xlink:href="#DejaVuSans-74" x="257.763672"/>
     </g>
    </g>
    <g id="text_17">
     <!-- 1e6 -->
     <g transform="translate(32.968125 32.2559) scale(0.1 -0.1)">
      <defs>
       <path id="DejaVuSans-65" d="M 3597 1894 
L 3597 1613 
L 953 1613 
Q 991 1019 1311 708 
Q 1631 397 2203 397 
Q 2534 397 2845 478 
Q 3156 559 3463 722 
L 3463 178 
Q 3153 47 2828 -22 
Q 2503 -91 2169 -91 
Q 1331 -91 842 396 
Q 353 884 353 1716 
Q 353 2575 817 3079 
Q 1281 3584 2069 3584 
Q 2775 3584 3186 3129 
Q 3597 2675 3597 1894 
z
M 3022 2063 
Q 3016 2534 2758 2815 
Q 2500 3097 2075 3097 
Q 1594 3097 1305 2825 
Q 1016 2553 972 2059 
L 3022 2063 
z
" transform="scale(0.015625)"/>
      </defs>
      <use xlink:href="#DejaVuSans-31"/>
      <use xlink:href="#DejaVuSans-65" x="63.623047"/>
      <use xlink:href="#DejaVuSans-36" x="125.146484"/>
     </g>
    </g>
   </g>
   <g id="line2d_9">
    <path d="M 32.968125 313.179907 
L 42.493075 333.201057 
L 52.018025 353.222393 
L 61.542975 353.222476 
L 71.067925 353.222372 
L 80.592875 353.222269 
L 90.117825 353.222125 
L 99.642775 353.222125 
L 109.167725 353.221877 
L 118.692675 353.220886 
L 128.217625 353.219792 
L 137.742575 353.219007 
L 147.267525 353.216592 
L 156.792475 353.213661 
L 166.317425 353.207447 
L 175.842375 353.194937 
L 185.367325 353.172373 
L 194.892275 353.133893 
L 204.417225 353.07989 
L 213.942175 352.984846 
L 223.467125 352.81629 
L 232.992075 352.545631 
L 242.517025 352.15179 
L 252.041975 351.647402 
L 261.566925 351.039115 
L 271.091875 350.288902 
L 280.616825 349.203642 
L 290.141775 347.781126 
L 299.666725 346.164064 
L 309.191675 344.386063 
L 318.716625 342.245827 
L 328.241575 339.447325 
L 337.766525 336.381013 
L 347.291475 332.550698 
L 356.816425 326.862429 
L 366.341375 320.33776 
L 375.866325 312.348193 
L 385.391275 302.017445 
L 394.916225 289.856075 
L 404.441175 276.850542 
L 413.966125 263.090586 
L 423.491075 248.254329 
L 433.016025 233.70921 
L 442.540975 219.861187 
L 452.065925 209.465576 
L 461.590875 201.758457 
L 471.115825 195.236327 
L 480.640775 192.595791 
L 490.165725 192.696821 
L 499.690675 190.900881 
L 509.215625 189.556542 
L 518.740575 189.673117 
L 528.265525 191.156285 
L 537.790475 193.635304 
L 547.315425 193.067726 
L 556.840375 194.824072 
L 566.365325 201.0094 
L 575.890275 207.113495 
L 585.415225 213.540148 
L 594.940175 220.4966 
L 604.465125 226.355634 
L 613.990075 234.017544 
L 623.515025 243.919833 
L 633.039975 251.764398 
L 642.564925 260.165311 
L 652.089875 271.055793 
L 661.614825 281.655694 
L 671.139775 291.299358 
L 680.664725 299.443939 
L 690.189675 307.235202 
L 699.714625 315.497679 
L 709.239575 322.709474 
L 718.764525 327.967156 
L 728.289475 332.36732 
L 737.814425 335.64395 
L 747.339375 338.439768 
L 756.864325 341.222808 
L 766.389275 343.090216 
L 775.914225 344.596752 
L 785.439175 346.086608 
L 794.964125 347.306527 
L 804.489075 348.303825 
L 814.014025 349.196045 
L 823.538975 349.982302 
L 833.063925 350.709993 
L 842.588875 351.314275 
L 852.113825 351.787511 
L 861.638775 352.109574 
L 871.163725 352.454468 
L 880.688675 352.780267 
L 890.213625 352.985878 
L 899.738575 353.092482 
L 909.263525 353.15014 
L 918.788475 353.170226 
L 928.313425 353.191655 
L 937.838375 353.210833 
L 947.363325 353.210667 
L 956.888275 353.158976 
L 966.413225 353.001031 
L 975.938175 353.055798 
L 985.463125 353.222806 
" clip-path="url(#p65dc35b491)" style="fill: none; stroke: #f0ad4e; stroke-linecap: square"/>
   </g>
   <g id="line2d_10">
    <path d="M 32.968125 328.790303 
L 42.493075 341.006193 
L 52.018025 353.222599 
L 61.542975 353.223033 
L 71.067925 353.222538 
L 80.592875 353.222166 
L 90.117825 353.222352 
L 99.642775 353.22229 
L 109.167725 353.222063 
L 118.692675 353.221092 
L 128.217625 353.219771 
L 137.742575 353.21909 
L 147.267525 353.217955 
L 156.792475 353.216365 
L 166.317425 353.211452 
L 175.842375 353.201667 
L 185.367325 353.181436 
L 194.892275 353.152597 
L 204.417225 353.112981 
L 213.942175 353.042173 
L 223.467125 352.920603 
L 232.992075 352.713072 
L 242.517025 352.407896 
L 252.041975 351.995269 
L 261.566925 351.496001 
L 271.091875 350.913312 
L 280.616825 350.029328 
L 290.141775 348.794814 
L 299.666725 347.379668 
L 309.191675 345.836799 
L 318.716625 343.934853 
L 328.241575 341.415166 
L 337.766525 338.614765 
L 347.291475 335.032897 
L 356.816425 329.700711 
L 366.341375 323.577975 
L 375.866325 316.197459 
L 385.391275 306.730299 
L 394.916225 295.090574 
L 404.441175 282.451922 
L 413.966125 268.863453 
L 423.491075 253.789587 
L 433.016025 238.730852 
L 442.540975 223.942158 
L 452.065925 212.350245 
L 461.590875 203.595767 
L 471.115825 196.248198 
L 480.640775 192.849048 
L 490.165725 192.481961 
L 499.690675 189.757963 
L 509.215625 187.924905 
L 518.740575 188.215693 
L 528.265525 189.854658 
L 537.790475 192.10253 
L 547.315425 190.790664 
L 556.840375 192.45692 
L 566.365325 198.860948 
L 575.890275 204.677827 
L 585.415225 211.517313 
L 594.940175 219.099579 
L 604.465125 224.606204 
L 613.990075 232.183516 
L 623.515025 242.362203 
L 633.039975 250.215377 
L 642.564925 258.614102 
L 652.089875 269.697293 
L 661.614825 280.563911 
L 671.139775 290.540517 
L 680.664725 298.686914 
L 690.189675 306.448884 
L 699.714625 314.764022 
L 709.239575 321.897103 
L 718.764525 327.088891 
L 728.289475 331.540767 
L 737.814425 334.98329 
L 747.339375 337.866885 
L 756.864325 340.615594 
L 766.389275 342.528914 
L 775.914225 344.139309 
L 785.439175 345.700736 
L 794.964125 346.982256 
L 804.489075 348.134195 
L 814.014025 349.199699 
L 823.538975 350.054431 
L 833.063925 350.84236 
L 842.588875 351.467431 
L 852.113825 351.92281 
L 861.638775 352.227883 
L 871.163725 352.544784 
L 880.688675 352.849361 
L 890.213625 353.025514 
L 899.738575 353.106582 
L 909.263525 353.151131 
L 918.788475 353.16907 
L 928.313425 353.190065 
L 937.838375 353.20916 
L 947.363325 353.204454 
L 956.888275 353.10363 
L 966.413225 352.844324 
L 975.938175 352.948947 
L 985.463125 353.222496 
" clip-path="url(#p65dc35b491)" style="fill: none; stroke: #f0ad4e; stroke-linecap: square"/>
   </g>
   <g id="line2d_11">
    <path d="M 32.968125 323.134507 
L 42.493075 338.177944 
L 52.018025 353.221856 
L 61.542975 353.222331 
L 71.067925 353.221939 
L 80.592875 353.221505 
L 90.117825 353.221505 
L 99.642775 353.221092 
L 109.167725 353.220143 
L 118.692675 353.21909 
L 128.217625 353.218388 
L 137.742575 353.217232 
L 147.267525 353.214817 
L 156.792475 353.21172 
L 166.317425 353.205651 
L 175.842375 353.193471 
L 185.367325 353.169999 
L 194.892275 353.129806 
L 204.417225 353.07124 
L 213.942175 352.975412 
L 223.467125 352.809911 
L 232.992075 352.550296 
L 242.517025 352.150572 
L 252.041975 351.650767 
L 261.566925 351.054866 
L 271.091875 350.296313 
L 280.616825 349.225772 
L 290.141775 347.802059 
L 299.666725 346.170257 
L 309.191675 344.336766 
L 318.716625 342.075847 
L 328.241575 339.118079 
L 337.766525 335.893533 
L 347.291475 331.976741 
L 356.816425 326.047044 
L 366.341375 319.137515 
L 375.866325 311.071607 
L 385.391275 300.857392 
L 394.916225 289.093888 
L 404.441175 276.717576 
L 413.966125 263.982249 
L 423.491075 251.027294 
L 433.016025 238.714729 
L 442.540975 227.375825 
L 452.065925 219.695645 
L 461.590875 214.538787 
L 471.115825 209.418777 
L 480.640775 206.350235 
L 490.165725 206.829087 
L 499.690675 206.005898 
L 509.215625 204.981764 
L 518.740575 205.816657 
L 528.265525 208.334859 
L 537.790475 211.87769 
L 547.315425 211.669642 
L 556.840375 213.085986 
L 566.365325 218.322736 
L 575.890275 224.244712 
L 585.415225 230.022823 
L 594.940175 236.262464 
L 604.465125 242.453634 
L 613.990075 249.041907 
L 623.515025 258.278456 
L 633.039975 265.519483 
L 642.564925 272.77785 
L 652.089875 283.46658 
L 661.614825 293.228574 
L 671.139775 301.122581 
L 680.664725 307.808746 
L 690.189675 314.573667 
L 699.714625 321.626464 
L 709.239575 327.472512 
L 718.764525 331.671441 
L 728.289475 335.377316 
L 737.814425 338.189546 
L 747.339375 340.502012 
L 756.864325 342.943997 
L 766.389275 344.481767 
L 775.914225 345.758002 
L 785.439175 347.33483 
L 794.964125 348.436419 
L 804.489075 349.205934 
L 814.014025 350.042767 
L 823.538975 350.75386 
L 833.063925 351.337953 
L 842.588875 351.774113 
L 852.113825 352.04467 
L 861.638775 352.193346 
L 871.163725 352.483906 
L 880.688675 352.854522 
L 890.213625 353.055509 
L 899.738575 353.107098 
L 909.263525 353.130467 
L 918.788475 353.131767 
L 928.313425 353.161288 
L 937.838375 353.202864 
L 947.363325 353.208046 
L 956.888275 353.14853 
L 966.413225 352.991245 
L 975.938175 353.054931 
L 985.463125 353.222682 
" clip-path="url(#p65dc35b491)" style="fill: none; stroke: #f0ad4e; stroke-linecap: square"/>
   </g>
   <g id="line2d_12">
    <path d="M 32.968125 293.74638 
L 42.493075 323.483695 
L 52.018025 353.221443 
L 61.542975 353.222145 
L 71.067925 353.221815 
L 80.592875 353.221402 
L 90.117825 353.221237 
L 99.642775 353.220783 
L 109.167725 353.220597 
L 118.692675 353.220184 
L 128.217625 353.219565 
L 137.742575 353.218656 
L 147.267525 353.21651 
L 156.792475 353.21333 
L 166.317425 353.209305 
L 175.842375 353.199995 
L 185.367325 353.180507 
L 194.892275 353.149934 
L 204.417225 353.099026 
L 213.942175 353.003322 
L 223.467125 352.840794 
L 232.992075 352.580126 
L 242.517025 352.179514 
L 252.041975 351.704462 
L 261.566925 351.149869 
L 271.091875 350.459915 
L 280.616825 349.434976 
L 290.141775 348.102156 
L 299.666725 346.542586 
L 309.191675 344.68263 
L 318.716625 342.456661 
L 328.241575 339.733179 
L 337.766525 336.853424 
L 347.291475 333.292261 
L 356.816425 327.999113 
L 366.341375 321.579871 
L 375.866325 313.576535 
L 385.391275 303.281933 
L 394.916225 290.668982 
L 404.441175 276.673853 
L 413.966125 262.217522 
L 423.491075 246.612742 
L 433.016025 231.548392 
L 442.540975 216.92619 
L 452.065925 205.040083 
L 461.590875 196.497244 
L 471.115825 189.58084 
L 480.640775 187.302188 
L 490.165725 187.432058 
L 499.690675 185.049423 
L 509.215625 184.239344 
L 518.740575 184.367066 
L 528.265525 184.887247 
L 537.790475 185.745488 
L 547.315425 183.210152 
L 556.840375 184.881177 
L 566.365325 191.252753 
L 575.890275 197.128033 
L 585.415225 202.695206 
L 594.940175 208.466132 
L 604.465125 212.680028 
L 613.990075 218.552108 
L 623.515025 228.891094 
L 633.039975 239.577058 
L 642.564925 250.668548 
L 652.089875 262.240747 
L 661.614825 274.163703 
L 671.139775 285.143262 
L 680.664725 294.269141 
L 690.189675 303.203962 
L 699.714625 311.838294 
L 709.239575 319.50138 
L 718.764525 325.17427 
L 728.289475 329.94505 
L 737.814425 333.85379 
L 747.339375 336.926688 
L 756.864325 339.528145 
L 766.389275 341.262505 
L 775.914225 342.917594 
L 785.439175 344.694645 
L 794.964125 346.381111 
L 804.489075 347.81911 
L 814.014025 348.83187 
L 823.538975 349.655739 
L 833.063925 350.436608 
L 842.588875 351.083004 
L 852.113825 351.561442 
L 861.638775 351.908628 
L 871.163725 352.299826 
L 880.688675 352.649881 
L 890.213625 352.892672 
L 899.738575 353.047871 
L 909.263525 353.128237 
L 918.788475 353.161659 
L 928.313425 353.189735 
L 937.838375 353.209202 
L 947.363325 353.209243 
L 956.888275 353.150863 
L 966.413225 352.998244 
L 975.938175 353.060794 
L 985.463125 353.222476 
" clip-path="url(#p65dc35b491)" style="fill: none; stroke: #f0ad4e; stroke-linecap: square"/>
   </g>
   <g id="line2d_13">
    <path d="M 32.968125 332.994847 
L 42.493075 343.108218 
L 52.018025 353.221898 
L 61.542975 353.222104 
L 71.067925 353.221877 
L 80.592875 353.222042 
L 90.117825 353.222042 
L 99.642775 353.221505 
L 109.167725 353.221154 
L 118.692675 353.220143 
L 128.217625 353.219276 
L 137.742575 353.218656 
L 147.267525 353.216819 
L 156.792475 353.214053 
L 166.317425 353.209532 
L 175.842375 353.199251 
L 185.367325 353.177926 
L 194.892275 353.142316 
L 204.417225 353.080963 
L 213.942175 352.968166 
L 223.467125 352.777253 
L 232.992075 352.471004 
L 242.517025 351.993267 
L 252.041975 351.444124 
L 261.566925 350.735735 
L 271.091875 349.821694 
L 280.616825 348.460593 
L 290.141775 346.473533 
L 299.666725 343.998333 
L 309.191675 340.908652 
L 318.716625 337.079844 
L 328.241575 332.347667 
L 337.766525 327.208314 
L 347.291475 321.239725 
L 356.816425 313.208788 
L 366.341375 304.332739 
L 375.866325 294.614241 
L 385.391275 283.876523 
L 394.916225 273.208353 
L 404.441175 262.857044 
L 413.966125 253.196514 
L 423.491075 243.977078 
L 433.016025 236.023555 
L 442.540975 228.515915 
L 452.065925 222.811626 
L 461.590875 219.216113 
L 471.115825 215.630777 
L 480.640775 214.936508 
L 490.165725 216.304876 
L 499.690675 215.451011 
L 509.215625 215.514904 
L 518.740575 215.918529 
L 528.265525 216.803483 
L 537.790475 218.404857 
L 547.315425 216.565255 
L 556.840375 217.611973 
L 566.365325 223.148119 
L 575.890275 229.144474 
L 585.415225 233.784828 
L 594.940175 238.05506 
L 604.465125 242.112703 
L 613.990075 247.041036 
L 623.515025 255.088674 
L 633.039975 263.510685 
L 642.564925 272.365781 
L 652.089875 282.03335 
L 661.614825 291.877527 
L 671.139775 300.770503 
L 680.664725 308.067412 
L 690.189675 315.078178 
L 699.714625 322.021811 
L 709.239575 328.041618 
L 718.764525 332.501587 
L 728.289475 336.253745 
L 737.814425 339.194956 
L 747.339375 341.480482 
L 756.864325 343.391676 
L 766.389275 344.745552 
L 775.914225 346.098933 
L 785.439175 347.450806 
L 794.964125 348.638727 
L 804.489075 349.693414 
L 814.014025 350.511049 
L 823.538975 351.09477 
L 833.063925 351.661564 
L 842.588875 352.111535 
L 852.113825 352.400361 
L 861.638775 352.587868 
L 871.163725 352.806278 
L 880.688675 353.011352 
L 890.213625 353.11839 
L 899.738575 353.153278 
L 909.263525 353.172951 
L 918.788475 353.182613 
L 928.313425 353.198777 
L 937.838375 353.214053 
L 947.363325 353.215106 
L 956.888275 353.188331 
L 966.413225 353.10491 
L 975.938175 353.134637 
L 985.463125 353.223673 
" clip-path="url(#p65dc35b491)" style="fill: none; stroke: #5cb85c; stroke-linecap: square"/>
   </g>
   <g id="line2d_14">
    <path d="M 32.968125 311.234651 
L 42.493075 332.22717 
L 52.018025 353.220411 
L 61.542975 353.22101 
L 71.067925 353.22068 
L 80.592875 353.220143 
L 90.117825 353.219978 
L 99.642775 353.220184 
L 109.167725 353.219111 
L 118.692675 353.217769 
L 128.217625 353.216943 
L 137.742575 353.215457 
L 147.267525 353.212133 
L 156.792475 353.208025 
L 166.317425 353.203669 
L 175.842375 353.194772 
L 185.367325 353.171486 
L 194.892275 353.133687 
L 204.417225 353.072128 
L 213.942175 352.963315 
L 223.467125 352.777624 
L 232.992075 352.463242 
L 242.517025 351.996281 
L 252.041975 351.454281 
L 261.566925 350.796964 
L 271.091875 349.978483 
L 280.616825 348.777618 
L 290.141775 347.153289 
L 299.666725 345.292259 
L 309.191675 343.094077 
L 318.716625 340.428273 
L 328.241575 337.124868 
L 337.766525 333.541823 
L 347.291475 329.155635 
L 356.816425 322.570232 
L 366.341375 314.527858 
L 375.866325 304.731039 
L 385.391275 292.649023 
L 394.916225 277.942161 
L 404.441175 262.163312 
L 413.966125 246.546723 
L 423.491075 230.193051 
L 433.016025 214.844809 
L 442.540975 200.230885 
L 452.065925 189.194121 
L 461.590875 181.531613 
L 471.115825 175.774187 
L 480.640775 175.163671 
L 490.165725 176.540853 
L 499.690675 174.504373 
L 509.215625 174.493225 
L 518.740575 176.425414 
L 528.265525 178.642258 
L 537.790475 180.47385 
L 547.315425 177.510942 
L 556.840375 178.849872 
L 566.365325 186.319961 
L 575.890275 193.495753 
L 585.415225 200.510875 
L 594.940175 207.622465 
L 604.465125 212.267009 
L 613.990075 218.627127 
L 623.515025 229.472689 
L 633.039975 240.169099 
L 642.564925 251.306934 
L 652.089875 263.207202 
L 661.614825 275.592556 
L 671.139775 287.206992 
L 680.664725 296.407931 
L 690.189675 305.114413 
L 699.714625 313.863296 
L 709.239575 321.451013 
L 718.764525 326.901446 
L 728.289475 331.649642 
L 737.814425 335.375892 
L 747.339375 338.196813 
L 756.864325 340.698416 
L 766.389275 342.353174 
L 775.914225 343.999365 
L 785.439175 345.714175 
L 794.964125 347.234832 
L 804.489075 348.573658 
L 814.014025 349.549982 
L 823.538975 350.277342 
L 833.063925 351.008913 
L 842.588875 351.606301 
L 852.113825 351.992916 
L 861.638775 352.24543 
L 871.163725 352.551328 
L 880.688675 352.844923 
L 890.213625 353.020188 
L 899.738575 353.10685 
L 909.263525 353.149624 
L 918.788475 353.163269 
L 928.313425 353.187588 
L 937.838375 353.211782 
L 947.363325 353.214259 
L 956.888275 353.173571 
L 966.413225 353.07093 
L 975.938175 353.114261 
L 985.463125 353.223157 
" clip-path="url(#p65dc35b491)" style="fill: none; stroke: #f0ad4e; stroke-linecap: square"/>
   </g>
   <g id="line2d_15">
    <path d="M 32.968125 345.357535 
L 42.493075 349.290284 
L 52.018025 353.223343 
L 61.542975 353.223652 
L 71.067925 353.223405 
L 80.592875 353.223054 
L 90.117825 353.223012 
L 99.642775 353.22293 
L 109.167725 353.222661 
L 118.692675 353.221443 
L 128.217625 353.220535 
L 137.742575 353.220886 
L 147.267525 353.219544 
L 156.792475 353.217211 
L 166.317425 353.212071 
L 175.842375 353.199685 
L 185.367325 353.180218 
L 194.892275 353.14886 
L 204.417225 353.096632 
L 213.942175 353.007616 
L 223.467125 352.8551 
L 232.992075 352.610018 
L 242.517025 352.255132 
L 252.041975 351.790154 
L 261.566925 351.233909 
L 271.091875 350.543852 
L 280.616825 349.542612 
L 290.141775 348.194165 
L 299.666725 346.625058 
L 309.191675 344.905211 
L 318.716625 342.813054 
L 328.241575 340.110979 
L 337.766525 337.269869 
L 347.291475 333.786884 
L 356.816425 328.737311 
L 366.341375 323.132773 
L 375.866325 316.522494 
L 385.391275 308.17222 
L 394.916225 298.874358 
L 404.441175 288.902191 
L 413.966125 278.488001 
L 423.491075 267.693058 
L 433.016025 257.007444 
L 442.540975 246.925927 
L 452.065925 239.60854 
L 461.590875 234.235356 
L 471.115825 229.179156 
L 480.640775 226.871272 
L 490.165725 227.102853 
L 499.690675 226.421673 
L 509.215625 225.464322 
L 518.740575 225.01689 
L 528.265525 226.438271 
L 537.790475 229.267222 
L 547.315425 229.243832 
L 556.840375 230.321165 
L 566.365325 234.819015 
L 575.890275 240.070608 
L 585.415225 244.50085 
L 594.940175 248.92913 
L 604.465125 254.045506 
L 613.990075 259.768705 
L 623.515025 267.334436 
L 633.039975 273.742076 
L 642.564925 280.274961 
L 652.089875 288.877274 
L 661.614825 297.203519 
L 671.139775 304.648319 
L 680.664725 310.830819 
L 690.189675 317.015363 
L 699.714625 323.432251 
L 709.239575 328.836442 
L 718.764525 332.811593 
L 728.289475 336.297509 
L 737.814425 338.994898 
L 747.339375 341.223778 
L 756.864325 343.438579 
L 766.389275 344.83882 
L 775.914225 345.972779 
L 785.439175 347.287597 
L 794.964125 348.298292 
L 804.489075 349.014711 
L 814.014025 349.72535 
L 823.538975 350.421538 
L 833.063925 351.032406 
L 842.588875 351.501389 
L 852.113825 351.844632 
L 861.638775 352.075222 
L 871.163725 352.39968 
L 880.688675 352.739062 
L 890.213625 352.954025 
L 899.738575 353.068618 
L 909.263525 353.132799 
L 918.788475 353.160627 
L 928.313425 353.188744 
L 937.838375 353.211823 
L 947.363325 353.215808 
L 956.888275 353.190705 
L 966.413225 353.125306 
L 975.938175 353.153071 
L 985.463125 353.223136 
" clip-path="url(#p65dc35b491)" style="fill: none; stroke: #5cb85c; stroke-linecap: square"/>
   </g>
   <g id="line2d_16">
    <path d="M 32.968125 294.198973 
L 42.493075 323.709517 
L 52.018025 353.220473 
L 61.542975 353.22132 
L 71.067925 353.221567 
L 80.592875 353.221402 
L 90.117825 353.22132 
L 99.642775 353.221072 
L 109.167725 353.220783 
L 118.692675 353.219936 
L 128.217625 353.218884 
L 137.742575 353.218037 
L 147.267525 353.216386 
L 156.792475 353.213392 
L 166.317425 353.206415 
L 175.842375 353.196361 
L 185.367325 353.178215 
L 194.892275 353.145206 
L 204.417225 353.09948 
L 213.942175 353.018516 
L 223.467125 352.879419 
L 232.992075 352.662556 
L 242.517025 352.325011 
L 252.041975 351.873286 
L 261.566925 351.328849 
L 271.091875 350.668994 
L 280.616825 349.716762 
L 290.141775 348.39476 
L 299.666725 346.868509 
L 309.191675 345.168232 
L 318.716625 343.034953 
L 328.241575 340.26688 
L 337.766525 337.21153 
L 347.291475 333.414678 
L 356.816425 327.609649 
L 366.341375 320.862915 
L 375.866325 312.850413 
L 385.391275 302.440393 
L 394.916225 289.454988 
L 404.441175 276.087179 
L 413.966125 262.228691 
L 423.491075 247.220368 
L 433.016025 232.441852 
L 442.540975 218.327133 
L 452.065925 208.177409 
L 461.590875 200.130453 
L 471.115825 193.99434 
L 480.640775 192.212644 
L 490.165725 192.864716 
L 499.690675 190.098543 
L 509.215625 188.508111 
L 518.740575 190.57694 
L 528.265525 193.512433 
L 537.790475 195.832104 
L 547.315425 194.085151 
L 556.840375 195.685286 
L 566.365325 202.263752 
L 575.890275 207.785447 
L 585.415225 215.504933 
L 594.940175 224.564999 
L 604.465125 229.642566 
L 613.990075 237.114739 
L 623.515025 247.808838 
L 633.039975 255.534991 
L 642.564925 263.643218 
L 652.089875 274.615634 
L 661.614825 285.071401 
L 671.139775 294.381793 
L 680.664725 302.312712 
L 690.189675 309.759535 
L 699.714625 317.591425 
L 709.239575 324.331429 
L 718.764525 329.275492 
L 728.289475 333.465359 
L 737.814425 336.728158 
L 747.339375 339.456615 
L 756.864325 341.949652 
L 766.389275 343.646626 
L 775.914225 345.103184 
L 785.439175 346.600843 
L 794.964125 347.770784 
L 804.489075 348.722087 
L 814.014025 349.596905 
L 823.538975 350.369991 
L 833.063925 351.064796 
L 842.588875 351.593935 
L 852.113825 351.988973 
L 861.638775 352.253419 
L 871.163725 352.542513 
L 880.688675 352.835819 
L 890.213625 353.027744 
L 899.738575 353.113497 
L 909.263525 353.156209 
L 918.788475 353.171775 
L 928.313425 353.190478 
L 937.838375 353.20978 
L 947.363325 353.209284 
L 956.888275 353.15848 
L 966.413225 353.019424 
L 975.938175 353.074481 
L 985.463125 353.222888 
" clip-path="url(#p65dc35b491)" style="fill: none; stroke: #f0ad4e; stroke-linecap: square"/>
   </g>
   <g id="line2d_17">
    <path d="M 32.968125 315.568012 
L 42.493075 334.394201 
L 52.018025 353.220845 
L 61.542975 353.221423 
L 71.067925 353.221278 
L 80.592875 353.221113 
L 90.117825 353.22101 
L 99.642775 353.220618 
L 109.167725 353.220246 
L 118.692675 353.219771 
L 128.217625 353.218306 
L 137.742575 353.216014 
L 147.267525 353.214899 
L 156.792475 353.213268 
L 166.317425 353.206601 
L 175.842375 353.195577 
L 185.367325 353.176419 
L 194.892275 353.144669 
L 204.417225 353.099088 
L 213.942175 353.024399 
L 223.467125 352.892011 
L 232.992075 352.678535 
L 242.517025 352.357628 
L 252.041975 351.931068 
L 261.566925 351.433368 
L 271.091875 350.807988 
L 280.616825 349.904909 
L 290.141775 348.67601 
L 299.666725 347.240715 
L 309.191675 345.651233 
L 318.716625 343.66791 
L 328.241575 341.082451 
L 337.766525 338.182259 
L 347.291475 334.558732 
L 356.816425 328.980514 
L 366.341375 322.462699 
L 375.866325 314.71584 
L 385.391275 304.467955 
L 394.916225 291.587792 
L 404.441175 278.027667 
L 413.966125 263.999817 
L 423.491075 248.615759 
L 433.016025 232.8122 
L 442.540975 217.640152 
L 452.065925 206.767486 
L 461.590875 198.531247 
L 471.115825 192.170221 
L 480.640775 189.90026 
L 490.165725 190.219308 
L 499.690675 187.81345 
L 509.215625 186.35328 
L 518.740575 188.250436 
L 528.265525 191.63111 
L 537.790475 194.891391 
L 547.315425 193.81123 
L 556.840375 195.26659 
L 566.365325 201.79962 
L 575.890275 207.738813 
L 585.415225 215.101596 
L 594.940175 223.759627 
L 604.465125 229.407743 
L 613.990075 236.854897 
L 623.515025 247.504116 
L 633.039975 255.455822 
L 642.564925 263.529512 
L 652.089875 274.452652 
L 661.614825 284.822934 
L 671.139775 293.960868 
L 680.664725 301.704424 
L 690.189675 309.283099 
L 699.714625 317.243744 
L 709.239575 324.01911 
L 718.764525 328.979895 
L 728.289475 333.206569 
L 737.814425 336.502336 
L 747.339375 339.224373 
L 756.864325 341.817202 
L 766.389275 343.608167 
L 775.914225 345.125211 
L 785.439175 346.71748 
L 794.964125 347.917911 
L 804.489075 348.890828 
L 814.014025 349.834452 
L 823.538975 350.604462 
L 833.063925 351.277323 
L 842.588875 351.811726 
L 852.113825 352.166302 
L 861.638775 352.375031 
L 871.163725 352.627813 
L 880.688675 352.904377 
L 890.213625 353.071838 
L 899.738575 353.126049 
L 909.263525 353.156147 
L 918.788475 353.168864 
L 928.313425 353.18992 
L 937.838375 353.210048 
L 947.363325 353.209759 
L 956.888275 353.149996 
L 966.413225 352.991163 
L 975.938175 353.055076 
L 985.463125 353.223219 
" clip-path="url(#p65dc35b491)" style="fill: none; stroke: #f0ad4e; stroke-linecap: square"/>
   </g>
   <g id="line2d_18">
    <path d="M 32.968125 298.734601 
L 42.493075 325.978301 
L 52.018025 353.222228 
L 61.542975 353.222372 
L 71.067925 353.222455 
L 80.592875 353.22231 
L 90.117825 353.222207 
L 99.642775 353.222042 
L 109.167725 353.221526 
L 118.692675 353.220824 
L 128.217625 353.219957 
L 137.742575 353.219379 
L 147.267525 353.21717 
L 156.792475 353.213929 
L 166.317425 353.2098 
L 175.842375 353.201213 
L 185.367325 353.180486 
L 194.892275 353.149665 
L 204.417225 353.097746 
L 213.942175 353.003033 
L 223.467125 352.843808 
L 232.992075 352.561712 
L 242.517025 352.149333 
L 252.041975 351.701468 
L 261.566925 351.160995 
L 271.091875 350.462392 
L 280.616825 349.445834 
L 290.141775 348.09074 
L 299.666725 346.53181 
L 309.191675 344.685107 
L 318.716625 342.396856 
L 328.241575 339.577133 
L 337.766525 336.531526 
L 347.291475 332.721277 
L 356.816425 327.09143 
L 366.341375 320.189063 
L 375.866325 311.681484 
L 385.391275 300.886521 
L 394.916225 287.656757 
L 404.441175 273.155732 
L 413.966125 258.183227 
L 423.491075 242.050421 
L 433.016025 226.725961 
L 442.540975 211.687479 
L 452.065925 199.035428 
L 461.590875 190.142679 
L 471.115825 183.018042 
L 480.640775 180.723185 
L 490.165725 181.378375 
L 499.690675 179.207916 
L 509.215625 178.655408 
L 518.740575 178.773924 
L 528.265525 179.22342 
L 537.790475 180.075117 
L 547.315425 176.443725 
L 556.840375 177.360367 
L 566.365325 184.181294 
L 575.890275 190.865621 
L 585.415225 197.060858 
L 594.940175 203.467941 
L 604.465125 208.134739 
L 613.990075 213.972138 
L 623.515025 224.911132 
L 633.039975 236.075742 
L 642.564925 247.378127 
L 652.089875 259.594781 
L 661.614825 272.302631 
L 671.139775 284.048774 
L 680.664725 293.521715 
L 690.189675 302.756819 
L 699.714625 311.777168 
L 709.239575 319.68255 
L 718.764525 325.32371 
L 728.289475 330.193869 
L 737.814425 334.279133 
L 747.339375 337.275773 
L 756.864325 339.805122 
L 766.389275 341.518735 
L 775.914225 343.269032 
L 785.439175 345.139145 
L 794.964125 346.806557 
L 804.489075 348.247839 
L 814.014025 349.274533 
L 823.538975 350.082837 
L 833.063925 350.850679 
L 842.588875 351.451473 
L 852.113825 351.853427 
L 861.638775 352.114693 
L 871.163725 352.463242 
L 880.688675 352.805968 
L 890.213625 352.997108 
L 899.738575 353.085236 
L 909.263525 353.131891 
L 918.788475 353.149707 
L 928.313425 353.178752 
L 937.838375 353.206704 
L 947.363325 353.206704 
L 956.888275 353.139529 
L 966.413225 352.976238 
L 975.938175 353.047789 
L 985.463125 353.222476 
" clip-path="url(#p65dc35b491)" style="fill: none; stroke: #f0ad4e; stroke-linecap: square"/>
   </g>
   <g id="line2d_19">
    <path d="M 32.968125 322.832407 
L 42.493075 338.026337 
L 52.018025 353.221154 
L 61.542975 353.221774 
L 71.067925 353.221567 
L 80.592875 353.221361 
L 90.117825 353.220803 
L 99.642775 353.220494 
L 109.167725 353.220597 
L 118.692675 353.219689 
L 128.217625 353.219007 
L 137.742575 353.21845 
L 147.267525 353.216159 
L 156.792475 353.214136 
L 166.317425 353.208954 
L 175.842375 353.200511 
L 185.367325 353.184264 
L 194.892275 353.151833 
L 204.417225 353.105261 
L 213.942175 353.025142 
L 223.467125 352.875083 
L 232.992075 352.634295 
L 242.517025 352.281577 
L 252.041975 351.868827 
L 261.566925 351.387684 
L 271.091875 350.797006 
L 280.616825 349.903877 
L 290.141775 348.706046 
L 299.666725 347.350829 
L 309.191675 345.775281 
L 318.716625 343.915159 
L 328.241575 341.603539 
L 337.766525 339.160233 
L 347.291475 336.192784 
L 356.816425 331.670017 
L 366.341375 326.18802 
L 375.866325 319.345128 
L 385.391275 310.592653 
L 394.916225 299.623828 
L 404.441175 287.590015 
L 413.966125 275.303606 
L 423.491075 261.719266 
L 433.016025 248.480852 
L 442.540975 235.311161 
L 452.065925 224.366613 
L 461.590875 216.587385 
L 471.115825 210.384572 
L 480.640775 208.113496 
L 490.165725 208.365948 
L 499.690675 206.197885 
L 509.215625 205.430166 
L 518.740575 206.160024 
L 528.265525 206.916843 
L 537.790475 207.634315 
L 547.315425 204.783172 
L 556.840375 205.678819 
L 566.365325 211.42359 
L 575.890275 217.134856 
L 585.415225 222.831424 
L 594.940175 228.396429 
L 604.465125 231.949355 
L 613.990075 237.156687 
L 623.515025 246.742714 
L 633.039975 256.037211 
L 642.564925 265.532406 
L 652.089875 275.904957 
L 661.614825 286.560122 
L 671.139775 296.225771 
L 680.664725 304.007023 
L 690.189675 311.49437 
L 699.714625 318.889295 
L 709.239575 325.415698 
L 718.764525 330.239161 
L 728.289475 334.297816 
L 737.814425 337.456529 
L 747.339375 339.898349 
L 756.864325 342.016372 
L 766.389275 343.395557 
L 775.914225 344.780894 
L 785.439175 346.290898 
L 794.964125 347.616431 
L 804.489075 348.670353 
L 814.014025 349.369287 
L 823.538975 350.017314 
L 833.063925 350.642178 
L 842.588875 351.173588 
L 852.113825 351.610595 
L 861.638775 351.874359 
L 871.163725 352.234592 
L 880.688675 352.59309 
L 890.213625 352.82527 
L 899.738575 353.0007 
L 909.263525 353.111165 
L 918.788475 353.147683 
L 928.313425 353.179248 
L 937.838375 353.207715 
L 947.363325 353.210255 
L 956.888275 353.158583 
L 966.413225 353.021055 
L 975.938175 353.076814 
L 985.463125 353.223054 
" clip-path="url(#p65dc35b491)" style="fill: none; stroke: #f0ad4e; stroke-linecap: square"/>
   </g>
   <g id="line2d_20">
    <path d="M 32.968125 298.585223 
L 42.493075 325.902951 
L 52.018025 353.22068 
L 61.542975 353.221092 
L 71.067925 353.220989 
L 80.592875 353.219998 
L 90.117825 353.219874 
L 99.642775 353.219895 
L 109.167725 353.219689 
L 118.692675 353.218574 
L 128.217625 353.217335 
L 137.742575 353.215539 
L 147.267525 353.212959 
L 156.792475 353.21075 
L 166.317425 353.205073 
L 175.842375 353.195969 
L 185.367325 353.177369 
L 194.892275 353.143699 
L 204.417225 353.091429 
L 213.942175 353.002806 
L 223.467125 352.844799 
L 232.992075 352.573211 
L 242.517025 352.195142 
L 252.041975 351.776157 
L 261.566925 351.268652 
L 271.091875 350.649568 
L 280.616825 349.745168 
L 290.141775 348.483961 
L 299.666725 347.067845 
L 309.191675 345.448697 
L 318.716625 343.436432 
L 328.241575 340.910757 
L 337.766525 338.166136 
L 347.291475 334.74981 
L 356.816425 329.564504 
L 366.341375 323.244125 
L 375.866325 315.638345 
L 385.391275 306.132065 
L 394.916225 293.702801 
L 404.441175 281.573202 
L 413.966125 270.827102 
L 423.491075 258.991366 
L 433.016025 248.293738 
L 442.540975 238.171697 
L 452.065925 230.177093 
L 461.590875 224.388392 
L 471.115825 221.350176 
L 480.640775 222.356309 
L 490.165725 223.952583 
L 499.690675 221.266652 
L 509.215625 221.42181 
L 518.740575 224.515021 
L 528.265525 226.289079 
L 537.790475 226.36096 
L 547.315425 221.114425 
L 556.840375 221.269955 
L 566.365325 226.785002 
L 575.890275 229.177566 
L 585.415225 235.459486 
L 594.940175 242.95218 
L 604.465125 243.298416 
L 613.990075 246.234074 
L 623.515025 253.489654 
L 633.039975 258.82923 
L 642.564925 264.70034 
L 652.089875 271.765111 
L 661.614825 279.186893 
L 671.139775 286.745915 
L 680.664725 292.992225 
L 690.189675 299.223361 
L 699.714625 306.42888 
L 709.239575 313.47666 
L 718.764525 319.424751 
L 728.289475 325.195306 
L 737.814425 330.472806 
L 747.339375 334.855547 
L 756.864325 338.592263 
L 766.389275 341.560064 
L 775.914225 344.145626 
L 785.439175 346.380038 
L 794.964125 348.103395 
L 804.489075 349.407788 
L 814.014025 350.319249 
L 823.538975 351.01073 
L 833.063925 351.616581 
L 842.588875 352.043679 
L 852.113825 352.316589 
L 861.638775 352.488819 
L 871.163725 352.723744 
L 880.688675 352.942877 
L 890.213625 353.057058 
L 899.738575 353.12064 
L 909.263525 353.159182 
L 918.788475 353.174355 
L 928.313425 353.195536 
L 937.838375 353.213599 
L 947.363325 353.213826 
L 956.888275 353.164838 
L 966.413225 353.029395 
L 975.938175 353.080612 
L 985.463125 353.223239 
" clip-path="url(#p65dc35b491)" style="fill: none; stroke: #f0ad4e; stroke-linecap: square"/>
   </g>
   <g id="line2d_21">
    <path d="M 32.968125 240.082086 
L 42.493075 296.651713 
L 52.018025 353.221526 
L 61.542975 353.221547 
L 71.067925 353.220927 
L 80.592875 353.220287 
L 90.117825 353.21973 
L 99.642775 353.219565 
L 109.167725 353.219462 
L 118.692675 353.217624 
L 128.217625 353.215312 
L 137.742575 353.213145 
L 147.267525 353.21011 
L 156.792475 353.205445 
L 166.317425 353.19855 
L 175.842375 353.186101 
L 185.367325 353.159863 
L 194.892275 353.120062 
L 204.417225 353.058544 
L 213.942175 352.954974 
L 223.467125 352.771803 
L 232.992075 352.484112 
L 242.517025 352.079269 
L 252.041975 351.594224 
L 261.566925 351.003897 
L 271.091875 350.27055 
L 280.616825 349.229612 
L 290.141775 347.819503 
L 299.666725 346.279524 
L 309.191675 344.474645 
L 318.716625 342.202475 
L 328.241575 339.308414 
L 337.766525 335.94283 
L 347.291475 331.843321 
L 356.816425 325.813585 
L 366.341375 318.521176 
L 375.866325 309.689429 
L 385.391275 298.573869 
L 394.916225 284.840728 
L 404.441175 271.25548 
L 413.966125 257.969461 
L 423.491075 243.398063 
L 433.016025 229.179775 
L 442.540975 215.390897 
L 452.065925 204.962091 
L 461.590875 197.351109 
L 471.115825 191.760918 
L 480.640775 189.44775 
L 490.165725 189.75082 
L 499.690675 186.896973 
L 509.215625 186.221697 
L 518.740575 189.269781 
L 528.265525 191.681419 
L 537.790475 193.958626 
L 547.315425 192.15674 
L 556.840375 193.819611 
L 566.365325 199.378547 
L 575.890275 203.486107 
L 585.415225 211.771726 
L 594.940175 222.206456 
L 604.465125 228.192139 
L 613.990075 236.013212 
L 623.515025 247.757373 
L 633.039975 256.078767 
L 642.564925 264.508519 
L 652.089875 275.570406 
L 661.614825 285.778881 
L 671.139775 294.960519 
L 680.664725 302.691585 
L 690.189675 310.119809 
L 699.714625 317.415107 
L 709.239575 323.800142 
L 718.764525 328.638262 
L 728.289475 332.663144 
L 737.814425 335.836577 
L 747.339375 338.263925 
L 756.864325 340.612621 
L 766.389275 342.189304 
L 775.914225 343.481414 
L 785.439175 345.282928 
L 794.964125 346.630942 
L 804.489075 347.125585 
L 814.014025 347.582492 
L 823.538975 348.378039 
L 833.063925 349.2722 
L 842.588875 350.021814 
L 852.113825 350.486648 
L 861.638775 350.716557 
L 871.163725 351.047352 
L 880.688675 351.476122 
L 890.213625 352.006045 
L 899.738575 352.527134 
L 909.263525 352.876157 
L 918.788475 353.033028 
L 928.313425 353.121899 
L 937.838375 353.187712 
L 947.363325 353.201378 
L 956.888275 353.138538 
L 966.413225 352.970829 
L 975.938175 353.042896 
L 985.463125 353.222641 
" clip-path="url(#p65dc35b491)" style="fill: none; stroke: #d9534f; stroke-linecap: square"/>
   </g>
   <g id="line2d_22">
    <path d="M 32.968125 270.188407 
L 42.493075 311.704399 
L 52.018025 353.220927 
L 61.542975 353.221567 
L 71.067925 353.221216 
L 80.592875 353.221051 
L 90.117825 353.221175 
L 99.642775 353.220742 
L 109.167725 353.220184 
L 118.692675 353.219235 
L 128.217625 353.217728 
L 137.742575 353.216633 
L 147.267525 353.21556 
L 156.792475 353.212381 
L 166.317425 353.206518 
L 175.842375 353.197992 
L 185.367325 353.178917 
L 194.892275 353.144277 
L 204.417225 353.094278 
L 213.942175 353.00423 
L 223.467125 352.85155 
L 232.992075 352.619452 
L 242.517025 352.279203 
L 252.041975 351.850929 
L 261.566925 351.340142 
L 271.091875 350.716062 
L 280.616825 349.811558 
L 290.141775 348.576487 
L 299.666725 347.199242 
L 309.191675 345.624995 
L 318.716625 343.609178 
L 328.241575 340.990112 
L 337.766525 338.060709 
L 347.291475 334.296268 
L 356.816425 328.417168 
L 366.341375 321.348001 
L 375.866325 312.799609 
L 385.391275 301.901303 
L 394.916225 288.490494 
L 404.441175 275.142297 
L 413.966125 261.555747 
L 423.491075 246.909557 
L 433.016025 233.554258 
L 442.540975 220.870024 
L 452.065925 211.936276 
L 461.590875 205.634993 
L 471.115825 200.24197 
L 480.640775 198.839953 
L 490.165725 199.885082 
L 499.690675 197.188085 
L 509.215625 195.805948 
L 518.740575 197.638717 
L 528.265525 199.86706 
L 537.790475 202.152669 
L 547.315425 200.636409 
L 556.840375 201.805689 
L 566.365325 207.235623 
L 575.890275 212.110076 
L 585.415225 219.34976 
L 594.940175 227.600243 
L 604.465125 232.586007 
L 613.990075 239.927753 
L 623.515025 250.682978 
L 633.039975 258.314129 
L 642.564925 266.128183 
L 652.089875 276.724595 
L 661.614825 286.844427 
L 671.139775 295.747643 
L 680.664725 303.262033 
L 690.189675 310.618829 
L 699.714625 318.323017 
L 709.239575 324.917751 
L 718.764525 329.592105 
L 728.289475 333.59112 
L 737.814425 336.692279 
L 747.339375 339.278893 
L 756.864325 341.743999 
L 766.389275 343.464672 
L 775.914225 344.960536 
L 785.439175 346.555468 
L 794.964125 347.75978 
L 804.489075 348.718742 
L 814.014025 349.647771 
L 823.538975 350.413095 
L 833.063925 351.067418 
L 842.588875 351.569472 
L 852.113825 351.933731 
L 861.638775 352.173755 
L 871.163725 352.479653 
L 880.688675 352.822421 
L 890.213625 353.03534 
L 899.738575 353.108977 
L 909.263525 353.142027 
L 918.788475 353.152039 
L 928.313425 353.17803 
L 937.838375 353.205073 
L 947.363325 353.208871 
L 956.888275 353.158109 
L 966.413225 352.982864 
L 975.938175 353.039015 
L 985.463125 353.222992 
" clip-path="url(#p65dc35b491)" style="fill: none; stroke: #f0ad4e; stroke-linecap: square"/>
   </g>
   <g id="line2d_23">
    <path d="M 32.968125 290.238974 
L 42.493075 321.729125 
L 52.018025 353.220494 
L 61.542975 353.221588 
L 71.067925 353.221216 
L 80.592875 353.220762 
L 90.117825 353.220453 
L 99.642775 353.220432 
L 109.167725 353.220205 
L 118.692675 353.219235 
L 128.217625 353.217996 
L 137.742575 353.216654 
L 147.267525 353.215106 
L 156.792475 353.212154 
L 166.317425 353.206373 
L 175.842375 353.19665 
L 185.367325 353.177121 
L 194.892275 353.148406 
L 204.417225 353.103176 
L 213.942175 353.01769 
L 223.467125 352.872462 
L 232.992075 352.643956 
L 242.517025 352.317951 
L 252.041975 351.904251 
L 261.566925 351.384938 
L 271.091875 350.730946 
L 280.616825 349.784535 
L 290.141775 348.442137 
L 299.666725 346.839422 
L 309.191675 344.954281 
L 318.716625 342.48517 
L 328.241575 339.057407 
L 337.766525 334.887214 
L 347.291475 329.513225 
L 356.816425 321.470624 
L 366.341375 311.88274 
L 375.866325 300.730702 
L 385.391275 287.332299 
L 394.916225 272.059841 
L 404.441175 257.922456 
L 413.966125 244.428782 
L 423.491075 230.419347 
L 433.016025 217.432353 
L 442.540975 205.004245 
L 452.065925 196.556636 
L 461.590875 189.627619 
L 471.115825 183.584443 
L 480.640775 182.178256 
L 490.165725 183.057244 
L 499.690675 179.341254 
L 509.215625 177.25785 
L 518.740575 180.123712 
L 528.265525 184.045541 
L 537.790475 186.759362 
L 547.315425 184.361947 
L 556.840375 185.336206 
L 566.365325 191.542693 
L 575.890275 196.548791 
L 585.415225 204.755365 
L 594.940175 214.756392 
L 604.465125 220.3061 
L 613.990075 228.588354 
L 623.515025 240.584285 
L 633.039975 248.929295 
L 642.564925 257.652993 
L 652.089875 269.263713 
L 661.614825 280.05364 
L 671.139775 289.706284 
L 680.664725 297.798698 
L 690.189675 305.907812 
L 699.714625 314.300468 
L 709.239575 321.377852 
L 718.764525 326.631034 
L 728.289475 331.085842 
L 737.814425 334.741015 
L 747.339375 337.689101 
L 756.864325 340.142275 
L 766.389275 341.847383 
L 775.914225 343.430652 
L 785.439175 345.289307 
L 794.964125 346.709181 
L 804.489075 347.714137 
L 814.014025 348.748614 
L 823.538975 349.715771 
L 833.063925 350.589227 
L 842.588875 351.254718 
L 852.113825 351.688772 
L 861.638775 351.944486 
L 871.163725 352.267312 
L 880.688675 352.665839 
L 890.213625 352.94969 
L 899.738575 353.061124 
L 909.263525 353.1155 
L 918.788475 353.139756 
L 928.313425 353.175016 
L 937.838375 353.204846 
L 947.363325 353.209202 
L 956.888275 353.162526 
L 966.413225 353.006398 
L 975.938175 353.058358 
L 985.463125 353.22231 
" clip-path="url(#p65dc35b491)" style="fill: none; stroke: #f0ad4e; stroke-linecap: square"/>
   </g>
   <g id="line2d_24">
    <path d="M 32.968125 343.18912 
L 42.493075 348.206056 
L 52.018025 353.223219 
L 61.542975 353.223528 
L 71.067925 353.223466 
L 80.592875 353.223322 
L 90.117825 353.223363 
L 99.642775 353.223322 
L 109.167725 353.223157 
L 118.692675 353.222579 
L 128.217625 353.221856 
L 137.742575 353.221072 
L 147.267525 353.219131 
L 156.792475 353.216179 
L 166.317425 353.212236 
L 175.842375 353.206477 
L 185.367325 353.188661 
L 194.892275 353.15687 
L 204.417225 353.106458 
L 213.942175 353.001898 
L 223.467125 352.83906 
L 232.992075 352.596414 
L 242.517025 352.247185 
L 252.041975 351.816185 
L 261.566925 351.291691 
L 271.091875 350.71086 
L 280.616825 349.811868 
L 290.141775 348.585178 
L 299.666725 347.231735 
L 309.191675 345.625552 
L 318.716625 343.690659 
L 328.241575 341.26777 
L 337.766525 338.711109 
L 347.291475 335.580698 
L 356.816425 330.860825 
L 366.341375 325.002225 
L 375.866325 317.790988 
L 385.391275 309.126021 
L 394.916225 299.305709 
L 404.441175 287.922131 
L 413.966125 275.956711 
L 423.491075 264.183752 
L 433.016025 253.43691 
L 442.540975 242.784099 
L 452.065925 234.553537 
L 461.590875 228.488521 
L 471.115825 222.130384 
L 480.640775 220.377342 
L 490.165725 221.903159 
L 499.690675 221.479509 
L 509.215625 221.061185 
L 518.740575 220.993969 
L 528.265525 223.323343 
L 537.790475 226.020091 
L 547.315425 224.471896 
L 556.840375 225.639132 
L 566.365325 230.795516 
L 575.890275 236.716378 
L 585.415225 240.823029 
L 594.940175 244.347508 
L 604.465125 249.006296 
L 613.990075 253.822245 
L 623.515025 262.034867 
L 633.039975 270.426408 
L 642.564925 278.140732 
L 652.089875 286.727109 
L 661.614825 295.309047 
L 671.139775 303.577758 
L 680.664725 310.32284 
L 690.189675 316.916108 
L 699.714625 323.420236 
L 709.239575 328.988999 
L 718.764525 332.852736 
L 728.289475 336.336237 
L 737.814425 339.507853 
L 747.339375 341.697716 
L 756.864325 343.617704 
L 766.389275 344.961878 
L 775.914225 346.096517 
L 785.439175 347.498452 
L 794.964125 348.708193 
L 804.489075 349.683939 
L 814.014025 350.461793 
L 823.538975 351.034057 
L 833.063925 351.585946 
L 842.588875 351.975493 
L 852.113825 352.208312 
L 861.638775 352.380068 
L 871.163725 352.644122 
L 880.688675 352.910425 
L 890.213625 353.053899 
L 899.738575 353.110607 
L 909.263525 353.144917 
L 918.788475 353.162506 
L 928.313425 353.190416 
L 937.838375 353.213661 
L 947.363325 353.218017 
L 956.888275 353.201213 
L 966.413225 353.16137 
L 975.938175 353.18059 
L 985.463125 353.22357 
" clip-path="url(#p65dc35b491)" style="fill: none; stroke: #5cb85c; stroke-linecap: square"/>
   </g>
   <g id="line2d_25">
    <path d="M 32.968125 50.397223 
L 42.493075 201.801127 
L 52.018025 353.210482 
L 61.542975 353.216819 
L 71.067925 353.217955 
L 80.592875 353.217893 
L 90.117825 353.217728 
L 99.642775 353.217129 
L 109.167725 353.21556 
L 118.692675 353.214631 
L 128.217625 353.213991 
L 137.742575 353.212401 
L 147.267525 353.205713 
L 156.792475 353.198013 
L 166.317425 353.194152 
L 175.842375 353.189095 
L 185.367325 353.170846 
L 194.892275 353.141986 
L 204.417225 353.101669 
L 213.942175 353.006997 
L 223.467125 352.869489 
L 232.992075 352.658221 
L 242.517025 352.352736 
L 252.041975 351.977475 
L 261.566925 351.507727 
L 271.091875 351.026915 
L 280.616825 350.249039 
L 290.141775 349.164213 
L 299.666725 347.949455 
L 309.191675 346.434682 
L 318.716625 344.641941 
L 328.241575 342.208297 
L 337.766525 339.64664 
L 347.291475 336.831872 
L 356.816425 332.174818 
L 366.341375 326.344871 
L 375.866325 319.431254 
L 385.391275 310.8334 
L 394.916225 296.694383 
L 404.441175 284.182545 
L 413.966125 273.595691 
L 423.491075 258.304405 
L 433.016025 243.451344 
L 442.540975 225.427576 
L 452.065925 208.362439 
L 461.590875 194.570134 
L 471.115825 184.821187 
L 480.640775 182.775747 
L 490.165725 181.407462 
L 499.690675 169.640448 
L 509.215625 166.10573 
L 518.740575 172.099278 
L 528.265525 173.41389 
L 537.790475 169.326148 
L 547.315425 156.150243 
L 556.840375 154.222018 
L 566.365325 161.839998 
L 575.890275 164.406692 
L 585.415225 180.214421 
L 594.940175 198.258482 
L 604.465125 199.251836 
L 613.990075 208.002495 
L 623.515025 225.719106 
L 633.039975 236.731489 
L 642.564925 247.880987 
L 652.089875 262.163374 
L 661.614825 275.06705 
L 671.139775 286.568028 
L 680.664725 295.954864 
L 690.189675 304.389633 
L 699.714625 313.118678 
L 709.239575 320.921481 
L 718.764525 326.077432 
L 728.289475 330.656638 
L 737.814425 334.648511 
L 747.339375 337.594161 
L 756.864325 339.980057 
L 766.389275 341.642515 
L 775.914225 343.418926 
L 785.439175 345.194346 
L 794.964125 346.689982 
L 804.489075 347.922969 
L 814.014025 348.822394 
L 823.538975 349.62787 
L 833.063925 350.405044 
L 842.588875 351.016613 
L 852.113825 351.485824 
L 861.638775 351.763007 
L 871.163725 352.158829 
L 880.688675 352.55876 
L 890.213625 352.804771 
L 899.738575 352.977373 
L 909.263525 353.089592 
L 918.788475 353.128547 
L 928.313425 353.166015 
L 937.838375 353.202369 
L 947.363325 353.20305 
L 956.888275 353.130694 
L 966.413225 352.935384 
L 975.938175 353.013087 
L 985.463125 353.221774 
" clip-path="url(#p65dc35b491)" style="fill: none; stroke: #d9534f; stroke-linecap: square"/>
   </g>
   <g id="line2d_26">
    <path d="M 32.968125 329.058011 
L 42.493075 341.137859 
L 52.018025 353.218553 
L 61.542975 353.219668 
L 71.067925 353.219771 
L 80.592875 353.219565 
L 90.117825 353.219214 
L 99.642775 353.218801 
L 109.167725 353.218099 
L 118.692675 353.216881 
L 128.217625 353.216344 
L 137.742575 353.215684 
L 147.267525 353.212443 
L 156.792475 353.208108 
L 166.317425 353.201171 
L 175.842375 353.190643 
L 185.367325 353.171816 
L 194.892275 353.138229 
L 204.417225 353.087383 
L 213.942175 352.986374 
L 223.467125 352.822648 
L 232.992075 352.578929 
L 242.517025 352.218593 
L 252.041975 351.803985 
L 261.566925 351.290349 
L 271.091875 350.648289 
L 280.616825 349.688728 
L 290.141775 348.425127 
L 299.666725 346.975918 
L 309.191675 345.152997 
L 318.716625 342.981156 
L 328.241575 340.20592 
L 337.766525 337.051087 
L 347.291475 333.315382 
L 356.816425 327.968023 
L 366.341375 321.610031 
L 375.866325 314.047789 
L 385.391275 305.319219 
L 394.916225 295.960025 
L 404.441175 285.672092 
L 413.966125 275.710907 
L 423.491075 266.370086 
L 433.016025 257.255499 
L 442.540975 248.214941 
L 452.065925 242.461685 
L 461.590875 238.580422 
L 471.115825 234.017709 
L 480.640775 233.321108 
L 490.165725 234.555168 
L 499.690675 233.891205 
L 509.215625 233.45426 
L 518.740575 234.115375 
L 528.265525 236.421813 
L 537.790475 238.504742 
L 547.315425 237.811155 
L 556.840375 238.990282 
L 566.365325 243.534311 
L 575.890275 248.577733 
L 585.415225 251.907872 
L 594.940175 254.655776 
L 604.465125 258.174453 
L 613.990075 262.568052 
L 623.515025 269.329794 
L 633.039975 276.155944 
L 642.564925 282.90726 
L 652.089875 290.308089 
L 661.614825 297.872829 
L 671.139775 305.043068 
L 680.664725 311.328766 
L 690.189675 317.567726 
L 699.714625 323.675083 
L 709.239575 329.154272 
L 718.764525 333.211235 
L 728.289475 336.756006 
L 737.814425 339.700562 
L 747.339375 341.825831 
L 756.864325 343.715968 
L 766.389275 345.119492 
L 775.914225 346.324052 
L 785.439175 347.54905 
L 794.964125 348.691224 
L 804.489075 349.697749 
L 814.014025 350.41937 
L 823.538975 350.96711 
L 833.063925 351.489974 
L 842.588875 351.91767 
L 852.113825 352.232073 
L 861.638775 352.452383 
L 871.163725 352.705103 
L 880.688675 352.944322 
L 890.213625 353.087466 
L 899.738575 353.145371 
L 909.263525 353.175078 
L 918.788475 353.186721 
L 928.313425 353.200985 
L 937.838375 353.213888 
L 947.363325 353.215477 
L 956.888275 353.189301 
L 966.413225 353.109142 
L 975.938175 353.138352 
L 985.463125 353.223363 
" clip-path="url(#p65dc35b491)" style="fill: none; stroke: #f0ad4e; stroke-linecap: square"/>
   </g>
   <g id="line2d_27">
    <path d="M 32.968125 353.2239 
L 985.463125 353.2239 
" clip-path="url(#p65dc35b491)" style="fill: none; stroke: #dedede; stroke-width: 2; stroke-linecap: square"/>
   </g>
   <g id="text_18">
    <!-- FastQC: Per Sequence GC Content -->
    <g transform="translate(372.579375 19.3575) scale(0.16 -0.16)">
     <defs>
      <path id="DejaVuSans-46" d="M 628 4666 
L 3309 4666 
L 3309 4134 
L 1259 4134 
L 1259 2759 
L 3109 2759 
L 3109 2228 
L 1259 2228 
L 1259 0 
L 628 0 
L 628 4666 
z
" transform="scale(0.015625)"/>
      <path id="DejaVuSans-61" d="M 2194 1759 
Q 1497 1759 1228 1600 
Q 959 1441 959 1056 
Q 959 750 1161 570 
Q 1363 391 1709 391 
Q 2188 391 2477 730 
Q 2766 1069 2766 1631 
L 2766 1759 
L 2194 1759 
z
M 3341 1997 
L 3341 0 
L 2766 0 
L 2766 531 
Q 2569 213 2275 61 
Q 1981 -91 1556 -91 
Q 1019 -91 701 211 
Q 384 513 384 1019 
Q 384 1609 779 1909 
Q 1175 2209 1959 2209 
L 2766 2209 
L 2766 2266 
Q 2766 2663 2505 2880 
Q 2244 3097 1772 3097 
Q 1472 3097 1187 3025 
Q 903 2953 641 2809 
L 641 3341 
Q 956 3463 1253 3523 
Q 1550 3584 1831 3584 
Q 2591 3584 2966 3190 
Q 3341 2797 3341 1997 
z
" transform="scale(0.015625)"/>
      <path id="DejaVuSans-73" d="M 2834 3397 
L 2834 2853 
Q 2591 2978 2328 3040 
Q 2066 3103 1784 3103 
Q 1356 3103 1142 2972 
Q 928 2841 928 2578 
Q 928 2378 1081 2264 
Q 1234 2150 1697 2047 
L 1894 2003 
Q 2506 1872 2764 1633 
Q 3022 1394 3022 966 
Q 3022 478 2636 193 
Q 2250 -91 1575 -91 
Q 1294 -91 989 -36 
Q 684 19 347 128 
L 347 722 
Q 666 556 975 473 
Q 1284 391 1588 391 
Q 1994 391 2212 530 
Q 2431 669 2431 922 
Q 2431 1156 2273 1281 
Q 2116 1406 1581 1522 
L 1381 1569 
Q 847 1681 609 1914 
Q 372 2147 372 2553 
Q 372 3047 722 3315 
Q 1072 3584 1716 3584 
Q 2034 3584 2315 3537 
Q 2597 3491 2834 3397 
z
" transform="scale(0.015625)"/>
      <path id="DejaVuSans-51" d="M 2522 4238 
Q 1834 4238 1429 3725 
Q 1025 3213 1025 2328 
Q 1025 1447 1429 934 
Q 1834 422 2522 422 
Q 3209 422 3611 934 
Q 4013 1447 4013 2328 
Q 4013 3213 3611 3725 
Q 3209 4238 2522 4238 
z
M 3406 84 
L 4238 -825 
L 3475 -825 
L 2784 -78 
Q 2681 -84 2626 -87 
Q 2572 -91 2522 -91 
Q 1538 -91 948 567 
Q 359 1225 359 2328 
Q 359 3434 948 4092 
Q 1538 4750 2522 4750 
Q 3503 4750 4090 4092 
Q 4678 3434 4678 2328 
Q 4678 1516 4351 937 
Q 4025 359 3406 84 
z
" transform="scale(0.015625)"/>
      <path id="DejaVuSans-3a" d="M 750 794 
L 1409 794 
L 1409 0 
L 750 0 
L 750 794 
z
M 750 3309 
L 1409 3309 
L 1409 2516 
L 750 2516 
L 750 3309 
z
" transform="scale(0.015625)"/>
      <path id="DejaVuSans-50" d="M 1259 4147 
L 1259 2394 
L 2053 2394 
Q 2494 2394 2734 2622 
Q 2975 2850 2975 3272 
Q 2975 3691 2734 3919 
Q 2494 4147 2053 4147 
L 1259 4147 
z
M 628 4666 
L 2053 4666 
Q 2838 4666 3239 4311 
Q 3641 3956 3641 3272 
Q 3641 2581 3239 2228 
Q 2838 1875 2053 1875 
L 1259 1875 
L 1259 0 
L 628 0 
L 628 4666 
z
" transform="scale(0.015625)"/>
      <path id="DejaVuSans-72" d="M 2631 2963 
Q 2534 3019 2420 3045 
Q 2306 3072 2169 3072 
Q 1681 3072 1420 2755 
Q 1159 2438 1159 1844 
L 1159 0 
L 581 0 
L 581 3500 
L 1159 3500 
L 1159 2956 
Q 1341 3275 1631 3429 
Q 1922 3584 2338 3584 
Q 2397 3584 2469 3576 
Q 2541 3569 2628 3553 
L 2631 2963 
z
" transform="scale(0.015625)"/>
      <path id="DejaVuSans-53" d="M 3425 4513 
L 3425 3897 
Q 3066 4069 2747 4153 
Q 2428 4238 2131 4238 
Q 1616 4238 1336 4038 
Q 1056 3838 1056 3469 
Q 1056 3159 1242 3001 
Q 1428 2844 1947 2747 
L 2328 2669 
Q 3034 2534 3370 2195 
Q 3706 1856 3706 1288 
Q 3706 609 3251 259 
Q 2797 -91 1919 -91 
Q 1588 -91 1214 -16 
Q 841 59 441 206 
L 441 856 
Q 825 641 1194 531 
Q 1563 422 1919 422 
Q 2459 422 2753 634 
Q 3047 847 3047 1241 
Q 3047 1584 2836 1778 
Q 2625 1972 2144 2069 
L 1759 2144 
Q 1053 2284 737 2584 
Q 422 2884 422 3419 
Q 422 4038 858 4394 
Q 1294 4750 2059 4750 
Q 2388 4750 2728 4690 
Q 3069 4631 3425 4513 
z
" transform="scale(0.015625)"/>
      <path id="DejaVuSans-71" d="M 947 1747 
Q 947 1113 1208 752 
Q 1469 391 1925 391 
Q 2381 391 2643 752 
Q 2906 1113 2906 1747 
Q 2906 2381 2643 2742 
Q 2381 3103 1925 3103 
Q 1469 3103 1208 2742 
Q 947 2381 947 1747 
z
M 2906 525 
Q 2725 213 2448 61 
Q 2172 -91 1784 -91 
Q 1150 -91 751 415 
Q 353 922 353 1747 
Q 353 2572 751 3078 
Q 1150 3584 1784 3584 
Q 2172 3584 2448 3432 
Q 2725 3281 2906 2969 
L 2906 3500 
L 3481 3500 
L 3481 -1331 
L 2906 -1331 
L 2906 525 
z
" transform="scale(0.015625)"/>
      <path id="DejaVuSans-63" d="M 3122 3366 
L 3122 2828 
Q 2878 2963 2633 3030 
Q 2388 3097 2138 3097 
Q 1578 3097 1268 2742 
Q 959 2388 959 1747 
Q 959 1106 1268 751 
Q 1578 397 2138 397 
Q 2388 397 2633 464 
Q 2878 531 3122 666 
L 3122 134 
Q 2881 22 2623 -34 
Q 2366 -91 2075 -91 
Q 1284 -91 818 406 
Q 353 903 353 1747 
Q 353 2603 823 3093 
Q 1294 3584 2113 3584 
Q 2378 3584 2631 3529 
Q 2884 3475 3122 3366 
z
" transform="scale(0.015625)"/>
     </defs>
     <use xlink:href="#DejaVuSans-46"/>
     <use xlink:href="#DejaVuSans-61" x="48.394531"/>
     <use xlink:href="#DejaVuSans-73" x="109.673828"/>
     <use xlink:href="#DejaVuSans-74" x="161.773438"/>
     <use xlink:href="#DejaVuSans-51" x="200.982422"/>
     <use xlink:href="#DejaVuSans-43" x="279.693359"/>
     <use xlink:href="#DejaVuSans-3a" x="349.517578"/>
     <use xlink:href="#DejaVuSans-20" x="383.208984"/>
     <use xlink:href="#DejaVuSans-50" x="414.996094"/>
     <use xlink:href="#DejaVuSans-65" x="471.673828"/>
     <use xlink:href="#DejaVuSans-72" x="533.197266"/>
     <use xlink:href="#DejaVuSans-20" x="574.310547"/>
     <use xlink:href="#DejaVuSans-53" x="606.097656"/>
     <use xlink:href="#DejaVuSans-65" x="669.574219"/>
     <use xlink:href="#DejaVuSans-71" x="731.097656"/>
     <use xlink:href="#DejaVuSans-75" x="794.574219"/>
     <use xlink:href="#DejaVuSans-65" x="857.953125"/>
     <use xlink:href="#DejaVuSans-6e" x="919.476562"/>
     <use xlink:href="#DejaVuSans-63" x="982.855469"/>
     <use xlink:href="#DejaVuSans-65" x="1037.835938"/>
     <use xlink:href="#DejaVuSans-20" x="1099.359375"/>
     <use xlink:href="#DejaVuSans-47" x="1131.146484"/>
     <use xlink:href="#DejaVuSans-43" x="1208.636719"/>
     <use xlink:href="#DejaVuSans-20" x="1278.460938"/>
     <use xlink:href="#DejaVuSans-43" x="1310.248047"/>
     <use xlink:href="#DejaVuSans-6f" x="1380.072266"/>
     <use xlink:href="#DejaVuSans-6e" x="1441.253906"/>
     <use xlink:href="#DejaVuSans-74" x="1504.632812"/>
     <use xlink:href="#DejaVuSans-65" x="1543.841797"/>
     <use xlink:href="#DejaVuSans-6e" x="1605.365234"/>
     <use xlink:href="#DejaVuSans-74" x="1668.744141"/>
    </g>
   </g>
  </g>
 </g>
 <defs>
  <clipPath id="p65dc35b491">
   <rect x="32.968125" y="35.2559" width="952.495" height="317.968"/>
  </clipPath>
 </defs>
</svg>
