<?xml version="1.0" encoding="utf-8" standalone="no"?>
<!DOCTYPE svg PUBLIC "-//W3C//DTD SVG 1.1//EN"
  "http://www.w3.org/Graphics/SVG/1.1/DTD/svg11.dtd">
<svg xmlns:xlink="http://www.w3.org/1999/xlink" width="1000.298125pt" height="388.844525pt" viewBox="0 0 1000.298125 388.844525" xmlns="http://www.w3.org/2000/svg" version="1.1">
 <metadata>
  <rdf:RDF xmlns:dc="http://purl.org/dc/elements/1.1/" xmlns:cc="http://creativecommons.org/ns#" xmlns:rdf="http://www.w3.org/1999/02/22-rdf-syntax-ns#">
   <cc:Work>
    <dc:type rdf:resource="http://purl.org/dc/dcmitype/StillImage"/>
    <dc:date>2025-03-11T15:51:13.369735</dc:date>
    <dc:format>image/svg+xml</dc:format>
    <dc:creator>
     <cc:Agent>
      <dc:title>Matplotlib v3.8.2, https://matplotlib.org/</dc:title>
     </cc:Agent>
    </dc:creator>
   </cc:Work>
  </rdf:RDF>
 </metadata>
 <defs>
  <style type="text/css">*{stroke-linejoin: round; stroke-linecap: butt}</style>
 </defs>
 <g id="figure_1">
  <g id="axes_1">
   <g id="patch_1">
    <path d="M 32.968125 353.2239 
L 985.463125 353.2239 
L 985.463125 35.2559 
L 32.968125 35.2559 
z
" style="fill: #ffffff"/>
   </g>
   <g id="matplotlib.axis_1">
    <g id="xtick_1">
     <g id="text_1">
      <!-- 0 -->
      <g transform="translate(30.423125 366.30265) scale(0.08 -0.08)">
       <defs>
        <path id="DejaVuSans-30" d="M 2034 4250 
Q 1547 4250 1301 3770 
Q 1056 3291 1056 2328 
Q 1056 1369 1301 889 
Q 1547 409 2034 409 
Q 2525 409 2770 889 
Q 3016 1369 3016 2328 
Q 3016 3291 2770 3770 
Q 2525 4250 2034 4250 
z
M 2034 4750 
Q 2819 4750 3233 4129 
Q 3647 3509 3647 2328 
Q 3647 1150 3233 529 
Q 2819 -91 2034 -91 
Q 1250 -91 836 529 
Q 422 1150 422 2328 
Q 422 3509 836 4129 
Q 1250 4750 2034 4750 
z
" transform="scale(0.015625)"/>
       </defs>
       <use xlink:href="#DejaVuSans-30"/>
      </g>
     </g>
    </g>
    <g id="xtick_2">
     <g id="text_2">
      <!-- 20 -->
      <g transform="translate(218.377125 366.30265) scale(0.08 -0.08)">
       <defs>
        <path id="DejaVuSans-32" d="M 1228 531 
L 3431 531 
L 3431 0 
L 469 0 
L 469 531 
Q 828 903 1448 1529 
Q 2069 2156 2228 2338 
Q 2531 2678 2651 2914 
Q 2772 3150 2772 3378 
Q 2772 3750 2511 3984 
Q 2250 4219 1831 4219 
Q 1534 4219 1204 4116 
Q 875 4013 500 3803 
L 500 4441 
Q 881 4594 1212 4672 
Q 1544 4750 1819 4750 
Q 2544 4750 2975 4387 
Q 3406 4025 3406 3419 
Q 3406 3131 3298 2873 
Q 3191 2616 2906 2266 
Q 2828 2175 2409 1742 
Q 1991 1309 1228 531 
z
" transform="scale(0.015625)"/>
       </defs>
       <use xlink:href="#DejaVuSans-32"/>
       <use xlink:href="#DejaVuSans-30" x="63.623047"/>
      </g>
     </g>
    </g>
    <g id="xtick_3">
     <g id="text_3">
      <!-- 40 -->
      <g transform="translate(408.876125 366.30265) scale(0.08 -0.08)">
       <defs>
        <path id="DejaVuSans-34" d="M 2419 4116 
L 825 1625 
L 2419 1625 
L 2419 4116 
z
M 2253 4666 
L 3047 4666 
L 3047 1625 
L 3713 1625 
L 3713 1100 
L 3047 1100 
L 3047 0 
L 2419 0 
L 2419 1100 
L 313 1100 
L 313 1709 
L 2253 4666 
z
" transform="scale(0.015625)"/>
       </defs>
       <use xlink:href="#DejaVuSans-34"/>
       <use xlink:href="#DejaVuSans-30" x="63.623047"/>
      </g>
     </g>
    </g>
    <g id="xtick_4">
     <g id="text_4">
      <!-- 60 -->
      <g transform="translate(599.375125 366.30265) scale(0.08 -0.08)">
       <defs>
        <path id="DejaVuSans-36" d="M 2113 2584 
Q 1688 2584 1439 2293 
Q 1191 2003 1191 1497 
Q 1191 994 1439 701 
Q 1688 409 2113 409 
Q 2538 409 2786 701 
Q 3034 994 3034 1497 
Q 3034 2003 2786 2293 
Q 2538 2584 2113 2584 
z
M 3366 4563 
L 3366 3988 
Q 3128 4100 2886 4159 
Q 2644 4219 2406 4219 
Q 1781 4219 1451 3797 
Q 1122 3375 1075 2522 
Q 1259 2794 1537 2939 
Q 1816 3084 2150 3084 
Q 2853 3084 3261 2657 
Q 3669 2231 3669 1497 
Q 3669 778 3244 343 
Q 2819 -91 2113 -91 
Q 1303 -91 875 529 
Q 447 1150 447 2328 
Q 447 3434 972 4092 
Q 1497 4750 2381 4750 
Q 2619 4750 2861 4703 
Q 3103 4656 3366 4563 
z
" transform="scale(0.015625)"/>
       </defs>
       <use xlink:href="#DejaVuSans-36"/>
       <use xlink:href="#DejaVuSans-30" x="63.623047"/>
      </g>
     </g>
    </g>
    <g id="xtick_5">
     <g id="text_5">
      <!-- 80 -->
      <g transform="translate(789.874125 366.30265) scale(0.08 -0.08)">
       <defs>
        <path id="DejaVuSans-38" d="M 2034 2216 
Q 1584 2216 1326 1975 
Q 1069 1734 1069 1313 
Q 1069 891 1326 650 
Q 1584 409 2034 409 
Q 2484 409 2743 651 
Q 3003 894 3003 1313 
Q 3003 1734 2745 1975 
Q 2488 2216 2034 2216 
z
M 1403 2484 
Q 997 2584 770 2862 
Q 544 3141 544 3541 
Q 544 4100 942 4425 
Q 1341 4750 2034 4750 
Q 2731 4750 3128 4425 
Q 3525 4100 3525 3541 
Q 3525 3141 3298 2862 
Q 3072 2584 2669 2484 
Q 3125 2378 3379 2068 
Q 3634 1759 3634 1313 
Q 3634 634 3220 271 
Q 2806 -91 2034 -91 
Q 1263 -91 848 271 
Q 434 634 434 1313 
Q 434 1759 690 2068 
Q 947 2378 1403 2484 
z
M 1172 3481 
Q 1172 3119 1398 2916 
Q 1625 2713 2034 2713 
Q 2441 2713 2670 2916 
Q 2900 3119 2900 3481 
Q 2900 3844 2670 4047 
Q 2441 4250 2034 4250 
Q 1625 4250 1398 4047 
Q 1172 3844 1172 3481 
z
" transform="scale(0.015625)"/>
       </defs>
       <use xlink:href="#DejaVuSans-38"/>
       <use xlink:href="#DejaVuSans-30" x="63.623047"/>
      </g>
     </g>
    </g>
    <g id="xtick_6">
     <g id="text_6">
      <!-- 100 -->
      <g transform="translate(977.828125 366.30265) scale(0.08 -0.08)">
       <defs>
        <path id="DejaVuSans-31" d="M 794 531 
L 1825 531 
L 1825 4091 
L 703 3866 
L 703 4441 
L 1819 4666 
L 2450 4666 
L 2450 531 
L 3481 531 
L 3481 0 
L 794 0 
L 794 531 
z
" transform="scale(0.015625)"/>
       </defs>
       <use xlink:href="#DejaVuSans-31"/>
       <use xlink:href="#DejaVuSans-30" x="63.623047"/>
       <use xlink:href="#DejaVuSans-30" x="127.246094"/>
      </g>
     </g>
    </g>
    <g id="text_7">
     <!-- % GC -->
     <g transform="translate(495.510156 379.564837) scale(0.1 -0.1)">
      <defs>
       <path id="DejaVuSans-25" d="M 4653 2053 
Q 4381 2053 4226 1822 
Q 4072 1591 4072 1178 
Q 4072 772 4226 539 
Q 4381 306 4653 306 
Q 4919 306 5073 539 
Q 5228 772 5228 1178 
Q 5228 1588 5073 1820 
Q 4919 2053 4653 2053 
z
M 4653 2450 
Q 5147 2450 5437 2106 
Q 5728 1763 5728 1178 
Q 5728 594 5436 251 
Q 5144 -91 4653 -91 
Q 4153 -91 3862 251 
Q 3572 594 3572 1178 
Q 3572 1766 3864 2108 
Q 4156 2450 4653 2450 
z
M 1428 4353 
Q 1159 4353 1004 4120 
Q 850 3888 850 3481 
Q 850 3069 1003 2837 
Q 1156 2606 1428 2606 
Q 1700 2606 1854 2837 
Q 2009 3069 2009 3481 
Q 2009 3884 1853 4118 
Q 1697 4353 1428 4353 
z
M 4250 4750 
L 4750 4750 
L 1831 -91 
L 1331 -91 
L 4250 4750 
z
M 1428 4750 
Q 1922 4750 2215 4408 
Q 2509 4066 2509 3481 
Q 2509 2891 2217 2550 
Q 1925 2209 1428 2209 
Q 931 2209 642 2551 
Q 353 2894 353 3481 
Q 353 4063 643 4406 
Q 934 4750 1428 4750 
z
" transform="scale(0.015625)"/>
       <path id="DejaVuSans-20" transform="scale(0.015625)"/>
       <path id="DejaVuSans-47" d="M 3809 666 
L 3809 1919 
L 2778 1919 
L 2778 2438 
L 4434 2438 
L 4434 434 
Q 4069 175 3628 42 
Q 3188 -91 2688 -91 
Q 1594 -91 976 548 
Q 359 1188 359 2328 
Q 359 3472 976 4111 
Q 1594 4750 2688 4750 
Q 3144 4750 3555 4637 
Q 3966 4525 4313 4306 
L 4313 3634 
Q 3963 3931 3569 4081 
Q 3175 4231 2741 4231 
Q 1884 4231 1454 3753 
Q 1025 3275 1025 2328 
Q 1025 1384 1454 906 
Q 1884 428 2741 428 
Q 3075 428 3337 486 
Q 3600 544 3809 666 
z
" transform="scale(0.015625)"/>
       <path id="DejaVuSans-43" d="M 4122 4306 
L 4122 3641 
Q 3803 3938 3442 4084 
Q 3081 4231 2675 4231 
Q 1875 4231 1450 3742 
Q 1025 3253 1025 2328 
Q 1025 1406 1450 917 
Q 1875 428 2675 428 
Q 3081 428 3442 575 
Q 3803 722 4122 1019 
L 4122 359 
Q 3791 134 3420 21 
Q 3050 -91 2638 -91 
Q 1578 -91 968 557 
Q 359 1206 359 2328 
Q 359 3453 968 4101 
Q 1578 4750 2638 4750 
Q 3056 4750 3426 4639 
Q 3797 4528 4122 4306 
z
" transform="scale(0.015625)"/>
      </defs>
      <use xlink:href="#DejaVuSans-25"/>
      <use xlink:href="#DejaVuSans-20" x="95.019531"/>
      <use xlink:href="#DejaVuSans-47" x="126.806641"/>
      <use xlink:href="#DejaVuSans-43" x="204.296875"/>
     </g>
    </g>
   </g>
   <g id="matplotlib.axis_2">
    <g id="ytick_1">
     <g id="line2d_1">
      <path d="M 32.968125 353.2239 
L 985.463125 353.2239 
" clip-path="url(#p155a228de8)" style="fill: none; stroke: #dedede; stroke-linecap: square"/>
     </g>
     <g id="text_8">
      <!-- 0 -->
      <g transform="translate(20.878125 356.263275) scale(0.08 -0.08)">
       <use xlink:href="#DejaVuSans-30"/>
      </g>
     </g>
    </g>
    <g id="ytick_2">
     <g id="line2d_2">
      <path d="M 32.968125 300.752163 
L 985.463125 300.752163 
" clip-path="url(#p155a228de8)" style="fill: none; stroke: #dedede; stroke-linecap: square"/>
     </g>
     <g id="text_9">
      <!-- 1 -->
      <g transform="translate(20.878125 303.791538) scale(0.08 -0.08)">
       <use xlink:href="#DejaVuSans-31"/>
      </g>
     </g>
    </g>
    <g id="ytick_3">
     <g id="line2d_3">
      <path d="M 32.968125 248.280426 
L 985.463125 248.280426 
" clip-path="url(#p155a228de8)" style="fill: none; stroke: #dedede; stroke-linecap: square"/>
     </g>
     <g id="text_10">
      <!-- 2 -->
      <g transform="translate(20.878125 251.319801) scale(0.08 -0.08)">
       <use xlink:href="#DejaVuSans-32"/>
      </g>
     </g>
    </g>
    <g id="ytick_4">
     <g id="line2d_4">
      <path d="M 32.968125 195.808689 
L 985.463125 195.808689 
" clip-path="url(#p155a228de8)" style="fill: none; stroke: #dedede; stroke-linecap: square"/>
     </g>
     <g id="text_11">
      <!-- 3 -->
      <g transform="translate(20.878125 198.848064) scale(0.08 -0.08)">
       <defs>
        <path id="DejaVuSans-33" d="M 2597 2516 
Q 3050 2419 3304 2112 
Q 3559 1806 3559 1356 
Q 3559 666 3084 287 
Q 2609 -91 1734 -91 
Q 1441 -91 1130 -33 
Q 819 25 488 141 
L 488 750 
Q 750 597 1062 519 
Q 1375 441 1716 441 
Q 2309 441 2620 675 
Q 2931 909 2931 1356 
Q 2931 1769 2642 2001 
Q 2353 2234 1838 2234 
L 1294 2234 
L 1294 2753 
L 1863 2753 
Q 2328 2753 2575 2939 
Q 2822 3125 2822 3475 
Q 2822 3834 2567 4026 
Q 2313 4219 1838 4219 
Q 1578 4219 1281 4162 
Q 984 4106 628 3988 
L 628 4550 
Q 988 4650 1302 4700 
Q 1616 4750 1894 4750 
Q 2613 4750 3031 4423 
Q 3450 4097 3450 3541 
Q 3450 3153 3228 2886 
Q 3006 2619 2597 2516 
z
" transform="scale(0.015625)"/>
       </defs>
       <use xlink:href="#DejaVuSans-33"/>
      </g>
     </g>
    </g>
    <g id="ytick_5">
     <g id="line2d_5">
      <path d="M 32.968125 143.336952 
L 985.463125 143.336952 
" clip-path="url(#p155a228de8)" style="fill: none; stroke: #dedede; stroke-linecap: square"/>
     </g>
     <g id="text_12">
      <!-- 4 -->
      <g transform="translate(20.878125 146.376327) scale(0.08 -0.08)">
       <use xlink:href="#DejaVuSans-34"/>
      </g>
     </g>
    </g>
    <g id="ytick_6">
     <g id="line2d_6">
      <path d="M 32.968125 90.865216 
L 985.463125 90.865216 
" clip-path="url(#p155a228de8)" style="fill: none; stroke: #dedede; stroke-linecap: square"/>
     </g>
     <g id="text_13">
      <!-- 5 -->
      <g transform="translate(20.878125 93.904591) scale(0.08 -0.08)">
       <defs>
        <path id="DejaVuSans-35" d="M 691 4666 
L 3169 4666 
L 3169 4134 
L 1269 4134 
L 1269 2991 
Q 1406 3038 1543 3061 
Q 1681 3084 1819 3084 
Q 2600 3084 3056 2656 
Q 3513 2228 3513 1497 
Q 3513 744 3044 326 
Q 2575 -91 1722 -91 
Q 1428 -91 1123 -41 
Q 819 9 494 109 
L 494 744 
Q 775 591 1075 516 
Q 1375 441 1709 441 
Q 2250 441 2565 725 
Q 2881 1009 2881 1497 
Q 2881 1984 2565 2268 
Q 2250 2553 1709 2553 
Q 1456 2553 1204 2497 
Q 953 2441 691 2322 
L 691 4666 
z
" transform="scale(0.015625)"/>
       </defs>
       <use xlink:href="#DejaVuSans-35"/>
      </g>
     </g>
    </g>
    <g id="ytick_7">
     <g id="line2d_7">
      <path d="M 32.968125 38.393479 
L 985.463125 38.393479 
" clip-path="url(#p155a228de8)" style="fill: none; stroke: #dedede; stroke-linecap: square"/>
     </g>
     <g id="text_14">
      <!-- 6 -->
      <g transform="translate(20.878125 41.432854) scale(0.08 -0.08)">
       <use xlink:href="#DejaVuSans-36"/>
      </g>
     </g>
    </g>
    <g id="text_15">
     <!-- Percentage -->
     <g transform="translate(14.798437 222.362556) rotate(-90) scale(0.1 -0.1)">
      <defs>
       <path id="DejaVuSans-50" d="M 1259 4147 
L 1259 2394 
L 2053 2394 
Q 2494 2394 2734 2622 
Q 2975 2850 2975 3272 
Q 2975 3691 2734 3919 
Q 2494 4147 2053 4147 
L 1259 4147 
z
M 628 4666 
L 2053 4666 
Q 2838 4666 3239 4311 
Q 3641 3956 3641 3272 
Q 3641 2581 3239 2228 
Q 2838 1875 2053 1875 
L 1259 1875 
L 1259 0 
L 628 0 
L 628 4666 
z
" transform="scale(0.015625)"/>
       <path id="DejaVuSans-65" d="M 3597 1894 
L 3597 1613 
L 953 1613 
Q 991 1019 1311 708 
Q 1631 397 2203 397 
Q 2534 397 2845 478 
Q 3156 559 3463 722 
L 3463 178 
Q 3153 47 2828 -22 
Q 2503 -91 2169 -91 
Q 1331 -91 842 396 
Q 353 884 353 1716 
Q 353 2575 817 3079 
Q 1281 3584 2069 3584 
Q 2775 3584 3186 3129 
Q 3597 2675 3597 1894 
z
M 3022 2063 
Q 3016 2534 2758 2815 
Q 2500 3097 2075 3097 
Q 1594 3097 1305 2825 
Q 1016 2553 972 2059 
L 3022 2063 
z
" transform="scale(0.015625)"/>
       <path id="DejaVuSans-72" d="M 2631 2963 
Q 2534 3019 2420 3045 
Q 2306 3072 2169 3072 
Q 1681 3072 1420 2755 
Q 1159 2438 1159 1844 
L 1159 0 
L 581 0 
L 581 3500 
L 1159 3500 
L 1159 2956 
Q 1341 3275 1631 3429 
Q 1922 3584 2338 3584 
Q 2397 3584 2469 3576 
Q 2541 3569 2628 3553 
L 2631 2963 
z
" transform="scale(0.015625)"/>
       <path id="DejaVuSans-63" d="M 3122 3366 
L 3122 2828 
Q 2878 2963 2633 3030 
Q 2388 3097 2138 3097 
Q 1578 3097 1268 2742 
Q 959 2388 959 1747 
Q 959 1106 1268 751 
Q 1578 397 2138 397 
Q 2388 397 2633 464 
Q 2878 531 3122 666 
L 3122 134 
Q 2881 22 2623 -34 
Q 2366 -91 2075 -91 
Q 1284 -91 818 406 
Q 353 903 353 1747 
Q 353 2603 823 3093 
Q 1294 3584 2113 3584 
Q 2378 3584 2631 3529 
Q 2884 3475 3122 3366 
z
" transform="scale(0.015625)"/>
       <path id="DejaVuSans-6e" d="M 3513 2113 
L 3513 0 
L 2938 0 
L 2938 2094 
Q 2938 2591 2744 2837 
Q 2550 3084 2163 3084 
Q 1697 3084 1428 2787 
Q 1159 2491 1159 1978 
L 1159 0 
L 581 0 
L 581 3500 
L 1159 3500 
L 1159 2956 
Q 1366 3272 1645 3428 
Q 1925 3584 2291 3584 
Q 2894 3584 3203 3211 
Q 3513 2838 3513 2113 
z
" transform="scale(0.015625)"/>
       <path id="DejaVuSans-74" d="M 1172 4494 
L 1172 3500 
L 2356 3500 
L 2356 3053 
L 1172 3053 
L 1172 1153 
Q 1172 725 1289 603 
Q 1406 481 1766 481 
L 2356 481 
L 2356 0 
L 1766 0 
Q 1100 0 847 248 
Q 594 497 594 1153 
L 594 3053 
L 172 3053 
L 172 3500 
L 594 3500 
L 594 4494 
L 1172 4494 
z
" transform="scale(0.015625)"/>
       <path id="DejaVuSans-61" d="M 2194 1759 
Q 1497 1759 1228 1600 
Q 959 1441 959 1056 
Q 959 750 1161 570 
Q 1363 391 1709 391 
Q 2188 391 2477 730 
Q 2766 1069 2766 1631 
L 2766 1759 
L 2194 1759 
z
M 3341 1997 
L 3341 0 
L 2766 0 
L 2766 531 
Q 2569 213 2275 61 
Q 1981 -91 1556 -91 
Q 1019 -91 701 211 
Q 384 513 384 1019 
Q 384 1609 779 1909 
Q 1175 2209 1959 2209 
L 2766 2209 
L 2766 2266 
Q 2766 2663 2505 2880 
Q 2244 3097 1772 3097 
Q 1472 3097 1187 3025 
Q 903 2953 641 2809 
L 641 3341 
Q 956 3463 1253 3523 
Q 1550 3584 1831 3584 
Q 2591 3584 2966 3190 
Q 3341 2797 3341 1997 
z
" transform="scale(0.015625)"/>
       <path id="DejaVuSans-67" d="M 2906 1791 
Q 2906 2416 2648 2759 
Q 2391 3103 1925 3103 
Q 1463 3103 1205 2759 
Q 947 2416 947 1791 
Q 947 1169 1205 825 
Q 1463 481 1925 481 
Q 2391 481 2648 825 
Q 2906 1169 2906 1791 
z
M 3481 434 
Q 3481 -459 3084 -895 
Q 2688 -1331 1869 -1331 
Q 1566 -1331 1297 -1286 
Q 1028 -1241 775 -1147 
L 775 -588 
Q 1028 -725 1275 -790 
Q 1522 -856 1778 -856 
Q 2344 -856 2625 -561 
Q 2906 -266 2906 331 
L 2906 616 
Q 2728 306 2450 153 
Q 2172 0 1784 0 
Q 1141 0 747 490 
Q 353 981 353 1791 
Q 353 2603 747 3093 
Q 1141 3584 1784 3584 
Q 2172 3584 2450 3431 
Q 2728 3278 2906 2969 
L 2906 3500 
L 3481 3500 
L 3481 434 
z
" transform="scale(0.015625)"/>
      </defs>
      <use xlink:href="#DejaVuSans-50"/>
      <use xlink:href="#DejaVuSans-65" x="56.677734"/>
      <use xlink:href="#DejaVuSans-72" x="118.201172"/>
      <use xlink:href="#DejaVuSans-63" x="157.064453"/>
      <use xlink:href="#DejaVuSans-65" x="212.044922"/>
      <use xlink:href="#DejaVuSans-6e" x="273.568359"/>
      <use xlink:href="#DejaVuSans-74" x="336.947266"/>
      <use xlink:href="#DejaVuSans-61" x="376.15625"/>
      <use xlink:href="#DejaVuSans-67" x="437.435547"/>
      <use xlink:href="#DejaVuSans-65" x="500.912109"/>
     </g>
    </g>
   </g>
   <g id="line2d_8">
    <path d="M 32.968125 305.988599 
L 42.493075 329.605251 
L 52.018025 353.222122 
L 61.542975 353.22222 
L 71.067925 353.222098 
L 80.592875 353.221976 
L 90.117825 353.221806 
L 99.642775 353.221806 
L 109.167725 353.221514 
L 118.692675 353.220345 
L 128.217625 353.219054 
L 137.742575 353.218129 
L 147.267525 353.21528 
L 156.792475 353.211822 
L 166.317425 353.204492 
L 175.842375 353.189736 
L 185.367325 353.16312 
L 194.892275 353.11773 
L 204.417225 353.054027 
L 213.942175 352.941915 
L 223.467125 352.743089 
L 232.992075 352.423823 
L 242.517025 351.959255 
L 252.041975 351.364287 
L 261.566925 350.64676 
L 271.091875 349.76182 
L 280.616825 348.481663 
L 290.141775 346.803684 
L 299.666725 344.896221 
L 309.191675 342.798918 
L 318.716625 340.274328 
L 328.241575 336.973257 
L 337.766525 333.35628 
L 347.291475 328.838097 
L 356.816425 322.128299 
L 366.341375 314.431896 
L 375.866325 305.007521 
L 385.391275 292.821523 
L 394.916225 278.476151 
L 404.441175 263.135018 
L 413.966125 246.903977 
L 423.491075 229.403348 
L 433.016025 212.246141 
L 442.540975 195.911218 
L 452.065925 183.648709 
L 461.590875 174.557505 
L 471.115825 166.864097 
L 480.640775 163.74936 
L 490.165725 163.868534 
L 499.690675 161.750069 
L 509.215625 160.164308 
L 518.740575 160.301818 
L 528.265525 162.05134 
L 537.790475 164.975555 
L 547.315425 164.306048 
L 556.840375 166.377808 
L 566.365325 173.673929 
L 575.890275 180.874229 
L 585.415225 188.455013 
L 594.940175 196.660742 
L 604.465125 203.571972 
L 613.990075 212.609847 
L 623.515025 224.29044 
L 633.039975 233.543773 
L 642.564925 243.453366 
L 652.089875 256.299618 
L 661.614825 268.803104 
L 671.139775 280.178627 
L 680.664725 289.785854 
L 690.189675 298.976313 
L 699.714625 308.722608 
L 709.239575 317.229534 
L 718.764525 323.431419 
L 728.289475 328.621787 
L 737.814425 332.486852 
L 747.339375 335.784757 
L 756.864325 339.067589 
L 766.389275 341.270357 
L 775.914225 343.047444 
L 785.439175 344.804856 
L 794.964125 346.243855 
L 804.489075 347.420252 
L 814.014025 348.472702 
L 823.538975 349.400159 
L 833.063925 350.258532 
L 842.588875 350.971335 
L 852.113825 351.529557 
L 861.638775 351.909457 
L 871.163725 352.316289 
L 880.688675 352.700597 
L 890.213625 352.943133 
L 899.738575 353.068881 
L 909.263525 353.136894 
L 918.788475 353.160587 
L 928.313425 353.185864 
L 937.838375 353.208486 
L 947.363325 353.208291 
L 956.888275 353.147316 
L 966.413225 352.961007 
L 975.938175 353.02561 
L 985.463125 353.222609 
" clip-path="url(#p155a228de8)" style="fill: none; stroke: #f0ad4e; stroke-linecap: square"/>
   </g>
   <g id="line2d_9">
    <path d="M 32.968125 324.069141 
L 42.493075 338.645437 
L 52.018025 353.222348 
L 61.542975 353.222865 
L 71.067925 353.222274 
L 80.592875 353.221831 
L 90.117825 353.222053 
L 99.642775 353.221979 
L 109.167725 353.221708 
L 118.692675 353.22055 
L 128.217625 353.218973 
L 137.742575 353.218161 
L 147.267525 353.216806 
L 156.792475 353.214909 
L 166.317425 353.209047 
L 175.842375 353.197371 
L 185.367325 353.173231 
L 194.892275 353.138819 
L 204.417225 353.091549 
L 213.942175 353.00706 
L 223.467125 352.861998 
L 232.992075 352.614367 
L 242.517025 352.250224 
L 252.041975 351.757868 
L 261.566925 351.16213 
L 271.091875 350.466851 
L 280.616825 349.41206 
L 290.141775 347.939008 
L 299.666725 346.250421 
L 309.191675 344.409432 
L 318.716625 342.139985 
L 328.241575 339.133433 
L 337.766525 335.791927 
L 347.291475 331.517955 
L 356.816425 325.155462 
L 366.341375 317.849665 
L 375.866325 309.043055 
L 385.391275 297.74661 
L 394.916225 283.857809 
L 404.441175 268.777064 
L 413.966125 252.562973 
L 423.491075 234.576472 
L 433.016025 216.608026 
L 442.540975 198.961798 
L 452.065925 185.130047 
L 461.590875 174.683992 
L 471.115825 165.916695 
L 480.640775 161.860747 
L 490.165725 161.42273 
L 499.690675 158.172389 
L 509.215625 155.985141 
L 518.740575 156.332115 
L 528.265525 158.287768 
L 537.790475 160.969984 
L 547.315425 159.404634 
L 556.840375 161.392851 
L 566.365325 169.034291 
L 575.890275 175.975132 
L 585.415225 184.136172 
L 594.940175 193.183516 
L 604.465125 199.754154 
L 613.990075 208.795586 
L 623.515025 220.941042 
L 633.039975 230.311639 
L 642.564925 240.333201 
L 652.089875 253.557932 
L 661.614825 266.524243 
L 671.139775 278.428571 
L 680.664725 288.149049 
L 690.189675 297.410819 
L 699.714625 307.332644 
L 709.239575 315.844008 
L 718.764525 322.038975 
L 728.289475 327.351061 
L 737.814425 331.458763 
L 747.339375 334.899538 
L 756.864325 338.179364 
L 766.389275 340.462384 
L 775.914225 342.383946 
L 785.439175 344.247079 
L 794.964125 345.776219 
L 804.489075 347.150741 
L 814.014025 348.422126 
L 823.538975 349.442013 
L 833.063925 350.382189 
L 842.588875 351.128038 
L 852.113825 351.671408 
L 861.638775 352.035428 
L 871.163725 352.413563 
L 880.688675 352.776991 
L 890.213625 352.987181 
L 899.738575 353.083913 
L 909.263525 353.13707 
L 918.788475 353.158476 
L 928.313425 353.183527 
L 937.838375 353.206312 
L 947.363325 353.200696 
L 956.888275 353.080391 
L 966.413225 352.770981 
L 975.938175 352.895819 
L 985.463125 353.222225 
" clip-path="url(#p155a228de8)" style="fill: none; stroke: #f0ad4e; stroke-linecap: square"/>
   </g>
   <g id="line2d_10">
    <path d="M 32.968125 313.940981 
L 42.493075 333.580796 
L 52.018025 353.221232 
L 61.542975 353.221852 
L 71.067925 353.22134 
L 80.592875 353.220774 
L 90.117825 353.220774 
L 99.642775 353.220235 
L 109.167725 353.218995 
L 118.692675 353.21762 
L 128.217625 353.216704 
L 137.742575 353.215195 
L 147.267525 353.212041 
L 156.792475 353.207999 
L 166.317425 353.200075 
L 175.842375 353.184174 
L 185.367325 353.15353 
L 194.892275 353.101056 
L 204.417225 353.024596 
L 213.942175 352.899489 
L 223.467125 352.683421 
L 232.992075 352.344483 
L 242.517025 351.822627 
L 252.041975 351.170112 
L 261.566925 350.392139 
L 271.091875 349.401817 
L 280.616825 348.004183 
L 290.141775 346.145467 
L 299.666725 344.015083 
L 309.191675 341.621387 
L 318.716625 338.669666 
L 328.241575 334.80818 
L 337.766525 330.598405 
L 347.291475 325.484875 
L 356.816425 317.743416 
L 366.341375 308.722745 
L 375.866325 298.192377 
L 385.391275 284.857307 
L 394.916225 269.499577 
L 404.441175 253.341801 
L 413.966125 236.715316 
L 423.491075 219.802098 
L 433.016025 203.727547 
L 442.540975 188.924149 
L 452.065925 178.897364 
L 461.590875 172.164877 
L 471.115825 165.480497 
L 480.640775 161.474391 
L 490.165725 162.099551 
L 499.690675 161.024846 
L 509.215625 159.687797 
L 518.740575 160.777784 
L 528.265525 164.065398 
L 537.790475 168.690707 
L 547.315425 168.419093 
L 556.840375 170.268187 
L 566.365325 177.104975 
L 575.890275 184.836355 
L 585.415225 192.379912 
L 594.940175 200.526016 
L 604.465125 208.608839 
L 613.990075 217.210095 
L 623.515025 229.268784 
L 633.039975 238.722236 
L 642.564925 248.198328 
L 652.089875 262.152899 
L 661.614825 274.897576 
L 671.139775 285.203522 
L 680.664725 293.93258 
L 690.189675 302.764458 
L 699.714625 311.972169 
L 709.239575 319.604422 
L 718.764525 325.086294 
L 728.289475 329.924463 
L 737.814425 333.595943 
L 747.339375 336.614961 
L 756.864325 339.803071 
L 766.389275 341.810692 
L 775.914225 343.476868 
L 785.439175 345.535481 
L 794.964125 346.97365 
L 804.489075 347.978282 
L 814.014025 349.070803 
L 823.538975 349.999163 
L 833.063925 350.76172 
L 842.588875 351.331145 
L 852.113825 351.684367 
L 861.638775 351.87847 
L 871.163725 352.257808 
L 880.688675 352.741662 
L 890.213625 353.004059 
L 899.738575 353.07141 
L 909.263525 353.101919 
L 918.788475 353.103617 
L 928.313425 353.142157 
L 937.838375 353.196437 
L 947.363325 353.203201 
L 956.888275 353.125501 
L 966.413225 352.92016 
L 975.938175 353.003305 
L 985.463125 353.22231 
" clip-path="url(#p155a228de8)" style="fill: none; stroke: #f0ad4e; stroke-linecap: square"/>
   </g>
   <g id="line2d_11">
    <path d="M 32.968125 287.076772 
L 42.493075 320.148729 
L 52.018025 353.221168 
L 61.542975 353.221949 
L 71.067925 353.221581 
L 80.592875 353.221122 
L 90.117825 353.220938 
L 99.642775 353.220433 
L 109.167725 353.220227 
L 118.692675 353.219767 
L 128.217625 353.219079 
L 137.742575 353.218069 
L 147.267525 353.215681 
L 156.792475 353.212145 
L 166.317425 353.207668 
L 175.842375 353.197314 
L 185.367325 353.175641 
L 194.892275 353.141639 
L 204.417225 353.085023 
L 213.942175 352.978587 
L 223.467125 352.797834 
L 232.992075 352.507936 
L 242.517025 352.062401 
L 252.041975 351.534077 
L 261.566925 350.917294 
L 271.091875 350.149971 
L 280.616825 349.010098 
L 290.141775 347.527821 
L 299.666725 345.793367 
L 309.191675 343.724841 
L 318.716625 341.249259 
L 328.241575 338.220375 
L 337.766525 335.017694 
L 347.291475 331.057195 
L 356.816425 325.17049 
L 366.341375 318.031417 
L 375.866325 309.130613 
L 385.391275 297.68161 
L 394.916225 283.654285 
L 404.441175 268.08979 
L 413.966125 252.012375 
L 423.491075 234.657727 
L 433.016025 217.904112 
L 442.540975 201.642226 
L 452.065925 188.423251 
L 461.590875 178.922447 
L 471.115825 171.230461 
L 480.640775 168.696289 
L 490.165725 168.840721 
L 499.690675 166.190907 
L 509.215625 165.289988 
L 518.740575 165.432033 
L 528.265525 166.010544 
L 537.790475 166.965025 
L 547.315425 164.145386 
L 556.840375 166.003794 
L 566.365325 173.089856 
L 575.890275 179.62397 
L 585.415225 185.815427 
L 594.940175 192.233486 
L 604.465125 196.919913 
L 613.990075 203.450469 
L 623.515025 214.948833 
L 633.039975 226.833086 
L 642.564925 239.168338 
L 652.089875 252.038204 
L 661.614825 265.298159 
L 671.139775 277.50893 
L 680.664725 287.658153 
L 690.189675 297.594895 
L 699.714625 307.197452 
L 709.239575 315.719851 
L 718.764525 322.028879 
L 728.289475 327.334638 
L 737.814425 331.681692 
L 747.339375 335.099174 
L 756.864325 337.99235 
L 766.389275 339.921195 
L 775.914225 341.761879 
L 785.439175 343.738203 
L 794.964125 345.613784 
L 804.489075 347.213036 
L 814.014025 348.339362 
L 823.538975 349.255618 
L 833.063925 350.12405 
L 842.588875 350.842931 
L 852.113825 351.37502 
L 861.638775 351.761138 
L 871.163725 352.196203 
L 880.688675 352.585513 
L 890.213625 352.855529 
L 899.738575 353.028132 
L 909.263525 353.11751 
L 918.788475 353.15468 
L 928.313425 353.185903 
L 937.838375 353.207553 
L 947.363325 353.207599 
L 956.888275 353.142672 
L 966.413225 352.972939 
L 975.938175 353.042504 
L 985.463125 353.222316 
" clip-path="url(#p155a228de8)" style="fill: none; stroke: #f0ad4e; stroke-linecap: square"/>
   </g>
   <g id="line2d_12">
    <path d="M 32.968125 327.037591 
L 42.493075 340.129249 
L 52.018025 353.221308 
L 61.542975 353.221575 
L 71.067925 353.221281 
L 80.592875 353.221495 
L 90.117825 353.221495 
L 99.642775 353.2208 
L 109.167725 353.220346 
L 118.692675 353.219036 
L 128.217625 353.217914 
L 137.742575 353.217112 
L 147.267525 353.214734 
L 156.792475 353.211153 
L 166.317425 353.205301 
L 175.842375 353.191993 
L 185.367325 353.164388 
L 194.892275 353.11829 
L 204.417225 353.038869 
L 213.942175 352.892855 
L 223.467125 352.64572 
L 232.992075 352.249283 
L 242.517025 351.630858 
L 252.041975 350.919997 
L 261.566925 350.002995 
L 271.091875 348.819778 
L 280.616825 347.057846 
L 290.141775 344.485617 
L 299.666725 341.281494 
L 309.191675 337.281933 
L 318.716625 332.325579 
L 328.241575 326.199823 
L 337.766525 319.546982 
L 347.291475 311.820701 
L 356.816425 301.424733 
L 366.341375 289.934776 
L 375.866325 277.354277 
L 385.391275 263.454406 
L 394.916225 249.644566 
L 404.441175 236.244898 
L 413.966125 223.739438 
L 423.491075 211.804969 
L 433.016025 201.509212 
L 442.540975 191.790647 
L 452.065925 184.406502 
L 461.590875 179.752145 
L 471.115825 175.110963 
L 480.640775 174.212239 
L 490.165725 175.983578 
L 499.690675 174.878258 
L 509.215625 174.960966 
L 518.740575 175.483456 
L 528.265525 176.62902 
L 537.790475 178.701982 
L 547.315425 176.320636 
L 556.840375 177.675602 
L 566.365325 184.842088 
L 575.890275 192.604311 
L 585.415225 198.611202 
L 594.940175 204.138976 
L 604.465125 209.391555 
L 613.990075 215.771233 
L 623.515025 226.188821 
L 633.039975 237.091031 
L 642.564925 248.553864 
L 652.089875 261.068437 
L 661.614825 273.811626 
L 671.139775 285.323497 
L 680.664725 294.769273 
L 690.189675 303.84464 
L 699.714625 312.833105 
L 709.239575 320.625685 
L 718.764525 326.39907 
L 728.289475 331.256202 
L 737.814425 335.063571 
L 747.339375 338.022162 
L 756.864325 340.496184 
L 766.389275 342.248763 
L 775.914225 344.0007 
L 785.439175 345.750687 
L 794.964125 347.288439 
L 804.489075 348.653721 
L 814.014025 349.712141 
L 823.538975 350.467763 
L 833.063925 351.201471 
L 842.588875 351.783954 
L 852.113825 352.157837 
L 861.638775 352.400562 
L 871.163725 352.683292 
L 880.688675 352.948759 
L 890.213625 353.087318 
L 899.738575 353.13248 
L 909.263525 353.157947 
L 918.788475 353.170454 
L 928.313425 353.191378 
L 937.838375 353.211153 
L 947.363325 353.212516 
L 956.888275 353.177856 
L 966.413225 353.069868 
L 975.938175 353.108349 
L 985.463125 353.223606 
" clip-path="url(#p155a228de8)" style="fill: none; stroke: #5cb85c; stroke-linecap: square"/>
   </g>
   <g id="line2d_13">
    <path d="M 32.968125 308.580503 
L 42.493075 330.899963 
L 52.018025 353.220191 
L 61.542975 353.220827 
L 71.067925 353.220476 
L 80.592875 353.219905 
L 90.117825 353.21973 
L 99.642775 353.219949 
L 109.167725 353.218808 
L 118.692675 353.217381 
L 128.217625 353.216503 
L 137.742575 353.214923 
L 147.267525 353.211389 
L 156.792475 353.207022 
L 166.317425 353.20239 
L 175.842375 353.192931 
L 185.367325 353.168173 
L 194.892275 353.127985 
L 204.417225 353.062534 
L 213.942175 352.946843 
L 223.467125 352.749415 
L 232.992075 352.41516 
L 242.517025 351.918683 
L 252.041975 351.342423 
L 261.566925 350.643557 
L 271.091875 349.77334 
L 280.616825 348.496568 
L 290.141775 346.769565 
L 299.666725 344.790899 
L 309.191675 342.453769 
L 318.716625 339.619459 
L 328.241575 336.107245 
L 337.766525 332.297715 
L 347.291475 327.634275 
L 356.816425 320.632608 
L 366.341375 312.081874 
L 375.866325 301.665796 
L 385.391275 288.820074 
L 394.916225 273.183588 
L 404.441175 256.407355 
L 413.966125 239.803639 
L 423.491075 222.416247 
L 433.016025 206.097841 
L 442.540975 190.560167 
L 452.065925 178.825768 
L 461.590875 170.678911 
L 471.115825 164.557558 
L 480.640775 163.90845 
L 490.165725 165.372685 
L 499.690675 163.207478 
L 509.215625 163.195625 
L 518.740575 165.249948 
L 528.265525 167.60692 
L 537.790475 169.554287 
L 547.315425 166.404093 
L 556.840375 167.827657 
L 566.365325 175.769931 
L 575.890275 183.399307 
L 585.415225 190.857856 
L 594.940175 198.418971 
L 604.465125 203.357098 
L 613.990075 210.11924 
L 623.515025 221.650351 
L 633.039975 233.022884 
L 642.564925 244.864743 
L 652.089875 257.51723 
L 661.614825 270.685464 
L 671.139775 283.034051 
L 680.664725 292.816583 
L 690.189675 302.073403 
L 699.714625 311.375305 
L 709.239575 319.442643 
L 718.764525 325.237598 
L 728.289475 330.285929 
L 737.814425 334.247716 
L 747.339375 337.246947 
L 756.864325 339.906678 
L 766.389275 341.666034 
L 775.914225 343.41628 
L 785.439175 345.239484 
L 794.964125 346.856262 
L 804.489075 348.279716 
L 814.014025 349.317753 
L 823.538975 350.091089 
L 833.063925 350.868904 
L 842.588875 351.504052 
L 852.113825 351.915105 
L 861.638775 352.183581 
L 871.163725 352.508815 
L 880.688675 352.820968 
L 890.213625 353.007311 
L 899.738575 353.099451 
L 909.263525 353.144929 
L 918.788475 353.159437 
L 928.313425 353.185292 
L 937.838375 353.211016 
L 947.363325 353.21365 
L 956.888275 353.170389 
L 966.413225 353.061261 
L 975.938175 353.107331 
L 985.463125 353.22311 
" clip-path="url(#p155a228de8)" style="fill: none; stroke: #f0ad4e; stroke-linecap: square"/>
   </g>
   <g id="line2d_14">
    <path d="M 32.968125 341.452314 
L 42.493075 347.337458 
L 52.018025 353.223066 
L 61.542975 353.223529 
L 71.067925 353.223159 
L 80.592875 353.222633 
L 90.117825 353.222572 
L 99.642775 353.222448 
L 109.167725 353.222046 
L 118.692675 353.220224 
L 128.217625 353.218865 
L 137.742575 353.21939 
L 147.267525 353.217382 
L 156.792475 353.213891 
L 166.317425 353.206199 
L 175.842375 353.187663 
L 185.367325 353.158532 
L 194.892275 353.111607 
L 204.417225 353.03345 
L 213.942175 352.900243 
L 223.467125 352.672011 
L 232.992075 352.305259 
L 242.517025 351.774192 
L 252.041975 351.078377 
L 261.566925 350.245987 
L 271.091875 349.213355 
L 280.616825 347.715053 
L 290.141775 345.697177 
L 299.666725 343.349094 
L 309.191675 340.775436 
L 318.716625 337.644638 
L 328.241575 333.601131 
L 337.766525 329.349565 
L 347.291475 324.137468 
L 356.816425 316.581058 
L 366.341375 308.194173 
L 375.866325 298.302252 
L 385.391275 285.806523 
L 394.916225 271.892782 
L 404.441175 256.969978 
L 413.966125 241.385712 
L 423.491075 225.23167 
L 433.016025 209.241233 
L 442.540975 194.154794 
L 452.065925 183.204724 
L 461.590875 175.164047 
L 471.115825 167.59772 
L 480.640775 164.144099 
L 490.165725 164.490648 
L 499.690675 163.471299 
L 509.215625 162.038674 
L 518.740575 161.369117 
L 528.265525 163.496136 
L 537.790475 167.729506 
L 547.315425 167.694506 
L 556.840375 169.306675 
L 566.365325 176.037462 
L 575.890275 183.896183 
L 585.415225 190.525798 
L 594.940175 197.152477 
L 604.465125 204.808855 
L 613.990075 213.373308 
L 623.515025 224.695011 
L 633.039975 234.283694 
L 642.564925 244.0598 
L 652.089875 256.932692 
L 661.614825 269.392462 
L 671.139775 280.533199 
L 680.664725 289.784972 
L 690.189675 299.039803 
L 699.714625 308.642326 
L 709.239575 316.729402 
L 718.764525 322.677999 
L 728.289475 327.894482 
L 737.814425 331.930976 
L 747.339375 335.266373 
L 756.864325 338.580702 
L 766.389275 340.676087 
L 775.914225 342.372994 
L 785.439175 344.340547 
L 794.964125 345.852997 
L 804.489075 346.925079 
L 814.014025 347.988511 
L 823.538975 349.030319 
L 833.063925 349.944449 
L 842.588875 350.646257 
L 852.113825 351.159901 
L 861.638775 351.504967 
L 871.163725 351.990499 
L 880.688675 352.498366 
L 890.213625 352.820047 
L 899.738575 352.991529 
L 909.263525 353.087573 
L 918.788475 353.129215 
L 928.313425 353.171291 
L 937.838375 353.205828 
L 947.363325 353.21179 
L 956.888275 353.174225 
L 966.413225 353.076359 
L 975.938175 353.117909 
L 985.463125 353.222757 
" clip-path="url(#p155a228de8)" style="fill: none; stroke: #5cb85c; stroke-linecap: square"/>
   </g>
   <g id="line2d_15">
    <path d="M 32.968125 283.117382 
L 42.493075 318.168361 
L 52.018025 353.21983 
L 61.542975 353.220835 
L 71.067925 353.221129 
L 80.592875 353.220933 
L 90.117825 353.220835 
L 99.642775 353.220541 
L 109.167725 353.220198 
L 118.692675 353.219192 
L 128.217625 353.217942 
L 137.742575 353.216936 
L 147.267525 353.214975 
L 156.792475 353.21142 
L 166.317425 353.203132 
L 175.842375 353.191191 
L 185.367325 353.169638 
L 194.892275 353.130432 
L 204.417225 353.076121 
L 213.942175 352.979956 
L 223.467125 352.814744 
L 232.992075 352.557167 
L 242.517025 352.15625 
L 252.041975 351.619716 
L 261.566925 350.973065 
L 271.091875 350.189325 
L 280.616825 349.058317 
L 290.141775 347.488117 
L 299.666725 345.675321 
L 309.191675 343.655827 
L 318.716625 341.122037 
L 328.241575 337.834274 
L 337.766525 334.205299 
L 347.291475 329.695611 
L 356.816425 322.80072 
L 366.341375 314.787326 
L 375.866325 305.270523 
L 385.391275 292.906081 
L 394.916225 277.482742 
L 404.441175 261.605204 
L 413.966125 245.144863 
L 423.491075 227.318815 
L 433.016025 209.765716 
L 442.540975 193.001041 
L 452.065925 180.945765 
L 461.590875 171.388038 
L 471.115825 164.099905 
L 480.640775 161.983706 
L 490.165725 162.758201 
L 499.690675 159.472695 
L 509.215625 157.583668 
L 518.740575 160.040908 
L 528.265525 163.527523 
L 537.790475 166.282699 
L 547.315425 164.207766 
L 556.840375 166.108317 
L 566.365325 173.921853 
L 575.890275 180.480214 
L 585.415225 189.648988 
L 594.940175 200.41003 
L 604.465125 206.440881 
L 613.990075 215.315912 
L 623.515025 228.017766 
L 633.039975 237.19446 
L 642.564925 246.82496 
L 652.089875 259.857385 
L 661.614825 272.276161 
L 671.139775 283.334526 
L 680.664725 292.754429 
L 690.189675 301.59935 
L 699.714625 310.901633 
L 709.239575 318.907033 
L 718.764525 324.779316 
L 728.289475 329.755806 
L 737.814425 333.631177 
L 747.339375 336.871886 
L 756.864325 339.832976 
L 766.389275 341.848548 
L 775.914225 343.578566 
L 785.439175 345.357402 
L 794.964125 346.746992 
L 804.489075 347.876897 
L 814.014025 348.915957 
L 823.538975 349.834186 
L 833.063925 350.659436 
L 842.588875 351.287919 
L 852.113825 351.757123 
L 861.638775 352.071217 
L 871.163725 352.414587 
L 880.688675 352.762959 
L 890.213625 352.990916 
L 899.738575 353.09277 
L 909.263525 353.143501 
L 918.788475 353.161988 
L 928.313425 353.184203 
L 937.838375 353.207129 
L 947.363325 353.20654 
L 956.888275 353.146198 
L 966.413225 352.981035 
L 975.938175 353.046428 
L 985.463125 353.222699 
" clip-path="url(#p155a228de8)" style="fill: none; stroke: #f0ad4e; stroke-linecap: square"/>
   </g>
   <g id="line2d_16">
    <path d="M 32.968125 308.229955 
L 42.493075 330.724831 
L 52.018025 353.220249 
L 61.542975 353.22094 
L 71.067925 353.220767 
L 80.592875 353.22057 
L 90.117825 353.220447 
L 99.642775 353.219978 
L 109.167725 353.219534 
L 118.692675 353.218967 
L 128.217625 353.217215 
L 137.742575 353.214477 
L 147.267525 353.213145 
L 156.792475 353.211197 
L 166.317425 353.203229 
L 175.842375 353.190057 
L 185.367325 353.167167 
L 194.892275 353.12923 
L 204.417225 353.074766 
L 213.942175 352.985522 
L 223.467125 352.827336 
L 232.992075 352.572259 
L 242.517025 352.188817 
L 252.041975 351.679131 
L 261.566925 351.084445 
L 271.091875 350.337196 
L 280.616825 349.258132 
L 290.141775 347.789756 
L 299.666725 346.074763 
L 309.191675 344.175536 
L 318.716625 341.80572 
L 328.241575 338.71643 
L 337.766525 335.251073 
L 347.291475 330.921424 
L 356.816425 324.256171 
L 366.341375 316.46822 
L 375.866325 307.211719 
L 385.391275 294.966815 
L 394.916225 279.576676 
L 404.441175 263.37407 
L 413.966125 246.612593 
L 423.491075 228.230621 
L 433.016025 209.3474 
L 442.540975 191.218754 
L 452.065925 178.227315 
L 461.590875 168.386069 
L 471.115825 160.78546 
L 480.640775 158.073149 
L 490.165725 158.454371 
L 499.690675 155.579679 
L 509.215625 153.834964 
L 518.740575 156.101821 
L 528.265525 160.141293 
L 537.790475 164.036909 
L 547.315425 162.746255 
L 556.840375 164.485224 
L 566.365325 172.291355 
L 575.890275 179.387927 
L 585.415225 188.185505 
L 594.940175 198.530739 
L 604.465125 205.279512 
L 613.990075 214.177903 
L 623.515025 226.902351 
L 633.039975 236.403617 
L 642.564925 246.050639 
L 652.089875 259.102387 
L 661.614825 271.49354 
L 671.139775 282.412197 
L 680.664725 291.66475 
L 690.189675 300.720292 
L 699.714625 310.232239 
L 709.239575 318.327931 
L 718.764525 324.255431 
L 728.289475 329.305763 
L 737.814425 333.243781 
L 747.339375 336.496266 
L 756.864325 339.594362 
L 766.389275 341.734335 
L 775.914225 343.547007 
L 785.439175 345.449565 
L 794.964125 346.883926 
L 804.489075 348.046436 
L 814.014025 349.173945 
L 823.538975 350.094008 
L 833.063925 350.89799 
L 842.588875 351.536534 
L 852.113825 351.960207 
L 861.638775 352.209611 
L 871.163725 352.511653 
L 880.688675 352.842111 
L 890.213625 353.042206 
L 899.738575 353.10698 
L 909.263525 353.142944 
L 918.788475 353.158139 
L 928.313425 353.183299 
L 937.838375 353.207349 
L 947.363325 353.207003 
L 956.888275 353.135594 
L 966.413225 352.945809 
L 975.938175 353.022177 
L 985.463125 353.223086 
" clip-path="url(#p155a228de8)" style="fill: none; stroke: #f0ad4e; stroke-linecap: square"/>
   </g>
   <g id="line2d_17">
    <path d="M 32.968125 294.422451 
L 42.493075 323.822151 
L 52.018025 353.222096 
L 61.542975 353.222251 
L 71.067925 353.222341 
L 80.592875 353.222185 
L 90.117825 353.222073 
L 99.642775 353.221895 
L 109.167725 353.221338 
L 118.692675 353.220581 
L 128.217625 353.219645 
L 137.742575 353.219021 
L 147.267525 353.216638 
L 156.792475 353.21314 
L 166.317425 353.208685 
L 175.842375 353.199417 
L 185.367325 353.177051 
L 194.892275 353.14379 
L 204.417225 353.087763 
L 213.942175 352.985554 
L 223.467125 352.813729 
L 232.992075 352.509308 
L 242.517025 352.064295 
L 252.041975 351.580987 
L 261.566925 350.997742 
L 271.091875 350.243853 
L 280.616825 349.146847 
L 290.141775 347.684515 
L 299.666725 346.002215 
L 309.191675 344.009368 
L 318.716625 341.540031 
L 328.241575 338.497161 
L 337.766525 335.210533 
L 347.291475 331.09875 
L 356.816425 325.02337 
L 366.341375 317.574767 
L 375.866325 308.393919 
L 385.391275 296.744669 
L 394.916225 282.467933 
L 404.441175 266.819334 
L 413.966125 250.661941 
L 423.491075 233.252424 
L 433.016025 216.715224 
L 442.540975 200.486633 
L 452.065925 186.83333 
L 461.590875 177.23683 
L 471.115825 169.548367 
L 480.640775 167.0719 
L 490.165725 167.77894 
L 499.690675 165.436717 
L 509.215625 164.840485 
L 518.740575 164.96838 
L 528.265525 165.453448 
L 537.790475 166.372546 
L 547.315425 162.453774 
L 556.840375 163.442957 
L 566.365325 170.803676 
L 575.890275 178.016985 
L 585.415225 184.702497 
L 594.940175 191.616621 
L 604.465125 196.652738 
L 613.990075 202.952094 
L 623.515025 214.756774 
L 633.039975 226.804923 
L 642.564925 239.001752 
L 652.089875 252.185202 
L 661.614825 265.89872 
L 671.139775 278.574424 
L 680.664725 288.79703 
L 690.189675 298.762978 
L 699.714625 308.497175 
L 709.239575 317.028169 
L 718.764525 323.115757 
L 728.289475 328.371328 
L 737.814425 332.779891 
L 747.339375 336.013677 
L 756.864325 338.743193 
L 766.389275 340.592417 
L 775.914225 342.481228 
L 785.439175 344.499337 
L 794.964125 346.298705 
L 804.489075 347.854046 
L 814.014025 348.961989 
L 823.538975 349.834261 
L 833.063925 350.662868 
L 842.588875 351.311207 
L 852.113825 351.744971 
L 861.638775 352.026913 
L 871.163725 352.403045 
L 880.688675 352.772894 
L 890.213625 352.979161 
L 899.738575 353.074263 
L 909.263525 353.12461 
L 918.788475 353.143835 
L 928.313425 353.175179 
L 937.838375 353.205343 
L 947.363325 353.205343 
L 956.888275 353.132852 
L 966.413225 352.956638 
L 975.938175 353.033852 
L 985.463125 353.222363 
" clip-path="url(#p155a228de8)" style="fill: none; stroke: #f0ad4e; stroke-linecap: square"/>
   </g>
   <g id="line2d_18">
    <path d="M 32.968125 313.773795 
L 42.493075 333.496489 
L 52.018025 353.220336 
L 61.542975 353.22114 
L 71.067925 353.220872 
L 80.592875 353.220604 
L 90.117825 353.21988 
L 99.642775 353.219479 
L 109.167725 353.219613 
L 118.692675 353.218433 
L 128.217625 353.217549 
L 137.742575 353.216826 
L 147.267525 353.213851 
L 156.792475 353.211225 
L 166.317425 353.204499 
L 175.842375 353.193539 
L 185.367325 353.17245 
L 194.892275 353.130352 
L 204.417225 353.069899 
L 213.942175 352.9659 
L 223.467125 352.771114 
L 232.992075 352.458555 
L 242.517025 352.000704 
L 252.041975 351.464928 
L 261.566925 350.840374 
L 271.091875 350.073636 
L 280.616825 348.914297 
L 290.141775 347.359437 
L 299.666725 345.600277 
L 309.191675 343.555115 
L 318.716625 341.140558 
L 328.241575 338.139928 
L 337.766525 334.96836 
L 347.291475 331.11642 
L 356.816425 325.245579 
L 366.341375 318.129596 
L 375.866325 309.247084 
L 385.391275 297.88581 
L 394.916225 283.647573 
L 404.441175 268.026913 
L 413.966125 252.078367 
L 423.491075 234.445023 
L 433.016025 217.260713 
L 442.540975 200.165611 
L 452.065925 185.958887 
L 461.590875 175.86095 
L 471.115825 167.809301 
L 480.640775 164.8613 
L 490.165725 165.188998 
L 499.690675 162.374713 
L 509.215625 161.378165 
L 518.740575 162.325568 
L 528.265525 163.307967 
L 537.790475 164.239291 
L 547.315425 160.538325 
L 556.840375 161.700933 
L 566.365325 169.158013 
L 575.890275 176.571603 
L 585.415225 183.966112 
L 594.940175 191.189846 
L 604.465125 195.801771 
L 613.990075 202.561222 
L 623.515025 215.004499 
L 633.039975 227.069351 
L 642.564925 239.394722 
L 652.089875 252.858959 
L 661.614825 266.690045 
L 671.139775 279.236678 
L 680.664725 289.33724 
L 690.189675 299.056296 
L 699.714625 308.655383 
L 709.239575 317.127072 
L 718.764525 323.388236 
L 728.289475 328.65663 
L 737.814425 332.756843 
L 747.339375 335.926481 
L 756.864325 338.675811 
L 766.389275 340.466082 
L 775.914225 342.264338 
L 785.439175 344.22442 
L 794.964125 345.945045 
L 804.489075 347.313105 
L 814.014025 348.220366 
L 823.538975 349.061546 
L 833.063925 349.872659 
L 842.588875 350.562464 
L 852.113825 351.129726 
L 861.638775 351.47211 
L 871.163725 351.939715 
L 880.688675 352.405069 
L 890.213625 352.706453 
L 899.738575 352.934172 
L 909.263525 353.077562 
L 918.788475 353.124966 
L 928.313425 353.165938 
L 937.838375 353.202891 
L 947.363325 353.206187 
L 956.888275 353.139115 
L 966.413225 352.960594 
L 975.938175 353.032972 
L 985.463125 353.222801 
" clip-path="url(#p155a228de8)" style="fill: none; stroke: #f0ad4e; stroke-linecap: square"/>
   </g>
   <g id="line2d_19">
    <path d="M 32.968125 280.73001 
L 42.493075 316.974819 
L 52.018025 353.219627 
L 61.542975 353.220175 
L 71.067925 353.220038 
L 80.592875 353.218723 
L 90.117825 353.218559 
L 99.642775 353.218586 
L 109.167725 353.218312 
L 118.692675 353.216833 
L 128.217625 353.21519 
L 137.742575 353.212807 
L 147.267525 353.209383 
L 156.792475 353.206453 
L 166.317425 353.198921 
L 175.842375 353.186842 
L 185.367325 353.162163 
L 194.892275 353.117491 
L 204.417225 353.04814 
L 213.942175 352.930555 
L 223.467125 352.720914 
L 232.992075 352.360574 
L 242.517025 351.858957 
L 252.041975 351.303054 
L 261.566925 350.629703 
L 271.091875 349.80831 
L 280.616825 348.608363 
L 290.141775 346.935011 
L 299.666725 345.056126 
L 309.191675 342.907862 
L 318.716625 340.238014 
L 328.241575 336.886982 
L 337.766525 333.245453 
L 347.291475 328.712716 
L 356.816425 321.832919 
L 366.341375 313.447122 
L 375.866325 303.355872 
L 385.391275 290.743062 
L 394.916225 274.252076 
L 404.441175 258.158681 
L 413.966125 243.900895 
L 423.491075 228.197393 
L 433.016025 214.003918 
L 442.540975 200.574125 
L 452.065925 189.966988 
L 461.590875 182.286615 
L 471.115825 178.255549 
L 480.640775 179.590473 
L 490.165725 181.708389 
L 499.690675 178.14473 
L 509.215625 178.350592 
L 518.740575 182.454624 
L 528.265525 184.808421 
L 537.790475 184.903793 
L 547.315425 177.942758 
L 556.840375 178.149113 
L 566.365325 185.466406 
L 575.890275 188.640829 
L 585.415225 196.975599 
L 594.940175 206.916808 
L 604.465125 207.37619 
L 613.990075 211.271183 
L 623.515025 220.897793 
L 633.039975 227.982273 
L 642.564925 235.771986 
L 652.089875 245.145432 
L 661.614825 254.992557 
L 671.139775 265.02177 
L 680.664725 273.309292 
L 690.189675 281.576683 
L 699.714625 291.136873 
L 709.239575 300.487777 
L 718.764525 308.379626 
L 728.289475 316.035924 
L 737.814425 323.038043 
L 747.339375 328.853007 
L 756.864325 333.810834 
L 766.389275 337.748473 
L 775.914225 341.178963 
L 785.439175 344.143552 
L 794.964125 346.43008 
L 804.489075 348.160732 
L 814.014025 349.370046 
L 823.538975 350.287495 
L 833.063925 351.09133 
L 842.588875 351.657998 
L 852.113825 352.020091 
L 861.638775 352.248604 
L 871.163725 352.5603 
L 880.688675 352.851043 
L 890.213625 353.002536 
L 899.738575 353.086896 
L 909.263525 353.138033 
L 918.788475 353.158164 
L 928.313425 353.186266 
L 937.838375 353.210232 
L 947.363325 353.210534 
L 956.888275 353.145538 
L 966.413225 352.965833 
L 975.938175 353.033787 
L 985.463125 353.223024 
" clip-path="url(#p155a228de8)" style="fill: none; stroke: #f0ad4e; stroke-linecap: square"/>
   </g>
   <g id="line2d_20">
    <path d="M 32.968125 224.461436 
L 42.493075 288.841211 
L 52.018025 353.221198 
L 61.542975 353.221222 
L 71.067925 353.220517 
L 80.592875 353.219789 
L 90.117825 353.219154 
L 99.642775 353.218966 
L 109.167725 353.218849 
L 118.692675 353.216758 
L 128.217625 353.214127 
L 137.742575 353.21166 
L 147.267525 353.208206 
L 156.792475 353.202897 
L 166.317425 353.19505 
L 175.842375 353.180883 
L 185.367325 353.151022 
L 194.892275 353.105726 
L 204.417225 353.035714 
L 213.942175 352.917846 
L 223.467125 352.709385 
L 232.992075 352.381975 
L 242.517025 351.921238 
L 252.041975 351.369227 
L 261.566925 350.697398 
L 271.091875 349.862803 
L 280.616825 348.67815 
L 290.141775 347.073358 
L 299.666725 345.320765 
L 309.191675 343.2667 
L 318.716625 340.680829 
L 328.241575 337.387206 
L 337.766525 333.556961 
L 347.291475 328.891463 
L 356.816425 322.029246 
L 366.341375 313.730029 
L 375.866325 303.678948 
L 385.391275 291.028745 
L 394.916225 275.399572 
L 404.441175 259.938709 
L 413.966125 244.818388 
L 423.491075 228.235225 
L 433.016025 212.053924 
L 442.540975 196.361318 
L 452.065925 184.492684 
L 461.590875 175.83091 
L 471.115825 169.468923 
L 480.640775 166.836393 
L 490.165725 167.181306 
L 499.690675 163.933449 
L 509.215625 163.164943 
L 518.740575 166.633853 
L 528.265525 169.378448 
L 537.790475 171.970052 
L 547.315425 169.919394 
L 556.840375 171.811845 
L 566.365325 178.138262 
L 575.890275 182.812922 
L 585.415225 192.242474 
L 594.940175 204.117851 
L 604.465125 210.929932 
L 613.990075 219.830803 
L 623.515025 233.196393 
L 633.039975 242.66666 
L 642.564925 252.260245 
L 652.089875 264.849364 
L 661.614825 276.467249 
L 671.139775 286.916527 
L 680.664725 295.714964 
L 690.189675 304.168747 
L 699.714625 312.471253 
L 709.239575 319.737823 
L 718.764525 325.243906 
L 728.289475 329.824473 
L 737.814425 333.436038 
L 747.339375 336.198513 
L 756.864325 338.871475 
L 766.389275 340.66584 
L 775.914225 342.136342 
L 785.439175 344.186577 
L 794.964125 345.720701 
L 804.489075 346.283636 
L 814.014025 346.803625 
L 823.538975 347.709007 
L 833.063925 348.726618 
L 842.588875 349.579726 
L 852.113825 350.108736 
L 861.638775 350.370387 
L 871.163725 350.746852 
L 880.688675 351.234819 
L 890.213625 351.837905 
L 899.738575 352.430936 
L 909.263525 352.828147 
L 918.788475 353.006676 
L 928.313425 353.107817 
L 937.838375 353.182715 
L 947.363325 353.198268 
L 956.888275 353.126753 
L 966.413225 352.935889 
L 975.938175 353.017906 
L 985.463125 353.222467 
" clip-path="url(#p155a228de8)" style="fill: none; stroke: #d9534f; stroke-linecap: square"/>
   </g>
   <g id="line2d_21">
    <path d="M 32.968125 252.70554 
L 42.493075 302.962596 
L 52.018025 353.220301 
L 61.542975 353.221076 
L 71.067925 353.220651 
L 80.592875 353.220451 
L 90.117825 353.220601 
L 99.642775 353.220077 
L 109.167725 353.219402 
L 118.692675 353.218252 
L 128.217625 353.216428 
L 137.742575 353.215103 
L 147.267525 353.213804 
L 156.792475 353.209955 
L 166.317425 353.202858 
L 175.842375 353.192537 
L 185.367325 353.169446 
L 194.892275 353.127513 
L 204.417225 353.066987 
L 213.942175 352.95798 
L 223.467125 352.773152 
L 232.992075 352.492188 
L 242.517025 352.0803 
L 252.041975 351.561854 
L 261.566925 350.943522 
L 271.091875 350.188044 
L 280.616825 349.0931 
L 290.141775 347.597988 
L 299.666725 345.930769 
L 309.191675 344.025068 
L 318.716625 341.584828 
L 328.241575 338.414326 
L 337.766525 334.868145 
L 347.291475 330.311113 
L 356.816425 323.194188 
L 366.341375 314.636629 
L 375.866325 304.288399 
L 385.391275 291.095489 
L 394.916225 274.861075 
L 404.441175 258.702456 
L 413.966125 242.255301 
L 423.491075 224.5254 
L 433.016025 208.358185 
L 442.540975 193.003325 
L 452.065925 182.188604 
L 461.590875 174.560604 
L 471.115825 168.032097 
L 480.640775 166.33489 
L 490.165725 167.600067 
L 499.690675 164.335227 
L 509.215625 162.662085 
L 518.740575 164.880737 
L 528.265525 167.578251 
L 537.790475 170.345087 
L 547.315425 168.509585 
L 556.840375 169.925053 
L 566.365325 176.498242 
L 575.890275 182.398996 
L 585.415225 191.162974 
L 594.940175 201.15057 
L 604.465125 207.186071 
L 613.990075 216.0736 
L 623.515025 229.093303 
L 633.039975 238.331169 
L 642.564925 247.790448 
L 652.089875 260.617903 
L 661.614825 272.868434 
L 671.139775 283.646194 
L 680.664725 292.742716 
L 690.189675 301.648463 
L 699.714625 310.974744 
L 709.239575 318.957979 
L 718.764525 324.616503 
L 728.289475 329.457499 
L 737.814425 333.211597 
L 747.339375 336.342815 
L 756.864325 339.326942 
L 766.389275 341.409897 
L 775.914225 343.22071 
L 785.439175 345.15145 
L 794.964125 346.609327 
L 804.489075 347.770195 
L 814.014025 348.894828 
L 823.538975 349.821288 
L 833.063925 350.613377 
L 842.588875 351.221138 
L 852.113825 351.662089 
L 861.638775 351.95265 
L 871.163725 352.322954 
L 880.688675 352.737891 
L 890.213625 352.99564 
L 899.738575 353.08478 
L 909.263525 353.124789 
L 918.788475 353.136909 
L 928.313425 353.168372 
L 937.838375 353.201109 
L 947.363325 353.205707 
L 956.888275 353.144256 
L 966.413225 352.932115 
L 975.938175 353.000088 
L 985.463125 353.2228 
" clip-path="url(#p155a228de8)" style="fill: none; stroke: #f0ad4e; stroke-linecap: square"/>
   </g>
   <g id="line2d_22">
    <path d="M 32.968125 284.755029 
L 42.493075 318.986951 
L 52.018025 353.220197 
L 61.542975 353.221387 
L 71.067925 353.220983 
L 80.592875 353.220489 
L 90.117825 353.220152 
L 99.642775 353.22013 
L 109.167725 353.219883 
L 118.692675 353.218828 
L 128.217625 353.217482 
L 137.742575 353.216023 
L 147.267525 353.21434 
L 156.792475 353.211131 
L 166.317425 353.204848 
L 175.842375 353.194278 
L 185.367325 353.173048 
L 194.892275 353.141833 
L 204.417225 353.092664 
L 213.942175 352.999736 
L 223.467125 352.841863 
L 232.992075 352.593462 
L 242.517025 352.239072 
L 252.041975 351.789353 
L 261.566925 351.224824 
L 271.091875 350.51389 
L 280.616825 349.485078 
L 290.141775 348.025801 
L 299.666725 346.283541 
L 309.191675 344.234265 
L 318.716625 341.550175 
L 328.241575 337.823965 
L 337.766525 333.290683 
L 347.291475 327.448794 
L 356.816425 318.705944 
L 366.341375 308.283265 
L 375.866325 296.160246 
L 385.391275 281.595277 
L 394.916225 264.993083 
L 404.441175 249.624789 
L 413.966125 234.956255 
L 423.491075 219.727051 
L 433.016025 205.609311 
L 442.540975 192.099118 
L 452.065925 182.915996 
L 461.590875 175.383686 
L 471.115825 168.814346 
L 480.640775 167.285726 
L 490.165725 168.241245 
L 499.690675 164.201713 
L 509.215625 161.936912 
L 518.740575 165.052298 
L 528.265525 169.31559 
L 537.790475 172.265697 
L 547.315425 169.659545 
L 556.840375 170.71863 
L 566.365325 177.465502 
L 575.890275 182.907469 
L 585.415225 191.828569 
L 594.940175 202.700361 
L 604.465125 208.733269 
L 613.990075 217.736638 
L 623.515025 230.777026 
L 633.039975 239.848616 
L 642.564925 249.331866 
L 652.089875 261.953503 
L 661.614825 273.682882 
L 671.139775 284.175959 
L 680.664725 292.972959 
L 690.189675 301.788115 
L 699.714625 310.911499 
L 709.239575 318.605093 
L 718.764525 324.315657 
L 728.289475 329.158334 
L 737.814425 333.131755 
L 747.339375 336.336524 
L 756.864325 339.00329 
L 766.389275 340.856857 
L 775.914225 342.577977 
L 785.439175 344.598462 
L 794.964125 346.14196 
L 804.489075 347.234415 
L 814.014025 348.358961 
L 823.538975 349.410327 
L 833.063925 350.359832 
L 842.588875 351.083266 
L 852.113825 351.555113 
L 861.638775 351.83309 
L 871.163725 352.184024 
L 880.688675 352.61725 
L 890.213625 352.925815 
L 899.738575 353.046952 
L 909.263525 353.106062 
L 918.788475 353.13243 
L 928.313425 353.170759 
L 937.838375 353.203187 
L 947.363325 353.207922 
L 956.888275 353.157183 
L 966.413225 352.987461 
L 975.938175 353.043945 
L 985.463125 353.222172 
" clip-path="url(#p155a228de8)" style="fill: none; stroke: #f0ad4e; stroke-linecap: square"/>
   </g>
   <g id="line2d_23">
    <path d="M 32.968125 338.619903 
L 42.493075 345.921241 
L 52.018025 353.222909 
L 61.542975 353.223359 
L 71.067925 353.223269 
L 80.592875 353.223059 
L 90.117825 353.223119 
L 99.642775 353.223059 
L 109.167725 353.222818 
L 118.692675 353.221977 
L 128.217625 353.220926 
L 137.742575 353.219784 
L 147.267525 353.21696 
L 156.792475 353.212664 
L 166.317425 353.206925 
L 175.842375 353.198543 
L 185.367325 353.172616 
L 194.892275 353.126349 
L 204.417225 353.052982 
L 213.942175 352.900811 
L 223.467125 352.663828 
L 232.992075 352.310696 
L 242.517025 351.802449 
L 252.041975 351.175199 
L 261.566925 350.411882 
L 271.091875 349.566577 
L 280.616825 348.258239 
L 290.141775 346.472991 
L 299.666725 344.503274 
L 309.191675 342.165735 
L 318.716625 339.349812 
L 328.241575 335.823688 
L 337.766525 332.102883 
L 347.291475 327.547077 
L 356.816425 320.678066 
L 366.341375 312.151823 
L 375.866325 301.657034 
L 385.391275 289.046578 
L 394.916225 274.754704 
L 404.441175 258.187751 
L 413.966125 240.77402 
L 423.491075 223.640385 
L 433.016025 208.000095 
L 442.540975 192.496654 
L 452.065925 180.518405 
L 461.590875 171.691756 
L 471.115825 162.438518 
L 480.640775 159.887248 
L 490.165725 162.107828 
L 499.690675 161.491274 
L 509.215625 160.882471 
L 518.740575 160.78465 
L 528.265525 164.174675 
L 537.790475 168.099356 
L 547.315425 165.846209 
L 556.840375 167.544933 
L 566.365325 175.049214 
L 575.890275 183.666069 
L 585.415225 189.642636 
L 594.940175 194.771944 
L 604.465125 201.552055 
L 613.990075 208.560889 
L 623.515025 220.51303 
L 633.039975 232.725559 
L 642.564925 243.952509 
L 652.089875 256.448589 
L 661.614825 268.93821 
L 671.139775 280.97198 
L 680.664725 290.788354 
L 690.189675 300.383788 
L 699.714625 309.849494 
L 709.239575 317.953926 
L 718.764525 323.57697 
L 728.289475 328.646641 
L 737.814425 333.262414 
L 747.339375 336.449406 
L 756.864325 339.243638 
L 766.389275 341.199864 
L 775.914225 342.851149 
L 785.439175 344.891437 
L 794.964125 346.65202 
L 804.489075 348.072059 
L 814.014025 349.204101 
L 823.538975 350.036939 
L 833.063925 350.840123 
L 842.588875 351.407045 
L 852.113825 351.745877 
L 861.638775 351.995839 
L 871.163725 352.380126 
L 880.688675 352.767688 
L 890.213625 352.976491 
L 899.738575 353.059021 
L 909.263525 353.108953 
L 918.788475 353.13455 
L 928.313425 353.175169 
L 937.838375 353.208998 
L 947.363325 353.215338 
L 956.888275 353.190882 
L 966.413225 353.132898 
L 975.938175 353.160869 
L 985.463125 353.223419 
" clip-path="url(#p155a228de8)" style="fill: none; stroke: #5cb85c; stroke-linecap: square"/>
   </g>
   <g id="line2d_24">
    <path d="M 32.968125 50.397219 
L 42.493075 201.801125 
L 52.018025 353.210482 
L 61.542975 353.216819 
L 71.067925 353.217955 
L 80.592875 353.217893 
L 90.117825 353.217728 
L 99.642775 353.217129 
L 109.167725 353.21556 
L 118.692675 353.214631 
L 128.217625 353.213991 
L 137.742575 353.212401 
L 147.267525 353.205713 
L 156.792475 353.198013 
L 166.317425 353.194152 
L 175.842375 353.189095 
L 185.367325 353.170846 
L 194.892275 353.141986 
L 204.417225 353.101669 
L 213.942175 353.006997 
L 223.467125 352.869489 
L 232.992075 352.658221 
L 242.517025 352.352736 
L 252.041975 351.977475 
L 261.566925 351.507727 
L 271.091875 351.026915 
L 280.616825 350.249039 
L 290.141775 349.164213 
L 299.666725 347.949455 
L 309.191675 346.434682 
L 318.716625 344.641941 
L 328.241575 342.208297 
L 337.766525 339.64664 
L 347.291475 336.831871 
L 356.816425 332.174817 
L 366.341375 326.344871 
L 375.866325 319.431253 
L 385.391275 310.833399 
L 394.916225 296.694383 
L 404.441175 284.182545 
L 413.966125 273.59569 
L 423.491075 258.304404 
L 433.016025 243.451343 
L 442.540975 225.427574 
L 452.065925 208.362437 
L 461.590875 194.570132 
L 471.115825 184.821185 
L 480.640775 182.775745 
L 490.165725 181.40746 
L 499.690675 169.640446 
L 509.215625 166.105728 
L 518.740575 172.099276 
L 528.265525 173.413888 
L 537.790475 169.326146 
L 547.315425 156.150241 
L 556.840375 154.222016 
L 566.365325 161.839996 
L 575.890275 164.40669 
L 585.415225 180.214419 
L 594.940175 198.25848 
L 604.465125 199.251835 
L 613.990075 208.002494 
L 623.515025 225.719105 
L 633.039975 236.731488 
L 642.564925 247.880986 
L 652.089875 262.163373 
L 661.614825 275.067049 
L 671.139775 286.568028 
L 680.664725 295.954864 
L 690.189675 304.389633 
L 699.714625 313.118678 
L 709.239575 320.921481 
L 718.764525 326.077431 
L 728.289475 330.656638 
L 737.814425 334.648511 
L 747.339375 337.594161 
L 756.864325 339.980057 
L 766.389275 341.642515 
L 775.914225 343.418926 
L 785.439175 345.194346 
L 794.964125 346.689982 
L 804.489075 347.922969 
L 814.014025 348.822394 
L 823.538975 349.62787 
L 833.063925 350.405044 
L 842.588875 351.016613 
L 852.113825 351.485824 
L 861.638775 351.763007 
L 871.163725 352.158829 
L 880.688675 352.55876 
L 890.213625 352.804771 
L 899.738575 352.977373 
L 909.263525 353.089592 
L 918.788475 353.128547 
L 928.313425 353.166015 
L 937.838375 353.202369 
L 947.363325 353.20305 
L 956.888275 353.130694 
L 966.413225 352.935384 
L 975.938175 353.013087 
L 985.463125 353.221774 
" clip-path="url(#p155a228de8)" style="fill: none; stroke: #d9534f; stroke-linecap: square"/>
   </g>
   <g id="line2d_25">
    <path d="M 32.968125 315.964751 
L 42.493075 334.589551 
L 52.018025 353.215656 
L 61.542975 353.217375 
L 71.067925 353.217534 
L 80.592875 353.217216 
L 90.117825 353.216675 
L 99.642775 353.216038 
L 109.167725 353.214956 
L 118.692675 353.213078 
L 128.217625 353.212251 
L 137.742575 353.211232 
L 147.267525 353.206235 
L 156.792475 353.199551 
L 166.317425 353.188857 
L 175.842375 353.172624 
L 185.367325 353.143596 
L 194.892275 353.091811 
L 204.417225 353.013417 
L 213.942175 352.85768 
L 223.467125 352.605247 
L 232.992075 352.229479 
L 242.517025 351.67391 
L 252.041975 351.034664 
L 261.566925 350.242737 
L 271.091875 349.252803 
L 280.616825 347.773345 
L 290.141775 345.825116 
L 299.666725 343.590715 
L 309.191675 340.780121 
L 318.716625 337.43156 
L 328.241575 333.15268 
L 337.766525 328.288536 
L 347.291475 322.528798 
L 356.816425 314.284201 
L 366.341375 304.481401 
L 375.866325 292.82188 
L 385.391275 279.364105 
L 394.916225 264.93403 
L 404.441175 249.072017 
L 413.966125 233.713788 
L 423.491075 219.31204 
L 433.016025 205.259102 
L 442.540975 191.320302 
L 452.065925 182.44989 
L 461.590875 176.465729 
L 471.115825 169.430905 
L 480.640775 168.35688 
L 490.165725 170.259563 
L 499.690675 169.235859 
L 509.215625 168.562174 
L 518.740575 169.581486 
L 528.265525 173.137569 
L 537.790475 176.349045 
L 547.315425 175.279667 
L 556.840375 177.097654 
L 566.365325 184.103673 
L 575.890275 191.879658 
L 585.415225 197.014091 
L 594.940175 201.250829 
L 604.465125 206.675953 
L 613.990075 213.450037 
L 623.515025 223.87534 
L 633.039975 234.399949 
L 642.564925 244.809179 
L 652.089875 256.219833 
L 661.614825 267.883206 
L 671.139775 278.938334 
L 680.664725 288.629669 
L 690.189675 298.248945 
L 699.714625 307.665313 
L 709.239575 316.113168 
L 718.764525 322.368223 
L 728.289475 327.833578 
L 737.814425 332.373516 
L 747.339375 335.650272 
L 756.864325 338.5645 
L 766.389275 340.728464 
L 775.914225 342.585663 
L 785.439175 344.474373 
L 794.964125 346.235387 
L 804.489075 347.787254 
L 814.014025 348.899855 
L 823.538975 349.744364 
L 833.063925 350.550519 
L 842.588875 351.209944 
L 852.113825 351.694694 
L 861.638775 352.034369 
L 871.163725 352.424015 
L 880.688675 352.792845 
L 890.213625 353.013545 
L 899.738575 353.102824 
L 909.263525 353.148625 
L 918.788475 353.166577 
L 928.313425 353.18857 
L 937.838375 353.208463 
L 947.363325 353.210914 
L 956.888275 353.170555 
L 966.413225 353.046965 
L 975.938175 353.092002 
L 985.463125 353.223072 
" clip-path="url(#p155a228de8)" style="fill: none; stroke: #f0ad4e; stroke-linecap: square"/>
   </g>
   <g id="line2d_26">
    <path d="M 32.968125 353.2239 
L 985.463125 353.2239 
" clip-path="url(#p155a228de8)" style="fill: none; stroke: #dedede; stroke-width: 2; stroke-linecap: square"/>
   </g>
   <g id="text_16">
    <!-- FastQC: Per Sequence GC Content -->
    <g transform="translate(372.579375 19.3575) scale(0.16 -0.16)">
     <defs>
      <path id="DejaVuSans-46" d="M 628 4666 
L 3309 4666 
L 3309 4134 
L 1259 4134 
L 1259 2759 
L 3109 2759 
L 3109 2228 
L 1259 2228 
L 1259 0 
L 628 0 
L 628 4666 
z
" transform="scale(0.015625)"/>
      <path id="DejaVuSans-73" d="M 2834 3397 
L 2834 2853 
Q 2591 2978 2328 3040 
Q 2066 3103 1784 3103 
Q 1356 3103 1142 2972 
Q 928 2841 928 2578 
Q 928 2378 1081 2264 
Q 1234 2150 1697 2047 
L 1894 2003 
Q 2506 1872 2764 1633 
Q 3022 1394 3022 966 
Q 3022 478 2636 193 
Q 2250 -91 1575 -91 
Q 1294 -91 989 -36 
Q 684 19 347 128 
L 347 722 
Q 666 556 975 473 
Q 1284 391 1588 391 
Q 1994 391 2212 530 
Q 2431 669 2431 922 
Q 2431 1156 2273 1281 
Q 2116 1406 1581 1522 
L 1381 1569 
Q 847 1681 609 1914 
Q 372 2147 372 2553 
Q 372 3047 722 3315 
Q 1072 3584 1716 3584 
Q 2034 3584 2315 3537 
Q 2597 3491 2834 3397 
z
" transform="scale(0.015625)"/>
      <path id="DejaVuSans-51" d="M 2522 4238 
Q 1834 4238 1429 3725 
Q 1025 3213 1025 2328 
Q 1025 1447 1429 934 
Q 1834 422 2522 422 
Q 3209 422 3611 934 
Q 4013 1447 4013 2328 
Q 4013 3213 3611 3725 
Q 3209 4238 2522 4238 
z
M 3406 84 
L 4238 -825 
L 3475 -825 
L 2784 -78 
Q 2681 -84 2626 -87 
Q 2572 -91 2522 -91 
Q 1538 -91 948 567 
Q 359 1225 359 2328 
Q 359 3434 948 4092 
Q 1538 4750 2522 4750 
Q 3503 4750 4090 4092 
Q 4678 3434 4678 2328 
Q 4678 1516 4351 937 
Q 4025 359 3406 84 
z
" transform="scale(0.015625)"/>
      <path id="DejaVuSans-3a" d="M 750 794 
L 1409 794 
L 1409 0 
L 750 0 
L 750 794 
z
M 750 3309 
L 1409 3309 
L 1409 2516 
L 750 2516 
L 750 3309 
z
" transform="scale(0.015625)"/>
      <path id="DejaVuSans-53" d="M 3425 4513 
L 3425 3897 
Q 3066 4069 2747 4153 
Q 2428 4238 2131 4238 
Q 1616 4238 1336 4038 
Q 1056 3838 1056 3469 
Q 1056 3159 1242 3001 
Q 1428 2844 1947 2747 
L 2328 2669 
Q 3034 2534 3370 2195 
Q 3706 1856 3706 1288 
Q 3706 609 3251 259 
Q 2797 -91 1919 -91 
Q 1588 -91 1214 -16 
Q 841 59 441 206 
L 441 856 
Q 825 641 1194 531 
Q 1563 422 1919 422 
Q 2459 422 2753 634 
Q 3047 847 3047 1241 
Q 3047 1584 2836 1778 
Q 2625 1972 2144 2069 
L 1759 2144 
Q 1053 2284 737 2584 
Q 422 2884 422 3419 
Q 422 4038 858 4394 
Q 1294 4750 2059 4750 
Q 2388 4750 2728 4690 
Q 3069 4631 3425 4513 
z
" transform="scale(0.015625)"/>
      <path id="DejaVuSans-71" d="M 947 1747 
Q 947 1113 1208 752 
Q 1469 391 1925 391 
Q 2381 391 2643 752 
Q 2906 1113 2906 1747 
Q 2906 2381 2643 2742 
Q 2381 3103 1925 3103 
Q 1469 3103 1208 2742 
Q 947 2381 947 1747 
z
M 2906 525 
Q 2725 213 2448 61 
Q 2172 -91 1784 -91 
Q 1150 -91 751 415 
Q 353 922 353 1747 
Q 353 2572 751 3078 
Q 1150 3584 1784 3584 
Q 2172 3584 2448 3432 
Q 2725 3281 2906 2969 
L 2906 3500 
L 3481 3500 
L 3481 -1331 
L 2906 -1331 
L 2906 525 
z
" transform="scale(0.015625)"/>
      <path id="DejaVuSans-75" d="M 544 1381 
L 544 3500 
L 1119 3500 
L 1119 1403 
Q 1119 906 1312 657 
Q 1506 409 1894 409 
Q 2359 409 2629 706 
Q 2900 1003 2900 1516 
L 2900 3500 
L 3475 3500 
L 3475 0 
L 2900 0 
L 2900 538 
Q 2691 219 2414 64 
Q 2138 -91 1772 -91 
Q 1169 -91 856 284 
Q 544 659 544 1381 
z
M 1991 3584 
L 1991 3584 
z
" transform="scale(0.015625)"/>
      <path id="DejaVuSans-6f" d="M 1959 3097 
Q 1497 3097 1228 2736 
Q 959 2375 959 1747 
Q 959 1119 1226 758 
Q 1494 397 1959 397 
Q 2419 397 2687 759 
Q 2956 1122 2956 1747 
Q 2956 2369 2687 2733 
Q 2419 3097 1959 3097 
z
M 1959 3584 
Q 2709 3584 3137 3096 
Q 3566 2609 3566 1747 
Q 3566 888 3137 398 
Q 2709 -91 1959 -91 
Q 1206 -91 779 398 
Q 353 888 353 1747 
Q 353 2609 779 3096 
Q 1206 3584 1959 3584 
z
" transform="scale(0.015625)"/>
     </defs>
     <use xlink:href="#DejaVuSans-46"/>
     <use xlink:href="#DejaVuSans-61" x="48.394531"/>
     <use xlink:href="#DejaVuSans-73" x="109.673828"/>
     <use xlink:href="#DejaVuSans-74" x="161.773438"/>
     <use xlink:href="#DejaVuSans-51" x="200.982422"/>
     <use xlink:href="#DejaVuSans-43" x="279.693359"/>
     <use xlink:href="#DejaVuSans-3a" x="349.517578"/>
     <use xlink:href="#DejaVuSans-20" x="383.208984"/>
     <use xlink:href="#DejaVuSans-50" x="414.996094"/>
     <use xlink:href="#DejaVuSans-65" x="471.673828"/>
     <use xlink:href="#DejaVuSans-72" x="533.197266"/>
     <use xlink:href="#DejaVuSans-20" x="574.310547"/>
     <use xlink:href="#DejaVuSans-53" x="606.097656"/>
     <use xlink:href="#DejaVuSans-65" x="669.574219"/>
     <use xlink:href="#DejaVuSans-71" x="731.097656"/>
     <use xlink:href="#DejaVuSans-75" x="794.574219"/>
     <use xlink:href="#DejaVuSans-65" x="857.953125"/>
     <use xlink:href="#DejaVuSans-6e" x="919.476562"/>
     <use xlink:href="#DejaVuSans-63" x="982.855469"/>
     <use xlink:href="#DejaVuSans-65" x="1037.835938"/>
     <use xlink:href="#DejaVuSans-20" x="1099.359375"/>
     <use xlink:href="#DejaVuSans-47" x="1131.146484"/>
     <use xlink:href="#DejaVuSans-43" x="1208.636719"/>
     <use xlink:href="#DejaVuSans-20" x="1278.460938"/>
     <use xlink:href="#DejaVuSans-43" x="1310.248047"/>
     <use xlink:href="#DejaVuSans-6f" x="1380.072266"/>
     <use xlink:href="#DejaVuSans-6e" x="1441.253906"/>
     <use xlink:href="#DejaVuSans-74" x="1504.632812"/>
     <use xlink:href="#DejaVuSans-65" x="1543.841797"/>
     <use xlink:href="#DejaVuSans-6e" x="1605.365234"/>
     <use xlink:href="#DejaVuSans-74" x="1668.744141"/>
    </g>
   </g>
  </g>
 </g>
 <defs>
  <clipPath id="p155a228de8">
   <rect x="32.968125" y="35.2559" width="952.495" height="317.968"/>
  </clipPath>
 </defs>
</svg>
