<?xml version="1.0" encoding="utf-8" standalone="no"?>
<!DOCTYPE svg PUBLIC "-//W3C//DTD SVG 1.1//EN"
  "http://www.w3.org/Graphics/SVG/1.1/DTD/svg11.dtd">
<svg xmlns:xlink="http://www.w3.org/1999/xlink" width="1000.358125pt" height="388.844525pt" viewBox="0 0 1000.358125 388.844525" xmlns="http://www.w3.org/2000/svg" version="1.1">
 <metadata>
  <rdf:RDF xmlns:dc="http://purl.org/dc/elements/1.1/" xmlns:cc="http://creativecommons.org/ns#" xmlns:rdf="http://www.w3.org/1999/02/22-rdf-syntax-ns#">
   <cc:Work>
    <dc:type rdf:resource="http://purl.org/dc/dcmitype/StillImage"/>
    <dc:date>2025-03-11T15:51:14.668780</dc:date>
    <dc:format>image/svg+xml</dc:format>
    <dc:creator>
     <cc:Agent>
      <dc:title>Matplotlib v3.8.2, https://matplotlib.org/</dc:title>
     </cc:Agent>
    </dc:creator>
   </cc:Work>
  </rdf:RDF>
 </metadata>
 <defs>
  <style type="text/css">*{stroke-linejoin: round; stroke-linecap: butt}</style>
 </defs>
 <g id="figure_1">
  <g id="axes_1">
   <g id="patch_1">
    <path d="M 32.968125 353.2239 
L 993.158125 353.2239 
L 993.158125 35.2559 
L 32.968125 35.2559 
z
" style="fill: #ffffff"/>
   </g>
   <g id="patch_2">
    <path d="M 32.968125 -918.6481 
L 959.32099 -918.6481 
L 959.32099 -6006.1361 
L 32.968125 -6006.1361 
z
" clip-path="url(#pc4be8ad548)" style="fill: #e6c3c3"/>
   </g>
   <g id="patch_3">
    <path d="M 32.968125 35.2559 
L 959.32099 35.2559 
L 959.32099 -918.6481 
L 32.968125 -918.6481 
z
" clip-path="url(#pc4be8ad548)" style="fill: #e6dcc3"/>
   </g>
   <g id="patch_4">
    <path d="M 32.968125 353.2239 
L 959.32099 353.2239 
L 959.32099 35.2559 
L 32.968125 35.2559 
z
" clip-path="url(#pc4be8ad548)" style="fill: #c3e6c3"/>
   </g>
   <g id="matplotlib.axis_1">
    <g id="xtick_1">
     <g id="text_1">
      <!-- 0 -->
      <g transform="translate(64.26026 366.30265) scale(0.08 -0.08)">
       <defs>
        <path id="DejaVuSans-30" d="M 2034 4250 
Q 1547 4250 1301 3770 
Q 1056 3291 1056 2328 
Q 1056 1369 1301 889 
Q 1547 409 2034 409 
Q 2525 409 2770 889 
Q 3016 1369 3016 2328 
Q 3016 3291 2770 3770 
Q 2525 4250 2034 4250 
z
M 2034 4750 
Q 2819 4750 3233 4129 
Q 3647 3509 3647 2328 
Q 3647 1150 3233 529 
Q 2819 -91 2034 -91 
Q 1250 -91 836 529 
Q 422 1150 422 2328 
Q 422 3509 836 4129 
Q 1250 4750 2034 4750 
z
" transform="scale(0.015625)"/>
       </defs>
       <use xlink:href="#DejaVuSans-30"/>
      </g>
     </g>
    </g>
    <g id="xtick_2">
     <g id="text_2">
      <!-- 20 -->
      <g transform="translate(257.872563 366.30265) scale(0.08 -0.08)">
       <defs>
        <path id="DejaVuSans-32" d="M 1228 531 
L 3431 531 
L 3431 0 
L 469 0 
L 469 531 
Q 828 903 1448 1529 
Q 2069 2156 2228 2338 
Q 2531 2678 2651 2914 
Q 2772 3150 2772 3378 
Q 2772 3750 2511 3984 
Q 2250 4219 1831 4219 
Q 1534 4219 1204 4116 
Q 875 4013 500 3803 
L 500 4441 
Q 881 4594 1212 4672 
Q 1544 4750 1819 4750 
Q 2544 4750 2975 4387 
Q 3406 4025 3406 3419 
Q 3406 3131 3298 2873 
Q 3191 2616 2906 2266 
Q 2828 2175 2409 1742 
Q 1991 1309 1228 531 
z
" transform="scale(0.015625)"/>
       </defs>
       <use xlink:href="#DejaVuSans-32"/>
       <use xlink:href="#DejaVuSans-30" x="63.623047"/>
      </g>
     </g>
    </g>
    <g id="xtick_3">
     <g id="text_3">
      <!-- 40 -->
      <g transform="translate(454.029867 366.30265) scale(0.08 -0.08)">
       <defs>
        <path id="DejaVuSans-34" d="M 2419 4116 
L 825 1625 
L 2419 1625 
L 2419 4116 
z
M 2253 4666 
L 3047 4666 
L 3047 1625 
L 3713 1625 
L 3713 1100 
L 3047 1100 
L 3047 0 
L 2419 0 
L 2419 1100 
L 313 1100 
L 313 1709 
L 2253 4666 
z
" transform="scale(0.015625)"/>
       </defs>
       <use xlink:href="#DejaVuSans-34"/>
       <use xlink:href="#DejaVuSans-30" x="63.623047"/>
      </g>
     </g>
    </g>
    <g id="xtick_4">
     <g id="text_4">
      <!-- 60 -->
      <g transform="translate(650.18717 366.30265) scale(0.08 -0.08)">
       <defs>
        <path id="DejaVuSans-36" d="M 2113 2584 
Q 1688 2584 1439 2293 
Q 1191 2003 1191 1497 
Q 1191 994 1439 701 
Q 1688 409 2113 409 
Q 2538 409 2786 701 
Q 3034 994 3034 1497 
Q 3034 2003 2786 2293 
Q 2538 2584 2113 2584 
z
M 3366 4563 
L 3366 3988 
Q 3128 4100 2886 4159 
Q 2644 4219 2406 4219 
Q 1781 4219 1451 3797 
Q 1122 3375 1075 2522 
Q 1259 2794 1537 2939 
Q 1816 3084 2150 3084 
Q 2853 3084 3261 2657 
Q 3669 2231 3669 1497 
Q 3669 778 3244 343 
Q 2819 -91 2113 -91 
Q 1303 -91 875 529 
Q 447 1150 447 2328 
Q 447 3434 972 4092 
Q 1497 4750 2381 4750 
Q 2619 4750 2861 4703 
Q 3103 4656 3366 4563 
z
" transform="scale(0.015625)"/>
       </defs>
       <use xlink:href="#DejaVuSans-36"/>
       <use xlink:href="#DejaVuSans-30" x="63.623047"/>
      </g>
     </g>
    </g>
    <g id="xtick_5">
     <g id="text_5">
      <!-- 80 -->
      <g transform="translate(846.344473 366.30265) scale(0.08 -0.08)">
       <defs>
        <path id="DejaVuSans-38" d="M 2034 2216 
Q 1584 2216 1326 1975 
Q 1069 1734 1069 1313 
Q 1069 891 1326 650 
Q 1584 409 2034 409 
Q 2484 409 2743 651 
Q 3003 894 3003 1313 
Q 3003 1734 2745 1975 
Q 2488 2216 2034 2216 
z
M 1403 2484 
Q 997 2584 770 2862 
Q 544 3141 544 3541 
Q 544 4100 942 4425 
Q 1341 4750 2034 4750 
Q 2731 4750 3128 4425 
Q 3525 4100 3525 3541 
Q 3525 3141 3298 2862 
Q 3072 2584 2669 2484 
Q 3125 2378 3379 2068 
Q 3634 1759 3634 1313 
Q 3634 634 3220 271 
Q 2806 -91 2034 -91 
Q 1263 -91 848 271 
Q 434 634 434 1313 
Q 434 1759 690 2068 
Q 947 2378 1403 2484 
z
M 1172 3481 
Q 1172 3119 1398 2916 
Q 1625 2713 2034 2713 
Q 2441 2713 2670 2916 
Q 2900 3119 2900 3481 
Q 2900 3844 2670 4047 
Q 2441 4250 2034 4250 
Q 1625 4250 1398 4047 
Q 1172 3844 1172 3481 
z
" transform="scale(0.015625)"/>
       </defs>
       <use xlink:href="#DejaVuSans-38"/>
       <use xlink:href="#DejaVuSans-30" x="63.623047"/>
      </g>
     </g>
    </g>
    <g id="text_6">
     <!-- Position (bp) -->
     <g transform="translate(481.76 379.564837) scale(0.1 -0.1)">
      <defs>
       <path id="DejaVuSans-50" d="M 1259 4147 
L 1259 2394 
L 2053 2394 
Q 2494 2394 2734 2622 
Q 2975 2850 2975 3272 
Q 2975 3691 2734 3919 
Q 2494 4147 2053 4147 
L 1259 4147 
z
M 628 4666 
L 2053 4666 
Q 2838 4666 3239 4311 
Q 3641 3956 3641 3272 
Q 3641 2581 3239 2228 
Q 2838 1875 2053 1875 
L 1259 1875 
L 1259 0 
L 628 0 
L 628 4666 
z
" transform="scale(0.015625)"/>
       <path id="DejaVuSans-6f" d="M 1959 3097 
Q 1497 3097 1228 2736 
Q 959 2375 959 1747 
Q 959 1119 1226 758 
Q 1494 397 1959 397 
Q 2419 397 2687 759 
Q 2956 1122 2956 1747 
Q 2956 2369 2687 2733 
Q 2419 3097 1959 3097 
z
M 1959 3584 
Q 2709 3584 3137 3096 
Q 3566 2609 3566 1747 
Q 3566 888 3137 398 
Q 2709 -91 1959 -91 
Q 1206 -91 779 398 
Q 353 888 353 1747 
Q 353 2609 779 3096 
Q 1206 3584 1959 3584 
z
" transform="scale(0.015625)"/>
       <path id="DejaVuSans-73" d="M 2834 3397 
L 2834 2853 
Q 2591 2978 2328 3040 
Q 2066 3103 1784 3103 
Q 1356 3103 1142 2972 
Q 928 2841 928 2578 
Q 928 2378 1081 2264 
Q 1234 2150 1697 2047 
L 1894 2003 
Q 2506 1872 2764 1633 
Q 3022 1394 3022 966 
Q 3022 478 2636 193 
Q 2250 -91 1575 -91 
Q 1294 -91 989 -36 
Q 684 19 347 128 
L 347 722 
Q 666 556 975 473 
Q 1284 391 1588 391 
Q 1994 391 2212 530 
Q 2431 669 2431 922 
Q 2431 1156 2273 1281 
Q 2116 1406 1581 1522 
L 1381 1569 
Q 847 1681 609 1914 
Q 372 2147 372 2553 
Q 372 3047 722 3315 
Q 1072 3584 1716 3584 
Q 2034 3584 2315 3537 
Q 2597 3491 2834 3397 
z
" transform="scale(0.015625)"/>
       <path id="DejaVuSans-69" d="M 603 3500 
L 1178 3500 
L 1178 0 
L 603 0 
L 603 3500 
z
M 603 4863 
L 1178 4863 
L 1178 4134 
L 603 4134 
L 603 4863 
z
" transform="scale(0.015625)"/>
       <path id="DejaVuSans-74" d="M 1172 4494 
L 1172 3500 
L 2356 3500 
L 2356 3053 
L 1172 3053 
L 1172 1153 
Q 1172 725 1289 603 
Q 1406 481 1766 481 
L 2356 481 
L 2356 0 
L 1766 0 
Q 1100 0 847 248 
Q 594 497 594 1153 
L 594 3053 
L 172 3053 
L 172 3500 
L 594 3500 
L 594 4494 
L 1172 4494 
z
" transform="scale(0.015625)"/>
       <path id="DejaVuSans-6e" d="M 3513 2113 
L 3513 0 
L 2938 0 
L 2938 2094 
Q 2938 2591 2744 2837 
Q 2550 3084 2163 3084 
Q 1697 3084 1428 2787 
Q 1159 2491 1159 1978 
L 1159 0 
L 581 0 
L 581 3500 
L 1159 3500 
L 1159 2956 
Q 1366 3272 1645 3428 
Q 1925 3584 2291 3584 
Q 2894 3584 3203 3211 
Q 3513 2838 3513 2113 
z
" transform="scale(0.015625)"/>
       <path id="DejaVuSans-20" transform="scale(0.015625)"/>
       <path id="DejaVuSans-28" d="M 1984 4856 
Q 1566 4138 1362 3434 
Q 1159 2731 1159 2009 
Q 1159 1288 1364 580 
Q 1569 -128 1984 -844 
L 1484 -844 
Q 1016 -109 783 600 
Q 550 1309 550 2009 
Q 550 2706 781 3412 
Q 1013 4119 1484 4856 
L 1984 4856 
z
" transform="scale(0.015625)"/>
       <path id="DejaVuSans-62" d="M 3116 1747 
Q 3116 2381 2855 2742 
Q 2594 3103 2138 3103 
Q 1681 3103 1420 2742 
Q 1159 2381 1159 1747 
Q 1159 1113 1420 752 
Q 1681 391 2138 391 
Q 2594 391 2855 752 
Q 3116 1113 3116 1747 
z
M 1159 2969 
Q 1341 3281 1617 3432 
Q 1894 3584 2278 3584 
Q 2916 3584 3314 3078 
Q 3713 2572 3713 1747 
Q 3713 922 3314 415 
Q 2916 -91 2278 -91 
Q 1894 -91 1617 61 
Q 1341 213 1159 525 
L 1159 0 
L 581 0 
L 581 4863 
L 1159 4863 
L 1159 2969 
z
" transform="scale(0.015625)"/>
       <path id="DejaVuSans-70" d="M 1159 525 
L 1159 -1331 
L 581 -1331 
L 581 3500 
L 1159 3500 
L 1159 2969 
Q 1341 3281 1617 3432 
Q 1894 3584 2278 3584 
Q 2916 3584 3314 3078 
Q 3713 2572 3713 1747 
Q 3713 922 3314 415 
Q 2916 -91 2278 -91 
Q 1894 -91 1617 61 
Q 1341 213 1159 525 
z
M 3116 1747 
Q 3116 2381 2855 2742 
Q 2594 3103 2138 3103 
Q 1681 3103 1420 2742 
Q 1159 2381 1159 1747 
Q 1159 1113 1420 752 
Q 1681 391 2138 391 
Q 2594 391 2855 752 
Q 3116 1113 3116 1747 
z
" transform="scale(0.015625)"/>
       <path id="DejaVuSans-29" d="M 513 4856 
L 1013 4856 
Q 1481 4119 1714 3412 
Q 1947 2706 1947 2009 
Q 1947 1309 1714 600 
Q 1481 -109 1013 -844 
L 513 -844 
Q 928 -128 1133 580 
Q 1338 1288 1338 2009 
Q 1338 2731 1133 3434 
Q 928 4138 513 4856 
z
" transform="scale(0.015625)"/>
      </defs>
      <use xlink:href="#DejaVuSans-50"/>
      <use xlink:href="#DejaVuSans-6f" x="56.677734"/>
      <use xlink:href="#DejaVuSans-73" x="117.859375"/>
      <use xlink:href="#DejaVuSans-69" x="169.958984"/>
      <use xlink:href="#DejaVuSans-74" x="197.742188"/>
      <use xlink:href="#DejaVuSans-69" x="236.951172"/>
      <use xlink:href="#DejaVuSans-6f" x="264.734375"/>
      <use xlink:href="#DejaVuSans-6e" x="325.916016"/>
      <use xlink:href="#DejaVuSans-20" x="389.294922"/>
      <use xlink:href="#DejaVuSans-28" x="421.082031"/>
      <use xlink:href="#DejaVuSans-62" x="460.095703"/>
      <use xlink:href="#DejaVuSans-70" x="523.572266"/>
      <use xlink:href="#DejaVuSans-29" x="587.048828"/>
     </g>
    </g>
   </g>
   <g id="matplotlib.axis_2">
    <g id="ytick_1">
     <g id="line2d_1">
      <path d="M 32.968125 353.2239 
L 993.158125 353.2239 
" clip-path="url(#pc4be8ad548)" style="fill: none; stroke: #dedede; stroke-linecap: square"/>
     </g>
     <g id="text_7">
      <!-- 0 -->
      <g transform="translate(20.878125 356.263275) scale(0.08 -0.08)">
       <use xlink:href="#DejaVuSans-30"/>
      </g>
     </g>
    </g>
    <g id="ytick_2">
     <g id="line2d_2">
      <path d="M 32.968125 289.6303 
L 993.158125 289.6303 
" clip-path="url(#pc4be8ad548)" style="fill: none; stroke: #dedede; stroke-linecap: square"/>
     </g>
     <g id="text_8">
      <!-- 1 -->
      <g transform="translate(20.878125 292.669675) scale(0.08 -0.08)">
       <defs>
        <path id="DejaVuSans-31" d="M 794 531 
L 1825 531 
L 1825 4091 
L 703 3866 
L 703 4441 
L 1819 4666 
L 2450 4666 
L 2450 531 
L 3481 531 
L 3481 0 
L 794 0 
L 794 531 
z
" transform="scale(0.015625)"/>
       </defs>
       <use xlink:href="#DejaVuSans-31"/>
      </g>
     </g>
    </g>
    <g id="ytick_3">
     <g id="line2d_3">
      <path d="M 32.968125 226.0367 
L 993.158125 226.0367 
" clip-path="url(#pc4be8ad548)" style="fill: none; stroke: #dedede; stroke-linecap: square"/>
     </g>
     <g id="text_9">
      <!-- 2 -->
      <g transform="translate(20.878125 229.076075) scale(0.08 -0.08)">
       <use xlink:href="#DejaVuSans-32"/>
      </g>
     </g>
    </g>
    <g id="ytick_4">
     <g id="line2d_4">
      <path d="M 32.968125 162.4431 
L 993.158125 162.4431 
" clip-path="url(#pc4be8ad548)" style="fill: none; stroke: #dedede; stroke-linecap: square"/>
     </g>
     <g id="text_10">
      <!-- 3 -->
      <g transform="translate(20.878125 165.482475) scale(0.08 -0.08)">
       <defs>
        <path id="DejaVuSans-33" d="M 2597 2516 
Q 3050 2419 3304 2112 
Q 3559 1806 3559 1356 
Q 3559 666 3084 287 
Q 2609 -91 1734 -91 
Q 1441 -91 1130 -33 
Q 819 25 488 141 
L 488 750 
Q 750 597 1062 519 
Q 1375 441 1716 441 
Q 2309 441 2620 675 
Q 2931 909 2931 1356 
Q 2931 1769 2642 2001 
Q 2353 2234 1838 2234 
L 1294 2234 
L 1294 2753 
L 1863 2753 
Q 2328 2753 2575 2939 
Q 2822 3125 2822 3475 
Q 2822 3834 2567 4026 
Q 2313 4219 1838 4219 
Q 1578 4219 1281 4162 
Q 984 4106 628 3988 
L 628 4550 
Q 988 4650 1302 4700 
Q 1616 4750 1894 4750 
Q 2613 4750 3031 4423 
Q 3450 4097 3450 3541 
Q 3450 3153 3228 2886 
Q 3006 2619 2597 2516 
z
" transform="scale(0.015625)"/>
       </defs>
       <use xlink:href="#DejaVuSans-33"/>
      </g>
     </g>
    </g>
    <g id="ytick_5">
     <g id="line2d_5">
      <path d="M 32.968125 98.8495 
L 993.158125 98.8495 
" clip-path="url(#pc4be8ad548)" style="fill: none; stroke: #dedede; stroke-linecap: square"/>
     </g>
     <g id="text_11">
      <!-- 4 -->
      <g transform="translate(20.878125 101.888875) scale(0.08 -0.08)">
       <use xlink:href="#DejaVuSans-34"/>
      </g>
     </g>
    </g>
    <g id="ytick_6">
     <g id="line2d_6">
      <path d="M 32.968125 35.2559 
L 993.158125 35.2559 
" clip-path="url(#pc4be8ad548)" style="fill: none; stroke: #dedede; stroke-linecap: square"/>
     </g>
     <g id="text_12">
      <!-- 5 -->
      <g transform="translate(20.878125 38.295275) scale(0.08 -0.08)">
       <defs>
        <path id="DejaVuSans-35" d="M 691 4666 
L 3169 4666 
L 3169 4134 
L 1269 4134 
L 1269 2991 
Q 1406 3038 1543 3061 
Q 1681 3084 1819 3084 
Q 2600 3084 3056 2656 
Q 3513 2228 3513 1497 
Q 3513 744 3044 326 
Q 2575 -91 1722 -91 
Q 1428 -91 1123 -41 
Q 819 9 494 109 
L 494 744 
Q 775 591 1075 516 
Q 1375 441 1709 441 
Q 2250 441 2565 725 
Q 2881 1009 2881 1497 
Q 2881 1984 2565 2268 
Q 2250 2553 1709 2553 
Q 1456 2553 1204 2497 
Q 953 2441 691 2322 
L 691 4666 
z
" transform="scale(0.015625)"/>
       </defs>
       <use xlink:href="#DejaVuSans-35"/>
      </g>
     </g>
    </g>
    <g id="text_13">
     <!-- % of Sequences -->
     <g transform="translate(14.798437 234.257869) rotate(-90) scale(0.1 -0.1)">
      <defs>
       <path id="DejaVuSans-25" d="M 4653 2053 
Q 4381 2053 4226 1822 
Q 4072 1591 4072 1178 
Q 4072 772 4226 539 
Q 4381 306 4653 306 
Q 4919 306 5073 539 
Q 5228 772 5228 1178 
Q 5228 1588 5073 1820 
Q 4919 2053 4653 2053 
z
M 4653 2450 
Q 5147 2450 5437 2106 
Q 5728 1763 5728 1178 
Q 5728 594 5436 251 
Q 5144 -91 4653 -91 
Q 4153 -91 3862 251 
Q 3572 594 3572 1178 
Q 3572 1766 3864 2108 
Q 4156 2450 4653 2450 
z
M 1428 4353 
Q 1159 4353 1004 4120 
Q 850 3888 850 3481 
Q 850 3069 1003 2837 
Q 1156 2606 1428 2606 
Q 1700 2606 1854 2837 
Q 2009 3069 2009 3481 
Q 2009 3884 1853 4118 
Q 1697 4353 1428 4353 
z
M 4250 4750 
L 4750 4750 
L 1831 -91 
L 1331 -91 
L 4250 4750 
z
M 1428 4750 
Q 1922 4750 2215 4408 
Q 2509 4066 2509 3481 
Q 2509 2891 2217 2550 
Q 1925 2209 1428 2209 
Q 931 2209 642 2551 
Q 353 2894 353 3481 
Q 353 4063 643 4406 
Q 934 4750 1428 4750 
z
" transform="scale(0.015625)"/>
       <path id="DejaVuSans-66" d="M 2375 4863 
L 2375 4384 
L 1825 4384 
Q 1516 4384 1395 4259 
Q 1275 4134 1275 3809 
L 1275 3500 
L 2222 3500 
L 2222 3053 
L 1275 3053 
L 1275 0 
L 697 0 
L 697 3053 
L 147 3053 
L 147 3500 
L 697 3500 
L 697 3744 
Q 697 4328 969 4595 
Q 1241 4863 1831 4863 
L 2375 4863 
z
" transform="scale(0.015625)"/>
       <path id="DejaVuSans-53" d="M 3425 4513 
L 3425 3897 
Q 3066 4069 2747 4153 
Q 2428 4238 2131 4238 
Q 1616 4238 1336 4038 
Q 1056 3838 1056 3469 
Q 1056 3159 1242 3001 
Q 1428 2844 1947 2747 
L 2328 2669 
Q 3034 2534 3370 2195 
Q 3706 1856 3706 1288 
Q 3706 609 3251 259 
Q 2797 -91 1919 -91 
Q 1588 -91 1214 -16 
Q 841 59 441 206 
L 441 856 
Q 825 641 1194 531 
Q 1563 422 1919 422 
Q 2459 422 2753 634 
Q 3047 847 3047 1241 
Q 3047 1584 2836 1778 
Q 2625 1972 2144 2069 
L 1759 2144 
Q 1053 2284 737 2584 
Q 422 2884 422 3419 
Q 422 4038 858 4394 
Q 1294 4750 2059 4750 
Q 2388 4750 2728 4690 
Q 3069 4631 3425 4513 
z
" transform="scale(0.015625)"/>
       <path id="DejaVuSans-65" d="M 3597 1894 
L 3597 1613 
L 953 1613 
Q 991 1019 1311 708 
Q 1631 397 2203 397 
Q 2534 397 2845 478 
Q 3156 559 3463 722 
L 3463 178 
Q 3153 47 2828 -22 
Q 2503 -91 2169 -91 
Q 1331 -91 842 396 
Q 353 884 353 1716 
Q 353 2575 817 3079 
Q 1281 3584 2069 3584 
Q 2775 3584 3186 3129 
Q 3597 2675 3597 1894 
z
M 3022 2063 
Q 3016 2534 2758 2815 
Q 2500 3097 2075 3097 
Q 1594 3097 1305 2825 
Q 1016 2553 972 2059 
L 3022 2063 
z
" transform="scale(0.015625)"/>
       <path id="DejaVuSans-71" d="M 947 1747 
Q 947 1113 1208 752 
Q 1469 391 1925 391 
Q 2381 391 2643 752 
Q 2906 1113 2906 1747 
Q 2906 2381 2643 2742 
Q 2381 3103 1925 3103 
Q 1469 3103 1208 2742 
Q 947 2381 947 1747 
z
M 2906 525 
Q 2725 213 2448 61 
Q 2172 -91 1784 -91 
Q 1150 -91 751 415 
Q 353 922 353 1747 
Q 353 2572 751 3078 
Q 1150 3584 1784 3584 
Q 2172 3584 2448 3432 
Q 2725 3281 2906 2969 
L 2906 3500 
L 3481 3500 
L 3481 -1331 
L 2906 -1331 
L 2906 525 
z
" transform="scale(0.015625)"/>
       <path id="DejaVuSans-75" d="M 544 1381 
L 544 3500 
L 1119 3500 
L 1119 1403 
Q 1119 906 1312 657 
Q 1506 409 1894 409 
Q 2359 409 2629 706 
Q 2900 1003 2900 1516 
L 2900 3500 
L 3475 3500 
L 3475 0 
L 2900 0 
L 2900 538 
Q 2691 219 2414 64 
Q 2138 -91 1772 -91 
Q 1169 -91 856 284 
Q 544 659 544 1381 
z
M 1991 3584 
L 1991 3584 
z
" transform="scale(0.015625)"/>
       <path id="DejaVuSans-63" d="M 3122 3366 
L 3122 2828 
Q 2878 2963 2633 3030 
Q 2388 3097 2138 3097 
Q 1578 3097 1268 2742 
Q 959 2388 959 1747 
Q 959 1106 1268 751 
Q 1578 397 2138 397 
Q 2388 397 2633 464 
Q 2878 531 3122 666 
L 3122 134 
Q 2881 22 2623 -34 
Q 2366 -91 2075 -91 
Q 1284 -91 818 406 
Q 353 903 353 1747 
Q 353 2603 823 3093 
Q 1294 3584 2113 3584 
Q 2378 3584 2631 3529 
Q 2884 3475 3122 3366 
z
" transform="scale(0.015625)"/>
      </defs>
      <use xlink:href="#DejaVuSans-25"/>
      <use xlink:href="#DejaVuSans-20" x="95.019531"/>
      <use xlink:href="#DejaVuSans-6f" x="126.806641"/>
      <use xlink:href="#DejaVuSans-66" x="187.988281"/>
      <use xlink:href="#DejaVuSans-20" x="223.193359"/>
      <use xlink:href="#DejaVuSans-53" x="254.980469"/>
      <use xlink:href="#DejaVuSans-65" x="318.457031"/>
      <use xlink:href="#DejaVuSans-71" x="379.980469"/>
      <use xlink:href="#DejaVuSans-75" x="443.457031"/>
      <use xlink:href="#DejaVuSans-65" x="506.835938"/>
      <use xlink:href="#DejaVuSans-6e" x="568.359375"/>
      <use xlink:href="#DejaVuSans-63" x="631.738281"/>
      <use xlink:href="#DejaVuSans-65" x="686.71875"/>
      <use xlink:href="#DejaVuSans-73" x="748.242188"/>
     </g>
    </g>
   </g>
   <g id="line2d_7">
    <path d="M 76.613125 353.09603 
L 86.42099 352.843909 
L 96.228855 352.695712 
L 106.036721 352.378872 
L 115.844586 352.185861 
L 125.652451 351.980424 
L 135.460316 351.784216 
L 145.268181 351.481912 
L 155.076046 350.967839 
L 164.883912 350.37077 
L 184.499642 350.035503 
L 204.115372 349.628823 
L 223.731103 349.281794 
L 243.346833 348.985733 
L 262.962563 348.696306 
L 282.578294 348.356637 
L 302.194024 348.014222 
L 321.809754 347.547044 
L 341.425485 347.115302 
L 361.041215 346.75802 
L 380.656945 346.395883 
L 400.272676 346.043758 
L 419.888406 345.730536 
L 439.504136 345.444759 
L 459.119867 345.171949 
L 478.735597 344.874833 
L 498.351327 344.59759 
L 517.967058 344.281896 
L 537.582788 344.011167 
L 557.198518 343.785344 
L 576.814249 343.562597 
L 596.429979 343.307731 
L 616.045709 343.056244 
L 635.66144 342.819382 
L 655.27717 342.60131 
L 674.8929 342.361101 
L 694.508631 342.129276 
L 714.124361 341.901945 
L 733.740091 341.661224 
L 753.355822 341.433199 
L 772.971552 341.188195 
L 792.587282 340.946811 
L 812.203013 340.669447 
L 831.818743 340.382252 
L 851.434473 340.139993 
L 871.050204 339.93142 
L 890.665934 339.706351 
L 910.281664 339.412189 
L 929.897395 339.156057 
L 949.513125 338.935994 
" clip-path="url(#pc4be8ad548)" style="fill: none; stroke: #7cb5ec; stroke-linecap: square"/>
   </g>
   <g id="line2d_8">
    <path d="M 76.613125 353.108961 
L 86.42099 352.878655 
L 96.228855 352.759936 
L 106.036721 352.494325 
L 115.844586 352.320301 
L 125.652451 352.142313 
L 135.460316 351.944629 
L 145.268181 351.677373 
L 155.076046 351.23036 
L 164.883912 350.699231 
L 184.499642 350.391334 
L 204.115372 350.037095 
L 223.731103 349.730022 
L 243.346833 349.469991 
L 262.962563 349.221179 
L 282.578294 348.926392 
L 302.194024 348.64566 
L 321.809754 348.249379 
L 341.425485 347.866421 
L 361.041215 347.574255 
L 380.656945 347.251999 
L 400.272676 346.942273 
L 419.888406 346.674985 
L 439.504136 346.436113 
L 459.119867 346.214954 
L 478.735597 345.958155 
L 498.351327 345.7266 
L 517.967058 345.468062 
L 537.582788 345.238184 
L 557.198518 345.044342 
L 576.814249 344.855866 
L 596.429979 344.651902 
L 616.045709 344.443396 
L 635.66144 344.249158 
L 655.27717 344.069767 
L 674.8929 343.86812 
L 694.508631 343.674462 
L 714.124361 343.489888 
L 733.740091 343.308363 
L 753.355822 343.122235 
L 772.971552 342.913789 
L 792.587282 342.700344 
L 812.203013 342.486594 
L 831.818743 342.249246 
L 851.434473 342.052629 
L 871.050204 341.87458 
L 890.665934 341.681562 
L 910.281664 341.443482 
L 929.897395 341.221866 
L 949.513125 341.028573 
" clip-path="url(#pc4be8ad548)" style="fill: none; stroke: #434348; stroke-linecap: square"/>
   </g>
   <g id="line2d_9">
    <path d="M 76.613125 353.099821 
L 86.42099 352.847336 
L 96.228855 352.689442 
L 106.036721 352.30509 
L 115.844586 352.058862 
L 125.652451 351.784144 
L 135.460316 351.552095 
L 145.268181 351.217535 
L 155.076046 350.615179 
L 164.883912 349.906185 
L 184.499642 349.525494 
L 204.115372 349.103998 
L 223.731103 348.738651 
L 243.346833 348.406819 
L 262.962563 348.078849 
L 282.578294 347.697992 
L 302.194024 347.34396 
L 321.809754 346.814162 
L 341.425485 346.293749 
L 361.041215 345.893388 
L 380.656945 345.507272 
L 400.272676 345.120424 
L 419.888406 344.79252 
L 439.504136 344.507118 
L 459.119867 344.217756 
L 478.735597 343.889652 
L 498.351327 343.570069 
L 517.967058 343.219765 
L 537.582788 342.91912 
L 557.198518 342.651491 
L 576.814249 342.405996 
L 596.429979 342.139233 
L 616.045709 341.862884 
L 635.66144 341.595056 
L 655.27717 341.356683 
L 674.8929 341.098507 
L 694.508631 340.835338 
L 714.124361 340.569241 
L 733.740091 340.298018 
L 753.355822 340.038044 
L 772.971552 339.742325 
L 792.587282 339.455093 
L 812.203013 339.127622 
L 831.818743 338.787369 
L 851.434473 338.499904 
L 871.050204 338.254941 
L 890.665934 337.998995 
L 910.281664 337.661306 
L 929.897395 337.382461 
L 949.513125 337.141759 
" clip-path="url(#pc4be8ad548)" style="fill: none; stroke: #90ed7d; stroke-linecap: square"/>
   </g>
   <g id="line2d_10">
    <path d="M 76.613125 353.2239 
L 86.42099 353.2239 
L 96.228855 352.876026 
L 106.036721 352.482422 
L 115.844586 352.459057 
L 125.652451 352.450869 
L 135.460316 352.441017 
L 145.268181 352.430766 
L 155.076046 352.422912 
L 164.883912 352.407302 
L 184.499642 352.381308 
L 204.115372 352.348258 
L 223.731103 352.322796 
L 243.346833 352.301129 
L 262.962563 352.2766 
L 282.578294 352.229537 
L 302.194024 352.15079 
L 321.809754 352.003113 
L 341.425485 351.852375 
L 361.041215 351.531294 
L 380.656945 351.334524 
L 400.272676 351.232113 
L 419.888406 351.182621 
L 439.504136 351.047758 
L 459.119867 350.713963 
L 478.735597 350.514798 
L 498.351327 349.737973 
L 517.967058 349.517839 
L 537.582788 349.199421 
L 557.198518 349.061562 
L 576.814249 348.991502 
L 596.429979 348.888225 
L 616.045709 348.812739 
L 635.66144 348.757323 
L 655.27717 348.699843 
L 674.8929 348.622859 
L 694.508631 348.55616 
L 714.124361 348.456611 
L 733.740091 348.167382 
L 753.355822 347.853257 
L 772.971552 346.82611 
L 792.587282 345.991073 
L 812.203013 345.761021 
L 831.818743 345.631151 
L 851.434473 345.544516 
L 871.050204 345.454918 
L 890.665934 345.382461 
L 910.281664 345.272194 
L 929.897395 345.195976 
L 949.513125 345.160563 
" clip-path="url(#pc4be8ad548)" style="fill: none; stroke: #f7a35c; stroke-linecap: square"/>
   </g>
   <g id="line2d_11">
    <path d="M 76.613125 353.089813 
L 86.42099 352.874315 
L 96.228855 352.728745 
L 106.036721 352.445032 
L 115.844586 352.253871 
L 125.652451 352.071109 
L 135.460316 351.884061 
L 145.268181 351.573668 
L 155.076046 351.07897 
L 164.883912 350.517943 
L 184.499642 350.181155 
L 204.115372 349.770382 
L 223.731103 349.451648 
L 243.346833 349.155423 
L 262.962563 348.867482 
L 282.578294 348.524153 
L 302.194024 348.187422 
L 321.809754 347.695638 
L 341.425485 347.269183 
L 361.041215 346.928196 
L 380.656945 346.59635 
L 400.272676 346.226483 
L 419.888406 345.91529 
L 439.504136 345.640661 
L 459.119867 345.37143 
L 478.735597 345.073263 
L 498.351327 344.792064 
L 517.967058 344.473644 
L 537.582788 344.210984 
L 557.198518 343.975061 
L 576.814249 343.738681 
L 596.429979 343.484733 
L 616.045709 343.237784 
L 635.66144 342.995148 
L 655.27717 342.787876 
L 674.8929 342.5337 
L 694.508631 342.314717 
L 714.124361 342.088192 
L 733.740091 341.844185 
L 753.355822 341.595122 
L 772.971552 341.325835 
L 792.587282 341.080456 
L 812.203013 340.802285 
L 831.818743 340.511631 
L 851.434473 340.273565 
L 871.050204 340.05721 
L 890.665934 339.828114 
L 910.281664 339.494497 
L 929.897395 339.232323 
L 949.513125 339.011511 
" clip-path="url(#pc4be8ad548)" style="fill: none; stroke: #8085e9; stroke-linecap: square"/>
   </g>
   <g id="line2d_12">
    <path d="M 76.613125 353.131681 
L 86.42099 352.901593 
L 96.228855 352.742114 
L 106.036721 352.403386 
L 115.844586 352.144068 
L 125.652451 351.905244 
L 135.460316 351.643431 
L 145.268181 351.257083 
L 155.076046 350.559265 
L 164.883912 349.803317 
L 184.499642 349.400186 
L 204.115372 348.883063 
L 223.731103 348.474973 
L 243.346833 348.103732 
L 262.962563 347.750783 
L 282.578294 347.317373 
L 302.194024 346.885966 
L 321.809754 346.264504 
L 341.425485 345.676344 
L 361.041215 345.22244 
L 380.656945 344.798488 
L 400.272676 344.328065 
L 419.888406 343.92234 
L 439.504136 343.555073 
L 459.119867 343.199891 
L 478.735597 342.76254 
L 498.351327 342.37294 
L 517.967058 341.945835 
L 537.582788 341.585136 
L 557.198518 341.232187 
L 576.814249 340.905479 
L 596.429979 340.560577 
L 616.045709 340.235182 
L 635.66144 339.900066 
L 655.27717 339.615198 
L 674.8929 339.286126 
L 694.508631 338.989139 
L 714.124361 338.693237 
L 733.740091 338.338416 
L 753.355822 337.993941 
L 772.971552 337.623093 
L 792.587282 337.30072 
L 812.203013 336.969907 
L 831.818743 336.622016 
L 851.434473 336.325194 
L 871.050204 336.043281 
L 890.665934 335.741434 
L 910.281664 335.317219 
L 929.897395 334.9623 
L 949.513125 334.672145 
" clip-path="url(#pc4be8ad548)" style="fill: none; stroke: #f15c80; stroke-linecap: square"/>
   </g>
   <g id="line2d_13">
    <path d="M 76.613125 353.143488 
L 86.42099 352.93926 
L 96.228855 352.803795 
L 106.036721 352.50485 
L 115.844586 352.302194 
L 125.652451 352.10772 
L 135.460316 351.890054 
L 145.268181 351.549115 
L 155.076046 350.976259 
L 164.883912 350.305651 
L 184.499642 349.948781 
L 204.115372 349.514181 
L 223.731103 349.163218 
L 243.346833 348.860534 
L 262.962563 348.566872 
L 282.578294 348.209487 
L 302.194024 347.876459 
L 321.809754 347.363913 
L 341.425485 346.912109 
L 361.041215 346.568 
L 380.656945 346.210777 
L 400.272676 345.826625 
L 419.888406 345.502998 
L 439.504136 345.22142 
L 459.119867 344.955474 
L 478.735597 344.64916 
L 498.351327 344.36303 
L 517.967058 344.040677 
L 537.582788 343.766766 
L 557.198518 343.526179 
L 576.814249 343.295455 
L 596.429979 343.049314 
L 616.045709 342.810462 
L 635.66144 342.55874 
L 655.27717 342.34484 
L 674.8929 342.108236 
L 694.508631 341.895637 
L 714.124361 341.666511 
L 733.740091 341.402028 
L 753.355822 341.147624 
L 772.971552 340.86629 
L 792.587282 340.596226 
L 812.203013 340.309663 
L 831.818743 340.000422 
L 851.434473 339.756205 
L 871.050204 339.522907 
L 890.665934 339.273001 
L 910.281664 338.953546 
L 929.897395 338.664897 
L 949.513125 338.409842 
" clip-path="url(#pc4be8ad548)" style="fill: none; stroke: #e4d354; stroke-linecap: square"/>
   </g>
   <g id="line2d_14">
    <path d="M 76.613125 353.116798 
L 86.42099 352.866615 
L 96.228855 352.714293 
L 106.036721 352.368142 
L 115.844586 352.167571 
L 125.652451 351.938975 
L 135.460316 351.707122 
L 145.268181 351.35014 
L 155.076046 350.766379 
L 164.883912 350.097709 
L 184.499642 349.718041 
L 204.115372 349.264901 
L 223.731103 348.884627 
L 243.346833 348.55764 
L 262.962563 348.233947 
L 282.578294 347.858634 
L 302.194024 347.517747 
L 321.809754 347.026394 
L 341.425485 346.523301 
L 361.041215 346.125947 
L 380.656945 345.727002 
L 400.272676 345.311962 
L 419.888406 344.967174 
L 439.504136 344.658176 
L 459.119867 344.356676 
L 478.735597 344.028893 
L 498.351327 343.725613 
L 517.967058 343.386203 
L 537.582788 343.078379 
L 557.198518 342.817213 
L 576.814249 342.572369 
L 596.429979 342.303553 
L 616.045709 342.036479 
L 635.66144 341.78266 
L 655.27717 341.559896 
L 674.8929 341.307479 
L 694.508631 341.057106 
L 714.124361 340.812112 
L 733.740091 340.565375 
L 753.355822 340.318941 
L 772.971552 340.055351 
L 792.587282 339.789868 
L 812.203013 339.49954 
L 831.818743 339.186262 
L 851.434473 338.931307 
L 871.050204 338.709831 
L 890.665934 338.473547 
L 910.281664 338.160988 
L 929.897395 337.891528 
L 949.513125 337.641042 
" clip-path="url(#pc4be8ad548)" style="fill: none; stroke: #2b908f; stroke-linecap: square"/>
   </g>
   <g id="line2d_15">
    <path d="M 76.613125 353.114946 
L 86.42099 352.906351 
L 96.228855 352.783093 
L 106.036721 352.512961 
L 115.844586 352.311061 
L 125.652451 352.105449 
L 135.460316 351.930027 
L 145.268181 351.674077 
L 155.076046 351.221036 
L 164.883912 350.661719 
L 184.499642 350.369734 
L 204.115372 350.032099 
L 223.731103 349.719146 
L 243.346833 349.458174 
L 262.962563 349.204628 
L 282.578294 348.899131 
L 302.194024 348.610738 
L 321.809754 348.196318 
L 341.425485 347.797966 
L 361.041215 347.500687 
L 380.656945 347.184964 
L 400.272676 346.880167 
L 419.888406 346.610308 
L 439.504136 346.363397 
L 459.119867 346.138428 
L 478.735597 345.869483 
L 498.351327 345.614232 
L 517.967058 345.328518 
L 537.582788 345.08681 
L 557.198518 344.88275 
L 576.814249 344.681916 
L 596.429979 344.467812 
L 616.045709 344.254287 
L 635.66144 344.043714 
L 655.27717 343.852953 
L 674.8929 343.645332 
L 694.508631 343.443828 
L 714.124361 343.236877 
L 733.740091 343.027521 
L 753.355822 342.819657 
L 772.971552 342.599771 
L 792.587282 342.379459 
L 812.203013 342.141373 
L 831.818743 341.889044 
L 851.434473 341.673997 
L 871.050204 341.487072 
L 890.665934 341.290255 
L 910.281664 341.031443 
L 929.897395 340.801697 
L 949.513125 340.612336 
" clip-path="url(#pc4be8ad548)" style="fill: none; stroke: #f45b5b; stroke-linecap: square"/>
   </g>
   <g id="line2d_16">
    <path d="M 76.613125 353.118625 
L 86.42099 352.904166 
L 96.228855 352.778373 
L 106.036721 352.47018 
L 115.844586 352.270621 
L 125.652451 352.060803 
L 135.460316 351.853428 
L 145.268181 351.568806 
L 155.076046 351.063375 
L 164.883912 350.448057 
L 184.499642 350.12988 
L 204.115372 349.776866 
L 223.731103 349.457621 
L 243.346833 349.182677 
L 262.962563 348.912986 
L 282.578294 348.600946 
L 302.194024 348.303592 
L 321.809754 347.880262 
L 341.425485 347.473389 
L 361.041215 347.156708 
L 380.656945 346.823753 
L 400.272676 346.495531 
L 419.888406 346.214268 
L 439.504136 345.958957 
L 459.119867 345.718912 
L 478.735597 345.454075 
L 498.351327 345.1911 
L 517.967058 344.894571 
L 537.582788 344.638619 
L 557.198518 344.420862 
L 576.814249 344.221212 
L 596.429979 343.997105 
L 616.045709 343.769578 
L 635.66144 343.540281 
L 655.27717 343.333913 
L 674.8929 343.11405 
L 694.508631 342.886829 
L 714.124361 342.661226 
L 733.740091 342.439928 
L 753.355822 342.216798 
L 772.971552 341.977578 
L 792.587282 341.733075 
L 812.203013 341.453277 
L 831.818743 341.146947 
L 851.434473 340.903391 
L 871.050204 340.689665 
L 890.665934 340.465222 
L 910.281664 340.178737 
L 929.897395 339.930144 
L 949.513125 339.714403 
" clip-path="url(#pc4be8ad548)" style="fill: none; stroke: #91e8e1; stroke-linecap: square"/>
   </g>
   <g id="line2d_17">
    <path d="M 76.613125 353.138036 
L 86.42099 352.952511 
L 96.228855 352.841086 
L 106.036721 352.579482 
L 115.844586 352.405171 
L 125.652451 352.227342 
L 135.460316 352.028954 
L 145.268181 351.715073 
L 155.076046 351.222814 
L 164.883912 350.639166 
L 184.499642 350.294309 
L 204.115372 349.871752 
L 223.731103 349.551192 
L 243.346833 349.266886 
L 262.962563 348.987279 
L 282.578294 348.665097 
L 302.194024 348.358967 
L 321.809754 347.891939 
L 341.425485 347.46427 
L 361.041215 347.14885 
L 380.656945 346.830626 
L 400.272676 346.483076 
L 419.888406 346.205613 
L 439.504136 345.955031 
L 459.119867 345.717751 
L 478.735597 345.448479 
L 498.351327 345.206582 
L 517.967058 344.929201 
L 537.582788 344.689063 
L 557.198518 344.472617 
L 576.814249 344.262026 
L 596.429979 344.037417 
L 616.045709 343.830454 
L 635.66144 343.612634 
L 655.27717 343.419468 
L 674.8929 343.21146 
L 694.508631 343.029865 
L 714.124361 342.837222 
L 733.740091 342.621133 
L 753.355822 342.413153 
L 772.971552 342.187032 
L 792.587282 341.961626 
L 812.203013 341.736303 
L 831.818743 341.498171 
L 851.434473 341.305005 
L 871.050204 341.124372 
L 890.665934 340.922686 
L 910.281664 340.658993 
L 929.897395 340.424627 
L 949.513125 340.217526 
" clip-path="url(#pc4be8ad548)" style="fill: none; stroke: #7cb5ec; stroke-linecap: square"/>
   </g>
   <g id="line2d_18">
    <path d="M 76.613125 353.110627 
L 86.42099 352.907358 
L 96.228855 352.76823 
L 106.036721 352.495728 
L 115.844586 352.297749 
L 125.652451 352.106382 
L 135.460316 351.91766 
L 145.268181 351.625981 
L 155.076046 351.099359 
L 164.883912 350.516927 
L 184.499642 350.178729 
L 204.115372 349.758734 
L 223.731103 349.443944 
L 243.346833 349.156266 
L 262.962563 348.876457 
L 282.578294 348.539713 
L 302.194024 348.215633 
L 321.809754 347.724851 
L 341.425485 347.282637 
L 361.041215 346.951151 
L 380.656945 346.624823 
L 400.272676 346.263944 
L 419.888406 345.972397 
L 439.504136 345.70125 
L 459.119867 345.438402 
L 478.735597 345.134291 
L 498.351327 344.863607 
L 517.967058 344.56072 
L 537.582788 344.299591 
L 557.198518 344.063193 
L 576.814249 343.822894 
L 596.429979 343.572312 
L 616.045709 343.333269 
L 635.66144 343.094622 
L 655.27717 342.889435 
L 674.8929 342.641234 
L 694.508631 342.430757 
L 714.124361 342.211783 
L 733.740091 341.960672 
L 753.355822 341.712603 
L 772.971552 341.447638 
L 792.587282 341.196164 
L 812.203013 340.928951 
L 831.818743 340.641637 
L 851.434473 340.410859 
L 871.050204 340.201044 
L 890.665934 339.965009 
L 910.281664 339.64245 
L 929.897395 339.374874 
L 949.513125 339.142707 
" clip-path="url(#pc4be8ad548)" style="fill: none; stroke: #434348; stroke-linecap: square"/>
   </g>
   <g id="line2d_19">
    <path d="M 76.613125 353.145555 
L 86.42099 352.951514 
L 96.228855 352.829421 
L 106.036721 352.508611 
L 115.844586 352.311337 
L 125.652451 352.134836 
L 135.460316 351.916308 
L 145.268181 351.578714 
L 155.076046 351.006771 
L 164.883912 350.345443 
L 184.499642 349.958187 
L 204.115372 349.497159 
L 223.731103 349.138999 
L 243.346833 348.835419 
L 262.962563 348.543016 
L 282.578294 348.199713 
L 302.194024 347.881585 
L 321.809754 347.392218 
L 341.425485 346.925344 
L 361.041215 346.580287 
L 380.656945 346.227216 
L 400.272676 345.847698 
L 419.888406 345.538891 
L 439.504136 345.280502 
L 459.119867 345.023007 
L 478.735597 344.724483 
L 498.351327 344.445906 
L 517.967058 344.128775 
L 537.582788 343.856836 
L 557.198518 343.621834 
L 576.814249 343.397528 
L 596.429979 343.15324 
L 616.045709 342.898875 
L 635.66144 342.658027 
L 655.27717 342.455628 
L 674.8929 342.213851 
L 694.508631 342.000895 
L 714.124361 341.790758 
L 733.740091 341.530168 
L 753.355822 341.265348 
L 772.971552 340.977554 
L 792.587282 340.701075 
L 812.203013 340.418199 
L 831.818743 340.132572 
L 851.434473 339.897054 
L 871.050204 339.669412 
L 890.665934 339.423164 
L 910.281664 339.114941 
L 929.897395 338.837636 
L 949.513125 338.575086 
" clip-path="url(#pc4be8ad548)" style="fill: none; stroke: #90ed7d; stroke-linecap: square"/>
   </g>
   <g id="line2d_20">
    <path d="M 76.613125 353.2239 
L 86.42099 353.2239 
L 96.228855 352.865327 
L 106.036721 352.576226 
L 115.844586 352.555659 
L 125.652451 352.546786 
L 135.460316 352.541696 
L 145.268181 352.535161 
L 155.076046 352.527526 
L 164.883912 352.513047 
L 184.499642 352.489695 
L 204.115372 352.459499 
L 223.731103 352.4368 
L 243.346833 352.415029 
L 262.962563 352.388513 
L 282.578294 352.354327 
L 302.194024 352.303117 
L 321.809754 352.229174 
L 341.425485 352.137209 
L 361.041215 351.969134 
L 380.656945 351.84632 
L 400.272676 351.770141 
L 419.888406 351.730418 
L 439.504136 351.657335 
L 459.119867 351.499096 
L 478.735597 351.37181 
L 498.351327 350.918762 
L 517.967058 350.714059 
L 537.582788 349.290944 
L 557.198518 349.100445 
L 576.814249 349.046931 
L 596.429979 348.971096 
L 616.045709 348.90582 
L 635.66144 348.854885 
L 655.27717 348.808524 
L 674.8929 348.752946 
L 694.508631 348.701427 
L 714.124361 348.607949 
L 733.740091 348.344676 
L 753.355822 348.140868 
L 772.971552 347.916975 
L 792.587282 347.618657 
L 812.203013 347.377395 
L 831.818743 347.189304 
L 851.434473 347.034986 
L 871.050204 346.88961 
L 890.665934 346.796751 
L 910.281664 346.692165 
L 929.897395 346.607732 
L 949.513125 346.56371 
" clip-path="url(#pc4be8ad548)" style="fill: none; stroke: #f7a35c; stroke-linecap: square"/>
   </g>
   <g id="line2d_21">
    <path d="M 76.613125 353.141911 
L 86.42099 352.939623 
L 96.228855 352.808641 
L 106.036721 352.494083 
L 115.844586 352.287073 
L 125.652451 352.064008 
L 135.460316 351.858533 
L 145.268181 351.556902 
L 155.076046 351.039289 
L 164.883912 350.408639 
L 184.499642 350.073333 
L 204.115372 349.723417 
L 223.731103 349.383979 
L 243.346833 349.095246 
L 262.962563 348.81333 
L 282.578294 348.482628 
L 302.194024 348.171523 
L 321.809754 347.743662 
L 341.425485 347.337906 
L 361.041215 347.002187 
L 380.656945 346.673079 
L 400.272676 346.313394 
L 419.888406 346.002909 
L 439.504136 345.717186 
L 459.119867 345.459796 
L 478.735597 345.154447 
L 498.351327 344.877076 
L 517.967058 344.567801 
L 537.582788 344.302413 
L 557.198518 344.054615 
L 576.814249 343.810743 
L 596.429979 343.539836 
L 616.045709 343.282653 
L 635.66144 343.040403 
L 655.27717 342.823241 
L 674.8929 342.58536 
L 694.508631 342.347597 
L 714.124361 342.095047 
L 733.740091 341.838041 
L 753.355822 341.587115 
L 772.971552 341.312784 
L 792.587282 341.030013 
L 812.203013 340.710555 
L 831.818743 340.385845 
L 851.434473 340.127894 
L 871.050204 339.883874 
L 890.665934 339.633302 
L 910.281664 339.322286 
L 929.897395 339.055363 
L 949.513125 338.841005 
" clip-path="url(#pc4be8ad548)" style="fill: none; stroke: #8085e9; stroke-linecap: square"/>
   </g>
   <g id="line2d_22">
    <path d="M 76.613125 353.2239 
L 86.42099 353.2239 
L 96.228855 352.953731 
L 106.036721 352.512618 
L 115.844586 352.486587 
L 125.652451 352.468937 
L 135.460316 352.457309 
L 145.268181 352.448691 
L 155.076046 352.440604 
L 164.883912 352.425463 
L 184.499642 352.396009 
L 204.115372 352.351443 
L 223.731103 352.32069 
L 243.346833 352.291058 
L 262.962563 352.253782 
L 282.578294 352.1877 
L 302.194024 352.090511 
L 321.809754 351.919774 
L 341.425485 351.73791 
L 361.041215 351.36217 
L 380.656945 351.116438 
L 400.272676 350.993484 
L 419.888406 350.940654 
L 439.504136 350.812299 
L 459.119867 350.505267 
L 478.735597 350.308971 
L 498.351327 349.521159 
L 517.967058 349.191756 
L 537.582788 346.503197 
L 557.198518 346.286123 
L 576.814249 346.211867 
L 596.429979 346.106768 
L 616.045709 346.019407 
L 635.66144 345.943911 
L 655.27717 345.87718 
L 674.8929 345.788019 
L 694.508631 345.710575 
L 714.124361 345.585673 
L 733.740091 345.185967 
L 753.355822 344.795057 
L 772.971552 344.41613 
L 792.587282 343.910293 
L 812.203013 343.480336 
L 831.818743 343.169851 
L 851.434473 342.959536 
L 871.050204 342.762443 
L 890.665934 342.623019 
L 910.281664 342.443723 
L 929.897395 342.321861 
L 949.513125 342.262243 
" clip-path="url(#pc4be8ad548)" style="fill: none; stroke: #f15c80; stroke-linecap: square"/>
   </g>
   <g id="line2d_23">
    <path d="M 76.613125 353.110151 
L 86.42099 352.88614 
L 96.228855 352.753838 
L 106.036721 352.473481 
L 115.844586 352.271199 
L 125.652451 352.069228 
L 135.460316 351.883818 
L 145.268181 351.623385 
L 155.076046 351.162164 
L 164.883912 350.621779 
L 184.499642 350.315055 
L 204.115372 349.961513 
L 223.731103 349.648096 
L 243.346833 349.377577 
L 262.962563 349.108085 
L 282.578294 348.781905 
L 302.194024 348.469921 
L 321.809754 348.020467 
L 341.425485 347.613007 
L 361.041215 347.305163 
L 380.656945 346.982034 
L 400.272676 346.655605 
L 419.888406 346.371856 
L 439.504136 346.112761 
L 459.119867 345.872127 
L 478.735597 345.582867 
L 498.351327 345.322963 
L 517.967058 345.02119 
L 537.582788 344.762842 
L 557.198518 344.526068 
L 576.814249 344.304672 
L 596.429979 344.063757 
L 616.045709 343.838625 
L 635.66144 343.612061 
L 655.27717 343.40623 
L 674.8929 343.184398 
L 694.508631 342.968979 
L 714.124361 342.758447 
L 733.740091 342.536584 
L 753.355822 342.316495 
L 772.971552 342.082087 
L 792.587282 341.841577 
L 812.203013 341.595308 
L 831.818743 341.34219 
L 851.434473 341.133121 
L 871.050204 340.938933 
L 890.665934 340.749289 
L 910.281664 340.478988 
L 929.897395 340.252175 
L 949.513125 340.058609 
" clip-path="url(#pc4be8ad548)" style="fill: none; stroke: #e4d354; stroke-linecap: square"/>
   </g>
   <g id="line2d_24">
    <path d="M 76.613125 353.2239 
L 86.42099 353.2239 
L 96.228855 352.80377 
L 106.036721 352.512767 
L 115.844586 352.493342 
L 125.652451 352.483381 
L 135.460316 352.473668 
L 145.268181 352.46296 
L 155.076046 352.451192 
L 164.883912 352.435005 
L 184.499642 352.40814 
L 204.115372 352.373243 
L 223.731103 352.348899 
L 243.346833 352.32742 
L 262.962563 352.295574 
L 282.578294 352.24642 
L 302.194024 352.173949 
L 321.809754 352.058488 
L 341.425485 351.933937 
L 361.041215 351.701147 
L 380.656945 351.551288 
L 400.272676 351.463968 
L 419.888406 351.421787 
L 439.504136 351.31937 
L 459.119867 351.077054 
L 478.735597 350.932891 
L 498.351327 350.438361 
L 517.967058 350.243986 
L 537.582788 349.614102 
L 557.198518 349.482174 
L 576.814249 349.422933 
L 596.429979 349.335614 
L 616.045709 349.267626 
L 635.66144 349.211997 
L 655.27717 349.159294 
L 674.8929 349.091835 
L 694.508631 349.031941 
L 714.124361 348.951688 
L 733.740091 348.766154 
L 753.355822 348.534422 
L 772.971552 348.26767 
L 792.587282 347.885768 
L 812.203013 347.540941 
L 831.818743 347.308961 
L 851.434473 347.161125 
L 871.050204 347.028293 
L 890.665934 346.931666 
L 910.281664 346.796033 
L 929.897395 346.699685 
L 949.513125 346.655481 
" clip-path="url(#pc4be8ad548)" style="fill: none; stroke: #2b908f; stroke-linecap: square"/>
   </g>
   <g id="line2d_25">
    <path d="M 76.613125 353.108931 
L 86.42099 352.858042 
L 96.228855 352.719721 
L 106.036721 352.432968 
L 115.844586 352.243866 
L 125.652451 352.050798 
L 135.460316 351.860188 
L 145.268181 351.585557 
L 155.076046 351.135232 
L 164.883912 350.578178 
L 184.499642 350.274442 
L 204.115372 349.94565 
L 223.731103 349.634093 
L 243.346833 349.362898 
L 262.962563 349.085139 
L 282.578294 348.762018 
L 302.194024 348.460796 
L 321.809754 348.035973 
L 341.425485 347.635256 
L 361.041215 347.317358 
L 380.656945 346.998622 
L 400.272676 346.659133 
L 419.888406 346.365843 
L 439.504136 346.095067 
L 459.119867 345.848397 
L 478.735597 345.569297 
L 498.351327 345.319219 
L 517.967058 345.029896 
L 537.582788 344.780516 
L 557.198518 344.554097 
L 576.814249 344.335917 
L 596.429979 344.086342 
L 616.045709 343.857213 
L 635.66144 343.626185 
L 655.27717 343.434709 
L 674.8929 343.23449 
L 694.508631 343.025612 
L 714.124361 342.818438 
L 733.740091 342.601962 
L 753.355822 342.391073 
L 772.971552 342.152559 
L 792.587282 341.908319 
L 812.203013 341.655671 
L 831.818743 341.388414 
L 851.434473 341.168615 
L 871.050204 340.969262 
L 890.665934 340.760803 
L 910.281664 340.499384 
L 929.897395 340.271903 
L 949.513125 340.077773 
" clip-path="url(#pc4be8ad548)" style="fill: none; stroke: #f45b5b; stroke-linecap: square"/>
   </g>
   <g id="line2d_26">
    <path d="M 76.613125 353.146654 
L 86.42099 352.952582 
L 96.228855 352.82691 
L 106.036721 352.554486 
L 115.844586 352.374934 
L 125.652451 352.205553 
L 135.460316 351.996813 
L 145.268181 351.670435 
L 155.076046 351.10598 
L 164.883912 350.470214 
L 184.499642 350.079636 
L 204.115372 349.535599 
L 223.731103 349.167097 
L 243.346833 348.847463 
L 262.962563 348.543861 
L 282.578294 348.179966 
L 302.194024 347.842458 
L 321.809754 347.288323 
L 341.425485 346.751582 
L 361.041215 346.395832 
L 380.656945 346.034037 
L 400.272676 345.606864 
L 419.888406 345.286161 
L 439.504136 345.007619 
L 459.119867 344.738475 
L 478.735597 344.412392 
L 498.351327 344.149992 
L 517.967058 343.836034 
L 537.582788 343.563684 
L 557.198518 343.313704 
L 576.814249 343.063134 
L 596.429979 342.814923 
L 616.045709 342.572388 
L 635.66144 342.316069 
L 655.27717 342.109798 
L 674.8929 341.883625 
L 694.508631 341.684578 
L 714.124361 341.477311 
L 733.740091 341.235771 
L 753.355822 340.989108 
L 772.971552 340.724939 
L 792.587282 340.475512 
L 812.203013 340.23961 
L 831.818743 339.974889 
L 851.434473 339.758741 
L 871.050204 339.567285 
L 890.665934 339.358397 
L 910.281664 339.0723 
L 929.897395 338.808721 
L 949.513125 338.552586 
" clip-path="url(#pc4be8ad548)" style="fill: none; stroke: #91e8e1; stroke-linecap: square"/>
   </g>
   <g id="line2d_27">
    <path d="M 76.613125 353.129124 
L 86.42099 352.98909 
L 96.228855 352.891844 
L 106.036721 352.704658 
L 115.844586 352.558788 
L 125.652451 352.423432 
L 135.460316 352.282609 
L 145.268181 352.064199 
L 155.076046 351.680418 
L 164.883912 351.248777 
L 184.499642 350.999563 
L 204.115372 350.647401 
L 223.731103 350.394981 
L 243.346833 350.17276 
L 262.962563 349.942734 
L 282.578294 349.668999 
L 302.194024 349.40738 
L 321.809754 348.962281 
L 341.425485 348.548407 
L 361.041215 348.295067 
L 380.656945 348.04383 
L 400.272676 347.753195 
L 419.888406 347.528688 
L 439.504136 347.340057 
L 459.119867 347.148797 
L 478.735597 346.905865 
L 498.351327 346.703593 
L 517.967058 346.480926 
L 537.582788 346.284015 
L 557.198518 346.099983 
L 576.814249 345.892113 
L 596.429979 345.691891 
L 616.045709 345.513667 
L 635.66144 345.315311 
L 655.27717 345.149704 
L 674.8929 344.954107 
L 694.508631 344.785241 
L 714.124361 344.62213 
L 733.740091 344.423248 
L 753.355822 344.231147 
L 772.971552 344.029138 
L 792.587282 343.832017 
L 812.203013 343.646409 
L 831.818743 343.441429 
L 851.434473 343.278686 
L 871.050204 343.120149 
L 890.665934 342.936248 
L 910.281664 342.687245 
L 929.897395 342.475222 
L 949.513125 342.289903 
" clip-path="url(#pc4be8ad548)" style="fill: none; stroke: #7cb5ec; stroke-linecap: square"/>
   </g>
   <g id="line2d_28">
    <path d="M 76.613125 353.2239 
L 86.42099 353.2239 
L 96.228855 352.911451 
L 106.036721 352.512899 
L 115.844586 352.470689 
L 125.652451 352.45965 
L 135.460316 352.45371 
L 145.268181 352.44367 
L 155.076046 352.434629 
L 164.883912 352.422617 
L 184.499642 352.398332 
L 204.115372 352.365558 
L 223.731103 352.344347 
L 243.346833 352.32411 
L 262.962563 352.302006 
L 282.578294 352.261268 
L 302.194024 352.202815 
L 321.809754 352.097421 
L 341.425485 351.985404 
L 361.041215 351.768939 
L 380.656945 351.634056 
L 400.272676 351.563881 
L 419.888406 351.527584 
L 439.504136 351.437066 
L 459.119867 351.224754 
L 478.735597 351.084089 
L 498.351327 350.526421 
L 517.967058 350.242226 
L 537.582788 348.964778 
L 557.198518 348.782244 
L 576.814249 348.721873 
L 596.429979 348.639687 
L 616.045709 348.562836 
L 635.66144 348.496157 
L 655.27717 348.420909 
L 674.8929 348.340747 
L 694.508631 348.2184 
L 714.124361 348.008243 
L 733.740091 347.331646 
L 753.355822 346.608003 
L 772.971552 345.823594 
L 792.587282 344.754253 
L 812.203013 343.836459 
L 831.818743 343.269803 
L 851.434473 342.913409 
L 871.050204 342.619173 
L 890.665934 342.4133 
L 910.281664 342.201119 
L 929.897395 342.050151 
L 949.513125 341.965258 
" clip-path="url(#pc4be8ad548)" style="fill: none; stroke: #434348; stroke-linecap: square"/>
   </g>
   <g id="line2d_29">
    <path d="M 76.613125 353.085293 
L 86.42099 352.847704 
L 96.228855 352.67378 
L 106.036721 352.332823 
L 115.844586 352.102987 
L 125.652451 351.870644 
L 135.460316 351.641982 
L 145.268181 351.271973 
L 155.076046 350.62334 
L 164.883912 349.939116 
L 184.499642 349.55274 
L 204.115372 349.038564 
L 223.731103 348.648468 
L 243.346833 348.309469 
L 262.962563 347.973563 
L 282.578294 347.555824 
L 302.194024 347.138321 
L 321.809754 346.502178 
L 341.425485 345.951354 
L 361.041215 345.471751 
L 380.656945 345.048844 
L 400.272676 344.561175 
L 419.888406 344.154165 
L 439.504136 343.788658 
L 459.119867 343.44128 
L 478.735597 343.032781 
L 498.351327 342.65964 
L 517.967058 342.250906 
L 537.582788 341.919112 
L 557.198518 341.597771 
L 576.814249 341.269618 
L 596.429979 340.918442 
L 616.045709 340.578738 
L 635.66144 340.241383 
L 655.27717 339.95814 
L 674.8929 339.610213 
L 694.508631 339.329006 
L 714.124361 339.021918 
L 733.740091 338.664085 
L 753.355822 338.306331 
L 772.971552 337.943017 
L 792.587282 337.607894 
L 812.203013 337.223554 
L 831.818743 336.823083 
L 851.434473 336.501859 
L 871.050204 336.211647 
L 890.665934 335.89152 
L 910.281664 335.410586 
L 929.897395 335.029378 
L 949.513125 334.723817 
" clip-path="url(#pc4be8ad548)" style="fill: none; stroke: #90ed7d; stroke-linecap: square"/>
   </g>
   <g id="line2d_30">
    <path d="M 32.968125 353.2239 
L 993.158125 353.2239 
" clip-path="url(#pc4be8ad548)" style="fill: none; stroke: #dedede; stroke-width: 2; stroke-linecap: square"/>
   </g>
   <g id="text_14">
    <!-- FastQC: Adapter Content -->
    <g transform="translate(413.765625 19.3575) scale(0.16 -0.16)">
     <defs>
      <path id="DejaVuSans-46" d="M 628 4666 
L 3309 4666 
L 3309 4134 
L 1259 4134 
L 1259 2759 
L 3109 2759 
L 3109 2228 
L 1259 2228 
L 1259 0 
L 628 0 
L 628 4666 
z
" transform="scale(0.015625)"/>
      <path id="DejaVuSans-61" d="M 2194 1759 
Q 1497 1759 1228 1600 
Q 959 1441 959 1056 
Q 959 750 1161 570 
Q 1363 391 1709 391 
Q 2188 391 2477 730 
Q 2766 1069 2766 1631 
L 2766 1759 
L 2194 1759 
z
M 3341 1997 
L 3341 0 
L 2766 0 
L 2766 531 
Q 2569 213 2275 61 
Q 1981 -91 1556 -91 
Q 1019 -91 701 211 
Q 384 513 384 1019 
Q 384 1609 779 1909 
Q 1175 2209 1959 2209 
L 2766 2209 
L 2766 2266 
Q 2766 2663 2505 2880 
Q 2244 3097 1772 3097 
Q 1472 3097 1187 3025 
Q 903 2953 641 2809 
L 641 3341 
Q 956 3463 1253 3523 
Q 1550 3584 1831 3584 
Q 2591 3584 2966 3190 
Q 3341 2797 3341 1997 
z
" transform="scale(0.015625)"/>
      <path id="DejaVuSans-51" d="M 2522 4238 
Q 1834 4238 1429 3725 
Q 1025 3213 1025 2328 
Q 1025 1447 1429 934 
Q 1834 422 2522 422 
Q 3209 422 3611 934 
Q 4013 1447 4013 2328 
Q 4013 3213 3611 3725 
Q 3209 4238 2522 4238 
z
M 3406 84 
L 4238 -825 
L 3475 -825 
L 2784 -78 
Q 2681 -84 2626 -87 
Q 2572 -91 2522 -91 
Q 1538 -91 948 567 
Q 359 1225 359 2328 
Q 359 3434 948 4092 
Q 1538 4750 2522 4750 
Q 3503 4750 4090 4092 
Q 4678 3434 4678 2328 
Q 4678 1516 4351 937 
Q 4025 359 3406 84 
z
" transform="scale(0.015625)"/>
      <path id="DejaVuSans-43" d="M 4122 4306 
L 4122 3641 
Q 3803 3938 3442 4084 
Q 3081 4231 2675 4231 
Q 1875 4231 1450 3742 
Q 1025 3253 1025 2328 
Q 1025 1406 1450 917 
Q 1875 428 2675 428 
Q 3081 428 3442 575 
Q 3803 722 4122 1019 
L 4122 359 
Q 3791 134 3420 21 
Q 3050 -91 2638 -91 
Q 1578 -91 968 557 
Q 359 1206 359 2328 
Q 359 3453 968 4101 
Q 1578 4750 2638 4750 
Q 3056 4750 3426 4639 
Q 3797 4528 4122 4306 
z
" transform="scale(0.015625)"/>
      <path id="DejaVuSans-3a" d="M 750 794 
L 1409 794 
L 1409 0 
L 750 0 
L 750 794 
z
M 750 3309 
L 1409 3309 
L 1409 2516 
L 750 2516 
L 750 3309 
z
" transform="scale(0.015625)"/>
      <path id="DejaVuSans-41" d="M 2188 4044 
L 1331 1722 
L 3047 1722 
L 2188 4044 
z
M 1831 4666 
L 2547 4666 
L 4325 0 
L 3669 0 
L 3244 1197 
L 1141 1197 
L 716 0 
L 50 0 
L 1831 4666 
z
" transform="scale(0.015625)"/>
      <path id="DejaVuSans-64" d="M 2906 2969 
L 2906 4863 
L 3481 4863 
L 3481 0 
L 2906 0 
L 2906 525 
Q 2725 213 2448 61 
Q 2172 -91 1784 -91 
Q 1150 -91 751 415 
Q 353 922 353 1747 
Q 353 2572 751 3078 
Q 1150 3584 1784 3584 
Q 2172 3584 2448 3432 
Q 2725 3281 2906 2969 
z
M 947 1747 
Q 947 1113 1208 752 
Q 1469 391 1925 391 
Q 2381 391 2643 752 
Q 2906 1113 2906 1747 
Q 2906 2381 2643 2742 
Q 2381 3103 1925 3103 
Q 1469 3103 1208 2742 
Q 947 2381 947 1747 
z
" transform="scale(0.015625)"/>
      <path id="DejaVuSans-72" d="M 2631 2963 
Q 2534 3019 2420 3045 
Q 2306 3072 2169 3072 
Q 1681 3072 1420 2755 
Q 1159 2438 1159 1844 
L 1159 0 
L 581 0 
L 581 3500 
L 1159 3500 
L 1159 2956 
Q 1341 3275 1631 3429 
Q 1922 3584 2338 3584 
Q 2397 3584 2469 3576 
Q 2541 3569 2628 3553 
L 2631 2963 
z
" transform="scale(0.015625)"/>
     </defs>
     <use xlink:href="#DejaVuSans-46"/>
     <use xlink:href="#DejaVuSans-61" x="48.394531"/>
     <use xlink:href="#DejaVuSans-73" x="109.673828"/>
     <use xlink:href="#DejaVuSans-74" x="161.773438"/>
     <use xlink:href="#DejaVuSans-51" x="200.982422"/>
     <use xlink:href="#DejaVuSans-43" x="279.693359"/>
     <use xlink:href="#DejaVuSans-3a" x="349.517578"/>
     <use xlink:href="#DejaVuSans-20" x="383.208984"/>
     <use xlink:href="#DejaVuSans-41" x="414.996094"/>
     <use xlink:href="#DejaVuSans-64" x="481.654297"/>
     <use xlink:href="#DejaVuSans-61" x="545.130859"/>
     <use xlink:href="#DejaVuSans-70" x="606.410156"/>
     <use xlink:href="#DejaVuSans-74" x="669.886719"/>
     <use xlink:href="#DejaVuSans-65" x="709.095703"/>
     <use xlink:href="#DejaVuSans-72" x="770.619141"/>
     <use xlink:href="#DejaVuSans-20" x="811.732422"/>
     <use xlink:href="#DejaVuSans-43" x="843.519531"/>
     <use xlink:href="#DejaVuSans-6f" x="913.34375"/>
     <use xlink:href="#DejaVuSans-6e" x="974.525391"/>
     <use xlink:href="#DejaVuSans-74" x="1037.904297"/>
     <use xlink:href="#DejaVuSans-65" x="1077.113281"/>
     <use xlink:href="#DejaVuSans-6e" x="1138.636719"/>
     <use xlink:href="#DejaVuSans-74" x="1202.015625"/>
    </g>
   </g>
  </g>
 </g>
 <defs>
  <clipPath id="pc4be8ad548">
   <rect x="32.968125" y="35.2559" width="960.19" height="317.968"/>
  </clipPath>
 </defs>
</svg>
