<?xml version="1.0" encoding="utf-8" standalone="no"?>
<!DOCTYPE svg PUBLIC "-//W3C//DTD SVG 1.1//EN"
  "http://www.w3.org/Graphics/SVG/1.1/DTD/svg11.dtd">
<svg xmlns:xlink="http://www.w3.org/1999/xlink" width="1000.358125pt" height="388.844525pt" viewBox="0 0 1000.358125 388.844525" xmlns="http://www.w3.org/2000/svg" version="1.1">
 <metadata>
  <rdf:RDF xmlns:dc="http://purl.org/dc/elements/1.1/" xmlns:cc="http://creativecommons.org/ns#" xmlns:rdf="http://www.w3.org/1999/02/22-rdf-syntax-ns#">
   <cc:Work>
    <dc:type rdf:resource="http://purl.org/dc/dcmitype/StillImage"/>
    <dc:date>2025-03-11T15:51:13.154103</dc:date>
    <dc:format>image/svg+xml</dc:format>
    <dc:creator>
     <cc:Agent>
      <dc:title>Matplotlib v3.8.2, https://matplotlib.org/</dc:title>
     </cc:Agent>
    </dc:creator>
   </cc:Work>
  </rdf:RDF>
 </metadata>
 <defs>
  <style type="text/css">*{stroke-linejoin: round; stroke-linecap: butt}</style>
 </defs>
 <g id="figure_1">
  <g id="axes_1">
   <g id="patch_1">
    <path d="M 32.968125 353.2239 
L 993.158125 353.2239 
L 993.158125 35.2559 
L 32.968125 35.2559 
z
" style="fill: #ffffff"/>
   </g>
   <g id="patch_2">
    <path d="M 674.62254 353.2239 
L 2324.591037 353.2239 
L 2324.591037 35.2559 
L 674.62254 35.2559 
z
" clip-path="url(#p3068e42dc5)" style="fill: #c3e6c3"/>
   </g>
   <g id="patch_3">
    <path d="M 491.292707 353.2239 
L 674.62254 353.2239 
L 674.62254 35.2559 
L 491.292707 35.2559 
z
" clip-path="url(#p3068e42dc5)" style="fill: #e6dcc3"/>
   </g>
   <g id="patch_4">
    <path d="M 32.968125 353.2239 
L 491.292707 353.2239 
L 491.292707 35.2559 
L 32.968125 35.2559 
z
" clip-path="url(#p3068e42dc5)" style="fill: #e6c3c3"/>
   </g>
   <g id="matplotlib.axis_1">
    <g id="xtick_1">
     <g id="text_1">
      <!-- 0 -->
      <g transform="translate(30.423125 366.30265) scale(0.08 -0.08)">
       <defs>
        <path id="DejaVuSans-30" d="M 2034 4250 
Q 1547 4250 1301 3770 
Q 1056 3291 1056 2328 
Q 1056 1369 1301 889 
Q 1547 409 2034 409 
Q 2525 409 2770 889 
Q 3016 1369 3016 2328 
Q 3016 3291 2770 3770 
Q 2525 4250 2034 4250 
z
M 2034 4750 
Q 2819 4750 3233 4129 
Q 3647 3509 3647 2328 
Q 3647 1150 3233 529 
Q 2819 -91 2034 -91 
Q 1250 -91 836 529 
Q 422 1150 422 2328 
Q 422 3509 836 4129 
Q 1250 4750 2034 4750 
z
" transform="scale(0.015625)"/>
       </defs>
       <use xlink:href="#DejaVuSans-30"/>
      </g>
     </g>
    </g>
    <g id="xtick_2">
     <g id="text_2">
      <!-- 5 -->
      <g transform="translate(145.004271 366.30265) scale(0.08 -0.08)">
       <defs>
        <path id="DejaVuSans-35" d="M 691 4666 
L 3169 4666 
L 3169 4134 
L 1269 4134 
L 1269 2991 
Q 1406 3038 1543 3061 
Q 1681 3084 1819 3084 
Q 2600 3084 3056 2656 
Q 3513 2228 3513 1497 
Q 3513 744 3044 326 
Q 2575 -91 1722 -91 
Q 1428 -91 1123 -41 
Q 819 9 494 109 
L 494 744 
Q 775 591 1075 516 
Q 1375 441 1709 441 
Q 2250 441 2565 725 
Q 2881 1009 2881 1497 
Q 2881 1984 2565 2268 
Q 2250 2553 1709 2553 
Q 1456 2553 1204 2497 
Q 953 2441 691 2322 
L 691 4666 
z
" transform="scale(0.015625)"/>
       </defs>
       <use xlink:href="#DejaVuSans-35"/>
      </g>
     </g>
    </g>
    <g id="xtick_3">
     <g id="text_3">
      <!-- 10 -->
      <g transform="translate(257.040416 366.30265) scale(0.08 -0.08)">
       <defs>
        <path id="DejaVuSans-31" d="M 794 531 
L 1825 531 
L 1825 4091 
L 703 3866 
L 703 4441 
L 1819 4666 
L 2450 4666 
L 2450 531 
L 3481 531 
L 3481 0 
L 794 0 
L 794 531 
z
" transform="scale(0.015625)"/>
       </defs>
       <use xlink:href="#DejaVuSans-31"/>
       <use xlink:href="#DejaVuSans-30" x="63.623047"/>
      </g>
     </g>
    </g>
    <g id="xtick_4">
     <g id="text_4">
      <!-- 15 -->
      <g transform="translate(371.621562 366.30265) scale(0.08 -0.08)">
       <use xlink:href="#DejaVuSans-31"/>
       <use xlink:href="#DejaVuSans-35" x="63.623047"/>
      </g>
     </g>
    </g>
    <g id="xtick_5">
     <g id="text_5">
      <!-- 20 -->
      <g transform="translate(486.202707 366.30265) scale(0.08 -0.08)">
       <defs>
        <path id="DejaVuSans-32" d="M 1228 531 
L 3431 531 
L 3431 0 
L 469 0 
L 469 531 
Q 828 903 1448 1529 
Q 2069 2156 2228 2338 
Q 2531 2678 2651 2914 
Q 2772 3150 2772 3378 
Q 2772 3750 2511 3984 
Q 2250 4219 1831 4219 
Q 1534 4219 1204 4116 
Q 875 4013 500 3803 
L 500 4441 
Q 881 4594 1212 4672 
Q 1544 4750 1819 4750 
Q 2544 4750 2975 4387 
Q 3406 4025 3406 3419 
Q 3406 3131 3298 2873 
Q 3191 2616 2906 2266 
Q 2828 2175 2409 1742 
Q 1991 1309 1228 531 
z
" transform="scale(0.015625)"/>
       </defs>
       <use xlink:href="#DejaVuSans-32"/>
       <use xlink:href="#DejaVuSans-30" x="63.623047"/>
      </g>
     </g>
    </g>
    <g id="xtick_6">
     <g id="text_6">
      <!-- 25 -->
      <g transform="translate(600.783853 366.30265) scale(0.08 -0.08)">
       <use xlink:href="#DejaVuSans-32"/>
       <use xlink:href="#DejaVuSans-35" x="63.623047"/>
      </g>
     </g>
    </g>
    <g id="xtick_7">
     <g id="text_7">
      <!-- 30 -->
      <g transform="translate(715.364999 366.30265) scale(0.08 -0.08)">
       <defs>
        <path id="DejaVuSans-33" d="M 2597 2516 
Q 3050 2419 3304 2112 
Q 3559 1806 3559 1356 
Q 3559 666 3084 287 
Q 2609 -91 1734 -91 
Q 1441 -91 1130 -33 
Q 819 25 488 141 
L 488 750 
Q 750 597 1062 519 
Q 1375 441 1716 441 
Q 2309 441 2620 675 
Q 2931 909 2931 1356 
Q 2931 1769 2642 2001 
Q 2353 2234 1838 2234 
L 1294 2234 
L 1294 2753 
L 1863 2753 
Q 2328 2753 2575 2939 
Q 2822 3125 2822 3475 
Q 2822 3834 2567 4026 
Q 2313 4219 1838 4219 
Q 1578 4219 1281 4162 
Q 984 4106 628 3988 
L 628 4550 
Q 988 4650 1302 4700 
Q 1616 4750 1894 4750 
Q 2613 4750 3031 4423 
Q 3450 4097 3450 3541 
Q 3450 3153 3228 2886 
Q 3006 2619 2597 2516 
z
" transform="scale(0.015625)"/>
       </defs>
       <use xlink:href="#DejaVuSans-33"/>
       <use xlink:href="#DejaVuSans-30" x="63.623047"/>
      </g>
     </g>
    </g>
    <g id="xtick_8">
     <g id="text_8">
      <!-- 35 -->
      <g transform="translate(829.946144 366.30265) scale(0.08 -0.08)">
       <use xlink:href="#DejaVuSans-33"/>
       <use xlink:href="#DejaVuSans-35" x="63.623047"/>
      </g>
     </g>
    </g>
    <g id="xtick_9">
     <g id="text_9">
      <!-- 40 -->
      <g transform="translate(944.52729 366.30265) scale(0.08 -0.08)">
       <defs>
        <path id="DejaVuSans-34" d="M 2419 4116 
L 825 1625 
L 2419 1625 
L 2419 4116 
z
M 2253 4666 
L 3047 4666 
L 3047 1625 
L 3713 1625 
L 3713 1100 
L 3047 1100 
L 3047 0 
L 2419 0 
L 2419 1100 
L 313 1100 
L 313 1709 
L 2253 4666 
z
" transform="scale(0.015625)"/>
       </defs>
       <use xlink:href="#DejaVuSans-34"/>
       <use xlink:href="#DejaVuSans-30" x="63.623047"/>
      </g>
     </g>
    </g>
    <g id="text_10">
     <!-- Mean Sequence Quality (Phred Score) -->
     <g transform="translate(418.270938 379.564837) scale(0.1 -0.1)">
      <defs>
       <path id="DejaVuSans-4d" d="M 628 4666 
L 1569 4666 
L 2759 1491 
L 3956 4666 
L 4897 4666 
L 4897 0 
L 4281 0 
L 4281 4097 
L 3078 897 
L 2444 897 
L 1241 4097 
L 1241 0 
L 628 0 
L 628 4666 
z
" transform="scale(0.015625)"/>
       <path id="DejaVuSans-65" d="M 3597 1894 
L 3597 1613 
L 953 1613 
Q 991 1019 1311 708 
Q 1631 397 2203 397 
Q 2534 397 2845 478 
Q 3156 559 3463 722 
L 3463 178 
Q 3153 47 2828 -22 
Q 2503 -91 2169 -91 
Q 1331 -91 842 396 
Q 353 884 353 1716 
Q 353 2575 817 3079 
Q 1281 3584 2069 3584 
Q 2775 3584 3186 3129 
Q 3597 2675 3597 1894 
z
M 3022 2063 
Q 3016 2534 2758 2815 
Q 2500 3097 2075 3097 
Q 1594 3097 1305 2825 
Q 1016 2553 972 2059 
L 3022 2063 
z
" transform="scale(0.015625)"/>
       <path id="DejaVuSans-61" d="M 2194 1759 
Q 1497 1759 1228 1600 
Q 959 1441 959 1056 
Q 959 750 1161 570 
Q 1363 391 1709 391 
Q 2188 391 2477 730 
Q 2766 1069 2766 1631 
L 2766 1759 
L 2194 1759 
z
M 3341 1997 
L 3341 0 
L 2766 0 
L 2766 531 
Q 2569 213 2275 61 
Q 1981 -91 1556 -91 
Q 1019 -91 701 211 
Q 384 513 384 1019 
Q 384 1609 779 1909 
Q 1175 2209 1959 2209 
L 2766 2209 
L 2766 2266 
Q 2766 2663 2505 2880 
Q 2244 3097 1772 3097 
Q 1472 3097 1187 3025 
Q 903 2953 641 2809 
L 641 3341 
Q 956 3463 1253 3523 
Q 1550 3584 1831 3584 
Q 2591 3584 2966 3190 
Q 3341 2797 3341 1997 
z
" transform="scale(0.015625)"/>
       <path id="DejaVuSans-6e" d="M 3513 2113 
L 3513 0 
L 2938 0 
L 2938 2094 
Q 2938 2591 2744 2837 
Q 2550 3084 2163 3084 
Q 1697 3084 1428 2787 
Q 1159 2491 1159 1978 
L 1159 0 
L 581 0 
L 581 3500 
L 1159 3500 
L 1159 2956 
Q 1366 3272 1645 3428 
Q 1925 3584 2291 3584 
Q 2894 3584 3203 3211 
Q 3513 2838 3513 2113 
z
" transform="scale(0.015625)"/>
       <path id="DejaVuSans-20" transform="scale(0.015625)"/>
       <path id="DejaVuSans-53" d="M 3425 4513 
L 3425 3897 
Q 3066 4069 2747 4153 
Q 2428 4238 2131 4238 
Q 1616 4238 1336 4038 
Q 1056 3838 1056 3469 
Q 1056 3159 1242 3001 
Q 1428 2844 1947 2747 
L 2328 2669 
Q 3034 2534 3370 2195 
Q 3706 1856 3706 1288 
Q 3706 609 3251 259 
Q 2797 -91 1919 -91 
Q 1588 -91 1214 -16 
Q 841 59 441 206 
L 441 856 
Q 825 641 1194 531 
Q 1563 422 1919 422 
Q 2459 422 2753 634 
Q 3047 847 3047 1241 
Q 3047 1584 2836 1778 
Q 2625 1972 2144 2069 
L 1759 2144 
Q 1053 2284 737 2584 
Q 422 2884 422 3419 
Q 422 4038 858 4394 
Q 1294 4750 2059 4750 
Q 2388 4750 2728 4690 
Q 3069 4631 3425 4513 
z
" transform="scale(0.015625)"/>
       <path id="DejaVuSans-71" d="M 947 1747 
Q 947 1113 1208 752 
Q 1469 391 1925 391 
Q 2381 391 2643 752 
Q 2906 1113 2906 1747 
Q 2906 2381 2643 2742 
Q 2381 3103 1925 3103 
Q 1469 3103 1208 2742 
Q 947 2381 947 1747 
z
M 2906 525 
Q 2725 213 2448 61 
Q 2172 -91 1784 -91 
Q 1150 -91 751 415 
Q 353 922 353 1747 
Q 353 2572 751 3078 
Q 1150 3584 1784 3584 
Q 2172 3584 2448 3432 
Q 2725 3281 2906 2969 
L 2906 3500 
L 3481 3500 
L 3481 -1331 
L 2906 -1331 
L 2906 525 
z
" transform="scale(0.015625)"/>
       <path id="DejaVuSans-75" d="M 544 1381 
L 544 3500 
L 1119 3500 
L 1119 1403 
Q 1119 906 1312 657 
Q 1506 409 1894 409 
Q 2359 409 2629 706 
Q 2900 1003 2900 1516 
L 2900 3500 
L 3475 3500 
L 3475 0 
L 2900 0 
L 2900 538 
Q 2691 219 2414 64 
Q 2138 -91 1772 -91 
Q 1169 -91 856 284 
Q 544 659 544 1381 
z
M 1991 3584 
L 1991 3584 
z
" transform="scale(0.015625)"/>
       <path id="DejaVuSans-63" d="M 3122 3366 
L 3122 2828 
Q 2878 2963 2633 3030 
Q 2388 3097 2138 3097 
Q 1578 3097 1268 2742 
Q 959 2388 959 1747 
Q 959 1106 1268 751 
Q 1578 397 2138 397 
Q 2388 397 2633 464 
Q 2878 531 3122 666 
L 3122 134 
Q 2881 22 2623 -34 
Q 2366 -91 2075 -91 
Q 1284 -91 818 406 
Q 353 903 353 1747 
Q 353 2603 823 3093 
Q 1294 3584 2113 3584 
Q 2378 3584 2631 3529 
Q 2884 3475 3122 3366 
z
" transform="scale(0.015625)"/>
       <path id="DejaVuSans-51" d="M 2522 4238 
Q 1834 4238 1429 3725 
Q 1025 3213 1025 2328 
Q 1025 1447 1429 934 
Q 1834 422 2522 422 
Q 3209 422 3611 934 
Q 4013 1447 4013 2328 
Q 4013 3213 3611 3725 
Q 3209 4238 2522 4238 
z
M 3406 84 
L 4238 -825 
L 3475 -825 
L 2784 -78 
Q 2681 -84 2626 -87 
Q 2572 -91 2522 -91 
Q 1538 -91 948 567 
Q 359 1225 359 2328 
Q 359 3434 948 4092 
Q 1538 4750 2522 4750 
Q 3503 4750 4090 4092 
Q 4678 3434 4678 2328 
Q 4678 1516 4351 937 
Q 4025 359 3406 84 
z
" transform="scale(0.015625)"/>
       <path id="DejaVuSans-6c" d="M 603 4863 
L 1178 4863 
L 1178 0 
L 603 0 
L 603 4863 
z
" transform="scale(0.015625)"/>
       <path id="DejaVuSans-69" d="M 603 3500 
L 1178 3500 
L 1178 0 
L 603 0 
L 603 3500 
z
M 603 4863 
L 1178 4863 
L 1178 4134 
L 603 4134 
L 603 4863 
z
" transform="scale(0.015625)"/>
       <path id="DejaVuSans-74" d="M 1172 4494 
L 1172 3500 
L 2356 3500 
L 2356 3053 
L 1172 3053 
L 1172 1153 
Q 1172 725 1289 603 
Q 1406 481 1766 481 
L 2356 481 
L 2356 0 
L 1766 0 
Q 1100 0 847 248 
Q 594 497 594 1153 
L 594 3053 
L 172 3053 
L 172 3500 
L 594 3500 
L 594 4494 
L 1172 4494 
z
" transform="scale(0.015625)"/>
       <path id="DejaVuSans-79" d="M 2059 -325 
Q 1816 -950 1584 -1140 
Q 1353 -1331 966 -1331 
L 506 -1331 
L 506 -850 
L 844 -850 
Q 1081 -850 1212 -737 
Q 1344 -625 1503 -206 
L 1606 56 
L 191 3500 
L 800 3500 
L 1894 763 
L 2988 3500 
L 3597 3500 
L 2059 -325 
z
" transform="scale(0.015625)"/>
       <path id="DejaVuSans-28" d="M 1984 4856 
Q 1566 4138 1362 3434 
Q 1159 2731 1159 2009 
Q 1159 1288 1364 580 
Q 1569 -128 1984 -844 
L 1484 -844 
Q 1016 -109 783 600 
Q 550 1309 550 2009 
Q 550 2706 781 3412 
Q 1013 4119 1484 4856 
L 1984 4856 
z
" transform="scale(0.015625)"/>
       <path id="DejaVuSans-50" d="M 1259 4147 
L 1259 2394 
L 2053 2394 
Q 2494 2394 2734 2622 
Q 2975 2850 2975 3272 
Q 2975 3691 2734 3919 
Q 2494 4147 2053 4147 
L 1259 4147 
z
M 628 4666 
L 2053 4666 
Q 2838 4666 3239 4311 
Q 3641 3956 3641 3272 
Q 3641 2581 3239 2228 
Q 2838 1875 2053 1875 
L 1259 1875 
L 1259 0 
L 628 0 
L 628 4666 
z
" transform="scale(0.015625)"/>
       <path id="DejaVuSans-68" d="M 3513 2113 
L 3513 0 
L 2938 0 
L 2938 2094 
Q 2938 2591 2744 2837 
Q 2550 3084 2163 3084 
Q 1697 3084 1428 2787 
Q 1159 2491 1159 1978 
L 1159 0 
L 581 0 
L 581 4863 
L 1159 4863 
L 1159 2956 
Q 1366 3272 1645 3428 
Q 1925 3584 2291 3584 
Q 2894 3584 3203 3211 
Q 3513 2838 3513 2113 
z
" transform="scale(0.015625)"/>
       <path id="DejaVuSans-72" d="M 2631 2963 
Q 2534 3019 2420 3045 
Q 2306 3072 2169 3072 
Q 1681 3072 1420 2755 
Q 1159 2438 1159 1844 
L 1159 0 
L 581 0 
L 581 3500 
L 1159 3500 
L 1159 2956 
Q 1341 3275 1631 3429 
Q 1922 3584 2338 3584 
Q 2397 3584 2469 3576 
Q 2541 3569 2628 3553 
L 2631 2963 
z
" transform="scale(0.015625)"/>
       <path id="DejaVuSans-64" d="M 2906 2969 
L 2906 4863 
L 3481 4863 
L 3481 0 
L 2906 0 
L 2906 525 
Q 2725 213 2448 61 
Q 2172 -91 1784 -91 
Q 1150 -91 751 415 
Q 353 922 353 1747 
Q 353 2572 751 3078 
Q 1150 3584 1784 3584 
Q 2172 3584 2448 3432 
Q 2725 3281 2906 2969 
z
M 947 1747 
Q 947 1113 1208 752 
Q 1469 391 1925 391 
Q 2381 391 2643 752 
Q 2906 1113 2906 1747 
Q 2906 2381 2643 2742 
Q 2381 3103 1925 3103 
Q 1469 3103 1208 2742 
Q 947 2381 947 1747 
z
" transform="scale(0.015625)"/>
       <path id="DejaVuSans-6f" d="M 1959 3097 
Q 1497 3097 1228 2736 
Q 959 2375 959 1747 
Q 959 1119 1226 758 
Q 1494 397 1959 397 
Q 2419 397 2687 759 
Q 2956 1122 2956 1747 
Q 2956 2369 2687 2733 
Q 2419 3097 1959 3097 
z
M 1959 3584 
Q 2709 3584 3137 3096 
Q 3566 2609 3566 1747 
Q 3566 888 3137 398 
Q 2709 -91 1959 -91 
Q 1206 -91 779 398 
Q 353 888 353 1747 
Q 353 2609 779 3096 
Q 1206 3584 1959 3584 
z
" transform="scale(0.015625)"/>
       <path id="DejaVuSans-29" d="M 513 4856 
L 1013 4856 
Q 1481 4119 1714 3412 
Q 1947 2706 1947 2009 
Q 1947 1309 1714 600 
Q 1481 -109 1013 -844 
L 513 -844 
Q 928 -128 1133 580 
Q 1338 1288 1338 2009 
Q 1338 2731 1133 3434 
Q 928 4138 513 4856 
z
" transform="scale(0.015625)"/>
      </defs>
      <use xlink:href="#DejaVuSans-4d"/>
      <use xlink:href="#DejaVuSans-65" x="86.279297"/>
      <use xlink:href="#DejaVuSans-61" x="147.802734"/>
      <use xlink:href="#DejaVuSans-6e" x="209.082031"/>
      <use xlink:href="#DejaVuSans-20" x="272.460938"/>
      <use xlink:href="#DejaVuSans-53" x="304.248047"/>
      <use xlink:href="#DejaVuSans-65" x="367.724609"/>
      <use xlink:href="#DejaVuSans-71" x="429.248047"/>
      <use xlink:href="#DejaVuSans-75" x="492.724609"/>
      <use xlink:href="#DejaVuSans-65" x="556.103516"/>
      <use xlink:href="#DejaVuSans-6e" x="617.626953"/>
      <use xlink:href="#DejaVuSans-63" x="681.005859"/>
      <use xlink:href="#DejaVuSans-65" x="735.986328"/>
      <use xlink:href="#DejaVuSans-20" x="797.509766"/>
      <use xlink:href="#DejaVuSans-51" x="829.296875"/>
      <use xlink:href="#DejaVuSans-75" x="908.007812"/>
      <use xlink:href="#DejaVuSans-61" x="971.386719"/>
      <use xlink:href="#DejaVuSans-6c" x="1032.666016"/>
      <use xlink:href="#DejaVuSans-69" x="1060.449219"/>
      <use xlink:href="#DejaVuSans-74" x="1088.232422"/>
      <use xlink:href="#DejaVuSans-79" x="1127.441406"/>
      <use xlink:href="#DejaVuSans-20" x="1186.621094"/>
      <use xlink:href="#DejaVuSans-28" x="1218.408203"/>
      <use xlink:href="#DejaVuSans-50" x="1257.421875"/>
      <use xlink:href="#DejaVuSans-68" x="1317.724609"/>
      <use xlink:href="#DejaVuSans-72" x="1381.103516"/>
      <use xlink:href="#DejaVuSans-65" x="1419.966797"/>
      <use xlink:href="#DejaVuSans-64" x="1481.490234"/>
      <use xlink:href="#DejaVuSans-20" x="1544.966797"/>
      <use xlink:href="#DejaVuSans-53" x="1576.753906"/>
      <use xlink:href="#DejaVuSans-63" x="1640.230469"/>
      <use xlink:href="#DejaVuSans-6f" x="1695.210938"/>
      <use xlink:href="#DejaVuSans-72" x="1756.392578"/>
      <use xlink:href="#DejaVuSans-65" x="1795.255859"/>
      <use xlink:href="#DejaVuSans-29" x="1856.779297"/>
     </g>
    </g>
   </g>
   <g id="matplotlib.axis_2">
    <g id="ytick_1">
     <g id="line2d_1">
      <path d="M 32.968125 353.2239 
L 993.158125 353.2239 
" clip-path="url(#p3068e42dc5)" style="fill: none; stroke: #dedede; stroke-linecap: square"/>
     </g>
     <g id="text_11">
      <!-- 0 -->
      <g transform="translate(20.878125 356.263275) scale(0.08 -0.08)">
       <use xlink:href="#DejaVuSans-30"/>
      </g>
     </g>
    </g>
    <g id="ytick_2">
     <g id="line2d_2">
      <path d="M 32.968125 296.348002 
L 993.158125 296.348002 
" clip-path="url(#p3068e42dc5)" style="fill: none; stroke: #dedede; stroke-linecap: square"/>
     </g>
     <g id="text_12">
      <!-- 1 -->
      <g transform="translate(20.878125 299.387377) scale(0.08 -0.08)">
       <use xlink:href="#DejaVuSans-31"/>
      </g>
     </g>
    </g>
    <g id="ytick_3">
     <g id="line2d_3">
      <path d="M 32.968125 239.472103 
L 993.158125 239.472103 
" clip-path="url(#p3068e42dc5)" style="fill: none; stroke: #dedede; stroke-linecap: square"/>
     </g>
     <g id="text_13">
      <!-- 2 -->
      <g transform="translate(20.878125 242.511478) scale(0.08 -0.08)">
       <use xlink:href="#DejaVuSans-32"/>
      </g>
     </g>
    </g>
    <g id="ytick_4">
     <g id="line2d_4">
      <path d="M 32.968125 182.596205 
L 993.158125 182.596205 
" clip-path="url(#p3068e42dc5)" style="fill: none; stroke: #dedede; stroke-linecap: square"/>
     </g>
     <g id="text_14">
      <!-- 3 -->
      <g transform="translate(20.878125 185.63558) scale(0.08 -0.08)">
       <use xlink:href="#DejaVuSans-33"/>
      </g>
     </g>
    </g>
    <g id="ytick_5">
     <g id="line2d_5">
      <path d="M 32.968125 125.720306 
L 993.158125 125.720306 
" clip-path="url(#p3068e42dc5)" style="fill: none; stroke: #dedede; stroke-linecap: square"/>
     </g>
     <g id="text_15">
      <!-- 4 -->
      <g transform="translate(20.878125 128.759681) scale(0.08 -0.08)">
       <use xlink:href="#DejaVuSans-34"/>
      </g>
     </g>
    </g>
    <g id="ytick_6">
     <g id="line2d_6">
      <path d="M 32.968125 68.844408 
L 993.158125 68.844408 
" clip-path="url(#p3068e42dc5)" style="fill: none; stroke: #dedede; stroke-linecap: square"/>
     </g>
     <g id="text_16">
      <!-- 5 -->
      <g transform="translate(20.878125 71.883783) scale(0.08 -0.08)">
       <use xlink:href="#DejaVuSans-35"/>
      </g>
     </g>
    </g>
    <g id="text_17">
     <!-- Count -->
     <g transform="translate(14.798437 209.088338) rotate(-90) scale(0.1 -0.1)">
      <defs>
       <path id="DejaVuSans-43" d="M 4122 4306 
L 4122 3641 
Q 3803 3938 3442 4084 
Q 3081 4231 2675 4231 
Q 1875 4231 1450 3742 
Q 1025 3253 1025 2328 
Q 1025 1406 1450 917 
Q 1875 428 2675 428 
Q 3081 428 3442 575 
Q 3803 722 4122 1019 
L 4122 359 
Q 3791 134 3420 21 
Q 3050 -91 2638 -91 
Q 1578 -91 968 557 
Q 359 1206 359 2328 
Q 359 3453 968 4101 
Q 1578 4750 2638 4750 
Q 3056 4750 3426 4639 
Q 3797 4528 4122 4306 
z
" transform="scale(0.015625)"/>
      </defs>
      <use xlink:href="#DejaVuSans-43"/>
      <use xlink:href="#DejaVuSans-6f" x="69.824219"/>
      <use xlink:href="#DejaVuSans-75" x="131.005859"/>
      <use xlink:href="#DejaVuSans-6e" x="194.384766"/>
      <use xlink:href="#DejaVuSans-74" x="257.763672"/>
     </g>
    </g>
    <g id="text_18">
     <!-- 1e7 -->
     <g transform="translate(32.968125 32.2559) scale(0.1 -0.1)">
      <defs>
       <path id="DejaVuSans-37" d="M 525 4666 
L 3525 4666 
L 3525 4397 
L 1831 0 
L 1172 0 
L 2766 4134 
L 525 4134 
L 525 4666 
z
" transform="scale(0.015625)"/>
      </defs>
      <use xlink:href="#DejaVuSans-31"/>
      <use xlink:href="#DejaVuSans-65" x="63.623047"/>
      <use xlink:href="#DejaVuSans-37" x="125.146484"/>
     </g>
    </g>
   </g>
   <g id="line2d_7">
    <path d="M 78.800583 347.709662 
L 101.716812 353.2239 
L 124.633041 353.2239 
L 147.549271 353.2239 
L 170.4655 353.2239 
L 193.381729 353.2239 
L 216.297958 353.2239 
L 239.214187 353.2239 
L 262.130416 353.2239 
L 285.046645 353.223894 
L 307.962874 353.223627 
L 330.879104 353.215892 
L 353.795333 353.15227 
L 376.711562 352.931376 
L 399.627791 352.671396 
L 422.54402 352.604857 
L 445.460249 352.663752 
L 468.376478 352.657109 
L 491.292707 352.621414 
L 514.208936 352.507167 
L 537.125166 352.411559 
L 560.041395 352.20974 
L 582.957624 352.059957 
L 605.873853 351.829223 
L 628.790082 351.629657 
L 651.706311 351.422777 
L 674.62254 351.164765 
L 697.538769 350.911184 
L 720.454999 350.546569 
L 743.371228 350.223042 
L 766.287457 349.54093 
L 789.203686 348.917939 
L 812.119915 347.348824 
L 835.036144 345.43511 
L 857.952373 341.418636 
L 880.868602 333.876596 
L 903.784831 318.583543 
L 926.701061 131.757279 
L 949.61729 89.805969 
" clip-path="url(#p3068e42dc5)" style="fill: none; stroke: #5cb85c; stroke-linecap: square"/>
   </g>
   <g id="line2d_8">
    <path d="M 78.800583 349.859321 
L 101.716812 353.2239 
L 124.633041 353.2239 
L 147.549271 353.2239 
L 170.4655 353.2239 
L 193.381729 353.2239 
L 216.297958 353.2239 
L 239.214187 353.2239 
L 262.130416 353.2239 
L 285.046645 353.223883 
L 307.962874 353.223559 
L 330.879104 353.216199 
L 353.795333 353.156445 
L 376.711562 352.950657 
L 399.627791 352.709856 
L 422.54402 352.666249 
L 445.460249 352.716738 
L 468.376478 352.710106 
L 491.292707 352.667512 
L 514.208936 352.554772 
L 537.125166 352.460421 
L 560.041395 352.264335 
L 582.957624 352.112283 
L 605.873853 351.888198 
L 628.790082 351.687983 
L 651.706311 351.48397 
L 674.62254 351.221544 
L 697.538769 350.967093 
L 720.454999 350.574166 
L 743.371228 350.269641 
L 766.287457 349.607668 
L 789.203686 348.960147 
L 812.119915 347.395662 
L 835.036144 345.450586 
L 857.952373 341.435818 
L 880.868602 333.882261 
L 903.784831 318.609865 
L 926.701061 136.237587 
L 949.61729 88.598801 
" clip-path="url(#p3068e42dc5)" style="fill: none; stroke: #5cb85c; stroke-linecap: square"/>
   </g>
   <g id="line2d_9">
    <path d="M 78.800583 349.081179 
L 101.716812 353.2239 
L 124.633041 353.2239 
L 147.549271 353.2239 
L 170.4655 353.2239 
L 193.381729 353.2239 
L 216.297958 353.2239 
L 239.214187 353.2239 
L 262.130416 353.2239 
L 285.046645 353.223883 
L 307.962874 353.223621 
L 330.879104 353.216233 
L 353.795333 353.158265 
L 376.711562 352.955724 
L 399.627791 352.714753 
L 422.54402 352.66179 
L 445.460249 352.719502 
L 468.376478 352.723978 
L 491.292707 352.696558 
L 514.208936 352.598402 
L 537.125166 352.510437 
L 560.041395 352.330488 
L 582.957624 352.202454 
L 605.873853 352.004503 
L 628.790082 351.813964 
L 651.706311 351.638882 
L 674.62254 351.374728 
L 697.538769 351.130577 
L 720.454999 350.818175 
L 743.371228 350.560277 
L 766.287457 349.959969 
L 789.203686 349.37955 
L 812.119915 347.967867 
L 835.036144 346.269764 
L 857.952373 342.680257 
L 880.868602 335.857789 
L 903.784831 322.123078 
L 926.701061 154.339701 
L 949.61729 110.642454 
" clip-path="url(#p3068e42dc5)" style="fill: none; stroke: #5cb85c; stroke-linecap: square"/>
   </g>
   <g id="line2d_10">
    <path d="M 78.800583 345.033242 
L 101.716812 353.2239 
L 124.633041 353.2239 
L 147.549271 353.2239 
L 170.4655 353.2239 
L 193.381729 353.2239 
L 216.297958 353.2239 
L 239.214187 353.2239 
L 262.130416 353.223894 
L 285.046645 353.2239 
L 307.962874 353.223547 
L 330.879104 353.215716 
L 353.795333 353.145019 
L 376.711562 352.904013 
L 399.627791 352.633232 
L 422.54402 352.587629 
L 445.460249 352.660237 
L 468.376478 352.664543 
L 491.292707 352.632743 
L 514.208936 352.534103 
L 537.125166 352.441407 
L 560.041395 352.252858 
L 582.957624 352.089823 
L 605.873853 351.870475 
L 628.790082 351.633235 
L 651.706311 351.434237 
L 674.62254 351.13172 
L 697.538769 350.893046 
L 720.454999 350.455449 
L 743.371228 350.089873 
L 766.287457 349.34824 
L 789.203686 348.6298 
L 812.119915 346.855255 
L 835.036144 344.587431 
L 857.952373 340.064478 
L 880.868602 331.643501 
L 903.784831 314.456935 
L 926.701061 116.703412 
L 949.61729 83.806483 
" clip-path="url(#p3068e42dc5)" style="fill: none; stroke: #5cb85c; stroke-linecap: square"/>
   </g>
   <g id="line2d_11">
    <path d="M 78.800583 350.439586 
L 101.716812 353.2239 
L 124.633041 353.2239 
L 147.549271 353.2239 
L 170.4655 353.2239 
L 193.381729 353.2239 
L 216.297958 353.2239 
L 239.214187 353.2239 
L 262.130416 353.2239 
L 285.046645 353.223883 
L 307.962874 353.223616 
L 330.879104 353.217774 
L 353.795333 353.170886 
L 376.711562 353.000435 
L 399.627791 352.788032 
L 422.54402 352.737549 
L 445.460249 352.78227 
L 468.376478 352.778795 
L 491.292707 352.74232 
L 514.208936 352.647252 
L 537.125166 352.560875 
L 560.041395 352.383797 
L 582.957624 352.251641 
L 605.873853 352.049999 
L 628.790082 351.876709 
L 651.706311 351.684093 
L 674.62254 351.457346 
L 697.538769 351.245182 
L 720.454999 350.913197 
L 743.371228 350.622305 
L 766.287457 350.02607 
L 789.203686 349.486733 
L 812.119915 348.092158 
L 835.036144 346.41292 
L 857.952373 342.868881 
L 880.868602 336.264548 
L 903.784831 322.991664 
L 926.701061 149.382051 
L 949.61729 103.953308 
" clip-path="url(#p3068e42dc5)" style="fill: none; stroke: #5cb85c; stroke-linecap: square"/>
   </g>
   <g id="line2d_12">
    <path d="M 78.800583 347.444569 
L 101.716812 353.2239 
L 124.633041 353.2239 
L 147.549271 353.2239 
L 170.4655 353.2239 
L 193.381729 353.2239 
L 216.297958 353.2239 
L 239.214187 353.2239 
L 262.130416 353.2239 
L 285.046645 353.223889 
L 307.962874 353.223587 
L 330.879104 353.21538 
L 353.795333 353.150166 
L 376.711562 352.914535 
L 399.627791 352.631407 
L 422.54402 352.575646 
L 445.460249 352.651182 
L 468.376478 352.668308 
L 491.292707 352.628108 
L 514.208936 352.51637 
L 537.125166 352.413515 
L 560.041395 352.201869 
L 582.957624 352.036991 
L 605.873853 351.796196 
L 628.790082 351.571109 
L 651.706311 351.351926 
L 674.62254 351.074469 
L 697.538769 350.814375 
L 720.454999 350.380691 
L 743.371228 350.021793 
L 766.287457 349.32272 
L 789.203686 348.631222 
L 812.119915 346.928756 
L 835.036144 344.852433 
L 857.952373 340.50443 
L 880.868602 332.375232 
L 903.784831 315.999261 
L 926.701061 110.920174 
L 949.61729 50.397233 
" clip-path="url(#p3068e42dc5)" style="fill: none; stroke: #5cb85c; stroke-linecap: square"/>
   </g>
   <g id="line2d_13">
    <path d="M 78.800583 352.14096 
L 101.716812 353.2239 
L 124.633041 353.2239 
L 147.549271 353.2239 
L 170.4655 353.2239 
L 193.381729 353.2239 
L 216.297958 353.2239 
L 239.214187 353.2239 
L 262.130416 353.2239 
L 285.046645 353.223894 
L 307.962874 353.223633 
L 330.879104 353.21881 
L 353.795333 353.181385 
L 376.711562 353.043268 
L 399.627791 352.876855 
L 422.54402 352.828669 
L 445.460249 352.855486 
L 468.376478 352.837752 
L 491.292707 352.803849 
L 514.208936 352.717352 
L 537.125166 352.63838 
L 560.041395 352.493158 
L 582.957624 352.373975 
L 605.873853 352.202153 
L 628.790082 352.042292 
L 651.706311 351.891736 
L 674.62254 351.685202 
L 697.538769 351.505759 
L 720.454999 351.210812 
L 743.371228 350.94676 
L 766.287457 350.426123 
L 789.203686 349.941933 
L 812.119915 348.721706 
L 835.036144 347.235602 
L 857.952373 344.119365 
L 880.868602 338.221494 
L 903.784831 326.459206 
L 926.701061 180.440079 
L 949.61729 132.912559 
" clip-path="url(#p3068e42dc5)" style="fill: none; stroke: #5cb85c; stroke-linecap: square"/>
   </g>
   <g id="line2d_14">
    <path d="M 78.800583 345.096095 
L 101.716812 353.2239 
L 124.633041 353.2239 
L 147.549271 353.2239 
L 170.4655 353.2239 
L 193.381729 353.2239 
L 216.297958 353.2239 
L 239.214187 353.2239 
L 262.130416 353.2239 
L 285.046645 353.223872 
L 307.962874 353.223434 
L 330.879104 353.212178 
L 353.795333 353.125249 
L 376.711562 352.835375 
L 399.627791 352.515573 
L 422.54402 352.471745 
L 445.460249 352.578973 
L 468.376478 352.605904 
L 491.292707 352.588136 
L 514.208936 352.483455 
L 537.125166 352.400309 
L 560.041395 352.203819 
L 582.957624 352.049441 
L 605.873853 351.831476 
L 628.790082 351.63369 
L 651.706311 351.432747 
L 674.62254 351.168718 
L 697.538769 350.932922 
L 720.454999 350.526458 
L 743.371228 350.190936 
L 766.287457 349.537204 
L 789.203686 348.91914 
L 812.119915 347.345298 
L 835.036144 345.405813 
L 857.952373 341.419643 
L 880.868602 333.904699 
L 903.784831 318.744377 
L 926.701061 135.479386 
L 949.61729 94.628346 
" clip-path="url(#p3068e42dc5)" style="fill: none; stroke: #5cb85c; stroke-linecap: square"/>
   </g>
   <g id="line2d_15">
    <path d="M 78.800583 348.039662 
L 101.716812 353.2239 
L 124.633041 353.2239 
L 147.549271 353.2239 
L 170.4655 353.2239 
L 193.381729 353.2239 
L 216.297958 353.2239 
L 239.214187 353.2239 
L 262.130416 353.2239 
L 285.046645 353.223877 
L 307.962874 353.223496 
L 330.879104 353.215954 
L 353.795333 353.15752 
L 376.711562 352.955281 
L 399.627791 352.710447 
L 422.54402 352.648487 
L 445.460249 352.697639 
L 468.376478 352.694482 
L 491.292707 352.65935 
L 514.208936 352.544614 
L 537.125166 352.457941 
L 560.041395 352.260257 
L 582.957624 352.114166 
L 605.873853 351.907485 
L 628.790082 351.700911 
L 651.706311 351.512237 
L 674.62254 351.253298 
L 697.538769 351.017695 
L 720.454999 350.678123 
L 743.371228 350.363475 
L 766.287457 349.722569 
L 789.203686 349.112586 
L 812.119915 347.58544 
L 835.036144 345.734226 
L 857.952373 341.872676 
L 880.868602 334.498796 
L 903.784831 319.316497 
L 926.701061 134.78625 
L 949.61729 89.960922 
" clip-path="url(#p3068e42dc5)" style="fill: none; stroke: #5cb85c; stroke-linecap: square"/>
   </g>
   <g id="line2d_16">
    <path d="M 78.800583 345.719859 
L 101.716812 353.2239 
L 124.633041 353.2239 
L 147.549271 353.2239 
L 170.4655 353.2239 
L 193.381729 353.2239 
L 216.297958 353.2239 
L 239.214187 353.2239 
L 262.130416 353.2239 
L 285.046645 353.223894 
L 307.962874 353.223462 
L 330.879104 353.215181 
L 353.795333 353.148494 
L 376.711562 352.91313 
L 399.627791 352.635826 
L 422.54402 352.583517 
L 445.460249 352.659816 
L 468.376478 352.661318 
L 491.292707 352.621607 
L 514.208936 352.498385 
L 537.125166 352.404824 
L 560.041395 352.191119 
L 582.957624 352.0297 
L 605.873853 351.79189 
L 628.790082 351.56644 
L 651.706311 351.351062 
L 674.62254 351.065522 
L 697.538769 350.803029 
L 720.454999 350.365886 
L 743.371228 350.019995 
L 766.287457 349.276565 
L 789.203686 348.59882 
L 812.119915 346.85736 
L 835.036144 344.752633 
L 857.952373 340.330304 
L 880.868602 332.001671 
L 903.784831 315.411654 
L 926.701061 112.814124 
L 949.61729 61.223288 
" clip-path="url(#p3068e42dc5)" style="fill: none; stroke: #5cb85c; stroke-linecap: square"/>
   </g>
   <g id="line2d_17">
    <path d="M 78.800583 349.040666 
L 101.716812 353.2239 
L 124.633041 353.2239 
L 147.549271 353.2239 
L 170.4655 353.2239 
L 193.381729 353.2239 
L 216.297958 353.2239 
L 239.214187 353.2239 
L 262.130416 353.2239 
L 285.046645 353.2239 
L 307.962874 353.223496 
L 330.879104 353.214487 
L 353.795333 353.144478 
L 376.711562 352.905384 
L 399.627791 352.628506 
L 422.54402 352.575373 
L 445.460249 352.655192 
L 468.376478 352.666573 
L 491.292707 352.643692 
L 514.208936 352.54756 
L 537.125166 352.472308 
L 560.041395 352.280716 
L 582.957624 352.145249 
L 605.873853 351.946405 
L 628.790082 351.768804 
L 651.706311 351.5834 
L 674.62254 351.357296 
L 697.538769 351.144819 
L 720.454999 350.792074 
L 743.371228 350.489876 
L 766.287457 349.89248 
L 789.203686 349.325546 
L 812.119915 347.905025 
L 835.036144 346.19715 
L 857.952373 342.605028 
L 880.868602 335.857419 
L 903.784831 322.11714 
L 926.701061 154.998017 
L 949.61729 107.609917 
" clip-path="url(#p3068e42dc5)" style="fill: none; stroke: #5cb85c; stroke-linecap: square"/>
   </g>
   <g id="line2d_18">
    <path d="M 78.800583 345.70101 
L 101.716812 353.2239 
L 124.633041 353.2239 
L 147.549271 353.2239 
L 170.4655 353.2239 
L 193.381729 353.2239 
L 216.297958 353.2239 
L 239.214187 353.2239 
L 262.130416 353.223894 
L 285.046645 353.223883 
L 307.962874 353.223553 
L 330.879104 353.214766 
L 353.795333 353.14747 
L 376.711562 352.912271 
L 399.627791 352.638801 
L 422.54402 352.593687 
L 445.460249 352.67333 
L 468.376478 352.682532 
L 491.292707 352.65811 
L 514.208936 352.562354 
L 537.125166 352.484326 
L 560.041395 352.307214 
L 582.957624 352.17181 
L 605.873853 351.980104 
L 628.790082 351.806018 
L 651.706311 351.629293 
L 674.62254 351.398929 
L 697.538769 351.179957 
L 720.454999 350.818305 
L 743.371228 350.525065 
L 766.287457 349.966754 
L 789.203686 349.434987 
L 812.119915 348.086437 
L 835.036144 346.415957 
L 857.952373 342.980175 
L 880.868602 336.591681 
L 903.784831 323.153908 
L 926.701061 160.67943 
L 949.61729 123.261322 
" clip-path="url(#p3068e42dc5)" style="fill: none; stroke: #5cb85c; stroke-linecap: square"/>
   </g>
   <g id="line2d_19">
    <path d="M 78.800583 337.64033 
L 101.716812 353.2239 
L 124.633041 353.2239 
L 147.549271 353.2239 
L 170.4655 353.2239 
L 193.381729 353.2239 
L 216.297958 353.2239 
L 239.214187 353.2239 
L 262.130416 353.223894 
L 285.046645 353.223883 
L 307.962874 353.223485 
L 330.879104 353.21331 
L 353.795333 353.135003 
L 376.711562 352.875984 
L 399.627791 352.571408 
L 422.54402 352.513509 
L 445.460249 352.59123 
L 468.376478 352.602764 
L 491.292707 352.574792 
L 514.208936 352.467223 
L 537.125166 352.373941 
L 560.041395 352.178891 
L 582.957624 352.018603 
L 605.873853 351.802224 
L 628.790082 351.588769 
L 651.706311 351.386012 
L 674.62254 351.123962 
L 697.538769 350.867122 
L 720.454999 350.405102 
L 743.371228 350.066446 
L 766.287457 349.44684 
L 789.203686 348.83179 
L 812.119915 347.260047 
L 835.036144 345.32555 
L 857.952373 341.306585 
L 880.868602 333.78386 
L 903.784831 318.604928 
L 926.701061 137.181403 
L 949.61729 83.001103 
" clip-path="url(#p3068e42dc5)" style="fill: none; stroke: #5cb85c; stroke-linecap: square"/>
   </g>
   <g id="line2d_20">
    <path d="M 78.800583 341.789245 
L 101.716812 353.2239 
L 124.633041 353.2239 
L 147.549271 353.2239 
L 170.4655 353.2239 
L 193.381729 353.2239 
L 216.297958 353.2239 
L 239.214187 353.2239 
L 262.130416 353.2239 
L 285.046645 353.223866 
L 307.962874 353.223496 
L 330.879104 353.215181 
L 353.795333 353.151531 
L 376.711562 352.943269 
L 399.627791 352.69459 
L 422.54402 352.642594 
L 445.460249 352.692599 
L 468.376478 352.683266 
L 491.292707 352.651069 
L 514.208936 352.549033 
L 537.125166 352.460148 
L 560.041395 352.266701 
L 582.957624 352.117544 
L 605.873853 351.902599 
L 628.790082 351.707714 
L 651.706311 351.514722 
L 674.62254 351.264252 
L 697.538769 351.024031 
L 720.454999 350.634773 
L 743.371228 350.334758 
L 766.287457 349.702235 
L 789.203686 349.079433 
L 812.119915 347.55318 
L 835.036144 345.662534 
L 857.952373 341.758509 
L 880.868602 334.409694 
L 903.784831 319.146762 
L 926.701061 140.067997 
L 949.61729 102.930896 
" clip-path="url(#p3068e42dc5)" style="fill: none; stroke: #5cb85c; stroke-linecap: square"/>
   </g>
   <g id="line2d_21">
    <path d="M 78.800583 344.550695 
L 101.716812 353.2239 
L 124.633041 353.2239 
L 147.549271 353.2239 
L 170.4655 353.2239 
L 193.381729 353.2239 
L 216.297958 353.2239 
L 239.214187 353.2239 
L 262.130416 353.2239 
L 285.046645 353.223883 
L 307.962874 353.223496 
L 330.879104 353.215681 
L 353.795333 353.15202 
L 376.711562 352.930079 
L 399.627791 352.666471 
L 422.54402 352.607496 
L 445.460249 352.65687 
L 468.376478 352.65224 
L 491.292707 352.611989 
L 514.208936 352.495445 
L 537.125166 352.392249 
L 560.041395 352.183162 
L 582.957624 352.005328 
L 605.873853 351.773445 
L 628.790082 351.53278 
L 651.706311 351.317323 
L 674.62254 350.998534 
L 697.538769 350.725666 
L 720.454999 350.323775 
L 743.371228 349.98074 
L 766.287457 349.225814 
L 789.203686 348.521105 
L 812.119915 346.746475 
L 835.036144 344.524618 
L 857.952373 340.042228 
L 880.868602 331.668697 
L 903.784831 314.839573 
L 926.701061 112.979462 
L 949.61729 74.726058 
" clip-path="url(#p3068e42dc5)" style="fill: none; stroke: #5cb85c; stroke-linecap: square"/>
   </g>
   <g id="line2d_22">
    <path d="M 78.800583 351.842128 
L 101.716812 353.2239 
L 124.633041 353.2239 
L 147.549271 353.2239 
L 170.4655 353.2239 
L 193.381729 353.2239 
L 216.297958 353.2239 
L 239.214187 353.2239 
L 262.130416 353.2239 
L 285.046645 353.223889 
L 307.962874 353.223724 
L 330.879104 353.218167 
L 353.795333 353.170585 
L 376.711562 353.007027 
L 399.627791 352.814092 
L 422.54402 352.767829 
L 445.460249 352.803087 
L 468.376478 352.79116 
L 491.292707 352.758536 
L 514.208936 352.663314 
L 537.125166 352.588198 
L 560.041395 352.417752 
L 582.957624 352.291772 
L 605.873853 352.103843 
L 628.790082 351.933608 
L 651.706311 351.776187 
L 674.62254 351.563721 
L 697.538769 351.370434 
L 720.454999 351.058805 
L 743.371228 350.795737 
L 766.287457 350.264954 
L 789.203686 349.768166 
L 812.119915 348.498138 
L 835.036144 346.968956 
L 857.952373 343.745861 
L 880.868602 337.751819 
L 903.784831 325.675439 
L 926.701061 176.775957 
L 949.61729 127.594168 
" clip-path="url(#p3068e42dc5)" style="fill: none; stroke: #5cb85c; stroke-linecap: square"/>
   </g>
   <g id="line2d_23">
    <path d="M 78.800583 311.519198 
L 101.716812 353.2239 
L 124.633041 353.2239 
L 147.549271 353.2239 
L 170.4655 353.2239 
L 193.381729 353.2239 
L 216.297958 353.2239 
L 239.214187 353.2239 
L 262.130416 353.2239 
L 285.046645 353.223889 
L 307.962874 353.223246 
L 330.879104 353.210847 
L 353.795333 353.112002 
L 376.711562 352.813688 
L 399.627791 352.477751 
L 422.54402 352.40313 
L 445.460249 352.491901 
L 468.376478 352.511217 
L 491.292707 352.489729 
L 514.208936 352.378144 
L 537.125166 352.279754 
L 560.041395 352.061203 
L 582.957624 351.903418 
L 605.873853 351.664408 
L 628.790082 351.445089 
L 651.706311 351.230781 
L 674.62254 350.927507 
L 697.538769 350.616214 
L 720.454999 350.183678 
L 743.371228 349.909781 
L 766.287457 349.238725 
L 789.203686 348.575501 
L 812.119915 346.901808 
L 835.036144 344.904224 
L 857.952373 340.677714 
L 880.868602 332.824813 
L 903.784831 316.870054 
L 926.701061 114.474741 
L 949.61729 63.314 
" clip-path="url(#p3068e42dc5)" style="fill: none; stroke: #5cb85c; stroke-linecap: square"/>
   </g>
   <g id="line2d_24">
    <path d="M 78.800583 349.901733 
L 101.716812 353.2239 
L 124.633041 353.2239 
L 147.549271 353.2239 
L 170.4655 353.2239 
L 193.381729 353.2239 
L 216.297958 353.2239 
L 239.214187 353.2239 
L 262.130416 353.223894 
L 285.046645 353.223877 
L 307.962874 353.223707 
L 330.879104 353.218343 
L 353.795333 353.178018 
L 376.711562 353.036062 
L 399.627791 352.867078 
L 422.54402 352.819103 
L 445.460249 352.845118 
L 468.376478 352.835534 
L 491.292707 352.813734 
L 514.208936 352.735467 
L 537.125166 352.664946 
L 560.041395 352.519361 
L 582.957624 352.403226 
L 605.873853 352.240533 
L 628.790082 352.091251 
L 651.706311 351.941707 
L 674.62254 351.744529 
L 697.538769 351.568817 
L 720.454999 351.283317 
L 743.371228 351.031363 
L 766.287457 350.515146 
L 789.203686 350.050009 
L 812.119915 348.839655 
L 835.036144 347.355985 
L 857.952373 344.311959 
L 880.868602 338.612226 
L 903.784831 327.444217 
L 926.701061 188.520592 
L 949.61729 140.222728 
" clip-path="url(#p3068e42dc5)" style="fill: none; stroke: #5cb85c; stroke-linecap: square"/>
   </g>
   <g id="line2d_25">
    <path d="M 32.968125 353.2239 
L 993.158125 353.2239 
" clip-path="url(#p3068e42dc5)" style="fill: none; stroke: #dedede; stroke-width: 2; stroke-linecap: square"/>
   </g>
   <g id="text_19">
    <!-- FastQC: Per Sequence Quality Scores -->
    <g transform="translate(364.870625 19.3575) scale(0.16 -0.16)">
     <defs>
      <path id="DejaVuSans-46" d="M 628 4666 
L 3309 4666 
L 3309 4134 
L 1259 4134 
L 1259 2759 
L 3109 2759 
L 3109 2228 
L 1259 2228 
L 1259 0 
L 628 0 
L 628 4666 
z
" transform="scale(0.015625)"/>
      <path id="DejaVuSans-73" d="M 2834 3397 
L 2834 2853 
Q 2591 2978 2328 3040 
Q 2066 3103 1784 3103 
Q 1356 3103 1142 2972 
Q 928 2841 928 2578 
Q 928 2378 1081 2264 
Q 1234 2150 1697 2047 
L 1894 2003 
Q 2506 1872 2764 1633 
Q 3022 1394 3022 966 
Q 3022 478 2636 193 
Q 2250 -91 1575 -91 
Q 1294 -91 989 -36 
Q 684 19 347 128 
L 347 722 
Q 666 556 975 473 
Q 1284 391 1588 391 
Q 1994 391 2212 530 
Q 2431 669 2431 922 
Q 2431 1156 2273 1281 
Q 2116 1406 1581 1522 
L 1381 1569 
Q 847 1681 609 1914 
Q 372 2147 372 2553 
Q 372 3047 722 3315 
Q 1072 3584 1716 3584 
Q 2034 3584 2315 3537 
Q 2597 3491 2834 3397 
z
" transform="scale(0.015625)"/>
      <path id="DejaVuSans-3a" d="M 750 794 
L 1409 794 
L 1409 0 
L 750 0 
L 750 794 
z
M 750 3309 
L 1409 3309 
L 1409 2516 
L 750 2516 
L 750 3309 
z
" transform="scale(0.015625)"/>
     </defs>
     <use xlink:href="#DejaVuSans-46"/>
     <use xlink:href="#DejaVuSans-61" x="48.394531"/>
     <use xlink:href="#DejaVuSans-73" x="109.673828"/>
     <use xlink:href="#DejaVuSans-74" x="161.773438"/>
     <use xlink:href="#DejaVuSans-51" x="200.982422"/>
     <use xlink:href="#DejaVuSans-43" x="279.693359"/>
     <use xlink:href="#DejaVuSans-3a" x="349.517578"/>
     <use xlink:href="#DejaVuSans-20" x="383.208984"/>
     <use xlink:href="#DejaVuSans-50" x="414.996094"/>
     <use xlink:href="#DejaVuSans-65" x="471.673828"/>
     <use xlink:href="#DejaVuSans-72" x="533.197266"/>
     <use xlink:href="#DejaVuSans-20" x="574.310547"/>
     <use xlink:href="#DejaVuSans-53" x="606.097656"/>
     <use xlink:href="#DejaVuSans-65" x="669.574219"/>
     <use xlink:href="#DejaVuSans-71" x="731.097656"/>
     <use xlink:href="#DejaVuSans-75" x="794.574219"/>
     <use xlink:href="#DejaVuSans-65" x="857.953125"/>
     <use xlink:href="#DejaVuSans-6e" x="919.476562"/>
     <use xlink:href="#DejaVuSans-63" x="982.855469"/>
     <use xlink:href="#DejaVuSans-65" x="1037.835938"/>
     <use xlink:href="#DejaVuSans-20" x="1099.359375"/>
     <use xlink:href="#DejaVuSans-51" x="1131.146484"/>
     <use xlink:href="#DejaVuSans-75" x="1209.857422"/>
     <use xlink:href="#DejaVuSans-61" x="1273.236328"/>
     <use xlink:href="#DejaVuSans-6c" x="1334.515625"/>
     <use xlink:href="#DejaVuSans-69" x="1362.298828"/>
     <use xlink:href="#DejaVuSans-74" x="1390.082031"/>
     <use xlink:href="#DejaVuSans-79" x="1429.291016"/>
     <use xlink:href="#DejaVuSans-20" x="1488.470703"/>
     <use xlink:href="#DejaVuSans-53" x="1520.257812"/>
     <use xlink:href="#DejaVuSans-63" x="1583.734375"/>
     <use xlink:href="#DejaVuSans-6f" x="1638.714844"/>
     <use xlink:href="#DejaVuSans-72" x="1699.896484"/>
     <use xlink:href="#DejaVuSans-65" x="1738.759766"/>
     <use xlink:href="#DejaVuSans-73" x="1800.283203"/>
    </g>
   </g>
  </g>
 </g>
 <defs>
  <clipPath id="p3068e42dc5">
   <rect x="32.968125" y="35.2559" width="960.19" height="317.968"/>
  </clipPath>
 </defs>
</svg>
