<?xml version="1.0" encoding="utf-8" standalone="no"?>
<!DOCTYPE svg PUBLIC "-//W3C//DTD SVG 1.1//EN"
  "http://www.w3.org/Graphics/SVG/1.1/DTD/svg11.dtd">
<svg xmlns:xlink="http://www.w3.org/1999/xlink" width="1000.358125pt" height="388.844525pt" viewBox="0 0 1000.358125 388.844525" xmlns="http://www.w3.org/2000/svg" version="1.1">
 <metadata>
  <rdf:RDF xmlns:dc="http://purl.org/dc/elements/1.1/" xmlns:cc="http://creativecommons.org/ns#" xmlns:rdf="http://www.w3.org/1999/02/22-rdf-syntax-ns#">
   <cc:Work>
    <dc:type rdf:resource="http://purl.org/dc/dcmitype/StillImage"/>
    <dc:date>2025-03-11T15:51:14.012095</dc:date>
    <dc:format>image/svg+xml</dc:format>
    <dc:creator>
     <cc:Agent>
      <dc:title>Matplotlib v3.8.2, https://matplotlib.org/</dc:title>
     </cc:Agent>
    </dc:creator>
   </cc:Work>
  </rdf:RDF>
 </metadata>
 <defs>
  <style type="text/css">*{stroke-linejoin: round; stroke-linecap: butt}</style>
 </defs>
 <g id="figure_1">
  <g id="axes_1">
   <g id="patch_1">
    <path d="M 32.968125 353.2239 
L 993.158125 353.2239 
L 993.158125 35.2559 
L 32.968125 35.2559 
z
" style="fill: #ffffff"/>
   </g>
   <g id="matplotlib.axis_1">
    <g id="xtick_1">
     <g id="text_1">
      <!-- 40 -->
      <g transform="translate(150.87767 366.30265) scale(0.08 -0.08)">
       <defs>
        <path id="DejaVuSans-34" d="M 2419 4116 
L 825 1625 
L 2419 1625 
L 2419 4116 
z
M 2253 4666 
L 3047 4666 
L 3047 1625 
L 3713 1625 
L 3713 1100 
L 3047 1100 
L 3047 0 
L 2419 0 
L 2419 1100 
L 313 1100 
L 313 1709 
L 2253 4666 
z
" transform="scale(0.015625)"/>
        <path id="DejaVuSans-30" d="M 2034 4250 
Q 1547 4250 1301 3770 
Q 1056 3291 1056 2328 
Q 1056 1369 1301 889 
Q 1547 409 2034 409 
Q 2525 409 2770 889 
Q 3016 1369 3016 2328 
Q 3016 3291 2770 3770 
Q 2525 4250 2034 4250 
z
M 2034 4750 
Q 2819 4750 3233 4129 
Q 3647 3509 3647 2328 
Q 3647 1150 3233 529 
Q 2819 -91 2034 -91 
Q 1250 -91 836 529 
Q 422 1150 422 2328 
Q 422 3509 836 4129 
Q 1250 4750 2034 4750 
z
" transform="scale(0.015625)"/>
       </defs>
       <use xlink:href="#DejaVuSans-34"/>
       <use xlink:href="#DejaVuSans-30" x="63.623047"/>
      </g>
     </g>
    </g>
    <g id="xtick_2">
     <g id="text_2">
      <!-- 50 -->
      <g transform="translate(283.135246 366.30265) scale(0.08 -0.08)">
       <defs>
        <path id="DejaVuSans-35" d="M 691 4666 
L 3169 4666 
L 3169 4134 
L 1269 4134 
L 1269 2991 
Q 1406 3038 1543 3061 
Q 1681 3084 1819 3084 
Q 2600 3084 3056 2656 
Q 3513 2228 3513 1497 
Q 3513 744 3044 326 
Q 2575 -91 1722 -91 
Q 1428 -91 1123 -41 
Q 819 9 494 109 
L 494 744 
Q 775 591 1075 516 
Q 1375 441 1709 441 
Q 2250 441 2565 725 
Q 2881 1009 2881 1497 
Q 2881 1984 2565 2268 
Q 2250 2553 1709 2553 
Q 1456 2553 1204 2497 
Q 953 2441 691 2322 
L 691 4666 
z
" transform="scale(0.015625)"/>
       </defs>
       <use xlink:href="#DejaVuSans-35"/>
       <use xlink:href="#DejaVuSans-30" x="63.623047"/>
      </g>
     </g>
    </g>
    <g id="xtick_3">
     <g id="text_3">
      <!-- 60 -->
      <g transform="translate(415.392822 366.30265) scale(0.08 -0.08)">
       <defs>
        <path id="DejaVuSans-36" d="M 2113 2584 
Q 1688 2584 1439 2293 
Q 1191 2003 1191 1497 
Q 1191 994 1439 701 
Q 1688 409 2113 409 
Q 2538 409 2786 701 
Q 3034 994 3034 1497 
Q 3034 2003 2786 2293 
Q 2538 2584 2113 2584 
z
M 3366 4563 
L 3366 3988 
Q 3128 4100 2886 4159 
Q 2644 4219 2406 4219 
Q 1781 4219 1451 3797 
Q 1122 3375 1075 2522 
Q 1259 2794 1537 2939 
Q 1816 3084 2150 3084 
Q 2853 3084 3261 2657 
Q 3669 2231 3669 1497 
Q 3669 778 3244 343 
Q 2819 -91 2113 -91 
Q 1303 -91 875 529 
Q 447 1150 447 2328 
Q 447 3434 972 4092 
Q 1497 4750 2381 4750 
Q 2619 4750 2861 4703 
Q 3103 4656 3366 4563 
z
" transform="scale(0.015625)"/>
       </defs>
       <use xlink:href="#DejaVuSans-36"/>
       <use xlink:href="#DejaVuSans-30" x="63.623047"/>
      </g>
     </g>
    </g>
    <g id="xtick_4">
     <g id="text_4">
      <!-- 70 -->
      <g transform="translate(547.650398 366.30265) scale(0.08 -0.08)">
       <defs>
        <path id="DejaVuSans-37" d="M 525 4666 
L 3525 4666 
L 3525 4397 
L 1831 0 
L 1172 0 
L 2766 4134 
L 525 4134 
L 525 4666 
z
" transform="scale(0.015625)"/>
       </defs>
       <use xlink:href="#DejaVuSans-37"/>
       <use xlink:href="#DejaVuSans-30" x="63.623047"/>
      </g>
     </g>
    </g>
    <g id="xtick_5">
     <g id="text_5">
      <!-- 80 -->
      <g transform="translate(679.907973 366.30265) scale(0.08 -0.08)">
       <defs>
        <path id="DejaVuSans-38" d="M 2034 2216 
Q 1584 2216 1326 1975 
Q 1069 1734 1069 1313 
Q 1069 891 1326 650 
Q 1584 409 2034 409 
Q 2484 409 2743 651 
Q 3003 894 3003 1313 
Q 3003 1734 2745 1975 
Q 2488 2216 2034 2216 
z
M 1403 2484 
Q 997 2584 770 2862 
Q 544 3141 544 3541 
Q 544 4100 942 4425 
Q 1341 4750 2034 4750 
Q 2731 4750 3128 4425 
Q 3525 4100 3525 3541 
Q 3525 3141 3298 2862 
Q 3072 2584 2669 2484 
Q 3125 2378 3379 2068 
Q 3634 1759 3634 1313 
Q 3634 634 3220 271 
Q 2806 -91 2034 -91 
Q 1263 -91 848 271 
Q 434 634 434 1313 
Q 434 1759 690 2068 
Q 947 2378 1403 2484 
z
M 1172 3481 
Q 1172 3119 1398 2916 
Q 1625 2713 2034 2713 
Q 2441 2713 2670 2916 
Q 2900 3119 2900 3481 
Q 2900 3844 2670 4047 
Q 2441 4250 2034 4250 
Q 1625 4250 1398 4047 
Q 1172 3844 1172 3481 
z
" transform="scale(0.015625)"/>
       </defs>
       <use xlink:href="#DejaVuSans-38"/>
       <use xlink:href="#DejaVuSans-30" x="63.623047"/>
      </g>
     </g>
    </g>
    <g id="xtick_6">
     <g id="text_6">
      <!-- 90 -->
      <g transform="translate(812.165549 366.30265) scale(0.08 -0.08)">
       <defs>
        <path id="DejaVuSans-39" d="M 703 97 
L 703 672 
Q 941 559 1184 500 
Q 1428 441 1663 441 
Q 2288 441 2617 861 
Q 2947 1281 2994 2138 
Q 2813 1869 2534 1725 
Q 2256 1581 1919 1581 
Q 1219 1581 811 2004 
Q 403 2428 403 3163 
Q 403 3881 828 4315 
Q 1253 4750 1959 4750 
Q 2769 4750 3195 4129 
Q 3622 3509 3622 2328 
Q 3622 1225 3098 567 
Q 2575 -91 1691 -91 
Q 1453 -91 1209 -44 
Q 966 3 703 97 
z
M 1959 2075 
Q 2384 2075 2632 2365 
Q 2881 2656 2881 3163 
Q 2881 3666 2632 3958 
Q 2384 4250 1959 4250 
Q 1534 4250 1286 3958 
Q 1038 3666 1038 3163 
Q 1038 2656 1286 2365 
Q 1534 2075 1959 2075 
z
" transform="scale(0.015625)"/>
       </defs>
       <use xlink:href="#DejaVuSans-39"/>
       <use xlink:href="#DejaVuSans-30" x="63.623047"/>
      </g>
     </g>
    </g>
    <g id="xtick_7">
     <g id="text_7">
      <!-- 100 -->
      <g transform="translate(941.878125 366.30265) scale(0.08 -0.08)">
       <defs>
        <path id="DejaVuSans-31" d="M 794 531 
L 1825 531 
L 1825 4091 
L 703 3866 
L 703 4441 
L 1819 4666 
L 2450 4666 
L 2450 531 
L 3481 531 
L 3481 0 
L 794 0 
L 794 531 
z
" transform="scale(0.015625)"/>
       </defs>
       <use xlink:href="#DejaVuSans-31"/>
       <use xlink:href="#DejaVuSans-30" x="63.623047"/>
       <use xlink:href="#DejaVuSans-30" x="127.246094"/>
      </g>
     </g>
    </g>
    <g id="text_8">
     <!-- Sequence Length (bp) -->
     <g transform="translate(457.723281 379.564837) scale(0.1 -0.1)">
      <defs>
       <path id="DejaVuSans-53" d="M 3425 4513 
L 3425 3897 
Q 3066 4069 2747 4153 
Q 2428 4238 2131 4238 
Q 1616 4238 1336 4038 
Q 1056 3838 1056 3469 
Q 1056 3159 1242 3001 
Q 1428 2844 1947 2747 
L 2328 2669 
Q 3034 2534 3370 2195 
Q 3706 1856 3706 1288 
Q 3706 609 3251 259 
Q 2797 -91 1919 -91 
Q 1588 -91 1214 -16 
Q 841 59 441 206 
L 441 856 
Q 825 641 1194 531 
Q 1563 422 1919 422 
Q 2459 422 2753 634 
Q 3047 847 3047 1241 
Q 3047 1584 2836 1778 
Q 2625 1972 2144 2069 
L 1759 2144 
Q 1053 2284 737 2584 
Q 422 2884 422 3419 
Q 422 4038 858 4394 
Q 1294 4750 2059 4750 
Q 2388 4750 2728 4690 
Q 3069 4631 3425 4513 
z
" transform="scale(0.015625)"/>
       <path id="DejaVuSans-65" d="M 3597 1894 
L 3597 1613 
L 953 1613 
Q 991 1019 1311 708 
Q 1631 397 2203 397 
Q 2534 397 2845 478 
Q 3156 559 3463 722 
L 3463 178 
Q 3153 47 2828 -22 
Q 2503 -91 2169 -91 
Q 1331 -91 842 396 
Q 353 884 353 1716 
Q 353 2575 817 3079 
Q 1281 3584 2069 3584 
Q 2775 3584 3186 3129 
Q 3597 2675 3597 1894 
z
M 3022 2063 
Q 3016 2534 2758 2815 
Q 2500 3097 2075 3097 
Q 1594 3097 1305 2825 
Q 1016 2553 972 2059 
L 3022 2063 
z
" transform="scale(0.015625)"/>
       <path id="DejaVuSans-71" d="M 947 1747 
Q 947 1113 1208 752 
Q 1469 391 1925 391 
Q 2381 391 2643 752 
Q 2906 1113 2906 1747 
Q 2906 2381 2643 2742 
Q 2381 3103 1925 3103 
Q 1469 3103 1208 2742 
Q 947 2381 947 1747 
z
M 2906 525 
Q 2725 213 2448 61 
Q 2172 -91 1784 -91 
Q 1150 -91 751 415 
Q 353 922 353 1747 
Q 353 2572 751 3078 
Q 1150 3584 1784 3584 
Q 2172 3584 2448 3432 
Q 2725 3281 2906 2969 
L 2906 3500 
L 3481 3500 
L 3481 -1331 
L 2906 -1331 
L 2906 525 
z
" transform="scale(0.015625)"/>
       <path id="DejaVuSans-75" d="M 544 1381 
L 544 3500 
L 1119 3500 
L 1119 1403 
Q 1119 906 1312 657 
Q 1506 409 1894 409 
Q 2359 409 2629 706 
Q 2900 1003 2900 1516 
L 2900 3500 
L 3475 3500 
L 3475 0 
L 2900 0 
L 2900 538 
Q 2691 219 2414 64 
Q 2138 -91 1772 -91 
Q 1169 -91 856 284 
Q 544 659 544 1381 
z
M 1991 3584 
L 1991 3584 
z
" transform="scale(0.015625)"/>
       <path id="DejaVuSans-6e" d="M 3513 2113 
L 3513 0 
L 2938 0 
L 2938 2094 
Q 2938 2591 2744 2837 
Q 2550 3084 2163 3084 
Q 1697 3084 1428 2787 
Q 1159 2491 1159 1978 
L 1159 0 
L 581 0 
L 581 3500 
L 1159 3500 
L 1159 2956 
Q 1366 3272 1645 3428 
Q 1925 3584 2291 3584 
Q 2894 3584 3203 3211 
Q 3513 2838 3513 2113 
z
" transform="scale(0.015625)"/>
       <path id="DejaVuSans-63" d="M 3122 3366 
L 3122 2828 
Q 2878 2963 2633 3030 
Q 2388 3097 2138 3097 
Q 1578 3097 1268 2742 
Q 959 2388 959 1747 
Q 959 1106 1268 751 
Q 1578 397 2138 397 
Q 2388 397 2633 464 
Q 2878 531 3122 666 
L 3122 134 
Q 2881 22 2623 -34 
Q 2366 -91 2075 -91 
Q 1284 -91 818 406 
Q 353 903 353 1747 
Q 353 2603 823 3093 
Q 1294 3584 2113 3584 
Q 2378 3584 2631 3529 
Q 2884 3475 3122 3366 
z
" transform="scale(0.015625)"/>
       <path id="DejaVuSans-20" transform="scale(0.015625)"/>
       <path id="DejaVuSans-4c" d="M 628 4666 
L 1259 4666 
L 1259 531 
L 3531 531 
L 3531 0 
L 628 0 
L 628 4666 
z
" transform="scale(0.015625)"/>
       <path id="DejaVuSans-67" d="M 2906 1791 
Q 2906 2416 2648 2759 
Q 2391 3103 1925 3103 
Q 1463 3103 1205 2759 
Q 947 2416 947 1791 
Q 947 1169 1205 825 
Q 1463 481 1925 481 
Q 2391 481 2648 825 
Q 2906 1169 2906 1791 
z
M 3481 434 
Q 3481 -459 3084 -895 
Q 2688 -1331 1869 -1331 
Q 1566 -1331 1297 -1286 
Q 1028 -1241 775 -1147 
L 775 -588 
Q 1028 -725 1275 -790 
Q 1522 -856 1778 -856 
Q 2344 -856 2625 -561 
Q 2906 -266 2906 331 
L 2906 616 
Q 2728 306 2450 153 
Q 2172 0 1784 0 
Q 1141 0 747 490 
Q 353 981 353 1791 
Q 353 2603 747 3093 
Q 1141 3584 1784 3584 
Q 2172 3584 2450 3431 
Q 2728 3278 2906 2969 
L 2906 3500 
L 3481 3500 
L 3481 434 
z
" transform="scale(0.015625)"/>
       <path id="DejaVuSans-74" d="M 1172 4494 
L 1172 3500 
L 2356 3500 
L 2356 3053 
L 1172 3053 
L 1172 1153 
Q 1172 725 1289 603 
Q 1406 481 1766 481 
L 2356 481 
L 2356 0 
L 1766 0 
Q 1100 0 847 248 
Q 594 497 594 1153 
L 594 3053 
L 172 3053 
L 172 3500 
L 594 3500 
L 594 4494 
L 1172 4494 
z
" transform="scale(0.015625)"/>
       <path id="DejaVuSans-68" d="M 3513 2113 
L 3513 0 
L 2938 0 
L 2938 2094 
Q 2938 2591 2744 2837 
Q 2550 3084 2163 3084 
Q 1697 3084 1428 2787 
Q 1159 2491 1159 1978 
L 1159 0 
L 581 0 
L 581 4863 
L 1159 4863 
L 1159 2956 
Q 1366 3272 1645 3428 
Q 1925 3584 2291 3584 
Q 2894 3584 3203 3211 
Q 3513 2838 3513 2113 
z
" transform="scale(0.015625)"/>
       <path id="DejaVuSans-28" d="M 1984 4856 
Q 1566 4138 1362 3434 
Q 1159 2731 1159 2009 
Q 1159 1288 1364 580 
Q 1569 -128 1984 -844 
L 1484 -844 
Q 1016 -109 783 600 
Q 550 1309 550 2009 
Q 550 2706 781 3412 
Q 1013 4119 1484 4856 
L 1984 4856 
z
" transform="scale(0.015625)"/>
       <path id="DejaVuSans-62" d="M 3116 1747 
Q 3116 2381 2855 2742 
Q 2594 3103 2138 3103 
Q 1681 3103 1420 2742 
Q 1159 2381 1159 1747 
Q 1159 1113 1420 752 
Q 1681 391 2138 391 
Q 2594 391 2855 752 
Q 3116 1113 3116 1747 
z
M 1159 2969 
Q 1341 3281 1617 3432 
Q 1894 3584 2278 3584 
Q 2916 3584 3314 3078 
Q 3713 2572 3713 1747 
Q 3713 922 3314 415 
Q 2916 -91 2278 -91 
Q 1894 -91 1617 61 
Q 1341 213 1159 525 
L 1159 0 
L 581 0 
L 581 4863 
L 1159 4863 
L 1159 2969 
z
" transform="scale(0.015625)"/>
       <path id="DejaVuSans-70" d="M 1159 525 
L 1159 -1331 
L 581 -1331 
L 581 3500 
L 1159 3500 
L 1159 2969 
Q 1341 3281 1617 3432 
Q 1894 3584 2278 3584 
Q 2916 3584 3314 3078 
Q 3713 2572 3713 1747 
Q 3713 922 3314 415 
Q 2916 -91 2278 -91 
Q 1894 -91 1617 61 
Q 1341 213 1159 525 
z
M 3116 1747 
Q 3116 2381 2855 2742 
Q 2594 3103 2138 3103 
Q 1681 3103 1420 2742 
Q 1159 2381 1159 1747 
Q 1159 1113 1420 752 
Q 1681 391 2138 391 
Q 2594 391 2855 752 
Q 3116 1113 3116 1747 
z
" transform="scale(0.015625)"/>
       <path id="DejaVuSans-29" d="M 513 4856 
L 1013 4856 
Q 1481 4119 1714 3412 
Q 1947 2706 1947 2009 
Q 1947 1309 1714 600 
Q 1481 -109 1013 -844 
L 513 -844 
Q 928 -128 1133 580 
Q 1338 1288 1338 2009 
Q 1338 2731 1133 3434 
Q 928 4138 513 4856 
z
" transform="scale(0.015625)"/>
      </defs>
      <use xlink:href="#DejaVuSans-53"/>
      <use xlink:href="#DejaVuSans-65" x="63.476562"/>
      <use xlink:href="#DejaVuSans-71" x="125"/>
      <use xlink:href="#DejaVuSans-75" x="188.476562"/>
      <use xlink:href="#DejaVuSans-65" x="251.855469"/>
      <use xlink:href="#DejaVuSans-6e" x="313.378906"/>
      <use xlink:href="#DejaVuSans-63" x="376.757812"/>
      <use xlink:href="#DejaVuSans-65" x="431.738281"/>
      <use xlink:href="#DejaVuSans-20" x="493.261719"/>
      <use xlink:href="#DejaVuSans-4c" x="525.048828"/>
      <use xlink:href="#DejaVuSans-65" x="579.011719"/>
      <use xlink:href="#DejaVuSans-6e" x="640.535156"/>
      <use xlink:href="#DejaVuSans-67" x="703.914062"/>
      <use xlink:href="#DejaVuSans-74" x="767.390625"/>
      <use xlink:href="#DejaVuSans-68" x="806.599609"/>
      <use xlink:href="#DejaVuSans-20" x="869.978516"/>
      <use xlink:href="#DejaVuSans-28" x="901.765625"/>
      <use xlink:href="#DejaVuSans-62" x="940.779297"/>
      <use xlink:href="#DejaVuSans-70" x="1004.255859"/>
      <use xlink:href="#DejaVuSans-29" x="1067.732422"/>
     </g>
    </g>
   </g>
   <g id="matplotlib.axis_2">
    <g id="ytick_1">
     <g id="line2d_1">
      <path d="M 32.968125 353.2239 
L 993.158125 353.2239 
" clip-path="url(#p0cb21b1a36)" style="fill: none; stroke: #dedede; stroke-linecap: square"/>
     </g>
     <g id="text_9">
      <!-- 0 -->
      <g transform="translate(20.878125 356.263275) scale(0.08 -0.08)">
       <use xlink:href="#DejaVuSans-30"/>
      </g>
     </g>
    </g>
    <g id="ytick_2">
     <g id="line2d_2">
      <path d="M 32.968125 289.504095 
L 993.158125 289.504095 
" clip-path="url(#p0cb21b1a36)" style="fill: none; stroke: #dedede; stroke-linecap: square"/>
     </g>
     <g id="text_10">
      <!-- 2 -->
      <g transform="translate(20.878125 292.54347) scale(0.08 -0.08)">
       <defs>
        <path id="DejaVuSans-32" d="M 1228 531 
L 3431 531 
L 3431 0 
L 469 0 
L 469 531 
Q 828 903 1448 1529 
Q 2069 2156 2228 2338 
Q 2531 2678 2651 2914 
Q 2772 3150 2772 3378 
Q 2772 3750 2511 3984 
Q 2250 4219 1831 4219 
Q 1534 4219 1204 4116 
Q 875 4013 500 3803 
L 500 4441 
Q 881 4594 1212 4672 
Q 1544 4750 1819 4750 
Q 2544 4750 2975 4387 
Q 3406 4025 3406 3419 
Q 3406 3131 3298 2873 
Q 3191 2616 2906 2266 
Q 2828 2175 2409 1742 
Q 1991 1309 1228 531 
z
" transform="scale(0.015625)"/>
       </defs>
       <use xlink:href="#DejaVuSans-32"/>
      </g>
     </g>
    </g>
    <g id="ytick_3">
     <g id="line2d_3">
      <path d="M 32.968125 225.78429 
L 993.158125 225.78429 
" clip-path="url(#p0cb21b1a36)" style="fill: none; stroke: #dedede; stroke-linecap: square"/>
     </g>
     <g id="text_11">
      <!-- 4 -->
      <g transform="translate(20.878125 228.823665) scale(0.08 -0.08)">
       <use xlink:href="#DejaVuSans-34"/>
      </g>
     </g>
    </g>
    <g id="ytick_4">
     <g id="line2d_4">
      <path d="M 32.968125 162.064485 
L 993.158125 162.064485 
" clip-path="url(#p0cb21b1a36)" style="fill: none; stroke: #dedede; stroke-linecap: square"/>
     </g>
     <g id="text_12">
      <!-- 6 -->
      <g transform="translate(20.878125 165.10386) scale(0.08 -0.08)">
       <use xlink:href="#DejaVuSans-36"/>
      </g>
     </g>
    </g>
    <g id="ytick_5">
     <g id="line2d_5">
      <path d="M 32.968125 98.34468 
L 993.158125 98.34468 
" clip-path="url(#p0cb21b1a36)" style="fill: none; stroke: #dedede; stroke-linecap: square"/>
     </g>
     <g id="text_13">
      <!-- 8 -->
      <g transform="translate(20.878125 101.384055) scale(0.08 -0.08)">
       <use xlink:href="#DejaVuSans-38"/>
      </g>
     </g>
    </g>
    <g id="text_14">
     <!-- Read Count -->
     <g transform="translate(14.798437 223.241463) rotate(-90) scale(0.1 -0.1)">
      <defs>
       <path id="DejaVuSans-52" d="M 2841 2188 
Q 3044 2119 3236 1894 
Q 3428 1669 3622 1275 
L 4263 0 
L 3584 0 
L 2988 1197 
Q 2756 1666 2539 1819 
Q 2322 1972 1947 1972 
L 1259 1972 
L 1259 0 
L 628 0 
L 628 4666 
L 2053 4666 
Q 2853 4666 3247 4331 
Q 3641 3997 3641 3322 
Q 3641 2881 3436 2590 
Q 3231 2300 2841 2188 
z
M 1259 4147 
L 1259 2491 
L 2053 2491 
Q 2509 2491 2742 2702 
Q 2975 2913 2975 3322 
Q 2975 3731 2742 3939 
Q 2509 4147 2053 4147 
L 1259 4147 
z
" transform="scale(0.015625)"/>
       <path id="DejaVuSans-61" d="M 2194 1759 
Q 1497 1759 1228 1600 
Q 959 1441 959 1056 
Q 959 750 1161 570 
Q 1363 391 1709 391 
Q 2188 391 2477 730 
Q 2766 1069 2766 1631 
L 2766 1759 
L 2194 1759 
z
M 3341 1997 
L 3341 0 
L 2766 0 
L 2766 531 
Q 2569 213 2275 61 
Q 1981 -91 1556 -91 
Q 1019 -91 701 211 
Q 384 513 384 1019 
Q 384 1609 779 1909 
Q 1175 2209 1959 2209 
L 2766 2209 
L 2766 2266 
Q 2766 2663 2505 2880 
Q 2244 3097 1772 3097 
Q 1472 3097 1187 3025 
Q 903 2953 641 2809 
L 641 3341 
Q 956 3463 1253 3523 
Q 1550 3584 1831 3584 
Q 2591 3584 2966 3190 
Q 3341 2797 3341 1997 
z
" transform="scale(0.015625)"/>
       <path id="DejaVuSans-64" d="M 2906 2969 
L 2906 4863 
L 3481 4863 
L 3481 0 
L 2906 0 
L 2906 525 
Q 2725 213 2448 61 
Q 2172 -91 1784 -91 
Q 1150 -91 751 415 
Q 353 922 353 1747 
Q 353 2572 751 3078 
Q 1150 3584 1784 3584 
Q 2172 3584 2448 3432 
Q 2725 3281 2906 2969 
z
M 947 1747 
Q 947 1113 1208 752 
Q 1469 391 1925 391 
Q 2381 391 2643 752 
Q 2906 1113 2906 1747 
Q 2906 2381 2643 2742 
Q 2381 3103 1925 3103 
Q 1469 3103 1208 2742 
Q 947 2381 947 1747 
z
" transform="scale(0.015625)"/>
       <path id="DejaVuSans-43" d="M 4122 4306 
L 4122 3641 
Q 3803 3938 3442 4084 
Q 3081 4231 2675 4231 
Q 1875 4231 1450 3742 
Q 1025 3253 1025 2328 
Q 1025 1406 1450 917 
Q 1875 428 2675 428 
Q 3081 428 3442 575 
Q 3803 722 4122 1019 
L 4122 359 
Q 3791 134 3420 21 
Q 3050 -91 2638 -91 
Q 1578 -91 968 557 
Q 359 1206 359 2328 
Q 359 3453 968 4101 
Q 1578 4750 2638 4750 
Q 3056 4750 3426 4639 
Q 3797 4528 4122 4306 
z
" transform="scale(0.015625)"/>
       <path id="DejaVuSans-6f" d="M 1959 3097 
Q 1497 3097 1228 2736 
Q 959 2375 959 1747 
Q 959 1119 1226 758 
Q 1494 397 1959 397 
Q 2419 397 2687 759 
Q 2956 1122 2956 1747 
Q 2956 2369 2687 2733 
Q 2419 3097 1959 3097 
z
M 1959 3584 
Q 2709 3584 3137 3096 
Q 3566 2609 3566 1747 
Q 3566 888 3137 398 
Q 2709 -91 1959 -91 
Q 1206 -91 779 398 
Q 353 888 353 1747 
Q 353 2609 779 3096 
Q 1206 3584 1959 3584 
z
" transform="scale(0.015625)"/>
      </defs>
      <use xlink:href="#DejaVuSans-52"/>
      <use xlink:href="#DejaVuSans-65" x="64.982422"/>
      <use xlink:href="#DejaVuSans-61" x="126.505859"/>
      <use xlink:href="#DejaVuSans-64" x="187.785156"/>
      <use xlink:href="#DejaVuSans-20" x="251.261719"/>
      <use xlink:href="#DejaVuSans-43" x="283.048828"/>
      <use xlink:href="#DejaVuSans-6f" x="352.873047"/>
      <use xlink:href="#DejaVuSans-75" x="414.054688"/>
      <use xlink:href="#DejaVuSans-6e" x="477.433594"/>
      <use xlink:href="#DejaVuSans-74" x="540.8125"/>
     </g>
    </g>
    <g id="text_15">
     <!-- 1e7 -->
     <g transform="translate(32.968125 32.2559) scale(0.1 -0.1)">
      <use xlink:href="#DejaVuSans-31"/>
      <use xlink:href="#DejaVuSans-65" x="63.623047"/>
      <use xlink:href="#DejaVuSans-37" x="125.146484"/>
     </g>
    </g>
   </g>
   <g id="line2d_6">
    <path d="M 76.613125 350.110474 
L 103.06464 353.21208 
L 129.516155 353.208215 
L 155.96767 353.201423 
L 182.419186 353.194238 
L 208.870701 353.182973 
L 235.322216 353.177263 
L 261.773731 353.162914 
L 288.225246 353.145432 
L 314.676761 353.126182 
L 341.128277 353.104865 
L 367.579792 353.081387 
L 394.031307 353.052602 
L 420.482822 353.014052 
L 446.934337 352.962142 
L 473.385852 352.89897 
L 499.837367 352.835225 
L 526.288883 352.775947 
L 552.740398 352.690849 
L 579.191913 352.582302 
L 605.643428 352.430764 
L 632.094943 352.271983 
L 658.546458 352.143053 
L 684.997973 351.978716 
L 711.449489 351.76175 
L 737.901004 351.479943 
L 764.352519 351.141327 
L 790.804034 350.888028 
L 817.255549 350.635579 
L 843.707064 350.317022 
L 870.15858 349.732727 
L 896.610095 347.483494 
L 923.06161 317.505795 
L 949.513125 86.211279 
" clip-path="url(#p0cb21b1a36)" style="fill: none; stroke: #f0ad4e; stroke-linecap: square"/>
   </g>
   <g id="line2d_7">
    <path d="M 76.613125 351.307989 
L 103.06464 353.207349 
L 129.516155 353.201678 
L 155.96767 353.192935 
L 182.419186 353.181077 
L 208.870701 353.166374 
L 235.322216 353.157721 
L 261.773731 353.141816 
L 288.225246 353.118284 
L 314.676761 353.09207 
L 341.128277 353.067261 
L 367.579792 353.039973 
L 394.031307 353.011312 
L 420.482822 352.962212 
L 446.934337 352.913683 
L 473.385852 352.842779 
L 499.837367 352.779935 
L 526.288883 352.720377 
L 552.740398 352.644757 
L 579.191913 352.550334 
L 605.643428 352.408701 
L 632.094943 352.255716 
L 658.546458 352.140603 
L 684.997973 352.010092 
L 711.449489 351.832498 
L 737.901004 351.582162 
L 764.352519 351.275148 
L 790.804034 351.051144 
L 817.255549 350.836526 
L 843.707064 350.596111 
L 870.15858 350.065249 
L 896.610095 347.851056 
L 923.06161 317.959961 
L 949.513125 87.170246 
" clip-path="url(#p0cb21b1a36)" style="fill: none; stroke: #f0ad4e; stroke-linecap: square"/>
   </g>
   <g id="line2d_8">
    <path d="M 76.613125 350.866888 
L 103.06464 353.210876 
L 129.516155 353.206224 
L 155.96767 353.199658 
L 182.419186 353.192018 
L 208.870701 353.18331 
L 235.322216 353.177904 
L 261.773731 353.16697 
L 288.225246 353.151151 
L 314.676761 353.132746 
L 341.128277 353.116494 
L 367.579792 353.101395 
L 394.031307 353.076972 
L 420.482822 353.044411 
L 446.934337 353.006367 
L 473.385852 352.957252 
L 499.837367 352.920508 
L 526.288883 352.876844 
L 552.740398 352.810693 
L 579.191913 352.731435 
L 605.643428 352.629996 
L 632.094943 352.524492 
L 658.546458 352.429594 
L 684.997973 352.306679 
L 711.449489 352.139902 
L 737.901004 351.939745 
L 764.352519 351.714674 
L 790.804034 351.526682 
L 817.255549 351.311436 
L 843.707064 351.060122 
L 870.15858 350.603834 
L 896.610095 348.618988 
L 923.06161 321.19434 
L 949.513125 106.109429 
" clip-path="url(#p0cb21b1a36)" style="fill: none; stroke: #f0ad4e; stroke-linecap: square"/>
   </g>
   <g id="line2d_9">
    <path d="M 76.613125 348.605489 
L 103.06464 353.210497 
L 129.516155 353.205039 
L 155.96767 353.198957 
L 182.419186 353.188262 
L 208.870701 353.175897 
L 235.322216 353.167645 
L 261.773731 353.15218 
L 288.225246 353.130194 
L 314.676761 353.106174 
L 341.128277 353.073853 
L 367.579792 353.04414 
L 394.031307 353.009712 
L 420.482822 352.955758 
L 446.934337 352.891088 
L 473.385852 352.803779 
L 499.837367 352.724588 
L 526.288883 352.649262 
L 552.740398 352.547457 
L 579.191913 352.403692 
L 605.643428 352.21216 
L 632.094943 352.002624 
L 658.546458 351.846587 
L 684.997973 351.658945 
L 711.449489 351.392105 
L 737.901004 351.043504 
L 764.352519 350.62425 
L 790.804034 350.326478 
L 817.255549 350.077183 
L 843.707064 349.740877 
L 870.15858 349.083556 
L 896.610095 346.721472 
L 923.06161 316.045503 
L 949.513125 76.955688 
" clip-path="url(#p0cb21b1a36)" style="fill: none; stroke: #f0ad4e; stroke-linecap: square"/>
   </g>
   <g id="line2d_10">
    <path d="M 76.613125 351.6512 
L 103.06464 353.217898 
L 129.516155 353.216002 
L 155.96767 353.212255 
L 182.419186 353.2084 
L 208.870701 353.203283 
L 235.322216 353.200037 
L 261.773731 353.193289 
L 288.225246 353.183266 
L 314.676761 353.172529 
L 341.128277 353.161388 
L 367.579792 353.148937 
L 394.031307 353.132405 
L 420.482822 353.110058 
L 446.934337 353.081129 
L 473.385852 353.044344 
L 499.837367 353.010311 
L 526.288883 352.972678 
L 552.740398 352.918867 
L 579.191913 352.854692 
L 605.643428 352.766761 
L 632.094943 352.662309 
L 658.546458 352.574627 
L 684.997973 352.464038 
L 711.449489 352.320589 
L 737.901004 352.133594 
L 764.352519 351.898531 
L 790.804034 351.704527 
L 817.255549 351.516866 
L 843.707064 351.288303 
L 870.15858 350.825041 
L 896.610095 348.791092 
L 923.06161 320.638726 
L 949.513125 98.671212 
" clip-path="url(#p0cb21b1a36)" style="fill: none; stroke: #f0ad4e; stroke-linecap: square"/>
   </g>
   <g id="line2d_11">
    <path d="M 76.613125 349.966639 
L 103.06464 353.213816 
L 129.516155 353.21042 
L 155.96767 353.204857 
L 182.419186 353.19738 
L 208.870701 353.18829 
L 235.322216 353.183272 
L 261.773731 353.171197 
L 288.225246 353.155143 
L 314.676761 353.137862 
L 341.128277 353.119479 
L 367.579792 353.098028 
L 394.031307 353.074213 
L 420.482822 353.036506 
L 446.934337 352.993613 
L 473.385852 352.940481 
L 499.837367 352.885475 
L 526.288883 352.826403 
L 552.740398 352.751054 
L 579.191913 352.661805 
L 605.643428 352.529227 
L 632.094943 352.377609 
L 658.546458 352.245881 
L 684.997973 352.088235 
L 711.449489 351.888588 
L 737.901004 351.627579 
L 764.352519 351.311318 
L 790.804034 351.032939 
L 817.255549 350.736378 
L 843.707064 350.435215 
L 870.15858 349.867188 
L 896.610095 347.426414 
L 923.06161 313.720871 
L 949.513125 50.397031 
" clip-path="url(#p0cb21b1a36)" style="fill: none; stroke: #f0ad4e; stroke-linecap: square"/>
   </g>
   <g id="line2d_12">
    <path d="M 76.613125 352.600953 
L 103.06464 353.21965 
L 129.516155 353.218411 
L 155.96767 353.216117 
L 182.419186 353.213224 
L 208.870701 353.20984 
L 235.322216 353.207218 
L 261.773731 353.202312 
L 288.225246 353.195602 
L 314.676761 353.187729 
L 341.128277 353.178876 
L 367.579792 353.169432 
L 394.031307 353.157711 
L 420.482822 353.14014 
L 446.934337 353.11895 
L 473.385852 353.090391 
L 499.837367 353.061912 
L 526.288883 353.032237 
L 552.740398 352.992721 
L 579.191913 352.940035 
L 605.643428 352.868175 
L 632.094943 352.79152 
L 658.546458 352.722145 
L 684.997973 352.634227 
L 711.449489 352.52513 
L 737.901004 352.376847 
L 764.352519 352.201465 
L 790.804034 352.048808 
L 817.255549 351.886052 
L 843.707064 351.691767 
L 870.15858 351.306084 
L 896.610095 349.518256 
L 923.06161 324.45472 
L 949.513125 130.743442 
" clip-path="url(#p0cb21b1a36)" style="fill: none; stroke: #f0ad4e; stroke-linecap: square"/>
   </g>
   <g id="line2d_13">
    <path d="M 76.613125 348.647687 
L 103.06464 353.213323 
L 129.516155 353.210328 
L 155.96767 353.203602 
L 182.419186 353.196711 
L 208.870701 353.185573 
L 235.322216 353.181463 
L 261.773731 353.169474 
L 288.225246 353.152534 
L 314.676761 353.133797 
L 341.128277 353.109577 
L 367.579792 353.08846 
L 394.031307 353.062055 
L 420.482822 353.021628 
L 446.934337 352.97294 
L 473.385852 352.904352 
L 499.837367 352.842582 
L 526.288883 352.784976 
L 552.740398 352.701748 
L 579.191913 352.588378 
L 605.643428 352.437406 
L 632.094943 352.263547 
L 658.546458 352.129608 
L 684.997973 351.966281 
L 711.449489 351.74648 
L 737.901004 351.459935 
L 764.352519 351.089503 
L 790.804034 350.828794 
L 817.255549 350.585107 
L 843.707064 350.287542 
L 870.15858 349.72328 
L 896.610095 347.517218 
L 923.06161 318.513094 
L 949.513125 89.828583 
" clip-path="url(#p0cb21b1a36)" style="fill: none; stroke: #f0ad4e; stroke-linecap: square"/>
   </g>
   <g id="line2d_14">
    <path d="M 76.613125 350.294637 
L 103.06464 353.212386 
L 129.516155 353.208747 
L 155.96767 353.20271 
L 182.419186 353.194806 
L 208.870701 353.183591 
L 235.322216 353.178834 
L 261.773731 353.167014 
L 288.225246 353.149227 
L 314.676761 353.12927 
L 341.128277 353.103954 
L 367.579792 353.081362 
L 394.031307 353.055027 
L 420.482822 353.017266 
L 446.934337 352.96681 
L 473.385852 352.898464 
L 499.837367 352.831807 
L 526.288883 352.785412 
L 552.740398 352.713253 
L 579.191913 352.605047 
L 605.643428 352.453387 
L 632.094943 352.283106 
L 658.546458 352.169659 
L 684.997973 352.042143 
L 711.449489 351.84472 
L 737.901004 351.566092 
L 764.352519 351.208576 
L 790.804034 350.963077 
L 817.255549 350.773686 
L 843.707064 350.523002 
L 870.15858 349.968771 
L 896.610095 347.70076 
L 923.06161 318.385922 
L 949.513125 87.956049 
" clip-path="url(#p0cb21b1a36)" style="fill: none; stroke: #f0ad4e; stroke-linecap: square"/>
   </g>
   <g id="line2d_15">
    <path d="M 76.613125 349.002348 
L 103.06464 353.2159 
L 129.516155 353.212962 
L 155.96767 353.209158 
L 182.419186 353.204198 
L 208.870701 353.197106 
L 235.322216 353.192588 
L 261.773731 353.185037 
L 288.225246 353.172845 
L 314.676761 353.160725 
L 341.128277 353.144276 
L 367.579792 353.128247 
L 394.031307 353.108465 
L 420.482822 353.077593 
L 446.934337 353.04458 
L 473.385852 352.99723 
L 499.837367 352.951721 
L 526.288883 352.898811 
L 552.740398 352.838727 
L 579.191913 352.753801 
L 605.643428 352.639644 
L 632.094943 352.50271 
L 658.546458 352.387616 
L 684.997973 352.244055 
L 711.449489 352.060351 
L 737.901004 351.835688 
L 764.352519 351.526086 
L 790.804034 351.265204 
L 817.255549 351.012093 
L 843.707064 350.731825 
L 870.15858 350.169743 
L 896.610095 347.735911 
L 923.06161 313.82201 
L 949.513125 53.405517 
" clip-path="url(#p0cb21b1a36)" style="fill: none; stroke: #f0ad4e; stroke-linecap: square"/>
   </g>
   <g id="line2d_16">
    <path d="M 76.613125 350.866933 
L 103.06464 353.217123 
L 129.516155 353.215145 
L 155.96767 353.211385 
L 182.419186 353.20724 
L 208.870701 353.199954 
L 235.322216 353.196357 
L 261.773731 353.189265 
L 288.225246 353.177678 
L 314.676761 353.165749 
L 341.128277 353.149787 
L 367.579792 353.136018 
L 394.031307 353.113939 
L 420.482822 353.087954 
L 446.934337 353.053411 
L 473.385852 353.004054 
L 499.837367 352.957449 
L 526.288883 352.910832 
L 552.740398 352.847052 
L 579.191913 352.764369 
L 605.643428 352.644518 
L 632.094943 352.498297 
L 658.546458 352.383187 
L 684.997973 352.252316 
L 711.449489 352.059943 
L 737.901004 351.819044 
L 764.352519 351.514517 
L 790.804034 351.275731 
L 817.255549 351.054014 
L 843.707064 350.793939 
L 870.15858 350.286866 
L 896.610095 348.262765 
L 923.06161 320.812793 
L 949.513125 105.882141 
" clip-path="url(#p0cb21b1a36)" style="fill: none; stroke: #f0ad4e; stroke-linecap: square"/>
   </g>
   <g id="line2d_17">
    <path d="M 76.613125 348.671623 
L 103.06464 353.156332 
L 129.516155 353.133252 
L 155.96767 353.074273 
L 182.419186 352.988857 
L 208.870701 353.00132 
L 235.322216 353.091184 
L 261.773731 353.057155 
L 288.225246 352.971127 
L 314.676761 352.893038 
L 341.128277 352.892512 
L 367.579792 352.965296 
L 394.031307 352.929776 
L 420.482822 352.813194 
L 446.934337 352.714087 
L 473.385852 352.68166 
L 499.837367 352.732442 
L 526.288883 352.69422 
L 552.740398 352.539304 
L 579.191913 352.396091 
L 605.643428 352.310859 
L 632.094943 352.292625 
L 658.546458 352.223579 
L 684.997973 352.009875 
L 711.449489 351.778814 
L 737.901004 351.602817 
L 764.352519 351.455456 
L 790.804034 351.311239 
L 817.255549 351.045811 
L 843.707064 350.747286 
L 870.15858 350.335418 
L 896.610095 348.660217 
L 923.06161 323.651685 
L 949.513125 122.234293 
" clip-path="url(#p0cb21b1a36)" style="fill: none; stroke: #f0ad4e; stroke-linecap: square"/>
   </g>
   <g id="line2d_18">
    <path d="M 76.613125 344.430806 
L 103.06464 353.198504 
L 129.516155 353.190813 
L 155.96767 353.179118 
L 182.419186 353.164816 
L 208.870701 353.14641 
L 235.322216 353.136951 
L 261.773731 353.113649 
L 288.225246 353.083997 
L 314.676761 353.055138 
L 341.128277 353.021784 
L 367.579792 352.98575 
L 394.031307 352.941988 
L 420.482822 352.881279 
L 446.934337 352.814625 
L 473.385852 352.726678 
L 499.837367 352.640663 
L 526.288883 352.558165 
L 552.740398 352.442214 
L 579.191913 352.306841 
L 605.643428 352.109167 
L 632.094943 351.903861 
L 658.546458 351.726975 
L 684.997973 351.524247 
L 711.449489 351.273653 
L 737.901004 350.936923 
L 764.352519 350.537986 
L 790.804034 350.229945 
L 817.255549 349.95559 
L 843.707064 349.63861 
L 870.15858 349.062634 
L 896.610095 346.833504 
L 923.06161 318.185405 
L 949.513125 92.429953 
" clip-path="url(#p0cb21b1a36)" style="fill: none; stroke: #f0ad4e; stroke-linecap: square"/>
   </g>
   <g id="line2d_19">
    <path d="M 76.613125 346.794702 
L 103.06464 353.212504 
L 129.516155 353.209031 
L 155.96767 353.203213 
L 182.419186 353.19607 
L 208.870701 353.185171 
L 235.322216 353.180023 
L 261.773731 353.167725 
L 288.225246 353.148924 
L 314.676761 353.130582 
L 341.128277 353.107876 
L 367.579792 353.082735 
L 394.031307 353.052261 
L 420.482822 353.011468 
L 446.934337 352.963662 
L 473.385852 352.895023 
L 499.837367 352.830443 
L 526.288883 352.763155 
L 552.740398 352.674912 
L 579.191913 352.557633 
L 605.643428 352.404721 
L 632.094943 352.241627 
L 658.546458 352.10736 
L 684.997973 351.936158 
L 711.449489 351.711246 
L 737.901004 351.439953 
L 764.352519 351.091134 
L 790.804034 350.83831 
L 817.255549 350.599482 
L 843.707064 350.306932 
L 870.15858 349.761321 
L 896.610095 347.621021 
L 923.06161 319.314963 
L 949.513125 98.447352 
" clip-path="url(#p0cb21b1a36)" style="fill: none; stroke: #f0ad4e; stroke-linecap: square"/>
   </g>
   <g id="line2d_20">
    <path d="M 76.613125 348.329381 
L 103.06464 353.206775 
L 129.516155 353.200996 
L 155.96767 353.19133 
L 182.419186 353.178347 
L 208.870701 353.162165 
L 235.322216 353.15298 
L 261.773731 353.133351 
L 288.225246 353.106238 
L 314.676761 353.075274 
L 341.128277 353.041776 
L 367.579792 353.010407 
L 394.031307 352.970639 
L 420.482822 352.913578 
L 446.934337 352.847708 
L 473.385852 352.757136 
L 499.837367 352.68355 
L 526.288883 352.612684 
L 552.740398 352.51684 
L 579.191913 352.385019 
L 605.643428 352.206849 
L 632.094943 352.007556 
L 658.546458 351.87247 
L 684.997973 351.700085 
L 711.449489 351.477375 
L 737.901004 351.168503 
L 764.352519 350.778328 
L 790.804034 350.497989 
L 817.255549 350.254554 
L 843.707064 349.961242 
L 870.15858 349.366316 
L 896.610095 346.970575 
L 923.06161 315.890355 
L 949.513125 68.306632 
" clip-path="url(#p0cb21b1a36)" style="fill: none; stroke: #f0ad4e; stroke-linecap: square"/>
   </g>
   <g id="line2d_21">
    <path d="M 76.613125 352.43784 
L 103.06464 353.218544 
L 129.516155 353.216528 
L 155.96767 353.213679 
L 182.419186 353.210283 
L 208.870701 353.206135 
L 235.322216 353.203261 
L 261.773731 353.197616 
L 288.225246 353.190275 
L 314.676761 353.182278 
L 341.128277 353.172144 
L 367.579792 353.1625 
L 394.031307 353.15002 
L 420.482822 353.132258 
L 446.934337 353.110584 
L 473.385852 353.081703 
L 499.837367 353.052309 
L 526.288883 353.0223 
L 552.740398 352.98136 
L 579.191913 352.929221 
L 605.643428 352.853427 
L 632.094943 352.77148 
L 658.546458 352.698804 
L 684.997973 352.60599 
L 711.449489 352.485244 
L 737.901004 352.331456 
L 764.352519 352.132641 
L 790.804034 351.961005 
L 817.255549 351.780959 
L 843.707064 351.584313 
L 870.15858 351.176325 
L 896.610095 349.375644 
L 923.06161 323.724259 
L 949.513125 125.179365 
" clip-path="url(#p0cb21b1a36)" style="fill: none; stroke: #f0ad4e; stroke-linecap: square"/>
   </g>
   <g id="line2d_22">
    <path d="M 76.613125 329.814811 
L 103.06464 353.203535 
L 129.516155 353.201171 
L 155.96767 353.190584 
L 182.419186 353.180962 
L 208.870701 353.151393 
L 235.322216 353.160107 
L 261.773731 353.14123 
L 288.225246 353.117893 
L 314.676761 353.090569 
L 341.128277 353.057311 
L 367.579792 353.024553 
L 394.031307 352.986133 
L 420.482822 352.927358 
L 446.934337 352.863488 
L 473.385852 352.779002 
L 499.837367 352.682154 
L 526.288883 352.609316 
L 552.740398 352.483447 
L 579.191913 352.346937 
L 605.643428 352.142562 
L 632.094943 351.920018 
L 658.546458 351.730754 
L 684.997973 351.518016 
L 711.449489 351.231343 
L 737.901004 350.894078 
L 764.352519 350.448992 
L 790.804034 350.097386 
L 817.255549 349.834035 
L 843.707064 349.485574 
L 870.15858 348.861591 
L 896.610095 346.687828 
L 923.06161 316.939935 
L 949.513125 66.368486 
" clip-path="url(#p0cb21b1a36)" style="fill: none; stroke: #f0ad4e; stroke-linecap: square"/>
   </g>
   <g id="line2d_23">
    <path d="M 76.613125 351.343016 
L 103.06464 353.213804 
L 129.516155 353.210003 
L 155.96767 353.205198 
L 182.419186 353.199441 
L 208.870701 353.193308 
L 235.322216 353.189004 
L 261.773731 353.180787 
L 288.225246 353.169228 
L 314.676761 353.159368 
L 341.128277 353.148064 
L 367.579792 353.137085 
L 394.031307 353.125227 
L 420.482822 353.108822 
L 446.934337 353.084118 
L 473.385852 353.057837 
L 499.837367 353.033604 
L 526.288883 353.01055 
L 552.740398 352.976626 
L 579.191913 352.931474 
L 605.643428 352.868044 
L 632.094943 352.797579 
L 658.546458 352.747601 
L 684.997973 352.676795 
L 711.449489 352.57933 
L 737.901004 352.453027 
L 764.352519 352.300036 
L 790.804034 352.179211 
L 817.255549 352.040521 
L 843.707064 351.890388 
L 870.15858 351.543316 
L 896.610095 349.895936 
L 923.06161 326.411371 
L 949.513125 137.822875 
" clip-path="url(#p0cb21b1a36)" style="fill: none; stroke: #f0ad4e; stroke-linecap: square"/>
   </g>
   <g id="line2d_24">
    <path d="M 32.968125 353.2239 
L 993.158125 353.2239 
" clip-path="url(#p0cb21b1a36)" style="fill: none; stroke: #dedede; stroke-width: 2; stroke-linecap: square"/>
   </g>
   <g id="text_16">
    <!-- FastQC: Sequence Length Distribution -->
    <g transform="translate(361.050625 19.3575) scale(0.16 -0.16)">
     <defs>
      <path id="DejaVuSans-46" d="M 628 4666 
L 3309 4666 
L 3309 4134 
L 1259 4134 
L 1259 2759 
L 3109 2759 
L 3109 2228 
L 1259 2228 
L 1259 0 
L 628 0 
L 628 4666 
z
" transform="scale(0.015625)"/>
      <path id="DejaVuSans-73" d="M 2834 3397 
L 2834 2853 
Q 2591 2978 2328 3040 
Q 2066 3103 1784 3103 
Q 1356 3103 1142 2972 
Q 928 2841 928 2578 
Q 928 2378 1081 2264 
Q 1234 2150 1697 2047 
L 1894 2003 
Q 2506 1872 2764 1633 
Q 3022 1394 3022 966 
Q 3022 478 2636 193 
Q 2250 -91 1575 -91 
Q 1294 -91 989 -36 
Q 684 19 347 128 
L 347 722 
Q 666 556 975 473 
Q 1284 391 1588 391 
Q 1994 391 2212 530 
Q 2431 669 2431 922 
Q 2431 1156 2273 1281 
Q 2116 1406 1581 1522 
L 1381 1569 
Q 847 1681 609 1914 
Q 372 2147 372 2553 
Q 372 3047 722 3315 
Q 1072 3584 1716 3584 
Q 2034 3584 2315 3537 
Q 2597 3491 2834 3397 
z
" transform="scale(0.015625)"/>
      <path id="DejaVuSans-51" d="M 2522 4238 
Q 1834 4238 1429 3725 
Q 1025 3213 1025 2328 
Q 1025 1447 1429 934 
Q 1834 422 2522 422 
Q 3209 422 3611 934 
Q 4013 1447 4013 2328 
Q 4013 3213 3611 3725 
Q 3209 4238 2522 4238 
z
M 3406 84 
L 4238 -825 
L 3475 -825 
L 2784 -78 
Q 2681 -84 2626 -87 
Q 2572 -91 2522 -91 
Q 1538 -91 948 567 
Q 359 1225 359 2328 
Q 359 3434 948 4092 
Q 1538 4750 2522 4750 
Q 3503 4750 4090 4092 
Q 4678 3434 4678 2328 
Q 4678 1516 4351 937 
Q 4025 359 3406 84 
z
" transform="scale(0.015625)"/>
      <path id="DejaVuSans-3a" d="M 750 794 
L 1409 794 
L 1409 0 
L 750 0 
L 750 794 
z
M 750 3309 
L 1409 3309 
L 1409 2516 
L 750 2516 
L 750 3309 
z
" transform="scale(0.015625)"/>
      <path id="DejaVuSans-44" d="M 1259 4147 
L 1259 519 
L 2022 519 
Q 2988 519 3436 956 
Q 3884 1394 3884 2338 
Q 3884 3275 3436 3711 
Q 2988 4147 2022 4147 
L 1259 4147 
z
M 628 4666 
L 1925 4666 
Q 3281 4666 3915 4102 
Q 4550 3538 4550 2338 
Q 4550 1131 3912 565 
Q 3275 0 1925 0 
L 628 0 
L 628 4666 
z
" transform="scale(0.015625)"/>
      <path id="DejaVuSans-69" d="M 603 3500 
L 1178 3500 
L 1178 0 
L 603 0 
L 603 3500 
z
M 603 4863 
L 1178 4863 
L 1178 4134 
L 603 4134 
L 603 4863 
z
" transform="scale(0.015625)"/>
      <path id="DejaVuSans-72" d="M 2631 2963 
Q 2534 3019 2420 3045 
Q 2306 3072 2169 3072 
Q 1681 3072 1420 2755 
Q 1159 2438 1159 1844 
L 1159 0 
L 581 0 
L 581 3500 
L 1159 3500 
L 1159 2956 
Q 1341 3275 1631 3429 
Q 1922 3584 2338 3584 
Q 2397 3584 2469 3576 
Q 2541 3569 2628 3553 
L 2631 2963 
z
" transform="scale(0.015625)"/>
     </defs>
     <use xlink:href="#DejaVuSans-46"/>
     <use xlink:href="#DejaVuSans-61" x="48.394531"/>
     <use xlink:href="#DejaVuSans-73" x="109.673828"/>
     <use xlink:href="#DejaVuSans-74" x="161.773438"/>
     <use xlink:href="#DejaVuSans-51" x="200.982422"/>
     <use xlink:href="#DejaVuSans-43" x="279.693359"/>
     <use xlink:href="#DejaVuSans-3a" x="349.517578"/>
     <use xlink:href="#DejaVuSans-20" x="383.208984"/>
     <use xlink:href="#DejaVuSans-53" x="414.996094"/>
     <use xlink:href="#DejaVuSans-65" x="478.472656"/>
     <use xlink:href="#DejaVuSans-71" x="539.996094"/>
     <use xlink:href="#DejaVuSans-75" x="603.472656"/>
     <use xlink:href="#DejaVuSans-65" x="666.851562"/>
     <use xlink:href="#DejaVuSans-6e" x="728.375"/>
     <use xlink:href="#DejaVuSans-63" x="791.753906"/>
     <use xlink:href="#DejaVuSans-65" x="846.734375"/>
     <use xlink:href="#DejaVuSans-20" x="908.257812"/>
     <use xlink:href="#DejaVuSans-4c" x="940.044922"/>
     <use xlink:href="#DejaVuSans-65" x="994.007812"/>
     <use xlink:href="#DejaVuSans-6e" x="1055.53125"/>
     <use xlink:href="#DejaVuSans-67" x="1118.910156"/>
     <use xlink:href="#DejaVuSans-74" x="1182.386719"/>
     <use xlink:href="#DejaVuSans-68" x="1221.595703"/>
     <use xlink:href="#DejaVuSans-20" x="1284.974609"/>
     <use xlink:href="#DejaVuSans-44" x="1316.761719"/>
     <use xlink:href="#DejaVuSans-69" x="1393.763672"/>
     <use xlink:href="#DejaVuSans-73" x="1421.546875"/>
     <use xlink:href="#DejaVuSans-74" x="1473.646484"/>
     <use xlink:href="#DejaVuSans-72" x="1512.855469"/>
     <use xlink:href="#DejaVuSans-69" x="1553.96875"/>
     <use xlink:href="#DejaVuSans-62" x="1581.751953"/>
     <use xlink:href="#DejaVuSans-75" x="1645.228516"/>
     <use xlink:href="#DejaVuSans-74" x="1708.607422"/>
     <use xlink:href="#DejaVuSans-69" x="1747.816406"/>
     <use xlink:href="#DejaVuSans-6f" x="1775.599609"/>
     <use xlink:href="#DejaVuSans-6e" x="1836.78125"/>
    </g>
   </g>
  </g>
 </g>
 <defs>
  <clipPath id="p0cb21b1a36">
   <rect x="32.968125" y="35.2559" width="960.19" height="317.968"/>
  </clipPath>
 </defs>
</svg>
