<?xml version="1.0" encoding="utf-8" standalone="no"?>
<!DOCTYPE svg PUBLIC "-//W3C//DTD SVG 1.1//EN"
  "http://www.w3.org/Graphics/SVG/1.1/DTD/svg11.dtd">
<svg xmlns:xlink="http://www.w3.org/1999/xlink" width="1000.358125pt" height="388.844525pt" viewBox="0 0 1000.358125 388.844525" xmlns="http://www.w3.org/2000/svg" version="1.1">
 <metadata>
  <rdf:RDF xmlns:dc="http://purl.org/dc/elements/1.1/" xmlns:cc="http://creativecommons.org/ns#" xmlns:rdf="http://www.w3.org/1999/02/22-rdf-syntax-ns#">
   <cc:Work>
    <dc:type rdf:resource="http://purl.org/dc/dcmitype/StillImage"/>
    <dc:date>2025-03-11T15:51:13.808937</dc:date>
    <dc:format>image/svg+xml</dc:format>
    <dc:creator>
     <cc:Agent>
      <dc:title>Matplotlib v3.8.2, https://matplotlib.org/</dc:title>
     </cc:Agent>
    </dc:creator>
   </cc:Work>
  </rdf:RDF>
 </metadata>
 <defs>
  <style type="text/css">*{stroke-linejoin: round; stroke-linecap: butt}</style>
 </defs>
 <g id="figure_1">
  <g id="axes_1">
   <g id="patch_1">
    <path d="M 32.968125 353.2239 
L 993.158125 353.2239 
L 993.158125 35.2559 
L 32.968125 35.2559 
z
" style="fill: #ffffff"/>
   </g>
   <g id="patch_2">
    <path d="M 32.968125 -622.726499 
L 993.158125 -622.726499 
L 993.158125 -4526.528094 
L 32.968125 -4526.528094 
z
" clip-path="url(#p4c7b0859b8)" style="fill: #e6c3c3"/>
   </g>
   <g id="patch_3">
    <path d="M 32.968125 109.2363 
L 993.158125 109.2363 
L 993.158125 -622.726499 
L 32.968125 -622.726499 
z
" clip-path="url(#p4c7b0859b8)" style="fill: #e6dcc3"/>
   </g>
   <g id="patch_4">
    <path d="M 32.968125 353.2239 
L 993.158125 353.2239 
L 993.158125 109.2363 
L 32.968125 109.2363 
z
" clip-path="url(#p4c7b0859b8)" style="fill: #c3e6c3"/>
   </g>
   <g id="matplotlib.axis_1">
    <g id="xtick_1">
     <g id="text_1">
      <!-- 0 -->
      <g transform="translate(30.423125 366.30265) scale(0.08 -0.08)">
       <defs>
        <path id="DejaVuSans-30" d="M 2034 4250 
Q 1547 4250 1301 3770 
Q 1056 3291 1056 2328 
Q 1056 1369 1301 889 
Q 1547 409 2034 409 
Q 2525 409 2770 889 
Q 3016 1369 3016 2328 
Q 3016 3291 2770 3770 
Q 2525 4250 2034 4250 
z
M 2034 4750 
Q 2819 4750 3233 4129 
Q 3647 3509 3647 2328 
Q 3647 1150 3233 529 
Q 2819 -91 2034 -91 
Q 1250 -91 836 529 
Q 422 1150 422 2328 
Q 422 3509 836 4129 
Q 1250 4750 2034 4750 
z
" transform="scale(0.015625)"/>
       </defs>
       <use xlink:href="#DejaVuSans-30"/>
      </g>
     </g>
    </g>
    <g id="xtick_2">
     <g id="text_2">
      <!-- 20 -->
      <g transform="translate(210.858592 366.30265) scale(0.08 -0.08)">
       <defs>
        <path id="DejaVuSans-32" d="M 1228 531 
L 3431 531 
L 3431 0 
L 469 0 
L 469 531 
Q 828 903 1448 1529 
Q 2069 2156 2228 2338 
Q 2531 2678 2651 2914 
Q 2772 3150 2772 3378 
Q 2772 3750 2511 3984 
Q 2250 4219 1831 4219 
Q 1534 4219 1204 4116 
Q 875 4013 500 3803 
L 500 4441 
Q 881 4594 1212 4672 
Q 1544 4750 1819 4750 
Q 2544 4750 2975 4387 
Q 3406 4025 3406 3419 
Q 3406 3131 3298 2873 
Q 3191 2616 2906 2266 
Q 2828 2175 2409 1742 
Q 1991 1309 1228 531 
z
" transform="scale(0.015625)"/>
       </defs>
       <use xlink:href="#DejaVuSans-32"/>
       <use xlink:href="#DejaVuSans-30" x="63.623047"/>
      </g>
     </g>
    </g>
    <g id="xtick_3">
     <g id="text_3">
      <!-- 40 -->
      <g transform="translate(393.839059 366.30265) scale(0.08 -0.08)">
       <defs>
        <path id="DejaVuSans-34" d="M 2419 4116 
L 825 1625 
L 2419 1625 
L 2419 4116 
z
M 2253 4666 
L 3047 4666 
L 3047 1625 
L 3713 1625 
L 3713 1100 
L 3047 1100 
L 3047 0 
L 2419 0 
L 2419 1100 
L 313 1100 
L 313 1709 
L 2253 4666 
z
" transform="scale(0.015625)"/>
       </defs>
       <use xlink:href="#DejaVuSans-34"/>
       <use xlink:href="#DejaVuSans-30" x="63.623047"/>
      </g>
     </g>
    </g>
    <g id="xtick_4">
     <g id="text_4">
      <!-- 60 -->
      <g transform="translate(576.819526 366.30265) scale(0.08 -0.08)">
       <defs>
        <path id="DejaVuSans-36" d="M 2113 2584 
Q 1688 2584 1439 2293 
Q 1191 2003 1191 1497 
Q 1191 994 1439 701 
Q 1688 409 2113 409 
Q 2538 409 2786 701 
Q 3034 994 3034 1497 
Q 3034 2003 2786 2293 
Q 2538 2584 2113 2584 
z
M 3366 4563 
L 3366 3988 
Q 3128 4100 2886 4159 
Q 2644 4219 2406 4219 
Q 1781 4219 1451 3797 
Q 1122 3375 1075 2522 
Q 1259 2794 1537 2939 
Q 1816 3084 2150 3084 
Q 2853 3084 3261 2657 
Q 3669 2231 3669 1497 
Q 3669 778 3244 343 
Q 2819 -91 2113 -91 
Q 1303 -91 875 529 
Q 447 1150 447 2328 
Q 447 3434 972 4092 
Q 1497 4750 2381 4750 
Q 2619 4750 2861 4703 
Q 3103 4656 3366 4563 
z
" transform="scale(0.015625)"/>
       </defs>
       <use xlink:href="#DejaVuSans-36"/>
       <use xlink:href="#DejaVuSans-30" x="63.623047"/>
      </g>
     </g>
    </g>
    <g id="xtick_5">
     <g id="text_5">
      <!-- 80 -->
      <g transform="translate(759.799993 366.30265) scale(0.08 -0.08)">
       <defs>
        <path id="DejaVuSans-38" d="M 2034 2216 
Q 1584 2216 1326 1975 
Q 1069 1734 1069 1313 
Q 1069 891 1326 650 
Q 1584 409 2034 409 
Q 2484 409 2743 651 
Q 3003 894 3003 1313 
Q 3003 1734 2745 1975 
Q 2488 2216 2034 2216 
z
M 1403 2484 
Q 997 2584 770 2862 
Q 544 3141 544 3541 
Q 544 4100 942 4425 
Q 1341 4750 2034 4750 
Q 2731 4750 3128 4425 
Q 3525 4100 3525 3541 
Q 3525 3141 3298 2862 
Q 3072 2584 2669 2484 
Q 3125 2378 3379 2068 
Q 3634 1759 3634 1313 
Q 3634 634 3220 271 
Q 2806 -91 2034 -91 
Q 1263 -91 848 271 
Q 434 634 434 1313 
Q 434 1759 690 2068 
Q 947 2378 1403 2484 
z
M 1172 3481 
Q 1172 3119 1398 2916 
Q 1625 2713 2034 2713 
Q 2441 2713 2670 2916 
Q 2900 3119 2900 3481 
Q 2900 3844 2670 4047 
Q 2441 4250 2034 4250 
Q 1625 4250 1398 4047 
Q 1172 3844 1172 3481 
z
" transform="scale(0.015625)"/>
       </defs>
       <use xlink:href="#DejaVuSans-38"/>
       <use xlink:href="#DejaVuSans-30" x="63.623047"/>
      </g>
     </g>
    </g>
    <g id="xtick_6">
     <g id="text_6">
      <!-- 100 -->
      <g transform="translate(940.235459 366.30265) scale(0.08 -0.08)">
       <defs>
        <path id="DejaVuSans-31" d="M 794 531 
L 1825 531 
L 1825 4091 
L 703 3866 
L 703 4441 
L 1819 4666 
L 2450 4666 
L 2450 531 
L 3481 531 
L 3481 0 
L 794 0 
L 794 531 
z
" transform="scale(0.015625)"/>
       </defs>
       <use xlink:href="#DejaVuSans-31"/>
       <use xlink:href="#DejaVuSans-30" x="63.623047"/>
       <use xlink:href="#DejaVuSans-30" x="127.246094"/>
      </g>
     </g>
    </g>
    <g id="text_7">
     <!-- Position in Read (bp) -->
     <g transform="translate(461.46 379.564837) scale(0.1 -0.1)">
      <defs>
       <path id="DejaVuSans-50" d="M 1259 4147 
L 1259 2394 
L 2053 2394 
Q 2494 2394 2734 2622 
Q 2975 2850 2975 3272 
Q 2975 3691 2734 3919 
Q 2494 4147 2053 4147 
L 1259 4147 
z
M 628 4666 
L 2053 4666 
Q 2838 4666 3239 4311 
Q 3641 3956 3641 3272 
Q 3641 2581 3239 2228 
Q 2838 1875 2053 1875 
L 1259 1875 
L 1259 0 
L 628 0 
L 628 4666 
z
" transform="scale(0.015625)"/>
       <path id="DejaVuSans-6f" d="M 1959 3097 
Q 1497 3097 1228 2736 
Q 959 2375 959 1747 
Q 959 1119 1226 758 
Q 1494 397 1959 397 
Q 2419 397 2687 759 
Q 2956 1122 2956 1747 
Q 2956 2369 2687 2733 
Q 2419 3097 1959 3097 
z
M 1959 3584 
Q 2709 3584 3137 3096 
Q 3566 2609 3566 1747 
Q 3566 888 3137 398 
Q 2709 -91 1959 -91 
Q 1206 -91 779 398 
Q 353 888 353 1747 
Q 353 2609 779 3096 
Q 1206 3584 1959 3584 
z
" transform="scale(0.015625)"/>
       <path id="DejaVuSans-73" d="M 2834 3397 
L 2834 2853 
Q 2591 2978 2328 3040 
Q 2066 3103 1784 3103 
Q 1356 3103 1142 2972 
Q 928 2841 928 2578 
Q 928 2378 1081 2264 
Q 1234 2150 1697 2047 
L 1894 2003 
Q 2506 1872 2764 1633 
Q 3022 1394 3022 966 
Q 3022 478 2636 193 
Q 2250 -91 1575 -91 
Q 1294 -91 989 -36 
Q 684 19 347 128 
L 347 722 
Q 666 556 975 473 
Q 1284 391 1588 391 
Q 1994 391 2212 530 
Q 2431 669 2431 922 
Q 2431 1156 2273 1281 
Q 2116 1406 1581 1522 
L 1381 1569 
Q 847 1681 609 1914 
Q 372 2147 372 2553 
Q 372 3047 722 3315 
Q 1072 3584 1716 3584 
Q 2034 3584 2315 3537 
Q 2597 3491 2834 3397 
z
" transform="scale(0.015625)"/>
       <path id="DejaVuSans-69" d="M 603 3500 
L 1178 3500 
L 1178 0 
L 603 0 
L 603 3500 
z
M 603 4863 
L 1178 4863 
L 1178 4134 
L 603 4134 
L 603 4863 
z
" transform="scale(0.015625)"/>
       <path id="DejaVuSans-74" d="M 1172 4494 
L 1172 3500 
L 2356 3500 
L 2356 3053 
L 1172 3053 
L 1172 1153 
Q 1172 725 1289 603 
Q 1406 481 1766 481 
L 2356 481 
L 2356 0 
L 1766 0 
Q 1100 0 847 248 
Q 594 497 594 1153 
L 594 3053 
L 172 3053 
L 172 3500 
L 594 3500 
L 594 4494 
L 1172 4494 
z
" transform="scale(0.015625)"/>
       <path id="DejaVuSans-6e" d="M 3513 2113 
L 3513 0 
L 2938 0 
L 2938 2094 
Q 2938 2591 2744 2837 
Q 2550 3084 2163 3084 
Q 1697 3084 1428 2787 
Q 1159 2491 1159 1978 
L 1159 0 
L 581 0 
L 581 3500 
L 1159 3500 
L 1159 2956 
Q 1366 3272 1645 3428 
Q 1925 3584 2291 3584 
Q 2894 3584 3203 3211 
Q 3513 2838 3513 2113 
z
" transform="scale(0.015625)"/>
       <path id="DejaVuSans-20" transform="scale(0.015625)"/>
       <path id="DejaVuSans-52" d="M 2841 2188 
Q 3044 2119 3236 1894 
Q 3428 1669 3622 1275 
L 4263 0 
L 3584 0 
L 2988 1197 
Q 2756 1666 2539 1819 
Q 2322 1972 1947 1972 
L 1259 1972 
L 1259 0 
L 628 0 
L 628 4666 
L 2053 4666 
Q 2853 4666 3247 4331 
Q 3641 3997 3641 3322 
Q 3641 2881 3436 2590 
Q 3231 2300 2841 2188 
z
M 1259 4147 
L 1259 2491 
L 2053 2491 
Q 2509 2491 2742 2702 
Q 2975 2913 2975 3322 
Q 2975 3731 2742 3939 
Q 2509 4147 2053 4147 
L 1259 4147 
z
" transform="scale(0.015625)"/>
       <path id="DejaVuSans-65" d="M 3597 1894 
L 3597 1613 
L 953 1613 
Q 991 1019 1311 708 
Q 1631 397 2203 397 
Q 2534 397 2845 478 
Q 3156 559 3463 722 
L 3463 178 
Q 3153 47 2828 -22 
Q 2503 -91 2169 -91 
Q 1331 -91 842 396 
Q 353 884 353 1716 
Q 353 2575 817 3079 
Q 1281 3584 2069 3584 
Q 2775 3584 3186 3129 
Q 3597 2675 3597 1894 
z
M 3022 2063 
Q 3016 2534 2758 2815 
Q 2500 3097 2075 3097 
Q 1594 3097 1305 2825 
Q 1016 2553 972 2059 
L 3022 2063 
z
" transform="scale(0.015625)"/>
       <path id="DejaVuSans-61" d="M 2194 1759 
Q 1497 1759 1228 1600 
Q 959 1441 959 1056 
Q 959 750 1161 570 
Q 1363 391 1709 391 
Q 2188 391 2477 730 
Q 2766 1069 2766 1631 
L 2766 1759 
L 2194 1759 
z
M 3341 1997 
L 3341 0 
L 2766 0 
L 2766 531 
Q 2569 213 2275 61 
Q 1981 -91 1556 -91 
Q 1019 -91 701 211 
Q 384 513 384 1019 
Q 384 1609 779 1909 
Q 1175 2209 1959 2209 
L 2766 2209 
L 2766 2266 
Q 2766 2663 2505 2880 
Q 2244 3097 1772 3097 
Q 1472 3097 1187 3025 
Q 903 2953 641 2809 
L 641 3341 
Q 956 3463 1253 3523 
Q 1550 3584 1831 3584 
Q 2591 3584 2966 3190 
Q 3341 2797 3341 1997 
z
" transform="scale(0.015625)"/>
       <path id="DejaVuSans-64" d="M 2906 2969 
L 2906 4863 
L 3481 4863 
L 3481 0 
L 2906 0 
L 2906 525 
Q 2725 213 2448 61 
Q 2172 -91 1784 -91 
Q 1150 -91 751 415 
Q 353 922 353 1747 
Q 353 2572 751 3078 
Q 1150 3584 1784 3584 
Q 2172 3584 2448 3432 
Q 2725 3281 2906 2969 
z
M 947 1747 
Q 947 1113 1208 752 
Q 1469 391 1925 391 
Q 2381 391 2643 752 
Q 2906 1113 2906 1747 
Q 2906 2381 2643 2742 
Q 2381 3103 1925 3103 
Q 1469 3103 1208 2742 
Q 947 2381 947 1747 
z
" transform="scale(0.015625)"/>
       <path id="DejaVuSans-28" d="M 1984 4856 
Q 1566 4138 1362 3434 
Q 1159 2731 1159 2009 
Q 1159 1288 1364 580 
Q 1569 -128 1984 -844 
L 1484 -844 
Q 1016 -109 783 600 
Q 550 1309 550 2009 
Q 550 2706 781 3412 
Q 1013 4119 1484 4856 
L 1984 4856 
z
" transform="scale(0.015625)"/>
       <path id="DejaVuSans-62" d="M 3116 1747 
Q 3116 2381 2855 2742 
Q 2594 3103 2138 3103 
Q 1681 3103 1420 2742 
Q 1159 2381 1159 1747 
Q 1159 1113 1420 752 
Q 1681 391 2138 391 
Q 2594 391 2855 752 
Q 3116 1113 3116 1747 
z
M 1159 2969 
Q 1341 3281 1617 3432 
Q 1894 3584 2278 3584 
Q 2916 3584 3314 3078 
Q 3713 2572 3713 1747 
Q 3713 922 3314 415 
Q 2916 -91 2278 -91 
Q 1894 -91 1617 61 
Q 1341 213 1159 525 
L 1159 0 
L 581 0 
L 581 4863 
L 1159 4863 
L 1159 2969 
z
" transform="scale(0.015625)"/>
       <path id="DejaVuSans-70" d="M 1159 525 
L 1159 -1331 
L 581 -1331 
L 581 3500 
L 1159 3500 
L 1159 2969 
Q 1341 3281 1617 3432 
Q 1894 3584 2278 3584 
Q 2916 3584 3314 3078 
Q 3713 2572 3713 1747 
Q 3713 922 3314 415 
Q 2916 -91 2278 -91 
Q 1894 -91 1617 61 
Q 1341 213 1159 525 
z
M 3116 1747 
Q 3116 2381 2855 2742 
Q 2594 3103 2138 3103 
Q 1681 3103 1420 2742 
Q 1159 2381 1159 1747 
Q 1159 1113 1420 752 
Q 1681 391 2138 391 
Q 2594 391 2855 752 
Q 3116 1113 3116 1747 
z
" transform="scale(0.015625)"/>
       <path id="DejaVuSans-29" d="M 513 4856 
L 1013 4856 
Q 1481 4119 1714 3412 
Q 1947 2706 1947 2009 
Q 1947 1309 1714 600 
Q 1481 -109 1013 -844 
L 513 -844 
Q 928 -128 1133 580 
Q 1338 1288 1338 2009 
Q 1338 2731 1133 3434 
Q 928 4138 513 4856 
z
" transform="scale(0.015625)"/>
      </defs>
      <use xlink:href="#DejaVuSans-50"/>
      <use xlink:href="#DejaVuSans-6f" x="56.677734"/>
      <use xlink:href="#DejaVuSans-73" x="117.859375"/>
      <use xlink:href="#DejaVuSans-69" x="169.958984"/>
      <use xlink:href="#DejaVuSans-74" x="197.742188"/>
      <use xlink:href="#DejaVuSans-69" x="236.951172"/>
      <use xlink:href="#DejaVuSans-6f" x="264.734375"/>
      <use xlink:href="#DejaVuSans-6e" x="325.916016"/>
      <use xlink:href="#DejaVuSans-20" x="389.294922"/>
      <use xlink:href="#DejaVuSans-69" x="421.082031"/>
      <use xlink:href="#DejaVuSans-6e" x="448.865234"/>
      <use xlink:href="#DejaVuSans-20" x="512.244141"/>
      <use xlink:href="#DejaVuSans-52" x="544.03125"/>
      <use xlink:href="#DejaVuSans-65" x="609.013672"/>
      <use xlink:href="#DejaVuSans-61" x="670.537109"/>
      <use xlink:href="#DejaVuSans-64" x="731.816406"/>
      <use xlink:href="#DejaVuSans-20" x="795.292969"/>
      <use xlink:href="#DejaVuSans-28" x="827.080078"/>
      <use xlink:href="#DejaVuSans-62" x="866.09375"/>
      <use xlink:href="#DejaVuSans-70" x="929.570312"/>
      <use xlink:href="#DejaVuSans-29" x="993.046875"/>
     </g>
    </g>
   </g>
   <g id="matplotlib.axis_2">
    <g id="ytick_1">
     <g id="line2d_1">
      <path d="M 32.968125 353.2239 
L 993.158125 353.2239 
" clip-path="url(#p4c7b0859b8)" style="fill: none; stroke: #dedede; stroke-linecap: square"/>
     </g>
     <g id="text_8">
      <!-- 0 -->
      <g transform="translate(20.878125 356.263275) scale(0.08 -0.08)">
       <use xlink:href="#DejaVuSans-30"/>
      </g>
     </g>
    </g>
    <g id="ytick_2">
     <g id="line2d_2">
      <path d="M 32.968125 304.42638 
L 993.158125 304.42638 
" clip-path="url(#p4c7b0859b8)" style="fill: none; stroke: #dedede; stroke-linecap: square"/>
     </g>
     <g id="text_9">
      <!-- 1 -->
      <g transform="translate(20.878125 307.465755) scale(0.08 -0.08)">
       <use xlink:href="#DejaVuSans-31"/>
      </g>
     </g>
    </g>
    <g id="ytick_3">
     <g id="line2d_3">
      <path d="M 32.968125 255.62886 
L 993.158125 255.62886 
" clip-path="url(#p4c7b0859b8)" style="fill: none; stroke: #dedede; stroke-linecap: square"/>
     </g>
     <g id="text_10">
      <!-- 2 -->
      <g transform="translate(20.878125 258.668235) scale(0.08 -0.08)">
       <use xlink:href="#DejaVuSans-32"/>
      </g>
     </g>
    </g>
    <g id="ytick_4">
     <g id="line2d_4">
      <path d="M 32.968125 206.83134 
L 993.158125 206.83134 
" clip-path="url(#p4c7b0859b8)" style="fill: none; stroke: #dedede; stroke-linecap: square"/>
     </g>
     <g id="text_11">
      <!-- 3 -->
      <g transform="translate(20.878125 209.870715) scale(0.08 -0.08)">
       <defs>
        <path id="DejaVuSans-33" d="M 2597 2516 
Q 3050 2419 3304 2112 
Q 3559 1806 3559 1356 
Q 3559 666 3084 287 
Q 2609 -91 1734 -91 
Q 1441 -91 1130 -33 
Q 819 25 488 141 
L 488 750 
Q 750 597 1062 519 
Q 1375 441 1716 441 
Q 2309 441 2620 675 
Q 2931 909 2931 1356 
Q 2931 1769 2642 2001 
Q 2353 2234 1838 2234 
L 1294 2234 
L 1294 2753 
L 1863 2753 
Q 2328 2753 2575 2939 
Q 2822 3125 2822 3475 
Q 2822 3834 2567 4026 
Q 2313 4219 1838 4219 
Q 1578 4219 1281 4162 
Q 984 4106 628 3988 
L 628 4550 
Q 988 4650 1302 4700 
Q 1616 4750 1894 4750 
Q 2613 4750 3031 4423 
Q 3450 4097 3450 3541 
Q 3450 3153 3228 2886 
Q 3006 2619 2597 2516 
z
" transform="scale(0.015625)"/>
       </defs>
       <use xlink:href="#DejaVuSans-33"/>
      </g>
     </g>
    </g>
    <g id="ytick_5">
     <g id="line2d_5">
      <path d="M 32.968125 158.03382 
L 993.158125 158.03382 
" clip-path="url(#p4c7b0859b8)" style="fill: none; stroke: #dedede; stroke-linecap: square"/>
     </g>
     <g id="text_12">
      <!-- 4 -->
      <g transform="translate(20.878125 161.073195) scale(0.08 -0.08)">
       <use xlink:href="#DejaVuSans-34"/>
      </g>
     </g>
    </g>
    <g id="ytick_6">
     <g id="line2d_6">
      <path d="M 32.968125 109.2363 
L 993.158125 109.2363 
" clip-path="url(#p4c7b0859b8)" style="fill: none; stroke: #dedede; stroke-linecap: square"/>
     </g>
     <g id="text_13">
      <!-- 5 -->
      <g transform="translate(20.878125 112.275675) scale(0.08 -0.08)">
       <defs>
        <path id="DejaVuSans-35" d="M 691 4666 
L 3169 4666 
L 3169 4134 
L 1269 4134 
L 1269 2991 
Q 1406 3038 1543 3061 
Q 1681 3084 1819 3084 
Q 2600 3084 3056 2656 
Q 3513 2228 3513 1497 
Q 3513 744 3044 326 
Q 2575 -91 1722 -91 
Q 1428 -91 1123 -41 
Q 819 9 494 109 
L 494 744 
Q 775 591 1075 516 
Q 1375 441 1709 441 
Q 2250 441 2565 725 
Q 2881 1009 2881 1497 
Q 2881 1984 2565 2268 
Q 2250 2553 1709 2553 
Q 1456 2553 1204 2497 
Q 953 2441 691 2322 
L 691 4666 
z
" transform="scale(0.015625)"/>
       </defs>
       <use xlink:href="#DejaVuSans-35"/>
      </g>
     </g>
    </g>
    <g id="ytick_7">
     <g id="line2d_7">
      <path d="M 32.968125 60.43878 
L 993.158125 60.43878 
" clip-path="url(#p4c7b0859b8)" style="fill: none; stroke: #dedede; stroke-linecap: square"/>
     </g>
     <g id="text_14">
      <!-- 6 -->
      <g transform="translate(20.878125 63.478155) scale(0.08 -0.08)">
       <use xlink:href="#DejaVuSans-36"/>
      </g>
     </g>
    </g>
    <g id="text_15">
     <!-- Percentage N-Count -->
     <g transform="translate(14.798438 244.344588) rotate(-90) scale(0.1 -0.1)">
      <defs>
       <path id="DejaVuSans-72" d="M 2631 2963 
Q 2534 3019 2420 3045 
Q 2306 3072 2169 3072 
Q 1681 3072 1420 2755 
Q 1159 2438 1159 1844 
L 1159 0 
L 581 0 
L 581 3500 
L 1159 3500 
L 1159 2956 
Q 1341 3275 1631 3429 
Q 1922 3584 2338 3584 
Q 2397 3584 2469 3576 
Q 2541 3569 2628 3553 
L 2631 2963 
z
" transform="scale(0.015625)"/>
       <path id="DejaVuSans-63" d="M 3122 3366 
L 3122 2828 
Q 2878 2963 2633 3030 
Q 2388 3097 2138 3097 
Q 1578 3097 1268 2742 
Q 959 2388 959 1747 
Q 959 1106 1268 751 
Q 1578 397 2138 397 
Q 2388 397 2633 464 
Q 2878 531 3122 666 
L 3122 134 
Q 2881 22 2623 -34 
Q 2366 -91 2075 -91 
Q 1284 -91 818 406 
Q 353 903 353 1747 
Q 353 2603 823 3093 
Q 1294 3584 2113 3584 
Q 2378 3584 2631 3529 
Q 2884 3475 3122 3366 
z
" transform="scale(0.015625)"/>
       <path id="DejaVuSans-67" d="M 2906 1791 
Q 2906 2416 2648 2759 
Q 2391 3103 1925 3103 
Q 1463 3103 1205 2759 
Q 947 2416 947 1791 
Q 947 1169 1205 825 
Q 1463 481 1925 481 
Q 2391 481 2648 825 
Q 2906 1169 2906 1791 
z
M 3481 434 
Q 3481 -459 3084 -895 
Q 2688 -1331 1869 -1331 
Q 1566 -1331 1297 -1286 
Q 1028 -1241 775 -1147 
L 775 -588 
Q 1028 -725 1275 -790 
Q 1522 -856 1778 -856 
Q 2344 -856 2625 -561 
Q 2906 -266 2906 331 
L 2906 616 
Q 2728 306 2450 153 
Q 2172 0 1784 0 
Q 1141 0 747 490 
Q 353 981 353 1791 
Q 353 2603 747 3093 
Q 1141 3584 1784 3584 
Q 2172 3584 2450 3431 
Q 2728 3278 2906 2969 
L 2906 3500 
L 3481 3500 
L 3481 434 
z
" transform="scale(0.015625)"/>
       <path id="DejaVuSans-4e" d="M 628 4666 
L 1478 4666 
L 3547 763 
L 3547 4666 
L 4159 4666 
L 4159 0 
L 3309 0 
L 1241 3903 
L 1241 0 
L 628 0 
L 628 4666 
z
" transform="scale(0.015625)"/>
       <path id="DejaVuSans-2d" d="M 313 2009 
L 1997 2009 
L 1997 1497 
L 313 1497 
L 313 2009 
z
" transform="scale(0.015625)"/>
       <path id="DejaVuSans-43" d="M 4122 4306 
L 4122 3641 
Q 3803 3938 3442 4084 
Q 3081 4231 2675 4231 
Q 1875 4231 1450 3742 
Q 1025 3253 1025 2328 
Q 1025 1406 1450 917 
Q 1875 428 2675 428 
Q 3081 428 3442 575 
Q 3803 722 4122 1019 
L 4122 359 
Q 3791 134 3420 21 
Q 3050 -91 2638 -91 
Q 1578 -91 968 557 
Q 359 1206 359 2328 
Q 359 3453 968 4101 
Q 1578 4750 2638 4750 
Q 3056 4750 3426 4639 
Q 3797 4528 4122 4306 
z
" transform="scale(0.015625)"/>
       <path id="DejaVuSans-75" d="M 544 1381 
L 544 3500 
L 1119 3500 
L 1119 1403 
Q 1119 906 1312 657 
Q 1506 409 1894 409 
Q 2359 409 2629 706 
Q 2900 1003 2900 1516 
L 2900 3500 
L 3475 3500 
L 3475 0 
L 2900 0 
L 2900 538 
Q 2691 219 2414 64 
Q 2138 -91 1772 -91 
Q 1169 -91 856 284 
Q 544 659 544 1381 
z
M 1991 3584 
L 1991 3584 
z
" transform="scale(0.015625)"/>
      </defs>
      <use xlink:href="#DejaVuSans-50"/>
      <use xlink:href="#DejaVuSans-65" x="56.677734"/>
      <use xlink:href="#DejaVuSans-72" x="118.201172"/>
      <use xlink:href="#DejaVuSans-63" x="157.064453"/>
      <use xlink:href="#DejaVuSans-65" x="212.044922"/>
      <use xlink:href="#DejaVuSans-6e" x="273.568359"/>
      <use xlink:href="#DejaVuSans-74" x="336.947266"/>
      <use xlink:href="#DejaVuSans-61" x="376.15625"/>
      <use xlink:href="#DejaVuSans-67" x="437.435547"/>
      <use xlink:href="#DejaVuSans-65" x="500.912109"/>
      <use xlink:href="#DejaVuSans-20" x="562.435547"/>
      <use xlink:href="#DejaVuSans-4e" x="594.222656"/>
      <use xlink:href="#DejaVuSans-2d" x="669.027344"/>
      <use xlink:href="#DejaVuSans-43" x="705.111328"/>
      <use xlink:href="#DejaVuSans-6f" x="774.935547"/>
      <use xlink:href="#DejaVuSans-75" x="836.117188"/>
      <use xlink:href="#DejaVuSans-6e" x="899.496094"/>
      <use xlink:href="#DejaVuSans-74" x="962.875"/>
     </g>
    </g>
   </g>
   <g id="line2d_8">
    <path d="M 42.117148 308.349969 
L 51.266172 300.90408 
L 60.415195 304.548043 
L 69.564218 308.352005 
L 78.713242 308.350108 
L 87.862265 308.35182 
L 97.011288 308.352005 
L 106.160312 308.352005 
L 115.309335 308.352005 
L 124.458358 308.220285 
L 142.756405 308.351982 
L 161.054452 308.350362 
L 179.352499 308.344022 
L 197.650545 308.352005 
L 215.948592 308.352005 
L 234.246639 308.349344 
L 252.544685 308.311184 
L 270.842732 308.308477 
L 289.140779 308.297184 
L 307.438825 308.213273 
L 325.736872 308.190942 
L 344.034919 308.072899 
L 362.332965 353.223012 
L 380.631012 353.159383 
L 398.929059 353.099414 
L 417.227105 353.212967 
L 435.525152 353.204438 
L 453.823199 353.209973 
L 472.121246 353.146006 
L 490.419292 353.064435 
L 508.717339 353.223456 
L 527.015386 353.207224 
L 545.313432 353.22376 
L 563.611479 353.063816 
L 581.909526 347.228955 
L 600.207572 353.215088 
L 618.505619 351.743137 
L 636.803666 351.800869 
L 655.101712 353.1652 
L 673.399759 353.188729 
L 691.697806 353.223593 
L 709.995852 353.091383 
L 728.293899 353.113505 
L 746.591946 353.223781 
L 764.889993 353.2239 
L 783.188039 353.191895 
L 801.486086 353.221447 
L 819.784133 353.132565 
L 838.082179 353.093087 
L 856.380226 353.221962 
L 874.678273 350.364872 
L 892.976319 353.098959 
L 911.274366 353.11497 
L 929.572413 351.147919 
L 947.870459 353.178614 
" clip-path="url(#p4c7b0859b8)" style="fill: none; stroke: #5cb85c; stroke-linecap: square"/>
   </g>
   <g id="line2d_9">
    <path d="M 42.117148 325.54317 
L 51.266172 318.087666 
L 60.415195 321.725631 
L 69.564218 325.545323 
L 78.713242 325.543264 
L 87.862265 325.545229 
L 97.011288 325.545323 
L 106.160312 325.545323 
L 115.309335 325.545323 
L 124.458358 325.416115 
L 142.756405 325.545299 
L 161.054452 325.543287 
L 179.352499 325.537134 
L 197.650545 325.545323 
L 215.948592 325.545323 
L 234.246639 325.542843 
L 252.544685 325.503493 
L 270.842732 325.499937 
L 289.140779 325.480731 
L 307.438825 325.38582 
L 325.736872 325.339967 
L 344.034919 325.195857 
L 362.332965 353.223194 
L 380.631012 353.158012 
L 398.929059 353.10115 
L 417.227105 353.211238 
L 435.525152 353.204198 
L 453.823199 353.209703 
L 472.121246 353.146238 
L 490.419292 353.06274 
L 508.717339 353.223405 
L 527.015386 353.206951 
L 545.313432 353.223735 
L 563.611479 353.063719 
L 581.909526 347.236251 
L 600.207572 353.215061 
L 618.505619 351.756774 
L 636.803666 351.806908 
L 655.101712 353.167259 
L 673.399759 353.188574 
L 691.697806 353.223638 
L 709.995852 353.088327 
L 728.293899 353.113989 
L 746.591946 353.223756 
L 764.889993 353.223876 
L 783.188039 353.190601 
L 801.486086 353.221545 
L 819.784133 353.131428 
L 838.082179 353.091768 
L 856.380226 353.221773 
L 874.678273 350.350894 
L 892.976319 353.100124 
L 911.274366 353.119172 
L 929.572413 351.147888 
L 947.870459 353.177987 
" clip-path="url(#p4c7b0859b8)" style="fill: none; stroke: #5cb85c; stroke-linecap: square"/>
   </g>
   <g id="line2d_10">
    <path d="M 42.117148 316.017271 
L 51.266172 308.488223 
L 60.415195 312.18563 
L 69.564218 316.019518 
L 78.713242 316.017883 
L 87.862265 316.019263 
L 97.011288 316.019518 
L 106.160312 316.019518 
L 115.309335 316.019518 
L 124.458358 315.887583 
L 142.756405 316.019416 
L 161.054452 316.017603 
L 179.352499 316.010324 
L 197.650545 316.019518 
L 215.948592 316.019518 
L 234.246639 316.017143 
L 252.544685 315.974671 
L 270.842732 315.96443 
L 289.140779 315.937742 
L 307.438825 315.78987 
L 325.736872 315.708962 
L 344.034919 315.545664 
L 362.332965 353.223205 
L 380.631012 353.158932 
L 398.929059 353.099234 
L 417.227105 353.212521 
L 435.525152 353.20374 
L 453.823199 353.208682 
L 472.121246 353.144576 
L 490.419292 353.061743 
L 508.717339 353.223256 
L 527.015386 353.207559 
L 545.313432 353.223823 
L 563.611479 353.061367 
L 581.909526 347.203208 
L 600.207572 353.214603 
L 618.505619 351.760465 
L 636.803666 351.806429 
L 655.101712 353.164523 
L 673.399759 353.188304 
L 691.697806 353.22377 
L 709.995852 353.090633 
L 728.293899 353.111832 
L 746.591946 353.223717 
L 764.889993 353.223848 
L 783.188039 353.190232 
L 801.486086 353.22142 
L 819.784133 353.133386 
L 838.082179 353.089365 
L 856.380226 353.221675 
L 874.678273 350.409454 
L 892.976319 353.095884 
L 911.274366 353.114146 
L 929.572413 351.131638 
L 947.870459 353.177904 
" clip-path="url(#p4c7b0859b8)" style="fill: none; stroke: #5cb85c; stroke-linecap: square"/>
   </g>
   <g id="line2d_11">
    <path d="M 42.117148 290.090188 
L 51.266172 282.766244 
L 60.415195 286.332823 
L 69.564218 290.09216 
L 78.713242 290.0901 
L 87.862265 290.092073 
L 97.011288 290.092204 
L 106.160312 290.092204 
L 115.309335 290.092204 
L 124.458358 289.97224 
L 142.756405 290.092182 
L 161.054452 290.090407 
L 179.352499 290.084752 
L 197.650545 290.092204 
L 215.948592 290.092204 
L 234.246639 290.089136 
L 252.544685 290.052947 
L 270.842732 290.042097 
L 289.140779 290.022764 
L 307.438825 289.919699 
L 325.736872 289.880376 
L 344.034919 289.759184 
L 362.332965 353.2233 
L 380.631012 353.167887 
L 398.929059 353.103317 
L 417.227105 353.213349 
L 435.525152 353.203595 
L 453.823199 353.208458 
L 472.121246 353.148745 
L 490.419292 353.067511 
L 508.717339 353.223633 
L 527.015386 353.206908 
L 545.313432 353.223744 
L 563.611479 353.06641 
L 581.909526 347.238182 
L 600.207572 353.217345 
L 618.505619 351.771569 
L 636.803666 351.808653 
L 655.101712 353.16419 
L 673.399759 353.191124 
L 691.697806 353.223585 
L 709.995852 353.098255 
L 728.293899 353.118108 
L 746.591946 353.223832 
L 764.889993 353.223877 
L 783.188039 353.19551 
L 801.486086 353.221553 
L 819.784133 353.13655 
L 838.082179 353.098534 
L 856.380226 353.221968 
L 874.678273 350.395708 
L 892.976319 353.10443 
L 911.274366 353.117342 
L 929.572413 351.150741 
L 947.870459 353.182938 
" clip-path="url(#p4c7b0859b8)" style="fill: none; stroke: #5cb85c; stroke-linecap: square"/>
   </g>
   <g id="line2d_12">
    <path d="M 42.117148 328.548967 
L 51.266172 321.085749 
L 60.415195 324.689919 
L 69.564218 328.550479 
L 78.713242 328.548715 
L 87.862265 328.550378 
L 97.011288 328.550529 
L 106.160312 328.550529 
L 115.309335 328.550529 
L 124.458358 328.418706 
L 142.756405 328.550479 
L 161.054452 328.548664 
L 179.352499 328.542062 
L 197.650545 328.550529 
L 215.948592 328.550529 
L 234.246639 328.549168 
L 252.544685 328.514946 
L 270.842732 328.519382 
L 289.140779 328.515929 
L 307.438825 328.447762 
L 325.736872 328.454037 
L 344.034919 328.377427 
L 362.332965 353.223267 
L 380.631012 353.157991 
L 398.929059 353.097321 
L 417.227105 353.213337 
L 435.525152 353.203228 
L 453.823199 353.20766 
L 472.121246 353.145836 
L 490.419292 353.062281 
L 508.717339 353.223368 
L 527.015386 353.208336 
L 545.313432 353.223799 
L 563.611479 353.061495 
L 581.909526 347.187749 
L 600.207572 353.214662 
L 618.505619 351.749725 
L 636.803666 351.773997 
L 655.101712 353.163567 
L 673.399759 353.188428 
L 691.697806 353.223645 
L 709.995852 353.093284 
L 728.293899 353.109989 
L 746.591946 353.223746 
L 764.889993 353.223874 
L 783.188039 353.19031 
L 801.486086 353.221243 
L 819.784133 353.133407 
L 838.082179 353.090972 
L 856.380226 353.221938 
L 874.678273 350.376772 
L 892.976319 353.098165 
L 911.274366 353.112842 
L 929.572413 351.143549 
L 947.870459 353.179289 
" clip-path="url(#p4c7b0859b8)" style="fill: none; stroke: #5cb85c; stroke-linecap: square"/>
   </g>
   <g id="line2d_13">
    <path d="M 42.117148 310.972087 
L 51.266172 303.573753 
L 60.415195 307.165959 
L 69.564218 310.974374 
L 78.713242 310.972711 
L 87.862265 310.97425 
L 97.011288 310.974374 
L 106.160312 310.974374 
L 115.309335 310.974374 
L 124.458358 310.842257 
L 142.756405 310.974353 
L 161.054452 310.972545 
L 179.352499 310.966079 
L 197.650545 310.974374 
L 215.948592 310.974374 
L 234.246639 310.973231 
L 252.544685 310.940591 
L 270.842732 310.94292 
L 289.140779 310.934604 
L 307.438825 310.86234 
L 325.736872 310.855272 
L 344.034919 310.764588 
L 362.332965 353.223145 
L 380.631012 353.158066 
L 398.929059 353.10026 
L 417.227105 353.213434 
L 435.525152 353.202693 
L 453.823199 353.207684 
L 472.121246 353.145536 
L 490.419292 353.06486 
L 508.717339 353.223333 
L 527.015386 353.208512 
L 545.313432 353.223858 
L 563.611479 353.065191 
L 581.909526 347.204515 
L 600.207572 353.215153 
L 618.505619 351.754317 
L 636.803666 351.791501 
L 655.101712 353.164923 
L 673.399759 353.188512 
L 691.697806 353.223604 
L 709.995852 353.0956 
L 728.293899 353.112522 
L 746.591946 353.223772 
L 764.889993 353.223857 
L 783.188039 353.190559 
L 801.486086 353.221345 
L 819.784133 353.134001 
L 838.082179 353.092082 
L 856.380226 353.221914 
L 874.678273 350.379678 
L 892.976319 353.099066 
L 911.274366 353.116961 
L 929.572413 351.147446 
L 947.870459 353.178968 
" clip-path="url(#p4c7b0859b8)" style="fill: none; stroke: #5cb85c; stroke-linecap: square"/>
   </g>
   <g id="line2d_14">
    <path d="M 42.117148 342.154795 
L 51.266172 334.677283 
L 60.415195 338.320778 
L 69.564218 342.15741 
L 78.713242 342.15526 
L 87.862265 342.157236 
L 97.011288 342.15741 
L 106.160312 342.15741 
L 115.309335 342.15741 
L 124.458358 342.026521 
L 142.756405 342.157323 
L 161.054452 342.15555 
L 179.352499 342.148692 
L 197.650545 342.15741 
L 215.948592 342.15741 
L 234.246639 342.155899 
L 252.544685 342.123467 
L 270.842732 342.125414 
L 289.140779 342.120997 
L 307.438825 341.988307 
L 325.736872 341.949802 
L 344.034919 341.883747 
L 362.332965 353.223201 
L 380.631012 353.157428 
L 398.929059 353.103391 
L 417.227105 353.212073 
L 435.525152 353.203508 
L 453.823199 353.20945 
L 472.121246 353.14337 
L 490.419292 353.067867 
L 508.717339 353.223288 
L 527.015386 353.207783 
L 545.313432 353.223667 
L 563.611479 353.063888 
L 581.909526 347.220474 
L 600.207572 353.214039 
L 618.505619 351.750421 
L 636.803666 351.791663 
L 655.101712 353.164875 
L 673.399759 353.189657 
L 691.697806 353.223695 
L 709.995852 353.095233 
L 728.293899 353.111777 
L 746.591946 353.223812 
L 764.889993 353.223841 
L 783.188039 353.189833 
L 801.486086 353.22165 
L 819.784133 353.131995 
L 838.082179 353.095056 
L 856.380226 353.222072 
L 874.678273 350.360534 
L 892.976319 353.09628 
L 911.274366 353.115501 
L 929.572413 351.152026 
L 947.870459 353.176784 
" clip-path="url(#p4c7b0859b8)" style="fill: none; stroke: #5cb85c; stroke-linecap: square"/>
   </g>
   <g id="line2d_15">
    <path d="M 42.117148 286.476991 
L 51.266172 279.073694 
L 60.415195 282.65825 
L 69.564218 286.478859 
L 78.713242 286.477785 
L 87.862265 286.478719 
L 97.011288 286.478859 
L 106.160312 286.478859 
L 115.309335 286.478859 
L 124.458358 286.349086 
L 142.756405 286.478766 
L 161.054452 286.477225 
L 179.352499 286.470989 
L 197.650545 286.478859 
L 215.948592 286.478859 
L 234.246639 286.476641 
L 252.544685 286.44021 
L 270.842732 286.432153 
L 289.140779 286.41242 
L 307.438825 286.328349 
L 325.736872 286.310484 
L 344.034919 286.202219 
L 362.332965 353.222905 
L 380.631012 353.15871 
L 398.929059 353.100168 
L 417.227105 353.212225 
L 435.525152 353.20301 
L 453.823199 353.209167 
L 472.121246 353.143329 
L 490.419292 353.066591 
L 508.717339 353.22345 
L 527.015386 353.207708 
L 545.313432 353.22371 
L 563.611479 353.062872 
L 581.909526 347.262238 
L 600.207572 353.215705 
L 618.505619 351.742389 
L 636.803666 351.816162 
L 655.101712 353.164857 
L 673.399759 353.188492 
L 691.697806 353.223637 
L 709.995852 353.093637 
L 728.293899 353.113112 
L 746.591946 353.223731 
L 764.889993 353.2239 
L 783.188039 353.190458 
L 801.486086 353.221388 
L 819.784133 353.131964 
L 838.082179 353.0939 
L 856.380226 353.222083 
L 874.678273 350.346331 
L 892.976319 353.098306 
L 911.274366 353.116065 
L 929.572413 351.155542 
L 947.870459 353.178684 
" clip-path="url(#p4c7b0859b8)" style="fill: none; stroke: #5cb85c; stroke-linecap: square"/>
   </g>
   <g id="line2d_16">
    <path d="M 42.117148 310.511767 
L 51.266172 303.077684 
L 60.415195 306.697287 
L 69.564218 310.513829 
L 78.713242 310.511907 
L 87.862265 310.513735 
L 97.011288 310.513829 
L 106.160312 310.513829 
L 115.309335 310.513829 
L 124.458358 310.385441 
L 142.756405 310.513805 
L 161.054452 310.511462 
L 179.352499 310.504832 
L 197.650545 310.513829 
L 215.948592 310.513829 
L 234.246639 310.511533 
L 252.544685 310.471282 
L 270.842732 310.470697 
L 289.140779 310.45664 
L 307.438825 310.365222 
L 325.736872 310.336405 
L 344.034919 310.217459 
L 362.332965 353.223073 
L 380.631012 353.158304 
L 398.929059 353.099651 
L 417.227105 353.212883 
L 435.525152 353.202597 
L 453.823199 353.208104 
L 472.121246 353.143775 
L 490.419292 353.064684 
L 508.717339 353.223474 
L 527.015386 353.207215 
L 545.313432 353.223805 
L 563.611479 353.065174 
L 581.909526 347.261781 
L 600.207572 353.21477 
L 618.505619 351.750221 
L 636.803666 351.79446 
L 655.101712 353.165449 
L 673.399759 353.188523 
L 691.697806 353.223685 
L 709.995852 353.094739 
L 728.293899 353.112057 
L 746.591946 353.223804 
L 764.889993 353.223876 
L 783.188039 353.191767 
L 801.486086 353.22137 
L 819.784133 353.13157 
L 838.082179 353.094821 
L 856.380226 353.221916 
L 874.678273 350.342598 
L 892.976319 353.09988 
L 911.274366 353.117391 
L 929.572413 351.138077 
L 947.870459 353.178824 
" clip-path="url(#p4c7b0859b8)" style="fill: none; stroke: #5cb85c; stroke-linecap: square"/>
   </g>
   <g id="line2d_17">
    <path d="M 42.117148 297.569775 
L 51.266172 290.157416 
L 60.415195 293.741715 
L 69.564218 297.57201 
L 78.713242 297.570154 
L 87.862265 297.571968 
L 97.011288 297.57201 
L 106.160312 297.57201 
L 115.309335 297.57201 
L 124.458358 297.443486 
L 142.756405 297.571968 
L 161.054452 297.569796 
L 179.352499 297.564186 
L 197.650545 297.57201 
L 215.948592 297.57201 
L 234.246639 297.570239 
L 252.544685 297.537106 
L 270.842732 297.534955 
L 289.140779 297.528227 
L 307.438825 297.454073 
L 325.736872 297.451353 
L 344.034919 297.374268 
L 362.332965 353.223217 
L 380.631012 353.160833 
L 398.929059 353.09789 
L 417.227105 353.213253 
L 435.525152 353.202733 
L 453.823199 353.209325 
L 472.121246 353.145448 
L 490.419292 353.062645 
L 508.717339 353.22343 
L 527.015386 353.206456 
L 545.313432 353.223815 
L 563.611479 353.063834 
L 581.909526 347.212939 
L 600.207572 353.215413 
L 618.505619 351.751465 
L 636.803666 351.80709 
L 655.101712 353.164394 
L 673.399759 353.189681 
L 691.697806 353.223621 
L 709.995852 353.09513 
L 728.293899 353.114309 
L 746.591946 353.223835 
L 764.889993 353.2239 
L 783.188039 353.191648 
L 801.486086 353.221267 
L 819.784133 353.133559 
L 838.082179 353.091295 
L 856.380226 353.222221 
L 874.678273 350.407349 
L 892.976319 353.101024 
L 911.274366 353.115402 
L 929.572413 351.13731 
L 947.870459 353.178842 
" clip-path="url(#p4c7b0859b8)" style="fill: none; stroke: #5cb85c; stroke-linecap: square"/>
   </g>
   <g id="line2d_18">
    <path d="M 42.117148 315.902447 
L 51.266172 308.428668 
L 60.415195 312.056846 
L 69.564218 315.904375 
L 78.713242 315.902954 
L 87.862265 315.904273 
L 97.011288 315.904375 
L 106.160312 315.904375 
L 115.309335 315.904375 
L 124.458358 315.772019 
L 142.756405 315.904299 
L 161.054452 315.90232 
L 179.352499 315.896586 
L 197.650545 315.904375 
L 215.948592 315.904375 
L 234.246639 315.903233 
L 252.544685 315.869719 
L 270.842732 315.874235 
L 289.140779 315.87114 
L 307.438825 315.803503 
L 325.736872 315.80741 
L 344.034919 315.726175 
L 362.332965 353.223261 
L 380.631012 353.15589 
L 398.929059 353.098104 
L 417.227105 353.21288 
L 435.525152 353.204492 
L 453.823199 353.209912 
L 472.121246 353.144846 
L 490.419292 353.063649 
L 508.717339 353.223644 
L 527.015386 353.207268 
L 545.313432 353.223849 
L 563.611479 353.062375 
L 581.909526 347.272496 
L 600.207572 353.214188 
L 618.505619 351.741845 
L 636.803666 351.820383 
L 655.101712 353.164393 
L 673.399759 353.188522 
L 691.697806 353.22354 
L 709.995852 353.095304 
L 728.293899 353.112974 
L 746.591946 353.223719 
L 764.889993 353.223874 
L 783.188039 353.187405 
L 801.486086 353.221309 
L 819.784133 353.131065 
L 838.082179 353.091894 
L 856.380226 353.221848 
L 874.678273 350.309839 
L 892.976319 353.097264 
L 911.274366 353.115856 
L 929.572413 351.144412 
L 947.870459 353.175926 
" clip-path="url(#p4c7b0859b8)" style="fill: none; stroke: #5cb85c; stroke-linecap: square"/>
   </g>
   <g id="line2d_19">
    <path d="M 42.117148 283.410129 
L 51.266172 276.021106 
L 60.415195 279.613408 
L 69.564218 283.411765 
L 78.713242 283.41034 
L 87.862265 283.411607 
L 97.011288 283.411765 
L 106.160312 283.411765 
L 115.309335 283.411765 
L 124.458358 283.27918 
L 142.756405 283.411659 
L 161.054452 283.409786 
L 179.352499 283.403373 
L 197.650545 283.411765 
L 215.948592 283.411765 
L 234.246639 283.409099 
L 252.544685 283.367324 
L 270.842732 283.248805 
L 289.140779 282.768686 
L 307.438825 282.124551 
L 325.736872 281.106967 
L 344.034919 279.147249 
L 362.332965 353.222989 
L 380.631012 353.155528 
L 398.929059 353.105721 
L 417.227105 353.212091 
L 435.525152 353.20405 
L 453.823199 353.209842 
L 472.121246 353.146157 
L 490.419292 353.071892 
L 508.717339 353.223685 
L 527.015386 353.207855 
L 545.313432 353.223792 
L 563.611479 353.065621 
L 581.909526 347.253454 
L 600.207572 353.214608 
L 618.505619 351.736839 
L 636.803666 351.809129 
L 655.101712 353.164876 
L 673.399759 353.189512 
L 691.697806 353.223517 
L 709.995852 353.098701 
L 728.293899 353.109307 
L 746.591946 353.223707 
L 764.889993 353.223872 
L 783.188039 353.188302 
L 801.486086 353.221604 
L 819.784133 353.132252 
L 838.082179 353.100146 
L 856.380226 353.221701 
L 874.678273 350.331054 
L 892.976319 353.094883 
L 911.274366 353.114197 
L 929.572413 351.1334 
L 947.870459 353.176169 
" clip-path="url(#p4c7b0859b8)" style="fill: none; stroke: #5cb85c; stroke-linecap: square"/>
   </g>
   <g id="line2d_20">
    <path d="M 42.117148 229.120139 
L 51.266172 221.827511 
L 60.415195 225.380225 
L 69.564218 229.122132 
L 78.713242 229.120637 
L 87.862265 229.122041 
L 97.011288 229.122132 
L 106.160312 229.122132 
L 115.309335 229.122132 
L 124.458358 228.992546 
L 142.756405 229.122109 
L 161.054452 229.120026 
L 179.352499 229.114545 
L 197.650545 229.122132 
L 215.948592 229.122132 
L 234.246639 229.119641 
L 252.544685 229.079375 
L 270.842732 229.06667 
L 289.140779 229.025339 
L 307.438825 228.802878 
L 325.736872 228.630716 
L 344.034919 228.392403 
L 362.332965 353.223133 
L 380.631012 353.156491 
L 398.929059 353.102922 
L 417.227105 353.213833 
L 435.525152 353.202738 
L 453.823199 353.208804 
L 472.121246 353.146514 
L 490.419292 353.069749 
L 508.717339 353.223295 
L 527.015386 353.207615 
L 545.313432 353.22376 
L 563.611479 353.067987 
L 581.909526 347.303586 
L 600.207572 353.215111 
L 618.505619 351.737249 
L 636.803666 351.822239 
L 655.101712 353.166407 
L 673.399759 353.190387 
L 691.697806 353.223593 
L 709.995852 353.098727 
L 728.293899 353.11348 
L 746.591946 353.223805 
L 764.889993 353.223876 
L 783.188039 353.190608 
L 801.486086 353.221088 
L 819.784133 353.134262 
L 838.082179 353.097827 
L 856.380226 353.222158 
L 874.678273 350.271806 
L 892.976319 353.101164 
L 911.274366 353.118638 
L 929.572413 351.151547 
L 947.870459 353.177426 
" clip-path="url(#p4c7b0859b8)" style="fill: none; stroke: #5cb85c; stroke-linecap: square"/>
   </g>
   <g id="line2d_21">
    <path d="M 42.117148 257.173688 
L 51.266172 249.824308 
L 60.415195 253.382763 
L 69.564218 257.176077 
L 78.713242 257.174261 
L 87.862265 257.175933 
L 97.011288 257.176077 
L 106.160312 257.176077 
L 115.309335 257.176077 
L 124.458358 257.050216 
L 142.756405 257.176053 
L 161.054452 257.173664 
L 179.352499 257.167812 
L 197.650545 257.176077 
L 215.948592 257.176077 
L 234.246639 257.17321 
L 252.544685 257.134824 
L 270.842732 257.128135 
L 289.140779 257.109408 
L 307.438825 257.024083 
L 325.736872 257.004687 
L 344.034919 256.891486 
L 362.332965 353.222925 
L 380.631012 353.15971 
L 398.929059 353.100778 
L 417.227105 353.212981 
L 435.525152 353.20206 
L 453.823199 353.208859 
L 472.121246 353.144002 
L 490.419292 353.066804 
L 508.717339 353.223534 
L 527.015386 353.207186 
L 545.313432 353.223802 
L 563.611479 353.063311 
L 581.909526 347.203333 
L 600.207572 353.21544 
L 618.505619 351.761692 
L 636.803666 351.812525 
L 655.101712 353.163038 
L 673.399759 353.18803 
L 691.697806 353.223605 
L 709.995852 353.097549 
L 728.293899 353.110882 
L 746.591946 353.223751 
L 764.889993 353.2239 
L 783.188039 353.192556 
L 801.486086 353.221511 
L 819.784133 353.135236 
L 838.082179 353.094623 
L 856.380226 353.222179 
L 874.678273 350.367548 
L 892.976319 353.096331 
L 911.274366 353.114055 
L 929.572413 351.13887 
L 947.870459 353.178976 
" clip-path="url(#p4c7b0859b8)" style="fill: none; stroke: #5cb85c; stroke-linecap: square"/>
   </g>
   <g id="line2d_22">
    <path d="M 42.117148 287.852999 
L 51.266172 280.505709 
L 60.415195 284.032921 
L 69.564218 287.854757 
L 78.713242 287.852699 
L 87.862265 287.854671 
L 97.011288 287.854757 
L 106.160312 287.854757 
L 115.309335 287.854757 
L 124.458358 287.727206 
L 142.756405 287.854692 
L 161.054452 287.853192 
L 179.352499 287.847019 
L 197.650545 287.854757 
L 215.948592 287.854757 
L 234.246639 287.850856 
L 252.544685 287.810025 
L 270.842732 287.793864 
L 289.140779 287.766365 
L 307.438825 287.66327 
L 325.736872 287.622868 
L 344.034919 287.47875 
L 362.332965 353.223205 
L 380.631012 353.162584 
L 398.929059 353.10015 
L 417.227105 353.212143 
L 435.525152 353.202665 
L 453.823199 353.208857 
L 472.121246 353.143776 
L 490.419292 353.066698 
L 508.717339 353.223465 
L 527.015386 353.207379 
L 545.313432 353.223769 
L 563.611479 353.06114 
L 581.909526 347.249421 
L 600.207572 353.215715 
L 618.505619 351.745563 
L 636.803666 351.818981 
L 655.101712 353.160101 
L 673.399759 353.19044 
L 691.697806 353.223856 
L 709.995852 353.095906 
L 728.293899 353.113902 
L 746.591946 353.223833 
L 764.889993 353.2239 
L 783.188039 353.1932 
L 801.486086 353.221266 
L 819.784133 353.131889 
L 838.082179 353.095953 
L 856.380226 353.222036 
L 874.678273 350.319801 
L 892.976319 353.095545 
L 911.274366 353.11381 
L 929.572413 351.141665 
L 947.870459 353.181377 
" clip-path="url(#p4c7b0859b8)" style="fill: none; stroke: #5cb85c; stroke-linecap: square"/>
   </g>
   <g id="line2d_23">
    <path d="M 42.117148 339.480869 
L 51.266172 332.026857 
L 60.415195 335.619395 
L 69.564218 339.483301 
L 78.713242 339.481604 
L 87.862265 339.483244 
L 97.011288 339.483301 
L 106.160312 339.483301 
L 115.309335 339.483301 
L 124.458358 339.355337 
L 142.756405 339.483216 
L 161.054452 339.48118 
L 179.352499 339.476316 
L 197.650545 339.483301 
L 215.948592 339.483301 
L 234.246639 339.482594 
L 252.544685 339.450723 
L 270.842732 339.456011 
L 289.140779 339.45259 
L 307.438825 339.382146 
L 325.736872 339.383249 
L 344.034919 339.306895 
L 362.332965 353.223304 
L 380.631012 353.159974 
L 398.929059 353.100214 
L 417.227105 353.213207 
L 435.525152 353.202655 
L 453.823199 353.208696 
L 472.121246 353.146085 
L 490.419292 353.067232 
L 508.717339 353.223474 
L 527.015386 353.207496 
L 545.313432 353.223815 
L 563.611479 353.06357 
L 581.909526 347.221874 
L 600.207572 353.214979 
L 618.505619 351.745376 
L 636.803666 351.805196 
L 655.101712 353.162945 
L 673.399759 353.189213 
L 691.697806 353.223558 
L 709.995852 353.096048 
L 728.293899 353.111841 
L 746.591946 353.223814 
L 764.889993 353.223843 
L 783.188039 353.191148 
L 801.486086 353.221074 
L 819.784133 353.133378 
L 838.082179 353.093937 
L 856.380226 353.222265 
L 874.678273 350.326134 
L 892.976319 353.097058 
L 911.274366 353.111871 
L 929.572413 351.161071 
L 947.870459 353.179776 
" clip-path="url(#p4c7b0859b8)" style="fill: none; stroke: #5cb85c; stroke-linecap: square"/>
   </g>
   <g id="line2d_24">
    <path d="M 42.117148 57.460066 
L 51.266172 50.397233 
L 60.415195 53.828638 
L 69.564218 57.462083 
L 78.713242 57.460308 
L 87.862265 57.462002 
L 97.011288 57.462083 
L 106.160312 57.462083 
L 115.309335 57.462083 
L 124.458358 57.338395 
L 142.756405 57.462043 
L 161.054452 57.460026 
L 179.352499 57.45444 
L 197.650545 57.462083 
L 215.948592 57.462083 
L 234.246639 57.458433 
L 252.544685 57.411886 
L 270.842732 57.401419 
L 289.140779 57.374435 
L 307.438825 57.227775 
L 325.736872 57.134097 
L 344.034919 56.968339 
L 362.332965 353.223063 
L 380.631012 353.157161 
L 398.929059 353.101194 
L 417.227105 353.212345 
L 435.525152 353.20285 
L 453.823199 353.209957 
L 472.121246 353.142998 
L 490.419292 353.067171 
L 508.717339 353.223535 
L 527.015386 353.207575 
L 545.313432 353.223728 
L 563.611479 353.062589 
L 581.909526 347.259768 
L 600.207572 353.215403 
L 618.505619 351.736182 
L 636.803666 351.810344 
L 655.101712 353.164039 
L 673.399759 353.188353 
L 691.697806 353.223596 
L 709.995852 353.094828 
L 728.293899 353.111707 
L 746.591946 353.223812 
L 764.889993 353.223878 
L 783.188039 353.191802 
L 801.486086 353.221337 
L 819.784133 353.132318 
L 838.082179 353.094695 
L 856.380226 353.222187 
L 874.678273 350.328669 
L 892.976319 353.095162 
L 911.274366 353.115445 
L 929.572413 351.141464 
L 947.870459 353.178605 
" clip-path="url(#p4c7b0859b8)" style="fill: none; stroke: #f0ad4e; stroke-linecap: square"/>
   </g>
   <g id="line2d_25">
    <path d="M 42.117148 318.122757 
L 51.266172 310.695629 
L 60.415195 314.275014 
L 69.564218 318.125401 
L 78.713242 318.124079 
L 87.862265 318.125221 
L 97.011288 318.125401 
L 106.160312 318.125401 
L 115.309335 318.125401 
L 124.458358 317.994948 
L 142.756405 318.125371 
L 161.054452 318.123508 
L 179.352499 318.117529 
L 197.650545 318.125401 
L 215.948592 318.125401 
L 234.246639 318.123718 
L 252.544685 318.092382 
L 270.842732 318.094125 
L 289.140779 318.081596 
L 307.438825 317.994948 
L 325.736872 317.968328 
L 344.034919 317.838686 
L 362.332965 353.223113 
L 380.631012 353.160674 
L 398.929059 353.101073 
L 417.227105 353.211943 
L 435.525152 353.203708 
L 453.823199 353.208883 
L 472.121246 353.143503 
L 490.419292 353.065409 
L 508.717339 353.223506 
L 527.015386 353.208386 
L 545.313432 353.223839 
L 563.611479 353.062469 
L 581.909526 347.300047 
L 600.207572 353.216101 
L 618.505619 351.729908 
L 636.803666 351.798177 
L 655.101712 353.162231 
L 673.399759 353.190787 
L 691.697806 353.223626 
L 709.995852 353.096399 
L 728.293899 353.110477 
L 746.591946 353.223747 
L 764.889993 353.223869 
L 783.188039 353.192987 
L 801.486086 353.221219 
L 819.784133 353.132622 
L 838.082179 353.094917 
L 856.380226 353.222529 
L 874.678273 350.26677 
L 892.976319 353.095727 
L 911.274366 353.114353 
L 929.572413 351.131164 
L 947.870459 353.182097 
" clip-path="url(#p4c7b0859b8)" style="fill: none; stroke: #5cb85c; stroke-linecap: square"/>
   </g>
   <g id="line2d_26">
    <path d="M 32.968125 353.2239 
L 993.158125 353.2239 
" clip-path="url(#p4c7b0859b8)" style="fill: none; stroke: #dedede; stroke-width: 2; stroke-linecap: square"/>
   </g>
   <g id="text_16">
    <!-- FastQC: Per Base N Content -->
    <g transform="translate(402.209375 19.3575) scale(0.16 -0.16)">
     <defs>
      <path id="DejaVuSans-46" d="M 628 4666 
L 3309 4666 
L 3309 4134 
L 1259 4134 
L 1259 2759 
L 3109 2759 
L 3109 2228 
L 1259 2228 
L 1259 0 
L 628 0 
L 628 4666 
z
" transform="scale(0.015625)"/>
      <path id="DejaVuSans-51" d="M 2522 4238 
Q 1834 4238 1429 3725 
Q 1025 3213 1025 2328 
Q 1025 1447 1429 934 
Q 1834 422 2522 422 
Q 3209 422 3611 934 
Q 4013 1447 4013 2328 
Q 4013 3213 3611 3725 
Q 3209 4238 2522 4238 
z
M 3406 84 
L 4238 -825 
L 3475 -825 
L 2784 -78 
Q 2681 -84 2626 -87 
Q 2572 -91 2522 -91 
Q 1538 -91 948 567 
Q 359 1225 359 2328 
Q 359 3434 948 4092 
Q 1538 4750 2522 4750 
Q 3503 4750 4090 4092 
Q 4678 3434 4678 2328 
Q 4678 1516 4351 937 
Q 4025 359 3406 84 
z
" transform="scale(0.015625)"/>
      <path id="DejaVuSans-3a" d="M 750 794 
L 1409 794 
L 1409 0 
L 750 0 
L 750 794 
z
M 750 3309 
L 1409 3309 
L 1409 2516 
L 750 2516 
L 750 3309 
z
" transform="scale(0.015625)"/>
      <path id="DejaVuSans-42" d="M 1259 2228 
L 1259 519 
L 2272 519 
Q 2781 519 3026 730 
Q 3272 941 3272 1375 
Q 3272 1813 3026 2020 
Q 2781 2228 2272 2228 
L 1259 2228 
z
M 1259 4147 
L 1259 2741 
L 2194 2741 
Q 2656 2741 2882 2914 
Q 3109 3088 3109 3444 
Q 3109 3797 2882 3972 
Q 2656 4147 2194 4147 
L 1259 4147 
z
M 628 4666 
L 2241 4666 
Q 2963 4666 3353 4366 
Q 3744 4066 3744 3513 
Q 3744 3084 3544 2831 
Q 3344 2578 2956 2516 
Q 3422 2416 3680 2098 
Q 3938 1781 3938 1306 
Q 3938 681 3513 340 
Q 3088 0 2303 0 
L 628 0 
L 628 4666 
z
" transform="scale(0.015625)"/>
     </defs>
     <use xlink:href="#DejaVuSans-46"/>
     <use xlink:href="#DejaVuSans-61" x="48.394531"/>
     <use xlink:href="#DejaVuSans-73" x="109.673828"/>
     <use xlink:href="#DejaVuSans-74" x="161.773438"/>
     <use xlink:href="#DejaVuSans-51" x="200.982422"/>
     <use xlink:href="#DejaVuSans-43" x="279.693359"/>
     <use xlink:href="#DejaVuSans-3a" x="349.517578"/>
     <use xlink:href="#DejaVuSans-20" x="383.208984"/>
     <use xlink:href="#DejaVuSans-50" x="414.996094"/>
     <use xlink:href="#DejaVuSans-65" x="471.673828"/>
     <use xlink:href="#DejaVuSans-72" x="533.197266"/>
     <use xlink:href="#DejaVuSans-20" x="574.310547"/>
     <use xlink:href="#DejaVuSans-42" x="606.097656"/>
     <use xlink:href="#DejaVuSans-61" x="674.701172"/>
     <use xlink:href="#DejaVuSans-73" x="735.980469"/>
     <use xlink:href="#DejaVuSans-65" x="788.080078"/>
     <use xlink:href="#DejaVuSans-20" x="849.603516"/>
     <use xlink:href="#DejaVuSans-4e" x="881.390625"/>
     <use xlink:href="#DejaVuSans-20" x="956.195312"/>
     <use xlink:href="#DejaVuSans-43" x="987.982422"/>
     <use xlink:href="#DejaVuSans-6f" x="1057.806641"/>
     <use xlink:href="#DejaVuSans-6e" x="1118.988281"/>
     <use xlink:href="#DejaVuSans-74" x="1182.367188"/>
     <use xlink:href="#DejaVuSans-65" x="1221.576172"/>
     <use xlink:href="#DejaVuSans-6e" x="1283.099609"/>
     <use xlink:href="#DejaVuSans-74" x="1346.478516"/>
    </g>
   </g>
  </g>
 </g>
 <defs>
  <clipPath id="p4c7b0859b8">
   <rect x="32.968125" y="35.2559" width="960.19" height="317.968"/>
  </clipPath>
 </defs>
</svg>
