<?xml version="1.0" encoding="utf-8" standalone="no"?>
<!DOCTYPE svg PUBLIC "-//W3C//DTD SVG 1.1//EN"
  "http://www.w3.org/Graphics/SVG/1.1/DTD/svg11.dtd">
<svg xmlns:xlink="http://www.w3.org/1999/xlink" width="1000.358125pt" height="388.844525pt" viewBox="0 0 1000.358125 388.844525" xmlns="http://www.w3.org/2000/svg" version="1.1">
 <metadata>
  <rdf:RDF xmlns:dc="http://purl.org/dc/elements/1.1/" xmlns:cc="http://creativecommons.org/ns#" xmlns:rdf="http://www.w3.org/1999/02/22-rdf-syntax-ns#">
   <cc:Work>
    <dc:type rdf:resource="http://purl.org/dc/dcmitype/StillImage"/>
    <dc:date>2025-03-11T15:51:17.409753</dc:date>
    <dc:format>image/svg+xml</dc:format>
    <dc:creator>
     <cc:Agent>
      <dc:title>Matplotlib v3.8.2, https://matplotlib.org/</dc:title>
     </cc:Agent>
    </dc:creator>
   </cc:Work>
  </rdf:RDF>
 </metadata>
 <defs>
  <style type="text/css">*{stroke-linejoin: round; stroke-linecap: butt}</style>
 </defs>
 <g id="figure_1">
  <g id="axes_1">
   <g id="patch_1">
    <path d="M 32.968125 353.2239 
L 993.158125 353.2239 
L 993.158125 35.2559 
L 32.968125 35.2559 
z
" style="fill: #ffffff"/>
   </g>
   <g id="matplotlib.axis_1">
    <g id="xtick_1">
     <g id="text_1">
      <!-- 20 -->
      <g transform="translate(71.523125 366.30265) scale(0.08 -0.08)">
       <defs>
        <path id="DejaVuSans-32" d="M 1228 531 
L 3431 531 
L 3431 0 
L 469 0 
L 469 531 
Q 828 903 1448 1529 
Q 2069 2156 2228 2338 
Q 2531 2678 2651 2914 
Q 2772 3150 2772 3378 
Q 2772 3750 2511 3984 
Q 2250 4219 1831 4219 
Q 1534 4219 1204 4116 
Q 875 4013 500 3803 
L 500 4441 
Q 881 4594 1212 4672 
Q 1544 4750 1819 4750 
Q 2544 4750 2975 4387 
Q 3406 4025 3406 3419 
Q 3406 3131 3298 2873 
Q 3191 2616 2906 2266 
Q 2828 2175 2409 1742 
Q 1991 1309 1228 531 
z
" transform="scale(0.015625)"/>
        <path id="DejaVuSans-30" d="M 2034 4250 
Q 1547 4250 1301 3770 
Q 1056 3291 1056 2328 
Q 1056 1369 1301 889 
Q 1547 409 2034 409 
Q 2525 409 2770 889 
Q 3016 1369 3016 2328 
Q 3016 3291 2770 3770 
Q 2525 4250 2034 4250 
z
M 2034 4750 
Q 2819 4750 3233 4129 
Q 3647 3509 3647 2328 
Q 3647 1150 3233 529 
Q 2819 -91 2034 -91 
Q 1250 -91 836 529 
Q 422 1150 422 2328 
Q 422 3509 836 4129 
Q 1250 4750 2034 4750 
z
" transform="scale(0.015625)"/>
       </defs>
       <use xlink:href="#DejaVuSans-32"/>
       <use xlink:href="#DejaVuSans-30" x="63.623047"/>
      </g>
     </g>
    </g>
    <g id="xtick_2">
     <g id="text_2">
      <!-- 30 -->
      <g transform="translate(180.635625 366.30265) scale(0.08 -0.08)">
       <defs>
        <path id="DejaVuSans-33" d="M 2597 2516 
Q 3050 2419 3304 2112 
Q 3559 1806 3559 1356 
Q 3559 666 3084 287 
Q 2609 -91 1734 -91 
Q 1441 -91 1130 -33 
Q 819 25 488 141 
L 488 750 
Q 750 597 1062 519 
Q 1375 441 1716 441 
Q 2309 441 2620 675 
Q 2931 909 2931 1356 
Q 2931 1769 2642 2001 
Q 2353 2234 1838 2234 
L 1294 2234 
L 1294 2753 
L 1863 2753 
Q 2328 2753 2575 2939 
Q 2822 3125 2822 3475 
Q 2822 3834 2567 4026 
Q 2313 4219 1838 4219 
Q 1578 4219 1281 4162 
Q 984 4106 628 3988 
L 628 4550 
Q 988 4650 1302 4700 
Q 1616 4750 1894 4750 
Q 2613 4750 3031 4423 
Q 3450 4097 3450 3541 
Q 3450 3153 3228 2886 
Q 3006 2619 2597 2516 
z
" transform="scale(0.015625)"/>
       </defs>
       <use xlink:href="#DejaVuSans-33"/>
       <use xlink:href="#DejaVuSans-30" x="63.623047"/>
      </g>
     </g>
    </g>
    <g id="xtick_3">
     <g id="text_3">
      <!-- 40 -->
      <g transform="translate(289.748125 366.30265) scale(0.08 -0.08)">
       <defs>
        <path id="DejaVuSans-34" d="M 2419 4116 
L 825 1625 
L 2419 1625 
L 2419 4116 
z
M 2253 4666 
L 3047 4666 
L 3047 1625 
L 3713 1625 
L 3713 1100 
L 3047 1100 
L 3047 0 
L 2419 0 
L 2419 1100 
L 313 1100 
L 313 1709 
L 2253 4666 
z
" transform="scale(0.015625)"/>
       </defs>
       <use xlink:href="#DejaVuSans-34"/>
       <use xlink:href="#DejaVuSans-30" x="63.623047"/>
      </g>
     </g>
    </g>
    <g id="xtick_4">
     <g id="text_4">
      <!-- 50 -->
      <g transform="translate(398.860625 366.30265) scale(0.08 -0.08)">
       <defs>
        <path id="DejaVuSans-35" d="M 691 4666 
L 3169 4666 
L 3169 4134 
L 1269 4134 
L 1269 2991 
Q 1406 3038 1543 3061 
Q 1681 3084 1819 3084 
Q 2600 3084 3056 2656 
Q 3513 2228 3513 1497 
Q 3513 744 3044 326 
Q 2575 -91 1722 -91 
Q 1428 -91 1123 -41 
Q 819 9 494 109 
L 494 744 
Q 775 591 1075 516 
Q 1375 441 1709 441 
Q 2250 441 2565 725 
Q 2881 1009 2881 1497 
Q 2881 1984 2565 2268 
Q 2250 2553 1709 2553 
Q 1456 2553 1204 2497 
Q 953 2441 691 2322 
L 691 4666 
z
" transform="scale(0.015625)"/>
       </defs>
       <use xlink:href="#DejaVuSans-35"/>
       <use xlink:href="#DejaVuSans-30" x="63.623047"/>
      </g>
     </g>
    </g>
    <g id="xtick_5">
     <g id="text_5">
      <!-- 60 -->
      <g transform="translate(507.973125 366.30265) scale(0.08 -0.08)">
       <defs>
        <path id="DejaVuSans-36" d="M 2113 2584 
Q 1688 2584 1439 2293 
Q 1191 2003 1191 1497 
Q 1191 994 1439 701 
Q 1688 409 2113 409 
Q 2538 409 2786 701 
Q 3034 994 3034 1497 
Q 3034 2003 2786 2293 
Q 2538 2584 2113 2584 
z
M 3366 4563 
L 3366 3988 
Q 3128 4100 2886 4159 
Q 2644 4219 2406 4219 
Q 1781 4219 1451 3797 
Q 1122 3375 1075 2522 
Q 1259 2794 1537 2939 
Q 1816 3084 2150 3084 
Q 2853 3084 3261 2657 
Q 3669 2231 3669 1497 
Q 3669 778 3244 343 
Q 2819 -91 2113 -91 
Q 1303 -91 875 529 
Q 447 1150 447 2328 
Q 447 3434 972 4092 
Q 1497 4750 2381 4750 
Q 2619 4750 2861 4703 
Q 3103 4656 3366 4563 
z
" transform="scale(0.015625)"/>
       </defs>
       <use xlink:href="#DejaVuSans-36"/>
       <use xlink:href="#DejaVuSans-30" x="63.623047"/>
      </g>
     </g>
    </g>
    <g id="xtick_6">
     <g id="text_6">
      <!-- 70 -->
      <g transform="translate(617.085625 366.30265) scale(0.08 -0.08)">
       <defs>
        <path id="DejaVuSans-37" d="M 525 4666 
L 3525 4666 
L 3525 4397 
L 1831 0 
L 1172 0 
L 2766 4134 
L 525 4134 
L 525 4666 
z
" transform="scale(0.015625)"/>
       </defs>
       <use xlink:href="#DejaVuSans-37"/>
       <use xlink:href="#DejaVuSans-30" x="63.623047"/>
      </g>
     </g>
    </g>
    <g id="xtick_7">
     <g id="text_7">
      <!-- 80 -->
      <g transform="translate(726.198125 366.30265) scale(0.08 -0.08)">
       <defs>
        <path id="DejaVuSans-38" d="M 2034 2216 
Q 1584 2216 1326 1975 
Q 1069 1734 1069 1313 
Q 1069 891 1326 650 
Q 1584 409 2034 409 
Q 2484 409 2743 651 
Q 3003 894 3003 1313 
Q 3003 1734 2745 1975 
Q 2488 2216 2034 2216 
z
M 1403 2484 
Q 997 2584 770 2862 
Q 544 3141 544 3541 
Q 544 4100 942 4425 
Q 1341 4750 2034 4750 
Q 2731 4750 3128 4425 
Q 3525 4100 3525 3541 
Q 3525 3141 3298 2862 
Q 3072 2584 2669 2484 
Q 3125 2378 3379 2068 
Q 3634 1759 3634 1313 
Q 3634 634 3220 271 
Q 2806 -91 2034 -91 
Q 1263 -91 848 271 
Q 434 634 434 1313 
Q 434 1759 690 2068 
Q 947 2378 1403 2484 
z
M 1172 3481 
Q 1172 3119 1398 2916 
Q 1625 2713 2034 2713 
Q 2441 2713 2670 2916 
Q 2900 3119 2900 3481 
Q 2900 3844 2670 4047 
Q 2441 4250 2034 4250 
Q 1625 4250 1398 4047 
Q 1172 3844 1172 3481 
z
" transform="scale(0.015625)"/>
       </defs>
       <use xlink:href="#DejaVuSans-38"/>
       <use xlink:href="#DejaVuSans-30" x="63.623047"/>
      </g>
     </g>
    </g>
    <g id="xtick_8">
     <g id="text_8">
      <!-- 90 -->
      <g transform="translate(835.310625 366.30265) scale(0.08 -0.08)">
       <defs>
        <path id="DejaVuSans-39" d="M 703 97 
L 703 672 
Q 941 559 1184 500 
Q 1428 441 1663 441 
Q 2288 441 2617 861 
Q 2947 1281 2994 2138 
Q 2813 1869 2534 1725 
Q 2256 1581 1919 1581 
Q 1219 1581 811 2004 
Q 403 2428 403 3163 
Q 403 3881 828 4315 
Q 1253 4750 1959 4750 
Q 2769 4750 3195 4129 
Q 3622 3509 3622 2328 
Q 3622 1225 3098 567 
Q 2575 -91 1691 -91 
Q 1453 -91 1209 -44 
Q 966 3 703 97 
z
M 1959 2075 
Q 2384 2075 2632 2365 
Q 2881 2656 2881 3163 
Q 2881 3666 2632 3958 
Q 2384 4250 1959 4250 
Q 1534 4250 1286 3958 
Q 1038 3666 1038 3163 
Q 1038 2656 1286 2365 
Q 1534 2075 1959 2075 
z
" transform="scale(0.015625)"/>
       </defs>
       <use xlink:href="#DejaVuSans-39"/>
       <use xlink:href="#DejaVuSans-30" x="63.623047"/>
      </g>
     </g>
    </g>
    <g id="xtick_9">
     <g id="text_9">
      <!-- 100 -->
      <g transform="translate(941.878125 366.30265) scale(0.08 -0.08)">
       <defs>
        <path id="DejaVuSans-31" d="M 794 531 
L 1825 531 
L 1825 4091 
L 703 3866 
L 703 4441 
L 1819 4666 
L 2450 4666 
L 2450 531 
L 3481 531 
L 3481 0 
L 794 0 
L 794 531 
z
" transform="scale(0.015625)"/>
       </defs>
       <use xlink:href="#DejaVuSans-31"/>
       <use xlink:href="#DejaVuSans-30" x="63.623047"/>
       <use xlink:href="#DejaVuSans-30" x="127.246094"/>
      </g>
     </g>
    </g>
    <g id="text_10">
     <!-- Sequence Length (bp) -->
     <g transform="translate(457.723281 379.564837) scale(0.1 -0.1)">
      <defs>
       <path id="DejaVuSans-53" d="M 3425 4513 
L 3425 3897 
Q 3066 4069 2747 4153 
Q 2428 4238 2131 4238 
Q 1616 4238 1336 4038 
Q 1056 3838 1056 3469 
Q 1056 3159 1242 3001 
Q 1428 2844 1947 2747 
L 2328 2669 
Q 3034 2534 3370 2195 
Q 3706 1856 3706 1288 
Q 3706 609 3251 259 
Q 2797 -91 1919 -91 
Q 1588 -91 1214 -16 
Q 841 59 441 206 
L 441 856 
Q 825 641 1194 531 
Q 1563 422 1919 422 
Q 2459 422 2753 634 
Q 3047 847 3047 1241 
Q 3047 1584 2836 1778 
Q 2625 1972 2144 2069 
L 1759 2144 
Q 1053 2284 737 2584 
Q 422 2884 422 3419 
Q 422 4038 858 4394 
Q 1294 4750 2059 4750 
Q 2388 4750 2728 4690 
Q 3069 4631 3425 4513 
z
" transform="scale(0.015625)"/>
       <path id="DejaVuSans-65" d="M 3597 1894 
L 3597 1613 
L 953 1613 
Q 991 1019 1311 708 
Q 1631 397 2203 397 
Q 2534 397 2845 478 
Q 3156 559 3463 722 
L 3463 178 
Q 3153 47 2828 -22 
Q 2503 -91 2169 -91 
Q 1331 -91 842 396 
Q 353 884 353 1716 
Q 353 2575 817 3079 
Q 1281 3584 2069 3584 
Q 2775 3584 3186 3129 
Q 3597 2675 3597 1894 
z
M 3022 2063 
Q 3016 2534 2758 2815 
Q 2500 3097 2075 3097 
Q 1594 3097 1305 2825 
Q 1016 2553 972 2059 
L 3022 2063 
z
" transform="scale(0.015625)"/>
       <path id="DejaVuSans-71" d="M 947 1747 
Q 947 1113 1208 752 
Q 1469 391 1925 391 
Q 2381 391 2643 752 
Q 2906 1113 2906 1747 
Q 2906 2381 2643 2742 
Q 2381 3103 1925 3103 
Q 1469 3103 1208 2742 
Q 947 2381 947 1747 
z
M 2906 525 
Q 2725 213 2448 61 
Q 2172 -91 1784 -91 
Q 1150 -91 751 415 
Q 353 922 353 1747 
Q 353 2572 751 3078 
Q 1150 3584 1784 3584 
Q 2172 3584 2448 3432 
Q 2725 3281 2906 2969 
L 2906 3500 
L 3481 3500 
L 3481 -1331 
L 2906 -1331 
L 2906 525 
z
" transform="scale(0.015625)"/>
       <path id="DejaVuSans-75" d="M 544 1381 
L 544 3500 
L 1119 3500 
L 1119 1403 
Q 1119 906 1312 657 
Q 1506 409 1894 409 
Q 2359 409 2629 706 
Q 2900 1003 2900 1516 
L 2900 3500 
L 3475 3500 
L 3475 0 
L 2900 0 
L 2900 538 
Q 2691 219 2414 64 
Q 2138 -91 1772 -91 
Q 1169 -91 856 284 
Q 544 659 544 1381 
z
M 1991 3584 
L 1991 3584 
z
" transform="scale(0.015625)"/>
       <path id="DejaVuSans-6e" d="M 3513 2113 
L 3513 0 
L 2938 0 
L 2938 2094 
Q 2938 2591 2744 2837 
Q 2550 3084 2163 3084 
Q 1697 3084 1428 2787 
Q 1159 2491 1159 1978 
L 1159 0 
L 581 0 
L 581 3500 
L 1159 3500 
L 1159 2956 
Q 1366 3272 1645 3428 
Q 1925 3584 2291 3584 
Q 2894 3584 3203 3211 
Q 3513 2838 3513 2113 
z
" transform="scale(0.015625)"/>
       <path id="DejaVuSans-63" d="M 3122 3366 
L 3122 2828 
Q 2878 2963 2633 3030 
Q 2388 3097 2138 3097 
Q 1578 3097 1268 2742 
Q 959 2388 959 1747 
Q 959 1106 1268 751 
Q 1578 397 2138 397 
Q 2388 397 2633 464 
Q 2878 531 3122 666 
L 3122 134 
Q 2881 22 2623 -34 
Q 2366 -91 2075 -91 
Q 1284 -91 818 406 
Q 353 903 353 1747 
Q 353 2603 823 3093 
Q 1294 3584 2113 3584 
Q 2378 3584 2631 3529 
Q 2884 3475 3122 3366 
z
" transform="scale(0.015625)"/>
       <path id="DejaVuSans-20" transform="scale(0.015625)"/>
       <path id="DejaVuSans-4c" d="M 628 4666 
L 1259 4666 
L 1259 531 
L 3531 531 
L 3531 0 
L 628 0 
L 628 4666 
z
" transform="scale(0.015625)"/>
       <path id="DejaVuSans-67" d="M 2906 1791 
Q 2906 2416 2648 2759 
Q 2391 3103 1925 3103 
Q 1463 3103 1205 2759 
Q 947 2416 947 1791 
Q 947 1169 1205 825 
Q 1463 481 1925 481 
Q 2391 481 2648 825 
Q 2906 1169 2906 1791 
z
M 3481 434 
Q 3481 -459 3084 -895 
Q 2688 -1331 1869 -1331 
Q 1566 -1331 1297 -1286 
Q 1028 -1241 775 -1147 
L 775 -588 
Q 1028 -725 1275 -790 
Q 1522 -856 1778 -856 
Q 2344 -856 2625 -561 
Q 2906 -266 2906 331 
L 2906 616 
Q 2728 306 2450 153 
Q 2172 0 1784 0 
Q 1141 0 747 490 
Q 353 981 353 1791 
Q 353 2603 747 3093 
Q 1141 3584 1784 3584 
Q 2172 3584 2450 3431 
Q 2728 3278 2906 2969 
L 2906 3500 
L 3481 3500 
L 3481 434 
z
" transform="scale(0.015625)"/>
       <path id="DejaVuSans-74" d="M 1172 4494 
L 1172 3500 
L 2356 3500 
L 2356 3053 
L 1172 3053 
L 1172 1153 
Q 1172 725 1289 603 
Q 1406 481 1766 481 
L 2356 481 
L 2356 0 
L 1766 0 
Q 1100 0 847 248 
Q 594 497 594 1153 
L 594 3053 
L 172 3053 
L 172 3500 
L 594 3500 
L 594 4494 
L 1172 4494 
z
" transform="scale(0.015625)"/>
       <path id="DejaVuSans-68" d="M 3513 2113 
L 3513 0 
L 2938 0 
L 2938 2094 
Q 2938 2591 2744 2837 
Q 2550 3084 2163 3084 
Q 1697 3084 1428 2787 
Q 1159 2491 1159 1978 
L 1159 0 
L 581 0 
L 581 4863 
L 1159 4863 
L 1159 2956 
Q 1366 3272 1645 3428 
Q 1925 3584 2291 3584 
Q 2894 3584 3203 3211 
Q 3513 2838 3513 2113 
z
" transform="scale(0.015625)"/>
       <path id="DejaVuSans-28" d="M 1984 4856 
Q 1566 4138 1362 3434 
Q 1159 2731 1159 2009 
Q 1159 1288 1364 580 
Q 1569 -128 1984 -844 
L 1484 -844 
Q 1016 -109 783 600 
Q 550 1309 550 2009 
Q 550 2706 781 3412 
Q 1013 4119 1484 4856 
L 1984 4856 
z
" transform="scale(0.015625)"/>
       <path id="DejaVuSans-62" d="M 3116 1747 
Q 3116 2381 2855 2742 
Q 2594 3103 2138 3103 
Q 1681 3103 1420 2742 
Q 1159 2381 1159 1747 
Q 1159 1113 1420 752 
Q 1681 391 2138 391 
Q 2594 391 2855 752 
Q 3116 1113 3116 1747 
z
M 1159 2969 
Q 1341 3281 1617 3432 
Q 1894 3584 2278 3584 
Q 2916 3584 3314 3078 
Q 3713 2572 3713 1747 
Q 3713 922 3314 415 
Q 2916 -91 2278 -91 
Q 1894 -91 1617 61 
Q 1341 213 1159 525 
L 1159 0 
L 581 0 
L 581 4863 
L 1159 4863 
L 1159 2969 
z
" transform="scale(0.015625)"/>
       <path id="DejaVuSans-70" d="M 1159 525 
L 1159 -1331 
L 581 -1331 
L 581 3500 
L 1159 3500 
L 1159 2969 
Q 1341 3281 1617 3432 
Q 1894 3584 2278 3584 
Q 2916 3584 3314 3078 
Q 3713 2572 3713 1747 
Q 3713 922 3314 415 
Q 2916 -91 2278 -91 
Q 1894 -91 1617 61 
Q 1341 213 1159 525 
z
M 3116 1747 
Q 3116 2381 2855 2742 
Q 2594 3103 2138 3103 
Q 1681 3103 1420 2742 
Q 1159 2381 1159 1747 
Q 1159 1113 1420 752 
Q 1681 391 2138 391 
Q 2594 391 2855 752 
Q 3116 1113 3116 1747 
z
" transform="scale(0.015625)"/>
       <path id="DejaVuSans-29" d="M 513 4856 
L 1013 4856 
Q 1481 4119 1714 3412 
Q 1947 2706 1947 2009 
Q 1947 1309 1714 600 
Q 1481 -109 1013 -844 
L 513 -844 
Q 928 -128 1133 580 
Q 1338 1288 1338 2009 
Q 1338 2731 1133 3434 
Q 928 4138 513 4856 
z
" transform="scale(0.015625)"/>
      </defs>
      <use xlink:href="#DejaVuSans-53"/>
      <use xlink:href="#DejaVuSans-65" x="63.476562"/>
      <use xlink:href="#DejaVuSans-71" x="125"/>
      <use xlink:href="#DejaVuSans-75" x="188.476562"/>
      <use xlink:href="#DejaVuSans-65" x="251.855469"/>
      <use xlink:href="#DejaVuSans-6e" x="313.378906"/>
      <use xlink:href="#DejaVuSans-63" x="376.757812"/>
      <use xlink:href="#DejaVuSans-65" x="431.738281"/>
      <use xlink:href="#DejaVuSans-20" x="493.261719"/>
      <use xlink:href="#DejaVuSans-4c" x="525.048828"/>
      <use xlink:href="#DejaVuSans-65" x="579.011719"/>
      <use xlink:href="#DejaVuSans-6e" x="640.535156"/>
      <use xlink:href="#DejaVuSans-67" x="703.914062"/>
      <use xlink:href="#DejaVuSans-74" x="767.390625"/>
      <use xlink:href="#DejaVuSans-68" x="806.599609"/>
      <use xlink:href="#DejaVuSans-20" x="869.978516"/>
      <use xlink:href="#DejaVuSans-28" x="901.765625"/>
      <use xlink:href="#DejaVuSans-62" x="940.779297"/>
      <use xlink:href="#DejaVuSans-70" x="1004.255859"/>
      <use xlink:href="#DejaVuSans-29" x="1067.732422"/>
     </g>
    </g>
   </g>
   <g id="matplotlib.axis_2">
    <g id="ytick_1">
     <g id="line2d_1">
      <path d="M 32.968125 353.2239 
L 993.158125 353.2239 
" clip-path="url(#pc5079bfd5b)" style="fill: none; stroke: #dedede; stroke-linecap: square"/>
     </g>
     <g id="text_11">
      <!-- 0 -->
      <g transform="translate(20.878125 356.263275) scale(0.08 -0.08)">
       <use xlink:href="#DejaVuSans-30"/>
      </g>
     </g>
    </g>
    <g id="ytick_2">
     <g id="line2d_2">
      <path d="M 32.968125 316.830621 
L 993.158125 316.830621 
" clip-path="url(#pc5079bfd5b)" style="fill: none; stroke: #dedede; stroke-linecap: square"/>
     </g>
     <g id="text_12">
      <!-- 1 -->
      <g transform="translate(20.878125 319.869996) scale(0.08 -0.08)">
       <use xlink:href="#DejaVuSans-31"/>
      </g>
     </g>
    </g>
    <g id="ytick_3">
     <g id="line2d_3">
      <path d="M 32.968125 280.437342 
L 993.158125 280.437342 
" clip-path="url(#pc5079bfd5b)" style="fill: none; stroke: #dedede; stroke-linecap: square"/>
     </g>
     <g id="text_13">
      <!-- 2 -->
      <g transform="translate(20.878125 283.476717) scale(0.08 -0.08)">
       <use xlink:href="#DejaVuSans-32"/>
      </g>
     </g>
    </g>
    <g id="ytick_4">
     <g id="line2d_4">
      <path d="M 32.968125 244.044062 
L 993.158125 244.044062 
" clip-path="url(#pc5079bfd5b)" style="fill: none; stroke: #dedede; stroke-linecap: square"/>
     </g>
     <g id="text_14">
      <!-- 3 -->
      <g transform="translate(20.878125 247.083437) scale(0.08 -0.08)">
       <use xlink:href="#DejaVuSans-33"/>
      </g>
     </g>
    </g>
    <g id="ytick_5">
     <g id="line2d_5">
      <path d="M 32.968125 207.650783 
L 993.158125 207.650783 
" clip-path="url(#pc5079bfd5b)" style="fill: none; stroke: #dedede; stroke-linecap: square"/>
     </g>
     <g id="text_15">
      <!-- 4 -->
      <g transform="translate(20.878125 210.690158) scale(0.08 -0.08)">
       <use xlink:href="#DejaVuSans-34"/>
      </g>
     </g>
    </g>
    <g id="ytick_6">
     <g id="line2d_6">
      <path d="M 32.968125 171.257504 
L 993.158125 171.257504 
" clip-path="url(#pc5079bfd5b)" style="fill: none; stroke: #dedede; stroke-linecap: square"/>
     </g>
     <g id="text_16">
      <!-- 5 -->
      <g transform="translate(20.878125 174.296879) scale(0.08 -0.08)">
       <use xlink:href="#DejaVuSans-35"/>
      </g>
     </g>
    </g>
    <g id="ytick_7">
     <g id="line2d_7">
      <path d="M 32.968125 134.864225 
L 993.158125 134.864225 
" clip-path="url(#pc5079bfd5b)" style="fill: none; stroke: #dedede; stroke-linecap: square"/>
     </g>
     <g id="text_17">
      <!-- 6 -->
      <g transform="translate(20.878125 137.9036) scale(0.08 -0.08)">
       <use xlink:href="#DejaVuSans-36"/>
      </g>
     </g>
    </g>
    <g id="ytick_8">
     <g id="line2d_8">
      <path d="M 32.968125 98.470946 
L 993.158125 98.470946 
" clip-path="url(#pc5079bfd5b)" style="fill: none; stroke: #dedede; stroke-linecap: square"/>
     </g>
     <g id="text_18">
      <!-- 7 -->
      <g transform="translate(20.878125 101.510321) scale(0.08 -0.08)">
       <use xlink:href="#DejaVuSans-37"/>
      </g>
     </g>
    </g>
    <g id="ytick_9">
     <g id="line2d_9">
      <path d="M 32.968125 62.077666 
L 993.158125 62.077666 
" clip-path="url(#pc5079bfd5b)" style="fill: none; stroke: #dedede; stroke-linecap: square"/>
     </g>
     <g id="text_19">
      <!-- 8 -->
      <g transform="translate(20.878125 65.117041) scale(0.08 -0.08)">
       <use xlink:href="#DejaVuSans-38"/>
      </g>
     </g>
    </g>
    <g id="text_20">
     <!-- Read Count -->
     <g transform="translate(14.798437 223.241463) rotate(-90) scale(0.1 -0.1)">
      <defs>
       <path id="DejaVuSans-52" d="M 2841 2188 
Q 3044 2119 3236 1894 
Q 3428 1669 3622 1275 
L 4263 0 
L 3584 0 
L 2988 1197 
Q 2756 1666 2539 1819 
Q 2322 1972 1947 1972 
L 1259 1972 
L 1259 0 
L 628 0 
L 628 4666 
L 2053 4666 
Q 2853 4666 3247 4331 
Q 3641 3997 3641 3322 
Q 3641 2881 3436 2590 
Q 3231 2300 2841 2188 
z
M 1259 4147 
L 1259 2491 
L 2053 2491 
Q 2509 2491 2742 2702 
Q 2975 2913 2975 3322 
Q 2975 3731 2742 3939 
Q 2509 4147 2053 4147 
L 1259 4147 
z
" transform="scale(0.015625)"/>
       <path id="DejaVuSans-61" d="M 2194 1759 
Q 1497 1759 1228 1600 
Q 959 1441 959 1056 
Q 959 750 1161 570 
Q 1363 391 1709 391 
Q 2188 391 2477 730 
Q 2766 1069 2766 1631 
L 2766 1759 
L 2194 1759 
z
M 3341 1997 
L 3341 0 
L 2766 0 
L 2766 531 
Q 2569 213 2275 61 
Q 1981 -91 1556 -91 
Q 1019 -91 701 211 
Q 384 513 384 1019 
Q 384 1609 779 1909 
Q 1175 2209 1959 2209 
L 2766 2209 
L 2766 2266 
Q 2766 2663 2505 2880 
Q 2244 3097 1772 3097 
Q 1472 3097 1187 3025 
Q 903 2953 641 2809 
L 641 3341 
Q 956 3463 1253 3523 
Q 1550 3584 1831 3584 
Q 2591 3584 2966 3190 
Q 3341 2797 3341 1997 
z
" transform="scale(0.015625)"/>
       <path id="DejaVuSans-64" d="M 2906 2969 
L 2906 4863 
L 3481 4863 
L 3481 0 
L 2906 0 
L 2906 525 
Q 2725 213 2448 61 
Q 2172 -91 1784 -91 
Q 1150 -91 751 415 
Q 353 922 353 1747 
Q 353 2572 751 3078 
Q 1150 3584 1784 3584 
Q 2172 3584 2448 3432 
Q 2725 3281 2906 2969 
z
M 947 1747 
Q 947 1113 1208 752 
Q 1469 391 1925 391 
Q 2381 391 2643 752 
Q 2906 1113 2906 1747 
Q 2906 2381 2643 2742 
Q 2381 3103 1925 3103 
Q 1469 3103 1208 2742 
Q 947 2381 947 1747 
z
" transform="scale(0.015625)"/>
       <path id="DejaVuSans-43" d="M 4122 4306 
L 4122 3641 
Q 3803 3938 3442 4084 
Q 3081 4231 2675 4231 
Q 1875 4231 1450 3742 
Q 1025 3253 1025 2328 
Q 1025 1406 1450 917 
Q 1875 428 2675 428 
Q 3081 428 3442 575 
Q 3803 722 4122 1019 
L 4122 359 
Q 3791 134 3420 21 
Q 3050 -91 2638 -91 
Q 1578 -91 968 557 
Q 359 1206 359 2328 
Q 359 3453 968 4101 
Q 1578 4750 2638 4750 
Q 3056 4750 3426 4639 
Q 3797 4528 4122 4306 
z
" transform="scale(0.015625)"/>
       <path id="DejaVuSans-6f" d="M 1959 3097 
Q 1497 3097 1228 2736 
Q 959 2375 959 1747 
Q 959 1119 1226 758 
Q 1494 397 1959 397 
Q 2419 397 2687 759 
Q 2956 1122 2956 1747 
Q 2956 2369 2687 2733 
Q 2419 3097 1959 3097 
z
M 1959 3584 
Q 2709 3584 3137 3096 
Q 3566 2609 3566 1747 
Q 3566 888 3137 398 
Q 2709 -91 1959 -91 
Q 1206 -91 779 398 
Q 353 888 353 1747 
Q 353 2609 779 3096 
Q 1206 3584 1959 3584 
z
" transform="scale(0.015625)"/>
      </defs>
      <use xlink:href="#DejaVuSans-52"/>
      <use xlink:href="#DejaVuSans-65" x="64.982422"/>
      <use xlink:href="#DejaVuSans-61" x="126.505859"/>
      <use xlink:href="#DejaVuSans-64" x="187.785156"/>
      <use xlink:href="#DejaVuSans-20" x="251.261719"/>
      <use xlink:href="#DejaVuSans-43" x="283.048828"/>
      <use xlink:href="#DejaVuSans-6f" x="352.873047"/>
      <use xlink:href="#DejaVuSans-75" x="414.054688"/>
      <use xlink:href="#DejaVuSans-6e" x="477.433594"/>
      <use xlink:href="#DejaVuSans-74" x="540.8125"/>
     </g>
    </g>
    <g id="text_21">
     <!-- 1e7 -->
     <g transform="translate(32.968125 32.2559) scale(0.1 -0.1)">
      <use xlink:href="#DejaVuSans-31"/>
      <use xlink:href="#DejaVuSans-65" x="63.623047"/>
      <use xlink:href="#DejaVuSans-37" x="125.146484"/>
     </g>
    </g>
   </g>
   <g id="line2d_10">
    <path d="M 76.613125 353.192776 
L 98.435625 353.185563 
L 120.258125 353.175948 
L 142.080625 353.179638 
L 163.903125 353.181091 
L 185.725625 353.180144 
L 207.548125 353.177459 
L 229.370625 353.176207 
L 251.193125 353.174442 
L 273.015625 353.168677 
L 294.838125 353.160729 
L 316.660625 353.148308 
L 338.483125 353.140596 
L 360.305625 353.130078 
L 382.128125 353.116856 
L 403.950625 353.094689 
L 425.773125 353.074062 
L 447.595625 353.048299 
L 469.418125 353.019887 
L 491.240625 352.985087 
L 513.063125 352.942554 
L 534.885625 352.882458 
L 556.708125 352.810287 
L 578.530625 352.738159 
L 600.353125 352.666537 
L 622.175625 352.569367 
L 643.998125 352.445178 
L 665.820625 352.27132 
L 687.643125 352.08617 
L 709.465625 351.931666 
L 731.288125 351.737042 
L 753.110625 351.489666 
L 774.933125 351.156642 
L 796.755625 350.761531 
L 818.578125 350.446638 
L 840.400625 350.171938 
L 862.223125 349.649298 
L 884.045625 348.084845 
L 905.868125 338.100611 
L 927.690625 285.686013 
L 949.513125 87.256604 
" clip-path="url(#pc5079bfd5b)" style="fill: none; stroke: #f0ad4e; stroke-linecap: square"/>
   </g>
   <g id="line2d_11">
    <path d="M 76.613125 353.194622 
L 98.435625 353.188562 
L 120.258125 353.1791 
L 142.080625 353.182546 
L 163.903125 353.184097 
L 185.725625 353.18235 
L 207.548125 353.178649 
L 229.370625 353.176021 
L 251.193125 353.171115 
L 273.015625 353.163109 
L 294.838125 353.153927 
L 316.660625 353.134831 
L 338.483125 353.125241 
L 360.305625 353.11059 
L 382.128125 353.095206 
L 403.950625 353.065502 
L 425.773125 353.036387 
L 447.595625 353.007924 
L 469.418125 352.976215 
L 491.240625 352.939396 
L 513.063125 352.885643 
L 534.885625 352.829346 
L 556.708125 352.748167 
L 578.530625 352.676527 
L 600.353125 352.606204 
L 622.175625 352.517739 
L 643.998125 352.409629 
L 665.820625 352.249543 
L 687.643125 352.068661 
L 709.465625 351.931768 
L 731.288125 351.776372 
L 753.110625 351.573217 
L 774.933125 351.276627 
L 796.755625 350.918269 
L 818.578125 350.638572 
L 840.400625 350.406118 
L 862.223125 349.97299 
L 884.045625 348.473467 
L 905.868125 338.562107 
L 927.690625 286.072655 
L 949.513125 88.310095 
" clip-path="url(#pc5079bfd5b)" style="fill: none; stroke: #f0ad4e; stroke-linecap: square"/>
   </g>
   <g id="line2d_12">
    <path d="M 76.613125 353.195477 
L 98.435625 353.189508 
L 120.258125 353.180625 
L 142.080625 353.183518 
L 163.903125 353.184581 
L 185.725625 353.181968 
L 207.548125 353.178481 
L 229.370625 353.176778 
L 251.193125 353.17533 
L 273.015625 353.168247 
L 294.838125 353.16059 
L 316.660625 353.147703 
L 338.483125 353.141535 
L 360.305625 353.13339 
L 382.128125 353.122832 
L 403.950625 353.10389 
L 425.773125 353.083775 
L 447.595625 353.064952 
L 469.418125 353.046501 
L 491.240625 353.014413 
L 513.063125 352.979588 
L 534.885625 352.937336 
L 556.708125 352.879336 
L 578.530625 352.83831 
L 600.353125 352.784786 
L 622.175625 352.7105 
L 643.998125 352.619655 
L 665.820625 352.504019 
L 687.643125 352.378091 
L 709.465625 352.26454 
L 731.288125 352.118531 
L 753.110625 351.92855 
L 774.933125 351.689352 
L 796.755625 351.425828 
L 818.578125 351.178987 
L 840.400625 350.949418 
L 862.223125 350.522059 
L 884.045625 349.180818 
L 905.868125 340.213084 
L 927.690625 291.97269 
L 949.513125 106.869987 
" clip-path="url(#pc5079bfd5b)" style="fill: none; stroke: #f0ad4e; stroke-linecap: square"/>
   </g>
   <g id="line2d_13">
    <path d="M 76.613125 353.190611 
L 98.435625 353.182979 
L 120.258125 353.173561 
L 142.080625 353.177106 
L 163.903125 353.178106 
L 185.725625 353.178241 
L 207.548125 353.175901 
L 229.370625 353.17494 
L 251.193125 353.171512 
L 273.015625 353.164113 
L 294.838125 353.158134 
L 316.660625 353.142758 
L 338.483125 353.132123 
L 360.305625 353.117603 
L 382.128125 353.10512 
L 403.950625 353.07781 
L 425.773125 353.051232 
L 447.595625 353.012764 
L 469.418125 352.97862 
L 491.240625 352.935858 
L 513.063125 352.874528 
L 534.885625 352.801607 
L 556.708125 352.700947 
L 578.530625 352.61111 
L 600.353125 352.523399 
L 622.175625 352.406143 
L 643.998125 352.239495 
L 665.820625 352.02159 
L 687.643125 351.773857 
L 709.465625 351.591454 
L 731.288125 351.369644 
L 753.110625 351.065808 
L 774.933125 350.656132 
L 796.755625 350.169267 
L 818.578125 349.80287 
L 840.400625 349.539743 
L 862.223125 348.989466 
L 884.045625 347.330587 
L 905.868125 337.037192 
L 927.690625 282.974452 
L 949.513125 78.002674 
" clip-path="url(#pc5079bfd5b)" style="fill: none; stroke: #f0ad4e; stroke-linecap: square"/>
   </g>
   <g id="line2d_14">
    <path d="M 76.613125 353.199684 
L 98.435625 353.19417 
L 120.258125 353.187605 
L 142.080625 353.190349 
L 163.903125 353.192231 
L 185.725625 353.191485 
L 207.548125 353.189909 
L 229.370625 353.188952 
L 251.193125 353.188402 
L 273.015625 353.183645 
L 294.838125 353.180192 
L 316.660625 353.174816 
L 338.483125 353.170675 
L 360.305625 353.165456 
L 382.128125 353.159324 
L 403.950625 353.147234 
L 425.773125 353.133976 
L 447.595625 353.121202 
L 469.418125 353.106324 
L 491.240625 353.086075 
L 513.063125 353.060531 
L 534.885625 353.027926 
L 556.708125 352.985841 
L 578.530625 352.947668 
L 600.353125 352.903504 
L 622.175625 352.841672 
L 643.998125 352.7668 
L 665.820625 352.665871 
L 687.643125 352.543076 
L 709.465625 352.438588 
L 731.288125 352.308332 
L 753.110625 352.144082 
L 774.933125 351.923095 
L 796.755625 351.640425 
L 818.578125 351.392354 
L 840.400625 351.196474 
L 862.223125 350.797786 
L 884.045625 349.447562 
L 905.868125 340.344479 
L 927.690625 291.445868 
L 949.513125 97.890877 
" clip-path="url(#pc5079bfd5b)" style="fill: none; stroke: #f0ad4e; stroke-linecap: square"/>
   </g>
   <g id="line2d_15">
    <path d="M 76.613125 353.192067 
L 98.435625 353.185811 
L 120.258125 353.177702 
L 142.080625 353.180687 
L 163.903125 353.183853 
L 185.725625 353.182353 
L 207.548125 353.179635 
L 229.370625 353.179118 
L 251.193125 353.177222 
L 273.015625 353.170311 
L 294.838125 353.164521 
L 316.660625 353.153588 
L 338.483125 353.147623 
L 360.305625 353.13696 
L 382.128125 353.126453 
L 403.950625 353.106735 
L 425.773125 353.08752 
L 447.595625 353.065411 
L 469.418125 353.039452 
L 491.240625 353.010872 
L 513.063125 352.968277 
L 534.885625 352.919496 
L 556.708125 352.857842 
L 578.530625 352.796119 
L 600.353125 352.727408 
L 622.175625 352.639872 
L 643.998125 352.536358 
L 665.820625 352.384147 
L 687.643125 352.206126 
L 709.465625 352.050821 
L 731.288125 351.865397 
L 753.110625 351.636345 
L 774.933125 351.327745 
L 796.755625 350.950874 
L 818.578125 350.606266 
L 840.400625 350.286009 
L 862.223125 349.77092 
L 884.045625 348.129773 
L 905.868125 337.140156 
L 927.690625 278.352633 
L 949.513125 50.396228 
" clip-path="url(#pc5079bfd5b)" style="fill: none; stroke: #f0ad4e; stroke-linecap: square"/>
   </g>
   <g id="line2d_16">
    <path d="M 76.613125 353.202239 
L 98.435625 353.198574 
L 120.258125 353.190691 
L 142.080625 353.193533 
L 163.903125 353.194953 
L 185.725625 353.19393 
L 207.548125 353.19294 
L 229.370625 353.19302 
L 251.193125 353.192449 
L 273.015625 353.18973 
L 294.838125 353.187929 
L 316.660625 353.182546 
L 338.483125 353.179526 
L 360.305625 353.175843 
L 382.128125 353.172207 
L 403.950625 353.163163 
L 425.773125 353.154756 
L 447.595625 353.145334 
L 469.418125 353.13224 
L 491.240625 353.1171 
L 513.063125 353.09886 
L 534.885625 353.07404 
L 556.708125 353.040638 
L 578.530625 353.008506 
L 600.353125 352.972815 
L 622.175625 352.927706 
L 643.998125 352.867916 
L 665.820625 352.784149 
L 687.643125 352.694312 
L 709.465625 352.61036 
L 731.288125 352.50728 
L 753.110625 352.38018 
L 774.933125 352.204735 
L 796.755625 351.994113 
L 818.578125 351.795275 
L 840.400625 351.619528 
L 862.223125 351.269191 
L 884.045625 350.084896 
L 905.868125 341.850978 
L 927.690625 297.846147 
L 949.513125 131.517451 
" clip-path="url(#pc5079bfd5b)" style="fill: none; stroke: #f0ad4e; stroke-linecap: square"/>
   </g>
   <g id="line2d_17">
    <path d="M 76.613125 353.186739 
L 98.435625 353.179253 
L 120.258125 353.168364 
L 142.080625 353.174423 
L 163.903125 353.177033 
L 185.725625 353.177462 
L 207.548125 353.175515 
L 229.370625 353.175311 
L 251.193125 353.173386 
L 273.015625 353.168622 
L 294.838125 353.161296 
L 316.660625 353.147489 
L 338.483125 353.142383 
L 360.305625 353.132407 
L 382.128125 353.123546 
L 403.950625 353.101604 
L 425.773125 353.08043 
L 447.595625 353.052822 
L 469.418125 353.028814 
L 491.240625 352.993636 
L 513.063125 352.950903 
L 534.885625 352.89445 
L 556.708125 352.815778 
L 578.530625 352.746599 
L 600.353125 352.677142 
L 622.175625 352.581126 
L 643.998125 352.451624 
L 665.820625 352.278283 
L 687.643125 352.07472 
L 709.465625 351.914699 
L 731.288125 351.7218 
L 753.110625 351.471993 
L 774.933125 351.134318 
L 796.755625 350.702148 
L 818.578125 350.379085 
L 840.400625 350.117129 
L 862.223125 349.621111 
L 884.045625 348.114771 
L 905.868125 338.46458 
L 927.690625 287.84693 
L 949.513125 90.242887 
" clip-path="url(#pc5079bfd5b)" style="fill: none; stroke: #f0ad4e; stroke-linecap: square"/>
   </g>
   <g id="line2d_18">
    <path d="M 76.613125 353.193795 
L 98.435625 353.187383 
L 120.258125 353.179511 
L 142.080625 353.18089 
L 163.903125 353.183129 
L 185.725625 353.181793 
L 207.548125 353.179049 
L 229.370625 353.178252 
L 251.193125 353.176156 
L 273.015625 353.170089 
L 294.838125 353.163491 
L 316.660625 353.148508 
L 338.483125 353.14299 
L 360.305625 353.134311 
L 382.128125 353.122796 
L 403.950625 353.101957 
L 425.773125 353.079146 
L 447.595625 353.049562 
L 469.418125 353.022864 
L 491.240625 352.988898 
L 513.063125 352.947464 
L 534.885625 352.890428 
L 556.708125 352.811226 
L 578.530625 352.736041 
L 600.353125 352.681873 
L 622.175625 352.598307 
L 643.998125 352.473452 
L 665.820625 352.29974 
L 687.643125 352.101702 
L 709.465625 351.965359 
L 731.288125 351.813005 
L 753.110625 351.58986 
L 774.933125 351.258725 
L 796.755625 350.843805 
L 818.578125 350.540427 
L 840.400625 350.335289 
L 862.223125 349.893533 
L 884.045625 348.397602 
L 905.868125 338.601033 
L 927.690625 287.341773 
L 949.513125 88.167466 
" clip-path="url(#pc5079bfd5b)" style="fill: none; stroke: #f0ad4e; stroke-linecap: square"/>
   </g>
   <g id="line2d_19">
    <path d="M 76.613125 353.191885 
L 98.435625 353.186153 
L 120.258125 353.177742 
L 142.080625 353.180843 
L 163.903125 353.182666 
L 185.725625 353.181509 
L 207.548125 353.179853 
L 229.370625 353.180352 
L 251.193125 353.178561 
L 273.015625 353.173739 
L 294.838125 353.170278 
L 316.660625 353.161828 
L 338.483125 353.156394 
L 360.305625 353.147325 
L 382.128125 353.143387 
L 403.950625 353.127389 
L 425.773125 353.114 
L 447.595625 353.094689 
L 469.418125 353.075452 
L 491.240625 353.049227 
L 513.063125 353.015832 
L 534.885625 352.977354 
L 556.708125 352.92379 
L 578.530625 352.871508 
L 600.353125 352.811284 
L 622.175625 352.739771 
L 643.998125 352.642172 
L 665.820625 352.51251 
L 687.643125 352.349508 
L 709.465625 352.213452 
L 731.288125 352.044321 
L 753.110625 351.832647 
L 774.933125 351.5652 
L 796.755625 351.195015 
L 818.578125 350.87054 
L 840.400625 350.59826 
L 862.223125 350.101895 
L 884.045625 348.446765 
L 905.868125 337.368786 
L 927.690625 277.914196 
L 949.513125 54.544265 
" clip-path="url(#pc5079bfd5b)" style="fill: none; stroke: #f0ad4e; stroke-linecap: square"/>
   </g>
   <g id="line2d_20">
    <path d="M 76.613125 353.191848 
L 98.435625 353.18525 
L 120.258125 353.176669 
L 142.080625 353.181007 
L 163.903125 353.182987 
L 185.725625 353.183321 
L 207.548125 353.182812 
L 229.370625 353.182888 
L 251.193125 353.181316 
L 273.015625 353.179096 
L 294.838125 353.175144 
L 316.660625 353.167763 
L 338.483125 353.162137 
L 360.305625 353.154385 
L 382.128125 353.150411 
L 403.950625 353.1351 
L 425.773125 353.122217 
L 447.595625 353.103806 
L 469.418125 353.086963 
L 491.240625 353.059078 
L 513.063125 353.030976 
L 534.885625 352.991482 
L 556.708125 352.934752 
L 578.530625 352.882174 
L 600.353125 352.827581 
L 622.175625 352.753389 
L 643.998125 352.657861 
L 665.820625 352.520742 
L 687.643125 352.347797 
L 709.465625 352.213048 
L 731.288125 352.056986 
L 753.110625 351.835544 
L 774.933125 351.552626 
L 796.755625 351.194101 
L 818.578125 350.896149 
L 840.400625 350.657955 
L 862.223125 350.214511 
L 884.045625 348.807186 
L 905.868125 339.75482 
L 927.690625 291.415804 
L 949.513125 106.780587 
" clip-path="url(#pc5079bfd5b)" style="fill: none; stroke: #f0ad4e; stroke-linecap: square"/>
   </g>
   <g id="line2d_21">
    <path d="M 76.613125 353.192984 
L 98.435625 353.184781 
L 120.258125 353.167429 
L 142.080625 353.148613 
L 163.903125 353.142328 
L 185.725625 353.11087 
L 207.548125 353.054198 
L 229.370625 353.074895 
L 251.193125 353.109345 
L 273.015625 353.064545 
L 294.838125 352.987475 
L 316.660625 352.909884 
L 338.483125 352.978347 
L 360.305625 353.029836 
L 382.128125 352.971018 
L 403.950625 352.87419 
L 425.773125 352.805698 
L 447.595625 352.845723 
L 469.418125 352.895185 
L 491.240625 352.814668 
L 513.063125 352.686619 
L 534.885625 352.605847 
L 556.708125 352.597943 
L 578.530625 352.637455 
L 600.353125 352.544059 
L 622.175625 352.370638 
L 643.998125 352.233359 
L 665.820625 352.178299 
L 687.643125 352.133579 
L 709.465625 351.998851 
L 731.288125 351.742435 
L 753.110625 351.517754 
L 774.933125 351.342455 
L 796.755625 351.154673 
L 818.578125 350.921534 
L 840.400625 350.621384 
L 862.223125 350.181498 
L 884.045625 348.998396 
L 905.868125 340.959212 
L 927.690625 297.023662 
L 949.513125 122.403453 
" clip-path="url(#pc5079bfd5b)" style="fill: none; stroke: #f0ad4e; stroke-linecap: square"/>
   </g>
   <g id="line2d_22">
    <path d="M 76.613125 353.188475 
L 98.435625 353.180701 
L 120.258125 353.171399 
L 142.080625 353.172644 
L 163.903125 353.172342 
L 185.725625 353.168691 
L 207.548125 353.164415 
L 229.370625 353.159491 
L 251.193125 353.155768 
L 273.015625 353.143303 
L 294.838125 353.129772 
L 316.660625 353.10699 
L 338.483125 353.096975 
L 360.305625 353.076711 
L 382.128125 353.056007 
L 403.950625 353.019745 
L 425.773125 352.988006 
L 447.595625 352.950448 
L 469.418125 352.907606 
L 491.240625 352.851895 
L 513.063125 352.785547 
L 534.885625 352.710536 
L 556.708125 352.608522 
L 578.530625 352.512164 
L 600.353125 352.415092 
L 622.175625 352.281569 
L 643.998125 352.126395 
L 665.820625 351.897853 
L 687.643125 351.65813 
L 709.465625 351.450452 
L 731.288125 351.209299 
L 753.110625 350.9264 
L 774.933125 350.528155 
L 796.755625 350.069138 
L 818.578125 349.687558 
L 840.400625 349.391913 
L 862.223125 348.873804 
L 884.045625 347.350389 
L 905.868125 337.770342 
L 927.690625 287.655424 
L 949.513125 93.202371 
" clip-path="url(#pc5079bfd5b)" style="fill: none; stroke: #f0ad4e; stroke-linecap: square"/>
   </g>
   <g id="line2d_23">
    <path d="M 76.613125 353.19385 
L 98.435625 353.186768 
L 120.258125 353.178008 
L 142.080625 353.180774 
L 163.903125 353.18204 
L 185.725625 353.182073 
L 207.548125 353.179493 
L 229.370625 353.178772 
L 251.193125 353.176472 
L 273.015625 353.169583 
L 294.838125 353.164546 
L 316.660625 353.150302 
L 338.483125 353.145807 
L 360.305625 353.133532 
L 382.128125 353.12415 
L 403.950625 353.100898 
L 425.773125 353.080823 
L 447.595625 353.05363 
L 469.418125 353.02468 
L 491.240625 352.986383 
L 513.063125 352.941084 
L 534.885625 352.887284 
L 556.708125 352.80834 
L 578.530625 352.733664 
L 600.353125 352.655899 
L 622.175625 352.55263 
L 643.998125 352.418408 
L 665.820625 352.244615 
L 687.643125 352.051265 
L 709.465625 351.894705 
L 731.288125 351.689465 
L 753.110625 351.436426 
L 774.933125 351.115212 
L 796.755625 350.708138 
L 818.578125 350.391866 
L 840.400625 350.137361 
L 862.223125 349.654716 
L 884.045625 348.180177 
L 905.868125 338.787432 
L 927.690625 289.403164 
L 949.513125 98.900528 
" clip-path="url(#pc5079bfd5b)" style="fill: none; stroke: #f0ad4e; stroke-linecap: square"/>
   </g>
   <g id="line2d_24">
    <path d="M 76.613125 353.192282 
L 98.435625 353.183827 
L 120.258125 353.173521 
L 142.080625 353.176418 
L 163.903125 353.176818 
L 185.725625 353.176163 
L 207.548125 353.173375 
L 229.370625 353.168415 
L 251.193125 353.165667 
L 273.015625 353.157224 
L 294.838125 353.146419 
L 316.660625 353.12491 
L 338.483125 353.116704 
L 360.305625 353.099828 
L 382.128125 353.081013 
L 403.950625 353.047957 
L 425.773125 353.012986 
L 447.595625 352.974158 
L 469.418125 352.936142 
L 491.240625 352.886865 
L 513.063125 352.823814 
L 534.885625 352.748822 
L 556.708125 352.644803 
L 578.530625 352.562023 
L 600.353125 352.479184 
L 622.175625 352.367035 
L 643.998125 352.216407 
L 665.820625 352.012528 
L 687.643125 351.778639 
L 709.465625 351.61856 
L 731.288125 351.414037 
L 753.110625 351.162901 
L 774.933125 350.794954 
L 796.755625 350.340784 
L 818.578125 349.991362 
L 840.400625 349.737093 
L 862.223125 349.236143 
L 884.045625 347.625129 
L 905.868125 337.293139 
L 927.690625 282.970885 
L 949.513125 68.085636 
" clip-path="url(#pc5079bfd5b)" style="fill: none; stroke: #f0ad4e; stroke-linecap: square"/>
   </g>
   <g id="line2d_25">
    <path d="M 76.613125 353.200808 
L 98.435625 353.195706 
L 120.258125 353.189137 
L 142.080625 353.192161 
L 163.903125 353.192529 
L 185.725625 353.191459 
L 207.548125 353.191128 
L 229.370625 353.191397 
L 251.193125 353.189803 
L 273.015625 353.187288 
L 294.838125 353.183252 
L 316.660625 353.178135 
L 338.483125 353.174929 
L 360.305625 353.170435 
L 382.128125 353.1657 
L 403.950625 353.156773 
L 425.773125 353.148056 
L 447.595625 353.135945 
L 469.418125 353.124062 
L 491.240625 353.107671 
L 513.063125 353.088015 
L 534.885625 353.06354 
L 556.708125 353.030284 
L 578.530625 352.997425 
L 600.353125 352.963102 
L 622.175625 352.91499 
L 643.998125 352.854508 
L 665.820625 352.767914 
L 687.643125 352.66975 
L 709.465625 352.583742 
L 731.288125 352.474304 
L 753.110625 352.333298 
L 774.933125 352.151339 
L 796.755625 351.901521 
L 818.578125 351.683707 
L 840.400625 351.50669 
L 862.223125 351.13815 
L 884.045625 349.906467 
L 905.868125 341.635283 
L 927.690625 296.582521 
L 949.513125 125.77956 
" clip-path="url(#pc5079bfd5b)" style="fill: none; stroke: #f0ad4e; stroke-linecap: square"/>
   </g>
   <g id="line2d_26">
    <path d="M 76.613125 353.185985 
L 98.435625 353.176087 
L 120.258125 353.168455 
L 142.080625 353.171785 
L 163.903125 353.170602 
L 185.725625 353.171177 
L 207.548125 353.16899 
L 229.370625 353.161758 
L 251.193125 353.160132 
L 273.015625 353.152427 
L 294.838125 353.136858 
L 316.660625 353.113061 
L 338.483125 353.111707 
L 360.305625 353.092786 
L 382.128125 353.086155 
L 403.950625 353.05763 
L 425.773125 353.026521 
L 447.595625 352.990088 
L 469.418125 352.951686 
L 491.240625 352.901561 
L 513.063125 352.837895 
L 534.885625 352.766608 
L 556.708125 352.668065 
L 578.530625 352.56243 
L 600.353125 352.476196 
L 622.175625 352.328076 
L 643.998125 352.172414 
L 665.820625 351.936633 
L 687.643125 351.674518 
L 709.465625 351.456471 
L 731.288125 351.187681 
L 753.110625 350.888492 
L 774.933125 350.479807 
L 796.755625 349.947591 
L 818.578125 349.512564 
L 840.400625 349.262379 
L 862.223125 348.694498 
L 884.045625 347.089755 
L 905.868125 337.44543 
L 927.690625 284.058779 
L 949.513125 65.98165 
" clip-path="url(#pc5079bfd5b)" style="fill: none; stroke: #f0ad4e; stroke-linecap: square"/>
   </g>
   <g id="line2d_27">
    <path d="M 76.613125 353.202788 
L 98.435625 353.198134 
L 120.258125 353.191412 
L 142.080625 353.193337 
L 163.903125 353.194239 
L 185.725625 353.193097 
L 207.548125 353.190768 
L 229.370625 353.188933 
L 251.193125 353.186022 
L 273.015625 353.181414 
L 294.838125 353.175279 
L 316.660625 353.167993 
L 338.483125 353.161733 
L 360.305625 353.155401 
L 382.128125 353.14834 
L 403.950625 353.133881 
L 425.773125 353.123145 
L 447.595625 353.109425 
L 469.418125 353.095781 
L 491.240625 353.08162 
L 513.063125 353.063497 
L 534.885625 353.034786 
L 556.708125 353.004645 
L 578.530625 352.977951 
L 600.353125 352.951009 
L 622.175625 352.911322 
L 643.998125 352.859061 
L 665.820625 352.786173 
L 687.643125 352.702876 
L 709.465625 352.642692 
L 731.288125 352.558656 
L 753.110625 352.444996 
L 774.933125 352.295988 
L 796.755625 352.108752 
L 818.578125 351.944512 
L 840.400625 351.803292 
L 862.223125 351.508725 
L 884.045625 350.422102 
L 905.868125 342.728078 
L 927.690625 301.546415 
L 949.513125 137.575258 
" clip-path="url(#pc5079bfd5b)" style="fill: none; stroke: #f0ad4e; stroke-linecap: square"/>
   </g>
   <g id="line2d_28">
    <path d="M 32.968125 353.2239 
L 993.158125 353.2239 
" clip-path="url(#pc5079bfd5b)" style="fill: none; stroke: #dedede; stroke-width: 2; stroke-linecap: square"/>
   </g>
   <g id="text_22">
    <!-- FastQC: Sequence Length Distribution -->
    <g transform="translate(361.050625 19.3575) scale(0.16 -0.16)">
     <defs>
      <path id="DejaVuSans-46" d="M 628 4666 
L 3309 4666 
L 3309 4134 
L 1259 4134 
L 1259 2759 
L 3109 2759 
L 3109 2228 
L 1259 2228 
L 1259 0 
L 628 0 
L 628 4666 
z
" transform="scale(0.015625)"/>
      <path id="DejaVuSans-73" d="M 2834 3397 
L 2834 2853 
Q 2591 2978 2328 3040 
Q 2066 3103 1784 3103 
Q 1356 3103 1142 2972 
Q 928 2841 928 2578 
Q 928 2378 1081 2264 
Q 1234 2150 1697 2047 
L 1894 2003 
Q 2506 1872 2764 1633 
Q 3022 1394 3022 966 
Q 3022 478 2636 193 
Q 2250 -91 1575 -91 
Q 1294 -91 989 -36 
Q 684 19 347 128 
L 347 722 
Q 666 556 975 473 
Q 1284 391 1588 391 
Q 1994 391 2212 530 
Q 2431 669 2431 922 
Q 2431 1156 2273 1281 
Q 2116 1406 1581 1522 
L 1381 1569 
Q 847 1681 609 1914 
Q 372 2147 372 2553 
Q 372 3047 722 3315 
Q 1072 3584 1716 3584 
Q 2034 3584 2315 3537 
Q 2597 3491 2834 3397 
z
" transform="scale(0.015625)"/>
      <path id="DejaVuSans-51" d="M 2522 4238 
Q 1834 4238 1429 3725 
Q 1025 3213 1025 2328 
Q 1025 1447 1429 934 
Q 1834 422 2522 422 
Q 3209 422 3611 934 
Q 4013 1447 4013 2328 
Q 4013 3213 3611 3725 
Q 3209 4238 2522 4238 
z
M 3406 84 
L 4238 -825 
L 3475 -825 
L 2784 -78 
Q 2681 -84 2626 -87 
Q 2572 -91 2522 -91 
Q 1538 -91 948 567 
Q 359 1225 359 2328 
Q 359 3434 948 4092 
Q 1538 4750 2522 4750 
Q 3503 4750 4090 4092 
Q 4678 3434 4678 2328 
Q 4678 1516 4351 937 
Q 4025 359 3406 84 
z
" transform="scale(0.015625)"/>
      <path id="DejaVuSans-3a" d="M 750 794 
L 1409 794 
L 1409 0 
L 750 0 
L 750 794 
z
M 750 3309 
L 1409 3309 
L 1409 2516 
L 750 2516 
L 750 3309 
z
" transform="scale(0.015625)"/>
      <path id="DejaVuSans-44" d="M 1259 4147 
L 1259 519 
L 2022 519 
Q 2988 519 3436 956 
Q 3884 1394 3884 2338 
Q 3884 3275 3436 3711 
Q 2988 4147 2022 4147 
L 1259 4147 
z
M 628 4666 
L 1925 4666 
Q 3281 4666 3915 4102 
Q 4550 3538 4550 2338 
Q 4550 1131 3912 565 
Q 3275 0 1925 0 
L 628 0 
L 628 4666 
z
" transform="scale(0.015625)"/>
      <path id="DejaVuSans-69" d="M 603 3500 
L 1178 3500 
L 1178 0 
L 603 0 
L 603 3500 
z
M 603 4863 
L 1178 4863 
L 1178 4134 
L 603 4134 
L 603 4863 
z
" transform="scale(0.015625)"/>
      <path id="DejaVuSans-72" d="M 2631 2963 
Q 2534 3019 2420 3045 
Q 2306 3072 2169 3072 
Q 1681 3072 1420 2755 
Q 1159 2438 1159 1844 
L 1159 0 
L 581 0 
L 581 3500 
L 1159 3500 
L 1159 2956 
Q 1341 3275 1631 3429 
Q 1922 3584 2338 3584 
Q 2397 3584 2469 3576 
Q 2541 3569 2628 3553 
L 2631 2963 
z
" transform="scale(0.015625)"/>
     </defs>
     <use xlink:href="#DejaVuSans-46"/>
     <use xlink:href="#DejaVuSans-61" x="48.394531"/>
     <use xlink:href="#DejaVuSans-73" x="109.673828"/>
     <use xlink:href="#DejaVuSans-74" x="161.773438"/>
     <use xlink:href="#DejaVuSans-51" x="200.982422"/>
     <use xlink:href="#DejaVuSans-43" x="279.693359"/>
     <use xlink:href="#DejaVuSans-3a" x="349.517578"/>
     <use xlink:href="#DejaVuSans-20" x="383.208984"/>
     <use xlink:href="#DejaVuSans-53" x="414.996094"/>
     <use xlink:href="#DejaVuSans-65" x="478.472656"/>
     <use xlink:href="#DejaVuSans-71" x="539.996094"/>
     <use xlink:href="#DejaVuSans-75" x="603.472656"/>
     <use xlink:href="#DejaVuSans-65" x="666.851562"/>
     <use xlink:href="#DejaVuSans-6e" x="728.375"/>
     <use xlink:href="#DejaVuSans-63" x="791.753906"/>
     <use xlink:href="#DejaVuSans-65" x="846.734375"/>
     <use xlink:href="#DejaVuSans-20" x="908.257812"/>
     <use xlink:href="#DejaVuSans-4c" x="940.044922"/>
     <use xlink:href="#DejaVuSans-65" x="994.007812"/>
     <use xlink:href="#DejaVuSans-6e" x="1055.53125"/>
     <use xlink:href="#DejaVuSans-67" x="1118.910156"/>
     <use xlink:href="#DejaVuSans-74" x="1182.386719"/>
     <use xlink:href="#DejaVuSans-68" x="1221.595703"/>
     <use xlink:href="#DejaVuSans-20" x="1284.974609"/>
     <use xlink:href="#DejaVuSans-44" x="1316.761719"/>
     <use xlink:href="#DejaVuSans-69" x="1393.763672"/>
     <use xlink:href="#DejaVuSans-73" x="1421.546875"/>
     <use xlink:href="#DejaVuSans-74" x="1473.646484"/>
     <use xlink:href="#DejaVuSans-72" x="1512.855469"/>
     <use xlink:href="#DejaVuSans-69" x="1553.96875"/>
     <use xlink:href="#DejaVuSans-62" x="1581.751953"/>
     <use xlink:href="#DejaVuSans-75" x="1645.228516"/>
     <use xlink:href="#DejaVuSans-74" x="1708.607422"/>
     <use xlink:href="#DejaVuSans-69" x="1747.816406"/>
     <use xlink:href="#DejaVuSans-6f" x="1775.599609"/>
     <use xlink:href="#DejaVuSans-6e" x="1836.78125"/>
    </g>
   </g>
  </g>
 </g>
 <defs>
  <clipPath id="pc5079bfd5b">
   <rect x="32.968125" y="35.2559" width="960.19" height="317.968"/>
  </clipPath>
 </defs>
</svg>
