<?xml version="1.0" encoding="utf-8" standalone="no"?>
<!DOCTYPE svg PUBLIC "-//W3C//DTD SVG 1.1//EN"
  "http://www.w3.org/Graphics/SVG/1.1/DTD/svg11.dtd">
<svg xmlns:xlink="http://www.w3.org/1999/xlink" width="1000.280625pt" height="388.844525pt" viewBox="0 0 1000.280625 388.844525" xmlns="http://www.w3.org/2000/svg" version="1.1">
 <metadata>
  <rdf:RDF xmlns:dc="http://purl.org/dc/elements/1.1/" xmlns:cc="http://creativecommons.org/ns#" xmlns:rdf="http://www.w3.org/1999/02/22-rdf-syntax-ns#">
   <cc:Work>
    <dc:type rdf:resource="http://purl.org/dc/dcmitype/StillImage"/>
    <dc:date>2025-03-11T15:51:16.802135</dc:date>
    <dc:format>image/svg+xml</dc:format>
    <dc:creator>
     <cc:Agent>
      <dc:title>Matplotlib v3.8.2, https://matplotlib.org/</dc:title>
     </cc:Agent>
    </dc:creator>
   </cc:Work>
  </rdf:RDF>
 </metadata>
 <defs>
  <style type="text/css">*{stroke-linejoin: round; stroke-linecap: butt}</style>
 </defs>
 <g id="figure_1">
  <g id="axes_1">
   <g id="patch_1">
    <path d="M 40.600625 353.2239 
L 985.445625 353.2239 
L 985.445625 35.2559 
L 40.600625 35.2559 
z
" style="fill: #ffffff"/>
   </g>
   <g id="matplotlib.axis_1">
    <g id="xtick_1">
     <g id="text_1">
      <!-- 0 -->
      <g transform="translate(38.055625 366.30265) scale(0.08 -0.08)">
       <defs>
        <path id="DejaVuSans-30" d="M 2034 4250 
Q 1547 4250 1301 3770 
Q 1056 3291 1056 2328 
Q 1056 1369 1301 889 
Q 1547 409 2034 409 
Q 2525 409 2770 889 
Q 3016 1369 3016 2328 
Q 3016 3291 2770 3770 
Q 2525 4250 2034 4250 
z
M 2034 4750 
Q 2819 4750 3233 4129 
Q 3647 3509 3647 2328 
Q 3647 1150 3233 529 
Q 2819 -91 2034 -91 
Q 1250 -91 836 529 
Q 422 1150 422 2328 
Q 422 3509 836 4129 
Q 1250 4750 2034 4750 
z
" transform="scale(0.015625)"/>
       </defs>
       <use xlink:href="#DejaVuSans-30"/>
      </g>
     </g>
    </g>
    <g id="xtick_2">
     <g id="text_2">
      <!-- 20 -->
      <g transform="translate(224.479625 366.30265) scale(0.08 -0.08)">
       <defs>
        <path id="DejaVuSans-32" d="M 1228 531 
L 3431 531 
L 3431 0 
L 469 0 
L 469 531 
Q 828 903 1448 1529 
Q 2069 2156 2228 2338 
Q 2531 2678 2651 2914 
Q 2772 3150 2772 3378 
Q 2772 3750 2511 3984 
Q 2250 4219 1831 4219 
Q 1534 4219 1204 4116 
Q 875 4013 500 3803 
L 500 4441 
Q 881 4594 1212 4672 
Q 1544 4750 1819 4750 
Q 2544 4750 2975 4387 
Q 3406 4025 3406 3419 
Q 3406 3131 3298 2873 
Q 3191 2616 2906 2266 
Q 2828 2175 2409 1742 
Q 1991 1309 1228 531 
z
" transform="scale(0.015625)"/>
       </defs>
       <use xlink:href="#DejaVuSans-32"/>
       <use xlink:href="#DejaVuSans-30" x="63.623047"/>
      </g>
     </g>
    </g>
    <g id="xtick_3">
     <g id="text_3">
      <!-- 40 -->
      <g transform="translate(413.448625 366.30265) scale(0.08 -0.08)">
       <defs>
        <path id="DejaVuSans-34" d="M 2419 4116 
L 825 1625 
L 2419 1625 
L 2419 4116 
z
M 2253 4666 
L 3047 4666 
L 3047 1625 
L 3713 1625 
L 3713 1100 
L 3047 1100 
L 3047 0 
L 2419 0 
L 2419 1100 
L 313 1100 
L 313 1709 
L 2253 4666 
z
" transform="scale(0.015625)"/>
       </defs>
       <use xlink:href="#DejaVuSans-34"/>
       <use xlink:href="#DejaVuSans-30" x="63.623047"/>
      </g>
     </g>
    </g>
    <g id="xtick_4">
     <g id="text_4">
      <!-- 60 -->
      <g transform="translate(602.417625 366.30265) scale(0.08 -0.08)">
       <defs>
        <path id="DejaVuSans-36" d="M 2113 2584 
Q 1688 2584 1439 2293 
Q 1191 2003 1191 1497 
Q 1191 994 1439 701 
Q 1688 409 2113 409 
Q 2538 409 2786 701 
Q 3034 994 3034 1497 
Q 3034 2003 2786 2293 
Q 2538 2584 2113 2584 
z
M 3366 4563 
L 3366 3988 
Q 3128 4100 2886 4159 
Q 2644 4219 2406 4219 
Q 1781 4219 1451 3797 
Q 1122 3375 1075 2522 
Q 1259 2794 1537 2939 
Q 1816 3084 2150 3084 
Q 2853 3084 3261 2657 
Q 3669 2231 3669 1497 
Q 3669 778 3244 343 
Q 2819 -91 2113 -91 
Q 1303 -91 875 529 
Q 447 1150 447 2328 
Q 447 3434 972 4092 
Q 1497 4750 2381 4750 
Q 2619 4750 2861 4703 
Q 3103 4656 3366 4563 
z
" transform="scale(0.015625)"/>
       </defs>
       <use xlink:href="#DejaVuSans-36"/>
       <use xlink:href="#DejaVuSans-30" x="63.623047"/>
      </g>
     </g>
    </g>
    <g id="xtick_5">
     <g id="text_5">
      <!-- 80 -->
      <g transform="translate(791.386625 366.30265) scale(0.08 -0.08)">
       <defs>
        <path id="DejaVuSans-38" d="M 2034 2216 
Q 1584 2216 1326 1975 
Q 1069 1734 1069 1313 
Q 1069 891 1326 650 
Q 1584 409 2034 409 
Q 2484 409 2743 651 
Q 3003 894 3003 1313 
Q 3003 1734 2745 1975 
Q 2488 2216 2034 2216 
z
M 1403 2484 
Q 997 2584 770 2862 
Q 544 3141 544 3541 
Q 544 4100 942 4425 
Q 1341 4750 2034 4750 
Q 2731 4750 3128 4425 
Q 3525 4100 3525 3541 
Q 3525 3141 3298 2862 
Q 3072 2584 2669 2484 
Q 3125 2378 3379 2068 
Q 3634 1759 3634 1313 
Q 3634 634 3220 271 
Q 2806 -91 2034 -91 
Q 1263 -91 848 271 
Q 434 634 434 1313 
Q 434 1759 690 2068 
Q 947 2378 1403 2484 
z
M 1172 3481 
Q 1172 3119 1398 2916 
Q 1625 2713 2034 2713 
Q 2441 2713 2670 2916 
Q 2900 3119 2900 3481 
Q 2900 3844 2670 4047 
Q 2441 4250 2034 4250 
Q 1625 4250 1398 4047 
Q 1172 3844 1172 3481 
z
" transform="scale(0.015625)"/>
       </defs>
       <use xlink:href="#DejaVuSans-38"/>
       <use xlink:href="#DejaVuSans-30" x="63.623047"/>
      </g>
     </g>
    </g>
    <g id="xtick_6">
     <g id="text_6">
      <!-- 100 -->
      <g transform="translate(977.810625 366.30265) scale(0.08 -0.08)">
       <defs>
        <path id="DejaVuSans-31" d="M 794 531 
L 1825 531 
L 1825 4091 
L 703 3866 
L 703 4441 
L 1819 4666 
L 2450 4666 
L 2450 531 
L 3481 531 
L 3481 0 
L 794 0 
L 794 531 
z
" transform="scale(0.015625)"/>
       </defs>
       <use xlink:href="#DejaVuSans-31"/>
       <use xlink:href="#DejaVuSans-30" x="63.623047"/>
       <use xlink:href="#DejaVuSans-30" x="127.246094"/>
      </g>
     </g>
    </g>
    <g id="text_7">
     <!-- % GC -->
     <g transform="translate(499.317656 379.564837) scale(0.1 -0.1)">
      <defs>
       <path id="DejaVuSans-25" d="M 4653 2053 
Q 4381 2053 4226 1822 
Q 4072 1591 4072 1178 
Q 4072 772 4226 539 
Q 4381 306 4653 306 
Q 4919 306 5073 539 
Q 5228 772 5228 1178 
Q 5228 1588 5073 1820 
Q 4919 2053 4653 2053 
z
M 4653 2450 
Q 5147 2450 5437 2106 
Q 5728 1763 5728 1178 
Q 5728 594 5436 251 
Q 5144 -91 4653 -91 
Q 4153 -91 3862 251 
Q 3572 594 3572 1178 
Q 3572 1766 3864 2108 
Q 4156 2450 4653 2450 
z
M 1428 4353 
Q 1159 4353 1004 4120 
Q 850 3888 850 3481 
Q 850 3069 1003 2837 
Q 1156 2606 1428 2606 
Q 1700 2606 1854 2837 
Q 2009 3069 2009 3481 
Q 2009 3884 1853 4118 
Q 1697 4353 1428 4353 
z
M 4250 4750 
L 4750 4750 
L 1831 -91 
L 1331 -91 
L 4250 4750 
z
M 1428 4750 
Q 1922 4750 2215 4408 
Q 2509 4066 2509 3481 
Q 2509 2891 2217 2550 
Q 1925 2209 1428 2209 
Q 931 2209 642 2551 
Q 353 2894 353 3481 
Q 353 4063 643 4406 
Q 934 4750 1428 4750 
z
" transform="scale(0.015625)"/>
       <path id="DejaVuSans-20" transform="scale(0.015625)"/>
       <path id="DejaVuSans-47" d="M 3809 666 
L 3809 1919 
L 2778 1919 
L 2778 2438 
L 4434 2438 
L 4434 434 
Q 4069 175 3628 42 
Q 3188 -91 2688 -91 
Q 1594 -91 976 548 
Q 359 1188 359 2328 
Q 359 3472 976 4111 
Q 1594 4750 2688 4750 
Q 3144 4750 3555 4637 
Q 3966 4525 4313 4306 
L 4313 3634 
Q 3963 3931 3569 4081 
Q 3175 4231 2741 4231 
Q 1884 4231 1454 3753 
Q 1025 3275 1025 2328 
Q 1025 1384 1454 906 
Q 1884 428 2741 428 
Q 3075 428 3337 486 
Q 3600 544 3809 666 
z
" transform="scale(0.015625)"/>
       <path id="DejaVuSans-43" d="M 4122 4306 
L 4122 3641 
Q 3803 3938 3442 4084 
Q 3081 4231 2675 4231 
Q 1875 4231 1450 3742 
Q 1025 3253 1025 2328 
Q 1025 1406 1450 917 
Q 1875 428 2675 428 
Q 3081 428 3442 575 
Q 3803 722 4122 1019 
L 4122 359 
Q 3791 134 3420 21 
Q 3050 -91 2638 -91 
Q 1578 -91 968 557 
Q 359 1206 359 2328 
Q 359 3453 968 4101 
Q 1578 4750 2638 4750 
Q 3056 4750 3426 4639 
Q 3797 4528 4122 4306 
z
" transform="scale(0.015625)"/>
      </defs>
      <use xlink:href="#DejaVuSans-25"/>
      <use xlink:href="#DejaVuSans-20" x="95.019531"/>
      <use xlink:href="#DejaVuSans-47" x="126.806641"/>
      <use xlink:href="#DejaVuSans-43" x="204.296875"/>
     </g>
    </g>
   </g>
   <g id="matplotlib.axis_2">
    <g id="ytick_1">
     <g id="line2d_1">
      <path d="M 40.600625 353.2239 
L 985.445625 353.2239 
" clip-path="url(#p2b1fe493f3)" style="fill: none; stroke: #dedede; stroke-linecap: square"/>
     </g>
     <g id="text_8">
      <!-- 0.0 -->
      <g transform="translate(20.878125 356.263275) scale(0.08 -0.08)">
       <defs>
        <path id="DejaVuSans-2e" d="M 684 794 
L 1344 794 
L 1344 0 
L 684 0 
L 684 794 
z
" transform="scale(0.015625)"/>
       </defs>
       <use xlink:href="#DejaVuSans-30"/>
       <use xlink:href="#DejaVuSans-2e" x="63.623047"/>
       <use xlink:href="#DejaVuSans-30" x="95.410156"/>
      </g>
     </g>
    </g>
    <g id="ytick_2">
     <g id="line2d_2">
      <path d="M 40.600625 316.509659 
L 985.445625 316.509659 
" clip-path="url(#p2b1fe493f3)" style="fill: none; stroke: #dedede; stroke-linecap: square"/>
     </g>
     <g id="text_9">
      <!-- 0.5 -->
      <g transform="translate(20.878125 319.549034) scale(0.08 -0.08)">
       <defs>
        <path id="DejaVuSans-35" d="M 691 4666 
L 3169 4666 
L 3169 4134 
L 1269 4134 
L 1269 2991 
Q 1406 3038 1543 3061 
Q 1681 3084 1819 3084 
Q 2600 3084 3056 2656 
Q 3513 2228 3513 1497 
Q 3513 744 3044 326 
Q 2575 -91 1722 -91 
Q 1428 -91 1123 -41 
Q 819 9 494 109 
L 494 744 
Q 775 591 1075 516 
Q 1375 441 1709 441 
Q 2250 441 2565 725 
Q 2881 1009 2881 1497 
Q 2881 1984 2565 2268 
Q 2250 2553 1709 2553 
Q 1456 2553 1204 2497 
Q 953 2441 691 2322 
L 691 4666 
z
" transform="scale(0.015625)"/>
       </defs>
       <use xlink:href="#DejaVuSans-30"/>
       <use xlink:href="#DejaVuSans-2e" x="63.623047"/>
       <use xlink:href="#DejaVuSans-35" x="95.410156"/>
      </g>
     </g>
    </g>
    <g id="ytick_3">
     <g id="line2d_3">
      <path d="M 40.600625 279.795419 
L 985.445625 279.795419 
" clip-path="url(#p2b1fe493f3)" style="fill: none; stroke: #dedede; stroke-linecap: square"/>
     </g>
     <g id="text_10">
      <!-- 1.0 -->
      <g transform="translate(20.878125 282.834794) scale(0.08 -0.08)">
       <use xlink:href="#DejaVuSans-31"/>
       <use xlink:href="#DejaVuSans-2e" x="63.623047"/>
       <use xlink:href="#DejaVuSans-30" x="95.410156"/>
      </g>
     </g>
    </g>
    <g id="ytick_4">
     <g id="line2d_4">
      <path d="M 40.600625 243.081178 
L 985.445625 243.081178 
" clip-path="url(#p2b1fe493f3)" style="fill: none; stroke: #dedede; stroke-linecap: square"/>
     </g>
     <g id="text_11">
      <!-- 1.5 -->
      <g transform="translate(20.878125 246.120553) scale(0.08 -0.08)">
       <use xlink:href="#DejaVuSans-31"/>
       <use xlink:href="#DejaVuSans-2e" x="63.623047"/>
       <use xlink:href="#DejaVuSans-35" x="95.410156"/>
      </g>
     </g>
    </g>
    <g id="ytick_5">
     <g id="line2d_5">
      <path d="M 40.600625 206.366938 
L 985.445625 206.366938 
" clip-path="url(#p2b1fe493f3)" style="fill: none; stroke: #dedede; stroke-linecap: square"/>
     </g>
     <g id="text_12">
      <!-- 2.0 -->
      <g transform="translate(20.878125 209.406313) scale(0.08 -0.08)">
       <use xlink:href="#DejaVuSans-32"/>
       <use xlink:href="#DejaVuSans-2e" x="63.623047"/>
       <use xlink:href="#DejaVuSans-30" x="95.410156"/>
      </g>
     </g>
    </g>
    <g id="ytick_6">
     <g id="line2d_6">
      <path d="M 40.600625 169.652697 
L 985.445625 169.652697 
" clip-path="url(#p2b1fe493f3)" style="fill: none; stroke: #dedede; stroke-linecap: square"/>
     </g>
     <g id="text_13">
      <!-- 2.5 -->
      <g transform="translate(20.878125 172.692072) scale(0.08 -0.08)">
       <use xlink:href="#DejaVuSans-32"/>
       <use xlink:href="#DejaVuSans-2e" x="63.623047"/>
       <use xlink:href="#DejaVuSans-35" x="95.410156"/>
      </g>
     </g>
    </g>
    <g id="ytick_7">
     <g id="line2d_7">
      <path d="M 40.600625 132.938456 
L 985.445625 132.938456 
" clip-path="url(#p2b1fe493f3)" style="fill: none; stroke: #dedede; stroke-linecap: square"/>
     </g>
     <g id="text_14">
      <!-- 3.0 -->
      <g transform="translate(20.878125 135.977831) scale(0.08 -0.08)">
       <defs>
        <path id="DejaVuSans-33" d="M 2597 2516 
Q 3050 2419 3304 2112 
Q 3559 1806 3559 1356 
Q 3559 666 3084 287 
Q 2609 -91 1734 -91 
Q 1441 -91 1130 -33 
Q 819 25 488 141 
L 488 750 
Q 750 597 1062 519 
Q 1375 441 1716 441 
Q 2309 441 2620 675 
Q 2931 909 2931 1356 
Q 2931 1769 2642 2001 
Q 2353 2234 1838 2234 
L 1294 2234 
L 1294 2753 
L 1863 2753 
Q 2328 2753 2575 2939 
Q 2822 3125 2822 3475 
Q 2822 3834 2567 4026 
Q 2313 4219 1838 4219 
Q 1578 4219 1281 4162 
Q 984 4106 628 3988 
L 628 4550 
Q 988 4650 1302 4700 
Q 1616 4750 1894 4750 
Q 2613 4750 3031 4423 
Q 3450 4097 3450 3541 
Q 3450 3153 3228 2886 
Q 3006 2619 2597 2516 
z
" transform="scale(0.015625)"/>
       </defs>
       <use xlink:href="#DejaVuSans-33"/>
       <use xlink:href="#DejaVuSans-2e" x="63.623047"/>
       <use xlink:href="#DejaVuSans-30" x="95.410156"/>
      </g>
     </g>
    </g>
    <g id="ytick_8">
     <g id="line2d_8">
      <path d="M 40.600625 96.224216 
L 985.445625 96.224216 
" clip-path="url(#p2b1fe493f3)" style="fill: none; stroke: #dedede; stroke-linecap: square"/>
     </g>
     <g id="text_15">
      <!-- 3.5 -->
      <g transform="translate(20.878125 99.263591) scale(0.08 -0.08)">
       <use xlink:href="#DejaVuSans-33"/>
       <use xlink:href="#DejaVuSans-2e" x="63.623047"/>
       <use xlink:href="#DejaVuSans-35" x="95.410156"/>
      </g>
     </g>
    </g>
    <g id="ytick_9">
     <g id="line2d_9">
      <path d="M 40.600625 59.509975 
L 985.445625 59.509975 
" clip-path="url(#p2b1fe493f3)" style="fill: none; stroke: #dedede; stroke-linecap: square"/>
     </g>
     <g id="text_16">
      <!-- 4.0 -->
      <g transform="translate(20.878125 62.54935) scale(0.08 -0.08)">
       <use xlink:href="#DejaVuSans-34"/>
       <use xlink:href="#DejaVuSans-2e" x="63.623047"/>
       <use xlink:href="#DejaVuSans-30" x="95.410156"/>
      </g>
     </g>
    </g>
    <g id="text_17">
     <!-- Percentage -->
     <g transform="translate(14.798438 222.362556) rotate(-90) scale(0.1 -0.1)">
      <defs>
       <path id="DejaVuSans-50" d="M 1259 4147 
L 1259 2394 
L 2053 2394 
Q 2494 2394 2734 2622 
Q 2975 2850 2975 3272 
Q 2975 3691 2734 3919 
Q 2494 4147 2053 4147 
L 1259 4147 
z
M 628 4666 
L 2053 4666 
Q 2838 4666 3239 4311 
Q 3641 3956 3641 3272 
Q 3641 2581 3239 2228 
Q 2838 1875 2053 1875 
L 1259 1875 
L 1259 0 
L 628 0 
L 628 4666 
z
" transform="scale(0.015625)"/>
       <path id="DejaVuSans-65" d="M 3597 1894 
L 3597 1613 
L 953 1613 
Q 991 1019 1311 708 
Q 1631 397 2203 397 
Q 2534 397 2845 478 
Q 3156 559 3463 722 
L 3463 178 
Q 3153 47 2828 -22 
Q 2503 -91 2169 -91 
Q 1331 -91 842 396 
Q 353 884 353 1716 
Q 353 2575 817 3079 
Q 1281 3584 2069 3584 
Q 2775 3584 3186 3129 
Q 3597 2675 3597 1894 
z
M 3022 2063 
Q 3016 2534 2758 2815 
Q 2500 3097 2075 3097 
Q 1594 3097 1305 2825 
Q 1016 2553 972 2059 
L 3022 2063 
z
" transform="scale(0.015625)"/>
       <path id="DejaVuSans-72" d="M 2631 2963 
Q 2534 3019 2420 3045 
Q 2306 3072 2169 3072 
Q 1681 3072 1420 2755 
Q 1159 2438 1159 1844 
L 1159 0 
L 581 0 
L 581 3500 
L 1159 3500 
L 1159 2956 
Q 1341 3275 1631 3429 
Q 1922 3584 2338 3584 
Q 2397 3584 2469 3576 
Q 2541 3569 2628 3553 
L 2631 2963 
z
" transform="scale(0.015625)"/>
       <path id="DejaVuSans-63" d="M 3122 3366 
L 3122 2828 
Q 2878 2963 2633 3030 
Q 2388 3097 2138 3097 
Q 1578 3097 1268 2742 
Q 959 2388 959 1747 
Q 959 1106 1268 751 
Q 1578 397 2138 397 
Q 2388 397 2633 464 
Q 2878 531 3122 666 
L 3122 134 
Q 2881 22 2623 -34 
Q 2366 -91 2075 -91 
Q 1284 -91 818 406 
Q 353 903 353 1747 
Q 353 2603 823 3093 
Q 1294 3584 2113 3584 
Q 2378 3584 2631 3529 
Q 2884 3475 3122 3366 
z
" transform="scale(0.015625)"/>
       <path id="DejaVuSans-6e" d="M 3513 2113 
L 3513 0 
L 2938 0 
L 2938 2094 
Q 2938 2591 2744 2837 
Q 2550 3084 2163 3084 
Q 1697 3084 1428 2787 
Q 1159 2491 1159 1978 
L 1159 0 
L 581 0 
L 581 3500 
L 1159 3500 
L 1159 2956 
Q 1366 3272 1645 3428 
Q 1925 3584 2291 3584 
Q 2894 3584 3203 3211 
Q 3513 2838 3513 2113 
z
" transform="scale(0.015625)"/>
       <path id="DejaVuSans-74" d="M 1172 4494 
L 1172 3500 
L 2356 3500 
L 2356 3053 
L 1172 3053 
L 1172 1153 
Q 1172 725 1289 603 
Q 1406 481 1766 481 
L 2356 481 
L 2356 0 
L 1766 0 
Q 1100 0 847 248 
Q 594 497 594 1153 
L 594 3053 
L 172 3053 
L 172 3500 
L 594 3500 
L 594 4494 
L 1172 4494 
z
" transform="scale(0.015625)"/>
       <path id="DejaVuSans-61" d="M 2194 1759 
Q 1497 1759 1228 1600 
Q 959 1441 959 1056 
Q 959 750 1161 570 
Q 1363 391 1709 391 
Q 2188 391 2477 730 
Q 2766 1069 2766 1631 
L 2766 1759 
L 2194 1759 
z
M 3341 1997 
L 3341 0 
L 2766 0 
L 2766 531 
Q 2569 213 2275 61 
Q 1981 -91 1556 -91 
Q 1019 -91 701 211 
Q 384 513 384 1019 
Q 384 1609 779 1909 
Q 1175 2209 1959 2209 
L 2766 2209 
L 2766 2266 
Q 2766 2663 2505 2880 
Q 2244 3097 1772 3097 
Q 1472 3097 1187 3025 
Q 903 2953 641 2809 
L 641 3341 
Q 956 3463 1253 3523 
Q 1550 3584 1831 3584 
Q 2591 3584 2966 3190 
Q 3341 2797 3341 1997 
z
" transform="scale(0.015625)"/>
       <path id="DejaVuSans-67" d="M 2906 1791 
Q 2906 2416 2648 2759 
Q 2391 3103 1925 3103 
Q 1463 3103 1205 2759 
Q 947 2416 947 1791 
Q 947 1169 1205 825 
Q 1463 481 1925 481 
Q 2391 481 2648 825 
Q 2906 1169 2906 1791 
z
M 3481 434 
Q 3481 -459 3084 -895 
Q 2688 -1331 1869 -1331 
Q 1566 -1331 1297 -1286 
Q 1028 -1241 775 -1147 
L 775 -588 
Q 1028 -725 1275 -790 
Q 1522 -856 1778 -856 
Q 2344 -856 2625 -561 
Q 2906 -266 2906 331 
L 2906 616 
Q 2728 306 2450 153 
Q 2172 0 1784 0 
Q 1141 0 747 490 
Q 353 981 353 1791 
Q 353 2603 747 3093 
Q 1141 3584 1784 3584 
Q 2172 3584 2450 3431 
Q 2728 3278 2906 2969 
L 2906 3500 
L 3481 3500 
L 3481 434 
z
" transform="scale(0.015625)"/>
      </defs>
      <use xlink:href="#DejaVuSans-50"/>
      <use xlink:href="#DejaVuSans-65" x="56.677734"/>
      <use xlink:href="#DejaVuSans-72" x="118.201172"/>
      <use xlink:href="#DejaVuSans-63" x="157.064453"/>
      <use xlink:href="#DejaVuSans-65" x="212.044922"/>
      <use xlink:href="#DejaVuSans-6e" x="273.568359"/>
      <use xlink:href="#DejaVuSans-74" x="336.947266"/>
      <use xlink:href="#DejaVuSans-61" x="376.15625"/>
      <use xlink:href="#DejaVuSans-67" x="437.435547"/>
      <use xlink:href="#DejaVuSans-65" x="500.912109"/>
     </g>
    </g>
   </g>
   <g id="line2d_10">
    <path d="M 40.600625 353.138097 
L 50.049075 353.167798 
L 59.497525 353.199252 
L 68.945975 353.200352 
L 78.394425 353.198909 
L 87.842875 353.197465 
L 97.291325 353.194921 
L 106.739775 353.191311 
L 116.188225 353.187324 
L 125.636675 353.181445 
L 135.085125 353.174433 
L 144.533575 353.167214 
L 153.982025 353.155938 
L 163.430475 353.143804 
L 172.878925 353.125447 
L 182.327375 353.098015 
L 191.775825 353.052432 
L 201.224275 352.980895 
L 210.672725 352.878489 
L 220.121175 352.698976 
L 229.569625 352.400316 
L 239.018075 351.927541 
L 248.466525 351.24129 
L 257.914975 350.341014 
L 267.363425 349.329564 
L 276.811875 348.039222 
L 286.260325 346.131552 
L 295.708775 343.702912 
L 305.157225 340.976265 
L 314.605675 337.976569 
L 324.054125 334.160714 
L 333.502575 329.426569 
L 342.951025 324.143575 
L 352.399475 317.611798 
L 361.847925 308.15059 
L 371.296375 296.826952 
L 380.744825 282.958104 
L 390.193275 265.612384 
L 399.641725 245.189071 
L 409.090175 222.948807 
L 418.538625 200.095514 
L 427.987075 176.054731 
L 437.435525 151.16826 
L 446.883975 127.835729 
L 456.332425 112.051717 
L 465.780875 99.628902 
L 475.229325 89.004371 
L 484.677775 85.017494 
L 494.126225 84.734888 
L 503.574675 81.027903 
L 513.023125 78.392181 
L 522.471575 79.829997 
L 531.920025 83.042104 
L 541.368475 86.277139 
L 550.816925 85.807836 
L 560.265375 90.069756 
L 569.713825 99.895351 
L 579.162275 109.399323 
L 588.610725 120.631074 
L 598.059175 132.585928 
L 607.507625 142.410457 
L 616.956075 155.467994 
L 626.404525 171.432859 
L 635.852975 185.109269 
L 645.301425 199.304622 
L 654.749875 217.712599 
L 664.198325 236.080321 
L 673.646775 251.070623 
L 683.095225 264.309494 
L 692.543675 277.45273 
L 701.992125 291.178952 
L 711.440575 302.882962 
L 720.889025 311.607352 
L 730.337475 318.729539 
L 739.785925 324.026043 
L 749.234375 328.620414 
L 758.682825 333.232558 
L 768.131275 336.411423 
L 777.579725 338.794755 
L 787.028175 341.197716 
L 796.476625 343.314633 
L 805.925075 345.028765 
L 815.373525 346.402505 
L 824.821975 347.759468 
L 834.270425 349.071915 
L 843.718875 350.053113 
L 853.167325 350.816401 
L 862.615775 351.365938 
L 872.064225 351.928813 
L 881.512675 352.477422 
L 890.961125 352.803583 
L 900.409575 352.957966 
L 909.858025 353.038097 
L 919.306475 353.091242 
L 928.754925 353.153945 
L 938.203375 353.188286 
L 947.651825 353.187736 
L 957.100275 353.104134 
L 966.548725 352.847894 
L 975.997175 352.943391 
L 985.445625 353.220325 
" clip-path="url(#p2b1fe493f3)" style="fill: none; stroke: #5cb85c; stroke-linecap: square"/>
   </g>
   <g id="line2d_11">
    <path d="M 40.600625 353.160722 
L 50.049075 353.180374 
L 59.497525 353.203383 
L 68.945975 353.207154 
L 78.394425 353.206531 
L 87.842875 353.204559 
L 97.291325 353.202137 
L 106.739775 353.197674 
L 116.188225 353.193141 
L 125.636675 353.187467 
L 135.085125 353.181274 
L 144.533575 353.175842 
L 153.982025 353.169372 
L 163.430475 353.161864 
L 172.878925 353.148993 
L 182.327375 353.127057 
L 191.775825 353.087406 
L 201.224275 353.031909 
L 210.672725 352.953161 
L 220.121175 352.818259 
L 229.569625 352.597412 
L 239.018075 352.23322 
L 248.466525 351.697002 
L 257.914975 350.949278 
L 267.363425 350.118862 
L 276.811875 349.113616 
L 286.260325 347.545337 
L 295.708775 345.399736 
L 305.157225 342.991837 
L 314.605675 340.377866 
L 324.054125 336.957698 
L 333.502575 332.648019 
L 342.951025 327.758249 
L 352.399475 321.620347 
L 361.847925 312.670774 
L 371.296375 301.960619 
L 380.744825 289.079709 
L 390.193275 273.048333 
L 399.641725 253.296121 
L 409.090175 231.477574 
L 418.538625 208.851966 
L 427.987075 184.249601 
L 437.435525 158.129541 
L 446.883975 133.009052 
L 456.332425 115.16952 
L 465.780875 100.965536 
L 475.229325 88.997942 
L 484.677775 83.810169 
L 494.126225 82.533008 
L 503.574675 77.262058 
L 513.023125 73.772692 
L 522.471575 75.590397 
L 531.920025 79.2475 
L 541.368475 81.976168 
L 550.816925 80.276965 
L 560.265375 84.636502 
L 569.713825 94.708266 
L 579.162275 103.587015 
L 588.610725 115.761236 
L 598.059175 128.811578 
L 607.507625 138.106037 
L 616.956075 151.196791 
L 626.404525 167.657717 
L 635.852975 181.455299 
L 645.301425 195.922756 
L 654.749875 214.823619 
L 664.198325 233.694693 
L 673.646775 249.122867 
L 683.095225 262.331777 
L 692.543675 275.537539 
L 701.992125 289.443866 
L 711.440575 301.068548 
L 720.889025 309.895086 
L 730.337475 317.211368 
L 739.785925 322.720568 
L 749.234375 327.453811 
L 758.682825 332.08246 
L 768.131275 335.396512 
L 777.579725 337.916893 
L 787.028175 340.470038 
L 796.476625 342.757393 
L 805.925075 344.723494 
L 815.373525 346.406019 
L 824.821975 347.911708 
L 834.270425 349.273638 
L 843.718875 350.270649 
L 853.167325 351.021313 
L 862.615775 351.527293 
L 872.064225 352.062439 
L 881.512675 352.586202 
L 890.961125 352.859882 
L 900.409575 352.976723 
L 909.858025 353.031355 
L 919.306475 353.079587 
L 928.754925 353.147782 
L 938.203375 353.184249 
L 947.651825 353.176776 
L 957.100275 353.007309 
L 966.548725 352.582223 
L 975.997175 352.764872 
L 985.445625 353.220025 
" clip-path="url(#p2b1fe493f3)" style="fill: none; stroke: #5cb85c; stroke-linecap: square"/>
   </g>
   <g id="line2d_12">
    <path d="M 40.600625 353.110458 
L 50.049075 353.149145 
L 59.497525 353.19273 
L 68.945975 353.197362 
L 78.394425 353.195805 
L 87.842875 353.192958 
L 97.291325 353.187794 
L 106.739775 353.182023 
L 116.188225 353.17462 
L 125.636675 353.165964 
L 135.085125 353.160952 
L 144.533575 353.155219 
L 153.982025 353.145462 
L 163.430475 353.131035 
L 172.878925 353.107914 
L 182.327375 353.07215 
L 191.775825 353.021086 
L 201.224275 352.942002 
L 210.672725 352.821422 
L 220.121175 352.622746 
L 229.569625 352.302465 
L 239.018075 351.803212 
L 248.466525 351.031363 
L 257.914975 350.045689 
L 267.363425 348.939283 
L 276.811875 347.509901 
L 286.260325 345.469911 
L 295.708775 342.761757 
L 305.157225 339.679866 
L 314.605675 336.25666 
L 324.054125 331.835138 
L 333.502575 326.325472 
L 342.951025 320.24624 
L 352.399475 312.86075 
L 361.847925 301.8634 
L 371.296375 288.703886 
L 380.744825 273.382435 
L 390.193275 254.485952 
L 399.641725 232.677173 
L 409.090175 209.238057 
L 418.538625 185.981367 
L 427.987075 163.283917 
L 437.435525 139.688571 
L 446.883975 118.048816 
L 456.332425 105.912372 
L 465.780875 97.23615 
L 475.229325 87.235181 
L 484.677775 82.526598 
L 494.126225 83.286715 
L 503.574675 80.663681 
L 513.023125 78.249878 
L 522.471575 80.896717 
L 531.920025 86.879705 
L 541.368475 92.068634 
L 550.816925 92.215715 
L 560.265375 96.579794 
L 569.713825 105.430393 
L 579.162275 115.408317 
L 588.610725 126.571389 
L 598.059175 138.800356 
L 607.507625 149.897366 
L 616.956075 162.755164 
L 626.404525 179.45873 
L 635.852975 193.178926 
L 645.301425 207.050455 
L 654.749875 226.618063 
L 664.198325 245.046728 
L 673.646775 258.31194 
L 683.095225 270.148072 
L 692.543675 282.644016 
L 701.992125 295.756491 
L 711.440575 306.194145 
L 720.889025 314.001742 
L 730.337475 320.75153 
L 739.785925 325.606814 
L 749.234375 329.717204 
L 758.682825 334.28387 
L 768.131275 337.220921 
L 777.579725 339.398766 
L 787.028175 342.165805 
L 796.476625 344.288712 
L 805.925075 345.816541 
L 815.373525 347.236773 
L 824.821975 348.668358 
L 834.270425 349.819525 
L 843.718875 350.523415 
L 853.167325 351.046625 
L 862.615775 351.314665 
L 872.064225 351.831231 
L 881.512675 352.527338 
L 890.961125 352.866032 
L 900.409575 352.935966 
L 909.858025 352.942534 
L 919.306475 352.984296 
L 928.754925 353.098764 
L 938.203375 353.172456 
L 947.651825 353.180315 
L 957.100275 353.071125 
L 966.548725 352.789379 
L 975.997175 352.913072 
L 985.445625 353.220179 
" clip-path="url(#p2b1fe493f3)" style="fill: none; stroke: #5cb85c; stroke-linecap: square"/>
   </g>
   <g id="line2d_13">
    <path d="M 40.600625 353.123434 
L 50.049075 353.160009 
L 59.497525 353.19968 
L 68.945975 353.202777 
L 78.394425 353.202614 
L 87.842875 353.201864 
L 97.291325 353.199647 
L 106.739775 353.196127 
L 116.188225 353.191889 
L 125.636675 353.187586 
L 135.085125 353.182664 
L 144.533575 353.175297 
L 153.982025 353.16555 
L 163.430475 353.156065 
L 172.878925 353.145731 
L 182.327375 353.124706 
L 191.775825 353.08937 
L 201.224275 353.035388 
L 210.672725 352.941866 
L 220.121175 352.771088 
L 229.569625 352.503103 
L 239.018075 352.077412 
L 248.466525 351.413628 
L 257.914975 350.623072 
L 267.363425 349.731399 
L 276.811875 348.588953 
L 286.260325 346.889676 
L 295.708775 344.727285 
L 305.157225 342.264769 
L 314.605675 339.257124 
L 324.054125 335.517338 
L 333.502575 331.218244 
L 342.951025 326.566835 
L 352.399475 320.795342 
L 361.847925 312.354795 
L 371.296375 301.692008 
L 380.744825 288.608397 
L 390.193275 272.310538 
L 399.641725 252.028737 
L 409.090175 229.45735 
L 418.538625 206.658204 
L 427.987075 182.613702 
L 437.435525 158.230641 
L 446.883975 134.362101 
L 456.332425 117.408379 
L 465.780875 104.690415 
L 475.229325 93.963084 
L 484.677775 90.893472 
L 494.126225 89.946578 
L 503.574675 85.915272 
L 513.023125 84.072696 
L 522.471575 85.151512 
L 531.920025 87.170897 
L 541.368475 87.507043 
L 550.816925 83.934255 
L 560.265375 87.712212 
L 569.713825 97.860349 
L 579.162275 106.262301 
L 588.610725 114.720874 
L 598.059175 124.695136 
L 607.507625 131.697545 
L 616.956075 140.845035 
L 626.404525 157.34803 
L 635.852975 175.247798 
L 645.301425 192.304006 
L 654.749875 210.77045 
L 664.198325 230.409981 
L 673.646775 246.794843 
L 683.095225 260.969331 
L 692.543675 275.03817 
L 701.992125 288.697323 
L 711.440575 300.468459 
L 720.889025 309.421505 
L 730.337475 316.851984 
L 739.785925 322.693595 
L 749.234375 327.373591 
L 758.682825 331.372267 
L 768.131275 334.381379 
L 777.579725 337.023801 
L 787.028175 339.615469 
L 796.476625 342.371167 
L 805.925075 344.669229 
L 815.373525 346.129012 
L 824.821975 347.523405 
L 834.270425 348.858209 
L 843.718875 349.838287 
L 853.167325 350.595756 
L 862.615775 351.141276 
L 872.064225 351.722164 
L 881.512675 352.297836 
L 890.961125 352.676652 
L 900.409575 352.875204 
L 909.858025 352.984438 
L 919.306475 353.062184 
L 928.754925 353.141363 
L 938.203375 353.181034 
L 947.651825 353.184653 
L 957.100275 353.094781 
L 966.548725 352.861709 
L 975.997175 352.965076 
L 985.445625 353.219304 
" clip-path="url(#p2b1fe493f3)" style="fill: none; stroke: #5cb85c; stroke-linecap: square"/>
   </g>
   <g id="line2d_14">
    <path d="M 40.600625 353.0926 
L 50.049075 353.139793 
L 59.497525 353.188899 
L 68.945975 353.191788 
L 78.394425 353.192651 
L 87.842875 353.191375 
L 97.291325 353.187249 
L 106.739775 353.182709 
L 116.188225 353.180383 
L 125.636675 353.176745 
L 135.085125 353.170405 
L 144.533575 353.163427 
L 153.982025 353.154011 
L 163.430475 353.14437 
L 172.878925 353.129852 
L 182.327375 353.098077 
L 191.775825 353.054635 
L 201.224275 352.981633 
L 210.672725 352.847482 
L 220.121175 352.615043 
L 229.569625 352.252617 
L 239.018075 351.680074 
L 248.466525 350.774742 
L 257.914975 349.729706 
L 267.363425 348.415617 
L 276.811875 346.668502 
L 286.260325 344.095884 
L 295.708775 340.354658 
L 305.157225 335.809088 
L 314.605675 330.096261 
L 324.054125 322.732879 
L 333.502575 314.136478 
L 342.951025 304.76747 
L 352.399475 293.761825 
L 361.847925 279.135451 
L 371.296375 262.407113 
L 380.744825 244.434426 
L 390.193275 225.028468 
L 399.641725 205.362873 
L 409.090175 186.360268 
L 418.538625 168.946131 
L 427.987075 152.824699 
L 437.435525 137.756969 
L 446.883975 123.12508 
L 456.332425 114.708598 
L 465.780875 109.121668 
L 475.229325 102.481975 
L 484.677775 101.938431 
L 494.126225 103.184806 
L 503.574675 101.263286 
L 513.023125 100.898384 
L 522.471575 102.306296 
L 531.920025 105.182667 
L 541.368475 107.015841 
L 550.816925 104.250212 
L 560.265375 107.391321 
L 569.713825 117.419081 
L 579.162275 127.231058 
L 588.610725 135.45498 
L 598.059175 144.373891 
L 607.507625 151.884028 
L 616.956075 160.552007 
L 626.404525 175.277907 
L 635.852975 191.707181 
L 645.301425 207.52711 
L 654.749875 225.191617 
L 664.198325 243.922131 
L 673.646775 258.941542 
L 683.095225 271.847774 
L 692.543675 284.686629 
L 701.992125 297.358809 
L 711.440575 307.980044 
L 720.889025 316.03714 
L 730.337475 322.808996 
L 739.785925 327.803162 
L 749.234375 331.756343 
L 758.682825 335.292741 
L 768.131275 337.981278 
L 777.579725 340.366587 
L 787.028175 342.633239 
L 796.476625 344.903679 
L 805.925075 346.868715 
L 815.373525 348.203624 
L 824.821975 349.36698 
L 834.270425 350.451593 
L 843.718875 351.189762 
L 853.167325 351.728017 
L 862.615775 352.058706 
L 872.064225 352.431561 
L 881.512675 352.816945 
L 890.961125 353.002303 
L 900.409575 353.049646 
L 909.858025 353.069566 
L 919.306475 353.10633 
L 928.754925 353.166503 
L 938.203375 353.196365 
L 947.651825 353.197828 
L 957.100275 353.150334 
L 966.548725 353.004254 
L 975.997175 353.061538 
L 985.445625 353.222362 
" clip-path="url(#p2b1fe493f3)" style="fill: none; stroke: #5cb85c; stroke-linecap: square"/>
   </g>
   <g id="line2d_15">
    <path d="M 40.600625 353.02974 
L 50.049075 353.102349 
L 59.497525 353.181803 
L 68.945975 353.189206 
L 78.394425 353.187844 
L 87.842875 353.184839 
L 97.291325 353.182485 
L 106.739775 353.181617 
L 116.188225 353.178148 
L 125.636675 353.172262 
L 135.085125 353.168112 
L 144.533575 353.162071 
L 153.982025 353.152128 
L 163.430475 353.140357 
L 172.878925 353.128152 
L 182.327375 353.105446 
L 191.775825 353.064496 
L 201.224275 352.999848 
L 210.672725 352.890842 
L 220.121175 352.708701 
L 229.569625 352.415448 
L 239.018075 351.929274 
L 248.466525 351.199502 
L 257.914975 350.345298 
L 267.363425 349.341695 
L 276.811875 348.053047 
L 286.260325 346.176809 
L 295.708775 343.662179 
L 305.157225 340.855132 
L 314.605675 337.500671 
L 324.054125 333.218096 
L 333.502575 328.210396 
L 342.951025 322.736501 
L 352.399475 316.052113 
L 361.847925 306.092872 
L 371.296375 293.371872 
L 380.744825 278.250607 
L 390.193275 260.088485 
L 399.641725 237.595775 
L 409.090175 213.487277 
L 418.538625 190.213033 
L 427.987075 166.407638 
L 437.435525 142.6269 
L 446.883975 119.891181 
L 456.332425 105.363454 
L 465.780875 94.796085 
L 475.229325 86.189582 
L 484.677775 85.930558 
L 494.126225 86.837019 
L 503.574675 83.420203 
L 513.023125 82.816381 
L 522.471575 86.483734 
L 531.920025 91.176405 
L 541.368475 92.832556 
L 550.816925 88.810399 
L 560.265375 92.071807 
L 569.713825 103.550965 
L 579.162275 113.360652 
L 588.610725 123.408237 
L 598.059175 134.958114 
L 607.507625 142.178053 
L 616.956075 151.60608 
L 626.404525 168.105607 
L 635.852975 185.271963 
L 645.301425 201.485888 
L 654.749875 219.644107 
L 664.198325 239.158223 
L 673.646775 255.299261 
L 683.095225 268.714348 
L 692.543675 281.791855 
L 701.992125 294.962353 
L 711.440575 306.047894 
L 720.889025 314.193035 
L 730.337475 321.204101 
L 739.785925 326.50301 
L 749.234375 330.572777 
L 758.682825 334.305552 
L 768.131275 337.040579 
L 777.579725 339.447938 
L 787.028175 341.837671 
L 796.476625 344.262129 
L 805.925075 346.285226 
L 815.373525 347.591437 
L 824.821975 348.79775 
L 834.270425 349.953013 
L 843.718875 350.7689 
L 853.167325 351.374363 
L 862.615775 351.742765 
L 872.064225 352.177023 
L 881.512675 352.641606 
L 890.961125 352.892143 
L 900.409575 352.992538 
L 909.858025 353.038754 
L 919.306475 353.084537 
L 928.754925 353.155256 
L 938.203375 353.19345 
L 947.651825 353.197353 
L 957.100275 353.137228 
L 966.548725 352.990183 
L 975.997175 353.059756 
L 985.445625 353.22167 
" clip-path="url(#p2b1fe493f3)" style="fill: none; stroke: #5cb85c; stroke-linecap: square"/>
   </g>
   <g id="line2d_16">
    <path d="M 40.600625 353.18608 
L 50.049075 353.198083 
L 59.497525 353.209782 
L 68.945975 353.209782 
L 78.394425 353.20784 
L 87.842875 353.203825 
L 97.291325 353.200155 
L 106.739775 353.197996 
L 116.188225 353.194629 
L 125.636675 353.187505 
L 135.085125 353.180382 
L 144.533575 353.174121 
L 153.982025 353.163415 
L 163.430475 353.150592 
L 172.878925 353.132071 
L 182.327375 353.094813 
L 191.775825 353.041926 
L 201.224275 352.966761 
L 210.672725 352.842639 
L 220.121175 352.632602 
L 229.569625 352.297233 
L 239.018075 351.76042 
L 248.466525 350.995004 
L 257.914975 349.954922 
L 267.363425 348.768785 
L 276.811875 347.29667 
L 286.260325 345.109091 
L 295.708775 342.194348 
L 305.157225 338.858323 
L 314.605675 335.226518 
L 324.054125 330.585285 
L 333.502575 324.860623 
L 342.951025 318.764889 
L 352.399475 311.323968 
L 361.847925 300.752872 
L 371.296375 288.562094 
L 380.744825 274.232653 
L 390.193275 256.602156 
L 399.641725 237.000765 
L 409.090175 215.715107 
L 418.538625 194.010541 
L 427.987075 172.102285 
L 437.435525 149.036904 
L 446.883975 127.676686 
L 456.332425 113.940356 
L 465.780875 103.121748 
L 475.229325 92.644682 
L 484.677775 88.349005 
L 494.126225 88.495621 
L 503.574675 86.246909 
L 513.023125 83.624232 
L 522.471575 83.888192 
L 531.920025 87.980869 
L 541.368475 92.889516 
L 550.816925 93.239261 
L 560.265375 96.959527 
L 569.713825 105.675175 
L 579.162275 115.909436 
L 588.610725 125.731955 
L 598.059175 135.484232 
L 607.507625 146.169392 
L 616.956075 158.660525 
L 626.404525 173.959762 
L 635.852975 187.811364 
L 645.301425 201.833327 
L 654.749875 220.051021 
L 664.198325 238.107032 
L 673.646775 252.583952 
L 683.095225 265.128965 
L 692.543675 278.117969 
L 701.992125 291.693782 
L 711.440575 302.69022 
L 720.889025 311.147045 
L 730.337475 318.303239 
L 739.785925 323.613828 
L 749.234375 328.188057 
L 758.682825 332.818541 
L 768.131275 335.823515 
L 777.579725 338.053275 
L 787.028175 340.66844 
L 796.476625 342.832748 
L 805.925075 344.420826 
L 815.373525 345.793471 
L 824.821975 347.344765 
L 834.270425 348.732909 
L 843.718875 349.640752 
L 853.167325 350.358461 
L 862.615775 350.838286 
L 872.064225 351.493783 
L 881.512675 352.233208 
L 890.961125 352.647971 
L 900.409575 352.838235 
L 909.858025 352.93749 
L 919.306475 353.023879 
L 928.754925 353.133755 
L 938.203375 353.185433 
L 947.651825 353.19329 
L 957.100275 353.141612 
L 966.548725 353.012007 
L 975.997175 353.075169 
L 985.445625 353.220619 
" clip-path="url(#p2b1fe493f3)" style="fill: none; stroke: #5cb85c; stroke-linecap: square"/>
   </g>
   <g id="line2d_17">
    <path d="M 40.600625 353.090084 
L 50.049075 353.138383 
L 59.497525 353.189401 
L 68.945975 353.193199 
L 78.394425 353.193617 
L 87.842875 353.192328 
L 97.291325 353.190481 
L 106.739775 353.188843 
L 116.188225 353.186892 
L 125.636675 353.180828 
L 135.085125 353.173371 
L 144.533575 353.166715 
L 153.982025 353.157585 
L 163.430475 353.146607 
L 172.878925 353.132355 
L 182.327375 353.110819 
L 191.775825 353.070778 
L 201.224275 353.006205 
L 210.672725 352.917727 
L 220.121175 352.760563 
L 229.569625 352.508334 
L 239.018075 352.122568 
L 248.466525 351.533848 
L 257.914975 350.707675 
L 267.363425 349.779467 
L 276.811875 348.642938 
L 286.260325 346.945917 
L 295.708775 344.647386 
L 305.157225 342.002955 
L 314.605675 339.080299 
L 324.054125 335.248671 
L 333.502575 330.508873 
L 342.951025 325.208024 
L 352.399475 318.601076 
L 361.847925 308.748538 
L 371.296375 296.921728 
L 380.744825 282.897481 
L 390.193275 265.165665 
L 399.641725 243.009528 
L 409.090175 219.698672 
L 418.538625 196.406111 
L 427.987075 172.044487 
L 437.435525 146.26783 
L 446.883975 121.998553 
L 456.332425 106.41117 
L 465.780875 93.394863 
L 475.229325 83.270302 
L 484.677775 80.644968 
L 494.126225 81.469782 
L 503.574675 75.966641 
L 513.023125 72.770917 
L 522.471575 77.675093 
L 531.920025 83.423981 
L 541.368475 86.308513 
L 550.816925 83.891953 
L 560.265375 88.120847 
L 569.713825 98.701113 
L 579.162275 107.239922 
L 588.610725 120.792259 
L 598.059175 136.465507 
L 607.507625 145.13855 
L 616.956075 158.111715 
L 626.404525 175.678806 
L 635.852975 189.281951 
L 645.301425 203.122689 
L 654.749875 221.896109 
L 664.198325 240.372624 
L 673.646775 255.053196 
L 683.095225 267.993256 
L 692.543675 280.656205 
L 701.992125 293.814343 
L 711.440575 304.82993 
L 720.889025 313.19652 
L 730.337475 320.172332 
L 739.785925 325.463912 
L 749.234375 329.920013 
L 758.682825 334.135073 
L 768.131275 337.104216 
L 777.579725 339.423725 
L 787.028175 341.873077 
L 796.476625 343.95799 
L 805.925075 345.610372 
L 815.373525 347.000697 
L 824.821975 348.363981 
L 834.270425 349.591184 
L 843.718875 350.45332 
L 853.167325 351.116893 
L 862.615775 351.553885 
L 872.064225 352.039177 
L 881.512675 352.553322 
L 890.961125 352.850958 
L 900.409575 352.984112 
L 909.858025 353.042621 
L 919.306475 353.086843 
L 928.754925 353.149848 
L 938.203375 353.185358 
L 947.651825 353.185707 
L 957.100275 353.102246 
L 966.548725 352.874829 
L 975.997175 352.971915 
L 985.445625 353.221042 
" clip-path="url(#p2b1fe493f3)" style="fill: none; stroke: #5cb85c; stroke-linecap: square"/>
   </g>
   <g id="line2d_18">
    <path d="M 40.600625 353.068058 
L 50.049075 353.122453 
L 59.497525 353.182173 
L 68.945975 353.188507 
L 78.394425 353.188298 
L 87.842875 353.185514 
L 97.291325 353.183321 
L 106.739775 353.181059 
L 116.188225 353.176883 
L 125.636675 353.172254 
L 135.085125 353.166164 
L 144.533575 353.157498 
L 153.982025 353.148972 
L 163.430475 353.137522 
L 172.878925 353.118137 
L 182.327375 353.091549 
L 191.775825 353.05452 
L 201.224275 352.997654 
L 210.672725 352.9079 
L 220.121175 352.762846 
L 229.569625 352.529709 
L 239.018075 352.150335 
L 248.466525 351.584527 
L 257.914975 350.817844 
L 267.363425 349.960642 
L 276.811875 348.875487 
L 286.260325 347.285464 
L 295.708775 345.143414 
L 305.157225 342.676281 
L 314.605675 339.967589 
L 324.054125 336.397344 
L 333.502575 331.941046 
L 342.951025 326.879545 
L 352.399475 320.611223 
L 361.847925 311.140127 
L 371.296375 299.714599 
L 380.744825 286.171417 
L 390.193275 268.696121 
L 399.641725 246.757045 
L 409.090175 223.266471 
L 418.538625 199.735178 
L 427.987075 174.558597 
L 437.435525 147.037385 
L 446.883975 121.148655 
L 456.332425 104.409938 
L 465.780875 91.170437 
L 475.229325 80.57427 
L 484.677775 77.186038 
L 494.126225 77.520657 
L 503.574675 72.495559 
L 513.023125 69.499474 
L 522.471575 74.102218 
L 531.920025 80.801873 
L 541.368475 85.21547 
L 550.816925 83.749097 
L 560.265375 87.70846 
L 569.713825 98.146836 
L 579.162275 107.3944 
L 588.610725 120.364849 
L 598.059175 135.322653 
L 607.507625 144.764167 
L 616.956075 157.79973 
L 626.404525 175.380963 
L 635.852975 189.236386 
L 645.301425 203.038459 
L 654.749875 221.712119 
L 664.198325 239.922115 
L 673.646775 254.235216 
L 683.095225 266.994697 
L 692.543675 279.923836 
L 701.992125 293.359341 
L 711.440575 304.472733 
L 720.889025 312.844962 
L 730.337475 319.836396 
L 739.785925 325.11064 
L 749.234375 329.603411 
L 758.682825 333.972496 
L 768.131275 337.0986 
L 777.579725 339.528669 
L 787.028175 342.103444 
L 796.476625 344.230007 
L 805.925075 345.925584 
L 815.373525 347.424358 
L 824.821975 348.817716 
L 834.270425 349.991128 
L 843.718875 350.826997 
L 853.167325 351.441457 
L 862.615775 351.77197 
L 872.064225 352.190635 
L 881.512675 352.667976 
L 890.961125 352.927284 
L 900.409575 353.004301 
L 909.858025 353.037223 
L 919.306475 353.078637 
L 928.754925 353.146222 
L 938.203375 353.185722 
L 947.651825 353.186105 
L 957.100275 353.086433 
L 966.548725 352.826672 
L 975.997175 352.939535 
L 985.445625 353.221881 
" clip-path="url(#p2b1fe493f3)" style="fill: none; stroke: #f0ad4e; stroke-linecap: square"/>
   </g>
   <g id="line2d_19">
    <path d="M 40.600625 353.136335 
L 50.049075 353.168028 
L 59.497525 353.201677 
L 68.945975 353.20335 
L 78.394425 353.203256 
L 87.842875 353.201772 
L 97.291325 353.197921 
L 106.739775 353.194512 
L 116.188225 353.192334 
L 125.636675 353.188388 
L 135.085125 353.183464 
L 144.533575 353.178855 
L 153.982025 353.170995 
L 163.430475 353.160988 
L 172.878925 353.149183 
L 182.327375 353.127276 
L 191.775825 353.090753 
L 201.224275 353.038574 
L 210.672725 352.944159 
L 220.121175 352.776953 
L 229.569625 352.52035 
L 239.018075 352.080979 
L 248.466525 351.421022 
L 257.914975 350.700047 
L 267.363425 349.85448 
L 276.811875 348.739085 
L 286.260325 347.115503 
L 295.708775 344.978275 
L 305.157225 342.585769 
L 314.605675 339.694611 
L 324.054125 335.938535 
L 333.502575 331.590024 
L 342.951025 326.830297 
L 352.399475 320.872188 
L 361.847925 312.203637 
L 371.296375 301.030457 
L 380.744825 287.566668 
L 390.193275 271.035644 
L 399.641725 250.338592 
L 409.090175 227.688281 
L 418.538625 204.893648 
L 427.987075 180.805933 
L 437.435525 156.726141 
L 446.883975 132.744552 
L 456.332425 115.614462 
L 465.780875 102.976195 
L 475.229325 92.041562 
L 484.677775 89.344379 
L 494.126225 88.846104 
L 503.574675 85.254963 
L 513.023125 83.965227 
L 522.471575 84.882733 
L 531.920025 86.931355 
L 541.368475 87.152162 
L 550.816925 82.115378 
L 560.265375 84.768179 
L 569.713825 95.343588 
L 579.162275 104.660289 
L 588.610725 113.689517 
L 598.059175 124.351196 
L 607.507625 131.758231 
L 616.956075 140.606268 
L 626.404525 157.487805 
L 635.852975 175.74437 
L 645.301425 192.602989 
L 654.749875 211.512157 
L 664.198325 231.914536 
L 673.646775 248.713306 
L 683.095225 262.844028 
L 692.543675 276.909534 
L 701.992125 290.792429 
L 711.440575 302.458296 
L 720.889025 311.110433 
L 730.337475 318.506261 
L 739.785925 324.309412 
L 749.234375 328.722224 
L 758.682825 332.584836 
L 768.131275 335.46643 
L 777.579725 338.06721 
L 787.028175 340.712403 
L 796.476625 343.398286 
L 805.925075 345.654267 
L 815.373525 347.064397 
L 824.821975 348.386773 
L 834.270425 349.64185 
L 843.718875 350.489563 
L 853.167325 351.124267 
L 862.615775 351.524717 
L 872.064225 352.02861 
L 881.512675 352.571772 
L 890.961125 352.848766 
L 900.409575 352.951988 
L 909.858025 352.999969 
L 919.306475 353.052495 
L 928.754925 353.13703 
L 938.203375 353.183779 
L 947.651825 353.184379 
L 957.100275 353.083304 
L 966.548725 352.840717 
L 975.997175 352.954734 
L 985.445625 353.220175 
" clip-path="url(#p2b1fe493f3)" style="fill: none; stroke: #5cb85c; stroke-linecap: square"/>
   </g>
   <g id="line2d_20">
    <path d="M 40.600625 353.058953 
L 50.049075 353.120893 
L 59.497525 353.187551 
L 68.945975 353.19227 
L 78.394425 353.190986 
L 87.842875 353.188193 
L 97.291325 353.185551 
L 106.739775 353.183664 
L 116.188225 353.180833 
L 125.636675 353.175624 
L 135.085125 353.172378 
L 144.533575 353.16649 
L 153.982025 353.15543 
L 163.430475 353.145239 
L 172.878925 353.130783 
L 182.327375 353.106663 
L 191.775825 353.072127 
L 201.224275 353.008941 
L 210.672725 352.912351 
L 220.121175 352.74246 
L 229.569625 352.452501 
L 239.018075 351.998351 
L 248.466525 351.327619 
L 257.914975 350.54233 
L 267.363425 349.63369 
L 276.811875 348.495407 
L 286.260325 346.801214 
L 295.708775 344.533633 
L 305.157225 342.053434 
L 314.605675 339.109723 
L 324.054125 335.446966 
L 333.502575 331.246416 
L 342.951025 326.66679 
L 352.399475 321.096089 
L 361.847925 312.750323 
L 371.296375 302.114064 
L 380.744825 289.218415 
L 390.193275 273.186442 
L 399.641725 252.633085 
L 409.090175 230.146154 
L 418.538625 207.752226 
L 427.987075 183.475682 
L 437.435525 158.475298 
L 446.883975 133.483557 
L 456.332425 115.737423 
L 465.780875 102.481082 
L 475.229325 90.86258 
L 484.677775 87.549834 
L 494.126225 87.053636 
L 503.574675 82.618046 
L 513.023125 80.530245 
L 522.471575 82.755438 
L 531.920025 85.553641 
L 541.368475 85.717757 
L 550.816925 80.978092 
L 560.265375 83.9098 
L 569.713825 94.585125 
L 579.162275 104.077855 
L 588.610725 114.083164 
L 598.059175 125.173951 
L 607.507625 131.867572 
L 616.956075 141.314366 
L 626.404525 159.036003 
L 635.852975 177.143471 
L 645.301425 194.071402 
L 654.749875 213.189046 
L 664.198325 233.574777 
L 673.646775 250.034252 
L 683.095225 263.939509 
L 692.543675 277.674762 
L 701.992125 291.262394 
L 711.440575 302.881311 
L 720.889025 311.72169 
L 730.337475 319.015158 
L 739.785925 324.404532 
L 749.234375 328.747872 
L 758.682825 332.574519 
L 768.131275 335.312367 
L 777.579725 337.847637 
L 787.028175 340.339273 
L 796.476625 342.865559 
L 805.925075 344.867339 
L 815.373525 345.947229 
L 824.821975 347.208485 
L 834.270425 348.555347 
L 843.718875 349.527248 
L 853.167325 350.261543 
L 862.615775 350.758761 
L 872.064225 351.401599 
L 881.512675 352.069086 
L 890.961125 352.483339 
L 900.409575 352.749103 
L 909.858025 352.927713 
L 919.306475 353.017887 
L 928.754925 353.118742 
L 938.203375 353.176643 
L 947.651825 353.182946 
L 957.100275 353.090018 
L 966.548725 352.846221 
L 975.997175 352.954399 
L 985.445625 353.220201 
" clip-path="url(#p2b1fe493f3)" style="fill: none; stroke: #5cb85c; stroke-linecap: square"/>
   </g>
   <g id="line2d_21">
    <path d="M 40.600625 352.998015 
L 50.049075 353.084133 
L 59.497525 353.175935 
L 68.945975 353.182554 
L 78.394425 353.180958 
L 87.842875 353.177571 
L 97.291325 353.175819 
L 106.739775 353.173911 
L 116.188225 353.171264 
L 125.636675 353.165541 
L 135.085125 353.159545 
L 144.533575 353.152732 
L 153.982025 353.142142 
L 163.430475 353.131903 
L 172.878925 353.114773 
L 182.327375 353.085068 
L 191.775825 353.045746 
L 201.224275 352.982598 
L 210.672725 352.870356 
L 220.121175 352.678615 
L 229.569625 352.369609 
L 239.018075 351.843985 
L 248.466525 351.09886 
L 257.914975 350.273185 
L 267.363425 349.298126 
L 276.811875 348.071838 
L 286.260325 346.294853 
L 295.708775 343.848155 
L 305.157225 341.141662 
L 314.605675 338.014039 
L 324.054125 333.99074 
L 333.502575 329.196154 
L 342.951025 323.853207 
L 352.399475 317.320023 
L 361.847925 307.515906 
L 371.296375 294.864945 
L 380.744825 280.129902 
L 390.193275 262.278097 
L 399.641725 238.359945 
L 409.090175 215.107885 
L 418.538625 195.141942 
L 427.987075 173.555248 
L 437.435525 152.791116 
L 446.883975 132.96708 
L 456.332425 119.758026 
L 465.780875 109.721989 
L 475.229325 104.095849 
L 484.677775 106.674839 
L 494.126225 108.396073 
L 503.574675 102.780912 
L 513.023125 102.788426 
L 522.471575 109.457678 
L 531.920025 113.914994 
L 541.368475 112.939468 
L 550.816925 103.345508 
L 560.265375 104.806597 
L 569.713825 115.244609 
L 579.162275 118.777595 
L 588.610725 130.062656 
L 598.059175 144.678177 
L 607.507625 145.656662 
L 616.956075 150.935254 
L 626.404525 164.625317 
L 635.852975 175.690527 
L 645.301425 186.083689 
L 654.749875 199.709631 
L 664.198325 214.974036 
L 673.646775 228.333642 
L 683.095225 239.858175 
L 692.543675 252.039808 
L 701.992125 265.846706 
L 711.440575 278.837 
L 720.889025 290.174737 
L 730.337475 300.927555 
L 739.785925 310.447895 
L 749.234375 318.532724 
L 758.682825 325.556377 
L 768.131275 331.31477 
L 777.579725 336.034022 
L 787.028175 340.039918 
L 796.476625 343.404171 
L 805.925075 345.898717 
L 815.373525 347.505179 
L 824.821975 348.884432 
L 834.270425 350.134547 
L 843.718875 350.92896 
L 853.167325 351.444657 
L 862.615775 351.789051 
L 872.064225 352.232062 
L 881.512675 352.661407 
L 890.961125 352.873665 
L 900.409575 352.978276 
L 909.858025 353.037298 
L 919.306475 353.086625 
L 928.754925 353.154562 
L 938.203375 353.190107 
L 947.651825 353.191742 
L 957.100275 353.101769 
L 966.548725 352.854199 
L 975.997175 352.955228 
L 985.445625 353.221603 
" clip-path="url(#p2b1fe493f3)" style="fill: none; stroke: #f0ad4e; stroke-linecap: square"/>
   </g>
   <g id="line2d_22">
    <path d="M 40.600625 353.052477 
L 50.049075 353.109981 
L 59.497525 353.176252 
L 68.945975 353.185496 
L 78.394425 353.183389 
L 87.842875 353.178801 
L 97.291325 353.173092 
L 106.739775 353.16711 
L 116.188225 353.16259 
L 125.636675 353.156609 
L 135.085125 353.151477 
L 144.533575 353.145496 
L 153.982025 353.136897 
L 163.430475 353.119904 
L 172.878925 353.09812 
L 182.327375 353.071611 
L 191.775825 353.024439 
L 201.224275 352.953138 
L 210.672725 352.832557 
L 220.121175 352.639146 
L 229.569625 352.314992 
L 239.018075 351.822917 
L 248.466525 351.136716 
L 257.914975 350.291837 
L 267.363425 349.306734 
L 276.811875 348.063205 
L 286.260325 346.261703 
L 295.708775 343.87565 
L 305.157225 341.299381 
L 314.605675 338.278106 
L 324.054125 334.306122 
L 333.502575 329.430735 
L 342.951025 323.721956 
L 352.399475 316.834697 
L 361.847925 306.823425 
L 371.296375 294.354425 
L 380.744825 279.407306 
L 390.193275 261.016268 
L 399.641725 238.147304 
L 409.090175 215.283098 
L 418.538625 193.56009 
L 427.987075 170.282246 
L 437.435525 146.317794 
L 446.883975 123.262964 
L 456.332425 107.559974 
L 465.780875 95.56779 
L 475.229325 86.116292 
L 484.677775 82.698917 
L 494.126225 83.081661 
L 503.574675 77.731497 
L 513.023125 76.276205 
L 522.471575 82.232908 
L 531.920025 87.325734 
L 541.368475 90.126443 
L 550.816925 87.526656 
L 560.265375 91.660445 
L 569.713825 100.096491 
L 579.162275 106.089796 
L 588.610725 120.264459 
L 598.059175 138.133887 
L 607.507625 147.645709 
L 616.956075 161.248397 
L 626.404525 180.260111 
L 635.852975 194.215296 
L 645.301425 208.724274 
L 654.749875 227.358138 
L 664.198325 244.92462 
L 673.646775 258.842285 
L 683.095225 270.868386 
L 692.543675 282.932823 
L 701.992125 294.91403 
L 711.440575 305.129691 
L 720.889025 313.108631 
L 730.337475 319.594794 
L 739.785925 324.473987 
L 749.234375 328.412938 
L 758.682825 332.355933 
L 768.131275 335.00143 
L 777.579725 337.093169 
L 787.028175 339.884362 
L 796.476625 342.099773 
L 805.925075 342.957227 
L 815.373525 343.655459 
L 824.821975 345.157141 
L 834.270425 346.782089 
L 843.718875 347.957102 
L 853.167325 348.632156 
L 862.615775 349.005147 
L 872.064225 349.568694 
L 881.512675 350.393453 
L 890.961125 351.25733 
L 900.409575 352.017857 
L 909.858025 352.542185 
L 919.306475 352.819235 
L 928.754925 353.025527 
L 938.203375 353.137475 
L 947.651825 353.160211 
L 957.100275 353.058527 
L 966.548725 352.796838 
L 975.997175 352.925983 
L 985.445625 353.219958 
" clip-path="url(#p2b1fe493f3)" style="fill: none; stroke: #5cb85c; stroke-linecap: square"/>
   </g>
   <g id="line2d_23">
    <path d="M 40.600625 353.077047 
L 50.049075 353.132305 
L 59.497525 353.193117 
L 68.945975 353.198529 
L 78.394425 353.197346 
L 87.842875 353.194945 
L 97.291325 353.191863 
L 106.739775 353.189426 
L 116.188225 353.186309 
L 125.636675 353.180683 
L 135.085125 353.172835 
L 144.533575 353.164091 
L 153.982025 353.156565 
L 163.430475 353.147212 
L 172.878925 353.132771 
L 182.327375 353.110875 
L 191.775825 353.068733 
L 201.224275 353.004695 
L 210.672725 352.90407 
L 220.121175 352.726434 
L 229.569625 352.446812 
L 239.018075 352.019547 
L 248.466525 351.408484 
L 257.914975 350.621935 
L 267.363425 349.719673 
L 276.811875 348.603261 
L 286.260325 346.950823 
L 295.708775 344.755983 
L 305.157225 342.333516 
L 314.605675 339.53804 
L 324.054125 335.782322 
L 333.502575 331.165302 
L 342.951025 325.931592 
L 352.399475 319.165278 
L 361.847925 308.820057 
L 371.296375 296.106624 
L 380.744825 280.866803 
L 390.193275 261.859544 
L 399.641725 238.327434 
L 409.090175 214.441236 
L 418.538625 191.044476 
L 427.987075 166.657264 
L 437.435525 142.556627 
L 446.883975 120.043242 
L 456.332425 106.273672 
L 465.780875 95.794391 
L 475.229325 86.555369 
L 484.677775 84.57271 
L 494.126225 85.920762 
L 503.574675 80.440326 
L 513.023125 77.629262 
L 522.471575 82.096383 
L 531.920025 86.866527 
L 541.368475 89.595923 
L 550.816925 87.601868 
L 560.265375 91.225856 
L 569.713825 99.926595 
L 579.162275 107.620613 
L 588.610725 120.693689 
L 598.059175 135.624037 
L 607.507625 144.178102 
L 616.956075 157.423976 
L 626.404525 175.634974 
L 635.852975 189.354734 
L 645.301425 203.184723 
L 654.749875 221.846744 
L 664.198325 240.212048 
L 673.646775 254.469481 
L 683.095225 267.124897 
L 692.543675 279.961101 
L 701.992125 293.343651 
L 711.440575 304.468505 
L 720.889025 312.574235 
L 730.337475 319.397992 
L 739.785925 324.544407 
L 749.234375 328.940467 
L 758.682825 333.31051 
L 768.131275 336.387867 
L 777.579725 338.806212 
L 787.028175 341.46193 
L 796.476625 343.643906 
L 805.925075 345.369555 
L 815.373525 346.887717 
L 824.821975 348.346895 
L 834.270425 349.527274 
L 843.718875 350.308483 
L 853.167325 350.967315 
L 862.615775 351.385549 
L 872.064225 351.8976 
L 881.512675 352.506549 
L 890.961125 352.854044 
L 900.409575 352.960331 
L 909.858025 352.996991 
L 919.306475 353.042466 
L 928.754925 353.125353 
L 938.203375 353.178389 
L 947.651825 353.185556 
L 957.100275 353.096398 
L 966.548725 352.79961 
L 975.997175 352.903927 
L 985.445625 353.221607 
" clip-path="url(#p2b1fe493f3)" style="fill: none; stroke: #5cb85c; stroke-linecap: square"/>
   </g>
   <g id="line2d_24">
    <path d="M 40.600625 353.091466 
L 50.049075 353.138204 
L 59.497525 353.189437 
L 68.945975 353.194283 
L 78.394425 353.195111 
L 87.842875 353.193868 
L 97.291325 353.19119 
L 106.739775 353.189628 
L 116.188225 353.186249 
L 125.636675 353.178852 
L 135.085125 353.171264 
L 144.533575 353.165111 
L 153.982025 353.158672 
L 163.430475 353.149777 
L 172.878925 353.135558 
L 182.327375 353.11203 
L 191.775825 353.074761 
L 201.224275 353.025855 
L 210.672725 352.945866 
L 220.121175 352.797683 
L 229.569625 352.556344 
L 239.018075 352.185218 
L 248.466525 351.662911 
L 257.914975 350.97916 
L 267.363425 350.17069 
L 276.811875 349.116641 
L 286.260325 347.565791 
L 295.708775 345.43053 
L 305.157225 342.903802 
L 314.605675 339.930933 
L 324.054125 335.851761 
L 333.502575 330.428232 
L 342.951025 323.824054 
L 352.399475 315.309217 
L 361.847925 302.744284 
L 371.296375 287.480753 
L 380.744825 269.970632 
L 390.193275 249.283923 
L 399.641725 225.463408 
L 409.090175 203.053595 
L 418.538625 182.395802 
L 427.987075 161.719262 
L 437.435525 140.835401 
L 446.883975 121.026821 
L 456.332425 109.529486 
L 465.780875 99.450887 
L 475.229325 90.069015 
L 484.677775 88.333064 
L 494.126225 89.503925 
L 503.574675 83.022903 
L 513.023125 79.269204 
L 522.471575 84.938121 
L 531.920025 92.008845 
L 541.368475 94.99265 
L 550.816925 91.774361 
L 560.265375 94.660546 
L 569.713825 103.600261 
L 579.162275 110.621155 
L 588.610725 123.690605 
L 598.059175 139.733594 
L 607.507625 148.253341 
L 616.956075 161.541558 
L 626.404525 179.61798 
L 635.852975 192.93422 
L 645.301425 206.685063 
L 654.749875 224.78565 
L 664.198325 242.250818 
L 673.646775 256.202606 
L 683.095225 268.296689 
L 692.543675 280.802675 
L 701.992125 293.810945 
L 711.440575 304.435124 
L 720.889025 312.561618 
L 730.337475 319.346465 
L 739.785925 324.735467 
L 749.234375 329.109666 
L 758.682825 332.906595 
L 768.131275 335.696532 
L 777.579725 338.069912 
L 787.028175 340.779987 
L 796.476625 343.024855 
L 805.925075 344.668032 
L 815.373525 346.174249 
L 824.821975 347.799414 
L 834.270425 349.216237 
L 843.718875 350.152135 
L 853.167325 350.834325 
L 862.615775 351.212975 
L 872.064225 351.699798 
L 881.512675 352.335377 
L 890.961125 352.742943 
L 900.409575 352.887683 
L 909.858025 352.946727 
L 919.306475 353.016769 
L 928.754925 353.119585 
L 938.203375 353.174931 
L 947.651825 353.182965 
L 957.100275 353.112221 
L 966.548725 352.880606 
L 975.997175 352.968055 
L 985.445625 353.220329 
" clip-path="url(#p2b1fe493f3)" style="fill: none; stroke: #5cb85c; stroke-linecap: square"/>
   </g>
   <g id="line2d_25">
    <path d="M 40.600625 353.198518 
L 50.049075 353.205074 
L 59.497525 353.2102 
L 68.945975 353.208814 
L 78.394425 353.207679 
L 87.842875 353.205032 
L 97.291325 353.202552 
L 106.739775 353.200745 
L 116.188225 353.19814 
L 125.636675 353.191836 
L 135.085125 353.184314 
L 144.533575 353.178095 
L 153.982025 353.168093 
L 163.430475 353.154016 
L 172.878925 353.136828 
L 182.327375 353.115985 
L 191.775825 353.07766 
L 201.224275 353.005717 
L 210.672725 352.886959 
L 220.121175 352.653017 
L 229.569625 352.304058 
L 239.018075 351.796294 
L 248.466525 351.049923 
L 257.914975 350.124787 
L 267.363425 349.054628 
L 276.811875 347.806419 
L 286.260325 345.892943 
L 295.708775 343.284238 
L 305.157225 340.565433 
L 314.605675 337.275451 
L 324.054125 332.925186 
L 333.502575 327.999164 
L 342.951025 322.768139 
L 352.399475 316.273356 
L 361.847925 306.577344 
L 371.296375 293.902362 
L 380.744825 278.842405 
L 390.193275 261.321329 
L 399.641725 240.734253 
L 409.090175 217.042139 
L 418.538625 192.996065 
L 427.987075 169.930346 
L 437.435525 147.152485 
L 446.883975 124.13068 
L 456.332425 109.56525 
L 465.780875 98.55606 
L 475.229325 85.574352 
L 484.677775 82.704895 
L 494.126225 84.388547 
L 503.574675 83.331248 
L 513.023125 81.731306 
L 522.471575 82.40338 
L 531.920025 89.13429 
L 541.368475 93.098069 
L 550.816925 90.481086 
L 560.265375 94.247357 
L 569.713825 104.523665 
L 579.162275 115.59072 
L 588.610725 123.388427 
L 598.059175 131.681375 
L 607.507625 141.577711 
L 616.956075 151.595074 
L 626.404525 168.235054 
L 635.852975 186.014235 
L 645.301425 201.562499 
L 654.749875 219.253306 
L 664.198325 237.61749 
L 673.646775 253.170335 
L 683.095225 266.583325 
L 692.543675 279.899872 
L 701.992125 293.355936 
L 711.440575 304.306672 
L 720.889025 312.353071 
L 730.337475 319.482024 
L 739.785925 325.250397 
L 749.234375 329.533173 
L 758.682825 333.540109 
L 768.131275 336.499202 
L 777.579725 338.743357 
L 787.028175 341.401859 
L 796.476625 343.98598 
L 805.925075 346.070952 
L 815.373525 347.457376 
L 824.821975 348.747062 
L 834.270425 349.965645 
L 843.718875 350.653898 
L 853.167325 351.177841 
L 862.615775 351.512513 
L 872.064225 352.010233 
L 881.512675 352.574098 
L 890.961125 352.836112 
L 900.409575 352.920074 
L 909.858025 352.962307 
L 919.306475 353.034124 
L 928.754925 353.140442 
L 938.203375 353.189525 
L 947.651825 353.198728 
L 957.100275 353.166328 
L 966.548725 353.09157 
L 975.997175 353.135273 
L 985.445625 353.222261 
" clip-path="url(#p2b1fe493f3)" style="fill: none; stroke: #5cb85c; stroke-linecap: square"/>
   </g>
   <g id="line2d_26">
    <path d="M 40.600625 352.896539 
L 50.049075 353.015181 
L 59.497525 353.150737 
L 68.945975 353.168846 
L 78.394425 353.169728 
L 87.842875 353.169854 
L 97.291325 353.167618 
L 106.739775 353.164626 
L 116.188225 353.160437 
L 125.636675 353.152973 
L 135.085125 353.146548 
L 144.533575 353.138579 
L 153.982025 353.124533 
L 163.430475 353.110864 
L 172.878925 353.102864 
L 182.327375 353.09014 
L 191.775825 353.062298 
L 201.224275 353.019937 
L 210.672725 352.947152 
L 220.121175 352.78725 
L 229.569625 352.570154 
L 239.018075 352.238761 
L 248.466525 351.733673 
L 257.914975 351.131642 
L 267.363425 350.433267 
L 276.811875 349.663399 
L 286.260325 348.422078 
L 295.708775 346.665811 
L 305.157225 344.813641 
L 314.605675 342.490712 
L 324.054125 339.435016 
L 333.502575 335.736062 
L 342.951025 331.904638 
L 352.399475 327.520159 
L 361.847925 320.238563 
L 371.296375 310.735389 
L 380.744825 299.978012 
L 390.193275 287.04542 
L 399.641725 264.817459 
L 409.090175 244.974818 
L 418.538625 229.129423 
L 427.987075 206.754443 
L 437.435525 182.986334 
L 446.883975 154.147624 
L 456.332425 129.815027 
L 465.780875 110.050369 
L 475.229325 95.537064 
L 484.677775 92.996818 
L 494.126225 89.104578 
L 503.574675 70.707567 
L 513.023125 65.243212 
L 522.471575 75.321079 
L 531.920025 78.568266 
L 541.368475 70.664167 
L 550.816925 51.414172 
L 560.265375 50.39716 
L 569.713825 61.858612 
L 579.162275 64.558664 
L 588.610725 88.44173 
L 598.059175 116.927032 
L 607.507625 118.913498 
L 616.956075 132.42535 
L 626.404525 159.323672 
L 635.852975 176.820581 
L 645.301425 193.555338 
L 654.749875 215.946381 
L 664.198325 236.662383 
L 673.646775 252.97101 
L 683.095225 267.133616 
L 692.543675 280.090743 
L 701.992125 293.402223 
L 711.440575 304.67968 
L 720.889025 312.364006 
L 730.337475 319.214118 
L 739.785925 324.747668 
L 749.234375 328.967648 
L 758.682825 332.780268 
L 768.131275 335.68674 
L 777.579725 338.289661 
L 787.028175 340.800554 
L 796.476625 343.220488 
L 805.925075 345.114105 
L 815.373525 346.316718 
L 824.821975 347.612084 
L 834.270425 348.974819 
L 843.718875 349.887739 
L 853.167325 350.535469 
L 862.615775 350.982607 
L 872.064225 351.564071 
L 881.512675 352.181188 
L 890.961125 352.546533 
L 900.409575 352.776353 
L 909.858025 352.926554 
L 919.306475 353.012158 
L 928.754925 353.11184 
L 938.203375 353.171083 
L 947.651825 353.174201 
L 957.100275 353.066046 
L 966.548725 352.777046 
L 975.997175 352.901925 
L 985.445625 353.218892 
" clip-path="url(#p2b1fe493f3)" style="fill: none; stroke: #5cb85c; stroke-linecap: square"/>
   </g>
   <g id="line2d_27">
    <path d="M 40.600625 352.885668 
L 50.049075 353.016247 
L 59.497525 353.157535 
L 68.945975 353.170082 
L 78.394425 353.171023 
L 87.842875 353.169724 
L 97.291325 353.166049 
L 106.739775 353.162554 
L 116.188225 353.161389 
L 125.636675 353.15516 
L 135.085125 353.14687 
L 144.533575 353.137729 
L 153.982025 353.122896 
L 163.430475 353.109543 
L 172.878925 353.089781 
L 182.327375 353.055501 
L 191.775825 353.009615 
L 201.224275 352.932226 
L 210.672725 352.80102 
L 220.121175 352.558549 
L 229.569625 352.190966 
L 239.018075 351.643422 
L 248.466525 350.827014 
L 257.914975 349.889303 
L 267.363425 348.74703 
L 276.811875 347.282344 
L 286.260325 345.130932 
L 295.708775 342.291674 
L 305.157225 339.130943 
L 314.605675 335.100031 
L 324.054125 330.012076 
L 333.502575 323.976776 
L 342.951025 317.084334 
L 352.399475 308.795722 
L 361.847925 297.046192 
L 371.296375 282.754454 
L 380.744825 266.100872 
L 390.193275 247.090107 
L 399.641725 226.446301 
L 409.090175 203.737209 
L 418.538625 182.135303 
L 427.987075 162.695027 
L 437.435525 142.129953 
L 446.883975 121.831639 
L 456.332425 111.198077 
L 465.780875 103.436843 
L 475.229325 93.812062 
L 484.677775 92.794364 
L 494.126225 94.461998 
L 503.574675 92.646623 
L 513.023125 91.017257 
L 522.471575 93.466885 
L 531.920025 99.625504 
L 541.368475 102.795735 
L 550.816925 102.037088 
L 560.265375 105.870429 
L 569.713825 115.469668 
L 579.162275 125.501869 
L 588.610725 132.254501 
L 598.059175 139.253592 
L 607.507625 147.461231 
L 616.956075 157.0356 
L 626.404525 171.609422 
L 635.852975 187.103927 
L 645.301425 201.682544 
L 654.749875 217.899579 
L 664.198325 234.957757 
L 673.646775 249.497478 
L 683.095225 262.976034 
L 692.543675 276.649159 
L 701.992125 290.015867 
L 711.440575 301.530858 
L 720.889025 310.292897 
L 730.337475 317.982522 
L 739.785925 323.958493 
L 749.234375 328.407983 
L 758.682825 332.497956 
L 768.131275 335.746068 
L 777.579725 338.384036 
L 787.028175 340.807226 
L 796.476625 343.35499 
L 805.925075 345.586837 
L 815.373525 346.978213 
L 824.821975 348.317698 
L 834.270425 349.546859 
L 843.718875 350.372543 
L 853.167325 351.085841 
L 862.615775 351.548782 
L 872.064225 352.069663 
L 881.512675 352.606004 
L 890.961125 352.886385 
L 900.409575 352.989988 
L 909.858025 353.047345 
L 919.306475 353.09368 
L 928.754925 353.15274 
L 938.203375 353.183839 
L 947.651825 353.190606 
L 957.100275 353.136071 
L 966.548725 352.96924 
L 975.997175 353.038562 
L 985.445625 353.221973 
" clip-path="url(#p2b1fe493f3)" style="fill: none; stroke: #5cb85c; stroke-linecap: square"/>
   </g>
   <g id="line2d_28">
    <path d="M 40.600625 353.2239 
L 985.445625 353.2239 
" clip-path="url(#p2b1fe493f3)" style="fill: none; stroke: #dedede; stroke-width: 2; stroke-linecap: square"/>
   </g>
   <g id="text_18">
    <!-- FastQC: Per Sequence GC Content -->
    <g transform="translate(376.386875 19.3575) scale(0.16 -0.16)">
     <defs>
      <path id="DejaVuSans-46" d="M 628 4666 
L 3309 4666 
L 3309 4134 
L 1259 4134 
L 1259 2759 
L 3109 2759 
L 3109 2228 
L 1259 2228 
L 1259 0 
L 628 0 
L 628 4666 
z
" transform="scale(0.015625)"/>
      <path id="DejaVuSans-73" d="M 2834 3397 
L 2834 2853 
Q 2591 2978 2328 3040 
Q 2066 3103 1784 3103 
Q 1356 3103 1142 2972 
Q 928 2841 928 2578 
Q 928 2378 1081 2264 
Q 1234 2150 1697 2047 
L 1894 2003 
Q 2506 1872 2764 1633 
Q 3022 1394 3022 966 
Q 3022 478 2636 193 
Q 2250 -91 1575 -91 
Q 1294 -91 989 -36 
Q 684 19 347 128 
L 347 722 
Q 666 556 975 473 
Q 1284 391 1588 391 
Q 1994 391 2212 530 
Q 2431 669 2431 922 
Q 2431 1156 2273 1281 
Q 2116 1406 1581 1522 
L 1381 1569 
Q 847 1681 609 1914 
Q 372 2147 372 2553 
Q 372 3047 722 3315 
Q 1072 3584 1716 3584 
Q 2034 3584 2315 3537 
Q 2597 3491 2834 3397 
z
" transform="scale(0.015625)"/>
      <path id="DejaVuSans-51" d="M 2522 4238 
Q 1834 4238 1429 3725 
Q 1025 3213 1025 2328 
Q 1025 1447 1429 934 
Q 1834 422 2522 422 
Q 3209 422 3611 934 
Q 4013 1447 4013 2328 
Q 4013 3213 3611 3725 
Q 3209 4238 2522 4238 
z
M 3406 84 
L 4238 -825 
L 3475 -825 
L 2784 -78 
Q 2681 -84 2626 -87 
Q 2572 -91 2522 -91 
Q 1538 -91 948 567 
Q 359 1225 359 2328 
Q 359 3434 948 4092 
Q 1538 4750 2522 4750 
Q 3503 4750 4090 4092 
Q 4678 3434 4678 2328 
Q 4678 1516 4351 937 
Q 4025 359 3406 84 
z
" transform="scale(0.015625)"/>
      <path id="DejaVuSans-3a" d="M 750 794 
L 1409 794 
L 1409 0 
L 750 0 
L 750 794 
z
M 750 3309 
L 1409 3309 
L 1409 2516 
L 750 2516 
L 750 3309 
z
" transform="scale(0.015625)"/>
      <path id="DejaVuSans-53" d="M 3425 4513 
L 3425 3897 
Q 3066 4069 2747 4153 
Q 2428 4238 2131 4238 
Q 1616 4238 1336 4038 
Q 1056 3838 1056 3469 
Q 1056 3159 1242 3001 
Q 1428 2844 1947 2747 
L 2328 2669 
Q 3034 2534 3370 2195 
Q 3706 1856 3706 1288 
Q 3706 609 3251 259 
Q 2797 -91 1919 -91 
Q 1588 -91 1214 -16 
Q 841 59 441 206 
L 441 856 
Q 825 641 1194 531 
Q 1563 422 1919 422 
Q 2459 422 2753 634 
Q 3047 847 3047 1241 
Q 3047 1584 2836 1778 
Q 2625 1972 2144 2069 
L 1759 2144 
Q 1053 2284 737 2584 
Q 422 2884 422 3419 
Q 422 4038 858 4394 
Q 1294 4750 2059 4750 
Q 2388 4750 2728 4690 
Q 3069 4631 3425 4513 
z
" transform="scale(0.015625)"/>
      <path id="DejaVuSans-71" d="M 947 1747 
Q 947 1113 1208 752 
Q 1469 391 1925 391 
Q 2381 391 2643 752 
Q 2906 1113 2906 1747 
Q 2906 2381 2643 2742 
Q 2381 3103 1925 3103 
Q 1469 3103 1208 2742 
Q 947 2381 947 1747 
z
M 2906 525 
Q 2725 213 2448 61 
Q 2172 -91 1784 -91 
Q 1150 -91 751 415 
Q 353 922 353 1747 
Q 353 2572 751 3078 
Q 1150 3584 1784 3584 
Q 2172 3584 2448 3432 
Q 2725 3281 2906 2969 
L 2906 3500 
L 3481 3500 
L 3481 -1331 
L 2906 -1331 
L 2906 525 
z
" transform="scale(0.015625)"/>
      <path id="DejaVuSans-75" d="M 544 1381 
L 544 3500 
L 1119 3500 
L 1119 1403 
Q 1119 906 1312 657 
Q 1506 409 1894 409 
Q 2359 409 2629 706 
Q 2900 1003 2900 1516 
L 2900 3500 
L 3475 3500 
L 3475 0 
L 2900 0 
L 2900 538 
Q 2691 219 2414 64 
Q 2138 -91 1772 -91 
Q 1169 -91 856 284 
Q 544 659 544 1381 
z
M 1991 3584 
L 1991 3584 
z
" transform="scale(0.015625)"/>
      <path id="DejaVuSans-6f" d="M 1959 3097 
Q 1497 3097 1228 2736 
Q 959 2375 959 1747 
Q 959 1119 1226 758 
Q 1494 397 1959 397 
Q 2419 397 2687 759 
Q 2956 1122 2956 1747 
Q 2956 2369 2687 2733 
Q 2419 3097 1959 3097 
z
M 1959 3584 
Q 2709 3584 3137 3096 
Q 3566 2609 3566 1747 
Q 3566 888 3137 398 
Q 2709 -91 1959 -91 
Q 1206 -91 779 398 
Q 353 888 353 1747 
Q 353 2609 779 3096 
Q 1206 3584 1959 3584 
z
" transform="scale(0.015625)"/>
     </defs>
     <use xlink:href="#DejaVuSans-46"/>
     <use xlink:href="#DejaVuSans-61" x="48.394531"/>
     <use xlink:href="#DejaVuSans-73" x="109.673828"/>
     <use xlink:href="#DejaVuSans-74" x="161.773438"/>
     <use xlink:href="#DejaVuSans-51" x="200.982422"/>
     <use xlink:href="#DejaVuSans-43" x="279.693359"/>
     <use xlink:href="#DejaVuSans-3a" x="349.517578"/>
     <use xlink:href="#DejaVuSans-20" x="383.208984"/>
     <use xlink:href="#DejaVuSans-50" x="414.996094"/>
     <use xlink:href="#DejaVuSans-65" x="471.673828"/>
     <use xlink:href="#DejaVuSans-72" x="533.197266"/>
     <use xlink:href="#DejaVuSans-20" x="574.310547"/>
     <use xlink:href="#DejaVuSans-53" x="606.097656"/>
     <use xlink:href="#DejaVuSans-65" x="669.574219"/>
     <use xlink:href="#DejaVuSans-71" x="731.097656"/>
     <use xlink:href="#DejaVuSans-75" x="794.574219"/>
     <use xlink:href="#DejaVuSans-65" x="857.953125"/>
     <use xlink:href="#DejaVuSans-6e" x="919.476562"/>
     <use xlink:href="#DejaVuSans-63" x="982.855469"/>
     <use xlink:href="#DejaVuSans-65" x="1037.835938"/>
     <use xlink:href="#DejaVuSans-20" x="1099.359375"/>
     <use xlink:href="#DejaVuSans-47" x="1131.146484"/>
     <use xlink:href="#DejaVuSans-43" x="1208.636719"/>
     <use xlink:href="#DejaVuSans-20" x="1278.460938"/>
     <use xlink:href="#DejaVuSans-43" x="1310.248047"/>
     <use xlink:href="#DejaVuSans-6f" x="1380.072266"/>
     <use xlink:href="#DejaVuSans-6e" x="1441.253906"/>
     <use xlink:href="#DejaVuSans-74" x="1504.632812"/>
     <use xlink:href="#DejaVuSans-65" x="1543.841797"/>
     <use xlink:href="#DejaVuSans-6e" x="1605.365234"/>
     <use xlink:href="#DejaVuSans-74" x="1668.744141"/>
    </g>
   </g>
  </g>
 </g>
 <defs>
  <clipPath id="p2b1fe493f3">
   <rect x="40.600625" y="35.2559" width="944.845" height="317.968"/>
  </clipPath>
 </defs>
</svg>
