<?xml version="1.0" encoding="utf-8" standalone="no"?>
<!DOCTYPE svg PUBLIC "-//W3C//DTD SVG 1.1//EN"
  "http://www.w3.org/Graphics/SVG/1.1/DTD/svg11.dtd">
<svg xmlns:xlink="http://www.w3.org/1999/xlink" width="1000.098125pt" height="388.844525pt" viewBox="0 0 1000.098125 388.844525" xmlns="http://www.w3.org/2000/svg" version="1.1">
 <metadata>
  <rdf:RDF xmlns:dc="http://purl.org/dc/elements/1.1/" xmlns:cc="http://creativecommons.org/ns#" xmlns:rdf="http://www.w3.org/1999/02/22-rdf-syntax-ns#">
   <cc:Work>
    <dc:type rdf:resource="http://purl.org/dc/dcmitype/StillImage"/>
    <dc:date>2025-03-11T15:51:09.197255</dc:date>
    <dc:format>image/svg+xml</dc:format>
    <dc:creator>
     <cc:Agent>
      <dc:title>Matplotlib v3.8.2, https://matplotlib.org/</dc:title>
     </cc:Agent>
    </dc:creator>
   </cc:Work>
  </rdf:RDF>
 </metadata>
 <defs>
  <style type="text/css">*{stroke-linejoin: round; stroke-linecap: butt}</style>
 </defs>
 <g id="figure_1">
  <g id="axes_1">
   <g id="patch_1">
    <path d="M 58.418125 353.2239 
L 985.263125 353.2239 
L 985.263125 35.2559 
L 58.418125 35.2559 
z
" style="fill: #ffffff"/>
   </g>
   <g id="matplotlib.axis_1">
    <g id="xtick_1">
     <g id="text_1">
      <!-- 0 -->
      <g transform="translate(55.873125 366.30265) scale(0.08 -0.08)">
       <defs>
        <path id="DejaVuSans-30" d="M 2034 4250 
Q 1547 4250 1301 3770 
Q 1056 3291 1056 2328 
Q 1056 1369 1301 889 
Q 1547 409 2034 409 
Q 2525 409 2770 889 
Q 3016 1369 3016 2328 
Q 3016 3291 2770 3770 
Q 2525 4250 2034 4250 
z
M 2034 4750 
Q 2819 4750 3233 4129 
Q 3647 3509 3647 2328 
Q 3647 1150 3233 529 
Q 2819 -91 2034 -91 
Q 1250 -91 836 529 
Q 422 1150 422 2328 
Q 422 3509 836 4129 
Q 1250 4750 2034 4750 
z
" transform="scale(0.015625)"/>
       </defs>
       <use xlink:href="#DejaVuSans-30"/>
      </g>
     </g>
    </g>
    <g id="xtick_2">
     <g id="text_2">
      <!-- 20 -->
      <g transform="translate(238.697125 366.30265) scale(0.08 -0.08)">
       <defs>
        <path id="DejaVuSans-32" d="M 1228 531 
L 3431 531 
L 3431 0 
L 469 0 
L 469 531 
Q 828 903 1448 1529 
Q 2069 2156 2228 2338 
Q 2531 2678 2651 2914 
Q 2772 3150 2772 3378 
Q 2772 3750 2511 3984 
Q 2250 4219 1831 4219 
Q 1534 4219 1204 4116 
Q 875 4013 500 3803 
L 500 4441 
Q 881 4594 1212 4672 
Q 1544 4750 1819 4750 
Q 2544 4750 2975 4387 
Q 3406 4025 3406 3419 
Q 3406 3131 3298 2873 
Q 3191 2616 2906 2266 
Q 2828 2175 2409 1742 
Q 1991 1309 1228 531 
z
" transform="scale(0.015625)"/>
       </defs>
       <use xlink:href="#DejaVuSans-32"/>
       <use xlink:href="#DejaVuSans-30" x="63.623047"/>
      </g>
     </g>
    </g>
    <g id="xtick_3">
     <g id="text_3">
      <!-- 40 -->
      <g transform="translate(424.066125 366.30265) scale(0.08 -0.08)">
       <defs>
        <path id="DejaVuSans-34" d="M 2419 4116 
L 825 1625 
L 2419 1625 
L 2419 4116 
z
M 2253 4666 
L 3047 4666 
L 3047 1625 
L 3713 1625 
L 3713 1100 
L 3047 1100 
L 3047 0 
L 2419 0 
L 2419 1100 
L 313 1100 
L 313 1709 
L 2253 4666 
z
" transform="scale(0.015625)"/>
       </defs>
       <use xlink:href="#DejaVuSans-34"/>
       <use xlink:href="#DejaVuSans-30" x="63.623047"/>
      </g>
     </g>
    </g>
    <g id="xtick_4">
     <g id="text_4">
      <!-- 60 -->
      <g transform="translate(609.435125 366.30265) scale(0.08 -0.08)">
       <defs>
        <path id="DejaVuSans-36" d="M 2113 2584 
Q 1688 2584 1439 2293 
Q 1191 2003 1191 1497 
Q 1191 994 1439 701 
Q 1688 409 2113 409 
Q 2538 409 2786 701 
Q 3034 994 3034 1497 
Q 3034 2003 2786 2293 
Q 2538 2584 2113 2584 
z
M 3366 4563 
L 3366 3988 
Q 3128 4100 2886 4159 
Q 2644 4219 2406 4219 
Q 1781 4219 1451 3797 
Q 1122 3375 1075 2522 
Q 1259 2794 1537 2939 
Q 1816 3084 2150 3084 
Q 2853 3084 3261 2657 
Q 3669 2231 3669 1497 
Q 3669 778 3244 343 
Q 2819 -91 2113 -91 
Q 1303 -91 875 529 
Q 447 1150 447 2328 
Q 447 3434 972 4092 
Q 1497 4750 2381 4750 
Q 2619 4750 2861 4703 
Q 3103 4656 3366 4563 
z
" transform="scale(0.015625)"/>
       </defs>
       <use xlink:href="#DejaVuSans-36"/>
       <use xlink:href="#DejaVuSans-30" x="63.623047"/>
      </g>
     </g>
    </g>
    <g id="xtick_5">
     <g id="text_5">
      <!-- 80 -->
      <g transform="translate(794.804125 366.30265) scale(0.08 -0.08)">
       <defs>
        <path id="DejaVuSans-38" d="M 2034 2216 
Q 1584 2216 1326 1975 
Q 1069 1734 1069 1313 
Q 1069 891 1326 650 
Q 1584 409 2034 409 
Q 2484 409 2743 651 
Q 3003 894 3003 1313 
Q 3003 1734 2745 1975 
Q 2488 2216 2034 2216 
z
M 1403 2484 
Q 997 2584 770 2862 
Q 544 3141 544 3541 
Q 544 4100 942 4425 
Q 1341 4750 2034 4750 
Q 2731 4750 3128 4425 
Q 3525 4100 3525 3541 
Q 3525 3141 3298 2862 
Q 3072 2584 2669 2484 
Q 3125 2378 3379 2068 
Q 3634 1759 3634 1313 
Q 3634 634 3220 271 
Q 2806 -91 2034 -91 
Q 1263 -91 848 271 
Q 434 634 434 1313 
Q 434 1759 690 2068 
Q 947 2378 1403 2484 
z
M 1172 3481 
Q 1172 3119 1398 2916 
Q 1625 2713 2034 2713 
Q 2441 2713 2670 2916 
Q 2900 3119 2900 3481 
Q 2900 3844 2670 4047 
Q 2441 4250 2034 4250 
Q 1625 4250 1398 4047 
Q 1172 3844 1172 3481 
z
" transform="scale(0.015625)"/>
       </defs>
       <use xlink:href="#DejaVuSans-38"/>
       <use xlink:href="#DejaVuSans-30" x="63.623047"/>
      </g>
     </g>
    </g>
    <g id="xtick_6">
     <g id="text_6">
      <!-- 100 -->
      <g transform="translate(977.628125 366.30265) scale(0.08 -0.08)">
       <defs>
        <path id="DejaVuSans-31" d="M 794 531 
L 1825 531 
L 1825 4091 
L 703 3866 
L 703 4441 
L 1819 4666 
L 2450 4666 
L 2450 531 
L 3481 531 
L 3481 0 
L 794 0 
L 794 531 
z
" transform="scale(0.015625)"/>
       </defs>
       <use xlink:href="#DejaVuSans-31"/>
       <use xlink:href="#DejaVuSans-30" x="63.623047"/>
       <use xlink:href="#DejaVuSans-30" x="127.246094"/>
      </g>
     </g>
    </g>
    <g id="text_7">
     <!-- Percent of reads -->
     <g transform="translate(481.172656 379.564837) scale(0.1 -0.1)">
      <defs>
       <path id="DejaVuSans-50" d="M 1259 4147 
L 1259 2394 
L 2053 2394 
Q 2494 2394 2734 2622 
Q 2975 2850 2975 3272 
Q 2975 3691 2734 3919 
Q 2494 4147 2053 4147 
L 1259 4147 
z
M 628 4666 
L 2053 4666 
Q 2838 4666 3239 4311 
Q 3641 3956 3641 3272 
Q 3641 2581 3239 2228 
Q 2838 1875 2053 1875 
L 1259 1875 
L 1259 0 
L 628 0 
L 628 4666 
z
" transform="scale(0.015625)"/>
       <path id="DejaVuSans-65" d="M 3597 1894 
L 3597 1613 
L 953 1613 
Q 991 1019 1311 708 
Q 1631 397 2203 397 
Q 2534 397 2845 478 
Q 3156 559 3463 722 
L 3463 178 
Q 3153 47 2828 -22 
Q 2503 -91 2169 -91 
Q 1331 -91 842 396 
Q 353 884 353 1716 
Q 353 2575 817 3079 
Q 1281 3584 2069 3584 
Q 2775 3584 3186 3129 
Q 3597 2675 3597 1894 
z
M 3022 2063 
Q 3016 2534 2758 2815 
Q 2500 3097 2075 3097 
Q 1594 3097 1305 2825 
Q 1016 2553 972 2059 
L 3022 2063 
z
" transform="scale(0.015625)"/>
       <path id="DejaVuSans-72" d="M 2631 2963 
Q 2534 3019 2420 3045 
Q 2306 3072 2169 3072 
Q 1681 3072 1420 2755 
Q 1159 2438 1159 1844 
L 1159 0 
L 581 0 
L 581 3500 
L 1159 3500 
L 1159 2956 
Q 1341 3275 1631 3429 
Q 1922 3584 2338 3584 
Q 2397 3584 2469 3576 
Q 2541 3569 2628 3553 
L 2631 2963 
z
" transform="scale(0.015625)"/>
       <path id="DejaVuSans-63" d="M 3122 3366 
L 3122 2828 
Q 2878 2963 2633 3030 
Q 2388 3097 2138 3097 
Q 1578 3097 1268 2742 
Q 959 2388 959 1747 
Q 959 1106 1268 751 
Q 1578 397 2138 397 
Q 2388 397 2633 464 
Q 2878 531 3122 666 
L 3122 134 
Q 2881 22 2623 -34 
Q 2366 -91 2075 -91 
Q 1284 -91 818 406 
Q 353 903 353 1747 
Q 353 2603 823 3093 
Q 1294 3584 2113 3584 
Q 2378 3584 2631 3529 
Q 2884 3475 3122 3366 
z
" transform="scale(0.015625)"/>
       <path id="DejaVuSans-6e" d="M 3513 2113 
L 3513 0 
L 2938 0 
L 2938 2094 
Q 2938 2591 2744 2837 
Q 2550 3084 2163 3084 
Q 1697 3084 1428 2787 
Q 1159 2491 1159 1978 
L 1159 0 
L 581 0 
L 581 3500 
L 1159 3500 
L 1159 2956 
Q 1366 3272 1645 3428 
Q 1925 3584 2291 3584 
Q 2894 3584 3203 3211 
Q 3513 2838 3513 2113 
z
" transform="scale(0.015625)"/>
       <path id="DejaVuSans-74" d="M 1172 4494 
L 1172 3500 
L 2356 3500 
L 2356 3053 
L 1172 3053 
L 1172 1153 
Q 1172 725 1289 603 
Q 1406 481 1766 481 
L 2356 481 
L 2356 0 
L 1766 0 
Q 1100 0 847 248 
Q 594 497 594 1153 
L 594 3053 
L 172 3053 
L 172 3500 
L 594 3500 
L 594 4494 
L 1172 4494 
z
" transform="scale(0.015625)"/>
       <path id="DejaVuSans-20" transform="scale(0.015625)"/>
       <path id="DejaVuSans-6f" d="M 1959 3097 
Q 1497 3097 1228 2736 
Q 959 2375 959 1747 
Q 959 1119 1226 758 
Q 1494 397 1959 397 
Q 2419 397 2687 759 
Q 2956 1122 2956 1747 
Q 2956 2369 2687 2733 
Q 2419 3097 1959 3097 
z
M 1959 3584 
Q 2709 3584 3137 3096 
Q 3566 2609 3566 1747 
Q 3566 888 3137 398 
Q 2709 -91 1959 -91 
Q 1206 -91 779 398 
Q 353 888 353 1747 
Q 353 2609 779 3096 
Q 1206 3584 1959 3584 
z
" transform="scale(0.015625)"/>
       <path id="DejaVuSans-66" d="M 2375 4863 
L 2375 4384 
L 1825 4384 
Q 1516 4384 1395 4259 
Q 1275 4134 1275 3809 
L 1275 3500 
L 2222 3500 
L 2222 3053 
L 1275 3053 
L 1275 0 
L 697 0 
L 697 3053 
L 147 3053 
L 147 3500 
L 697 3500 
L 697 3744 
Q 697 4328 969 4595 
Q 1241 4863 1831 4863 
L 2375 4863 
z
" transform="scale(0.015625)"/>
       <path id="DejaVuSans-61" d="M 2194 1759 
Q 1497 1759 1228 1600 
Q 959 1441 959 1056 
Q 959 750 1161 570 
Q 1363 391 1709 391 
Q 2188 391 2477 730 
Q 2766 1069 2766 1631 
L 2766 1759 
L 2194 1759 
z
M 3341 1997 
L 3341 0 
L 2766 0 
L 2766 531 
Q 2569 213 2275 61 
Q 1981 -91 1556 -91 
Q 1019 -91 701 211 
Q 384 513 384 1019 
Q 384 1609 779 1909 
Q 1175 2209 1959 2209 
L 2766 2209 
L 2766 2266 
Q 2766 2663 2505 2880 
Q 2244 3097 1772 3097 
Q 1472 3097 1187 3025 
Q 903 2953 641 2809 
L 641 3341 
Q 956 3463 1253 3523 
Q 1550 3584 1831 3584 
Q 2591 3584 2966 3190 
Q 3341 2797 3341 1997 
z
" transform="scale(0.015625)"/>
       <path id="DejaVuSans-64" d="M 2906 2969 
L 2906 4863 
L 3481 4863 
L 3481 0 
L 2906 0 
L 2906 525 
Q 2725 213 2448 61 
Q 2172 -91 1784 -91 
Q 1150 -91 751 415 
Q 353 922 353 1747 
Q 353 2572 751 3078 
Q 1150 3584 1784 3584 
Q 2172 3584 2448 3432 
Q 2725 3281 2906 2969 
z
M 947 1747 
Q 947 1113 1208 752 
Q 1469 391 1925 391 
Q 2381 391 2643 752 
Q 2906 1113 2906 1747 
Q 2906 2381 2643 2742 
Q 2381 3103 1925 3103 
Q 1469 3103 1208 2742 
Q 947 2381 947 1747 
z
" transform="scale(0.015625)"/>
       <path id="DejaVuSans-73" d="M 2834 3397 
L 2834 2853 
Q 2591 2978 2328 3040 
Q 2066 3103 1784 3103 
Q 1356 3103 1142 2972 
Q 928 2841 928 2578 
Q 928 2378 1081 2264 
Q 1234 2150 1697 2047 
L 1894 2003 
Q 2506 1872 2764 1633 
Q 3022 1394 3022 966 
Q 3022 478 2636 193 
Q 2250 -91 1575 -91 
Q 1294 -91 989 -36 
Q 684 19 347 128 
L 347 722 
Q 666 556 975 473 
Q 1284 391 1588 391 
Q 1994 391 2212 530 
Q 2431 669 2431 922 
Q 2431 1156 2273 1281 
Q 2116 1406 1581 1522 
L 1381 1569 
Q 847 1681 609 1914 
Q 372 2147 372 2553 
Q 372 3047 722 3315 
Q 1072 3584 1716 3584 
Q 2034 3584 2315 3537 
Q 2597 3491 2834 3397 
z
" transform="scale(0.015625)"/>
      </defs>
      <use xlink:href="#DejaVuSans-50"/>
      <use xlink:href="#DejaVuSans-65" x="56.677734"/>
      <use xlink:href="#DejaVuSans-72" x="118.201172"/>
      <use xlink:href="#DejaVuSans-63" x="157.064453"/>
      <use xlink:href="#DejaVuSans-65" x="212.044922"/>
      <use xlink:href="#DejaVuSans-6e" x="273.568359"/>
      <use xlink:href="#DejaVuSans-74" x="336.947266"/>
      <use xlink:href="#DejaVuSans-20" x="376.15625"/>
      <use xlink:href="#DejaVuSans-6f" x="407.943359"/>
      <use xlink:href="#DejaVuSans-66" x="469.125"/>
      <use xlink:href="#DejaVuSans-20" x="504.330078"/>
      <use xlink:href="#DejaVuSans-72" x="536.117188"/>
      <use xlink:href="#DejaVuSans-65" x="574.980469"/>
      <use xlink:href="#DejaVuSans-61" x="636.503906"/>
      <use xlink:href="#DejaVuSans-64" x="697.783203"/>
      <use xlink:href="#DejaVuSans-73" x="761.259766"/>
     </g>
    </g>
   </g>
   <g id="matplotlib.axis_2">
    <g id="ytick_1">
     <g id="line2d_1">
      <path d="M 58.418125 353.2239 
L 985.263125 353.2239 
" clip-path="url(#p569e895e7c)" style="fill: none; stroke: #dedede; stroke-linecap: square"/>
     </g>
     <g id="text_8">
      <!-- 0 -->
      <g transform="translate(46.328125 356.263275) scale(0.08 -0.08)">
       <use xlink:href="#DejaVuSans-30"/>
      </g>
     </g>
    </g>
    <g id="ytick_2">
     <g id="line2d_2">
      <path d="M 58.418125 313.892064 
L 985.263125 313.892064 
" clip-path="url(#p569e895e7c)" style="fill: none; stroke: #dedede; stroke-linecap: square"/>
     </g>
     <g id="text_9">
      <!-- 20000 -->
      <g transform="translate(25.968125 316.931439) scale(0.08 -0.08)">
       <use xlink:href="#DejaVuSans-32"/>
       <use xlink:href="#DejaVuSans-30" x="63.623047"/>
       <use xlink:href="#DejaVuSans-30" x="127.246094"/>
       <use xlink:href="#DejaVuSans-30" x="190.869141"/>
       <use xlink:href="#DejaVuSans-30" x="254.492188"/>
      </g>
     </g>
    </g>
    <g id="ytick_3">
     <g id="line2d_3">
      <path d="M 58.418125 274.560228 
L 985.263125 274.560228 
" clip-path="url(#p569e895e7c)" style="fill: none; stroke: #dedede; stroke-linecap: square"/>
     </g>
     <g id="text_10">
      <!-- 40000 -->
      <g transform="translate(25.968125 277.599603) scale(0.08 -0.08)">
       <use xlink:href="#DejaVuSans-34"/>
       <use xlink:href="#DejaVuSans-30" x="63.623047"/>
       <use xlink:href="#DejaVuSans-30" x="127.246094"/>
       <use xlink:href="#DejaVuSans-30" x="190.869141"/>
       <use xlink:href="#DejaVuSans-30" x="254.492188"/>
      </g>
     </g>
    </g>
    <g id="ytick_4">
     <g id="line2d_4">
      <path d="M 58.418125 235.228393 
L 985.263125 235.228393 
" clip-path="url(#p569e895e7c)" style="fill: none; stroke: #dedede; stroke-linecap: square"/>
     </g>
     <g id="text_11">
      <!-- 60000 -->
      <g transform="translate(25.968125 238.267768) scale(0.08 -0.08)">
       <use xlink:href="#DejaVuSans-36"/>
       <use xlink:href="#DejaVuSans-30" x="63.623047"/>
       <use xlink:href="#DejaVuSans-30" x="127.246094"/>
       <use xlink:href="#DejaVuSans-30" x="190.869141"/>
       <use xlink:href="#DejaVuSans-30" x="254.492188"/>
      </g>
     </g>
    </g>
    <g id="ytick_5">
     <g id="line2d_5">
      <path d="M 58.418125 195.896557 
L 985.263125 195.896557 
" clip-path="url(#p569e895e7c)" style="fill: none; stroke: #dedede; stroke-linecap: square"/>
     </g>
     <g id="text_12">
      <!-- 80000 -->
      <g transform="translate(25.968125 198.935932) scale(0.08 -0.08)">
       <use xlink:href="#DejaVuSans-38"/>
       <use xlink:href="#DejaVuSans-30" x="63.623047"/>
       <use xlink:href="#DejaVuSans-30" x="127.246094"/>
       <use xlink:href="#DejaVuSans-30" x="190.869141"/>
       <use xlink:href="#DejaVuSans-30" x="254.492188"/>
      </g>
     </g>
    </g>
    <g id="ytick_6">
     <g id="line2d_6">
      <path d="M 58.418125 156.564721 
L 985.263125 156.564721 
" clip-path="url(#p569e895e7c)" style="fill: none; stroke: #dedede; stroke-linecap: square"/>
     </g>
     <g id="text_13">
      <!-- 100000 -->
      <g transform="translate(20.878125 159.604096) scale(0.08 -0.08)">
       <use xlink:href="#DejaVuSans-31"/>
       <use xlink:href="#DejaVuSans-30" x="63.623047"/>
       <use xlink:href="#DejaVuSans-30" x="127.246094"/>
       <use xlink:href="#DejaVuSans-30" x="190.869141"/>
       <use xlink:href="#DejaVuSans-30" x="254.492188"/>
       <use xlink:href="#DejaVuSans-30" x="318.115234"/>
      </g>
     </g>
    </g>
    <g id="ytick_7">
     <g id="line2d_7">
      <path d="M 58.418125 117.232885 
L 985.263125 117.232885 
" clip-path="url(#p569e895e7c)" style="fill: none; stroke: #dedede; stroke-linecap: square"/>
     </g>
     <g id="text_14">
      <!-- 120000 -->
      <g transform="translate(20.878125 120.27226) scale(0.08 -0.08)">
       <use xlink:href="#DejaVuSans-31"/>
       <use xlink:href="#DejaVuSans-32" x="63.623047"/>
       <use xlink:href="#DejaVuSans-30" x="127.246094"/>
       <use xlink:href="#DejaVuSans-30" x="190.869141"/>
       <use xlink:href="#DejaVuSans-30" x="254.492188"/>
       <use xlink:href="#DejaVuSans-30" x="318.115234"/>
      </g>
     </g>
    </g>
    <g id="ytick_8">
     <g id="line2d_8">
      <path d="M 58.418125 77.90105 
L 985.263125 77.90105 
" clip-path="url(#p569e895e7c)" style="fill: none; stroke: #dedede; stroke-linecap: square"/>
     </g>
     <g id="text_15">
      <!-- 140000 -->
      <g transform="translate(20.878125 80.940425) scale(0.08 -0.08)">
       <use xlink:href="#DejaVuSans-31"/>
       <use xlink:href="#DejaVuSans-34" x="63.623047"/>
       <use xlink:href="#DejaVuSans-30" x="127.246094"/>
       <use xlink:href="#DejaVuSans-30" x="190.869141"/>
       <use xlink:href="#DejaVuSans-30" x="254.492188"/>
       <use xlink:href="#DejaVuSans-30" x="318.115234"/>
      </g>
     </g>
    </g>
    <g id="ytick_9">
     <g id="line2d_9">
      <path d="M 58.418125 38.569214 
L 985.263125 38.569214 
" clip-path="url(#p569e895e7c)" style="fill: none; stroke: #dedede; stroke-linecap: square"/>
     </g>
     <g id="text_16">
      <!-- 160000 -->
      <g transform="translate(20.878125 41.608589) scale(0.08 -0.08)">
       <use xlink:href="#DejaVuSans-31"/>
       <use xlink:href="#DejaVuSans-36" x="63.623047"/>
       <use xlink:href="#DejaVuSans-30" x="127.246094"/>
       <use xlink:href="#DejaVuSans-30" x="190.869141"/>
       <use xlink:href="#DejaVuSans-30" x="254.492188"/>
       <use xlink:href="#DejaVuSans-30" x="318.115234"/>
      </g>
     </g>
    </g>
    <g id="text_17">
     <!-- Number of Junctions -->
     <g transform="translate(14.798438 245.067244) rotate(-90) scale(0.1 -0.1)">
      <defs>
       <path id="DejaVuSans-4e" d="M 628 4666 
L 1478 4666 
L 3547 763 
L 3547 4666 
L 4159 4666 
L 4159 0 
L 3309 0 
L 1241 3903 
L 1241 0 
L 628 0 
L 628 4666 
z
" transform="scale(0.015625)"/>
       <path id="DejaVuSans-75" d="M 544 1381 
L 544 3500 
L 1119 3500 
L 1119 1403 
Q 1119 906 1312 657 
Q 1506 409 1894 409 
Q 2359 409 2629 706 
Q 2900 1003 2900 1516 
L 2900 3500 
L 3475 3500 
L 3475 0 
L 2900 0 
L 2900 538 
Q 2691 219 2414 64 
Q 2138 -91 1772 -91 
Q 1169 -91 856 284 
Q 544 659 544 1381 
z
M 1991 3584 
L 1991 3584 
z
" transform="scale(0.015625)"/>
       <path id="DejaVuSans-6d" d="M 3328 2828 
Q 3544 3216 3844 3400 
Q 4144 3584 4550 3584 
Q 5097 3584 5394 3201 
Q 5691 2819 5691 2113 
L 5691 0 
L 5113 0 
L 5113 2094 
Q 5113 2597 4934 2840 
Q 4756 3084 4391 3084 
Q 3944 3084 3684 2787 
Q 3425 2491 3425 1978 
L 3425 0 
L 2847 0 
L 2847 2094 
Q 2847 2600 2669 2842 
Q 2491 3084 2119 3084 
Q 1678 3084 1418 2786 
Q 1159 2488 1159 1978 
L 1159 0 
L 581 0 
L 581 3500 
L 1159 3500 
L 1159 2956 
Q 1356 3278 1631 3431 
Q 1906 3584 2284 3584 
Q 2666 3584 2933 3390 
Q 3200 3197 3328 2828 
z
" transform="scale(0.015625)"/>
       <path id="DejaVuSans-62" d="M 3116 1747 
Q 3116 2381 2855 2742 
Q 2594 3103 2138 3103 
Q 1681 3103 1420 2742 
Q 1159 2381 1159 1747 
Q 1159 1113 1420 752 
Q 1681 391 2138 391 
Q 2594 391 2855 752 
Q 3116 1113 3116 1747 
z
M 1159 2969 
Q 1341 3281 1617 3432 
Q 1894 3584 2278 3584 
Q 2916 3584 3314 3078 
Q 3713 2572 3713 1747 
Q 3713 922 3314 415 
Q 2916 -91 2278 -91 
Q 1894 -91 1617 61 
Q 1341 213 1159 525 
L 1159 0 
L 581 0 
L 581 4863 
L 1159 4863 
L 1159 2969 
z
" transform="scale(0.015625)"/>
       <path id="DejaVuSans-4a" d="M 628 4666 
L 1259 4666 
L 1259 325 
Q 1259 -519 939 -900 
Q 619 -1281 -91 -1281 
L -331 -1281 
L -331 -750 
L -134 -750 
Q 284 -750 456 -515 
Q 628 -281 628 325 
L 628 4666 
z
" transform="scale(0.015625)"/>
       <path id="DejaVuSans-69" d="M 603 3500 
L 1178 3500 
L 1178 0 
L 603 0 
L 603 3500 
z
M 603 4863 
L 1178 4863 
L 1178 4134 
L 603 4134 
L 603 4863 
z
" transform="scale(0.015625)"/>
      </defs>
      <use xlink:href="#DejaVuSans-4e"/>
      <use xlink:href="#DejaVuSans-75" x="74.804688"/>
      <use xlink:href="#DejaVuSans-6d" x="138.183594"/>
      <use xlink:href="#DejaVuSans-62" x="235.595703"/>
      <use xlink:href="#DejaVuSans-65" x="299.072266"/>
      <use xlink:href="#DejaVuSans-72" x="360.595703"/>
      <use xlink:href="#DejaVuSans-20" x="401.708984"/>
      <use xlink:href="#DejaVuSans-6f" x="433.496094"/>
      <use xlink:href="#DejaVuSans-66" x="494.677734"/>
      <use xlink:href="#DejaVuSans-20" x="529.882812"/>
      <use xlink:href="#DejaVuSans-4a" x="561.669922"/>
      <use xlink:href="#DejaVuSans-75" x="591.162109"/>
      <use xlink:href="#DejaVuSans-6e" x="654.541016"/>
      <use xlink:href="#DejaVuSans-63" x="717.919922"/>
      <use xlink:href="#DejaVuSans-74" x="772.900391"/>
      <use xlink:href="#DejaVuSans-69" x="812.109375"/>
      <use xlink:href="#DejaVuSans-6f" x="839.892578"/>
      <use xlink:href="#DejaVuSans-6e" x="901.074219"/>
      <use xlink:href="#DejaVuSans-73" x="964.453125"/>
     </g>
    </g>
   </g>
   <g id="line2d_10">
    <path d="M 104.760375 169.412465 
L 151.102625 127.008813 
L 197.444875 108.149198 
L 243.787125 96.501075 
L 290.129375 88.373151 
L 336.471625 81.920763 
L 382.813875 76.717161 
L 429.156125 72.441791 
L 475.498375 68.650202 
L 521.840625 65.244065 
L 568.182875 62.40824 
L 614.525125 59.934267 
L 660.867375 57.525192 
L 707.209625 55.297044 
L 753.551875 53.38945 
L 799.894125 51.668682 
L 846.236375 49.916448 
L 892.578625 48.162249 
L 938.920875 46.569309 
L 985.263125 45.098299 
" clip-path="url(#p569e895e7c)" style="fill: none; stroke: #7cb5ec; stroke-linecap: square"/>
   </g>
   <g id="line2d_11">
    <path d="M 104.760375 174.00839 
L 151.102625 131.824996 
L 197.444875 112.546497 
L 243.787125 100.876741 
L 290.129375 92.738985 
L 336.471625 86.321996 
L 382.813875 81.167559 
L 429.156125 76.791892 
L 475.498375 73.149764 
L 521.840625 69.859656 
L 568.182875 66.996298 
L 614.525125 64.481027 
L 660.867375 62.020821 
L 707.209625 59.894935 
L 753.551875 57.961775 
L 799.894125 56.134812 
L 846.236375 54.406178 
L 892.578625 52.712942 
L 938.920875 51.173101 
L 985.263125 49.70209 
" clip-path="url(#p569e895e7c)" style="fill: none; stroke: #434348; stroke-linecap: square"/>
   </g>
   <g id="line2d_12">
    <path d="M 104.760375 181.121553 
L 151.102625 136.568416 
L 197.444875 115.89757 
L 243.787125 103.747965 
L 290.129375 95.079229 
L 336.471625 88.47738 
L 382.813875 83.201014 
L 429.156125 78.548058 
L 475.498375 74.748603 
L 521.840625 71.389664 
L 568.182875 68.451576 
L 614.525125 65.814376 
L 660.867375 63.336471 
L 707.209625 61.078823 
L 753.551875 59.116165 
L 799.894125 57.212504 
L 846.236375 55.47797 
L 892.578625 53.792601 
L 938.920875 52.217361 
L 985.263125 50.767983 
" clip-path="url(#p569e895e7c)" style="fill: none; stroke: #90ed7d; stroke-linecap: square"/>
   </g>
   <g id="line2d_13">
    <path d="M 104.760375 179.290656 
L 151.102625 138.218386 
L 197.444875 119.667526 
L 243.787125 108.489418 
L 290.129375 100.621085 
L 336.471625 94.658378 
L 382.813875 89.818596 
L 429.156125 85.615989 
L 475.498375 82.017126 
L 521.840625 78.829281 
L 568.182875 76.040654 
L 614.525125 73.670911 
L 660.867375 71.41523 
L 707.209625 69.291311 
L 753.551875 67.336519 
L 799.894125 65.501688 
L 846.236375 63.826152 
L 892.578625 62.213547 
L 938.920875 60.772035 
L 985.263125 59.33249 
" clip-path="url(#p569e895e7c)" style="fill: none; stroke: #f7a35c; stroke-linecap: square"/>
   </g>
   <g id="line2d_14">
    <path d="M 104.760375 178.555151 
L 151.102625 137.180026 
L 197.444875 118.815992 
L 243.787125 107.66935 
L 290.129375 99.981942 
L 336.471625 94.070367 
L 382.813875 89.236485 
L 429.156125 85.010279 
L 475.498375 81.551044 
L 521.840625 78.449729 
L 568.182875 75.802696 
L 614.525125 73.370022 
L 660.867375 71.092709 
L 707.209625 68.955024 
L 753.551875 67.021864 
L 799.894125 65.224399 
L 846.236375 63.558696 
L 892.578625 62.005088 
L 938.920875 60.589142 
L 985.263125 59.220394 
" clip-path="url(#p569e895e7c)" style="fill: none; stroke: #8085e9; stroke-linecap: square"/>
   </g>
   <g id="line2d_15">
    <path d="M 104.760375 179.495181 
L 151.102625 137.775903 
L 197.444875 119.256508 
L 243.787125 107.907307 
L 290.129375 100.056673 
L 336.471625 94.312258 
L 382.813875 89.387912 
L 429.156125 85.378032 
L 475.498375 81.812601 
L 521.840625 78.707352 
L 568.182875 75.936424 
L 614.525125 73.291358 
L 660.867375 71.000279 
L 707.209625 68.984522 
L 753.551875 67.086761 
L 799.894125 65.352227 
L 846.236375 63.653092 
L 892.578625 62.138816 
L 938.920875 60.632407 
L 985.263125 59.222361 
" clip-path="url(#p569e895e7c)" style="fill: none; stroke: #f15c80; stroke-linecap: square"/>
   </g>
   <g id="line2d_16">
    <path d="M 104.760375 171.64258 
L 151.102625 128.466058 
L 197.444875 108.965334 
L 243.787125 97.250346 
L 290.129375 88.972961 
L 336.471625 82.640536 
L 382.813875 77.564762 
L 429.156125 73.149764 
L 475.498375 69.423072 
L 521.840625 66.079866 
L 568.182875 63.26174 
L 614.525125 60.638307 
L 660.867375 58.241032 
L 707.209625 56.162344 
L 753.551875 54.08169 
L 799.894125 52.213428 
L 846.236375 50.500526 
L 892.578625 48.828923 
L 938.920875 47.279249 
L 985.263125 45.814138 
" clip-path="url(#p569e895e7c)" style="fill: none; stroke: #e4d354; stroke-linecap: square"/>
   </g>
   <g id="line2d_17">
    <path d="M 104.760375 180.382114 
L 151.102625 136.955834 
L 197.444875 116.8494 
L 243.787125 104.774526 
L 290.129375 96.381113 
L 336.471625 90.005422 
L 382.813875 84.805753 
L 429.156125 80.477285 
L 475.498375 76.695529 
L 521.840625 73.466385 
L 568.182875 70.551896 
L 614.525125 67.904864 
L 660.867375 65.383693 
L 707.209625 63.210609 
L 753.551875 61.25975 
L 799.894125 59.340356 
L 846.236375 57.576323 
L 892.578625 55.944052 
L 938.920875 54.362912 
L 985.263125 52.807338 
" clip-path="url(#p569e895e7c)" style="fill: none; stroke: #2b908f; stroke-linecap: square"/>
   </g>
   <g id="line2d_18">
    <path d="M 104.760375 178.108734 
L 151.102625 134.70802 
L 197.444875 114.562254 
L 243.787125 102.375284 
L 290.129375 93.716381 
L 336.471625 87.171563 
L 382.813875 81.871598 
L 429.156125 77.37597 
L 475.498375 73.631579 
L 521.840625 70.4398 
L 568.182875 67.452547 
L 614.525125 64.742584 
L 660.867375 62.323676 
L 707.209625 60.01883 
L 753.551875 58.01684 
L 799.894125 56.217409 
L 846.236375 54.530073 
L 892.578625 52.805372 
L 938.920875 51.186867 
L 985.263125 49.70209 
" clip-path="url(#p569e895e7c)" style="fill: none; stroke: #f45b5b; stroke-linecap: square"/>
   </g>
   <g id="line2d_19">
    <path d="M 104.760375 177.571855 
L 151.102625 136.991233 
L 197.444875 118.723562 
L 243.787125 107.545454 
L 290.129375 99.852147 
L 336.471625 93.869775 
L 382.813875 89.104723 
L 429.156125 84.925715 
L 475.498375 81.297354 
L 521.840625 78.170473 
L 568.182875 75.191086 
L 614.525125 72.585352 
L 660.867375 70.251008 
L 707.209625 68.168387 
L 753.551875 66.25686 
L 799.894125 64.48496 
L 846.236375 62.854656 
L 892.578625 61.186986 
L 938.920875 59.700243 
L 985.263125 58.36296 
" clip-path="url(#p569e895e7c)" style="fill: none; stroke: #91e8e1; stroke-linecap: square"/>
   </g>
   <g id="line2d_20">
    <path d="M 104.760375 186.234691 
L 151.102625 144.590144 
L 197.444875 125.547635 
L 243.787125 113.818882 
L 290.129375 105.498232 
L 336.471625 99.179573 
L 382.813875 94.052668 
L 429.156125 89.806796 
L 475.498375 86.331829 
L 521.840625 83.027954 
L 568.182875 80.211795 
L 614.525125 77.606061 
L 660.867375 75.246151 
L 707.209625 73.135998 
L 753.551875 71.139907 
L 799.894125 69.273611 
L 846.236375 67.546944 
L 892.578625 66.016935 
L 938.920875 64.541992 
L 985.263125 63.096547 
" clip-path="url(#p569e895e7c)" style="fill: none; stroke: #7cb5ec; stroke-linecap: square"/>
   </g>
   <g id="line2d_21">
    <path d="M 104.760375 203.448269 
L 151.102625 160.147851 
L 197.444875 139.014856 
L 243.787125 126.239876 
L 290.129375 117.183721 
L 336.471625 110.507141 
L 382.813875 105.040016 
L 429.156125 100.656483 
L 475.498375 96.731166 
L 521.840625 93.456791 
L 568.182875 90.599333 
L 614.525125 87.944434 
L 660.867375 85.659254 
L 707.209625 83.423239 
L 753.551875 81.438948 
L 799.894125 79.547087 
L 846.236375 77.946281 
L 892.578625 76.276645 
L 938.920875 74.713204 
L 985.263125 73.34839 
" clip-path="url(#p569e895e7c)" style="fill: none; stroke: #434348; stroke-linecap: square"/>
   </g>
   <g id="line2d_22">
    <path d="M 104.760375 187.485444 
L 151.102625 142.517356 
L 197.444875 121.229 
L 243.787125 107.915173 
L 290.129375 98.683992 
L 336.471625 91.590495 
L 382.813875 85.78315 
L 429.156125 80.955167 
L 475.498375 76.82729 
L 521.840625 73.092733 
L 568.182875 70.015017 
L 614.525125 67.074962 
L 660.867375 64.433829 
L 707.209625 61.875293 
L 753.551875 59.548815 
L 799.894125 57.442595 
L 846.236375 55.597932 
L 892.578625 53.776868 
L 938.920875 52.0738 
L 985.263125 50.427762 
" clip-path="url(#p569e895e7c)" style="fill: none; stroke: #90ed7d; stroke-linecap: square"/>
   </g>
   <g id="line2d_23">
    <path d="M 104.760375 182.104849 
L 151.102625 138.713967 
L 197.444875 118.43644 
L 243.787125 106.119675 
L 290.129375 97.464705 
L 336.471625 90.672097 
L 382.813875 85.114508 
L 429.156125 80.571681 
L 475.498375 76.687662 
L 521.840625 73.187129 
L 568.182875 70.268707 
L 614.525125 67.38175 
L 660.867375 64.897945 
L 707.209625 62.585233 
L 753.551875 60.484913 
L 799.894125 58.571419 
L 846.236375 56.754288 
L 892.578625 54.962723 
L 938.920875 53.332418 
L 985.263125 51.822076 
" clip-path="url(#p569e895e7c)" style="fill: none; stroke: #f7a35c; stroke-linecap: square"/>
   </g>
   <g id="line2d_24">
    <path d="M 104.760375 181.632867 
L 151.102625 137.734605 
L 197.444875 117.323349 
L 243.787125 104.792226 
L 290.129375 95.740004 
L 336.471625 88.8235 
L 382.813875 83.177415 
L 429.156125 78.412363 
L 475.498375 74.237289 
L 521.840625 70.730856 
L 568.182875 67.552844 
L 614.525125 64.642288 
L 660.867375 62.003122 
L 707.209625 59.515383 
L 753.551875 57.131874 
L 799.894125 55.188881 
L 846.236375 53.306853 
L 892.578625 51.527087 
L 938.920875 49.843685 
L 985.263125 48.278278 
" clip-path="url(#p569e895e7c)" style="fill: none; stroke: #8085e9; stroke-linecap: square"/>
   </g>
   <g id="line2d_25">
    <path d="M 104.760375 190.181641 
L 151.102625 148.163441 
L 197.444875 128.084539 
L 243.787125 115.594714 
L 290.129375 106.430397 
L 336.471625 99.627956 
L 382.813875 93.997603 
L 429.156125 89.330881 
L 475.498375 85.260036 
L 521.840625 81.747703 
L 568.182875 78.483161 
L 614.525125 75.745665 
L 660.867375 73.191062 
L 707.209625 70.850818 
L 753.551875 68.713133 
L 799.894125 66.634445 
L 846.236375 64.819281 
L 892.578625 63.027716 
L 938.920875 61.395445 
L 985.263125 59.818238 
" clip-path="url(#p569e895e7c)" style="fill: none; stroke: #f15c80; stroke-linecap: square"/>
   </g>
   <g id="line2d_26">
    <path d="M 104.760375 241.94627 
L 151.102625 200.246658 
L 197.444875 177.265066 
L 243.787125 161.900085 
L 290.129375 150.718044 
L 336.471625 142.094539 
L 382.813875 135.286198 
L 429.156125 129.494585 
L 475.498375 124.499442 
L 521.840625 120.070677 
L 568.182875 116.247623 
L 614.525125 112.92015 
L 660.867375 109.962396 
L 707.209625 107.209167 
L 753.551875 104.815825 
L 799.894125 102.605376 
L 846.236375 100.428359 
L 892.578625 98.416535 
L 938.920875 96.522707 
L 985.263125 94.86487 
" clip-path="url(#p569e895e7c)" style="fill: none; stroke: #e4d354; stroke-linecap: square"/>
   </g>
   <g id="line2d_27">
    <path d="M 104.760375 192.661513 
L 151.102625 149.473191 
L 197.444875 129.144532 
L 243.787125 116.461981 
L 290.129375 107.519889 
L 336.471625 100.465724 
L 382.813875 95.010398 
L 429.156125 90.182415 
L 475.498375 86.082071 
L 521.840625 82.516641 
L 568.182875 79.293397 
L 614.525125 76.502803 
L 660.867375 74.007198 
L 707.209625 71.578457 
L 753.551875 69.413239 
L 799.894125 67.409282 
L 846.236375 65.509555 
L 892.578625 63.751422 
L 938.920875 62.121117 
L 985.263125 60.583242 
" clip-path="url(#p569e895e7c)" style="fill: none; stroke: #2b908f; stroke-linecap: square"/>
   </g>
   <g id="line2d_28">
    <path d="M 58.418125 353.2239 
L 985.263125 353.2239 
" clip-path="url(#p569e895e7c)" style="fill: none; stroke: #dedede; stroke-width: 2; stroke-linecap: square"/>
   </g>
   <g id="text_18">
    <!-- RSeQC: Junction Saturation -->
    <g transform="translate(412.691875 19.3575) scale(0.16 -0.16)">
     <defs>
      <path id="DejaVuSans-52" d="M 2841 2188 
Q 3044 2119 3236 1894 
Q 3428 1669 3622 1275 
L 4263 0 
L 3584 0 
L 2988 1197 
Q 2756 1666 2539 1819 
Q 2322 1972 1947 1972 
L 1259 1972 
L 1259 0 
L 628 0 
L 628 4666 
L 2053 4666 
Q 2853 4666 3247 4331 
Q 3641 3997 3641 3322 
Q 3641 2881 3436 2590 
Q 3231 2300 2841 2188 
z
M 1259 4147 
L 1259 2491 
L 2053 2491 
Q 2509 2491 2742 2702 
Q 2975 2913 2975 3322 
Q 2975 3731 2742 3939 
Q 2509 4147 2053 4147 
L 1259 4147 
z
" transform="scale(0.015625)"/>
      <path id="DejaVuSans-53" d="M 3425 4513 
L 3425 3897 
Q 3066 4069 2747 4153 
Q 2428 4238 2131 4238 
Q 1616 4238 1336 4038 
Q 1056 3838 1056 3469 
Q 1056 3159 1242 3001 
Q 1428 2844 1947 2747 
L 2328 2669 
Q 3034 2534 3370 2195 
Q 3706 1856 3706 1288 
Q 3706 609 3251 259 
Q 2797 -91 1919 -91 
Q 1588 -91 1214 -16 
Q 841 59 441 206 
L 441 856 
Q 825 641 1194 531 
Q 1563 422 1919 422 
Q 2459 422 2753 634 
Q 3047 847 3047 1241 
Q 3047 1584 2836 1778 
Q 2625 1972 2144 2069 
L 1759 2144 
Q 1053 2284 737 2584 
Q 422 2884 422 3419 
Q 422 4038 858 4394 
Q 1294 4750 2059 4750 
Q 2388 4750 2728 4690 
Q 3069 4631 3425 4513 
z
" transform="scale(0.015625)"/>
      <path id="DejaVuSans-51" d="M 2522 4238 
Q 1834 4238 1429 3725 
Q 1025 3213 1025 2328 
Q 1025 1447 1429 934 
Q 1834 422 2522 422 
Q 3209 422 3611 934 
Q 4013 1447 4013 2328 
Q 4013 3213 3611 3725 
Q 3209 4238 2522 4238 
z
M 3406 84 
L 4238 -825 
L 3475 -825 
L 2784 -78 
Q 2681 -84 2626 -87 
Q 2572 -91 2522 -91 
Q 1538 -91 948 567 
Q 359 1225 359 2328 
Q 359 3434 948 4092 
Q 1538 4750 2522 4750 
Q 3503 4750 4090 4092 
Q 4678 3434 4678 2328 
Q 4678 1516 4351 937 
Q 4025 359 3406 84 
z
" transform="scale(0.015625)"/>
      <path id="DejaVuSans-43" d="M 4122 4306 
L 4122 3641 
Q 3803 3938 3442 4084 
Q 3081 4231 2675 4231 
Q 1875 4231 1450 3742 
Q 1025 3253 1025 2328 
Q 1025 1406 1450 917 
Q 1875 428 2675 428 
Q 3081 428 3442 575 
Q 3803 722 4122 1019 
L 4122 359 
Q 3791 134 3420 21 
Q 3050 -91 2638 -91 
Q 1578 -91 968 557 
Q 359 1206 359 2328 
Q 359 3453 968 4101 
Q 1578 4750 2638 4750 
Q 3056 4750 3426 4639 
Q 3797 4528 4122 4306 
z
" transform="scale(0.015625)"/>
      <path id="DejaVuSans-3a" d="M 750 794 
L 1409 794 
L 1409 0 
L 750 0 
L 750 794 
z
M 750 3309 
L 1409 3309 
L 1409 2516 
L 750 2516 
L 750 3309 
z
" transform="scale(0.015625)"/>
     </defs>
     <use xlink:href="#DejaVuSans-52"/>
     <use xlink:href="#DejaVuSans-53" x="69.482422"/>
     <use xlink:href="#DejaVuSans-65" x="132.958984"/>
     <use xlink:href="#DejaVuSans-51" x="194.482422"/>
     <use xlink:href="#DejaVuSans-43" x="273.193359"/>
     <use xlink:href="#DejaVuSans-3a" x="343.017578"/>
     <use xlink:href="#DejaVuSans-20" x="376.708984"/>
     <use xlink:href="#DejaVuSans-4a" x="408.496094"/>
     <use xlink:href="#DejaVuSans-75" x="437.988281"/>
     <use xlink:href="#DejaVuSans-6e" x="501.367188"/>
     <use xlink:href="#DejaVuSans-63" x="564.746094"/>
     <use xlink:href="#DejaVuSans-74" x="619.726562"/>
     <use xlink:href="#DejaVuSans-69" x="658.935547"/>
     <use xlink:href="#DejaVuSans-6f" x="686.71875"/>
     <use xlink:href="#DejaVuSans-6e" x="747.900391"/>
     <use xlink:href="#DejaVuSans-20" x="811.279297"/>
     <use xlink:href="#DejaVuSans-53" x="843.066406"/>
     <use xlink:href="#DejaVuSans-61" x="906.542969"/>
     <use xlink:href="#DejaVuSans-74" x="967.822266"/>
     <use xlink:href="#DejaVuSans-75" x="1007.03125"/>
     <use xlink:href="#DejaVuSans-72" x="1070.410156"/>
     <use xlink:href="#DejaVuSans-61" x="1111.523438"/>
     <use xlink:href="#DejaVuSans-74" x="1172.802734"/>
     <use xlink:href="#DejaVuSans-69" x="1212.011719"/>
     <use xlink:href="#DejaVuSans-6f" x="1239.794922"/>
     <use xlink:href="#DejaVuSans-6e" x="1300.976562"/>
    </g>
   </g>
  </g>
 </g>
 <defs>
  <clipPath id="p569e895e7c">
   <rect x="58.418125" y="35.2559" width="926.845" height="317.968"/>
  </clipPath>
 </defs>
</svg>
