<?xml version="1.0" encoding="utf-8" standalone="no"?>
<!DOCTYPE svg PUBLIC "-//W3C//DTD SVG 1.1//EN"
  "http://www.w3.org/Graphics/SVG/1.1/DTD/svg11.dtd">
<svg xmlns:xlink="http://www.w3.org/1999/xlink" width="1000.098125pt" height="388.844525pt" viewBox="0 0 1000.098125 388.844525" xmlns="http://www.w3.org/2000/svg" version="1.1">
 <metadata>
  <rdf:RDF xmlns:dc="http://purl.org/dc/elements/1.1/" xmlns:cc="http://creativecommons.org/ns#" xmlns:rdf="http://www.w3.org/1999/02/22-rdf-syntax-ns#">
   <cc:Work>
    <dc:type rdf:resource="http://purl.org/dc/dcmitype/StillImage"/>
    <dc:date>2025-03-11T15:51:06.507501</dc:date>
    <dc:format>image/svg+xml</dc:format>
    <dc:creator>
     <cc:Agent>
      <dc:title>Matplotlib v3.8.2, https://matplotlib.org/</dc:title>
     </cc:Agent>
    </dc:creator>
   </cc:Work>
  </rdf:RDF>
 </metadata>
 <defs>
  <style type="text/css">*{stroke-linejoin: round; stroke-linecap: butt}</style>
 </defs>
 <g id="figure_1">
  <g id="axes_1">
   <g id="patch_1">
    <path d="M 58.418125 353.2239 
L 985.263125 353.2239 
L 985.263125 35.2559 
L 58.418125 35.2559 
z
" style="fill: #ffffff"/>
   </g>
   <g id="matplotlib.axis_1">
    <g id="xtick_1">
     <g id="text_1">
      <!-- 0 -->
      <g transform="translate(55.873125 366.30265) scale(0.08 -0.08)">
       <defs>
        <path id="DejaVuSans-30" d="M 2034 4250 
Q 1547 4250 1301 3770 
Q 1056 3291 1056 2328 
Q 1056 1369 1301 889 
Q 1547 409 2034 409 
Q 2525 409 2770 889 
Q 3016 1369 3016 2328 
Q 3016 3291 2770 3770 
Q 2525 4250 2034 4250 
z
M 2034 4750 
Q 2819 4750 3233 4129 
Q 3647 3509 3647 2328 
Q 3647 1150 3233 529 
Q 2819 -91 2034 -91 
Q 1250 -91 836 529 
Q 422 1150 422 2328 
Q 422 3509 836 4129 
Q 1250 4750 2034 4750 
z
" transform="scale(0.015625)"/>
       </defs>
       <use xlink:href="#DejaVuSans-30"/>
      </g>
     </g>
    </g>
    <g id="xtick_2">
     <g id="text_2">
      <!-- 20 -->
      <g transform="translate(238.697125 366.30265) scale(0.08 -0.08)">
       <defs>
        <path id="DejaVuSans-32" d="M 1228 531 
L 3431 531 
L 3431 0 
L 469 0 
L 469 531 
Q 828 903 1448 1529 
Q 2069 2156 2228 2338 
Q 2531 2678 2651 2914 
Q 2772 3150 2772 3378 
Q 2772 3750 2511 3984 
Q 2250 4219 1831 4219 
Q 1534 4219 1204 4116 
Q 875 4013 500 3803 
L 500 4441 
Q 881 4594 1212 4672 
Q 1544 4750 1819 4750 
Q 2544 4750 2975 4387 
Q 3406 4025 3406 3419 
Q 3406 3131 3298 2873 
Q 3191 2616 2906 2266 
Q 2828 2175 2409 1742 
Q 1991 1309 1228 531 
z
" transform="scale(0.015625)"/>
       </defs>
       <use xlink:href="#DejaVuSans-32"/>
       <use xlink:href="#DejaVuSans-30" x="63.623047"/>
      </g>
     </g>
    </g>
    <g id="xtick_3">
     <g id="text_3">
      <!-- 40 -->
      <g transform="translate(424.066125 366.30265) scale(0.08 -0.08)">
       <defs>
        <path id="DejaVuSans-34" d="M 2419 4116 
L 825 1625 
L 2419 1625 
L 2419 4116 
z
M 2253 4666 
L 3047 4666 
L 3047 1625 
L 3713 1625 
L 3713 1100 
L 3047 1100 
L 3047 0 
L 2419 0 
L 2419 1100 
L 313 1100 
L 313 1709 
L 2253 4666 
z
" transform="scale(0.015625)"/>
       </defs>
       <use xlink:href="#DejaVuSans-34"/>
       <use xlink:href="#DejaVuSans-30" x="63.623047"/>
      </g>
     </g>
    </g>
    <g id="xtick_4">
     <g id="text_4">
      <!-- 60 -->
      <g transform="translate(609.435125 366.30265) scale(0.08 -0.08)">
       <defs>
        <path id="DejaVuSans-36" d="M 2113 2584 
Q 1688 2584 1439 2293 
Q 1191 2003 1191 1497 
Q 1191 994 1439 701 
Q 1688 409 2113 409 
Q 2538 409 2786 701 
Q 3034 994 3034 1497 
Q 3034 2003 2786 2293 
Q 2538 2584 2113 2584 
z
M 3366 4563 
L 3366 3988 
Q 3128 4100 2886 4159 
Q 2644 4219 2406 4219 
Q 1781 4219 1451 3797 
Q 1122 3375 1075 2522 
Q 1259 2794 1537 2939 
Q 1816 3084 2150 3084 
Q 2853 3084 3261 2657 
Q 3669 2231 3669 1497 
Q 3669 778 3244 343 
Q 2819 -91 2113 -91 
Q 1303 -91 875 529 
Q 447 1150 447 2328 
Q 447 3434 972 4092 
Q 1497 4750 2381 4750 
Q 2619 4750 2861 4703 
Q 3103 4656 3366 4563 
z
" transform="scale(0.015625)"/>
       </defs>
       <use xlink:href="#DejaVuSans-36"/>
       <use xlink:href="#DejaVuSans-30" x="63.623047"/>
      </g>
     </g>
    </g>
    <g id="xtick_5">
     <g id="text_5">
      <!-- 80 -->
      <g transform="translate(794.804125 366.30265) scale(0.08 -0.08)">
       <defs>
        <path id="DejaVuSans-38" d="M 2034 2216 
Q 1584 2216 1326 1975 
Q 1069 1734 1069 1313 
Q 1069 891 1326 650 
Q 1584 409 2034 409 
Q 2484 409 2743 651 
Q 3003 894 3003 1313 
Q 3003 1734 2745 1975 
Q 2488 2216 2034 2216 
z
M 1403 2484 
Q 997 2584 770 2862 
Q 544 3141 544 3541 
Q 544 4100 942 4425 
Q 1341 4750 2034 4750 
Q 2731 4750 3128 4425 
Q 3525 4100 3525 3541 
Q 3525 3141 3298 2862 
Q 3072 2584 2669 2484 
Q 3125 2378 3379 2068 
Q 3634 1759 3634 1313 
Q 3634 634 3220 271 
Q 2806 -91 2034 -91 
Q 1263 -91 848 271 
Q 434 634 434 1313 
Q 434 1759 690 2068 
Q 947 2378 1403 2484 
z
M 1172 3481 
Q 1172 3119 1398 2916 
Q 1625 2713 2034 2713 
Q 2441 2713 2670 2916 
Q 2900 3119 2900 3481 
Q 2900 3844 2670 4047 
Q 2441 4250 2034 4250 
Q 1625 4250 1398 4047 
Q 1172 3844 1172 3481 
z
" transform="scale(0.015625)"/>
       </defs>
       <use xlink:href="#DejaVuSans-38"/>
       <use xlink:href="#DejaVuSans-30" x="63.623047"/>
      </g>
     </g>
    </g>
    <g id="xtick_6">
     <g id="text_6">
      <!-- 100 -->
      <g transform="translate(977.628125 366.30265) scale(0.08 -0.08)">
       <defs>
        <path id="DejaVuSans-31" d="M 794 531 
L 1825 531 
L 1825 4091 
L 703 3866 
L 703 4441 
L 1819 4666 
L 2450 4666 
L 2450 531 
L 3481 531 
L 3481 0 
L 794 0 
L 794 531 
z
" transform="scale(0.015625)"/>
       </defs>
       <use xlink:href="#DejaVuSans-31"/>
       <use xlink:href="#DejaVuSans-30" x="63.623047"/>
       <use xlink:href="#DejaVuSans-30" x="127.246094"/>
      </g>
     </g>
    </g>
    <g id="text_7">
     <!-- Transcript Position (%) -->
     <g transform="translate(466.008594 379.564837) scale(0.1 -0.1)">
      <defs>
       <path id="DejaVuSans-54" d="M -19 4666 
L 3928 4666 
L 3928 4134 
L 2272 4134 
L 2272 0 
L 1638 0 
L 1638 4134 
L -19 4134 
L -19 4666 
z
" transform="scale(0.015625)"/>
       <path id="DejaVuSans-72" d="M 2631 2963 
Q 2534 3019 2420 3045 
Q 2306 3072 2169 3072 
Q 1681 3072 1420 2755 
Q 1159 2438 1159 1844 
L 1159 0 
L 581 0 
L 581 3500 
L 1159 3500 
L 1159 2956 
Q 1341 3275 1631 3429 
Q 1922 3584 2338 3584 
Q 2397 3584 2469 3576 
Q 2541 3569 2628 3553 
L 2631 2963 
z
" transform="scale(0.015625)"/>
       <path id="DejaVuSans-61" d="M 2194 1759 
Q 1497 1759 1228 1600 
Q 959 1441 959 1056 
Q 959 750 1161 570 
Q 1363 391 1709 391 
Q 2188 391 2477 730 
Q 2766 1069 2766 1631 
L 2766 1759 
L 2194 1759 
z
M 3341 1997 
L 3341 0 
L 2766 0 
L 2766 531 
Q 2569 213 2275 61 
Q 1981 -91 1556 -91 
Q 1019 -91 701 211 
Q 384 513 384 1019 
Q 384 1609 779 1909 
Q 1175 2209 1959 2209 
L 2766 2209 
L 2766 2266 
Q 2766 2663 2505 2880 
Q 2244 3097 1772 3097 
Q 1472 3097 1187 3025 
Q 903 2953 641 2809 
L 641 3341 
Q 956 3463 1253 3523 
Q 1550 3584 1831 3584 
Q 2591 3584 2966 3190 
Q 3341 2797 3341 1997 
z
" transform="scale(0.015625)"/>
       <path id="DejaVuSans-6e" d="M 3513 2113 
L 3513 0 
L 2938 0 
L 2938 2094 
Q 2938 2591 2744 2837 
Q 2550 3084 2163 3084 
Q 1697 3084 1428 2787 
Q 1159 2491 1159 1978 
L 1159 0 
L 581 0 
L 581 3500 
L 1159 3500 
L 1159 2956 
Q 1366 3272 1645 3428 
Q 1925 3584 2291 3584 
Q 2894 3584 3203 3211 
Q 3513 2838 3513 2113 
z
" transform="scale(0.015625)"/>
       <path id="DejaVuSans-73" d="M 2834 3397 
L 2834 2853 
Q 2591 2978 2328 3040 
Q 2066 3103 1784 3103 
Q 1356 3103 1142 2972 
Q 928 2841 928 2578 
Q 928 2378 1081 2264 
Q 1234 2150 1697 2047 
L 1894 2003 
Q 2506 1872 2764 1633 
Q 3022 1394 3022 966 
Q 3022 478 2636 193 
Q 2250 -91 1575 -91 
Q 1294 -91 989 -36 
Q 684 19 347 128 
L 347 722 
Q 666 556 975 473 
Q 1284 391 1588 391 
Q 1994 391 2212 530 
Q 2431 669 2431 922 
Q 2431 1156 2273 1281 
Q 2116 1406 1581 1522 
L 1381 1569 
Q 847 1681 609 1914 
Q 372 2147 372 2553 
Q 372 3047 722 3315 
Q 1072 3584 1716 3584 
Q 2034 3584 2315 3537 
Q 2597 3491 2834 3397 
z
" transform="scale(0.015625)"/>
       <path id="DejaVuSans-63" d="M 3122 3366 
L 3122 2828 
Q 2878 2963 2633 3030 
Q 2388 3097 2138 3097 
Q 1578 3097 1268 2742 
Q 959 2388 959 1747 
Q 959 1106 1268 751 
Q 1578 397 2138 397 
Q 2388 397 2633 464 
Q 2878 531 3122 666 
L 3122 134 
Q 2881 22 2623 -34 
Q 2366 -91 2075 -91 
Q 1284 -91 818 406 
Q 353 903 353 1747 
Q 353 2603 823 3093 
Q 1294 3584 2113 3584 
Q 2378 3584 2631 3529 
Q 2884 3475 3122 3366 
z
" transform="scale(0.015625)"/>
       <path id="DejaVuSans-69" d="M 603 3500 
L 1178 3500 
L 1178 0 
L 603 0 
L 603 3500 
z
M 603 4863 
L 1178 4863 
L 1178 4134 
L 603 4134 
L 603 4863 
z
" transform="scale(0.015625)"/>
       <path id="DejaVuSans-70" d="M 1159 525 
L 1159 -1331 
L 581 -1331 
L 581 3500 
L 1159 3500 
L 1159 2969 
Q 1341 3281 1617 3432 
Q 1894 3584 2278 3584 
Q 2916 3584 3314 3078 
Q 3713 2572 3713 1747 
Q 3713 922 3314 415 
Q 2916 -91 2278 -91 
Q 1894 -91 1617 61 
Q 1341 213 1159 525 
z
M 3116 1747 
Q 3116 2381 2855 2742 
Q 2594 3103 2138 3103 
Q 1681 3103 1420 2742 
Q 1159 2381 1159 1747 
Q 1159 1113 1420 752 
Q 1681 391 2138 391 
Q 2594 391 2855 752 
Q 3116 1113 3116 1747 
z
" transform="scale(0.015625)"/>
       <path id="DejaVuSans-74" d="M 1172 4494 
L 1172 3500 
L 2356 3500 
L 2356 3053 
L 1172 3053 
L 1172 1153 
Q 1172 725 1289 603 
Q 1406 481 1766 481 
L 2356 481 
L 2356 0 
L 1766 0 
Q 1100 0 847 248 
Q 594 497 594 1153 
L 594 3053 
L 172 3053 
L 172 3500 
L 594 3500 
L 594 4494 
L 1172 4494 
z
" transform="scale(0.015625)"/>
       <path id="DejaVuSans-20" transform="scale(0.015625)"/>
       <path id="DejaVuSans-50" d="M 1259 4147 
L 1259 2394 
L 2053 2394 
Q 2494 2394 2734 2622 
Q 2975 2850 2975 3272 
Q 2975 3691 2734 3919 
Q 2494 4147 2053 4147 
L 1259 4147 
z
M 628 4666 
L 2053 4666 
Q 2838 4666 3239 4311 
Q 3641 3956 3641 3272 
Q 3641 2581 3239 2228 
Q 2838 1875 2053 1875 
L 1259 1875 
L 1259 0 
L 628 0 
L 628 4666 
z
" transform="scale(0.015625)"/>
       <path id="DejaVuSans-6f" d="M 1959 3097 
Q 1497 3097 1228 2736 
Q 959 2375 959 1747 
Q 959 1119 1226 758 
Q 1494 397 1959 397 
Q 2419 397 2687 759 
Q 2956 1122 2956 1747 
Q 2956 2369 2687 2733 
Q 2419 3097 1959 3097 
z
M 1959 3584 
Q 2709 3584 3137 3096 
Q 3566 2609 3566 1747 
Q 3566 888 3137 398 
Q 2709 -91 1959 -91 
Q 1206 -91 779 398 
Q 353 888 353 1747 
Q 353 2609 779 3096 
Q 1206 3584 1959 3584 
z
" transform="scale(0.015625)"/>
       <path id="DejaVuSans-28" d="M 1984 4856 
Q 1566 4138 1362 3434 
Q 1159 2731 1159 2009 
Q 1159 1288 1364 580 
Q 1569 -128 1984 -844 
L 1484 -844 
Q 1016 -109 783 600 
Q 550 1309 550 2009 
Q 550 2706 781 3412 
Q 1013 4119 1484 4856 
L 1984 4856 
z
" transform="scale(0.015625)"/>
       <path id="DejaVuSans-25" d="M 4653 2053 
Q 4381 2053 4226 1822 
Q 4072 1591 4072 1178 
Q 4072 772 4226 539 
Q 4381 306 4653 306 
Q 4919 306 5073 539 
Q 5228 772 5228 1178 
Q 5228 1588 5073 1820 
Q 4919 2053 4653 2053 
z
M 4653 2450 
Q 5147 2450 5437 2106 
Q 5728 1763 5728 1178 
Q 5728 594 5436 251 
Q 5144 -91 4653 -91 
Q 4153 -91 3862 251 
Q 3572 594 3572 1178 
Q 3572 1766 3864 2108 
Q 4156 2450 4653 2450 
z
M 1428 4353 
Q 1159 4353 1004 4120 
Q 850 3888 850 3481 
Q 850 3069 1003 2837 
Q 1156 2606 1428 2606 
Q 1700 2606 1854 2837 
Q 2009 3069 2009 3481 
Q 2009 3884 1853 4118 
Q 1697 4353 1428 4353 
z
M 4250 4750 
L 4750 4750 
L 1831 -91 
L 1331 -91 
L 4250 4750 
z
M 1428 4750 
Q 1922 4750 2215 4408 
Q 2509 4066 2509 3481 
Q 2509 2891 2217 2550 
Q 1925 2209 1428 2209 
Q 931 2209 642 2551 
Q 353 2894 353 3481 
Q 353 4063 643 4406 
Q 934 4750 1428 4750 
z
" transform="scale(0.015625)"/>
       <path id="DejaVuSans-29" d="M 513 4856 
L 1013 4856 
Q 1481 4119 1714 3412 
Q 1947 2706 1947 2009 
Q 1947 1309 1714 600 
Q 1481 -109 1013 -844 
L 513 -844 
Q 928 -128 1133 580 
Q 1338 1288 1338 2009 
Q 1338 2731 1133 3434 
Q 928 4138 513 4856 
z
" transform="scale(0.015625)"/>
      </defs>
      <use xlink:href="#DejaVuSans-54"/>
      <use xlink:href="#DejaVuSans-72" x="46.333984"/>
      <use xlink:href="#DejaVuSans-61" x="87.447266"/>
      <use xlink:href="#DejaVuSans-6e" x="148.726562"/>
      <use xlink:href="#DejaVuSans-73" x="212.105469"/>
      <use xlink:href="#DejaVuSans-63" x="264.205078"/>
      <use xlink:href="#DejaVuSans-72" x="319.185547"/>
      <use xlink:href="#DejaVuSans-69" x="360.298828"/>
      <use xlink:href="#DejaVuSans-70" x="388.082031"/>
      <use xlink:href="#DejaVuSans-74" x="451.558594"/>
      <use xlink:href="#DejaVuSans-20" x="490.767578"/>
      <use xlink:href="#DejaVuSans-50" x="522.554688"/>
      <use xlink:href="#DejaVuSans-6f" x="579.232422"/>
      <use xlink:href="#DejaVuSans-73" x="640.414062"/>
      <use xlink:href="#DejaVuSans-69" x="692.513672"/>
      <use xlink:href="#DejaVuSans-74" x="720.296875"/>
      <use xlink:href="#DejaVuSans-69" x="759.505859"/>
      <use xlink:href="#DejaVuSans-6f" x="787.289062"/>
      <use xlink:href="#DejaVuSans-6e" x="848.470703"/>
      <use xlink:href="#DejaVuSans-20" x="911.849609"/>
      <use xlink:href="#DejaVuSans-28" x="943.636719"/>
      <use xlink:href="#DejaVuSans-25" x="982.650391"/>
      <use xlink:href="#DejaVuSans-29" x="1077.669922"/>
     </g>
    </g>
   </g>
   <g id="matplotlib.axis_2">
    <g id="ytick_1">
     <g id="line2d_1">
      <path d="M 58.418125 353.2239 
L 985.263125 353.2239 
" clip-path="url(#pa8f24b67b2)" style="fill: none; stroke: #dedede; stroke-linecap: square"/>
     </g>
     <g id="text_8">
      <!-- 0 -->
      <g transform="translate(46.328125 356.263275) scale(0.08 -0.08)">
       <use xlink:href="#DejaVuSans-30"/>
      </g>
     </g>
    </g>
    <g id="ytick_2">
     <g id="line2d_2">
      <path d="M 58.418125 309.316075 
L 985.263125 309.316075 
" clip-path="url(#pa8f24b67b2)" style="fill: none; stroke: #dedede; stroke-linecap: square"/>
     </g>
     <g id="text_9">
      <!-- 25000 -->
      <g transform="translate(25.968125 312.35545) scale(0.08 -0.08)">
       <defs>
        <path id="DejaVuSans-35" d="M 691 4666 
L 3169 4666 
L 3169 4134 
L 1269 4134 
L 1269 2991 
Q 1406 3038 1543 3061 
Q 1681 3084 1819 3084 
Q 2600 3084 3056 2656 
Q 3513 2228 3513 1497 
Q 3513 744 3044 326 
Q 2575 -91 1722 -91 
Q 1428 -91 1123 -41 
Q 819 9 494 109 
L 494 744 
Q 775 591 1075 516 
Q 1375 441 1709 441 
Q 2250 441 2565 725 
Q 2881 1009 2881 1497 
Q 2881 1984 2565 2268 
Q 2250 2553 1709 2553 
Q 1456 2553 1204 2497 
Q 953 2441 691 2322 
L 691 4666 
z
" transform="scale(0.015625)"/>
       </defs>
       <use xlink:href="#DejaVuSans-32"/>
       <use xlink:href="#DejaVuSans-35" x="63.623047"/>
       <use xlink:href="#DejaVuSans-30" x="127.246094"/>
       <use xlink:href="#DejaVuSans-30" x="190.869141"/>
       <use xlink:href="#DejaVuSans-30" x="254.492188"/>
      </g>
     </g>
    </g>
    <g id="ytick_3">
     <g id="line2d_3">
      <path d="M 58.418125 265.40825 
L 985.263125 265.40825 
" clip-path="url(#pa8f24b67b2)" style="fill: none; stroke: #dedede; stroke-linecap: square"/>
     </g>
     <g id="text_10">
      <!-- 50000 -->
      <g transform="translate(25.968125 268.447625) scale(0.08 -0.08)">
       <use xlink:href="#DejaVuSans-35"/>
       <use xlink:href="#DejaVuSans-30" x="63.623047"/>
       <use xlink:href="#DejaVuSans-30" x="127.246094"/>
       <use xlink:href="#DejaVuSans-30" x="190.869141"/>
       <use xlink:href="#DejaVuSans-30" x="254.492188"/>
      </g>
     </g>
    </g>
    <g id="ytick_4">
     <g id="line2d_4">
      <path d="M 58.418125 221.500425 
L 985.263125 221.500425 
" clip-path="url(#pa8f24b67b2)" style="fill: none; stroke: #dedede; stroke-linecap: square"/>
     </g>
     <g id="text_11">
      <!-- 75000 -->
      <g transform="translate(25.968125 224.5398) scale(0.08 -0.08)">
       <defs>
        <path id="DejaVuSans-37" d="M 525 4666 
L 3525 4666 
L 3525 4397 
L 1831 0 
L 1172 0 
L 2766 4134 
L 525 4134 
L 525 4666 
z
" transform="scale(0.015625)"/>
       </defs>
       <use xlink:href="#DejaVuSans-37"/>
       <use xlink:href="#DejaVuSans-35" x="63.623047"/>
       <use xlink:href="#DejaVuSans-30" x="127.246094"/>
       <use xlink:href="#DejaVuSans-30" x="190.869141"/>
       <use xlink:href="#DejaVuSans-30" x="254.492188"/>
      </g>
     </g>
    </g>
    <g id="ytick_5">
     <g id="line2d_5">
      <path d="M 58.418125 177.5926 
L 985.263125 177.5926 
" clip-path="url(#pa8f24b67b2)" style="fill: none; stroke: #dedede; stroke-linecap: square"/>
     </g>
     <g id="text_12">
      <!-- 100000 -->
      <g transform="translate(20.878125 180.631975) scale(0.08 -0.08)">
       <use xlink:href="#DejaVuSans-31"/>
       <use xlink:href="#DejaVuSans-30" x="63.623047"/>
       <use xlink:href="#DejaVuSans-30" x="127.246094"/>
       <use xlink:href="#DejaVuSans-30" x="190.869141"/>
       <use xlink:href="#DejaVuSans-30" x="254.492188"/>
       <use xlink:href="#DejaVuSans-30" x="318.115234"/>
      </g>
     </g>
    </g>
    <g id="ytick_6">
     <g id="line2d_6">
      <path d="M 58.418125 133.684775 
L 985.263125 133.684775 
" clip-path="url(#pa8f24b67b2)" style="fill: none; stroke: #dedede; stroke-linecap: square"/>
     </g>
     <g id="text_13">
      <!-- 125000 -->
      <g transform="translate(20.878125 136.72415) scale(0.08 -0.08)">
       <use xlink:href="#DejaVuSans-31"/>
       <use xlink:href="#DejaVuSans-32" x="63.623047"/>
       <use xlink:href="#DejaVuSans-35" x="127.246094"/>
       <use xlink:href="#DejaVuSans-30" x="190.869141"/>
       <use xlink:href="#DejaVuSans-30" x="254.492188"/>
       <use xlink:href="#DejaVuSans-30" x="318.115234"/>
      </g>
     </g>
    </g>
    <g id="ytick_7">
     <g id="line2d_7">
      <path d="M 58.418125 89.77695 
L 985.263125 89.77695 
" clip-path="url(#pa8f24b67b2)" style="fill: none; stroke: #dedede; stroke-linecap: square"/>
     </g>
     <g id="text_14">
      <!-- 150000 -->
      <g transform="translate(20.878125 92.816325) scale(0.08 -0.08)">
       <use xlink:href="#DejaVuSans-31"/>
       <use xlink:href="#DejaVuSans-35" x="63.623047"/>
       <use xlink:href="#DejaVuSans-30" x="127.246094"/>
       <use xlink:href="#DejaVuSans-30" x="190.869141"/>
       <use xlink:href="#DejaVuSans-30" x="254.492188"/>
       <use xlink:href="#DejaVuSans-30" x="318.115234"/>
      </g>
     </g>
    </g>
    <g id="ytick_8">
     <g id="line2d_8">
      <path d="M 58.418125 45.869125 
L 985.263125 45.869125 
" clip-path="url(#pa8f24b67b2)" style="fill: none; stroke: #dedede; stroke-linecap: square"/>
     </g>
     <g id="text_15">
      <!-- 175000 -->
      <g transform="translate(20.878125 48.9085) scale(0.08 -0.08)">
       <use xlink:href="#DejaVuSans-31"/>
       <use xlink:href="#DejaVuSans-37" x="63.623047"/>
       <use xlink:href="#DejaVuSans-35" x="127.246094"/>
       <use xlink:href="#DejaVuSans-30" x="190.869141"/>
       <use xlink:href="#DejaVuSans-30" x="254.492188"/>
       <use xlink:href="#DejaVuSans-30" x="318.115234"/>
      </g>
     </g>
    </g>
    <g id="text_16">
     <!-- Cumulative mapped-read depth -->
     <g transform="translate(14.798437 274.104744) rotate(-90) scale(0.1 -0.1)">
      <defs>
       <path id="DejaVuSans-43" d="M 4122 4306 
L 4122 3641 
Q 3803 3938 3442 4084 
Q 3081 4231 2675 4231 
Q 1875 4231 1450 3742 
Q 1025 3253 1025 2328 
Q 1025 1406 1450 917 
Q 1875 428 2675 428 
Q 3081 428 3442 575 
Q 3803 722 4122 1019 
L 4122 359 
Q 3791 134 3420 21 
Q 3050 -91 2638 -91 
Q 1578 -91 968 557 
Q 359 1206 359 2328 
Q 359 3453 968 4101 
Q 1578 4750 2638 4750 
Q 3056 4750 3426 4639 
Q 3797 4528 4122 4306 
z
" transform="scale(0.015625)"/>
       <path id="DejaVuSans-75" d="M 544 1381 
L 544 3500 
L 1119 3500 
L 1119 1403 
Q 1119 906 1312 657 
Q 1506 409 1894 409 
Q 2359 409 2629 706 
Q 2900 1003 2900 1516 
L 2900 3500 
L 3475 3500 
L 3475 0 
L 2900 0 
L 2900 538 
Q 2691 219 2414 64 
Q 2138 -91 1772 -91 
Q 1169 -91 856 284 
Q 544 659 544 1381 
z
M 1991 3584 
L 1991 3584 
z
" transform="scale(0.015625)"/>
       <path id="DejaVuSans-6d" d="M 3328 2828 
Q 3544 3216 3844 3400 
Q 4144 3584 4550 3584 
Q 5097 3584 5394 3201 
Q 5691 2819 5691 2113 
L 5691 0 
L 5113 0 
L 5113 2094 
Q 5113 2597 4934 2840 
Q 4756 3084 4391 3084 
Q 3944 3084 3684 2787 
Q 3425 2491 3425 1978 
L 3425 0 
L 2847 0 
L 2847 2094 
Q 2847 2600 2669 2842 
Q 2491 3084 2119 3084 
Q 1678 3084 1418 2786 
Q 1159 2488 1159 1978 
L 1159 0 
L 581 0 
L 581 3500 
L 1159 3500 
L 1159 2956 
Q 1356 3278 1631 3431 
Q 1906 3584 2284 3584 
Q 2666 3584 2933 3390 
Q 3200 3197 3328 2828 
z
" transform="scale(0.015625)"/>
       <path id="DejaVuSans-6c" d="M 603 4863 
L 1178 4863 
L 1178 0 
L 603 0 
L 603 4863 
z
" transform="scale(0.015625)"/>
       <path id="DejaVuSans-76" d="M 191 3500 
L 800 3500 
L 1894 563 
L 2988 3500 
L 3597 3500 
L 2284 0 
L 1503 0 
L 191 3500 
z
" transform="scale(0.015625)"/>
       <path id="DejaVuSans-65" d="M 3597 1894 
L 3597 1613 
L 953 1613 
Q 991 1019 1311 708 
Q 1631 397 2203 397 
Q 2534 397 2845 478 
Q 3156 559 3463 722 
L 3463 178 
Q 3153 47 2828 -22 
Q 2503 -91 2169 -91 
Q 1331 -91 842 396 
Q 353 884 353 1716 
Q 353 2575 817 3079 
Q 1281 3584 2069 3584 
Q 2775 3584 3186 3129 
Q 3597 2675 3597 1894 
z
M 3022 2063 
Q 3016 2534 2758 2815 
Q 2500 3097 2075 3097 
Q 1594 3097 1305 2825 
Q 1016 2553 972 2059 
L 3022 2063 
z
" transform="scale(0.015625)"/>
       <path id="DejaVuSans-64" d="M 2906 2969 
L 2906 4863 
L 3481 4863 
L 3481 0 
L 2906 0 
L 2906 525 
Q 2725 213 2448 61 
Q 2172 -91 1784 -91 
Q 1150 -91 751 415 
Q 353 922 353 1747 
Q 353 2572 751 3078 
Q 1150 3584 1784 3584 
Q 2172 3584 2448 3432 
Q 2725 3281 2906 2969 
z
M 947 1747 
Q 947 1113 1208 752 
Q 1469 391 1925 391 
Q 2381 391 2643 752 
Q 2906 1113 2906 1747 
Q 2906 2381 2643 2742 
Q 2381 3103 1925 3103 
Q 1469 3103 1208 2742 
Q 947 2381 947 1747 
z
" transform="scale(0.015625)"/>
       <path id="DejaVuSans-2d" d="M 313 2009 
L 1997 2009 
L 1997 1497 
L 313 1497 
L 313 2009 
z
" transform="scale(0.015625)"/>
       <path id="DejaVuSans-68" d="M 3513 2113 
L 3513 0 
L 2938 0 
L 2938 2094 
Q 2938 2591 2744 2837 
Q 2550 3084 2163 3084 
Q 1697 3084 1428 2787 
Q 1159 2491 1159 1978 
L 1159 0 
L 581 0 
L 581 4863 
L 1159 4863 
L 1159 2956 
Q 1366 3272 1645 3428 
Q 1925 3584 2291 3584 
Q 2894 3584 3203 3211 
Q 3513 2838 3513 2113 
z
" transform="scale(0.015625)"/>
      </defs>
      <use xlink:href="#DejaVuSans-43"/>
      <use xlink:href="#DejaVuSans-75" x="69.824219"/>
      <use xlink:href="#DejaVuSans-6d" x="133.203125"/>
      <use xlink:href="#DejaVuSans-75" x="230.615234"/>
      <use xlink:href="#DejaVuSans-6c" x="293.994141"/>
      <use xlink:href="#DejaVuSans-61" x="321.777344"/>
      <use xlink:href="#DejaVuSans-74" x="383.056641"/>
      <use xlink:href="#DejaVuSans-69" x="422.265625"/>
      <use xlink:href="#DejaVuSans-76" x="450.048828"/>
      <use xlink:href="#DejaVuSans-65" x="509.228516"/>
      <use xlink:href="#DejaVuSans-20" x="570.751953"/>
      <use xlink:href="#DejaVuSans-6d" x="602.539062"/>
      <use xlink:href="#DejaVuSans-61" x="699.951172"/>
      <use xlink:href="#DejaVuSans-70" x="761.230469"/>
      <use xlink:href="#DejaVuSans-70" x="824.707031"/>
      <use xlink:href="#DejaVuSans-65" x="888.183594"/>
      <use xlink:href="#DejaVuSans-64" x="949.707031"/>
      <use xlink:href="#DejaVuSans-2d" x="1013.183594"/>
      <use xlink:href="#DejaVuSans-72" x="1049.267578"/>
      <use xlink:href="#DejaVuSans-65" x="1088.130859"/>
      <use xlink:href="#DejaVuSans-61" x="1149.654297"/>
      <use xlink:href="#DejaVuSans-64" x="1210.933594"/>
      <use xlink:href="#DejaVuSans-20" x="1274.410156"/>
      <use xlink:href="#DejaVuSans-64" x="1306.197266"/>
      <use xlink:href="#DejaVuSans-65" x="1369.673828"/>
      <use xlink:href="#DejaVuSans-70" x="1431.197266"/>
      <use xlink:href="#DejaVuSans-74" x="1494.673828"/>
      <use xlink:href="#DejaVuSans-68" x="1533.882812"/>
     </g>
    </g>
   </g>
   <g id="line2d_9">
    <path d="M 58.418125 266.146882 
L 67.686575 264.419011 
L 76.955025 258.479474 
L 86.223475 248.55232 
L 95.491925 236.793465 
L 104.760375 223.0873 
L 114.028825 209.751414 
L 123.297275 198.431663 
L 132.565725 187.328107 
L 141.834175 176.090417 
L 151.102625 164.837264 
L 160.371075 156.254014 
L 169.639525 149.482609 
L 178.907975 142.346611 
L 188.176425 138.306274 
L 197.444875 134.465365 
L 206.713325 130.061231 
L 215.981775 125.919608 
L 225.250225 122.218651 
L 234.518675 118.606852 
L 243.787125 114.137922 
L 253.055575 109.267119 
L 262.324025 105.978506 
L 271.592475 102.807048 
L 280.860925 99.940889 
L 290.129375 98.785422 
L 299.397825 99.794746 
L 308.666275 98.159097 
L 317.934725 96.373667 
L 327.203175 95.138554 
L 336.471625 94.324681 
L 345.740075 92.797593 
L 355.008525 93.560951 
L 364.276975 93.671739 
L 373.545425 94.245121 
L 382.813875 91.364795 
L 392.082325 90.944367 
L 401.350775 93.309473 
L 410.619225 94.596834 
L 419.887675 96.774986 
L 429.156125 97.50515 
L 438.424575 98.095966 
L 447.693025 99.318476 
L 456.961475 98.739885 
L 466.229925 99.158358 
L 475.498375 98.732321 
L 484.766825 98.992808 
L 494.035275 99.941739 
L 503.303725 101.247233 
L 512.572175 101.304932 
L 521.840625 102.321451 
L 531.109075 101.661483 
L 540.377525 103.412716 
L 549.645975 106.125489 
L 558.914425 108.893872 
L 568.182875 110.757934 
L 577.451325 113.735981 
L 586.719775 115.515199 
L 595.988225 117.999795 
L 605.256675 119.329015 
L 614.525125 118.920612 
L 623.793575 119.231089 
L 633.062025 119.411843 
L 642.330475 121.596742 
L 651.598925 124.122991 
L 660.867375 125.647792 
L 670.135825 127.024493 
L 679.404275 128.973355 
L 688.672725 131.712219 
L 697.941175 133.559263 
L 707.209625 135.597328 
L 716.478075 136.876997 
L 725.746525 138.937669 
L 735.014975 140.78018 
L 744.283425 142.757944 
L 753.551875 145.305473 
L 762.820325 148.141177 
L 772.088775 148.998284 
L 781.357225 151.206192 
L 790.625675 154.046216 
L 799.894125 155.088634 
L 809.162575 154.490713 
L 818.431025 154.526782 
L 827.699475 155.62912 
L 836.967925 155.851493 
L 846.236375 154.786195 
L 855.504825 155.544552 
L 864.773275 156.23356 
L 874.041725 157.116875 
L 883.310175 158.552801 
L 892.578625 162.697619 
L 901.847075 166.609187 
L 911.115525 172.072353 
L 920.383975 180.524516 
L 929.652425 191.104206 
L 938.920875 205.595942 
L 948.189325 226.769182 
L 957.457775 255.168162 
L 966.726225 291.357818 
L 975.994675 333.998135 
" clip-path="url(#pa8f24b67b2)" style="fill: none; stroke: #7cb5ec; stroke-linecap: square"/>
   </g>
   <g id="line2d_10">
    <path d="M 58.418125 259.743765 
L 67.686575 257.716725 
L 76.955025 251.631993 
L 86.223475 241.672464 
L 95.491925 229.438466 
L 104.760375 214.813885 
L 114.028825 200.951083 
L 123.297275 189.519964 
L 132.565725 178.235884 
L 141.834175 166.593516 
L 151.102625 154.90992 
L 160.371075 146.24992 
L 169.639525 139.353273 
L 178.907975 131.877684 
L 188.176425 128.001126 
L 197.444875 124.243165 
L 206.713325 119.992913 
L 215.981775 115.837666 
L 225.250225 112.077295 
L 234.518675 108.681031 
L 243.787125 104.547749 
L 253.055575 99.776885 
L 262.324025 96.625417 
L 271.592475 93.43422 
L 280.860925 90.382499 
L 290.129375 89.115117 
L 299.397825 90.275332 
L 308.666275 88.757455 
L 317.934725 87.026916 
L 327.203175 86.531811 
L 336.471625 86.253316 
L 345.740075 84.998128 
L 355.008525 86.055616 
L 364.276975 86.49587 
L 373.545425 87.422301 
L 382.813875 84.939412 
L 392.082325 84.933133 
L 401.350775 87.650164 
L 410.619225 89.108974 
L 419.887675 91.723444 
L 429.156125 92.715709 
L 438.424575 93.568315 
L 447.693025 95.185228 
L 456.961475 95.148411 
L 466.229925 96.029583 
L 475.498375 95.90554 
L 484.766825 96.314655 
L 494.035275 97.462856 
L 503.303725 99.22385 
L 512.572175 99.659476 
L 521.840625 100.863637 
L 531.109075 100.52872 
L 540.377525 102.743599 
L 549.645975 105.600776 
L 558.914425 108.811115 
L 568.182875 110.997802 
L 577.451325 114.154988 
L 586.719775 116.368313 
L 595.988225 119.186196 
L 605.256675 120.845035 
L 614.525125 120.755761 
L 623.793575 121.432685 
L 633.062025 121.914059 
L 642.330475 124.43743 
L 651.598925 127.104771 
L 660.867375 129.050997 
L 670.135825 130.765526 
L 679.404275 132.654802 
L 688.672725 135.326038 
L 697.941175 137.259888 
L 707.209625 139.365531 
L 716.478075 140.984858 
L 725.746525 143.400159 
L 735.014975 145.493759 
L 744.283425 147.59925 
L 753.551875 150.238595 
L 762.820325 153.412184 
L 772.088775 154.286149 
L 781.357225 156.298971 
L 790.625675 158.955393 
L 799.894125 160.089386 
L 809.162575 159.712938 
L 818.431025 159.892718 
L 827.699475 161.194717 
L 836.967925 161.667675 
L 846.236375 160.656384 
L 855.504825 161.334602 
L 864.773275 162.272281 
L 874.041725 163.311539 
L 883.310175 164.628716 
L 892.578625 168.868689 
L 901.847075 172.736384 
L 911.115525 178.021499 
L 920.383975 186.457211 
L 929.652425 196.797318 
L 938.920875 210.673584 
L 948.189325 231.209377 
L 957.457775 258.967616 
L 966.726225 293.980437 
L 975.994675 334.772957 
" clip-path="url(#pa8f24b67b2)" style="fill: none; stroke: #434348; stroke-linecap: square"/>
   </g>
   <g id="line2d_11">
    <path d="M 58.418125 281.386897 
L 67.686575 280.477444 
L 76.955025 275.583907 
L 86.223475 267.444501 
L 95.491925 257.401388 
L 104.760375 244.839683 
L 114.028825 232.57471 
L 123.297275 222.466093 
L 132.565725 212.634091 
L 141.834175 202.336979 
L 151.102625 191.593292 
L 160.371075 183.611035 
L 169.639525 177.357214 
L 178.907975 170.344303 
L 188.176425 166.576372 
L 197.444875 163.296654 
L 206.713325 159.279742 
L 215.981775 155.238678 
L 225.250225 151.41919 
L 234.518675 148.406945 
L 243.787125 144.328534 
L 253.055575 139.60671 
L 262.324025 136.533503 
L 271.592475 133.343252 
L 280.860925 130.057446 
L 290.129375 128.87719 
L 299.397825 129.778301 
L 308.666275 128.443866 
L 317.934725 126.791428 
L 327.203175 125.944721 
L 336.471625 125.233809 
L 345.740075 123.959467 
L 355.008525 124.627436 
L 364.276975 124.660077 
L 373.545425 125.282628 
L 382.813875 122.817273 
L 392.082325 122.255347 
L 401.350775 124.405144 
L 410.619225 125.857415 
L 419.887675 127.997912 
L 429.156125 128.660652 
L 438.424575 129.113217 
L 447.693025 130.403946 
L 456.961475 129.443883 
L 466.229925 129.972731 
L 475.498375 129.371551 
L 484.766825 129.163139 
L 494.035275 130.021257 
L 503.303725 131.3597 
L 512.572175 131.391308 
L 521.840625 132.282371 
L 531.109075 131.854295 
L 540.377525 133.72714 
L 549.645975 136.193076 
L 558.914425 139.088622 
L 568.182875 140.790046 
L 577.451325 143.607895 
L 586.719775 145.393017 
L 595.988225 147.788876 
L 605.256675 149.226342 
L 614.525125 148.845147 
L 623.793575 149.209865 
L 633.062025 149.391429 
L 642.330475 151.222927 
L 651.598925 153.602351 
L 660.867375 155.409922 
L 670.135825 156.863544 
L 679.404275 158.261483 
L 688.672725 160.610779 
L 697.941175 162.213745 
L 707.209625 164.03002 
L 716.478075 165.344601 
L 725.746525 167.380048 
L 735.014975 169.233547 
L 744.283425 171.219753 
L 753.551875 173.623633 
L 762.820325 176.255377 
L 772.088775 177.213734 
L 781.357225 179.312565 
L 790.625675 182.076329 
L 799.894125 182.940815 
L 809.162575 182.321204 
L 818.431025 182.757345 
L 827.699475 184.20328 
L 836.967925 184.798075 
L 846.236375 184.204778 
L 855.504825 184.695676 
L 864.773275 184.949323 
L 874.041725 185.676309 
L 883.310175 186.799918 
L 892.578625 190.68782 
L 901.847075 194.882359 
L 911.115525 200.035835 
L 920.383975 207.955027 
L 929.652425 217.634428 
L 938.920875 230.334272 
L 948.189325 248.223765 
L 957.457775 272.092742 
L 966.726225 302.293887 
L 975.994675 337.421488 
" clip-path="url(#pa8f24b67b2)" style="fill: none; stroke: #90ed7d; stroke-linecap: square"/>
   </g>
   <g id="line2d_12">
    <path d="M 58.418125 259.853649 
L 67.686575 257.923702 
L 76.955025 252.579122 
L 86.223475 242.757264 
L 95.491925 230.03429 
L 104.760375 215.416359 
L 114.028825 200.273831 
L 123.297275 188.389777 
L 132.565725 178.008105 
L 141.834175 166.942642 
L 151.102625 154.034196 
L 160.371075 145.018236 
L 169.639525 138.082457 
L 178.907975 130.966701 
L 188.176425 125.447456 
L 197.444875 120.658965 
L 206.713325 118.093279 
L 215.981775 113.781062 
L 225.250225 110.156276 
L 234.518675 106.873324 
L 243.787125 104.53528 
L 253.055575 99.264241 
L 262.324025 94.701589 
L 271.592475 91.973494 
L 280.860925 89.945919 
L 290.129375 87.978679 
L 299.397825 88.985565 
L 308.666275 87.695226 
L 317.934725 87.241241 
L 327.203175 86.694726 
L 336.471625 85.626564 
L 345.740075 85.035214 
L 355.008525 86.54748 
L 364.276975 86.228671 
L 373.545425 85.939265 
L 382.813875 83.259249 
L 392.082325 83.2655 
L 401.350775 85.783518 
L 410.619225 85.191211 
L 419.887675 85.256449 
L 429.156125 85.325453 
L 438.424575 86.382933 
L 447.693025 88.327578 
L 456.961475 87.877534 
L 466.229925 89.423406 
L 475.498375 90.773766 
L 484.766825 91.453704 
L 494.035275 92.818914 
L 503.303725 94.539009 
L 512.572175 94.980222 
L 521.840625 96.428482 
L 531.109075 96.597711 
L 540.377525 98.534729 
L 549.645975 100.728076 
L 558.914425 103.756158 
L 568.182875 105.810179 
L 577.451325 109.415355 
L 586.719775 111.801582 
L 595.988225 113.987291 
L 605.256675 114.918882 
L 614.525125 114.710996 
L 623.793575 114.597735 
L 633.062025 114.866827 
L 642.330475 116.025009 
L 651.598925 118.495107 
L 660.867375 119.585173 
L 670.135825 121.216691 
L 679.404275 123.394366 
L 688.672725 126.796613 
L 697.941175 128.989728 
L 707.209625 131.597892 
L 716.478075 133.881936 
L 725.746525 134.924412 
L 735.014975 135.730364 
L 744.283425 137.923096 
L 753.551875 141.186093 
L 762.820325 143.249275 
L 772.088775 145.035512 
L 781.357225 147.523985 
L 790.625675 150.701102 
L 799.894125 152.250032 
L 809.162575 153.266614 
L 818.431025 153.835373 
L 827.699475 155.096726 
L 836.967925 154.962026 
L 846.236375 154.713748 
L 855.504825 155.329724 
L 864.773275 156.451809 
L 874.041725 157.410859 
L 883.310175 157.809985 
L 892.578625 161.248853 
L 901.847075 165.446923 
L 911.115525 171.472332 
L 920.383975 180.407074 
L 929.652425 192.187222 
L 938.920875 206.778918 
L 948.189325 226.521882 
L 957.457775 254.596678 
L 966.726225 291.248105 
L 975.994675 333.698626 
" clip-path="url(#pa8f24b67b2)" style="fill: none; stroke: #f7a35c; stroke-linecap: square"/>
   </g>
   <g id="line2d_13">
    <path d="M 58.418125 284.648552 
L 67.686575 283.860813 
L 76.955025 279.809164 
L 86.223475 271.809421 
L 95.491925 260.744699 
L 104.760375 247.513768 
L 114.028825 233.505683 
L 123.297275 222.54381 
L 132.565725 213.065327 
L 141.834175 202.634119 
L 151.102625 190.278404 
L 160.371075 181.073148 
L 169.639525 174.106489 
L 178.907975 166.948788 
L 188.176425 161.372151 
L 197.444875 156.715162 
L 206.713325 153.350799 
L 215.981775 148.618153 
L 225.250225 144.253019 
L 234.518675 140.868272 
L 243.787125 137.860828 
L 253.055575 132.719927 
L 262.324025 128.379294 
L 271.592475 125.327893 
L 280.860925 122.763151 
L 290.129375 120.875675 
L 299.397825 121.478921 
L 308.666275 119.881027 
L 317.934725 118.824999 
L 327.203175 117.959829 
L 336.471625 116.449946 
L 345.740075 115.44844 
L 355.008525 116.741222 
L 364.276975 115.722795 
L 373.545425 114.731857 
L 382.813875 112.054385 
L 392.082325 111.785567 
L 401.350775 113.196762 
L 410.619225 111.97137 
L 419.887675 111.230771 
L 429.156125 110.825448 
L 438.424575 111.652772 
L 447.693025 113.27459 
L 456.961475 112.74945 
L 466.229925 114.127675 
L 475.498375 115.074595 
L 484.766825 115.649433 
L 494.035275 116.980835 
L 503.303725 118.297651 
L 512.572175 118.696953 
L 521.840625 119.270662 
L 531.109075 119.507756 
L 540.377525 120.802709 
L 549.645975 122.581019 
L 558.914425 125.203486 
L 568.182875 126.930453 
L 577.451325 130.046816 
L 586.719775 131.694029 
L 595.988225 133.139416 
L 605.256675 133.419751 
L 614.525125 132.416245 
L 623.793575 131.90483 
L 633.062025 131.927149 
L 642.330475 132.687891 
L 651.598925 134.518278 
L 660.867375 135.339649 
L 670.135825 136.403692 
L 679.404275 138.245975 
L 688.672725 141.216238 
L 697.941175 143.141545 
L 707.209625 145.450146 
L 716.478075 147.139161 
L 725.746525 147.351129 
L 735.014975 147.988531 
L 744.283425 149.796438 
L 753.551875 152.496453 
L 762.820325 154.148308 
L 772.088775 155.271284 
L 781.357225 157.469003 
L 790.625675 160.049172 
L 799.894125 161.046442 
L 809.162575 161.642807 
L 818.431025 162.430926 
L 827.699475 164.023891 
L 836.967925 164.342216 
L 846.236375 164.4954 
L 855.504825 165.686013 
L 864.773275 166.937089 
L 874.041725 167.977411 
L 883.310175 168.462898 
L 892.578625 172.015149 
L 901.847075 176.377003 
L 911.115525 182.61467 
L 920.383975 191.360122 
L 929.652425 203.097592 
L 938.920875 217.554492 
L 948.189325 236.760729 
L 957.457775 263.733785 
L 966.726225 297.832895 
L 975.994675 335.905595 
" clip-path="url(#pa8f24b67b2)" style="fill: none; stroke: #8085e9; stroke-linecap: square"/>
   </g>
   <g id="line2d_14">
    <path d="M 58.418125 262.103676 
L 67.686575 260.700363 
L 76.955025 255.511668 
L 86.223475 245.51095 
L 95.491925 231.786716 
L 104.760375 215.475043 
L 114.028825 198.486893 
L 123.297275 185.110374 
L 132.565725 173.888629 
L 141.834175 161.398596 
L 151.102625 146.888958 
L 160.371075 136.319627 
L 169.639525 128.014425 
L 178.907975 119.808482 
L 188.176425 113.78496 
L 197.444875 108.497055 
L 206.713325 104.874337 
L 215.981775 99.793465 
L 225.250225 95.219078 
L 234.518675 91.677751 
L 243.787125 88.758266 
L 253.055575 82.649013 
L 262.324025 77.461069 
L 271.592475 74.340872 
L 280.860925 71.73234 
L 290.129375 69.439355 
L 299.397825 70.427297 
L 308.666275 68.793413 
L 317.934725 67.871698 
L 327.203175 67.20246 
L 336.471625 65.890623 
L 345.740075 65.0188 
L 355.008525 66.360214 
L 364.276975 65.521908 
L 373.545425 64.731186 
L 382.813875 61.427675 
L 392.082325 61.613308 
L 401.350775 64.12259 
L 410.619225 63.587807 
L 419.887675 63.744653 
L 429.156125 63.886262 
L 438.424575 65.114248 
L 447.693025 67.104471 
L 456.961475 66.298175 
L 466.229925 67.908468 
L 475.498375 68.983242 
L 484.766825 69.635483 
L 494.035275 71.327826 
L 503.303725 73.348726 
L 512.572175 73.877374 
L 521.840625 75.561923 
L 531.109075 76.048861 
L 540.377525 78.182982 
L 549.645975 80.972932 
L 558.914425 84.447311 
L 568.182875 86.686714 
L 577.451325 90.864997 
L 586.719775 93.440467 
L 595.988225 95.558801 
L 605.256675 96.548095 
L 614.525125 96.195118 
L 623.793575 96.226079 
L 633.062025 96.703196 
L 642.330475 97.872609 
L 651.598925 100.418819 
L 660.867375 101.65918 
L 670.135825 103.197939 
L 679.404275 105.347306 
L 688.672725 109.216259 
L 697.941175 111.481589 
L 707.209625 114.598127 
L 716.478075 117.17579 
L 725.746525 118.256844 
L 735.014975 119.506782 
L 744.283425 121.801268 
L 753.551875 125.193917 
L 762.820325 127.360628 
L 772.088775 128.99927 
L 781.357225 131.958985 
L 790.625675 135.57382 
L 799.894125 137.003587 
L 809.162575 137.735541 
L 818.431025 138.826959 
L 827.699475 140.566408 
L 836.967925 140.619466 
L 846.236375 140.325737 
L 855.504825 141.119138 
L 864.773275 142.589779 
L 874.041725 143.731115 
L 883.310175 144.331185 
L 892.578625 148.360297 
L 901.847075 153.349189 
L 911.115525 160.450982 
L 920.383975 170.123659 
L 929.652425 182.617814 
L 938.920875 198.021611 
L 948.189325 219.072285 
L 957.457775 248.949614 
L 966.726225 287.822232 
L 975.994675 332.59254 
" clip-path="url(#pa8f24b67b2)" style="fill: none; stroke: #f15c80; stroke-linecap: square"/>
   </g>
   <g id="line2d_15">
    <path d="M 58.418125 287.713484 
L 67.686575 286.499716 
L 76.955025 281.744728 
L 86.223475 273.693204 
L 95.491925 264.095299 
L 104.760375 252.938755 
L 114.028825 242.084012 
L 123.297275 233.099102 
L 132.565725 224.492068 
L 141.834175 215.828398 
L 151.102625 206.637847 
L 160.371075 199.632931 
L 169.639525 194.06426 
L 178.907975 188.206491 
L 188.176425 184.763744 
L 197.444875 181.620602 
L 206.713325 177.95826 
L 215.981775 174.374355 
L 225.250225 171.327347 
L 234.518675 168.57784 
L 243.787125 164.907943 
L 253.055575 160.872397 
L 262.324025 158.271343 
L 271.592475 155.731514 
L 280.860925 153.101391 
L 290.129375 151.997795 
L 299.397825 152.565029 
L 308.666275 151.170476 
L 317.934725 149.642728 
L 327.203175 148.776282 
L 336.471625 148.27433 
L 345.740075 147.001617 
L 355.008525 147.620936 
L 364.276975 147.755879 
L 373.545425 148.28655 
L 382.813875 146.122264 
L 392.082325 145.605626 
L 401.350775 147.285515 
L 410.619225 148.159569 
L 419.887675 150.014269 
L 429.156125 150.540942 
L 438.424575 151.1208 
L 447.693025 152.264255 
L 456.961475 151.743835 
L 466.229925 152.056323 
L 475.498375 151.658877 
L 484.766825 151.655048 
L 494.035275 152.532187 
L 503.303725 153.790751 
L 512.572175 153.909343 
L 521.840625 154.721229 
L 531.109075 154.389158 
L 540.377525 156.129194 
L 549.645975 158.387009 
L 558.914425 160.59584 
L 568.182875 162.062882 
L 577.451325 164.527713 
L 586.719775 166.112392 
L 595.988225 168.134206 
L 605.256675 169.343056 
L 614.525125 169.245474 
L 623.793575 169.581084 
L 633.062025 169.728296 
L 642.330475 171.193516 
L 651.598925 173.055621 
L 660.867375 174.372617 
L 670.135825 175.525587 
L 679.404275 177.042517 
L 688.672725 179.250218 
L 697.941175 180.719011 
L 707.209625 182.422444 
L 716.478075 183.512106 
L 725.746525 185.152695 
L 735.014975 186.702007 
L 744.283425 188.407277 
L 753.551875 190.558279 
L 762.820325 192.83137 
L 772.088775 193.688912 
L 781.357225 195.588021 
L 790.625675 197.979975 
L 799.894125 198.943364 
L 809.162575 198.483653 
L 818.431025 198.617311 
L 827.699475 199.597637 
L 836.967925 199.788988 
L 846.236375 198.942937 
L 855.504825 199.462863 
L 864.773275 199.878769 
L 874.041725 200.392704 
L 883.310175 201.469318 
L 892.578625 204.698891 
L 901.847075 207.898129 
L 911.115525 211.993569 
L 920.383975 218.597792 
L 929.652425 226.763062 
L 938.920875 238.030943 
L 948.189325 254.345769 
L 957.457775 276.290361 
L 966.726225 304.628628 
L 975.994675 338.158374 
" clip-path="url(#pa8f24b67b2)" style="fill: none; stroke: #e4d354; stroke-linecap: square"/>
   </g>
   <g id="line2d_16">
    <path d="M 58.418125 268.709015 
L 67.686575 267.435457 
L 76.955025 262.088135 
L 86.223475 252.946762 
L 95.491925 241.322119 
L 104.760375 226.954886 
L 114.028825 213.238814 
L 123.297275 202.008929 
L 132.565725 191.025501 
L 141.834175 179.538342 
L 151.102625 167.793875 
L 160.371075 158.897715 
L 169.639525 151.820999 
L 178.907975 144.205018 
L 188.176425 139.973114 
L 197.444875 136.176561 
L 206.713325 131.762663 
L 215.981775 127.549495 
L 225.250225 123.680735 
L 234.518675 120.331438 
L 243.787125 115.985158 
L 253.055575 111.148709 
L 262.324025 107.783902 
L 271.592475 104.373599 
L 280.860925 101.208408 
L 290.129375 100.029808 
L 299.397825 101.035262 
L 308.666275 99.545279 
L 317.934725 97.990438 
L 327.203175 97.328177 
L 336.471625 96.513581 
L 345.740075 94.94642 
L 355.008525 95.871792 
L 364.276975 95.928628 
L 373.545425 96.463054 
L 382.813875 93.528872 
L 392.082325 93.231294 
L 401.350775 95.725934 
L 410.619225 97.291749 
L 419.887675 99.746686 
L 429.156125 100.687861 
L 438.424575 101.42656 
L 447.693025 102.766913 
L 456.961475 102.237048 
L 466.229925 103.080202 
L 475.498375 102.827024 
L 484.766825 103.128429 
L 494.035275 104.39266 
L 503.303725 106.040307 
L 512.572175 106.371325 
L 521.840625 107.268649 
L 531.109075 106.764437 
L 540.377525 108.607623 
L 549.645975 111.280683 
L 558.914425 114.535203 
L 568.182875 116.521531 
L 577.451325 119.468057 
L 586.719775 121.387418 
L 595.988225 123.856428 
L 605.256675 125.26551 
L 614.525125 124.800148 
L 623.793575 125.15889 
L 633.062025 125.435088 
L 642.330475 127.605401 
L 651.598925 130.076673 
L 660.867375 131.845549 
L 670.135825 133.442083 
L 679.404275 135.249038 
L 688.672725 138.063794 
L 697.941175 139.850187 
L 707.209625 141.83854 
L 716.478075 143.069807 
L 725.746525 144.849168 
L 735.014975 146.708072 
L 744.283425 148.845002 
L 753.551875 151.644861 
L 762.820325 154.688332 
L 772.088775 155.428715 
L 781.357225 157.39743 
L 790.625675 160.198915 
L 799.894125 161.415603 
L 809.162575 160.921081 
L 818.431025 161.172308 
L 827.699475 162.667227 
L 836.967925 163.236609 
L 846.236375 162.394855 
L 855.504825 163.129623 
L 864.773275 163.86793 
L 874.041725 164.814165 
L 883.310175 166.251884 
L 892.578625 170.546503 
L 901.847075 174.755468 
L 911.115525 180.431077 
L 920.383975 189.149826 
L 929.652425 199.966583 
L 938.920875 214.228442 
L 948.189325 234.657099 
L 957.457775 261.747028 
L 966.726225 295.718439 
L 975.994675 335.316361 
" clip-path="url(#pa8f24b67b2)" style="fill: none; stroke: #2b908f; stroke-linecap: square"/>
   </g>
   <g id="line2d_17">
    <path d="M 58.418125 272.678208 
L 67.686575 271.52674 
L 76.955025 266.288378 
L 86.223475 257.261495 
L 95.491925 246.080072 
L 104.760375 232.51154 
L 114.028825 219.208305 
L 123.297275 208.384919 
L 132.565725 197.556196 
L 141.834175 186.509714 
L 151.102625 175.176832 
L 160.371075 166.685743 
L 169.639525 160.026762 
L 178.907975 152.856942 
L 188.176425 148.709922 
L 197.444875 145.10058 
L 206.713325 140.877924 
L 215.981775 136.880158 
L 225.250225 133.080714 
L 234.518675 129.634777 
L 243.787125 125.621715 
L 253.055575 120.935822 
L 262.324025 117.769038 
L 271.592475 114.516255 
L 280.860925 111.523753 
L 290.129375 110.358233 
L 299.397825 111.222077 
L 308.666275 109.697751 
L 317.934725 107.967617 
L 327.203175 107.141924 
L 336.471625 106.481222 
L 345.740075 105.03106 
L 355.008525 105.647687 
L 364.276975 105.692836 
L 373.545425 106.335729 
L 382.813875 103.870126 
L 392.082325 103.355389 
L 401.350775 105.809909 
L 410.619225 107.286178 
L 419.887675 109.62322 
L 429.156125 110.457683 
L 438.424575 111.177808 
L 447.693025 112.464969 
L 456.961475 111.941831 
L 466.229925 112.415938 
L 475.498375 112.18625 
L 484.766825 112.507277 
L 494.035275 113.555783 
L 503.303725 115.0461 
L 512.572175 115.305577 
L 521.840625 116.179757 
L 531.109075 115.621332 
L 540.377525 117.43882 
L 549.645975 119.981006 
L 558.914425 122.942683 
L 568.182875 124.974696 
L 577.451325 128.032951 
L 586.719775 129.837916 
L 595.988225 132.328348 
L 605.256675 133.617276 
L 614.525125 133.197153 
L 623.793575 133.66913 
L 633.062025 133.964635 
L 642.330475 136.185471 
L 651.598925 138.708095 
L 660.867375 140.319999 
L 670.135825 141.758807 
L 679.404275 143.375541 
L 688.672725 145.851154 
L 697.941175 147.578507 
L 707.209625 149.637979 
L 716.478075 150.940762 
L 725.746525 152.934697 
L 735.014975 154.729952 
L 744.283425 156.786013 
L 753.551875 159.151541 
L 762.820325 161.800793 
L 772.088775 162.659351 
L 781.357225 164.626276 
L 790.625675 167.461963 
L 799.894125 168.514936 
L 809.162575 167.911512 
L 818.431025 168.240467 
L 827.699475 169.443093 
L 836.967925 169.962967 
L 846.236375 169.226009 
L 855.504825 170.010264 
L 864.773275 170.88698 
L 874.041725 171.912869 
L 883.310175 173.188426 
L 892.578625 177.243365 
L 901.847075 181.073933 
L 911.115525 186.237759 
L 920.383975 194.355127 
L 929.652425 204.644955 
L 938.920875 218.164943 
L 948.189325 237.892154 
L 957.457775 264.190669 
L 966.726225 297.238852 
L 975.994675 335.775385 
" clip-path="url(#pa8f24b67b2)" style="fill: none; stroke: #f45b5b; stroke-linecap: square"/>
   </g>
   <g id="line2d_18">
    <path d="M 58.418125 258.216359 
L 67.686575 257.250627 
L 76.955025 252.44971 
L 86.223475 242.173322 
L 95.491925 228.198903 
L 104.760375 211.704025 
L 114.028825 194.381966 
L 123.297275 180.796031 
L 132.565725 169.149724 
L 141.834175 156.703046 
L 151.102625 141.998263 
L 160.371075 131.508873 
L 169.639525 123.244771 
L 178.907975 115.083134 
L 188.176425 108.920301 
L 197.444875 103.628752 
L 206.713325 100.196877 
L 215.981775 94.872458 
L 225.250225 90.150021 
L 234.518675 86.230978 
L 243.787125 83.027086 
L 253.055575 76.926664 
L 262.324025 71.542444 
L 271.592475 68.306672 
L 280.860925 65.820554 
L 290.129375 63.463286 
L 299.397825 64.435702 
L 308.666275 62.540901 
L 317.934725 61.551925 
L 327.203175 60.892626 
L 336.471625 59.492347 
L 345.740075 58.669603 
L 355.008525 60.301467 
L 364.276975 59.480599 
L 373.545425 58.831427 
L 382.813875 55.507581 
L 392.082325 55.818984 
L 401.350775 58.367214 
L 410.619225 57.638909 
L 419.887675 57.631519 
L 429.156125 57.843798 
L 438.424575 59.136731 
L 447.693025 61.185124 
L 456.961475 60.828738 
L 466.229925 62.805853 
L 475.498375 64.132583 
L 484.766825 64.867636 
L 494.035275 66.362508 
L 503.303725 68.377529 
L 512.572175 68.798858 
L 521.840625 70.494848 
L 531.109075 70.677745 
L 540.377525 72.801228 
L 549.645975 75.474217 
L 558.914425 78.999036 
L 568.182875 81.313028 
L 577.451325 85.483667 
L 586.719775 88.326899 
L 595.988225 90.886889 
L 605.256675 91.943079 
L 614.525125 91.294825 
L 623.793575 91.074633 
L 633.062025 91.426538 
L 642.330475 92.935853 
L 651.598925 95.767884 
L 660.867375 97.228467 
L 670.135825 98.883307 
L 679.404275 101.370496 
L 688.672725 105.371762 
L 697.941175 107.68919 
L 707.209625 110.891412 
L 716.478075 113.533773 
L 725.746525 114.888988 
L 735.014975 116.24997 
L 744.283425 118.564439 
L 753.551875 122.221438 
L 762.820325 124.61535 
L 772.088775 126.073008 
L 781.357225 129.062576 
L 790.625675 132.463522 
L 799.894125 133.806858 
L 809.162575 134.66477 
L 818.431025 135.401492 
L 827.699475 136.75053 
L 836.967925 136.73875 
L 846.236375 136.506197 
L 855.504825 137.369296 
L 864.773275 138.530783 
L 874.041725 139.75504 
L 883.310175 140.415889 
L 892.578625 144.522454 
L 901.847075 149.352569 
L 911.115525 156.148434 
L 920.383975 165.948635 
L 929.652425 178.943443 
L 938.920875 194.727523 
L 948.189325 216.225563 
L 957.457775 246.797178 
L 966.726225 286.369974 
L 975.994675 332.158391 
" clip-path="url(#pa8f24b67b2)" style="fill: none; stroke: #91e8e1; stroke-linecap: square"/>
   </g>
   <g id="line2d_19">
    <path d="M 58.418125 277.011052 
L 67.686575 276.328385 
L 76.955025 272.523238 
L 86.223475 264.645723 
L 95.491925 253.580086 
L 104.760375 240.491988 
L 114.028825 226.851446 
L 123.297275 215.988209 
L 132.565725 206.303643 
L 141.834175 195.865657 
L 151.102625 184.035113 
L 160.371075 175.381003 
L 169.639525 168.541867 
L 178.907975 161.60755 
L 188.176425 156.369079 
L 197.444875 152.080483 
L 206.713325 149.181254 
L 215.981775 144.620271 
L 225.250225 140.624974 
L 234.518675 137.339957 
L 243.787125 134.837766 
L 253.055575 129.722113 
L 262.324025 125.062584 
L 271.592475 122.099042 
L 280.860925 120.470148 
L 290.129375 118.630331 
L 299.397825 119.395834 
L 308.666275 118.021726 
L 317.934725 117.405548 
L 327.203175 116.693292 
L 336.471625 115.432972 
L 345.740075 114.592844 
L 355.008525 115.722345 
L 364.276975 114.992985 
L 373.545425 114.183374 
L 382.813875 111.38241 
L 392.082325 111.396939 
L 401.350775 113.300372 
L 410.619225 112.732149 
L 419.887675 112.522082 
L 429.156125 112.413622 
L 438.424575 113.389548 
L 447.693025 114.923626 
L 456.961475 114.528317 
L 466.229925 115.916311 
L 475.498375 116.82063 
L 484.766825 117.375104 
L 494.035275 118.443492 
L 503.303725 119.843514 
L 512.572175 120.08997 
L 521.840625 121.240757 
L 531.109075 121.381771 
L 540.377525 122.750029 
L 549.645975 124.843227 
L 558.914425 127.883731 
L 568.182875 129.70894 
L 577.451325 133.113681 
L 586.719775 135.075971 
L 595.988225 136.718633 
L 605.256675 137.464413 
L 614.525125 137.023764 
L 623.793575 137.015939 
L 633.062025 137.325341 
L 642.330475 138.520248 
L 651.598925 140.89198 
L 660.867375 141.884697 
L 670.135825 142.913209 
L 679.404275 144.578699 
L 688.672725 147.546908 
L 697.941175 149.423221 
L 707.209625 151.761792 
L 716.478075 153.811509 
L 725.746525 154.639973 
L 735.014975 155.329837 
L 744.283425 157.102751 
L 753.551875 159.991004 
L 762.820325 161.919044 
L 772.088775 163.413987 
L 781.357225 165.915941 
L 790.625675 169.055872 
L 799.894125 170.397819 
L 809.162575 171.023793 
L 818.431025 171.74798 
L 827.699475 172.982369 
L 836.967925 172.723544 
L 846.236375 172.307807 
L 855.504825 173.068476 
L 864.773275 174.254281 
L 874.041725 175.422525 
L 883.310175 176.052765 
L 892.578625 179.647255 
L 901.847075 183.894599 
L 911.115525 189.882025 
L 920.383975 198.254001 
L 929.652425 209.29079 
L 938.920875 222.728422 
L 948.189325 240.738283 
L 957.457775 266.087529 
L 966.726225 298.641959 
L 975.994675 336.015458 
" clip-path="url(#pa8f24b67b2)" style="fill: none; stroke: #7cb5ec; stroke-linecap: square"/>
   </g>
   <g id="line2d_20">
    <path d="M 58.418125 289.333356 
L 67.686575 288.731729 
L 76.955025 285.584471 
L 86.223475 278.97043 
L 95.491925 269.115502 
L 104.760375 257.251486 
L 114.028825 244.767921 
L 123.297275 235.079425 
L 132.565725 226.861071 
L 141.834175 217.820373 
L 151.102625 207.303956 
L 160.371075 199.632757 
L 169.639525 193.418262 
L 178.907975 187.528195 
L 188.176425 183.056928 
L 197.444875 179.16131 
L 206.713325 176.248266 
L 215.981775 172.133268 
L 225.250225 168.528285 
L 234.518675 165.903586 
L 243.787125 163.74983 
L 253.055575 159.21222 
L 262.324025 155.15716 
L 271.592475 152.654743 
L 280.860925 150.35773 
L 290.129375 148.424968 
L 299.397825 149.201749 
L 308.666275 147.772453 
L 317.934725 146.982245 
L 327.203175 146.420865 
L 336.471625 145.396672 
L 345.740075 144.708356 
L 355.008525 145.641883 
L 364.276975 144.7942 
L 373.545425 144.313243 
L 382.813875 141.863356 
L 392.082325 141.965825 
L 401.350775 143.670187 
L 410.619225 143.588893 
L 419.887675 143.994625 
L 429.156125 143.958858 
L 438.424575 144.82788 
L 447.693025 146.312506 
L 456.961475 145.088007 
L 466.229925 146.277368 
L 475.498375 146.934869 
L 484.766825 147.447886 
L 494.035275 148.645712 
L 503.303725 149.806709 
L 512.572175 150.002091 
L 521.840625 151.108194 
L 531.109075 151.521628 
L 540.377525 153.565746 
L 549.645975 155.897243 
L 558.914425 158.711926 
L 568.182875 160.346557 
L 577.451325 163.231434 
L 586.719775 165.341563 
L 595.988225 167.313903 
L 605.256675 168.030933 
L 614.525125 167.51667 
L 623.793575 167.525218 
L 633.062025 167.821535 
L 642.330475 168.55004 
L 651.598925 170.756816 
L 660.867375 171.815413 
L 670.135825 172.905597 
L 679.404275 174.638693 
L 688.672725 177.559069 
L 697.941175 179.566759 
L 707.209625 182.035082 
L 716.478075 183.999266 
L 725.746525 184.807372 
L 735.014975 185.699165 
L 744.283425 187.416662 
L 753.551875 189.897288 
L 762.820325 191.380122 
L 772.088775 192.618385 
L 781.357225 194.961394 
L 790.625675 197.494773 
L 799.894125 198.465153 
L 809.162575 198.915905 
L 818.431025 199.649457 
L 827.699475 200.782998 
L 836.967925 200.77729 
L 846.236375 200.370975 
L 855.504825 201.030944 
L 864.773275 202.273607 
L 874.041725 203.454763 
L 883.310175 204.261375 
L 892.578625 207.459013 
L 901.847075 211.373281 
L 911.115525 216.504831 
L 920.383975 223.501208 
L 929.652425 232.279986 
L 938.920875 243.016928 
L 948.189325 257.721551 
L 957.457775 278.71464 
L 966.726225 306.432811 
L 975.994675 338.514663 
" clip-path="url(#pa8f24b67b2)" style="fill: none; stroke: #434348; stroke-linecap: square"/>
   </g>
   <g id="line2d_21">
    <path d="M 58.418125 275.062173 
L 67.686575 272.48675 
L 76.955025 266.310906 
L 86.223475 257.345831 
L 95.491925 246.399136 
L 104.760375 232.173888 
L 114.028825 219.087902 
L 123.297275 208.875265 
L 132.565725 199.488514 
L 141.834175 189.984742 
L 151.102625 180.12164 
L 160.371075 172.295372 
L 169.639525 165.964704 
L 178.907975 159.482896 
L 188.176425 155.75683 
L 197.444875 152.45465 
L 206.713325 148.031915 
L 215.981775 143.677236 
L 225.250225 140.604418 
L 234.518675 137.855012 
L 243.787125 133.889124 
L 253.055575 129.906698 
L 262.324025 127.058846 
L 271.592475 124.124138 
L 280.860925 121.594264 
L 290.129375 120.754537 
L 299.397825 121.720547 
L 308.666275 120.509469 
L 317.934725 118.969522 
L 327.203175 117.874357 
L 336.471625 116.97639 
L 345.740075 115.565601 
L 355.008525 116.291949 
L 364.276975 116.67839 
L 373.545425 117.109179 
L 382.813875 114.852584 
L 392.082325 114.897971 
L 401.350775 117.519182 
L 410.619225 119.010099 
L 419.887675 120.885058 
L 429.156125 121.477696 
L 438.424575 121.837621 
L 447.693025 123.524192 
L 456.961475 123.431288 
L 466.229925 124.102308 
L 475.498375 123.561625 
L 484.766825 123.51825 
L 494.035275 124.304585 
L 503.303725 125.520111 
L 512.572175 125.668814 
L 521.840625 126.259061 
L 531.109075 125.817265 
L 540.377525 127.80848 
L 549.645975 129.988512 
L 558.914425 132.696942 
L 568.182875 134.210074 
L 577.451325 136.771263 
L 586.719775 138.652486 
L 595.988225 141.118236 
L 605.256675 142.507679 
L 614.525125 142.240386 
L 623.793575 142.828248 
L 633.062025 143.726772 
L 642.330475 145.387019 
L 651.598925 147.766395 
L 660.867375 149.242196 
L 670.135825 150.801247 
L 679.404275 152.76911 
L 688.672725 155.354361 
L 697.941175 157.182047 
L 707.209625 158.821926 
L 716.478075 160.287277 
L 725.746525 161.626585 
L 735.014975 162.919106 
L 744.283425 165.076486 
L 753.551875 167.688987 
L 762.820325 170.079777 
L 772.088775 171.141227 
L 781.357225 173.172075 
L 790.625675 175.480661 
L 799.894125 176.273721 
L 809.162575 175.703044 
L 818.431025 175.779218 
L 827.699475 176.739236 
L 836.967925 177.074809 
L 846.236375 176.478316 
L 855.504825 177.374338 
L 864.773275 178.17594 
L 874.041725 178.958117 
L 883.310175 180.377694 
L 892.578625 184.073507 
L 901.847075 187.527501 
L 911.115525 191.568787 
L 920.383975 198.309392 
L 929.652425 206.889961 
L 938.920875 218.763028 
L 948.189325 236.194391 
L 957.457775 260.571187 
L 966.726225 293.342425 
L 975.994675 334.407299 
" clip-path="url(#pa8f24b67b2)" style="fill: none; stroke: #90ed7d; stroke-linecap: square"/>
   </g>
   <g id="line2d_22">
    <path d="M 58.418125 271.959259 
L 67.686575 270.581664 
L 76.955025 265.068047 
L 86.223475 256.153672 
L 95.491925 245.02869 
L 104.760375 230.244896 
L 114.028825 216.556296 
L 123.297275 205.499399 
L 132.565725 194.808521 
L 141.834175 183.680936 
L 151.102625 172.004228 
L 160.371075 163.4541 
L 169.639525 157.049882 
L 178.907975 149.643994 
L 188.176425 145.548148 
L 197.444875 142.068564 
L 206.713325 137.392774 
L 215.981775 132.782951 
L 225.250225 128.884114 
L 234.518675 125.571641 
L 243.787125 121.244657 
L 253.055575 116.57628 
L 262.324025 113.281751 
L 271.592475 109.795777 
L 280.860925 106.527119 
L 290.129375 105.4348 
L 299.397825 106.299657 
L 308.666275 105.030016 
L 317.934725 103.408324 
L 327.203175 102.153304 
L 336.471625 101.282634 
L 345.740075 99.873708 
L 355.008525 100.990254 
L 364.276975 100.976596 
L 373.545425 101.234378 
L 382.813875 98.540266 
L 392.082325 98.203059 
L 401.350775 101.187127 
L 410.619225 102.778165 
L 419.887675 104.776425 
L 429.156125 105.36384 
L 438.424575 106.050444 
L 447.693025 107.483421 
L 456.961475 106.960484 
L 466.229925 107.641536 
L 475.498375 107.089298 
L 484.766825 107.221789 
L 494.035275 108.236699 
L 503.303725 109.669317 
L 512.572175 109.811289 
L 521.840625 110.646051 
L 531.109075 110.116786 
L 540.377525 111.891493 
L 549.645975 114.369187 
L 558.914425 117.626563 
L 568.182875 119.339074 
L 577.451325 122.211843 
L 586.719775 124.13608 
L 595.988225 126.373088 
L 605.256675 127.772093 
L 614.525125 127.203395 
L 623.793575 127.761357 
L 633.062025 128.149498 
L 642.330475 130.150699 
L 651.598925 132.811334 
L 660.867375 134.674004 
L 670.135825 136.401481 
L 679.404275 138.053994 
L 688.672725 140.627822 
L 697.941175 142.400989 
L 707.209625 144.221338 
L 716.478075 145.671786 
L 725.746525 147.585498 
L 735.014975 149.714683 
L 744.283425 152.146665 
L 753.551875 155.016914 
L 762.820325 158.197799 
L 772.088775 159.323846 
L 781.357225 161.412531 
L 790.625675 164.099138 
L 799.894125 164.730349 
L 809.162575 164.13872 
L 818.431025 164.621086 
L 827.699475 165.894379 
L 836.967925 166.277688 
L 846.236375 165.744107 
L 855.504825 166.506387 
L 864.773275 166.869548 
L 874.041725 167.803898 
L 883.310175 169.204375 
L 892.578625 173.775949 
L 901.847075 178.184025 
L 911.115525 183.616448 
L 920.383975 191.569787 
L 929.652425 201.692127 
L 938.920875 215.035244 
L 948.189325 234.051353 
L 957.457775 260.341416 
L 966.726225 294.170348 
L 975.994675 334.667526 
" clip-path="url(#pa8f24b67b2)" style="fill: none; stroke: #f7a35c; stroke-linecap: square"/>
   </g>
   <g id="line2d_23">
    <path d="M 58.418125 266.443651 
L 67.686575 264.575708 
L 76.955025 258.602942 
L 86.223475 248.849651 
L 95.491925 236.638888 
L 104.760375 219.959163 
L 114.028825 204.420053 
L 123.297275 192.228463 
L 132.565725 181.118773 
L 141.834175 169.647842 
L 151.102625 157.831036 
L 160.371075 148.980954 
L 169.639525 141.639413 
L 178.907975 133.877017 
L 188.176425 129.62152 
L 197.444875 126.057137 
L 206.713325 121.121283 
L 215.981775 116.206515 
L 225.250225 111.967584 
L 234.518675 108.148295 
L 243.787125 103.661129 
L 253.055575 99.043727 
L 262.324025 95.780677 
L 271.592475 91.967489 
L 280.860925 89.020379 
L 290.129375 88.116131 
L 299.397825 88.708487 
L 308.666275 87.387048 
L 317.934725 85.71757 
L 327.203175 84.584306 
L 336.471625 83.598365 
L 345.740075 82.142322 
L 355.008525 83.706897 
L 364.276975 83.964893 
L 373.545425 84.160676 
L 382.813875 81.442638 
L 392.082325 81.423115 
L 401.350775 84.903453 
L 410.619225 86.668519 
L 419.887675 88.60004 
L 429.156125 89.157013 
L 438.424575 89.956167 
L 447.693025 91.877917 
L 456.961475 91.858603 
L 466.229925 92.499014 
L 475.498375 92.155552 
L 484.766825 92.41796 
L 494.035275 93.612299 
L 503.303725 95.384765 
L 512.572175 95.616368 
L 521.840625 96.221775 
L 531.109075 95.757305 
L 540.377525 97.344159 
L 549.645975 99.886982 
L 558.914425 103.427972 
L 568.182875 105.414025 
L 577.451325 108.507698 
L 586.719775 110.459561 
L 595.988225 113.192664 
L 605.256675 114.632852 
L 614.525125 114.003842 
L 623.793575 114.620116 
L 633.062025 115.276799 
L 642.330475 117.266468 
L 651.598925 119.877612 
L 660.867375 121.481121 
L 670.135825 123.102133 
L 679.404275 124.973068 
L 688.672725 127.930401 
L 697.941175 129.975391 
L 707.209625 131.882712 
L 716.478075 133.443515 
L 725.746525 135.179135 
L 735.014975 137.123155 
L 744.283425 139.922965 
L 753.551875 142.820849 
L 762.820325 145.53838 
L 772.088775 146.65086 
L 781.357225 149.001733 
L 790.625675 151.978401 
L 799.894125 152.842671 
L 809.162575 152.620154 
L 818.431025 153.409904 
L 827.699475 154.662274 
L 836.967925 155.228344 
L 846.236375 154.820528 
L 855.504825 155.68039 
L 864.773275 156.631093 
L 874.041725 157.855295 
L 883.310175 159.478913 
L 892.578625 163.988089 
L 901.847075 168.558114 
L 911.115525 173.992611 
L 920.383975 182.194073 
L 929.652425 192.884084 
L 938.920875 206.815068 
L 948.189325 226.625065 
L 957.457775 254.109988 
L 966.726225 289.836074 
L 975.994675 333.34378 
" clip-path="url(#pa8f24b67b2)" style="fill: none; stroke: #8085e9; stroke-linecap: square"/>
   </g>
   <g id="line2d_24">
    <path d="M 58.418125 286.91191 
L 67.686575 286.090778 
L 76.955025 283.82733 
L 86.223475 277.670944 
L 95.491925 267.84629 
L 104.760375 254.461562 
L 114.028825 240.497654 
L 123.297275 231.081102 
L 132.565725 222.452077 
L 141.834175 212.714871 
L 151.102625 201.794238 
L 160.371075 194.51541 
L 169.639525 188.561521 
L 178.907975 182.6009 
L 188.176425 177.870736 
L 197.444875 174.14669 
L 206.713325 170.573782 
L 215.981775 165.297127 
L 225.250225 161.213267 
L 234.518675 158.336987 
L 243.787125 155.54196 
L 253.055575 151.001705 
L 262.324025 146.458379 
L 271.592475 142.984055 
L 280.860925 140.936203 
L 290.129375 139.443655 
L 299.397825 140.117965 
L 308.666275 138.583538 
L 317.934725 136.990032 
L 327.203175 135.626427 
L 336.471625 133.924815 
L 345.740075 132.583567 
L 355.008525 133.607211 
L 364.276975 132.39201 
L 373.545425 130.794446 
L 382.813875 127.876604 
L 392.082325 128.47479 
L 401.350775 131.224359 
L 410.619225 131.239219 
L 419.887675 130.665679 
L 429.156125 130.767684 
L 438.424575 132.003652 
L 447.693025 133.299807 
L 456.961475 133.358707 
L 466.229925 134.810148 
L 475.498375 135.562448 
L 484.766825 135.670057 
L 494.035275 136.372295 
L 503.303725 137.941635 
L 512.572175 138.150507 
L 521.840625 138.970995 
L 531.109075 139.068579 
L 540.377525 140.49968 
L 549.645975 142.474657 
L 558.914425 145.160335 
L 568.182875 146.782039 
L 577.451325 149.765276 
L 586.719775 151.719962 
L 595.988225 153.438767 
L 605.256675 154.5423 
L 614.525125 154.034461 
L 623.793575 153.874338 
L 633.062025 154.101922 
L 642.330475 154.755485 
L 651.598925 156.88744 
L 660.867375 157.924837 
L 670.135825 159.127559 
L 679.404275 160.610769 
L 688.672725 163.564782 
L 697.941175 165.045112 
L 707.209625 167.274986 
L 716.478075 169.512761 
L 725.746525 169.912029 
L 735.014975 170.820623 
L 744.283425 173.291004 
L 753.551875 175.924327 
L 762.820325 177.011016 
L 772.088775 178.319142 
L 781.357225 181.440833 
L 790.625675 184.633355 
L 799.894125 186.018321 
L 809.162575 186.702997 
L 818.431025 187.501819 
L 827.699475 188.457007 
L 836.967925 188.38932 
L 846.236375 188.048765 
L 855.504825 188.620078 
L 864.773275 190.032258 
L 874.041725 191.259159 
L 883.310175 191.723262 
L 892.578625 195.041033 
L 901.847075 199.241917 
L 911.115525 204.980376 
L 920.383975 212.82778 
L 929.652425 222.373352 
L 938.920875 233.727821 
L 948.189325 249.598071 
L 957.457775 272.092407 
L 966.726225 301.635947 
L 975.994675 336.652738 
" clip-path="url(#pa8f24b67b2)" style="fill: none; stroke: #f15c80; stroke-linecap: square"/>
   </g>
   <g id="line2d_25">
    <path d="M 58.418125 251.977217 
L 67.686575 250.095985 
L 76.955025 249.240986 
L 86.223475 244.513852 
L 95.491925 233.135935 
L 104.760375 215.561268 
L 114.028825 197.72583 
L 123.297275 185.94867 
L 132.565725 173.531307 
L 141.834175 159.918307 
L 151.102625 144.19169 
L 160.371075 134.681214 
L 169.639525 127.550281 
L 178.907975 119.103914 
L 188.176425 112.821314 
L 197.444875 108.535964 
L 206.713325 105.058697 
L 215.981775 98.024298 
L 225.250225 92.336363 
L 234.518675 88.824928 
L 243.787125 86.112612 
L 253.055575 79.87781 
L 262.324025 73.337216 
L 271.592475 67.061821 
L 280.860925 65.679531 
L 290.129375 64.56064 
L 299.397825 65.664459 
L 308.666275 63.869482 
L 317.934725 61.662004 
L 327.203175 59.526067 
L 336.471625 57.411563 
L 345.740075 55.92084 
L 355.008525 57.922143 
L 364.276975 55.940414 
L 373.545425 53.983621 
L 382.813875 49.697541 
L 392.082325 50.325027 
L 401.350775 55.408283 
L 410.619225 56.438707 
L 419.887675 55.752709 
L 429.156125 56.138741 
L 438.424575 58.450302 
L 447.693025 60.534435 
L 456.961475 59.982017 
L 466.229925 61.666059 
L 475.498375 63.061377 
L 484.766825 63.686298 
L 494.035275 65.733888 
L 503.303725 67.947891 
L 512.572175 68.629646 
L 521.840625 69.740587 
L 531.109075 70.458271 
L 540.377525 71.646966 
L 549.645975 74.185847 
L 558.914425 78.508296 
L 568.182875 80.109707 
L 577.451325 83.824915 
L 586.719775 86.367929 
L 595.988225 88.33012 
L 605.256675 89.587926 
L 614.525125 88.600967 
L 623.793575 88.641399 
L 633.062025 88.347455 
L 642.330475 90.333714 
L 651.598925 93.411276 
L 660.867375 95.446924 
L 670.135825 96.423972 
L 679.404275 97.013261 
L 688.672725 99.902982 
L 697.941175 101.455867 
L 707.209625 103.819821 
L 716.478075 106.609968 
L 725.746525 107.103142 
L 735.014975 108.540237 
L 744.283425 111.386022 
L 753.551875 114.088828 
L 762.820325 116.101991 
L 772.088775 118.766047 
L 781.357225 123.211911 
L 790.625675 128.984969 
L 799.894125 131.18393 
L 809.162575 132.694111 
L 818.431025 134.49442 
L 827.699475 137.03538 
L 836.967925 137.956144 
L 846.236375 138.186908 
L 855.504825 138.891987 
L 864.773275 141.030561 
L 874.041725 143.701722 
L 883.310175 144.685663 
L 892.578625 150.466419 
L 901.847075 157.423868 
L 911.115525 167.279768 
L 920.383975 178.296202 
L 929.652425 192.68534 
L 938.920875 208.533065 
L 948.189325 230.334267 
L 957.457775 259.572853 
L 966.726225 295.385018 
L 975.994675 334.615172 
" clip-path="url(#pa8f24b67b2)" style="fill: none; stroke: #e4d354; stroke-linecap: square"/>
   </g>
   <g id="line2d_26">
    <path d="M 58.418125 298.473767 
L 67.686575 297.383919 
L 76.955025 294.325373 
L 86.223475 288.333937 
L 95.491925 279.829701 
L 104.760375 269.070519 
L 114.028825 258.099445 
L 123.297275 250.347911 
L 132.565725 242.971472 
L 141.834175 234.89292 
L 151.102625 225.992463 
L 160.371075 219.56237 
L 169.639525 214.876883 
L 178.907975 209.849523 
L 188.176425 205.975333 
L 197.444875 202.879819 
L 206.713325 200.060847 
L 215.981775 196.166402 
L 225.250225 192.834973 
L 234.518675 190.166778 
L 243.787125 187.91387 
L 253.055575 184.393003 
L 262.324025 181.265884 
L 271.592475 178.6566 
L 280.860925 177.708688 
L 290.129375 176.749314 
L 299.397825 176.965293 
L 308.666275 175.910232 
L 317.934725 174.335259 
L 327.203175 173.166948 
L 336.471625 171.797768 
L 345.740075 170.579425 
L 355.008525 171.481331 
L 364.276975 170.802798 
L 373.545425 169.528575 
L 382.813875 167.373371 
L 392.082325 167.336458 
L 401.350775 169.311152 
L 410.619225 168.781997 
L 419.887675 168.086061 
L 429.156125 168.029467 
L 438.424575 169.079279 
L 447.693025 170.046611 
L 456.961475 169.959422 
L 466.229925 170.707468 
L 475.498375 171.446939 
L 484.766825 171.717216 
L 494.035275 172.399749 
L 503.303725 173.671758 
L 512.572175 173.987767 
L 521.840625 174.321508 
L 531.109075 173.883353 
L 540.377525 174.323536 
L 549.645975 175.604945 
L 558.914425 177.491963 
L 568.182875 178.776909 
L 577.451325 181.282732 
L 586.719775 182.690677 
L 595.988225 183.57078 
L 605.256675 184.408017 
L 614.525125 183.867905 
L 623.793575 183.69476 
L 633.062025 183.993647 
L 642.330475 183.913394 
L 651.598925 185.192864 
L 660.867375 185.973891 
L 670.135825 186.682437 
L 679.404275 187.487941 
L 688.672725 189.777654 
L 697.941175 191.125942 
L 707.209625 192.87552 
L 716.478075 194.423619 
L 725.746525 194.301235 
L 735.014975 194.472476 
L 744.283425 196.467888 
L 753.551875 198.257956 
L 762.820325 198.554855 
L 772.088775 199.966926 
L 781.357225 202.367825 
L 790.625675 204.819203 
L 799.894125 205.945755 
L 809.162575 206.570196 
L 818.431025 207.026325 
L 827.699475 208.153043 
L 836.967925 207.734302 
L 846.236375 207.292001 
L 855.504825 207.797019 
L 864.773275 208.71923 
L 874.041725 209.516236 
L 883.310175 209.701809 
L 892.578625 212.513335 
L 901.847075 216.037196 
L 911.115525 220.575091 
L 920.383975 227.315021 
L 929.652425 236.206298 
L 938.920875 246.503781 
L 948.189325 261.214216 
L 957.457775 281.393515 
L 966.726225 307.572363 
L 975.994675 338.530364 
" clip-path="url(#pa8f24b67b2)" style="fill: none; stroke: #2b908f; stroke-linecap: square"/>
   </g>
   <g id="line2d_27">
    <path d="M 58.418125 353.2239 
L 985.263125 353.2239 
" clip-path="url(#pa8f24b67b2)" style="fill: none; stroke: #dedede; stroke-width: 2; stroke-linecap: square"/>
   </g>
   <g id="text_17">
    <!-- Qualimap RNAseq: Coverage Profile Along Genes (total) -->
    <g transform="translate(298.459375 19.3575) scale(0.16 -0.16)">
     <defs>
      <path id="DejaVuSans-51" d="M 2522 4238 
Q 1834 4238 1429 3725 
Q 1025 3213 1025 2328 
Q 1025 1447 1429 934 
Q 1834 422 2522 422 
Q 3209 422 3611 934 
Q 4013 1447 4013 2328 
Q 4013 3213 3611 3725 
Q 3209 4238 2522 4238 
z
M 3406 84 
L 4238 -825 
L 3475 -825 
L 2784 -78 
Q 2681 -84 2626 -87 
Q 2572 -91 2522 -91 
Q 1538 -91 948 567 
Q 359 1225 359 2328 
Q 359 3434 948 4092 
Q 1538 4750 2522 4750 
Q 3503 4750 4090 4092 
Q 4678 3434 4678 2328 
Q 4678 1516 4351 937 
Q 4025 359 3406 84 
z
" transform="scale(0.015625)"/>
      <path id="DejaVuSans-52" d="M 2841 2188 
Q 3044 2119 3236 1894 
Q 3428 1669 3622 1275 
L 4263 0 
L 3584 0 
L 2988 1197 
Q 2756 1666 2539 1819 
Q 2322 1972 1947 1972 
L 1259 1972 
L 1259 0 
L 628 0 
L 628 4666 
L 2053 4666 
Q 2853 4666 3247 4331 
Q 3641 3997 3641 3322 
Q 3641 2881 3436 2590 
Q 3231 2300 2841 2188 
z
M 1259 4147 
L 1259 2491 
L 2053 2491 
Q 2509 2491 2742 2702 
Q 2975 2913 2975 3322 
Q 2975 3731 2742 3939 
Q 2509 4147 2053 4147 
L 1259 4147 
z
" transform="scale(0.015625)"/>
      <path id="DejaVuSans-4e" d="M 628 4666 
L 1478 4666 
L 3547 763 
L 3547 4666 
L 4159 4666 
L 4159 0 
L 3309 0 
L 1241 3903 
L 1241 0 
L 628 0 
L 628 4666 
z
" transform="scale(0.015625)"/>
      <path id="DejaVuSans-41" d="M 2188 4044 
L 1331 1722 
L 3047 1722 
L 2188 4044 
z
M 1831 4666 
L 2547 4666 
L 4325 0 
L 3669 0 
L 3244 1197 
L 1141 1197 
L 716 0 
L 50 0 
L 1831 4666 
z
" transform="scale(0.015625)"/>
      <path id="DejaVuSans-71" d="M 947 1747 
Q 947 1113 1208 752 
Q 1469 391 1925 391 
Q 2381 391 2643 752 
Q 2906 1113 2906 1747 
Q 2906 2381 2643 2742 
Q 2381 3103 1925 3103 
Q 1469 3103 1208 2742 
Q 947 2381 947 1747 
z
M 2906 525 
Q 2725 213 2448 61 
Q 2172 -91 1784 -91 
Q 1150 -91 751 415 
Q 353 922 353 1747 
Q 353 2572 751 3078 
Q 1150 3584 1784 3584 
Q 2172 3584 2448 3432 
Q 2725 3281 2906 2969 
L 2906 3500 
L 3481 3500 
L 3481 -1331 
L 2906 -1331 
L 2906 525 
z
" transform="scale(0.015625)"/>
      <path id="DejaVuSans-3a" d="M 750 794 
L 1409 794 
L 1409 0 
L 750 0 
L 750 794 
z
M 750 3309 
L 1409 3309 
L 1409 2516 
L 750 2516 
L 750 3309 
z
" transform="scale(0.015625)"/>
      <path id="DejaVuSans-67" d="M 2906 1791 
Q 2906 2416 2648 2759 
Q 2391 3103 1925 3103 
Q 1463 3103 1205 2759 
Q 947 2416 947 1791 
Q 947 1169 1205 825 
Q 1463 481 1925 481 
Q 2391 481 2648 825 
Q 2906 1169 2906 1791 
z
M 3481 434 
Q 3481 -459 3084 -895 
Q 2688 -1331 1869 -1331 
Q 1566 -1331 1297 -1286 
Q 1028 -1241 775 -1147 
L 775 -588 
Q 1028 -725 1275 -790 
Q 1522 -856 1778 -856 
Q 2344 -856 2625 -561 
Q 2906 -266 2906 331 
L 2906 616 
Q 2728 306 2450 153 
Q 2172 0 1784 0 
Q 1141 0 747 490 
Q 353 981 353 1791 
Q 353 2603 747 3093 
Q 1141 3584 1784 3584 
Q 2172 3584 2450 3431 
Q 2728 3278 2906 2969 
L 2906 3500 
L 3481 3500 
L 3481 434 
z
" transform="scale(0.015625)"/>
      <path id="DejaVuSans-66" d="M 2375 4863 
L 2375 4384 
L 1825 4384 
Q 1516 4384 1395 4259 
Q 1275 4134 1275 3809 
L 1275 3500 
L 2222 3500 
L 2222 3053 
L 1275 3053 
L 1275 0 
L 697 0 
L 697 3053 
L 147 3053 
L 147 3500 
L 697 3500 
L 697 3744 
Q 697 4328 969 4595 
Q 1241 4863 1831 4863 
L 2375 4863 
z
" transform="scale(0.015625)"/>
      <path id="DejaVuSans-47" d="M 3809 666 
L 3809 1919 
L 2778 1919 
L 2778 2438 
L 4434 2438 
L 4434 434 
Q 4069 175 3628 42 
Q 3188 -91 2688 -91 
Q 1594 -91 976 548 
Q 359 1188 359 2328 
Q 359 3472 976 4111 
Q 1594 4750 2688 4750 
Q 3144 4750 3555 4637 
Q 3966 4525 4313 4306 
L 4313 3634 
Q 3963 3931 3569 4081 
Q 3175 4231 2741 4231 
Q 1884 4231 1454 3753 
Q 1025 3275 1025 2328 
Q 1025 1384 1454 906 
Q 1884 428 2741 428 
Q 3075 428 3337 486 
Q 3600 544 3809 666 
z
" transform="scale(0.015625)"/>
     </defs>
     <use xlink:href="#DejaVuSans-51"/>
     <use xlink:href="#DejaVuSans-75" x="78.710938"/>
     <use xlink:href="#DejaVuSans-61" x="142.089844"/>
     <use xlink:href="#DejaVuSans-6c" x="203.369141"/>
     <use xlink:href="#DejaVuSans-69" x="231.152344"/>
     <use xlink:href="#DejaVuSans-6d" x="258.935547"/>
     <use xlink:href="#DejaVuSans-61" x="356.347656"/>
     <use xlink:href="#DejaVuSans-70" x="417.626953"/>
     <use xlink:href="#DejaVuSans-20" x="481.103516"/>
     <use xlink:href="#DejaVuSans-52" x="512.890625"/>
     <use xlink:href="#DejaVuSans-4e" x="582.373047"/>
     <use xlink:href="#DejaVuSans-41" x="657.177734"/>
     <use xlink:href="#DejaVuSans-73" x="725.585938"/>
     <use xlink:href="#DejaVuSans-65" x="777.685547"/>
     <use xlink:href="#DejaVuSans-71" x="839.208984"/>
     <use xlink:href="#DejaVuSans-3a" x="902.685547"/>
     <use xlink:href="#DejaVuSans-20" x="936.376953"/>
     <use xlink:href="#DejaVuSans-43" x="968.164062"/>
     <use xlink:href="#DejaVuSans-6f" x="1037.988281"/>
     <use xlink:href="#DejaVuSans-76" x="1099.169922"/>
     <use xlink:href="#DejaVuSans-65" x="1158.349609"/>
     <use xlink:href="#DejaVuSans-72" x="1219.873047"/>
     <use xlink:href="#DejaVuSans-61" x="1260.986328"/>
     <use xlink:href="#DejaVuSans-67" x="1322.265625"/>
     <use xlink:href="#DejaVuSans-65" x="1385.742188"/>
     <use xlink:href="#DejaVuSans-20" x="1447.265625"/>
     <use xlink:href="#DejaVuSans-50" x="1479.052734"/>
     <use xlink:href="#DejaVuSans-72" x="1537.605469"/>
     <use xlink:href="#DejaVuSans-6f" x="1576.46875"/>
     <use xlink:href="#DejaVuSans-66" x="1637.650391"/>
     <use xlink:href="#DejaVuSans-69" x="1672.855469"/>
     <use xlink:href="#DejaVuSans-6c" x="1700.638672"/>
     <use xlink:href="#DejaVuSans-65" x="1728.421875"/>
     <use xlink:href="#DejaVuSans-20" x="1789.945312"/>
     <use xlink:href="#DejaVuSans-41" x="1821.732422"/>
     <use xlink:href="#DejaVuSans-6c" x="1890.140625"/>
     <use xlink:href="#DejaVuSans-6f" x="1917.923828"/>
     <use xlink:href="#DejaVuSans-6e" x="1979.105469"/>
     <use xlink:href="#DejaVuSans-67" x="2042.484375"/>
     <use xlink:href="#DejaVuSans-20" x="2105.960938"/>
     <use xlink:href="#DejaVuSans-47" x="2137.748047"/>
     <use xlink:href="#DejaVuSans-65" x="2215.238281"/>
     <use xlink:href="#DejaVuSans-6e" x="2276.761719"/>
     <use xlink:href="#DejaVuSans-65" x="2340.140625"/>
     <use xlink:href="#DejaVuSans-73" x="2401.664062"/>
     <use xlink:href="#DejaVuSans-20" x="2453.763672"/>
     <use xlink:href="#DejaVuSans-28" x="2485.550781"/>
     <use xlink:href="#DejaVuSans-74" x="2524.564453"/>
     <use xlink:href="#DejaVuSans-6f" x="2563.773438"/>
     <use xlink:href="#DejaVuSans-74" x="2624.955078"/>
     <use xlink:href="#DejaVuSans-61" x="2664.164062"/>
     <use xlink:href="#DejaVuSans-6c" x="2725.443359"/>
     <use xlink:href="#DejaVuSans-29" x="2753.226562"/>
    </g>
   </g>
  </g>
 </g>
 <defs>
  <clipPath id="pa8f24b67b2">
   <rect x="58.418125" y="35.2559" width="926.845" height="317.968"/>
  </clipPath>
 </defs>
</svg>
