<?xml version="1.0" encoding="utf-8" standalone="no"?>
<!DOCTYPE svg PUBLIC "-//W3C//DTD SVG 1.1//EN"
  "http://www.w3.org/Graphics/SVG/1.1/DTD/svg11.dtd">
<svg xmlns:xlink="http://www.w3.org/1999/xlink" width="1000.358125pt" height="388.844525pt" viewBox="0 0 1000.358125 388.844525" xmlns="http://www.w3.org/2000/svg" version="1.1">
 <metadata>
  <rdf:RDF xmlns:dc="http://purl.org/dc/elements/1.1/" xmlns:cc="http://creativecommons.org/ns#" xmlns:rdf="http://www.w3.org/1999/02/22-rdf-syntax-ns#">
   <cc:Work>
    <dc:type rdf:resource="http://purl.org/dc/dcmitype/StillImage"/>
    <dc:date>2025-03-11T15:51:16.581412</dc:date>
    <dc:format>image/svg+xml</dc:format>
    <dc:creator>
     <cc:Agent>
      <dc:title>Matplotlib v3.8.2, https://matplotlib.org/</dc:title>
     </cc:Agent>
    </dc:creator>
   </cc:Work>
  </rdf:RDF>
 </metadata>
 <defs>
  <style type="text/css">*{stroke-linejoin: round; stroke-linecap: butt}</style>
 </defs>
 <g id="figure_1">
  <g id="axes_1">
   <g id="patch_1">
    <path d="M 32.968125 353.2239 
L 993.158125 353.2239 
L 993.158125 35.2559 
L 32.968125 35.2559 
z
" style="fill: #ffffff"/>
   </g>
   <g id="patch_2">
    <path d="M 681.588632 353.2239 
L 2349.469934 353.2239 
L 2349.469934 35.2559 
L 681.588632 35.2559 
z
" clip-path="url(#p861a01befb)" style="fill: #c3e6c3"/>
   </g>
   <g id="patch_3">
    <path d="M 496.268487 353.2239 
L 681.588632 353.2239 
L 681.588632 35.2559 
L 496.268487 35.2559 
z
" clip-path="url(#p861a01befb)" style="fill: #e6dcc3"/>
   </g>
   <g id="patch_4">
    <path d="M 32.968125 353.2239 
L 496.268487 353.2239 
L 496.268487 35.2559 
L 32.968125 35.2559 
z
" clip-path="url(#p861a01befb)" style="fill: #e6c3c3"/>
   </g>
   <g id="matplotlib.axis_1">
    <g id="xtick_1">
     <g id="text_1">
      <!-- 0 -->
      <g transform="translate(30.423125 366.30265) scale(0.08 -0.08)">
       <defs>
        <path id="DejaVuSans-30" d="M 2034 4250 
Q 1547 4250 1301 3770 
Q 1056 3291 1056 2328 
Q 1056 1369 1301 889 
Q 1547 409 2034 409 
Q 2525 409 2770 889 
Q 3016 1369 3016 2328 
Q 3016 3291 2770 3770 
Q 2525 4250 2034 4250 
z
M 2034 4750 
Q 2819 4750 3233 4129 
Q 3647 3509 3647 2328 
Q 3647 1150 3233 529 
Q 2819 -91 2034 -91 
Q 1250 -91 836 529 
Q 422 1150 422 2328 
Q 422 3509 836 4129 
Q 1250 4750 2034 4750 
z
" transform="scale(0.015625)"/>
       </defs>
       <use xlink:href="#DejaVuSans-30"/>
      </g>
     </g>
    </g>
    <g id="xtick_2">
     <g id="text_2">
      <!-- 5 -->
      <g transform="translate(146.248215 366.30265) scale(0.08 -0.08)">
       <defs>
        <path id="DejaVuSans-35" d="M 691 4666 
L 3169 4666 
L 3169 4134 
L 1269 4134 
L 1269 2991 
Q 1406 3038 1543 3061 
Q 1681 3084 1819 3084 
Q 2600 3084 3056 2656 
Q 3513 2228 3513 1497 
Q 3513 744 3044 326 
Q 2575 -91 1722 -91 
Q 1428 -91 1123 -41 
Q 819 9 494 109 
L 494 744 
Q 775 591 1075 516 
Q 1375 441 1709 441 
Q 2250 441 2565 725 
Q 2881 1009 2881 1497 
Q 2881 1984 2565 2268 
Q 2250 2553 1709 2553 
Q 1456 2553 1204 2497 
Q 953 2441 691 2322 
L 691 4666 
z
" transform="scale(0.015625)"/>
       </defs>
       <use xlink:href="#DejaVuSans-35"/>
      </g>
     </g>
    </g>
    <g id="xtick_3">
     <g id="text_3">
      <!-- 10 -->
      <g transform="translate(259.528306 366.30265) scale(0.08 -0.08)">
       <defs>
        <path id="DejaVuSans-31" d="M 794 531 
L 1825 531 
L 1825 4091 
L 703 3866 
L 703 4441 
L 1819 4666 
L 2450 4666 
L 2450 531 
L 3481 531 
L 3481 0 
L 794 0 
L 794 531 
z
" transform="scale(0.015625)"/>
       </defs>
       <use xlink:href="#DejaVuSans-31"/>
       <use xlink:href="#DejaVuSans-30" x="63.623047"/>
      </g>
     </g>
    </g>
    <g id="xtick_4">
     <g id="text_4">
      <!-- 15 -->
      <g transform="translate(375.353396 366.30265) scale(0.08 -0.08)">
       <use xlink:href="#DejaVuSans-31"/>
       <use xlink:href="#DejaVuSans-35" x="63.623047"/>
      </g>
     </g>
    </g>
    <g id="xtick_5">
     <g id="text_5">
      <!-- 20 -->
      <g transform="translate(491.178487 366.30265) scale(0.08 -0.08)">
       <defs>
        <path id="DejaVuSans-32" d="M 1228 531 
L 3431 531 
L 3431 0 
L 469 0 
L 469 531 
Q 828 903 1448 1529 
Q 2069 2156 2228 2338 
Q 2531 2678 2651 2914 
Q 2772 3150 2772 3378 
Q 2772 3750 2511 3984 
Q 2250 4219 1831 4219 
Q 1534 4219 1204 4116 
Q 875 4013 500 3803 
L 500 4441 
Q 881 4594 1212 4672 
Q 1544 4750 1819 4750 
Q 2544 4750 2975 4387 
Q 3406 4025 3406 3419 
Q 3406 3131 3298 2873 
Q 3191 2616 2906 2266 
Q 2828 2175 2409 1742 
Q 1991 1309 1228 531 
z
" transform="scale(0.015625)"/>
       </defs>
       <use xlink:href="#DejaVuSans-32"/>
       <use xlink:href="#DejaVuSans-30" x="63.623047"/>
      </g>
     </g>
    </g>
    <g id="xtick_6">
     <g id="text_6">
      <!-- 25 -->
      <g transform="translate(607.003577 366.30265) scale(0.08 -0.08)">
       <use xlink:href="#DejaVuSans-32"/>
       <use xlink:href="#DejaVuSans-35" x="63.623047"/>
      </g>
     </g>
    </g>
    <g id="xtick_7">
     <g id="text_7">
      <!-- 30 -->
      <g transform="translate(722.828668 366.30265) scale(0.08 -0.08)">
       <defs>
        <path id="DejaVuSans-33" d="M 2597 2516 
Q 3050 2419 3304 2112 
Q 3559 1806 3559 1356 
Q 3559 666 3084 287 
Q 2609 -91 1734 -91 
Q 1441 -91 1130 -33 
Q 819 25 488 141 
L 488 750 
Q 750 597 1062 519 
Q 1375 441 1716 441 
Q 2309 441 2620 675 
Q 2931 909 2931 1356 
Q 2931 1769 2642 2001 
Q 2353 2234 1838 2234 
L 1294 2234 
L 1294 2753 
L 1863 2753 
Q 2328 2753 2575 2939 
Q 2822 3125 2822 3475 
Q 2822 3834 2567 4026 
Q 2313 4219 1838 4219 
Q 1578 4219 1281 4162 
Q 984 4106 628 3988 
L 628 4550 
Q 988 4650 1302 4700 
Q 1616 4750 1894 4750 
Q 2613 4750 3031 4423 
Q 3450 4097 3450 3541 
Q 3450 3153 3228 2886 
Q 3006 2619 2597 2516 
z
" transform="scale(0.015625)"/>
       </defs>
       <use xlink:href="#DejaVuSans-33"/>
       <use xlink:href="#DejaVuSans-30" x="63.623047"/>
      </g>
     </g>
    </g>
    <g id="xtick_8">
     <g id="text_8">
      <!-- 35 -->
      <g transform="translate(838.653758 366.30265) scale(0.08 -0.08)">
       <use xlink:href="#DejaVuSans-33"/>
       <use xlink:href="#DejaVuSans-35" x="63.623047"/>
      </g>
     </g>
    </g>
    <g id="xtick_9">
     <g id="text_9">
      <!-- 40 -->
      <g transform="translate(954.478849 366.30265) scale(0.08 -0.08)">
       <defs>
        <path id="DejaVuSans-34" d="M 2419 4116 
L 825 1625 
L 2419 1625 
L 2419 4116 
z
M 2253 4666 
L 3047 4666 
L 3047 1625 
L 3713 1625 
L 3713 1100 
L 3047 1100 
L 3047 0 
L 2419 0 
L 2419 1100 
L 313 1100 
L 313 1709 
L 2253 4666 
z
" transform="scale(0.015625)"/>
       </defs>
       <use xlink:href="#DejaVuSans-34"/>
       <use xlink:href="#DejaVuSans-30" x="63.623047"/>
      </g>
     </g>
    </g>
    <g id="text_10">
     <!-- Mean Sequence Quality (Phred Score) -->
     <g transform="translate(418.270938 379.564837) scale(0.1 -0.1)">
      <defs>
       <path id="DejaVuSans-4d" d="M 628 4666 
L 1569 4666 
L 2759 1491 
L 3956 4666 
L 4897 4666 
L 4897 0 
L 4281 0 
L 4281 4097 
L 3078 897 
L 2444 897 
L 1241 4097 
L 1241 0 
L 628 0 
L 628 4666 
z
" transform="scale(0.015625)"/>
       <path id="DejaVuSans-65" d="M 3597 1894 
L 3597 1613 
L 953 1613 
Q 991 1019 1311 708 
Q 1631 397 2203 397 
Q 2534 397 2845 478 
Q 3156 559 3463 722 
L 3463 178 
Q 3153 47 2828 -22 
Q 2503 -91 2169 -91 
Q 1331 -91 842 396 
Q 353 884 353 1716 
Q 353 2575 817 3079 
Q 1281 3584 2069 3584 
Q 2775 3584 3186 3129 
Q 3597 2675 3597 1894 
z
M 3022 2063 
Q 3016 2534 2758 2815 
Q 2500 3097 2075 3097 
Q 1594 3097 1305 2825 
Q 1016 2553 972 2059 
L 3022 2063 
z
" transform="scale(0.015625)"/>
       <path id="DejaVuSans-61" d="M 2194 1759 
Q 1497 1759 1228 1600 
Q 959 1441 959 1056 
Q 959 750 1161 570 
Q 1363 391 1709 391 
Q 2188 391 2477 730 
Q 2766 1069 2766 1631 
L 2766 1759 
L 2194 1759 
z
M 3341 1997 
L 3341 0 
L 2766 0 
L 2766 531 
Q 2569 213 2275 61 
Q 1981 -91 1556 -91 
Q 1019 -91 701 211 
Q 384 513 384 1019 
Q 384 1609 779 1909 
Q 1175 2209 1959 2209 
L 2766 2209 
L 2766 2266 
Q 2766 2663 2505 2880 
Q 2244 3097 1772 3097 
Q 1472 3097 1187 3025 
Q 903 2953 641 2809 
L 641 3341 
Q 956 3463 1253 3523 
Q 1550 3584 1831 3584 
Q 2591 3584 2966 3190 
Q 3341 2797 3341 1997 
z
" transform="scale(0.015625)"/>
       <path id="DejaVuSans-6e" d="M 3513 2113 
L 3513 0 
L 2938 0 
L 2938 2094 
Q 2938 2591 2744 2837 
Q 2550 3084 2163 3084 
Q 1697 3084 1428 2787 
Q 1159 2491 1159 1978 
L 1159 0 
L 581 0 
L 581 3500 
L 1159 3500 
L 1159 2956 
Q 1366 3272 1645 3428 
Q 1925 3584 2291 3584 
Q 2894 3584 3203 3211 
Q 3513 2838 3513 2113 
z
" transform="scale(0.015625)"/>
       <path id="DejaVuSans-20" transform="scale(0.015625)"/>
       <path id="DejaVuSans-53" d="M 3425 4513 
L 3425 3897 
Q 3066 4069 2747 4153 
Q 2428 4238 2131 4238 
Q 1616 4238 1336 4038 
Q 1056 3838 1056 3469 
Q 1056 3159 1242 3001 
Q 1428 2844 1947 2747 
L 2328 2669 
Q 3034 2534 3370 2195 
Q 3706 1856 3706 1288 
Q 3706 609 3251 259 
Q 2797 -91 1919 -91 
Q 1588 -91 1214 -16 
Q 841 59 441 206 
L 441 856 
Q 825 641 1194 531 
Q 1563 422 1919 422 
Q 2459 422 2753 634 
Q 3047 847 3047 1241 
Q 3047 1584 2836 1778 
Q 2625 1972 2144 2069 
L 1759 2144 
Q 1053 2284 737 2584 
Q 422 2884 422 3419 
Q 422 4038 858 4394 
Q 1294 4750 2059 4750 
Q 2388 4750 2728 4690 
Q 3069 4631 3425 4513 
z
" transform="scale(0.015625)"/>
       <path id="DejaVuSans-71" d="M 947 1747 
Q 947 1113 1208 752 
Q 1469 391 1925 391 
Q 2381 391 2643 752 
Q 2906 1113 2906 1747 
Q 2906 2381 2643 2742 
Q 2381 3103 1925 3103 
Q 1469 3103 1208 2742 
Q 947 2381 947 1747 
z
M 2906 525 
Q 2725 213 2448 61 
Q 2172 -91 1784 -91 
Q 1150 -91 751 415 
Q 353 922 353 1747 
Q 353 2572 751 3078 
Q 1150 3584 1784 3584 
Q 2172 3584 2448 3432 
Q 2725 3281 2906 2969 
L 2906 3500 
L 3481 3500 
L 3481 -1331 
L 2906 -1331 
L 2906 525 
z
" transform="scale(0.015625)"/>
       <path id="DejaVuSans-75" d="M 544 1381 
L 544 3500 
L 1119 3500 
L 1119 1403 
Q 1119 906 1312 657 
Q 1506 409 1894 409 
Q 2359 409 2629 706 
Q 2900 1003 2900 1516 
L 2900 3500 
L 3475 3500 
L 3475 0 
L 2900 0 
L 2900 538 
Q 2691 219 2414 64 
Q 2138 -91 1772 -91 
Q 1169 -91 856 284 
Q 544 659 544 1381 
z
M 1991 3584 
L 1991 3584 
z
" transform="scale(0.015625)"/>
       <path id="DejaVuSans-63" d="M 3122 3366 
L 3122 2828 
Q 2878 2963 2633 3030 
Q 2388 3097 2138 3097 
Q 1578 3097 1268 2742 
Q 959 2388 959 1747 
Q 959 1106 1268 751 
Q 1578 397 2138 397 
Q 2388 397 2633 464 
Q 2878 531 3122 666 
L 3122 134 
Q 2881 22 2623 -34 
Q 2366 -91 2075 -91 
Q 1284 -91 818 406 
Q 353 903 353 1747 
Q 353 2603 823 3093 
Q 1294 3584 2113 3584 
Q 2378 3584 2631 3529 
Q 2884 3475 3122 3366 
z
" transform="scale(0.015625)"/>
       <path id="DejaVuSans-51" d="M 2522 4238 
Q 1834 4238 1429 3725 
Q 1025 3213 1025 2328 
Q 1025 1447 1429 934 
Q 1834 422 2522 422 
Q 3209 422 3611 934 
Q 4013 1447 4013 2328 
Q 4013 3213 3611 3725 
Q 3209 4238 2522 4238 
z
M 3406 84 
L 4238 -825 
L 3475 -825 
L 2784 -78 
Q 2681 -84 2626 -87 
Q 2572 -91 2522 -91 
Q 1538 -91 948 567 
Q 359 1225 359 2328 
Q 359 3434 948 4092 
Q 1538 4750 2522 4750 
Q 3503 4750 4090 4092 
Q 4678 3434 4678 2328 
Q 4678 1516 4351 937 
Q 4025 359 3406 84 
z
" transform="scale(0.015625)"/>
       <path id="DejaVuSans-6c" d="M 603 4863 
L 1178 4863 
L 1178 0 
L 603 0 
L 603 4863 
z
" transform="scale(0.015625)"/>
       <path id="DejaVuSans-69" d="M 603 3500 
L 1178 3500 
L 1178 0 
L 603 0 
L 603 3500 
z
M 603 4863 
L 1178 4863 
L 1178 4134 
L 603 4134 
L 603 4863 
z
" transform="scale(0.015625)"/>
       <path id="DejaVuSans-74" d="M 1172 4494 
L 1172 3500 
L 2356 3500 
L 2356 3053 
L 1172 3053 
L 1172 1153 
Q 1172 725 1289 603 
Q 1406 481 1766 481 
L 2356 481 
L 2356 0 
L 1766 0 
Q 1100 0 847 248 
Q 594 497 594 1153 
L 594 3053 
L 172 3053 
L 172 3500 
L 594 3500 
L 594 4494 
L 1172 4494 
z
" transform="scale(0.015625)"/>
       <path id="DejaVuSans-79" d="M 2059 -325 
Q 1816 -950 1584 -1140 
Q 1353 -1331 966 -1331 
L 506 -1331 
L 506 -850 
L 844 -850 
Q 1081 -850 1212 -737 
Q 1344 -625 1503 -206 
L 1606 56 
L 191 3500 
L 800 3500 
L 1894 763 
L 2988 3500 
L 3597 3500 
L 2059 -325 
z
" transform="scale(0.015625)"/>
       <path id="DejaVuSans-28" d="M 1984 4856 
Q 1566 4138 1362 3434 
Q 1159 2731 1159 2009 
Q 1159 1288 1364 580 
Q 1569 -128 1984 -844 
L 1484 -844 
Q 1016 -109 783 600 
Q 550 1309 550 2009 
Q 550 2706 781 3412 
Q 1013 4119 1484 4856 
L 1984 4856 
z
" transform="scale(0.015625)"/>
       <path id="DejaVuSans-50" d="M 1259 4147 
L 1259 2394 
L 2053 2394 
Q 2494 2394 2734 2622 
Q 2975 2850 2975 3272 
Q 2975 3691 2734 3919 
Q 2494 4147 2053 4147 
L 1259 4147 
z
M 628 4666 
L 2053 4666 
Q 2838 4666 3239 4311 
Q 3641 3956 3641 3272 
Q 3641 2581 3239 2228 
Q 2838 1875 2053 1875 
L 1259 1875 
L 1259 0 
L 628 0 
L 628 4666 
z
" transform="scale(0.015625)"/>
       <path id="DejaVuSans-68" d="M 3513 2113 
L 3513 0 
L 2938 0 
L 2938 2094 
Q 2938 2591 2744 2837 
Q 2550 3084 2163 3084 
Q 1697 3084 1428 2787 
Q 1159 2491 1159 1978 
L 1159 0 
L 581 0 
L 581 4863 
L 1159 4863 
L 1159 2956 
Q 1366 3272 1645 3428 
Q 1925 3584 2291 3584 
Q 2894 3584 3203 3211 
Q 3513 2838 3513 2113 
z
" transform="scale(0.015625)"/>
       <path id="DejaVuSans-72" d="M 2631 2963 
Q 2534 3019 2420 3045 
Q 2306 3072 2169 3072 
Q 1681 3072 1420 2755 
Q 1159 2438 1159 1844 
L 1159 0 
L 581 0 
L 581 3500 
L 1159 3500 
L 1159 2956 
Q 1341 3275 1631 3429 
Q 1922 3584 2338 3584 
Q 2397 3584 2469 3576 
Q 2541 3569 2628 3553 
L 2631 2963 
z
" transform="scale(0.015625)"/>
       <path id="DejaVuSans-64" d="M 2906 2969 
L 2906 4863 
L 3481 4863 
L 3481 0 
L 2906 0 
L 2906 525 
Q 2725 213 2448 61 
Q 2172 -91 1784 -91 
Q 1150 -91 751 415 
Q 353 922 353 1747 
Q 353 2572 751 3078 
Q 1150 3584 1784 3584 
Q 2172 3584 2448 3432 
Q 2725 3281 2906 2969 
z
M 947 1747 
Q 947 1113 1208 752 
Q 1469 391 1925 391 
Q 2381 391 2643 752 
Q 2906 1113 2906 1747 
Q 2906 2381 2643 2742 
Q 2381 3103 1925 3103 
Q 1469 3103 1208 2742 
Q 947 2381 947 1747 
z
" transform="scale(0.015625)"/>
       <path id="DejaVuSans-6f" d="M 1959 3097 
Q 1497 3097 1228 2736 
Q 959 2375 959 1747 
Q 959 1119 1226 758 
Q 1494 397 1959 397 
Q 2419 397 2687 759 
Q 2956 1122 2956 1747 
Q 2956 2369 2687 2733 
Q 2419 3097 1959 3097 
z
M 1959 3584 
Q 2709 3584 3137 3096 
Q 3566 2609 3566 1747 
Q 3566 888 3137 398 
Q 2709 -91 1959 -91 
Q 1206 -91 779 398 
Q 353 888 353 1747 
Q 353 2609 779 3096 
Q 1206 3584 1959 3584 
z
" transform="scale(0.015625)"/>
       <path id="DejaVuSans-29" d="M 513 4856 
L 1013 4856 
Q 1481 4119 1714 3412 
Q 1947 2706 1947 2009 
Q 1947 1309 1714 600 
Q 1481 -109 1013 -844 
L 513 -844 
Q 928 -128 1133 580 
Q 1338 1288 1338 2009 
Q 1338 2731 1133 3434 
Q 928 4138 513 4856 
z
" transform="scale(0.015625)"/>
      </defs>
      <use xlink:href="#DejaVuSans-4d"/>
      <use xlink:href="#DejaVuSans-65" x="86.279297"/>
      <use xlink:href="#DejaVuSans-61" x="147.802734"/>
      <use xlink:href="#DejaVuSans-6e" x="209.082031"/>
      <use xlink:href="#DejaVuSans-20" x="272.460938"/>
      <use xlink:href="#DejaVuSans-53" x="304.248047"/>
      <use xlink:href="#DejaVuSans-65" x="367.724609"/>
      <use xlink:href="#DejaVuSans-71" x="429.248047"/>
      <use xlink:href="#DejaVuSans-75" x="492.724609"/>
      <use xlink:href="#DejaVuSans-65" x="556.103516"/>
      <use xlink:href="#DejaVuSans-6e" x="617.626953"/>
      <use xlink:href="#DejaVuSans-63" x="681.005859"/>
      <use xlink:href="#DejaVuSans-65" x="735.986328"/>
      <use xlink:href="#DejaVuSans-20" x="797.509766"/>
      <use xlink:href="#DejaVuSans-51" x="829.296875"/>
      <use xlink:href="#DejaVuSans-75" x="908.007812"/>
      <use xlink:href="#DejaVuSans-61" x="971.386719"/>
      <use xlink:href="#DejaVuSans-6c" x="1032.666016"/>
      <use xlink:href="#DejaVuSans-69" x="1060.449219"/>
      <use xlink:href="#DejaVuSans-74" x="1088.232422"/>
      <use xlink:href="#DejaVuSans-79" x="1127.441406"/>
      <use xlink:href="#DejaVuSans-20" x="1186.621094"/>
      <use xlink:href="#DejaVuSans-28" x="1218.408203"/>
      <use xlink:href="#DejaVuSans-50" x="1257.421875"/>
      <use xlink:href="#DejaVuSans-68" x="1317.724609"/>
      <use xlink:href="#DejaVuSans-72" x="1381.103516"/>
      <use xlink:href="#DejaVuSans-65" x="1419.966797"/>
      <use xlink:href="#DejaVuSans-64" x="1481.490234"/>
      <use xlink:href="#DejaVuSans-20" x="1544.966797"/>
      <use xlink:href="#DejaVuSans-53" x="1576.753906"/>
      <use xlink:href="#DejaVuSans-63" x="1640.230469"/>
      <use xlink:href="#DejaVuSans-6f" x="1695.210938"/>
      <use xlink:href="#DejaVuSans-72" x="1756.392578"/>
      <use xlink:href="#DejaVuSans-65" x="1795.255859"/>
      <use xlink:href="#DejaVuSans-29" x="1856.779297"/>
     </g>
    </g>
   </g>
   <g id="matplotlib.axis_2">
    <g id="ytick_1">
     <g id="line2d_1">
      <path d="M 32.968125 353.2239 
L 993.158125 353.2239 
" clip-path="url(#p861a01befb)" style="fill: none; stroke: #dedede; stroke-linecap: square"/>
     </g>
     <g id="text_11">
      <!-- 0 -->
      <g transform="translate(20.878125 356.263275) scale(0.08 -0.08)">
       <use xlink:href="#DejaVuSans-30"/>
      </g>
     </g>
    </g>
    <g id="ytick_2">
     <g id="line2d_2">
      <path d="M 32.968125 296.463353 
L 993.158125 296.463353 
" clip-path="url(#p861a01befb)" style="fill: none; stroke: #dedede; stroke-linecap: square"/>
     </g>
     <g id="text_12">
      <!-- 1 -->
      <g transform="translate(20.878125 299.502728) scale(0.08 -0.08)">
       <use xlink:href="#DejaVuSans-31"/>
      </g>
     </g>
    </g>
    <g id="ytick_3">
     <g id="line2d_3">
      <path d="M 32.968125 239.702806 
L 993.158125 239.702806 
" clip-path="url(#p861a01befb)" style="fill: none; stroke: #dedede; stroke-linecap: square"/>
     </g>
     <g id="text_13">
      <!-- 2 -->
      <g transform="translate(20.878125 242.742181) scale(0.08 -0.08)">
       <use xlink:href="#DejaVuSans-32"/>
      </g>
     </g>
    </g>
    <g id="ytick_4">
     <g id="line2d_4">
      <path d="M 32.968125 182.94226 
L 993.158125 182.94226 
" clip-path="url(#p861a01befb)" style="fill: none; stroke: #dedede; stroke-linecap: square"/>
     </g>
     <g id="text_14">
      <!-- 3 -->
      <g transform="translate(20.878125 185.981635) scale(0.08 -0.08)">
       <use xlink:href="#DejaVuSans-33"/>
      </g>
     </g>
    </g>
    <g id="ytick_5">
     <g id="line2d_5">
      <path d="M 32.968125 126.181713 
L 993.158125 126.181713 
" clip-path="url(#p861a01befb)" style="fill: none; stroke: #dedede; stroke-linecap: square"/>
     </g>
     <g id="text_15">
      <!-- 4 -->
      <g transform="translate(20.878125 129.221088) scale(0.08 -0.08)">
       <use xlink:href="#DejaVuSans-34"/>
      </g>
     </g>
    </g>
    <g id="ytick_6">
     <g id="line2d_6">
      <path d="M 32.968125 69.421166 
L 993.158125 69.421166 
" clip-path="url(#p861a01befb)" style="fill: none; stroke: #dedede; stroke-linecap: square"/>
     </g>
     <g id="text_16">
      <!-- 5 -->
      <g transform="translate(20.878125 72.460541) scale(0.08 -0.08)">
       <use xlink:href="#DejaVuSans-35"/>
      </g>
     </g>
    </g>
    <g id="text_17">
     <!-- Count -->
     <g transform="translate(14.798437 209.088338) rotate(-90) scale(0.1 -0.1)">
      <defs>
       <path id="DejaVuSans-43" d="M 4122 4306 
L 4122 3641 
Q 3803 3938 3442 4084 
Q 3081 4231 2675 4231 
Q 1875 4231 1450 3742 
Q 1025 3253 1025 2328 
Q 1025 1406 1450 917 
Q 1875 428 2675 428 
Q 3081 428 3442 575 
Q 3803 722 4122 1019 
L 4122 359 
Q 3791 134 3420 21 
Q 3050 -91 2638 -91 
Q 1578 -91 968 557 
Q 359 1206 359 2328 
Q 359 3453 968 4101 
Q 1578 4750 2638 4750 
Q 3056 4750 3426 4639 
Q 3797 4528 4122 4306 
z
" transform="scale(0.015625)"/>
      </defs>
      <use xlink:href="#DejaVuSans-43"/>
      <use xlink:href="#DejaVuSans-6f" x="69.824219"/>
      <use xlink:href="#DejaVuSans-75" x="131.005859"/>
      <use xlink:href="#DejaVuSans-6e" x="194.384766"/>
      <use xlink:href="#DejaVuSans-74" x="257.763672"/>
     </g>
    </g>
    <g id="text_18">
     <!-- 1e7 -->
     <g transform="translate(32.968125 32.2559) scale(0.1 -0.1)">
      <defs>
       <path id="DejaVuSans-37" d="M 525 4666 
L 3525 4666 
L 3525 4397 
L 1831 0 
L 1172 0 
L 2766 4134 
L 525 4134 
L 525 4666 
z
" transform="scale(0.015625)"/>
      </defs>
      <use xlink:href="#DejaVuSans-31"/>
      <use xlink:href="#DejaVuSans-65" x="63.623047"/>
      <use xlink:href="#DejaVuSans-37" x="125.146484"/>
     </g>
    </g>
   </g>
   <g id="line2d_7">
    <path d="M 310.948342 353.223826 
L 334.11336 353.22155 
L 357.278378 353.197035 
L 380.443396 353.101899 
L 403.608415 352.962444 
L 426.773433 352.895393 
L 449.938451 352.906972 
L 473.103469 352.87757 
L 496.268487 352.80692 
L 519.433505 352.678471 
L 542.598523 352.537432 
L 565.763541 352.298487 
L 588.928559 352.099474 
L 612.093577 351.827136 
L 635.258595 351.592869 
L 658.423614 351.362824 
L 681.588632 351.121143 
L 704.75365 350.858279 
L 727.918668 350.520384 
L 751.083686 350.176364 
L 774.248704 349.498881 
L 797.413722 348.885748 
L 820.57874 347.32124 
L 843.743758 345.318694 
L 866.908776 341.417735 
L 890.073794 333.926761 
L 913.238813 318.620809 
L 936.403831 132.45427 
L 959.568849 89.7654 
" clip-path="url(#p861a01befb)" style="fill: none; stroke: #5cb85c; stroke-linecap: square"/>
   </g>
   <g id="line2d_8">
    <path d="M 310.948342 353.223838 
L 334.11336 353.221726 
L 357.278378 353.199181 
L 380.443396 353.110016 
L 403.608415 352.98164 
L 426.773433 352.926986 
L 449.938451 352.936675 
L 473.103469 352.911859 
L 496.268487 352.841561 
L 519.433505 352.71675 
L 542.598523 352.58082 
L 565.763541 352.348545 
L 588.928559 352.150138 
L 612.093577 351.890175 
L 635.258595 351.657088 
L 658.423614 351.427769 
L 681.588632 351.184335 
L 704.75365 350.922527 
L 727.918668 350.572683 
L 751.083686 350.241468 
L 774.248704 349.561267 
L 797.413722 348.933155 
L 820.57874 347.3764 
L 843.743758 345.333457 
L 866.908776 341.443986 
L 890.073794 333.937977 
L 913.238813 318.653299 
L 936.403831 136.936014 
L 959.568849 88.55001 
" clip-path="url(#p861a01befb)" style="fill: none; stroke: #5cb85c; stroke-linecap: square"/>
   </g>
   <g id="line2d_9">
    <path d="M 310.948342 353.223821 
L 334.11336 353.221902 
L 357.278378 353.199834 
L 380.443396 353.110697 
L 403.608415 352.983161 
L 426.773433 352.923325 
L 449.938451 352.935426 
L 473.103469 352.919834 
L 496.268487 352.862653 
L 519.433505 352.751539 
L 542.598523 352.628209 
L 565.763541 352.422362 
L 588.928559 352.249747 
L 612.093577 352.019208 
L 635.258595 351.806368 
L 658.423614 351.608847 
L 681.588632 351.374556 
L 704.75365 351.142105 
L 727.918668 350.824058 
L 751.083686 350.518726 
L 774.248704 349.913211 
L 797.413722 349.343187 
L 820.57874 347.939697 
L 843.743758 346.153102 
L 866.908776 342.668357 
L 890.073794 335.897885 
L 913.238813 322.147183 
L 936.403831 154.940954 
L 959.568849 110.621342 
" clip-path="url(#p861a01befb)" style="fill: none; stroke: #5cb85c; stroke-linecap: square"/>
   </g>
   <g id="line2d_10">
    <path d="M 310.948342 353.223832 
L 334.11336 353.22176 
L 357.278378 353.195548 
L 380.443396 353.092573 
L 403.608415 352.948521 
L 426.773433 352.891482 
L 449.938451 352.911666 
L 473.103469 352.891113 
L 496.268487 352.823233 
L 519.433505 352.704121 
L 542.598523 352.569337 
L 565.763541 352.34003 
L 588.928559 352.128944 
L 612.093577 351.862493 
L 635.258595 351.593834 
L 658.423614 351.359526 
L 681.588632 351.080531 
L 704.75365 350.818961 
L 727.918668 350.41914 
L 751.083686 350.063768 
L 774.248704 349.322424 
L 797.413722 348.609063 
L 820.57874 346.839746 
L 843.743758 344.473127 
L 866.908776 340.074093 
L 890.073794 331.702656 
L 913.238813 314.48599 
L 936.403831 117.461062 
L 959.568849 83.745388 
" clip-path="url(#p861a01befb)" style="fill: none; stroke: #5cb85c; stroke-linecap: square"/>
   </g>
   <g id="line2d_11">
    <path d="M 310.948342 353.223838 
L 334.11336 353.222231 
L 357.278378 353.204335 
L 380.443396 353.129042 
L 403.608415 353.016304 
L 426.773433 352.959209 
L 449.938451 352.967944 
L 473.103469 352.948833 
L 496.268487 352.888655 
L 519.433505 352.782592 
L 542.598523 352.661352 
L 565.763541 352.456673 
L 588.928559 352.285591 
L 612.093577 352.055677 
L 635.258595 351.852997 
L 658.423614 351.638663 
L 681.588632 351.421208 
L 704.75365 351.194262 
L 727.918668 350.888084 
L 751.083686 350.593486 
L 774.248704 349.996444 
L 797.413722 349.462254 
L 820.57874 348.070218 
L 843.743758 346.313088 
L 866.908776 342.873291 
L 890.073794 336.303689 
L 913.238813 323.016737 
L 936.403831 150.051969 
L 959.568849 103.959198 
" clip-path="url(#p861a01befb)" style="fill: none; stroke: #5cb85c; stroke-linecap: square"/>
   </g>
   <g id="line2d_12">
    <path d="M 287.783324 353.223894 
L 310.948342 353.223843 
L 334.11336 353.221669 
L 357.278378 353.196854 
L 380.443396 353.092812 
L 403.608415 352.941289 
L 426.773433 352.872427 
L 449.938451 352.895642 
L 473.103469 352.881657 
L 496.268487 352.812085 
L 519.433505 352.686962 
L 542.598523 352.539453 
L 565.763541 352.294497 
L 588.928559 352.084239 
L 612.093577 351.801339 
L 635.258595 351.544906 
L 658.423614 351.296164 
L 681.588632 351.033755 
L 704.75365 350.753704 
L 727.918668 350.364746 
L 751.083686 349.994781 
L 774.248704 349.281625 
L 797.413722 348.601344 
L 820.57874 346.905577 
L 843.743758 344.725104 
L 866.908776 340.508266 
L 890.073794 332.421994 
L 913.238813 316.029003 
L 936.403831 111.69901 
L 959.568849 50.397233 
" clip-path="url(#p861a01befb)" style="fill: none; stroke: #5cb85c; stroke-linecap: square"/>
   </g>
   <g id="line2d_13">
    <path d="M 310.948342 353.223821 
L 334.11336 353.222595 
L 357.278378 353.208847 
L 380.443396 353.148 
L 403.608415 353.059851 
L 426.773433 353.011553 
L 449.938451 353.013154 
L 473.103469 352.988156 
L 496.268487 352.934472 
L 519.433505 352.84176 
L 542.598523 352.735385 
L 565.763541 352.561805 
L 588.928559 352.409749 
L 612.093577 352.209487 
L 635.258595 352.023063 
L 658.423614 351.853871 
L 681.588632 351.653812 
L 704.75365 351.458153 
L 727.918668 351.18186 
L 751.083686 350.917299 
L 774.248704 350.397282 
L 797.413722 349.92076 
L 820.57874 348.710216 
L 843.743758 347.143165 
L 866.908776 344.121177 
L 890.073794 338.259129 
L 913.238813 326.485732 
L 936.403831 181.026943 
L 959.568849 132.894641 
" clip-path="url(#p861a01befb)" style="fill: none; stroke: #5cb85c; stroke-linecap: square"/>
   </g>
   <g id="line2d_14">
    <path d="M 310.948342 353.223781 
L 334.11336 353.220676 
L 357.278378 353.188754 
L 380.443396 353.063183 
L 403.608415 352.894927 
L 426.773433 352.822995 
L 449.938451 352.860814 
L 473.103469 352.851222 
L 496.268487 352.788229 
L 519.433505 352.660092 
L 542.598523 352.52675 
L 565.763541 352.286392 
L 588.928559 352.083507 
L 612.093577 351.821199 
L 635.258595 351.589191 
L 658.423614 351.361933 
L 681.588632 351.114519 
L 704.75365 350.862519 
L 727.918668 350.502567 
L 751.083686 350.169587 
L 774.248704 349.50231 
L 797.413722 348.88803 
L 820.57874 347.315127 
L 843.743758 345.286539 
L 866.908776 341.416628 
L 890.073794 333.956941 
L 913.238813 318.781788 
L 936.403831 136.173107 
L 959.568849 94.571793 
" clip-path="url(#p861a01befb)" style="fill: none; stroke: #5cb85c; stroke-linecap: square"/>
   </g>
   <g id="line2d_15">
    <path d="M 310.948342 353.223798 
L 334.11336 353.221584 
L 357.278378 353.199538 
L 380.443396 353.111122 
L 403.608415 352.979824 
L 426.773433 352.915134 
L 449.938451 352.92425 
L 473.103469 352.900473 
L 496.268487 352.836078 
L 519.433505 352.708753 
L 542.598523 352.577942 
L 565.763541 352.346881 
L 588.928559 352.154072 
L 612.093577 351.909615 
L 635.258595 351.671987 
L 658.423614 351.458443 
L 681.588632 351.224078 
L 704.75365 350.979367 
L 727.918668 350.649287 
L 751.083686 350.317102 
L 774.248704 349.677615 
L 797.413722 349.079143 
L 820.57874 347.561684 
L 843.743758 345.622584 
L 866.908776 341.869293 
L 890.073794 334.545531 
L 913.238813 319.348473 
L 936.403831 135.479204 
L 959.568849 89.935455 
" clip-path="url(#p861a01befb)" style="fill: none; stroke: #5cb85c; stroke-linecap: square"/>
   </g>
   <g id="line2d_16">
    <path d="M 310.948342 353.223849 
L 334.11336 353.221573 
L 357.278378 353.196978 
L 380.443396 353.094003 
L 403.608415 352.943957 
L 426.773433 352.879125 
L 449.938451 352.901704 
L 473.103469 352.882196 
L 496.268487 352.807976 
L 519.433505 352.675656 
L 542.598523 352.534765 
L 565.763541 352.281715 
L 588.928559 352.069141 
L 612.093577 351.790157 
L 635.258595 351.534275 
L 658.423614 351.290307 
L 681.588632 351.018622 
L 704.75365 350.740518 
L 727.918668 350.347054 
L 751.083686 349.992795 
L 774.248704 349.239173 
L 797.413722 348.56798 
L 820.57874 346.832367 
L 843.743758 344.629139 
L 866.908776 340.337911 
L 890.073794 332.059408 
L 913.238813 315.452668 
L 936.403831 113.596174 
L 959.568849 61.183417 
" clip-path="url(#p861a01befb)" style="fill: none; stroke: #5cb85c; stroke-linecap: square"/>
   </g>
   <g id="line2d_17">
    <path d="M 310.948342 353.223798 
L 334.11336 353.221323 
L 357.278378 353.194657 
L 380.443396 353.091756 
L 403.608415 352.944865 
L 426.773433 352.879846 
L 449.938451 352.902039 
L 473.103469 352.885408 
L 496.268487 352.824578 
L 519.433505 352.707578 
L 542.598523 352.581898 
L 565.763541 352.358012 
L 588.928559 352.177332 
L 612.093577 351.93665 
L 635.258595 351.726074 
L 658.423614 351.517848 
L 681.588632 351.304309 
L 704.75365 351.073073 
L 727.918668 350.748181 
L 751.083686 350.449456 
L 774.248704 349.854849 
L 797.413722 349.299504 
L 820.57874 347.889493 
L 843.743758 346.09666 
L 866.908776 342.607884 
L 890.073794 335.899565 
L 913.238813 322.147336 
L 936.403831 155.624413 
L 959.568849 107.581242 
" clip-path="url(#p861a01befb)" style="fill: none; stroke: #5cb85c; stroke-linecap: square"/>
   </g>
   <g id="line2d_18">
    <path d="M 310.948342 353.223832 
L 334.11336 353.221544 
L 357.278378 353.196337 
L 380.443396 353.095371 
L 403.608415 352.950286 
L 426.773433 352.88983 
L 449.938451 352.913397 
L 473.103469 352.899355 
L 496.268487 352.840267 
L 519.433505 352.726099 
L 542.598523 352.600686 
L 565.763541 352.389463 
L 588.928559 352.208499 
L 612.093577 351.980083 
L 635.258595 351.776801 
L 658.423614 351.574796 
L 681.588632 351.362387 
L 704.75365 351.144199 
L 727.918668 350.839066 
L 751.083686 350.548219 
L 774.248704 349.973791 
L 797.413722 349.436978 
L 820.57874 348.099439 
L 843.743758 346.362589 
L 866.908776 343.039071 
L 890.073794 336.672065 
L 913.238813 323.171529 
L 936.403831 161.21926 
L 959.568849 122.950738 
" clip-path="url(#p861a01befb)" style="fill: none; stroke: #5cb85c; stroke-linecap: square"/>
   </g>
   <g id="line2d_19">
    <path d="M 287.783324 353.223894 
L 310.948342 353.223809 
L 334.11336 353.221096 
L 357.278378 353.192659 
L 380.443396 353.080438 
L 403.608415 352.920265 
L 426.773433 352.848213 
L 449.938451 352.868114 
L 473.103469 352.850302 
L 496.268487 352.782604 
L 519.433505 352.655154 
L 542.598523 352.514325 
L 565.763541 352.27651 
L 588.928559 352.071967 
L 612.093577 351.813247 
L 635.258595 351.567026 
L 658.423614 351.336873 
L 681.588632 351.088534 
L 704.75365 350.824087 
L 727.918668 350.454082 
L 751.083686 350.114711 
L 774.248704 349.442064 
L 797.413722 348.803752 
L 820.57874 347.245192 
L 843.743758 345.208221 
L 866.908776 341.298844 
L 890.073794 333.826818 
L 913.238813 318.617522 
L 936.403831 137.811069 
L 959.568849 82.987811 
" clip-path="url(#p861a01befb)" style="fill: none; stroke: #5cb85c; stroke-linecap: square"/>
   </g>
   <g id="line2d_20">
    <path d="M 287.783324 353.223894 
L 310.948342 353.223798 
L 334.11336 353.221471 
L 357.278378 353.198233 
L 380.443396 353.108687 
L 403.608415 352.975045 
L 426.773433 352.916513 
L 449.938451 352.923688 
L 473.103469 352.897839 
L 496.268487 352.831668 
L 519.433505 352.71427 
L 542.598523 352.5817 
L 565.763541 352.352393 
L 588.928559 352.157551 
L 612.093577 351.903775 
L 635.258595 351.674916 
L 658.423614 351.451512 
L 681.588632 351.223216 
L 704.75365 350.971988 
L 727.918668 350.627809 
L 751.083686 350.305148 
L 774.248704 349.656619 
L 797.413722 349.044229 
L 820.57874 347.528183 
L 843.743758 345.554154 
L 866.908776 341.759007 
L 890.073794 334.460129 
L 913.238813 319.176222 
L 936.403831 140.743376 
L 959.568849 102.888314 
" clip-path="url(#p861a01befb)" style="fill: none; stroke: #5cb85c; stroke-linecap: square"/>
   </g>
   <g id="line2d_21">
    <path d="M 287.783324 353.223894 
L 310.948342 353.223809 
L 334.11336 353.221771 
L 357.278378 353.197796 
L 380.443396 353.101053 
L 403.608415 352.959912 
L 426.773433 352.894961 
L 449.938451 352.903362 
L 473.103469 352.878211 
L 496.268487 352.807652 
L 519.433505 352.678198 
L 542.598523 352.532227 
L 565.763541 352.28407 
L 588.928559 352.060269 
L 612.093577 351.780099 
L 635.258595 351.506945 
L 658.423614 351.25856 
L 681.588632 350.968957 
L 704.75365 350.688276 
L 727.918668 350.298467 
L 751.083686 349.928871 
L 774.248704 349.173104 
L 797.413722 348.482408 
L 820.57874 346.7172 
L 843.743758 344.405502 
L 866.908776 340.040321 
L 890.073794 331.71839 
L 913.238813 314.866774 
L 936.403831 113.734522 
L 959.568849 74.682528 
" clip-path="url(#p861a01befb)" style="fill: none; stroke: #5cb85c; stroke-linecap: square"/>
   </g>
   <g id="line2d_22">
    <path d="M 310.948342 353.223849 
L 334.11336 353.222316 
L 357.278378 353.204005 
L 380.443396 353.133151 
L 403.608415 353.028133 
L 426.773433 352.977928 
L 449.938451 352.983354 
L 473.103469 352.95792 
L 496.268487 352.901284 
L 519.433505 352.798803 
L 542.598523 352.686809 
L 565.763541 352.489901 
L 588.928559 352.325023 
L 612.093577 352.105184 
L 635.258595 351.908486 
L 658.423614 351.724826 
L 681.588632 351.525165 
L 704.75365 351.31531 
L 727.918668 351.032858 
L 751.083686 350.75833 
L 774.248704 350.227982 
L 797.413722 349.740227 
L 820.57874 348.479411 
L 843.743758 346.877219 
L 866.908776 343.753085 
L 890.073794 337.795027 
L 913.238813 325.703265 
L 936.403831 177.363271 
L 959.568849 127.570042 
" clip-path="url(#p861a01befb)" style="fill: none; stroke: #5cb85c; stroke-linecap: square"/>
   </g>
   <g id="line2d_23">
    <path d="M 310.948342 353.223769 
L 334.11336 353.220659 
L 357.278378 353.185649 
L 380.443396 353.057807 
L 403.608415 352.877655 
L 426.773433 352.78891 
L 449.938451 352.813964 
L 473.103469 352.796039 
L 496.268487 352.72615 
L 519.433505 352.583039 
L 542.598523 352.423616 
L 565.763541 352.157761 
L 588.928559 351.940544 
L 612.093577 351.659846 
L 635.258595 351.403283 
L 658.423614 351.162595 
L 681.588632 350.892273 
L 704.75365 350.612824 
L 727.918668 350.247371 
L 751.083686 349.90267 
L 774.248704 349.197 
L 797.413722 348.536075 
L 820.57874 346.883242 
L 843.743758 344.787154 
L 866.908776 340.674745 
L 890.073794 332.868143 
L 913.238813 316.88867 
L 936.403831 115.174299 
L 959.568849 63.303809 
" clip-path="url(#p861a01befb)" style="fill: none; stroke: #5cb85c; stroke-linecap: square"/>
   </g>
   <g id="line2d_24">
    <path d="M 287.783324 353.223894 
L 310.948342 353.223832 
L 334.11336 353.222475 
L 357.278378 353.207088 
L 380.443396 353.145048 
L 403.608415 353.054487 
L 426.773433 353.005395 
L 449.938451 353.010134 
L 473.103469 352.985341 
L 496.268487 352.941267 
L 519.433505 352.855087 
L 542.598523 352.754751 
L 565.763541 352.585469 
L 588.928559 352.438941 
L 612.093577 352.246007 
L 635.258595 352.071877 
L 658.423614 351.902702 
L 681.588632 351.714001 
L 704.75365 351.521827 
L 727.918668 351.259117 
L 751.083686 351.009416 
L 774.248704 350.490255 
L 797.413722 350.032618 
L 820.57874 348.823993 
L 843.743758 347.2746 
L 866.908776 344.315315 
L 890.073794 338.64698 
L 913.238813 327.457319 
L 936.403831 189.062329 
L 959.568849 140.203117 
" clip-path="url(#p861a01befb)" style="fill: none; stroke: #5cb85c; stroke-linecap: square"/>
   </g>
   <g id="line2d_25">
    <path d="M 32.968125 353.2239 
L 993.158125 353.2239 
" clip-path="url(#p861a01befb)" style="fill: none; stroke: #dedede; stroke-width: 2; stroke-linecap: square"/>
   </g>
   <g id="text_19">
    <!-- FastQC: Per Sequence Quality Scores -->
    <g transform="translate(364.870625 19.3575) scale(0.16 -0.16)">
     <defs>
      <path id="DejaVuSans-46" d="M 628 4666 
L 3309 4666 
L 3309 4134 
L 1259 4134 
L 1259 2759 
L 3109 2759 
L 3109 2228 
L 1259 2228 
L 1259 0 
L 628 0 
L 628 4666 
z
" transform="scale(0.015625)"/>
      <path id="DejaVuSans-73" d="M 2834 3397 
L 2834 2853 
Q 2591 2978 2328 3040 
Q 2066 3103 1784 3103 
Q 1356 3103 1142 2972 
Q 928 2841 928 2578 
Q 928 2378 1081 2264 
Q 1234 2150 1697 2047 
L 1894 2003 
Q 2506 1872 2764 1633 
Q 3022 1394 3022 966 
Q 3022 478 2636 193 
Q 2250 -91 1575 -91 
Q 1294 -91 989 -36 
Q 684 19 347 128 
L 347 722 
Q 666 556 975 473 
Q 1284 391 1588 391 
Q 1994 391 2212 530 
Q 2431 669 2431 922 
Q 2431 1156 2273 1281 
Q 2116 1406 1581 1522 
L 1381 1569 
Q 847 1681 609 1914 
Q 372 2147 372 2553 
Q 372 3047 722 3315 
Q 1072 3584 1716 3584 
Q 2034 3584 2315 3537 
Q 2597 3491 2834 3397 
z
" transform="scale(0.015625)"/>
      <path id="DejaVuSans-3a" d="M 750 794 
L 1409 794 
L 1409 0 
L 750 0 
L 750 794 
z
M 750 3309 
L 1409 3309 
L 1409 2516 
L 750 2516 
L 750 3309 
z
" transform="scale(0.015625)"/>
     </defs>
     <use xlink:href="#DejaVuSans-46"/>
     <use xlink:href="#DejaVuSans-61" x="48.394531"/>
     <use xlink:href="#DejaVuSans-73" x="109.673828"/>
     <use xlink:href="#DejaVuSans-74" x="161.773438"/>
     <use xlink:href="#DejaVuSans-51" x="200.982422"/>
     <use xlink:href="#DejaVuSans-43" x="279.693359"/>
     <use xlink:href="#DejaVuSans-3a" x="349.517578"/>
     <use xlink:href="#DejaVuSans-20" x="383.208984"/>
     <use xlink:href="#DejaVuSans-50" x="414.996094"/>
     <use xlink:href="#DejaVuSans-65" x="471.673828"/>
     <use xlink:href="#DejaVuSans-72" x="533.197266"/>
     <use xlink:href="#DejaVuSans-20" x="574.310547"/>
     <use xlink:href="#DejaVuSans-53" x="606.097656"/>
     <use xlink:href="#DejaVuSans-65" x="669.574219"/>
     <use xlink:href="#DejaVuSans-71" x="731.097656"/>
     <use xlink:href="#DejaVuSans-75" x="794.574219"/>
     <use xlink:href="#DejaVuSans-65" x="857.953125"/>
     <use xlink:href="#DejaVuSans-6e" x="919.476562"/>
     <use xlink:href="#DejaVuSans-63" x="982.855469"/>
     <use xlink:href="#DejaVuSans-65" x="1037.835938"/>
     <use xlink:href="#DejaVuSans-20" x="1099.359375"/>
     <use xlink:href="#DejaVuSans-51" x="1131.146484"/>
     <use xlink:href="#DejaVuSans-75" x="1209.857422"/>
     <use xlink:href="#DejaVuSans-61" x="1273.236328"/>
     <use xlink:href="#DejaVuSans-6c" x="1334.515625"/>
     <use xlink:href="#DejaVuSans-69" x="1362.298828"/>
     <use xlink:href="#DejaVuSans-74" x="1390.082031"/>
     <use xlink:href="#DejaVuSans-79" x="1429.291016"/>
     <use xlink:href="#DejaVuSans-20" x="1488.470703"/>
     <use xlink:href="#DejaVuSans-53" x="1520.257812"/>
     <use xlink:href="#DejaVuSans-63" x="1583.734375"/>
     <use xlink:href="#DejaVuSans-6f" x="1638.714844"/>
     <use xlink:href="#DejaVuSans-72" x="1699.896484"/>
     <use xlink:href="#DejaVuSans-65" x="1738.759766"/>
     <use xlink:href="#DejaVuSans-73" x="1800.283203"/>
    </g>
   </g>
  </g>
 </g>
 <defs>
  <clipPath id="p861a01befb">
   <rect x="32.968125" y="35.2559" width="960.19" height="317.968"/>
  </clipPath>
 </defs>
</svg>
