<?xml version="1.0" encoding="utf-8" standalone="no"?>
<!DOCTYPE svg PUBLIC "-//W3C//DTD SVG 1.1//EN"
  "http://www.w3.org/Graphics/SVG/1.1/DTD/svg11.dtd">
<svg xmlns:xlink="http://www.w3.org/1999/xlink" width="1000.340625pt" height="388.844525pt" viewBox="0 0 1000.340625 388.844525" xmlns="http://www.w3.org/2000/svg" version="1.1">
 <metadata>
  <rdf:RDF xmlns:dc="http://purl.org/dc/elements/1.1/" xmlns:cc="http://creativecommons.org/ns#" xmlns:rdf="http://www.w3.org/1999/02/22-rdf-syntax-ns#">
   <cc:Work>
    <dc:type rdf:resource="http://purl.org/dc/dcmitype/StillImage"/>
    <dc:date>2025-03-11T15:51:15.255488</dc:date>
    <dc:format>image/svg+xml</dc:format>
    <dc:creator>
     <cc:Agent>
      <dc:title>Matplotlib v3.8.2, https://matplotlib.org/</dc:title>
     </cc:Agent>
    </dc:creator>
   </cc:Work>
  </rdf:RDF>
 </metadata>
 <defs>
  <style type="text/css">*{stroke-linejoin: round; stroke-linecap: butt}</style>
 </defs>
 <g id="figure_1">
  <g id="axes_1">
   <g id="patch_1">
    <path d="M 40.600625 353.2239 
L 993.140625 353.2239 
L 993.140625 35.2559 
L 40.600625 35.2559 
z
" style="fill: #ffffff"/>
   </g>
   <g id="matplotlib.axis_1">
    <g id="xtick_1">
     <g id="text_1">
      <!-- 0 -->
      <g transform="translate(72.693443 366.30265) scale(0.08 -0.08)">
       <defs>
        <path id="DejaVuSans-30" d="M 2034 4250 
Q 1547 4250 1301 3770 
Q 1056 3291 1056 2328 
Q 1056 1369 1301 889 
Q 1547 409 2034 409 
Q 2525 409 2770 889 
Q 3016 1369 3016 2328 
Q 3016 3291 2770 3770 
Q 2525 4250 2034 4250 
z
M 2034 4750 
Q 2819 4750 3233 4129 
Q 3647 3509 3647 2328 
Q 3647 1150 3233 529 
Q 2819 -91 2034 -91 
Q 1250 -91 836 529 
Q 422 1150 422 2328 
Q 422 3509 836 4129 
Q 1250 4750 2034 4750 
z
" transform="scale(0.015625)"/>
       </defs>
       <use xlink:href="#DejaVuSans-30"/>
      </g>
     </g>
    </g>
    <g id="xtick_2">
     <g id="text_2">
      <!-- 20 -->
      <g transform="translate(243.337534 366.30265) scale(0.08 -0.08)">
       <defs>
        <path id="DejaVuSans-32" d="M 1228 531 
L 3431 531 
L 3431 0 
L 469 0 
L 469 531 
Q 828 903 1448 1529 
Q 2069 2156 2228 2338 
Q 2531 2678 2651 2914 
Q 2772 3150 2772 3378 
Q 2772 3750 2511 3984 
Q 2250 4219 1831 4219 
Q 1534 4219 1204 4116 
Q 875 4013 500 3803 
L 500 4441 
Q 881 4594 1212 4672 
Q 1544 4750 1819 4750 
Q 2544 4750 2975 4387 
Q 3406 4025 3406 3419 
Q 3406 3131 3298 2873 
Q 3191 2616 2906 2266 
Q 2828 2175 2409 1742 
Q 1991 1309 1228 531 
z
" transform="scale(0.015625)"/>
       </defs>
       <use xlink:href="#DejaVuSans-32"/>
       <use xlink:href="#DejaVuSans-30" x="63.623047"/>
      </g>
     </g>
    </g>
    <g id="xtick_3">
     <g id="text_3">
      <!-- 40 -->
      <g transform="translate(416.526625 366.30265) scale(0.08 -0.08)">
       <defs>
        <path id="DejaVuSans-34" d="M 2419 4116 
L 825 1625 
L 2419 1625 
L 2419 4116 
z
M 2253 4666 
L 3047 4666 
L 3047 1625 
L 3713 1625 
L 3713 1100 
L 3047 1100 
L 3047 0 
L 2419 0 
L 2419 1100 
L 313 1100 
L 313 1709 
L 2253 4666 
z
" transform="scale(0.015625)"/>
       </defs>
       <use xlink:href="#DejaVuSans-34"/>
       <use xlink:href="#DejaVuSans-30" x="63.623047"/>
      </g>
     </g>
    </g>
    <g id="xtick_4">
     <g id="text_4">
      <!-- 60 -->
      <g transform="translate(589.715716 366.30265) scale(0.08 -0.08)">
       <defs>
        <path id="DejaVuSans-36" d="M 2113 2584 
Q 1688 2584 1439 2293 
Q 1191 2003 1191 1497 
Q 1191 994 1439 701 
Q 1688 409 2113 409 
Q 2538 409 2786 701 
Q 3034 994 3034 1497 
Q 3034 2003 2786 2293 
Q 2538 2584 2113 2584 
z
M 3366 4563 
L 3366 3988 
Q 3128 4100 2886 4159 
Q 2644 4219 2406 4219 
Q 1781 4219 1451 3797 
Q 1122 3375 1075 2522 
Q 1259 2794 1537 2939 
Q 1816 3084 2150 3084 
Q 2853 3084 3261 2657 
Q 3669 2231 3669 1497 
Q 3669 778 3244 343 
Q 2819 -91 2113 -91 
Q 1303 -91 875 529 
Q 447 1150 447 2328 
Q 447 3434 972 4092 
Q 1497 4750 2381 4750 
Q 2619 4750 2861 4703 
Q 3103 4656 3366 4563 
z
" transform="scale(0.015625)"/>
       </defs>
       <use xlink:href="#DejaVuSans-36"/>
       <use xlink:href="#DejaVuSans-30" x="63.623047"/>
      </g>
     </g>
    </g>
    <g id="xtick_5">
     <g id="text_5">
      <!-- 80 -->
      <g transform="translate(762.904807 366.30265) scale(0.08 -0.08)">
       <defs>
        <path id="DejaVuSans-38" d="M 2034 2216 
Q 1584 2216 1326 1975 
Q 1069 1734 1069 1313 
Q 1069 891 1326 650 
Q 1584 409 2034 409 
Q 2484 409 2743 651 
Q 3003 894 3003 1313 
Q 3003 1734 2745 1975 
Q 2488 2216 2034 2216 
z
M 1403 2484 
Q 997 2584 770 2862 
Q 544 3141 544 3541 
Q 544 4100 942 4425 
Q 1341 4750 2034 4750 
Q 2731 4750 3128 4425 
Q 3525 4100 3525 3541 
Q 3525 3141 3298 2862 
Q 3072 2584 2669 2484 
Q 3125 2378 3379 2068 
Q 3634 1759 3634 1313 
Q 3634 634 3220 271 
Q 2806 -91 2034 -91 
Q 1263 -91 848 271 
Q 434 634 434 1313 
Q 434 1759 690 2068 
Q 947 2378 1403 2484 
z
M 1172 3481 
Q 1172 3119 1398 2916 
Q 1625 2713 2034 2713 
Q 2441 2713 2670 2916 
Q 2900 3119 2900 3481 
Q 2900 3844 2670 4047 
Q 2441 4250 2034 4250 
Q 1625 4250 1398 4047 
Q 1172 3844 1172 3481 
z
" transform="scale(0.015625)"/>
       </defs>
       <use xlink:href="#DejaVuSans-38"/>
       <use xlink:href="#DejaVuSans-30" x="63.623047"/>
      </g>
     </g>
    </g>
    <g id="xtick_6">
     <g id="text_6">
      <!-- 100 -->
      <g transform="translate(933.548898 366.30265) scale(0.08 -0.08)">
       <defs>
        <path id="DejaVuSans-31" d="M 794 531 
L 1825 531 
L 1825 4091 
L 703 3866 
L 703 4441 
L 1819 4666 
L 2450 4666 
L 2450 531 
L 3481 531 
L 3481 0 
L 794 0 
L 794 531 
z
" transform="scale(0.015625)"/>
       </defs>
       <use xlink:href="#DejaVuSans-31"/>
       <use xlink:href="#DejaVuSans-30" x="63.623047"/>
       <use xlink:href="#DejaVuSans-30" x="127.246094"/>
      </g>
     </g>
    </g>
    <g id="text_7">
     <!-- Length Trimmed (bp) -->
     <g transform="translate(464.443281 379.564837) scale(0.1 -0.1)">
      <defs>
       <path id="DejaVuSans-4c" d="M 628 4666 
L 1259 4666 
L 1259 531 
L 3531 531 
L 3531 0 
L 628 0 
L 628 4666 
z
" transform="scale(0.015625)"/>
       <path id="DejaVuSans-65" d="M 3597 1894 
L 3597 1613 
L 953 1613 
Q 991 1019 1311 708 
Q 1631 397 2203 397 
Q 2534 397 2845 478 
Q 3156 559 3463 722 
L 3463 178 
Q 3153 47 2828 -22 
Q 2503 -91 2169 -91 
Q 1331 -91 842 396 
Q 353 884 353 1716 
Q 353 2575 817 3079 
Q 1281 3584 2069 3584 
Q 2775 3584 3186 3129 
Q 3597 2675 3597 1894 
z
M 3022 2063 
Q 3016 2534 2758 2815 
Q 2500 3097 2075 3097 
Q 1594 3097 1305 2825 
Q 1016 2553 972 2059 
L 3022 2063 
z
" transform="scale(0.015625)"/>
       <path id="DejaVuSans-6e" d="M 3513 2113 
L 3513 0 
L 2938 0 
L 2938 2094 
Q 2938 2591 2744 2837 
Q 2550 3084 2163 3084 
Q 1697 3084 1428 2787 
Q 1159 2491 1159 1978 
L 1159 0 
L 581 0 
L 581 3500 
L 1159 3500 
L 1159 2956 
Q 1366 3272 1645 3428 
Q 1925 3584 2291 3584 
Q 2894 3584 3203 3211 
Q 3513 2838 3513 2113 
z
" transform="scale(0.015625)"/>
       <path id="DejaVuSans-67" d="M 2906 1791 
Q 2906 2416 2648 2759 
Q 2391 3103 1925 3103 
Q 1463 3103 1205 2759 
Q 947 2416 947 1791 
Q 947 1169 1205 825 
Q 1463 481 1925 481 
Q 2391 481 2648 825 
Q 2906 1169 2906 1791 
z
M 3481 434 
Q 3481 -459 3084 -895 
Q 2688 -1331 1869 -1331 
Q 1566 -1331 1297 -1286 
Q 1028 -1241 775 -1147 
L 775 -588 
Q 1028 -725 1275 -790 
Q 1522 -856 1778 -856 
Q 2344 -856 2625 -561 
Q 2906 -266 2906 331 
L 2906 616 
Q 2728 306 2450 153 
Q 2172 0 1784 0 
Q 1141 0 747 490 
Q 353 981 353 1791 
Q 353 2603 747 3093 
Q 1141 3584 1784 3584 
Q 2172 3584 2450 3431 
Q 2728 3278 2906 2969 
L 2906 3500 
L 3481 3500 
L 3481 434 
z
" transform="scale(0.015625)"/>
       <path id="DejaVuSans-74" d="M 1172 4494 
L 1172 3500 
L 2356 3500 
L 2356 3053 
L 1172 3053 
L 1172 1153 
Q 1172 725 1289 603 
Q 1406 481 1766 481 
L 2356 481 
L 2356 0 
L 1766 0 
Q 1100 0 847 248 
Q 594 497 594 1153 
L 594 3053 
L 172 3053 
L 172 3500 
L 594 3500 
L 594 4494 
L 1172 4494 
z
" transform="scale(0.015625)"/>
       <path id="DejaVuSans-68" d="M 3513 2113 
L 3513 0 
L 2938 0 
L 2938 2094 
Q 2938 2591 2744 2837 
Q 2550 3084 2163 3084 
Q 1697 3084 1428 2787 
Q 1159 2491 1159 1978 
L 1159 0 
L 581 0 
L 581 4863 
L 1159 4863 
L 1159 2956 
Q 1366 3272 1645 3428 
Q 1925 3584 2291 3584 
Q 2894 3584 3203 3211 
Q 3513 2838 3513 2113 
z
" transform="scale(0.015625)"/>
       <path id="DejaVuSans-20" transform="scale(0.015625)"/>
       <path id="DejaVuSans-54" d="M -19 4666 
L 3928 4666 
L 3928 4134 
L 2272 4134 
L 2272 0 
L 1638 0 
L 1638 4134 
L -19 4134 
L -19 4666 
z
" transform="scale(0.015625)"/>
       <path id="DejaVuSans-72" d="M 2631 2963 
Q 2534 3019 2420 3045 
Q 2306 3072 2169 3072 
Q 1681 3072 1420 2755 
Q 1159 2438 1159 1844 
L 1159 0 
L 581 0 
L 581 3500 
L 1159 3500 
L 1159 2956 
Q 1341 3275 1631 3429 
Q 1922 3584 2338 3584 
Q 2397 3584 2469 3576 
Q 2541 3569 2628 3553 
L 2631 2963 
z
" transform="scale(0.015625)"/>
       <path id="DejaVuSans-69" d="M 603 3500 
L 1178 3500 
L 1178 0 
L 603 0 
L 603 3500 
z
M 603 4863 
L 1178 4863 
L 1178 4134 
L 603 4134 
L 603 4863 
z
" transform="scale(0.015625)"/>
       <path id="DejaVuSans-6d" d="M 3328 2828 
Q 3544 3216 3844 3400 
Q 4144 3584 4550 3584 
Q 5097 3584 5394 3201 
Q 5691 2819 5691 2113 
L 5691 0 
L 5113 0 
L 5113 2094 
Q 5113 2597 4934 2840 
Q 4756 3084 4391 3084 
Q 3944 3084 3684 2787 
Q 3425 2491 3425 1978 
L 3425 0 
L 2847 0 
L 2847 2094 
Q 2847 2600 2669 2842 
Q 2491 3084 2119 3084 
Q 1678 3084 1418 2786 
Q 1159 2488 1159 1978 
L 1159 0 
L 581 0 
L 581 3500 
L 1159 3500 
L 1159 2956 
Q 1356 3278 1631 3431 
Q 1906 3584 2284 3584 
Q 2666 3584 2933 3390 
Q 3200 3197 3328 2828 
z
" transform="scale(0.015625)"/>
       <path id="DejaVuSans-64" d="M 2906 2969 
L 2906 4863 
L 3481 4863 
L 3481 0 
L 2906 0 
L 2906 525 
Q 2725 213 2448 61 
Q 2172 -91 1784 -91 
Q 1150 -91 751 415 
Q 353 922 353 1747 
Q 353 2572 751 3078 
Q 1150 3584 1784 3584 
Q 2172 3584 2448 3432 
Q 2725 3281 2906 2969 
z
M 947 1747 
Q 947 1113 1208 752 
Q 1469 391 1925 391 
Q 2381 391 2643 752 
Q 2906 1113 2906 1747 
Q 2906 2381 2643 2742 
Q 2381 3103 1925 3103 
Q 1469 3103 1208 2742 
Q 947 2381 947 1747 
z
" transform="scale(0.015625)"/>
       <path id="DejaVuSans-28" d="M 1984 4856 
Q 1566 4138 1362 3434 
Q 1159 2731 1159 2009 
Q 1159 1288 1364 580 
Q 1569 -128 1984 -844 
L 1484 -844 
Q 1016 -109 783 600 
Q 550 1309 550 2009 
Q 550 2706 781 3412 
Q 1013 4119 1484 4856 
L 1984 4856 
z
" transform="scale(0.015625)"/>
       <path id="DejaVuSans-62" d="M 3116 1747 
Q 3116 2381 2855 2742 
Q 2594 3103 2138 3103 
Q 1681 3103 1420 2742 
Q 1159 2381 1159 1747 
Q 1159 1113 1420 752 
Q 1681 391 2138 391 
Q 2594 391 2855 752 
Q 3116 1113 3116 1747 
z
M 1159 2969 
Q 1341 3281 1617 3432 
Q 1894 3584 2278 3584 
Q 2916 3584 3314 3078 
Q 3713 2572 3713 1747 
Q 3713 922 3314 415 
Q 2916 -91 2278 -91 
Q 1894 -91 1617 61 
Q 1341 213 1159 525 
L 1159 0 
L 581 0 
L 581 4863 
L 1159 4863 
L 1159 2969 
z
" transform="scale(0.015625)"/>
       <path id="DejaVuSans-70" d="M 1159 525 
L 1159 -1331 
L 581 -1331 
L 581 3500 
L 1159 3500 
L 1159 2969 
Q 1341 3281 1617 3432 
Q 1894 3584 2278 3584 
Q 2916 3584 3314 3078 
Q 3713 2572 3713 1747 
Q 3713 922 3314 415 
Q 2916 -91 2278 -91 
Q 1894 -91 1617 61 
Q 1341 213 1159 525 
z
M 3116 1747 
Q 3116 2381 2855 2742 
Q 2594 3103 2138 3103 
Q 1681 3103 1420 2742 
Q 1159 2381 1159 1747 
Q 1159 1113 1420 752 
Q 1681 391 2138 391 
Q 2594 391 2855 752 
Q 3116 1113 3116 1747 
z
" transform="scale(0.015625)"/>
       <path id="DejaVuSans-29" d="M 513 4856 
L 1013 4856 
Q 1481 4119 1714 3412 
Q 1947 2706 1947 2009 
Q 1947 1309 1714 600 
Q 1481 -109 1013 -844 
L 513 -844 
Q 928 -128 1133 580 
Q 1338 1288 1338 2009 
Q 1338 2731 1133 3434 
Q 928 4138 513 4856 
z
" transform="scale(0.015625)"/>
      </defs>
      <use xlink:href="#DejaVuSans-4c"/>
      <use xlink:href="#DejaVuSans-65" x="53.962891"/>
      <use xlink:href="#DejaVuSans-6e" x="115.486328"/>
      <use xlink:href="#DejaVuSans-67" x="178.865234"/>
      <use xlink:href="#DejaVuSans-74" x="242.341797"/>
      <use xlink:href="#DejaVuSans-68" x="281.550781"/>
      <use xlink:href="#DejaVuSans-20" x="344.929688"/>
      <use xlink:href="#DejaVuSans-54" x="376.716797"/>
      <use xlink:href="#DejaVuSans-72" x="423.050781"/>
      <use xlink:href="#DejaVuSans-69" x="464.164062"/>
      <use xlink:href="#DejaVuSans-6d" x="491.947266"/>
      <use xlink:href="#DejaVuSans-6d" x="589.359375"/>
      <use xlink:href="#DejaVuSans-65" x="686.771484"/>
      <use xlink:href="#DejaVuSans-64" x="748.294922"/>
      <use xlink:href="#DejaVuSans-20" x="811.771484"/>
      <use xlink:href="#DejaVuSans-28" x="843.558594"/>
      <use xlink:href="#DejaVuSans-62" x="882.572266"/>
      <use xlink:href="#DejaVuSans-70" x="946.048828"/>
      <use xlink:href="#DejaVuSans-29" x="1009.525391"/>
     </g>
    </g>
   </g>
   <g id="matplotlib.axis_2">
    <g id="ytick_1">
     <g id="line2d_1">
      <path d="M 40.600625 353.2239 
L 993.140625 353.2239 
" clip-path="url(#pd1df262b83)" style="fill: none; stroke: #dedede; stroke-linecap: square"/>
     </g>
     <g id="text_8">
      <!-- 0.0 -->
      <g transform="translate(20.878125 356.263275) scale(0.08 -0.08)">
       <defs>
        <path id="DejaVuSans-2e" d="M 684 794 
L 1344 794 
L 1344 0 
L 684 0 
L 684 794 
z
" transform="scale(0.015625)"/>
       </defs>
       <use xlink:href="#DejaVuSans-30"/>
       <use xlink:href="#DejaVuSans-2e" x="63.623047"/>
       <use xlink:href="#DejaVuSans-30" x="95.410156"/>
      </g>
     </g>
    </g>
    <g id="ytick_2">
     <g id="line2d_2">
      <path d="M 40.600625 300.25746 
L 993.140625 300.25746 
" clip-path="url(#pd1df262b83)" style="fill: none; stroke: #dedede; stroke-linecap: square"/>
     </g>
     <g id="text_9">
      <!-- 0.2 -->
      <g transform="translate(20.878125 303.296835) scale(0.08 -0.08)">
       <use xlink:href="#DejaVuSans-30"/>
       <use xlink:href="#DejaVuSans-2e" x="63.623047"/>
       <use xlink:href="#DejaVuSans-32" x="95.410156"/>
      </g>
     </g>
    </g>
    <g id="ytick_3">
     <g id="line2d_3">
      <path d="M 40.600625 247.29102 
L 993.140625 247.29102 
" clip-path="url(#pd1df262b83)" style="fill: none; stroke: #dedede; stroke-linecap: square"/>
     </g>
     <g id="text_10">
      <!-- 0.4 -->
      <g transform="translate(20.878125 250.330395) scale(0.08 -0.08)">
       <use xlink:href="#DejaVuSans-30"/>
       <use xlink:href="#DejaVuSans-2e" x="63.623047"/>
       <use xlink:href="#DejaVuSans-34" x="95.410156"/>
      </g>
     </g>
    </g>
    <g id="ytick_4">
     <g id="line2d_4">
      <path d="M 40.600625 194.32458 
L 993.140625 194.32458 
" clip-path="url(#pd1df262b83)" style="fill: none; stroke: #dedede; stroke-linecap: square"/>
     </g>
     <g id="text_11">
      <!-- 0.6 -->
      <g transform="translate(20.878125 197.363955) scale(0.08 -0.08)">
       <use xlink:href="#DejaVuSans-30"/>
       <use xlink:href="#DejaVuSans-2e" x="63.623047"/>
       <use xlink:href="#DejaVuSans-36" x="95.410156"/>
      </g>
     </g>
    </g>
    <g id="ytick_5">
     <g id="line2d_5">
      <path d="M 40.600625 141.35814 
L 993.140625 141.35814 
" clip-path="url(#pd1df262b83)" style="fill: none; stroke: #dedede; stroke-linecap: square"/>
     </g>
     <g id="text_12">
      <!-- 0.8 -->
      <g transform="translate(20.878125 144.397515) scale(0.08 -0.08)">
       <use xlink:href="#DejaVuSans-30"/>
       <use xlink:href="#DejaVuSans-2e" x="63.623047"/>
       <use xlink:href="#DejaVuSans-38" x="95.410156"/>
      </g>
     </g>
    </g>
    <g id="ytick_6">
     <g id="line2d_6">
      <path d="M 40.600625 88.3917 
L 993.140625 88.3917 
" clip-path="url(#pd1df262b83)" style="fill: none; stroke: #dedede; stroke-linecap: square"/>
     </g>
     <g id="text_13">
      <!-- 1.0 -->
      <g transform="translate(20.878125 91.431075) scale(0.08 -0.08)">
       <use xlink:href="#DejaVuSans-31"/>
       <use xlink:href="#DejaVuSans-2e" x="63.623047"/>
       <use xlink:href="#DejaVuSans-30" x="95.410156"/>
      </g>
     </g>
    </g>
    <g id="ytick_7">
     <g id="line2d_7">
      <path d="M 40.600625 35.42526 
L 993.140625 35.42526 
" clip-path="url(#pd1df262b83)" style="fill: none; stroke: #dedede; stroke-linecap: square"/>
     </g>
     <g id="text_14">
      <!-- 1.2 -->
      <g transform="translate(20.878125 38.464635) scale(0.08 -0.08)">
       <use xlink:href="#DejaVuSans-31"/>
       <use xlink:href="#DejaVuSans-2e" x="63.623047"/>
       <use xlink:href="#DejaVuSans-32" x="95.410156"/>
      </g>
     </g>
    </g>
    <g id="text_15">
     <!-- Count -->
     <g transform="translate(14.798438 209.088338) rotate(-90) scale(0.1 -0.1)">
      <defs>
       <path id="DejaVuSans-43" d="M 4122 4306 
L 4122 3641 
Q 3803 3938 3442 4084 
Q 3081 4231 2675 4231 
Q 1875 4231 1450 3742 
Q 1025 3253 1025 2328 
Q 1025 1406 1450 917 
Q 1875 428 2675 428 
Q 3081 428 3442 575 
Q 3803 722 4122 1019 
L 4122 359 
Q 3791 134 3420 21 
Q 3050 -91 2638 -91 
Q 1578 -91 968 557 
Q 359 1206 359 2328 
Q 359 3453 968 4101 
Q 1578 4750 2638 4750 
Q 3056 4750 3426 4639 
Q 3797 4528 4122 4306 
z
" transform="scale(0.015625)"/>
       <path id="DejaVuSans-6f" d="M 1959 3097 
Q 1497 3097 1228 2736 
Q 959 2375 959 1747 
Q 959 1119 1226 758 
Q 1494 397 1959 397 
Q 2419 397 2687 759 
Q 2956 1122 2956 1747 
Q 2956 2369 2687 2733 
Q 2419 3097 1959 3097 
z
M 1959 3584 
Q 2709 3584 3137 3096 
Q 3566 2609 3566 1747 
Q 3566 888 3137 398 
Q 2709 -91 1959 -91 
Q 1206 -91 779 398 
Q 353 888 353 1747 
Q 353 2609 779 3096 
Q 1206 3584 1959 3584 
z
" transform="scale(0.015625)"/>
       <path id="DejaVuSans-75" d="M 544 1381 
L 544 3500 
L 1119 3500 
L 1119 1403 
Q 1119 906 1312 657 
Q 1506 409 1894 409 
Q 2359 409 2629 706 
Q 2900 1003 2900 1516 
L 2900 3500 
L 3475 3500 
L 3475 0 
L 2900 0 
L 2900 538 
Q 2691 219 2414 64 
Q 2138 -91 1772 -91 
Q 1169 -91 856 284 
Q 544 659 544 1381 
z
M 1991 3584 
L 1991 3584 
z
" transform="scale(0.015625)"/>
      </defs>
      <use xlink:href="#DejaVuSans-43"/>
      <use xlink:href="#DejaVuSans-6f" x="69.824219"/>
      <use xlink:href="#DejaVuSans-75" x="131.005859"/>
      <use xlink:href="#DejaVuSans-6e" x="194.384766"/>
      <use xlink:href="#DejaVuSans-74" x="257.763672"/>
     </g>
    </g>
    <g id="text_16">
     <!-- 1e7 -->
     <g transform="translate(40.600625 32.2559) scale(0.1 -0.1)">
      <defs>
       <path id="DejaVuSans-37" d="M 525 4666 
L 3525 4666 
L 3525 4397 
L 1831 0 
L 1172 0 
L 2766 4134 
L 525 4134 
L 525 4666 
z
" transform="scale(0.015625)"/>
      </defs>
      <use xlink:href="#DejaVuSans-31"/>
      <use xlink:href="#DejaVuSans-65" x="63.623047"/>
      <use xlink:href="#DejaVuSans-37" x="125.146484"/>
     </g>
    </g>
   </g>
   <g id="line2d_8">
    <path d="M 83.897898 84.747662 
L 92.557352 272.999341 
L 101.216807 324.781187 
L 109.876261 352.39863 
L 118.535716 351.617878 
L 127.19517 353.135102 
L 135.854625 353.007612 
L 144.51408 353.179885 
L 153.173534 353.046966 
L 161.832989 353.018734 
L 170.492443 353.016139 
L 179.151898 353.203932 
L 187.811352 353.156129 
L 196.470807 353.202846 
L 205.130261 353.133036 
L 213.789716 353.165372 
L 222.44917 353.17909 
L 231.108625 353.168497 
L 239.76808 353.181818 
L 248.427534 353.183831 
L 257.086989 353.180256 
L 265.746443 353.186903 
L 274.405898 353.167464 
L 283.065352 353.188465 
L 291.724807 353.188015 
L 300.384261 353.198079 
L 309.043716 353.192676 
L 317.70317 353.19551 
L 326.362625 353.195033 
L 335.02208 353.194451 
L 343.681534 353.191564 
L 352.340989 353.193868 
L 361.000443 353.185023 
L 369.659898 353.198158 
L 378.319352 353.203534 
L 386.978807 353.214128 
L 395.638261 353.212194 
L 404.297716 353.210155 
L 412.95717 353.207825 
L 421.616625 353.20703 
L 430.27608 353.207984 
L 438.935534 353.202978 
L 447.594989 353.200065 
L 456.254443 353.208593 
L 464.913898 353.209255 
L 473.573352 353.208434 
L 482.232807 353.209202 
L 490.892261 353.209096 
L 499.551716 353.20997 
L 508.21117 353.211135 
L 516.870625 353.205335 
L 525.53008 353.208195 
L 534.189534 353.211029 
L 542.848989 353.208619 
L 551.508443 353.207851 
L 560.167898 353.21132 
L 568.827352 353.214498 
L 577.486807 353.20086 
L 586.146261 353.213095 
L 594.805716 353.214419 
L 603.46517 353.212565 
L 612.124625 353.212751 
L 620.78408 353.212777 
L 629.443534 353.213148 
L 638.102989 353.20944 
L 646.762443 353.213015 
L 655.421898 353.213042 
L 664.081352 353.208142 
L 672.740807 353.211983 
L 681.400261 353.212115 
L 690.059716 353.213439 
L 698.71917 353.207507 
L 707.378625 353.215849 
L 716.03808 353.215584 
L 724.697534 353.203561 
L 733.356989 353.216485 
L 742.016443 353.208963 
L 750.675898 353.210605 
L 759.335352 353.21434 
L 767.994807 353.208963 
L 776.654261 353.212327 
L 785.313716 353.212247 
L 793.97317 353.209599 
L 802.632625 353.212353 
L 811.29208 353.21087 
L 819.951534 353.212512 
L 828.610989 353.210817 
L 837.270443 353.209228 
L 845.929898 353.211559 
L 854.589352 353.210552 
L 863.248807 353.211109 
L 871.908261 353.214181 
L 880.567716 353.211347 
L 889.22717 353.211029 
L 897.886625 353.214419 
L 906.54608 353.209573 
L 915.205534 353.214287 
L 923.864989 353.201045 
L 932.524443 353.209334 
L 941.183898 353.192915 
L 949.843352 352.900487 
" clip-path="url(#pd1df262b83)" style="fill: none; stroke: #7cb5ec; stroke-linecap: square"/>
   </g>
   <g id="line2d_9">
    <path d="M 83.897898 84.382803 
L 92.557352 273.362399 
L 101.216807 324.796891 
L 109.876261 352.398339 
L 118.535716 351.653392 
L 127.19517 353.138094 
L 135.854625 353.013014 
L 144.51408 353.18052 
L 153.173534 353.052501 
L 161.832989 353.022469 
L 170.492443 353.022442 
L 179.151898 353.203746 
L 187.811352 353.162644 
L 196.470807 353.202555 
L 205.130261 353.140081 
L 213.789716 353.16667 
L 222.44917 353.183248 
L 231.108625 353.170748 
L 239.76808 353.184758 
L 248.427534 353.188492 
L 257.086989 353.182401 
L 265.746443 353.184652 
L 274.405898 353.164419 
L 283.065352 353.186823 
L 291.724807 353.187062 
L 300.384261 353.196437 
L 309.043716 353.189022 
L 317.70317 353.194768 
L 326.362625 353.198476 
L 335.02208 353.195616 
L 343.681534 353.189525 
L 352.340989 353.193338 
L 361.000443 353.199774 
L 369.659898 353.203587 
L 378.319352 353.197258 
L 386.978807 353.20327 
L 395.638261 353.19792 
L 404.297716 353.201389 
L 412.95717 353.206262 
L 421.616625 353.209414 
L 430.27608 353.214604 
L 438.935534 353.206315 
L 447.594989 353.19988 
L 456.254443 353.207984 
L 464.913898 353.20809 
L 473.573352 353.207745 
L 482.232807 353.209917 
L 490.892261 353.208142 
L 499.551716 353.207878 
L 508.21117 353.210764 
L 516.870625 353.208566 
L 525.53008 353.209308 
L 534.189534 353.21193 
L 542.848989 353.209811 
L 551.508443 353.209069 
L 560.167898 353.211532 
L 568.827352 353.214287 
L 577.486807 353.201654 
L 586.146261 353.213042 
L 594.805716 353.214445 
L 603.46517 353.214763 
L 612.124625 353.214657 
L 620.78408 353.213439 
L 629.443534 353.212856 
L 638.102989 353.210155 
L 646.762443 353.21328 
L 655.421898 353.212962 
L 664.081352 353.20899 
L 672.740807 353.212115 
L 681.400261 353.212592 
L 690.059716 353.214154 
L 698.71917 353.208195 
L 707.378625 353.216776 
L 716.03808 353.216326 
L 724.697534 353.201998 
L 733.356989 353.217332 
L 742.016443 353.210261 
L 750.675898 353.212221 
L 759.335352 353.214022 
L 767.994807 353.210208 
L 776.654261 353.212406 
L 785.313716 353.2123 
L 793.97317 353.209281 
L 802.632625 353.212486 
L 811.29208 353.213254 
L 819.951534 353.21132 
L 828.610989 353.210817 
L 837.270443 353.210526 
L 845.929898 353.212247 
L 854.589352 353.211903 
L 863.248807 353.212009 
L 871.908261 353.215002 
L 880.567716 353.213254 
L 889.22717 353.212671 
L 897.886625 353.215584 
L 906.54608 353.210288 
L 915.205534 353.214366 
L 923.864989 353.199933 
L 932.524443 353.207586 
L 941.183898 353.193021 
L 949.843352 352.743918 
" clip-path="url(#pd1df262b83)" style="fill: none; stroke: #434348; stroke-linecap: square"/>
   </g>
   <g id="line2d_10">
    <path d="M 83.897898 105.733177 
L 92.557352 279.748086 
L 101.216807 327.688832 
L 109.876261 352.473101 
L 118.535716 351.767985 
L 127.19517 353.149482 
L 135.854625 353.031102 
L 144.51408 353.184758 
L 153.173534 353.066828 
L 161.832989 353.05597 
L 170.492443 353.01222 
L 179.151898 353.206077 
L 187.811352 353.172734 
L 196.470807 353.207004 
L 205.130261 353.154938 
L 213.789716 353.176124 
L 222.44917 353.189657 
L 231.108625 353.183036 
L 239.76808 353.191855 
L 248.427534 353.190928 
L 257.086989 353.187618 
L 265.746443 353.193762 
L 274.405898 353.180415 
L 283.065352 353.195007 
L 291.724807 353.192994 
L 300.384261 353.200674 
L 309.043716 353.19649 
L 317.70317 353.194954 
L 326.362625 353.196914 
L 335.02208 353.168073 
L 343.681534 353.195563 
L 352.340989 353.197337 
L 361.000443 353.201866 
L 369.659898 353.208354 
L 378.319352 353.205971 
L 386.978807 353.208699 
L 395.638261 353.206871 
L 404.297716 353.208222 
L 412.95717 353.210314 
L 421.616625 353.207931 
L 430.27608 353.208407 
L 438.935534 353.202025 
L 447.594989 353.204938 
L 456.254443 353.210235 
L 464.913898 353.207798 
L 473.573352 353.206739 
L 482.232807 353.208301 
L 490.892261 353.208513 
L 499.551716 353.206898 
L 508.21117 353.21185 
L 516.870625 353.208831 
L 525.53008 353.209202 
L 534.189534 353.213704 
L 542.848989 353.211824 
L 551.508443 353.211824 
L 560.167898 353.211877 
L 568.827352 353.215664 
L 577.486807 353.202449 
L 586.146261 353.211453 
L 594.805716 353.212751 
L 603.46517 353.21373 
L 612.124625 353.211373 
L 620.78408 353.212486 
L 629.443534 353.212327 
L 638.102989 353.210526 
L 646.762443 353.214287 
L 655.421898 353.213095 
L 664.081352 353.20997 
L 672.740807 353.213625 
L 681.400261 353.214498 
L 690.059716 353.21471 
L 698.71917 353.209599 
L 707.378625 353.216511 
L 716.03808 353.215849 
L 724.697534 353.202184 
L 733.356989 353.217226 
L 742.016443 353.210897 
L 750.675898 353.212486 
L 759.335352 353.213492 
L 767.994807 353.210579 
L 776.654261 353.213148 
L 785.313716 353.214684 
L 793.97317 353.212141 
L 802.632625 353.212141 
L 811.29208 353.214048 
L 819.951534 353.212962 
L 828.610989 353.211638 
L 837.270443 353.211215 
L 845.929898 353.212671 
L 854.589352 353.213439 
L 863.248807 353.211691 
L 871.908261 353.215002 
L 880.567716 353.209917 
L 889.22717 353.213174 
L 897.886625 353.214313 
L 906.54608 353.210711 
L 915.205534 353.214631 
L 923.864989 353.201071 
L 932.524443 353.207295 
L 941.183898 353.185632 
L 949.843352 352.36203 
" clip-path="url(#pd1df262b83)" style="fill: none; stroke: #90ed7d; stroke-linecap: square"/>
   </g>
   <g id="line2d_11">
    <path d="M 83.897898 74.941402 
L 92.557352 271.370014 
L 101.216807 323.794342 
L 109.876261 352.266187 
L 118.535716 351.654451 
L 127.19517 353.129222 
L 135.854625 352.983724 
L 144.51408 353.178084 
L 153.173534 353.043523 
L 161.832989 353.020244 
L 170.492443 352.953136 
L 179.151898 353.202475 
L 187.811352 353.1489 
L 196.470807 353.20605 
L 205.130261 353.121013 
L 213.789716 353.161797 
L 222.44917 353.166061 
L 231.108625 353.153322 
L 239.76808 353.178322 
L 248.427534 353.181977 
L 257.086989 353.17623 
L 265.746443 353.186506 
L 274.405898 353.154567 
L 283.065352 353.178455 
L 291.724807 353.179991 
L 300.384261 353.194451 
L 309.043716 353.184281 
L 317.70317 353.194212 
L 326.362625 353.188068 
L 335.02208 353.183725 
L 343.681534 353.194371 
L 352.340989 353.197152 
L 361.000443 353.194901 
L 369.659898 353.201257 
L 378.319352 353.19649 
L 386.978807 353.204144 
L 395.638261 353.20364 
L 404.297716 353.205706 
L 412.95717 353.207454 
L 421.616625 353.202369 
L 430.27608 353.206395 
L 438.935534 353.207692 
L 447.594989 353.205547 
L 456.254443 353.207401 
L 464.913898 353.206527 
L 473.573352 353.206898 
L 482.232807 353.20801 
L 490.892261 353.210579 
L 499.551716 353.20989 
L 508.21117 353.211824 
L 516.870625 353.210473 
L 525.53008 353.210261 
L 534.189534 353.213148 
L 542.848989 353.210526 
L 551.508443 353.20952 
L 560.167898 353.211771 
L 568.827352 353.213413 
L 577.486807 353.208222 
L 586.146261 353.213995 
L 594.805716 353.214578 
L 603.46517 353.215002 
L 612.124625 353.211771 
L 620.78408 353.214154 
L 629.443534 353.215266 
L 638.102989 353.21185 
L 646.762443 353.21569 
L 655.421898 353.213995 
L 664.081352 353.210791 
L 672.740807 353.21238 
L 681.400261 353.215902 
L 690.059716 353.213942 
L 698.71917 353.210632 
L 707.378625 353.21614 
L 716.03808 353.215478 
L 724.697534 353.209361 
L 733.356989 353.217544 
L 742.016443 353.212512 
L 750.675898 353.213677 
L 759.335352 353.214949 
L 767.994807 353.210288 
L 776.654261 353.212698 
L 785.313716 353.214551 
L 793.97317 353.215399 
L 802.632625 353.214737 
L 811.29208 353.213863 
L 819.951534 353.212327 
L 828.610989 353.215611 
L 837.270443 353.209758 
L 845.929898 353.214075 
L 854.589352 353.213386 
L 863.248807 353.212221 
L 871.908261 353.215134 
L 880.567716 353.213439 
L 889.22717 353.214445 
L 897.886625 353.215002 
L 906.54608 353.211426 
L 915.205534 353.214366 
L 923.864989 353.205468 
L 932.524443 353.211003 
L 941.183898 353.195219 
L 949.843352 352.761847 
" clip-path="url(#pd1df262b83)" style="fill: none; stroke: #f7a35c; stroke-linecap: square"/>
   </g>
   <g id="line2d_12">
    <path d="M 83.897898 107.651542 
L 92.557352 280.096261 
L 101.216807 327.208109 
L 109.876261 352.384197 
L 118.535716 351.845157 
L 127.19517 353.156024 
L 135.854625 353.036372 
L 144.51408 353.187989 
L 153.173534 353.08971 
L 161.832989 353.072999 
L 170.492443 352.997177 
L 179.151898 353.207533 
L 187.811352 353.186373 
L 196.470807 353.210738 
L 205.130261 353.172999 
L 213.789716 353.189631 
L 222.44917 353.194477 
L 231.108625 353.191167 
L 239.76808 353.200489 
L 248.427534 353.198873 
L 257.086989 353.19694 
L 265.746443 353.200224 
L 274.405898 353.189101 
L 283.065352 353.201336 
L 291.724807 353.202952 
L 300.384261 353.20846 
L 309.043716 353.203693 
L 317.70317 353.204435 
L 326.362625 353.207269 
L 335.02208 353.205971 
L 343.681534 353.207374 
L 352.340989 353.208116 
L 361.000443 353.20801 
L 369.659898 353.211188 
L 378.319352 353.204514 
L 386.978807 353.21238 
L 395.638261 353.209705 
L 404.297716 353.210155 
L 412.95717 353.212565 
L 421.616625 353.20989 
L 430.27608 353.211956 
L 438.935534 353.211479 
L 447.594989 353.209149 
L 456.254443 353.212592 
L 464.913898 353.212989 
L 473.573352 353.211532 
L 482.232807 353.212936 
L 490.892261 353.212141 
L 499.551716 353.212989 
L 508.21117 353.210552 
L 516.870625 353.214816 
L 525.53008 353.211109 
L 534.189534 353.213095 
L 542.848989 353.212327 
L 551.508443 353.212883 
L 560.167898 353.213757 
L 568.827352 353.214181 
L 577.486807 353.211056 
L 586.146261 353.212883 
L 594.805716 353.214684 
L 603.46517 353.214551 
L 612.124625 353.207798 
L 620.78408 353.213068 
L 629.443534 353.214101 
L 638.102989 353.2114 
L 646.762443 353.214393 
L 655.421898 353.21479 
L 664.081352 353.211003 
L 672.740807 353.214313 
L 681.400261 353.214631 
L 690.059716 353.212592 
L 698.71917 353.21185 
L 707.378625 353.21667 
L 716.03808 353.21479 
L 724.697534 353.210447 
L 733.356989 353.218921 
L 742.016443 353.2123 
L 750.675898 353.212141 
L 759.335352 353.215081 
L 767.994807 353.210605 
L 776.654261 353.210685 
L 785.313716 353.213492 
L 793.97317 353.213942 
L 802.632625 353.213307 
L 811.29208 353.21426 
L 819.951534 353.212698 
L 828.610989 353.21336 
L 837.270443 353.205838 
L 845.929898 353.212274 
L 854.589352 353.2123 
L 863.248807 353.209731 
L 871.908261 353.215452 
L 880.567716 353.213042 
L 889.22717 353.214181 
L 897.886625 353.214843 
L 906.54608 353.210817 
L 915.205534 353.215823 
L 923.864989 353.202263 
L 932.524443 353.210341 
L 941.183898 353.198423 
L 949.843352 353.031658 
" clip-path="url(#pd1df262b83)" style="fill: none; stroke: #8085e9; stroke-linecap: square"/>
   </g>
   <g id="line2d_13">
    <path d="M 83.897898 54.489418 
L 92.557352 265.165154 
L 101.216807 321.564667 
L 109.876261 352.178793 
L 118.535716 351.554424 
L 127.19517 353.137485 
L 135.854625 352.97803 
L 144.51408 353.176998 
L 153.173534 353.055308 
L 161.832989 353.029778 
L 170.492443 352.965874 
L 179.151898 353.202502 
L 187.811352 353.16712 
L 196.470807 353.206289 
L 205.130261 353.149853 
L 213.789716 353.174138 
L 222.44917 353.182268 
L 231.108625 353.174482 
L 239.76808 353.190107 
L 248.427534 353.192279 
L 257.086989 353.185129 
L 265.746443 353.19167 
L 274.405898 353.176389 
L 283.065352 353.190293 
L 291.724807 353.189975 
L 300.384261 353.201495 
L 309.043716 353.195669 
L 317.70317 353.19943 
L 326.362625 353.198185 
L 335.02208 353.202184 
L 343.681534 353.199456 
L 352.340989 353.197549 
L 361.000443 353.200727 
L 369.659898 353.207507 
L 378.319352 353.207772 
L 386.978807 353.210049 
L 395.638261 353.209758 
L 404.297716 353.205574 
L 412.95717 353.210367 
L 421.616625 353.20711 
L 430.27608 353.209175 
L 438.935534 353.208037 
L 447.594989 353.204647 
L 456.254443 353.209228 
L 464.913898 353.208195 
L 473.573352 353.207242 
L 482.232807 353.208858 
L 490.892261 353.20989 
L 499.551716 353.210261 
L 508.21117 353.210791 
L 516.870625 353.210367 
L 525.53008 353.208566 
L 534.189534 353.211188 
L 542.848989 353.210049 
L 551.508443 353.209758 
L 560.167898 353.211956 
L 568.827352 353.214472 
L 577.486807 353.207374 
L 586.146261 353.213545 
L 594.805716 353.213148 
L 603.46517 353.213545 
L 612.124625 353.20997 
L 620.78408 353.213519 
L 629.443534 353.212724 
L 638.102989 353.211426 
L 646.762443 353.212698 
L 655.421898 353.21471 
L 664.081352 353.209573 
L 672.740807 353.212274 
L 681.400261 353.215982 
L 690.059716 353.213307 
L 698.71917 353.211453 
L 707.378625 353.216458 
L 716.03808 353.215849 
L 724.697534 353.206315 
L 733.356989 353.217676 
L 742.016443 353.211135 
L 750.675898 353.210632 
L 759.335352 353.213916 
L 767.994807 353.207613 
L 776.654261 353.2123 
L 785.313716 353.212088 
L 793.97317 353.21373 
L 802.632625 353.211162 
L 811.29208 353.213174 
L 819.951534 353.211003 
L 828.610989 353.212247 
L 837.270443 353.207322 
L 845.929898 353.212671 
L 854.589352 353.210182 
L 863.248807 353.210155 
L 871.908261 353.21569 
L 880.567716 353.213386 
L 889.22717 353.214101 
L 897.886625 353.213439 
L 906.54608 353.21283 
L 915.205534 353.215028 
L 923.864989 353.199032 
L 932.524443 353.208116 
L 941.183898 353.191114 
L 949.843352 352.814469 
" clip-path="url(#pd1df262b83)" style="fill: none; stroke: #f15c80; stroke-linecap: square"/>
   </g>
   <g id="line2d_14">
    <path d="M 83.897898 129.090292 
L 92.557352 286.28012 
L 101.216807 329.58895 
L 109.876261 352.578636 
L 118.535716 351.916688 
L 127.19517 353.16042 
L 135.854625 353.053322 
L 144.51408 353.190213 
L 153.173534 353.104487 
L 161.832989 353.094053 
L 170.492443 353.064921 
L 179.151898 353.209175 
L 187.811352 353.189975 
L 196.470807 353.209069 
L 205.130261 353.181818 
L 213.789716 353.186823 
L 222.44917 353.200198 
L 231.108625 353.194689 
L 239.76808 353.199562 
L 248.427534 353.20176 
L 257.086989 353.197708 
L 265.746443 353.199694 
L 274.405898 353.190611 
L 283.065352 353.204806 
L 291.724807 353.202025 
L 300.384261 353.208354 
L 309.043716 353.207189 
L 317.70317 353.200224 
L 326.362625 353.201734 
L 335.02208 353.163995 
L 343.681534 353.205733 
L 352.340989 353.207216 
L 361.000443 353.207189 
L 369.659898 353.210367 
L 378.319352 353.20756 
L 386.978807 353.214287 
L 395.638261 353.210314 
L 404.297716 353.21328 
L 412.95717 353.214498 
L 421.616625 353.211453 
L 430.27608 353.214843 
L 438.935534 353.210155 
L 447.594989 353.206289 
L 456.254443 353.213995 
L 464.913898 353.215531 
L 473.573352 353.214234 
L 482.232807 353.214498 
L 490.892261 353.212327 
L 499.551716 353.212724 
L 508.21117 353.215028 
L 516.870625 353.212194 
L 525.53008 353.211532 
L 534.189534 353.21577 
L 542.848989 353.211771 
L 551.508443 353.212194 
L 560.167898 353.212936 
L 568.827352 353.216326 
L 577.486807 353.203932 
L 586.146261 353.214154 
L 594.805716 353.215849 
L 603.46517 353.215055 
L 612.124625 353.21434 
L 620.78408 353.21328 
L 629.443534 353.213836 
L 638.102989 353.21193 
L 646.762443 353.214154 
L 655.421898 353.214869 
L 664.081352 353.211479 
L 672.740807 353.212909 
L 681.400261 353.214101 
L 690.059716 353.214922 
L 698.71917 353.207798 
L 707.378625 353.217173 
L 716.03808 353.216988 
L 724.697534 353.206924 
L 733.356989 353.217676 
L 742.016443 353.211797 
L 750.675898 353.212353 
L 759.335352 353.215478 
L 767.994807 353.210711 
L 776.654261 353.212856 
L 785.313716 353.214393 
L 793.97317 353.211691 
L 802.632625 353.213995 
L 811.29208 353.213201 
L 819.951534 353.214101 
L 828.610989 353.2123 
L 837.270443 353.211426 
L 845.929898 353.212962 
L 854.589352 353.212618 
L 863.248807 353.212274 
L 871.908261 353.216352 
L 880.567716 353.212698 
L 889.22717 353.213174 
L 897.886625 353.215902 
L 906.54608 353.211479 
L 915.205534 353.215108 
L 923.864989 353.202581 
L 932.524443 353.210552 
L 941.183898 353.20131 
L 949.843352 353.056314 
" clip-path="url(#pd1df262b83)" style="fill: none; stroke: #e4d354; stroke-linecap: square"/>
   </g>
   <g id="line2d_15">
    <path d="M 83.897898 93.028806 
L 92.557352 276.109213 
L 101.216807 325.751558 
L 109.876261 352.391665 
L 118.535716 351.693117 
L 127.19517 353.135102 
L 135.854625 353.016669 
L 144.51408 353.179435 
L 153.173534 353.042861 
L 161.832989 353.013464 
L 170.492443 353.011955 
L 179.151898 353.202872 
L 187.811352 353.151389 
L 196.470807 353.204329 
L 205.130261 353.135923 
L 213.789716 353.165081 
L 222.44917 353.178322 
L 231.108625 353.171225 
L 239.76808 353.184043 
L 248.427534 353.185632 
L 257.086989 353.181633 
L 265.746443 353.188068 
L 274.405898 353.170192 
L 283.065352 353.188068 
L 291.724807 353.187406 
L 300.384261 353.198556 
L 309.043716 353.190187 
L 317.70317 353.194027 
L 326.362625 353.196199 
L 335.02208 353.197576 
L 343.681534 353.194027 
L 352.340989 353.191458 
L 361.000443 353.192862 
L 369.659898 353.206527 
L 378.319352 353.207904 
L 386.978807 353.210394 
L 395.638261 353.204885 
L 404.297716 353.208672 
L 412.95717 353.21132 
L 421.616625 353.206977 
L 430.27608 353.208884 
L 438.935534 353.203058 
L 447.594989 353.1998 
L 456.254443 353.209546 
L 464.913898 353.208063 
L 473.573352 353.204117 
L 482.232807 353.209255 
L 490.892261 353.209281 
L 499.551716 353.210261 
L 508.21117 353.211506 
L 516.870625 353.209069 
L 525.53008 353.207083 
L 534.189534 353.212936 
L 542.848989 353.20952 
L 551.508443 353.211109 
L 560.167898 353.211506 
L 568.827352 353.213677 
L 577.486807 353.200939 
L 586.146261 353.212327 
L 594.805716 353.21336 
L 603.46517 353.212539 
L 612.124625 353.213174 
L 620.78408 353.213148 
L 629.443534 353.211956 
L 638.102989 353.210923 
L 646.762443 353.213042 
L 655.421898 353.212565 
L 664.081352 353.210923 
L 672.740807 353.213201 
L 681.400261 353.213942 
L 690.059716 353.215161 
L 698.71917 353.208169 
L 707.378625 353.216299 
L 716.03808 353.21667 
L 724.697534 353.20462 
L 733.356989 353.216564 
L 742.016443 353.210632 
L 750.675898 353.211241 
L 759.335352 353.21524 
L 767.994807 353.208963 
L 776.654261 353.21132 
L 785.313716 353.213121 
L 793.97317 353.211373 
L 802.632625 353.211215 
L 811.29208 353.214154 
L 819.951534 353.213519 
L 828.610989 353.2114 
L 837.270443 353.207719 
L 845.929898 353.211983 
L 854.589352 353.211638 
L 863.248807 353.210897 
L 871.908261 353.21524 
L 880.567716 353.212856 
L 889.22717 353.211956 
L 897.886625 353.215161 
L 906.54608 353.210605 
L 915.205534 353.214631 
L 923.864989 353.199959 
L 932.524443 353.207878 
L 941.183898 353.190187 
L 949.843352 352.678637 
" clip-path="url(#pd1df262b83)" style="fill: none; stroke: #2b908f; stroke-linecap: square"/>
   </g>
   <g id="line2d_16">
    <path d="M 83.897898 90.867987 
L 92.557352 275.654178 
L 101.216807 325.489639 
L 109.876261 352.431337 
L 118.535716 351.694044 
L 127.19517 353.140902 
L 135.854625 353.016245 
L 144.51408 353.179143 
L 153.173534 353.046595 
L 161.832989 353.015901 
L 170.492443 353.029116 
L 179.151898 353.202396 
L 187.811352 353.164472 
L 196.470807 353.202793 
L 205.130261 353.144689 
L 213.789716 353.170934 
L 222.44917 353.183328 
L 231.108625 353.172814 
L 239.76808 353.185023 
L 248.427534 353.187909 
L 257.086989 353.182983 
L 265.746443 353.187327 
L 274.405898 353.172099 
L 283.065352 353.18738 
L 291.724807 353.188307 
L 300.384261 353.199774 
L 309.043716 353.193418 
L 317.70317 353.197602 
L 326.362625 353.194292 
L 335.02208 353.194133 
L 343.681534 353.192782 
L 352.340989 353.18979 
L 361.000443 353.193921 
L 369.659898 353.20613 
L 378.319352 353.208487 
L 386.978807 353.207719 
L 395.638261 353.205521 
L 404.297716 353.204832 
L 412.95717 353.210023 
L 421.616625 353.20417 
L 430.27608 353.20952 
L 438.935534 353.202078 
L 447.594989 353.200303 
L 456.254443 353.206474 
L 464.913898 353.207639 
L 473.573352 353.207427 
L 482.232807 353.210182 
L 490.892261 353.209864 
L 499.551716 353.207984 
L 508.21117 353.212645 
L 516.870625 353.208619 
L 525.53008 353.210738 
L 534.189534 353.212194 
L 542.848989 353.212856 
L 551.508443 353.209334 
L 560.167898 353.211983 
L 568.827352 353.214234 
L 577.486807 353.200462 
L 586.146261 353.213333 
L 594.805716 353.211665 
L 603.46517 353.212433 
L 612.124625 353.213307 
L 620.78408 353.213042 
L 629.443534 353.212804 
L 638.102989 353.210605 
L 646.762443 353.212698 
L 655.421898 353.212168 
L 664.081352 353.208831 
L 672.740807 353.211956 
L 681.400261 353.212512 
L 690.059716 353.212962 
L 698.71917 353.209308 
L 707.378625 353.214551 
L 716.03808 353.21675 
L 724.697534 353.202687 
L 733.356989 353.217173 
L 742.016443 353.210076 
L 750.675898 353.211268 
L 759.335352 353.213545 
L 767.994807 353.209917 
L 776.654261 353.212353 
L 785.313716 353.212274 
L 793.97317 353.211506 
L 802.632625 353.210817 
L 811.29208 353.211585 
L 819.951534 353.212962 
L 828.610989 353.211479 
L 837.270443 353.208884 
L 845.929898 353.21238 
L 854.589352 353.212036 
L 863.248807 353.211532 
L 871.908261 353.213466 
L 880.567716 353.210817 
L 889.22717 353.212936 
L 897.886625 353.21479 
L 906.54608 353.212618 
L 915.205534 353.214498 
L 923.864989 353.202396 
L 932.524443 353.20748 
L 941.183898 353.192147 
L 949.843352 352.851599 
" clip-path="url(#pd1df262b83)" style="fill: none; stroke: #f45b5b; stroke-linecap: square"/>
   </g>
   <g id="line2d_17">
    <path d="M 83.897898 50.397045 
L 92.557352 263.874283 
L 101.216807 321.032381 
L 109.876261 352.165286 
L 118.535716 351.56131 
L 127.19517 353.140902 
L 135.854625 352.974004 
L 144.51408 353.176204 
L 153.173534 353.068655 
L 161.832989 353.039789 
L 170.492443 352.978904 
L 179.151898 353.204196 
L 187.811352 353.169556 
L 196.470807 353.206792 
L 205.130261 353.155679 
L 213.789716 353.178561 
L 222.44917 353.187671 
L 231.108625 353.181394 
L 239.76808 353.1922 
L 248.427534 353.195669 
L 257.086989 353.18836 
L 265.746443 353.194371 
L 274.405898 353.180891 
L 283.065352 353.194742 
L 291.724807 353.197152 
L 300.384261 353.204091 
L 309.043716 353.199615 
L 317.70317 353.199297 
L 326.362625 353.201813 
L 335.02208 353.199138 
L 343.681534 353.202051 
L 352.340989 353.204567 
L 361.000443 353.205918 
L 369.659898 353.208222 
L 378.319352 353.202369 
L 386.978807 353.206686 
L 395.638261 353.210367 
L 404.297716 353.208487 
L 412.95717 353.209837 
L 421.616625 353.20952 
L 430.27608 353.207719 
L 438.935534 353.20891 
L 447.594989 353.206977 
L 456.254443 353.213068 
L 464.913898 353.211638 
L 473.573352 353.207772 
L 482.232807 353.209334 
L 490.892261 353.209149 
L 499.551716 353.211744 
L 508.21117 353.213068 
L 516.870625 353.210261 
L 525.53008 353.210076 
L 534.189534 353.213413 
L 542.848989 353.210844 
L 551.508443 353.210552 
L 560.167898 353.211532 
L 568.827352 353.215002 
L 577.486807 353.209493 
L 586.146261 353.21479 
L 594.805716 353.213889 
L 603.46517 353.21381 
L 612.124625 353.213333 
L 620.78408 353.213916 
L 629.443534 353.214366 
L 638.102989 353.212592 
L 646.762443 353.214498 
L 655.421898 353.214075 
L 664.081352 353.209043 
L 672.740807 353.211691 
L 681.400261 353.213598 
L 690.059716 353.213386 
L 698.71917 353.211029 
L 707.378625 353.216193 
L 716.03808 353.215982 
L 724.697534 353.208699 
L 733.356989 353.219504 
L 742.016443 353.211877 
L 750.675898 353.211877 
L 759.335352 353.21434 
L 767.994807 353.209202 
L 776.654261 353.212194 
L 785.313716 353.21471 
L 793.97317 353.214816 
L 802.632625 353.213863 
L 811.29208 353.212962 
L 819.951534 353.210658 
L 828.610989 353.213227 
L 837.270443 353.21095 
L 845.929898 353.213519 
L 854.589352 353.211903 
L 863.248807 353.209255 
L 871.908261 353.215425 
L 880.567716 353.213307 
L 889.22717 353.214154 
L 897.886625 353.215187 
L 906.54608 353.210367 
L 915.205534 353.214154 
L 923.864989 353.199721 
L 932.524443 353.210738 
L 941.183898 353.193365 
L 949.843352 352.765184 
" clip-path="url(#pd1df262b83)" style="fill: none; stroke: #91e8e1; stroke-linecap: square"/>
   </g>
   <g id="line2d_18">
    <path d="M 83.897898 104.81323 
L 92.557352 280.518563 
L 101.216807 326.991556 
L 109.876261 352.329323 
L 118.535716 351.840787 
L 127.19517 353.15176 
L 135.854625 353.020191 
L 144.51408 353.185049 
L 153.173534 353.084466 
L 161.832989 353.063253 
L 170.492443 353.003136 
L 179.151898 353.206024 
L 187.811352 353.170775 
L 196.470807 353.209467 
L 205.130261 353.153825 
L 213.789716 353.1797 
L 222.44917 353.186241 
L 231.108625 353.179117 
L 239.76808 353.195616 
L 248.427534 353.195748 
L 257.086989 353.191564 
L 265.746443 353.197523 
L 274.405898 353.1864 
L 283.065352 353.194742 
L 291.724807 353.196516 
L 300.384261 353.204594 
L 309.043716 353.199377 
L 317.70317 353.204355 
L 326.362625 353.20462 
L 335.02208 353.205362 
L 343.681534 353.204726 
L 352.340989 353.202925 
L 361.000443 353.205176 
L 369.659898 353.211559 
L 378.319352 353.208354 
L 386.978807 353.205838 
L 395.638261 353.211056 
L 404.297716 353.212751 
L 412.95717 353.213572 
L 421.616625 353.212671 
L 430.27608 353.213201 
L 438.935534 353.211188 
L 447.594989 353.208328 
L 456.254443 353.212459 
L 464.913898 353.212856 
L 473.573352 353.211188 
L 482.232807 353.21328 
L 490.892261 353.214022 
L 499.551716 353.213201 
L 508.21117 353.215108 
L 516.870625 353.214604 
L 525.53008 353.213201 
L 534.189534 353.215849 
L 542.848989 353.21373 
L 551.508443 353.215187 
L 560.167898 353.214869 
L 568.827352 353.216855 
L 577.486807 353.211479 
L 586.146261 353.215214 
L 594.805716 353.215743 
L 603.46517 353.216829 
L 612.124625 353.213704 
L 620.78408 353.216087 
L 629.443534 353.216591 
L 638.102989 353.21479 
L 646.762443 353.215982 
L 655.421898 353.216326 
L 664.081352 353.212751 
L 672.740807 353.215531 
L 681.400261 353.217226 
L 690.059716 353.217041 
L 698.71917 353.212671 
L 707.378625 353.218021 
L 716.03808 353.217412 
L 724.697534 353.210711 
L 733.356989 353.21863 
L 742.016443 353.213386 
L 750.675898 353.214472 
L 759.335352 353.216697 
L 767.994807 353.210526 
L 776.654261 353.215187 
L 785.313716 353.216379 
L 793.97317 353.216855 
L 802.632625 353.215558 
L 811.29208 353.215796 
L 819.951534 353.213572 
L 828.610989 353.215214 
L 837.270443 353.21042 
L 845.929898 353.217041 
L 854.589352 353.214763 
L 863.248807 353.212883 
L 871.908261 353.2172 
L 880.567716 353.214393 
L 889.22717 353.216114 
L 897.886625 353.217412 
L 906.54608 353.213625 
L 915.205534 353.216326 
L 923.864989 353.205415 
L 932.524443 353.213095 
L 941.183898 353.200939 
L 949.843352 352.963835 
" clip-path="url(#pd1df262b83)" style="fill: none; stroke: #7cb5ec; stroke-linecap: square"/>
   </g>
   <g id="line2d_19">
    <path d="M 83.897898 89.310324 
L 92.557352 286.328769 
L 101.216807 328.501284 
L 109.876261 352.324159 
L 118.535716 351.934035 
L 127.19517 353.143365 
L 135.854625 353.042305 
L 144.51408 353.188492 
L 153.173534 353.079381 
L 161.832989 353.060499 
L 170.492443 353.018205 
L 179.151898 353.207136 
L 187.811352 353.16765 
L 196.470807 353.209679 
L 205.130261 353.142411 
L 213.789716 353.175939 
L 222.44917 353.17917 
L 231.108625 353.176257 
L 239.76808 353.188889 
L 248.427534 353.192226 
L 257.086989 353.18632 
L 265.746443 353.1931 
L 274.405898 353.178587 
L 283.065352 353.190293 
L 291.724807 353.190584 
L 300.384261 353.197999 
L 309.043716 353.188863 
L 317.70317 353.193762 
L 326.362625 353.193524 
L 335.02208 353.191432 
L 343.681534 353.194663 
L 352.340989 353.19935 
L 361.000443 353.198211 
L 369.659898 353.188545 
L 378.319352 353.173926 
L 386.978807 353.204514 
L 395.638261 353.212565 
L 404.297716 353.209016 
L 412.95717 353.203693 
L 421.616625 353.210685 
L 430.27608 353.212592 
L 438.935534 353.213995 
L 447.594989 353.203958 
L 456.254443 353.207692 
L 464.913898 353.203508 
L 473.573352 353.198661 
L 482.232807 353.208063 
L 490.892261 353.210235 
L 499.551716 353.212962 
L 508.21117 353.210049 
L 516.870625 353.208725 
L 525.53008 353.206845 
L 534.189534 353.211956 
L 542.848989 353.209679 
L 551.508443 353.211479 
L 560.167898 353.213042 
L 568.827352 353.210844 
L 577.486807 353.20891 
L 586.146261 353.213545 
L 594.805716 353.21471 
L 603.46517 353.217067 
L 612.124625 353.212856 
L 620.78408 353.214525 
L 629.443534 353.217173 
L 638.102989 353.213413 
L 646.762443 353.214022 
L 655.421898 353.21471 
L 664.081352 353.211241 
L 672.740807 353.214075 
L 681.400261 353.216458 
L 690.059716 353.215293 
L 698.71917 353.21373 
L 707.378625 353.217041 
L 716.03808 353.217703 
L 724.697534 353.211347 
L 733.356989 353.219875 
L 742.016443 353.21373 
L 750.675898 353.214313 
L 759.335352 353.216829 
L 767.994807 353.212194 
L 776.654261 353.214472 
L 785.313716 353.216352 
L 793.97317 353.216776 
L 802.632625 353.216008 
L 811.29208 353.216511 
L 819.951534 353.213439 
L 828.610989 353.216723 
L 837.270443 353.213413 
L 845.929898 353.216273 
L 854.589352 353.215346 
L 863.248807 353.211744 
L 871.908261 353.215584 
L 880.567716 353.214287 
L 889.22717 353.215611 
L 897.886625 353.216405 
L 906.54608 353.213307 
L 915.205534 353.214366 
L 923.864989 353.201416 
L 932.524443 353.213148 
L 941.183898 353.185632 
L 949.843352 352.386659 
" clip-path="url(#pd1df262b83)" style="fill: none; stroke: #434348; stroke-linecap: square"/>
   </g>
   <g id="line2d_20">
    <path d="M 83.897898 94.362236 
L 92.557352 276.04123 
L 101.216807 326.072985 
L 109.876261 352.403609 
L 118.535716 351.646533 
L 127.19517 353.128587 
L 135.854625 352.997839 
L 144.51408 353.168259 
L 153.173534 353.02186 
L 161.832989 352.976732 
L 170.492443 352.980519 
L 179.151898 353.198741 
L 187.811352 353.141458 
L 196.470807 353.197443 
L 205.130261 353.109201 
L 213.789716 353.148079 
L 222.44917 353.165796 
L 231.108625 353.150621 
L 239.76808 353.171357 
L 248.427534 353.173767 
L 257.086989 353.168365 
L 265.746443 353.177342 
L 274.405898 353.156421 
L 283.065352 353.173953 
L 291.724807 353.172708 
L 300.384261 353.190558 
L 309.043716 353.176998 
L 317.70317 353.183169 
L 326.362625 353.175144 
L 335.02208 353.114922 
L 343.681534 353.18497 
L 352.340989 353.181103 
L 361.000443 353.188227 
L 369.659898 353.193126 
L 378.319352 353.19739 
L 386.978807 353.205415 
L 395.638261 353.20417 
L 404.297716 353.201813 
L 412.95717 353.197125 
L 421.616625 353.198291 
L 430.27608 353.206845 
L 438.935534 353.202899 
L 447.594989 353.196119 
L 456.254443 353.202978 
L 464.913898 353.19792 
L 473.573352 353.199165 
L 482.232807 353.202475 
L 490.892261 353.2056 
L 499.551716 353.204964 
L 508.21117 353.205918 
L 516.870625 353.203084 
L 525.53008 353.204753 
L 534.189534 353.207242 
L 542.848989 353.208884 
L 551.508443 353.208195 
L 560.167898 353.209864 
L 568.827352 353.212036 
L 577.486807 353.202634 
L 586.146261 353.211268 
L 594.805716 353.213015 
L 603.46517 353.212645 
L 612.124625 353.210579 
L 620.78408 353.211347 
L 629.443534 353.212406 
L 638.102989 353.207957 
L 646.762443 353.212592 
L 655.421898 353.211426 
L 664.081352 353.20952 
L 672.740807 353.213439 
L 681.400261 353.212883 
L 690.059716 353.212512 
L 698.71917 353.20801 
L 707.378625 353.214498 
L 716.03808 353.213783 
L 724.697534 353.206183 
L 733.356989 353.215717 
L 742.016443 353.211532 
L 750.675898 353.210288 
L 759.335352 353.213545 
L 767.994807 353.210288 
L 776.654261 353.211638 
L 785.313716 353.213783 
L 793.97317 353.21132 
L 802.632625 353.21185 
L 811.29208 353.213333 
L 819.951534 353.210394 
L 828.610989 353.211771 
L 837.270443 353.20997 
L 845.929898 353.211453 
L 854.589352 353.21193 
L 863.248807 353.214022 
L 871.908261 353.213889 
L 880.567716 353.21042 
L 889.22717 353.212459 
L 897.886625 353.215187 
L 906.54608 353.210632 
L 915.205534 353.213677 
L 923.864989 353.198873 
L 932.524443 353.204461 
L 941.183898 353.169239 
L 949.843352 351.509932 
" clip-path="url(#pd1df262b83)" style="fill: none; stroke: #90ed7d; stroke-linecap: square"/>
   </g>
   <g id="line2d_21">
    <path d="M 83.897898 100.864211 
L 92.557352 277.716108 
L 101.216807 326.266524 
L 109.876261 352.391983 
L 118.535716 351.738191 
L 127.19517 353.137909 
L 135.854625 353.019714 
L 144.51408 353.177713 
L 153.173534 353.05017 
L 161.832989 353.009412 
L 170.492443 352.998766 
L 179.151898 353.203852 
L 187.811352 353.158751 
L 196.470807 353.205997 
L 205.130261 353.137432 
L 213.789716 353.168285 
L 222.44917 353.180573 
L 231.108625 353.172019 
L 239.76808 353.185049 
L 248.427534 353.18534 
L 257.086989 353.180547 
L 265.746443 353.188042 
L 274.405898 353.171993 
L 283.065352 353.185976 
L 291.724807 353.189128 
L 300.384261 353.199165 
L 309.043716 353.192067 
L 317.70317 353.190717 
L 326.362625 353.197629 
L 335.02208 353.202899 
L 343.681534 353.194053 
L 352.340989 353.193762 
L 361.000443 353.198397 
L 369.659898 353.207692 
L 378.319352 353.206236 
L 386.978807 353.204435 
L 395.638261 353.203932 
L 404.297716 353.203243 
L 412.95717 353.210182 
L 421.616625 353.210658 
L 430.27608 353.211029 
L 438.935534 353.206659 
L 447.594989 353.202263 
L 456.254443 353.207666 
L 464.913898 353.207957 
L 473.573352 353.206739 
L 482.232807 353.208248 
L 490.892261 353.210711 
L 499.551716 353.209202 
L 508.21117 353.210367 
L 516.870625 353.208752 
L 525.53008 353.208831 
L 534.189534 353.212486 
L 542.848989 353.210155 
L 551.508443 353.212247 
L 560.167898 353.210499 
L 568.827352 353.21524 
L 577.486807 353.203217 
L 586.146261 353.213942 
L 594.805716 353.214604 
L 603.46517 353.214763 
L 612.124625 353.212459 
L 620.78408 353.213068 
L 629.443534 353.21336 
L 638.102989 353.209679 
L 646.762443 353.213783 
L 655.421898 353.212618 
L 664.081352 353.210235 
L 672.740807 353.213413 
L 681.400261 353.213625 
L 690.059716 353.214763 
L 698.71917 353.209149 
L 707.378625 353.217041 
L 716.03808 353.215187 
L 724.697534 353.205521 
L 733.356989 353.217571 
L 742.016443 353.211479 
L 750.675898 353.213492 
L 759.335352 353.214525 
L 767.994807 353.2114 
L 776.654261 353.212406 
L 785.313716 353.214551 
L 793.97317 353.212274 
L 802.632625 353.212221 
L 811.29208 353.214022 
L 819.951534 353.214181 
L 828.610989 353.212909 
L 837.270443 353.210049 
L 845.929898 353.213174 
L 854.589352 353.211956 
L 863.248807 353.212194 
L 871.908261 353.216485 
L 880.567716 353.212804 
L 889.22717 353.213677 
L 897.886625 353.216114 
L 906.54608 353.2123 
L 915.205534 353.216326 
L 923.864989 353.204964 
L 932.524443 353.208063 
L 941.183898 353.189233 
L 949.843352 352.680067 
" clip-path="url(#pd1df262b83)" style="fill: none; stroke: #f7a35c; stroke-linecap: square"/>
   </g>
   <g id="line2d_22">
    <path d="M 83.897898 75.72806 
L 92.557352 270.964291 
L 101.216807 323.776493 
L 109.876261 352.320928 
L 118.535716 351.627306 
L 127.19517 353.132189 
L 135.854625 352.99535 
L 144.51408 353.177634 
L 153.173534 353.038623 
L 161.832989 353.000911 
L 170.492443 352.978665 
L 179.151898 353.199191 
L 187.811352 353.145933 
L 196.470807 353.202793 
L 205.130261 353.123793 
L 213.789716 353.155414 
L 222.44917 353.167305 
L 231.108625 353.156421 
L 239.76808 353.177766 
L 248.427534 353.176045 
L 257.086989 353.172443 
L 265.746443 353.183222 
L 274.405898 353.156288 
L 283.065352 353.177448 
L 291.724807 353.17774 
L 300.384261 353.191643 
L 309.043716 353.180891 
L 317.70317 353.191326 
L 326.362625 353.187644 
L 335.02208 353.193259 
L 343.681534 353.187009 
L 352.340989 353.189313 
L 361.000443 353.195298 
L 369.659898 353.199006 
L 378.319352 353.196649 
L 386.978807 353.203508 
L 395.638261 353.196119 
L 404.297716 353.202184 
L 412.95717 353.201601 
L 421.616625 353.2056 
L 430.27608 353.206474 
L 438.935534 353.20266 
L 447.594989 353.198556 
L 456.254443 353.204647 
L 464.913898 353.201336 
L 473.573352 353.202104 
L 482.232807 353.204859 
L 490.892261 353.206501 
L 499.551716 353.208328 
L 508.21117 353.20711 
L 516.870625 353.207242 
L 525.53008 353.208752 
L 534.189534 353.21238 
L 542.848989 353.210711 
L 551.508443 353.208619 
L 560.167898 353.210235 
L 568.827352 353.213625 
L 577.486807 353.200198 
L 586.146261 353.210817 
L 594.805716 353.213492 
L 603.46517 353.211188 
L 612.124625 353.209016 
L 620.78408 353.210579 
L 629.443534 353.212856 
L 638.102989 353.208301 
L 646.762443 353.212592 
L 655.421898 353.212671 
L 664.081352 353.207878 
L 672.740807 353.211744 
L 681.400261 353.213492 
L 690.059716 353.213836 
L 698.71917 353.207878 
L 707.378625 353.215081 
L 716.03808 353.214869 
L 724.697534 353.202925 
L 733.356989 353.216908 
L 742.016443 353.211877 
L 750.675898 353.212909 
L 759.335352 353.213995 
L 767.994807 353.210129 
L 776.654261 353.210526 
L 785.313716 353.213095 
L 793.97317 353.212406 
L 802.632625 353.211956 
L 811.29208 353.212141 
L 819.951534 353.210261 
L 828.610989 353.210049 
L 837.270443 353.209043 
L 845.929898 353.211215 
L 854.589352 353.211373 
L 863.248807 353.212036 
L 871.908261 353.214181 
L 880.567716 353.208778 
L 889.22717 353.211797 
L 897.886625 353.215796 
L 906.54608 353.211585 
L 915.205534 353.214393 
L 923.864989 353.201151 
L 932.524443 353.208884 
L 941.183898 353.186771 
L 949.843352 352.646089 
" clip-path="url(#pd1df262b83)" style="fill: none; stroke: #8085e9; stroke-linecap: square"/>
   </g>
   <g id="line2d_23">
    <path d="M 83.897898 124.725248 
L 92.557352 285.996511 
L 101.216807 328.931902 
L 109.876261 352.295266 
L 118.535716 352.016795 
L 127.19517 353.164207 
L 135.854625 353.053772 
L 144.51408 353.190478 
L 153.173534 353.114233 
L 161.832989 353.105467 
L 170.492443 352.979169 
L 179.151898 353.21095 
L 187.811352 353.189286 
L 196.470807 353.212141 
L 205.130261 353.183248 
L 213.789716 353.19159 
L 222.44917 353.198794 
L 231.108625 353.192676 
L 239.76808 353.203428 
L 248.427534 353.205044 
L 257.086989 353.201707 
L 265.746443 353.204064 
L 274.405898 353.195325 
L 283.065352 353.203905 
L 291.724807 353.204859 
L 300.384261 353.213095 
L 309.043716 353.207851 
L 317.70317 353.206765 
L 326.362625 353.208566 
L 335.02208 353.205733 
L 343.681534 353.210367 
L 352.340989 353.210208 
L 361.000443 353.21193 
L 369.659898 353.212804 
L 378.319352 353.210314 
L 386.978807 353.211135 
L 395.638261 353.213386 
L 404.297716 353.214366 
L 412.95717 353.214631 
L 421.616625 353.21381 
L 430.27608 353.216167 
L 438.935534 353.211824 
L 447.594989 353.21328 
L 456.254443 353.216591 
L 464.913898 353.215293 
L 473.573352 353.215531 
L 482.232807 353.215664 
L 490.892261 353.216061 
L 499.551716 353.216458 
L 508.21117 353.216087 
L 516.870625 353.214551 
L 525.53008 353.214472 
L 534.189534 353.218471 
L 542.848989 353.216326 
L 551.508443 353.21667 
L 560.167898 353.216776 
L 568.827352 353.217518 
L 577.486807 353.211559 
L 586.146261 353.216458 
L 594.805716 353.216882 
L 603.46517 353.217041 
L 612.124625 353.216008 
L 620.78408 353.216246 
L 629.443534 353.216511 
L 638.102989 353.215823 
L 646.762443 353.21765 
L 655.421898 353.216829 
L 664.081352 353.213677 
L 672.740807 353.21712 
L 681.400261 353.217518 
L 690.059716 353.217067 
L 698.71917 353.214498 
L 707.378625 353.218656 
L 716.03808 353.218312 
L 724.697534 353.213598 
L 733.356989 353.219954 
L 742.016443 353.21675 
L 750.675898 353.215478 
L 759.335352 353.217994 
L 767.994807 353.213307 
L 776.654261 353.216617 
L 785.313716 353.216961 
L 793.97317 353.217279 
L 802.632625 353.216723 
L 811.29208 353.216617 
L 819.951534 353.215399 
L 828.610989 353.216935 
L 837.270443 353.214287 
L 845.929898 353.217756 
L 854.589352 353.215849 
L 863.248807 353.21614 
L 871.908261 353.217226 
L 880.567716 353.216087 
L 889.22717 353.21765 
L 897.886625 353.218418 
L 906.54608 353.21675 
L 915.205534 353.218153 
L 923.864989 353.208063 
L 932.524443 353.215134 
L 941.183898 353.2056 
L 949.843352 353.037326 
" clip-path="url(#pd1df262b83)" style="fill: none; stroke: #f15c80; stroke-linecap: square"/>
   </g>
   <g id="line2d_24">
    <path d="M 83.897898 76.04366 
L 92.557352 274.699537 
L 101.216807 324.82491 
L 109.876261 351.922276 
L 118.535716 351.748493 
L 127.19517 353.140319 
L 135.854625 352.993628 
L 144.51408 353.180759 
L 153.173534 353.06696 
L 161.832989 353.004089 
L 170.492443 352.782107 
L 179.151898 353.204302 
L 187.811352 353.142252 
L 196.470807 353.20846 
L 205.130261 353.118126 
L 213.789716 353.160261 
L 222.44917 353.170669 
L 231.108625 353.157533 
L 239.76808 353.180203 
L 248.427534 353.180865 
L 257.086989 353.17427 
L 265.746443 353.187221 
L 274.405898 353.158539 
L 283.065352 353.1797 
L 291.724807 353.183672 
L 300.384261 353.194901 
L 309.043716 353.182798 
L 317.70317 353.192094 
L 326.362625 353.184599 
L 335.02208 353.15552 
L 343.681534 353.193868 
L 352.340989 353.195351 
L 361.000443 353.193259 
L 369.659898 353.196755 
L 378.319352 353.199006 
L 386.978807 353.201601 
L 395.638261 353.200701 
L 404.297716 353.202237 
L 412.95717 353.202502 
L 421.616625 353.203084 
L 430.27608 353.20711 
L 438.935534 353.207189 
L 447.594989 353.206421 
L 456.254443 353.201416 
L 464.913898 353.196622 
L 473.573352 353.188598 
L 482.232807 353.199588 
L 490.892261 353.206739 
L 499.551716 353.211877 
L 508.21117 353.207798 
L 516.870625 353.207163 
L 525.53008 353.208195 
L 534.189534 353.212009 
L 542.848989 353.211691 
L 551.508443 353.215161 
L 560.167898 353.214631 
L 568.827352 353.218286 
L 577.486807 353.21185 
L 586.146261 353.217253 
L 594.805716 353.216511 
L 603.46517 353.217359 
L 612.124625 353.216776 
L 620.78408 353.217041 
L 629.443534 353.216617 
L 638.102989 353.21524 
L 646.762443 353.216988 
L 655.421898 353.214737 
L 664.081352 353.215214 
L 672.740807 353.216591 
L 681.400261 353.218497 
L 690.059716 353.216246 
L 698.71917 353.217226 
L 707.378625 353.21855 
L 716.03808 353.218391 
L 724.697534 353.213572 
L 733.356989 353.219928 
L 742.016443 353.216538 
L 750.675898 353.21675 
L 759.335352 353.218656 
L 767.994807 353.214419 
L 776.654261 353.21524 
L 785.313716 353.218762 
L 793.97317 353.21863 
L 802.632625 353.21479 
L 811.29208 353.216299 
L 819.951534 353.216961 
L 828.610989 353.217041 
L 837.270443 353.216935 
L 845.929898 353.216114 
L 854.589352 353.215902 
L 863.248807 353.215902 
L 871.908261 353.21675 
L 880.567716 353.217067 
L 889.22717 353.214896 
L 897.886625 353.216882 
L 906.54608 353.214869 
L 915.205534 353.21426 
L 923.864989 353.207586 
L 932.524443 353.210023 
L 941.183898 353.159228 
L 949.843352 351.371107 
" clip-path="url(#pd1df262b83)" style="fill: none; stroke: #e4d354; stroke-linecap: square"/>
   </g>
   <g id="line2d_25">
    <path d="M 83.897898 143.815598 
L 92.557352 291.455974 
L 101.216807 330.717083 
L 109.876261 352.483853 
L 118.535716 352.084062 
L 127.19517 353.170563 
L 135.854625 353.066749 
L 144.51408 353.190558 
L 153.173534 353.117146 
L 161.832989 353.121913 
L 170.492443 353.01365 
L 179.151898 353.212936 
L 187.811352 353.19159 
L 196.470807 353.212883 
L 205.130261 353.183328 
L 213.789716 353.19604 
L 222.44917 353.200277 
L 231.108625 353.19739 
L 239.76808 353.20658 
L 248.427534 353.206951 
L 257.086989 353.202952 
L 265.746443 353.205759 
L 274.405898 353.19604 
L 283.065352 353.205865 
L 291.724807 353.206236 
L 300.384261 353.210605 
L 309.043716 353.206686 
L 317.70317 353.208407 
L 326.362625 353.209361 
L 335.02208 353.208725 
L 343.681534 353.207957 
L 352.340989 353.207904 
L 361.000443 353.207613 
L 369.659898 353.212962 
L 378.319352 353.209917 
L 386.978807 353.212486 
L 395.638261 353.21238 
L 404.297716 353.213677 
L 412.95717 353.213545 
L 421.616625 353.212645 
L 430.27608 353.214207 
L 438.935534 353.213677 
L 447.594989 353.211903 
L 456.254443 353.213969 
L 464.913898 353.21042 
L 473.573352 353.213916 
L 482.232807 353.214896 
L 490.892261 353.214631 
L 499.551716 353.214234 
L 508.21117 353.216564 
L 516.870625 353.213625 
L 525.53008 353.214763 
L 534.189534 353.216114 
L 542.848989 353.215055 
L 551.508443 353.214816 
L 560.167898 353.215505 
L 568.827352 353.216882 
L 577.486807 353.212194 
L 586.146261 353.215399 
L 594.805716 353.215637 
L 603.46517 353.216908 
L 612.124625 353.213783 
L 620.78408 353.215982 
L 629.443534 353.215743 
L 638.102989 353.214631 
L 646.762443 353.216802 
L 655.421898 353.216379 
L 664.081352 353.21336 
L 672.740807 353.217306 
L 681.400261 353.216617 
L 690.059716 353.216829 
L 698.71917 353.214472 
L 707.378625 353.217518 
L 716.03808 353.218418 
L 724.697534 353.214313 
L 733.356989 353.219212 
L 742.016443 353.214843 
L 750.675898 353.215611 
L 759.335352 353.217888 
L 767.994807 353.213545 
L 776.654261 353.21471 
L 785.313716 353.216644 
L 793.97317 353.21622 
L 802.632625 353.216379 
L 811.29208 353.21614 
L 819.951534 353.216591 
L 828.610989 353.216723 
L 837.270443 353.214578 
L 845.929898 353.217067 
L 854.589352 353.215505 
L 863.248807 353.214975 
L 871.908261 353.217994 
L 880.567716 353.215478 
L 889.22717 353.217253 
L 897.886625 353.218339 
L 906.54608 353.215055 
L 915.205534 353.217173 
L 923.864989 353.210314 
L 932.524443 353.214101 
L 941.183898 353.203005 
L 949.843352 353.004089 
" clip-path="url(#pd1df262b83)" style="fill: none; stroke: #2b908f; stroke-linecap: square"/>
   </g>
   <g id="line2d_26">
    <path d="M 40.600625 353.2239 
L 993.140625 353.2239 
" clip-path="url(#pd1df262b83)" style="fill: none; stroke: #dedede; stroke-width: 2; stroke-linecap: square"/>
   </g>
   <g id="text_17">
    <!-- Cutadapt: Lengths of Trimmed Sequences (3' end) -->
    <g transform="translate(315.518125 19.3575) scale(0.16 -0.16)">
     <defs>
      <path id="DejaVuSans-61" d="M 2194 1759 
Q 1497 1759 1228 1600 
Q 959 1441 959 1056 
Q 959 750 1161 570 
Q 1363 391 1709 391 
Q 2188 391 2477 730 
Q 2766 1069 2766 1631 
L 2766 1759 
L 2194 1759 
z
M 3341 1997 
L 3341 0 
L 2766 0 
L 2766 531 
Q 2569 213 2275 61 
Q 1981 -91 1556 -91 
Q 1019 -91 701 211 
Q 384 513 384 1019 
Q 384 1609 779 1909 
Q 1175 2209 1959 2209 
L 2766 2209 
L 2766 2266 
Q 2766 2663 2505 2880 
Q 2244 3097 1772 3097 
Q 1472 3097 1187 3025 
Q 903 2953 641 2809 
L 641 3341 
Q 956 3463 1253 3523 
Q 1550 3584 1831 3584 
Q 2591 3584 2966 3190 
Q 3341 2797 3341 1997 
z
" transform="scale(0.015625)"/>
      <path id="DejaVuSans-3a" d="M 750 794 
L 1409 794 
L 1409 0 
L 750 0 
L 750 794 
z
M 750 3309 
L 1409 3309 
L 1409 2516 
L 750 2516 
L 750 3309 
z
" transform="scale(0.015625)"/>
      <path id="DejaVuSans-73" d="M 2834 3397 
L 2834 2853 
Q 2591 2978 2328 3040 
Q 2066 3103 1784 3103 
Q 1356 3103 1142 2972 
Q 928 2841 928 2578 
Q 928 2378 1081 2264 
Q 1234 2150 1697 2047 
L 1894 2003 
Q 2506 1872 2764 1633 
Q 3022 1394 3022 966 
Q 3022 478 2636 193 
Q 2250 -91 1575 -91 
Q 1294 -91 989 -36 
Q 684 19 347 128 
L 347 722 
Q 666 556 975 473 
Q 1284 391 1588 391 
Q 1994 391 2212 530 
Q 2431 669 2431 922 
Q 2431 1156 2273 1281 
Q 2116 1406 1581 1522 
L 1381 1569 
Q 847 1681 609 1914 
Q 372 2147 372 2553 
Q 372 3047 722 3315 
Q 1072 3584 1716 3584 
Q 2034 3584 2315 3537 
Q 2597 3491 2834 3397 
z
" transform="scale(0.015625)"/>
      <path id="DejaVuSans-66" d="M 2375 4863 
L 2375 4384 
L 1825 4384 
Q 1516 4384 1395 4259 
Q 1275 4134 1275 3809 
L 1275 3500 
L 2222 3500 
L 2222 3053 
L 1275 3053 
L 1275 0 
L 697 0 
L 697 3053 
L 147 3053 
L 147 3500 
L 697 3500 
L 697 3744 
Q 697 4328 969 4595 
Q 1241 4863 1831 4863 
L 2375 4863 
z
" transform="scale(0.015625)"/>
      <path id="DejaVuSans-53" d="M 3425 4513 
L 3425 3897 
Q 3066 4069 2747 4153 
Q 2428 4238 2131 4238 
Q 1616 4238 1336 4038 
Q 1056 3838 1056 3469 
Q 1056 3159 1242 3001 
Q 1428 2844 1947 2747 
L 2328 2669 
Q 3034 2534 3370 2195 
Q 3706 1856 3706 1288 
Q 3706 609 3251 259 
Q 2797 -91 1919 -91 
Q 1588 -91 1214 -16 
Q 841 59 441 206 
L 441 856 
Q 825 641 1194 531 
Q 1563 422 1919 422 
Q 2459 422 2753 634 
Q 3047 847 3047 1241 
Q 3047 1584 2836 1778 
Q 2625 1972 2144 2069 
L 1759 2144 
Q 1053 2284 737 2584 
Q 422 2884 422 3419 
Q 422 4038 858 4394 
Q 1294 4750 2059 4750 
Q 2388 4750 2728 4690 
Q 3069 4631 3425 4513 
z
" transform="scale(0.015625)"/>
      <path id="DejaVuSans-71" d="M 947 1747 
Q 947 1113 1208 752 
Q 1469 391 1925 391 
Q 2381 391 2643 752 
Q 2906 1113 2906 1747 
Q 2906 2381 2643 2742 
Q 2381 3103 1925 3103 
Q 1469 3103 1208 2742 
Q 947 2381 947 1747 
z
M 2906 525 
Q 2725 213 2448 61 
Q 2172 -91 1784 -91 
Q 1150 -91 751 415 
Q 353 922 353 1747 
Q 353 2572 751 3078 
Q 1150 3584 1784 3584 
Q 2172 3584 2448 3432 
Q 2725 3281 2906 2969 
L 2906 3500 
L 3481 3500 
L 3481 -1331 
L 2906 -1331 
L 2906 525 
z
" transform="scale(0.015625)"/>
      <path id="DejaVuSans-63" d="M 3122 3366 
L 3122 2828 
Q 2878 2963 2633 3030 
Q 2388 3097 2138 3097 
Q 1578 3097 1268 2742 
Q 959 2388 959 1747 
Q 959 1106 1268 751 
Q 1578 397 2138 397 
Q 2388 397 2633 464 
Q 2878 531 3122 666 
L 3122 134 
Q 2881 22 2623 -34 
Q 2366 -91 2075 -91 
Q 1284 -91 818 406 
Q 353 903 353 1747 
Q 353 2603 823 3093 
Q 1294 3584 2113 3584 
Q 2378 3584 2631 3529 
Q 2884 3475 3122 3366 
z
" transform="scale(0.015625)"/>
      <path id="DejaVuSans-33" d="M 2597 2516 
Q 3050 2419 3304 2112 
Q 3559 1806 3559 1356 
Q 3559 666 3084 287 
Q 2609 -91 1734 -91 
Q 1441 -91 1130 -33 
Q 819 25 488 141 
L 488 750 
Q 750 597 1062 519 
Q 1375 441 1716 441 
Q 2309 441 2620 675 
Q 2931 909 2931 1356 
Q 2931 1769 2642 2001 
Q 2353 2234 1838 2234 
L 1294 2234 
L 1294 2753 
L 1863 2753 
Q 2328 2753 2575 2939 
Q 2822 3125 2822 3475 
Q 2822 3834 2567 4026 
Q 2313 4219 1838 4219 
Q 1578 4219 1281 4162 
Q 984 4106 628 3988 
L 628 4550 
Q 988 4650 1302 4700 
Q 1616 4750 1894 4750 
Q 2613 4750 3031 4423 
Q 3450 4097 3450 3541 
Q 3450 3153 3228 2886 
Q 3006 2619 2597 2516 
z
" transform="scale(0.015625)"/>
      <path id="DejaVuSans-27" d="M 1147 4666 
L 1147 2931 
L 616 2931 
L 616 4666 
L 1147 4666 
z
" transform="scale(0.015625)"/>
     </defs>
     <use xlink:href="#DejaVuSans-43"/>
     <use xlink:href="#DejaVuSans-75" x="69.824219"/>
     <use xlink:href="#DejaVuSans-74" x="133.203125"/>
     <use xlink:href="#DejaVuSans-61" x="172.412109"/>
     <use xlink:href="#DejaVuSans-64" x="233.691406"/>
     <use xlink:href="#DejaVuSans-61" x="297.167969"/>
     <use xlink:href="#DejaVuSans-70" x="358.447266"/>
     <use xlink:href="#DejaVuSans-74" x="421.923828"/>
     <use xlink:href="#DejaVuSans-3a" x="461.132812"/>
     <use xlink:href="#DejaVuSans-20" x="494.824219"/>
     <use xlink:href="#DejaVuSans-4c" x="526.611328"/>
     <use xlink:href="#DejaVuSans-65" x="580.574219"/>
     <use xlink:href="#DejaVuSans-6e" x="642.097656"/>
     <use xlink:href="#DejaVuSans-67" x="705.476562"/>
     <use xlink:href="#DejaVuSans-74" x="768.953125"/>
     <use xlink:href="#DejaVuSans-68" x="808.162109"/>
     <use xlink:href="#DejaVuSans-73" x="871.541016"/>
     <use xlink:href="#DejaVuSans-20" x="923.640625"/>
     <use xlink:href="#DejaVuSans-6f" x="955.427734"/>
     <use xlink:href="#DejaVuSans-66" x="1016.609375"/>
     <use xlink:href="#DejaVuSans-20" x="1051.814453"/>
     <use xlink:href="#DejaVuSans-54" x="1083.601562"/>
     <use xlink:href="#DejaVuSans-72" x="1129.935547"/>
     <use xlink:href="#DejaVuSans-69" x="1171.048828"/>
     <use xlink:href="#DejaVuSans-6d" x="1198.832031"/>
     <use xlink:href="#DejaVuSans-6d" x="1296.244141"/>
     <use xlink:href="#DejaVuSans-65" x="1393.65625"/>
     <use xlink:href="#DejaVuSans-64" x="1455.179688"/>
     <use xlink:href="#DejaVuSans-20" x="1518.65625"/>
     <use xlink:href="#DejaVuSans-53" x="1550.443359"/>
     <use xlink:href="#DejaVuSans-65" x="1613.919922"/>
     <use xlink:href="#DejaVuSans-71" x="1675.443359"/>
     <use xlink:href="#DejaVuSans-75" x="1738.919922"/>
     <use xlink:href="#DejaVuSans-65" x="1802.298828"/>
     <use xlink:href="#DejaVuSans-6e" x="1863.822266"/>
     <use xlink:href="#DejaVuSans-63" x="1927.201172"/>
     <use xlink:href="#DejaVuSans-65" x="1982.181641"/>
     <use xlink:href="#DejaVuSans-73" x="2043.705078"/>
     <use xlink:href="#DejaVuSans-20" x="2095.804688"/>
     <use xlink:href="#DejaVuSans-28" x="2127.591797"/>
     <use xlink:href="#DejaVuSans-33" x="2166.605469"/>
     <use xlink:href="#DejaVuSans-27" x="2230.228516"/>
     <use xlink:href="#DejaVuSans-20" x="2257.71875"/>
     <use xlink:href="#DejaVuSans-65" x="2289.505859"/>
     <use xlink:href="#DejaVuSans-6e" x="2351.029297"/>
     <use xlink:href="#DejaVuSans-64" x="2414.408203"/>
     <use xlink:href="#DejaVuSans-29" x="2477.884766"/>
    </g>
   </g>
  </g>
 </g>
 <defs>
  <clipPath id="pd1df262b83">
   <rect x="40.600625" y="35.2559" width="952.54" height="317.968"/>
  </clipPath>
 </defs>
</svg>
