<?xml version="1.0" encoding="utf-8" standalone="no"?>
<!DOCTYPE svg PUBLIC "-//W3C//DTD SVG 1.1//EN"
  "http://www.w3.org/Graphics/SVG/1.1/DTD/svg11.dtd">
<svg xmlns:xlink="http://www.w3.org/1999/xlink" width="1000.358125pt" height="388.844525pt" viewBox="0 0 1000.358125 388.844525" xmlns="http://www.w3.org/2000/svg" version="1.1">
 <metadata>
  <rdf:RDF xmlns:dc="http://purl.org/dc/elements/1.1/" xmlns:cc="http://creativecommons.org/ns#" xmlns:rdf="http://www.w3.org/1999/02/22-rdf-syntax-ns#">
   <cc:Work>
    <dc:type rdf:resource="http://purl.org/dc/dcmitype/StillImage"/>
    <dc:date>2025-03-11T15:51:17.200314</dc:date>
    <dc:format>image/svg+xml</dc:format>
    <dc:creator>
     <cc:Agent>
      <dc:title>Matplotlib v3.8.2, https://matplotlib.org/</dc:title>
     </cc:Agent>
    </dc:creator>
   </cc:Work>
  </rdf:RDF>
 </metadata>
 <defs>
  <style type="text/css">*{stroke-linejoin: round; stroke-linecap: butt}</style>
 </defs>
 <g id="figure_1">
  <g id="axes_1">
   <g id="patch_1">
    <path d="M 32.968125 353.2239 
L 993.158125 353.2239 
L 993.158125 35.2559 
L 32.968125 35.2559 
z
" style="fill: #ffffff"/>
   </g>
   <g id="patch_2">
    <path d="M 32.968125 -918.6481 
L 993.158125 -918.6481 
L 993.158125 -6006.1361 
L 32.968125 -6006.1361 
z
" clip-path="url(#p9eb7645a6d)" style="fill: #e6c3c3"/>
   </g>
   <g id="patch_3">
    <path d="M 32.968125 35.2559 
L 993.158125 35.2559 
L 993.158125 -918.6481 
L 32.968125 -918.6481 
z
" clip-path="url(#p9eb7645a6d)" style="fill: #e6dcc3"/>
   </g>
   <g id="patch_4">
    <path d="M 32.968125 353.2239 
L 993.158125 353.2239 
L 993.158125 35.2559 
L 32.968125 35.2559 
z
" clip-path="url(#p9eb7645a6d)" style="fill: #c3e6c3"/>
   </g>
   <g id="matplotlib.axis_1">
    <g id="xtick_1">
     <g id="text_1">
      <!-- 0 -->
      <g transform="translate(30.423125 366.30265) scale(0.08 -0.08)">
       <defs>
        <path id="DejaVuSans-30" d="M 2034 4250 
Q 1547 4250 1301 3770 
Q 1056 3291 1056 2328 
Q 1056 1369 1301 889 
Q 1547 409 2034 409 
Q 2525 409 2770 889 
Q 3016 1369 3016 2328 
Q 3016 3291 2770 3770 
Q 2525 4250 2034 4250 
z
M 2034 4750 
Q 2819 4750 3233 4129 
Q 3647 3509 3647 2328 
Q 3647 1150 3233 529 
Q 2819 -91 2034 -91 
Q 1250 -91 836 529 
Q 422 1150 422 2328 
Q 422 3509 836 4129 
Q 1250 4750 2034 4750 
z
" transform="scale(0.015625)"/>
       </defs>
       <use xlink:href="#DejaVuSans-30"/>
      </g>
     </g>
    </g>
    <g id="xtick_2">
     <g id="text_2">
      <!-- 20 -->
      <g transform="translate(210.858592 366.30265) scale(0.08 -0.08)">
       <defs>
        <path id="DejaVuSans-32" d="M 1228 531 
L 3431 531 
L 3431 0 
L 469 0 
L 469 531 
Q 828 903 1448 1529 
Q 2069 2156 2228 2338 
Q 2531 2678 2651 2914 
Q 2772 3150 2772 3378 
Q 2772 3750 2511 3984 
Q 2250 4219 1831 4219 
Q 1534 4219 1204 4116 
Q 875 4013 500 3803 
L 500 4441 
Q 881 4594 1212 4672 
Q 1544 4750 1819 4750 
Q 2544 4750 2975 4387 
Q 3406 4025 3406 3419 
Q 3406 3131 3298 2873 
Q 3191 2616 2906 2266 
Q 2828 2175 2409 1742 
Q 1991 1309 1228 531 
z
" transform="scale(0.015625)"/>
       </defs>
       <use xlink:href="#DejaVuSans-32"/>
       <use xlink:href="#DejaVuSans-30" x="63.623047"/>
      </g>
     </g>
    </g>
    <g id="xtick_3">
     <g id="text_3">
      <!-- 40 -->
      <g transform="translate(393.839059 366.30265) scale(0.08 -0.08)">
       <defs>
        <path id="DejaVuSans-34" d="M 2419 4116 
L 825 1625 
L 2419 1625 
L 2419 4116 
z
M 2253 4666 
L 3047 4666 
L 3047 1625 
L 3713 1625 
L 3713 1100 
L 3047 1100 
L 3047 0 
L 2419 0 
L 2419 1100 
L 313 1100 
L 313 1709 
L 2253 4666 
z
" transform="scale(0.015625)"/>
       </defs>
       <use xlink:href="#DejaVuSans-34"/>
       <use xlink:href="#DejaVuSans-30" x="63.623047"/>
      </g>
     </g>
    </g>
    <g id="xtick_4">
     <g id="text_4">
      <!-- 60 -->
      <g transform="translate(576.819526 366.30265) scale(0.08 -0.08)">
       <defs>
        <path id="DejaVuSans-36" d="M 2113 2584 
Q 1688 2584 1439 2293 
Q 1191 2003 1191 1497 
Q 1191 994 1439 701 
Q 1688 409 2113 409 
Q 2538 409 2786 701 
Q 3034 994 3034 1497 
Q 3034 2003 2786 2293 
Q 2538 2584 2113 2584 
z
M 3366 4563 
L 3366 3988 
Q 3128 4100 2886 4159 
Q 2644 4219 2406 4219 
Q 1781 4219 1451 3797 
Q 1122 3375 1075 2522 
Q 1259 2794 1537 2939 
Q 1816 3084 2150 3084 
Q 2853 3084 3261 2657 
Q 3669 2231 3669 1497 
Q 3669 778 3244 343 
Q 2819 -91 2113 -91 
Q 1303 -91 875 529 
Q 447 1150 447 2328 
Q 447 3434 972 4092 
Q 1497 4750 2381 4750 
Q 2619 4750 2861 4703 
Q 3103 4656 3366 4563 
z
" transform="scale(0.015625)"/>
       </defs>
       <use xlink:href="#DejaVuSans-36"/>
       <use xlink:href="#DejaVuSans-30" x="63.623047"/>
      </g>
     </g>
    </g>
    <g id="xtick_5">
     <g id="text_5">
      <!-- 80 -->
      <g transform="translate(759.799993 366.30265) scale(0.08 -0.08)">
       <defs>
        <path id="DejaVuSans-38" d="M 2034 2216 
Q 1584 2216 1326 1975 
Q 1069 1734 1069 1313 
Q 1069 891 1326 650 
Q 1584 409 2034 409 
Q 2484 409 2743 651 
Q 3003 894 3003 1313 
Q 3003 1734 2745 1975 
Q 2488 2216 2034 2216 
z
M 1403 2484 
Q 997 2584 770 2862 
Q 544 3141 544 3541 
Q 544 4100 942 4425 
Q 1341 4750 2034 4750 
Q 2731 4750 3128 4425 
Q 3525 4100 3525 3541 
Q 3525 3141 3298 2862 
Q 3072 2584 2669 2484 
Q 3125 2378 3379 2068 
Q 3634 1759 3634 1313 
Q 3634 634 3220 271 
Q 2806 -91 2034 -91 
Q 1263 -91 848 271 
Q 434 634 434 1313 
Q 434 1759 690 2068 
Q 947 2378 1403 2484 
z
M 1172 3481 
Q 1172 3119 1398 2916 
Q 1625 2713 2034 2713 
Q 2441 2713 2670 2916 
Q 2900 3119 2900 3481 
Q 2900 3844 2670 4047 
Q 2441 4250 2034 4250 
Q 1625 4250 1398 4047 
Q 1172 3844 1172 3481 
z
" transform="scale(0.015625)"/>
       </defs>
       <use xlink:href="#DejaVuSans-38"/>
       <use xlink:href="#DejaVuSans-30" x="63.623047"/>
      </g>
     </g>
    </g>
    <g id="xtick_6">
     <g id="text_6">
      <!-- 100 -->
      <g transform="translate(940.235459 366.30265) scale(0.08 -0.08)">
       <defs>
        <path id="DejaVuSans-31" d="M 794 531 
L 1825 531 
L 1825 4091 
L 703 3866 
L 703 4441 
L 1819 4666 
L 2450 4666 
L 2450 531 
L 3481 531 
L 3481 0 
L 794 0 
L 794 531 
z
" transform="scale(0.015625)"/>
       </defs>
       <use xlink:href="#DejaVuSans-31"/>
       <use xlink:href="#DejaVuSans-30" x="63.623047"/>
       <use xlink:href="#DejaVuSans-30" x="127.246094"/>
      </g>
     </g>
    </g>
    <g id="text_7">
     <!-- Position in Read (bp) -->
     <g transform="translate(461.46 379.564837) scale(0.1 -0.1)">
      <defs>
       <path id="DejaVuSans-50" d="M 1259 4147 
L 1259 2394 
L 2053 2394 
Q 2494 2394 2734 2622 
Q 2975 2850 2975 3272 
Q 2975 3691 2734 3919 
Q 2494 4147 2053 4147 
L 1259 4147 
z
M 628 4666 
L 2053 4666 
Q 2838 4666 3239 4311 
Q 3641 3956 3641 3272 
Q 3641 2581 3239 2228 
Q 2838 1875 2053 1875 
L 1259 1875 
L 1259 0 
L 628 0 
L 628 4666 
z
" transform="scale(0.015625)"/>
       <path id="DejaVuSans-6f" d="M 1959 3097 
Q 1497 3097 1228 2736 
Q 959 2375 959 1747 
Q 959 1119 1226 758 
Q 1494 397 1959 397 
Q 2419 397 2687 759 
Q 2956 1122 2956 1747 
Q 2956 2369 2687 2733 
Q 2419 3097 1959 3097 
z
M 1959 3584 
Q 2709 3584 3137 3096 
Q 3566 2609 3566 1747 
Q 3566 888 3137 398 
Q 2709 -91 1959 -91 
Q 1206 -91 779 398 
Q 353 888 353 1747 
Q 353 2609 779 3096 
Q 1206 3584 1959 3584 
z
" transform="scale(0.015625)"/>
       <path id="DejaVuSans-73" d="M 2834 3397 
L 2834 2853 
Q 2591 2978 2328 3040 
Q 2066 3103 1784 3103 
Q 1356 3103 1142 2972 
Q 928 2841 928 2578 
Q 928 2378 1081 2264 
Q 1234 2150 1697 2047 
L 1894 2003 
Q 2506 1872 2764 1633 
Q 3022 1394 3022 966 
Q 3022 478 2636 193 
Q 2250 -91 1575 -91 
Q 1294 -91 989 -36 
Q 684 19 347 128 
L 347 722 
Q 666 556 975 473 
Q 1284 391 1588 391 
Q 1994 391 2212 530 
Q 2431 669 2431 922 
Q 2431 1156 2273 1281 
Q 2116 1406 1581 1522 
L 1381 1569 
Q 847 1681 609 1914 
Q 372 2147 372 2553 
Q 372 3047 722 3315 
Q 1072 3584 1716 3584 
Q 2034 3584 2315 3537 
Q 2597 3491 2834 3397 
z
" transform="scale(0.015625)"/>
       <path id="DejaVuSans-69" d="M 603 3500 
L 1178 3500 
L 1178 0 
L 603 0 
L 603 3500 
z
M 603 4863 
L 1178 4863 
L 1178 4134 
L 603 4134 
L 603 4863 
z
" transform="scale(0.015625)"/>
       <path id="DejaVuSans-74" d="M 1172 4494 
L 1172 3500 
L 2356 3500 
L 2356 3053 
L 1172 3053 
L 1172 1153 
Q 1172 725 1289 603 
Q 1406 481 1766 481 
L 2356 481 
L 2356 0 
L 1766 0 
Q 1100 0 847 248 
Q 594 497 594 1153 
L 594 3053 
L 172 3053 
L 172 3500 
L 594 3500 
L 594 4494 
L 1172 4494 
z
" transform="scale(0.015625)"/>
       <path id="DejaVuSans-6e" d="M 3513 2113 
L 3513 0 
L 2938 0 
L 2938 2094 
Q 2938 2591 2744 2837 
Q 2550 3084 2163 3084 
Q 1697 3084 1428 2787 
Q 1159 2491 1159 1978 
L 1159 0 
L 581 0 
L 581 3500 
L 1159 3500 
L 1159 2956 
Q 1366 3272 1645 3428 
Q 1925 3584 2291 3584 
Q 2894 3584 3203 3211 
Q 3513 2838 3513 2113 
z
" transform="scale(0.015625)"/>
       <path id="DejaVuSans-20" transform="scale(0.015625)"/>
       <path id="DejaVuSans-52" d="M 2841 2188 
Q 3044 2119 3236 1894 
Q 3428 1669 3622 1275 
L 4263 0 
L 3584 0 
L 2988 1197 
Q 2756 1666 2539 1819 
Q 2322 1972 1947 1972 
L 1259 1972 
L 1259 0 
L 628 0 
L 628 4666 
L 2053 4666 
Q 2853 4666 3247 4331 
Q 3641 3997 3641 3322 
Q 3641 2881 3436 2590 
Q 3231 2300 2841 2188 
z
M 1259 4147 
L 1259 2491 
L 2053 2491 
Q 2509 2491 2742 2702 
Q 2975 2913 2975 3322 
Q 2975 3731 2742 3939 
Q 2509 4147 2053 4147 
L 1259 4147 
z
" transform="scale(0.015625)"/>
       <path id="DejaVuSans-65" d="M 3597 1894 
L 3597 1613 
L 953 1613 
Q 991 1019 1311 708 
Q 1631 397 2203 397 
Q 2534 397 2845 478 
Q 3156 559 3463 722 
L 3463 178 
Q 3153 47 2828 -22 
Q 2503 -91 2169 -91 
Q 1331 -91 842 396 
Q 353 884 353 1716 
Q 353 2575 817 3079 
Q 1281 3584 2069 3584 
Q 2775 3584 3186 3129 
Q 3597 2675 3597 1894 
z
M 3022 2063 
Q 3016 2534 2758 2815 
Q 2500 3097 2075 3097 
Q 1594 3097 1305 2825 
Q 1016 2553 972 2059 
L 3022 2063 
z
" transform="scale(0.015625)"/>
       <path id="DejaVuSans-61" d="M 2194 1759 
Q 1497 1759 1228 1600 
Q 959 1441 959 1056 
Q 959 750 1161 570 
Q 1363 391 1709 391 
Q 2188 391 2477 730 
Q 2766 1069 2766 1631 
L 2766 1759 
L 2194 1759 
z
M 3341 1997 
L 3341 0 
L 2766 0 
L 2766 531 
Q 2569 213 2275 61 
Q 1981 -91 1556 -91 
Q 1019 -91 701 211 
Q 384 513 384 1019 
Q 384 1609 779 1909 
Q 1175 2209 1959 2209 
L 2766 2209 
L 2766 2266 
Q 2766 2663 2505 2880 
Q 2244 3097 1772 3097 
Q 1472 3097 1187 3025 
Q 903 2953 641 2809 
L 641 3341 
Q 956 3463 1253 3523 
Q 1550 3584 1831 3584 
Q 2591 3584 2966 3190 
Q 3341 2797 3341 1997 
z
" transform="scale(0.015625)"/>
       <path id="DejaVuSans-64" d="M 2906 2969 
L 2906 4863 
L 3481 4863 
L 3481 0 
L 2906 0 
L 2906 525 
Q 2725 213 2448 61 
Q 2172 -91 1784 -91 
Q 1150 -91 751 415 
Q 353 922 353 1747 
Q 353 2572 751 3078 
Q 1150 3584 1784 3584 
Q 2172 3584 2448 3432 
Q 2725 3281 2906 2969 
z
M 947 1747 
Q 947 1113 1208 752 
Q 1469 391 1925 391 
Q 2381 391 2643 752 
Q 2906 1113 2906 1747 
Q 2906 2381 2643 2742 
Q 2381 3103 1925 3103 
Q 1469 3103 1208 2742 
Q 947 2381 947 1747 
z
" transform="scale(0.015625)"/>
       <path id="DejaVuSans-28" d="M 1984 4856 
Q 1566 4138 1362 3434 
Q 1159 2731 1159 2009 
Q 1159 1288 1364 580 
Q 1569 -128 1984 -844 
L 1484 -844 
Q 1016 -109 783 600 
Q 550 1309 550 2009 
Q 550 2706 781 3412 
Q 1013 4119 1484 4856 
L 1984 4856 
z
" transform="scale(0.015625)"/>
       <path id="DejaVuSans-62" d="M 3116 1747 
Q 3116 2381 2855 2742 
Q 2594 3103 2138 3103 
Q 1681 3103 1420 2742 
Q 1159 2381 1159 1747 
Q 1159 1113 1420 752 
Q 1681 391 2138 391 
Q 2594 391 2855 752 
Q 3116 1113 3116 1747 
z
M 1159 2969 
Q 1341 3281 1617 3432 
Q 1894 3584 2278 3584 
Q 2916 3584 3314 3078 
Q 3713 2572 3713 1747 
Q 3713 922 3314 415 
Q 2916 -91 2278 -91 
Q 1894 -91 1617 61 
Q 1341 213 1159 525 
L 1159 0 
L 581 0 
L 581 4863 
L 1159 4863 
L 1159 2969 
z
" transform="scale(0.015625)"/>
       <path id="DejaVuSans-70" d="M 1159 525 
L 1159 -1331 
L 581 -1331 
L 581 3500 
L 1159 3500 
L 1159 2969 
Q 1341 3281 1617 3432 
Q 1894 3584 2278 3584 
Q 2916 3584 3314 3078 
Q 3713 2572 3713 1747 
Q 3713 922 3314 415 
Q 2916 -91 2278 -91 
Q 1894 -91 1617 61 
Q 1341 213 1159 525 
z
M 3116 1747 
Q 3116 2381 2855 2742 
Q 2594 3103 2138 3103 
Q 1681 3103 1420 2742 
Q 1159 2381 1159 1747 
Q 1159 1113 1420 752 
Q 1681 391 2138 391 
Q 2594 391 2855 752 
Q 3116 1113 3116 1747 
z
" transform="scale(0.015625)"/>
       <path id="DejaVuSans-29" d="M 513 4856 
L 1013 4856 
Q 1481 4119 1714 3412 
Q 1947 2706 1947 2009 
Q 1947 1309 1714 600 
Q 1481 -109 1013 -844 
L 513 -844 
Q 928 -128 1133 580 
Q 1338 1288 1338 2009 
Q 1338 2731 1133 3434 
Q 928 4138 513 4856 
z
" transform="scale(0.015625)"/>
      </defs>
      <use xlink:href="#DejaVuSans-50"/>
      <use xlink:href="#DejaVuSans-6f" x="56.677734"/>
      <use xlink:href="#DejaVuSans-73" x="117.859375"/>
      <use xlink:href="#DejaVuSans-69" x="169.958984"/>
      <use xlink:href="#DejaVuSans-74" x="197.742188"/>
      <use xlink:href="#DejaVuSans-69" x="236.951172"/>
      <use xlink:href="#DejaVuSans-6f" x="264.734375"/>
      <use xlink:href="#DejaVuSans-6e" x="325.916016"/>
      <use xlink:href="#DejaVuSans-20" x="389.294922"/>
      <use xlink:href="#DejaVuSans-69" x="421.082031"/>
      <use xlink:href="#DejaVuSans-6e" x="448.865234"/>
      <use xlink:href="#DejaVuSans-20" x="512.244141"/>
      <use xlink:href="#DejaVuSans-52" x="544.03125"/>
      <use xlink:href="#DejaVuSans-65" x="609.013672"/>
      <use xlink:href="#DejaVuSans-61" x="670.537109"/>
      <use xlink:href="#DejaVuSans-64" x="731.816406"/>
      <use xlink:href="#DejaVuSans-20" x="795.292969"/>
      <use xlink:href="#DejaVuSans-28" x="827.080078"/>
      <use xlink:href="#DejaVuSans-62" x="866.09375"/>
      <use xlink:href="#DejaVuSans-70" x="929.570312"/>
      <use xlink:href="#DejaVuSans-29" x="993.046875"/>
     </g>
    </g>
   </g>
   <g id="matplotlib.axis_2">
    <g id="ytick_1">
     <g id="line2d_1">
      <path d="M 32.968125 353.2239 
L 993.158125 353.2239 
" clip-path="url(#p9eb7645a6d)" style="fill: none; stroke: #dedede; stroke-linecap: square"/>
     </g>
     <g id="text_8">
      <!-- 0 -->
      <g transform="translate(20.878125 356.263275) scale(0.08 -0.08)">
       <use xlink:href="#DejaVuSans-30"/>
      </g>
     </g>
    </g>
    <g id="ytick_2">
     <g id="line2d_2">
      <path d="M 32.968125 289.6303 
L 993.158125 289.6303 
" clip-path="url(#p9eb7645a6d)" style="fill: none; stroke: #dedede; stroke-linecap: square"/>
     </g>
     <g id="text_9">
      <!-- 1 -->
      <g transform="translate(20.878125 292.669675) scale(0.08 -0.08)">
       <use xlink:href="#DejaVuSans-31"/>
      </g>
     </g>
    </g>
    <g id="ytick_3">
     <g id="line2d_3">
      <path d="M 32.968125 226.0367 
L 993.158125 226.0367 
" clip-path="url(#p9eb7645a6d)" style="fill: none; stroke: #dedede; stroke-linecap: square"/>
     </g>
     <g id="text_10">
      <!-- 2 -->
      <g transform="translate(20.878125 229.076075) scale(0.08 -0.08)">
       <use xlink:href="#DejaVuSans-32"/>
      </g>
     </g>
    </g>
    <g id="ytick_4">
     <g id="line2d_4">
      <path d="M 32.968125 162.4431 
L 993.158125 162.4431 
" clip-path="url(#p9eb7645a6d)" style="fill: none; stroke: #dedede; stroke-linecap: square"/>
     </g>
     <g id="text_11">
      <!-- 3 -->
      <g transform="translate(20.878125 165.482475) scale(0.08 -0.08)">
       <defs>
        <path id="DejaVuSans-33" d="M 2597 2516 
Q 3050 2419 3304 2112 
Q 3559 1806 3559 1356 
Q 3559 666 3084 287 
Q 2609 -91 1734 -91 
Q 1441 -91 1130 -33 
Q 819 25 488 141 
L 488 750 
Q 750 597 1062 519 
Q 1375 441 1716 441 
Q 2309 441 2620 675 
Q 2931 909 2931 1356 
Q 2931 1769 2642 2001 
Q 2353 2234 1838 2234 
L 1294 2234 
L 1294 2753 
L 1863 2753 
Q 2328 2753 2575 2939 
Q 2822 3125 2822 3475 
Q 2822 3834 2567 4026 
Q 2313 4219 1838 4219 
Q 1578 4219 1281 4162 
Q 984 4106 628 3988 
L 628 4550 
Q 988 4650 1302 4700 
Q 1616 4750 1894 4750 
Q 2613 4750 3031 4423 
Q 3450 4097 3450 3541 
Q 3450 3153 3228 2886 
Q 3006 2619 2597 2516 
z
" transform="scale(0.015625)"/>
       </defs>
       <use xlink:href="#DejaVuSans-33"/>
      </g>
     </g>
    </g>
    <g id="ytick_5">
     <g id="line2d_5">
      <path d="M 32.968125 98.8495 
L 993.158125 98.8495 
" clip-path="url(#p9eb7645a6d)" style="fill: none; stroke: #dedede; stroke-linecap: square"/>
     </g>
     <g id="text_12">
      <!-- 4 -->
      <g transform="translate(20.878125 101.888875) scale(0.08 -0.08)">
       <use xlink:href="#DejaVuSans-34"/>
      </g>
     </g>
    </g>
    <g id="ytick_6">
     <g id="line2d_6">
      <path d="M 32.968125 35.2559 
L 993.158125 35.2559 
" clip-path="url(#p9eb7645a6d)" style="fill: none; stroke: #dedede; stroke-linecap: square"/>
     </g>
     <g id="text_13">
      <!-- 5 -->
      <g transform="translate(20.878125 38.295275) scale(0.08 -0.08)">
       <defs>
        <path id="DejaVuSans-35" d="M 691 4666 
L 3169 4666 
L 3169 4134 
L 1269 4134 
L 1269 2991 
Q 1406 3038 1543 3061 
Q 1681 3084 1819 3084 
Q 2600 3084 3056 2656 
Q 3513 2228 3513 1497 
Q 3513 744 3044 326 
Q 2575 -91 1722 -91 
Q 1428 -91 1123 -41 
Q 819 9 494 109 
L 494 744 
Q 775 591 1075 516 
Q 1375 441 1709 441 
Q 2250 441 2565 725 
Q 2881 1009 2881 1497 
Q 2881 1984 2565 2268 
Q 2250 2553 1709 2553 
Q 1456 2553 1204 2497 
Q 953 2441 691 2322 
L 691 4666 
z
" transform="scale(0.015625)"/>
       </defs>
       <use xlink:href="#DejaVuSans-35"/>
      </g>
     </g>
    </g>
    <g id="text_14">
     <!-- Percentage N-Count -->
     <g transform="translate(14.798438 244.344588) rotate(-90) scale(0.1 -0.1)">
      <defs>
       <path id="DejaVuSans-72" d="M 2631 2963 
Q 2534 3019 2420 3045 
Q 2306 3072 2169 3072 
Q 1681 3072 1420 2755 
Q 1159 2438 1159 1844 
L 1159 0 
L 581 0 
L 581 3500 
L 1159 3500 
L 1159 2956 
Q 1341 3275 1631 3429 
Q 1922 3584 2338 3584 
Q 2397 3584 2469 3576 
Q 2541 3569 2628 3553 
L 2631 2963 
z
" transform="scale(0.015625)"/>
       <path id="DejaVuSans-63" d="M 3122 3366 
L 3122 2828 
Q 2878 2963 2633 3030 
Q 2388 3097 2138 3097 
Q 1578 3097 1268 2742 
Q 959 2388 959 1747 
Q 959 1106 1268 751 
Q 1578 397 2138 397 
Q 2388 397 2633 464 
Q 2878 531 3122 666 
L 3122 134 
Q 2881 22 2623 -34 
Q 2366 -91 2075 -91 
Q 1284 -91 818 406 
Q 353 903 353 1747 
Q 353 2603 823 3093 
Q 1294 3584 2113 3584 
Q 2378 3584 2631 3529 
Q 2884 3475 3122 3366 
z
" transform="scale(0.015625)"/>
       <path id="DejaVuSans-67" d="M 2906 1791 
Q 2906 2416 2648 2759 
Q 2391 3103 1925 3103 
Q 1463 3103 1205 2759 
Q 947 2416 947 1791 
Q 947 1169 1205 825 
Q 1463 481 1925 481 
Q 2391 481 2648 825 
Q 2906 1169 2906 1791 
z
M 3481 434 
Q 3481 -459 3084 -895 
Q 2688 -1331 1869 -1331 
Q 1566 -1331 1297 -1286 
Q 1028 -1241 775 -1147 
L 775 -588 
Q 1028 -725 1275 -790 
Q 1522 -856 1778 -856 
Q 2344 -856 2625 -561 
Q 2906 -266 2906 331 
L 2906 616 
Q 2728 306 2450 153 
Q 2172 0 1784 0 
Q 1141 0 747 490 
Q 353 981 353 1791 
Q 353 2603 747 3093 
Q 1141 3584 1784 3584 
Q 2172 3584 2450 3431 
Q 2728 3278 2906 2969 
L 2906 3500 
L 3481 3500 
L 3481 434 
z
" transform="scale(0.015625)"/>
       <path id="DejaVuSans-4e" d="M 628 4666 
L 1478 4666 
L 3547 763 
L 3547 4666 
L 4159 4666 
L 4159 0 
L 3309 0 
L 1241 3903 
L 1241 0 
L 628 0 
L 628 4666 
z
" transform="scale(0.015625)"/>
       <path id="DejaVuSans-2d" d="M 313 2009 
L 1997 2009 
L 1997 1497 
L 313 1497 
L 313 2009 
z
" transform="scale(0.015625)"/>
       <path id="DejaVuSans-43" d="M 4122 4306 
L 4122 3641 
Q 3803 3938 3442 4084 
Q 3081 4231 2675 4231 
Q 1875 4231 1450 3742 
Q 1025 3253 1025 2328 
Q 1025 1406 1450 917 
Q 1875 428 2675 428 
Q 3081 428 3442 575 
Q 3803 722 4122 1019 
L 4122 359 
Q 3791 134 3420 21 
Q 3050 -91 2638 -91 
Q 1578 -91 968 557 
Q 359 1206 359 2328 
Q 359 3453 968 4101 
Q 1578 4750 2638 4750 
Q 3056 4750 3426 4639 
Q 3797 4528 4122 4306 
z
" transform="scale(0.015625)"/>
       <path id="DejaVuSans-75" d="M 544 1381 
L 544 3500 
L 1119 3500 
L 1119 1403 
Q 1119 906 1312 657 
Q 1506 409 1894 409 
Q 2359 409 2629 706 
Q 2900 1003 2900 1516 
L 2900 3500 
L 3475 3500 
L 3475 0 
L 2900 0 
L 2900 538 
Q 2691 219 2414 64 
Q 2138 -91 1772 -91 
Q 1169 -91 856 284 
Q 544 659 544 1381 
z
M 1991 3584 
L 1991 3584 
z
" transform="scale(0.015625)"/>
      </defs>
      <use xlink:href="#DejaVuSans-50"/>
      <use xlink:href="#DejaVuSans-65" x="56.677734"/>
      <use xlink:href="#DejaVuSans-72" x="118.201172"/>
      <use xlink:href="#DejaVuSans-63" x="157.064453"/>
      <use xlink:href="#DejaVuSans-65" x="212.044922"/>
      <use xlink:href="#DejaVuSans-6e" x="273.568359"/>
      <use xlink:href="#DejaVuSans-74" x="336.947266"/>
      <use xlink:href="#DejaVuSans-61" x="376.15625"/>
      <use xlink:href="#DejaVuSans-67" x="437.435547"/>
      <use xlink:href="#DejaVuSans-65" x="500.912109"/>
      <use xlink:href="#DejaVuSans-20" x="562.435547"/>
      <use xlink:href="#DejaVuSans-4e" x="594.222656"/>
      <use xlink:href="#DejaVuSans-2d" x="669.027344"/>
      <use xlink:href="#DejaVuSans-43" x="705.111328"/>
      <use xlink:href="#DejaVuSans-6f" x="774.935547"/>
      <use xlink:href="#DejaVuSans-75" x="836.117188"/>
      <use xlink:href="#DejaVuSans-6e" x="899.496094"/>
      <use xlink:href="#DejaVuSans-74" x="962.875"/>
     </g>
    </g>
   </g>
   <g id="line2d_7">
    <path d="M 42.117148 353.221217 
L 51.266172 343.416233 
L 60.415195 348.214434 
L 69.564218 353.2239 
L 78.713242 353.2214 
L 87.862265 353.223656 
L 97.011288 353.2239 
L 106.160312 353.2239 
L 115.309335 353.2239 
L 124.458358 353.050376 
L 142.756405 353.22387 
L 161.054452 353.221736 
L 179.352499 353.213382 
L 197.650545 353.2239 
L 215.948592 353.2239 
L 234.246639 353.2239 
L 252.544685 353.188864 
L 270.842732 353.205511 
L 289.140779 353.219539 
L 307.438825 353.167012 
L 325.736872 353.223869 
L 344.034919 353.198149 
L 362.332965 353.22274 
L 380.631012 353.139731 
L 398.929059 353.061396 
L 417.227105 353.209613 
L 435.525152 353.198495 
L 453.823199 353.205697 
L 472.121246 353.122141 
L 490.419292 353.015798 
L 508.717339 353.223319 
L 527.015386 353.202218 
L 545.313432 353.223716 
L 563.611479 353.015054 
L 581.909526 345.415301 
L 600.207572 353.212373 
L 618.505619 351.295326 
L 636.803666 351.371541 
L 655.101712 353.147515 
L 673.399759 353.178023 
L 691.697806 353.22353 
L 709.995852 353.050976 
L 728.293899 353.079793 
L 746.591946 353.223744 
L 764.889993 353.2239 
L 783.188039 353.182287 
L 801.486086 353.220686 
L 819.784133 353.104864 
L 838.082179 353.05334 
L 856.380226 353.22139 
L 874.678273 349.517474 
L 892.976319 353.061613 
L 911.274366 353.082889 
L 929.572413 350.660684 
L 947.870459 353.203935 
" clip-path="url(#p9eb7645a6d)" style="fill: none; stroke: #5cb85c; stroke-linecap: square"/>
   </g>
   <g id="line2d_8">
    <path d="M 42.117148 353.221075 
L 51.266172 343.437171 
L 60.415195 348.211602 
L 69.564218 353.2239 
L 78.713242 353.221198 
L 87.862265 353.223777 
L 97.011288 353.2239 
L 106.160312 353.2239 
L 115.309335 353.2239 
L 124.458358 353.054451 
L 142.756405 353.223869 
L 161.054452 353.221228 
L 179.352499 353.213152 
L 197.650545 353.2239 
L 215.948592 353.2239 
L 234.246639 353.2239 
L 252.544685 353.188025 
L 270.842732 353.206728 
L 289.140779 353.219875 
L 307.438825 353.168165 
L 325.736872 353.2239 
L 344.034919 353.199745 
L 362.332965 353.222978 
L 380.631012 353.138134 
L 398.929059 353.063838 
L 417.227105 353.207417 
L 435.525152 353.198155 
L 453.823199 353.205378 
L 472.121246 353.12252 
L 490.419292 353.013585 
L 508.717339 353.223253 
L 527.015386 353.201773 
L 545.313432 353.223684 
L 563.611479 353.014935 
L 581.909526 345.425042 
L 600.207572 353.212401 
L 618.505619 351.313615 
L 636.803666 351.379493 
L 655.101712 353.150135 
L 673.399759 353.177831 
L 691.697806 353.223557 
L 709.995852 353.047171 
L 728.293899 353.080367 
L 746.591946 353.223712 
L 764.889993 353.223868 
L 783.188039 353.180732 
L 801.486086 353.220847 
L 819.784133 353.103345 
L 838.082179 353.051983 
L 856.380226 353.221111 
L 874.678273 349.494529 
L 892.976319 353.063535 
L 911.274366 353.087832 
L 929.572413 350.661639 
L 947.870459 353.201857 
" clip-path="url(#p9eb7645a6d)" style="fill: none; stroke: #5cb85c; stroke-linecap: square"/>
   </g>
   <g id="line2d_9">
    <path d="M 42.117148 353.220943 
L 51.266172 343.318177 
L 60.415195 348.181729 
L 69.564218 353.2239 
L 78.713242 353.22175 
L 87.862265 353.223564 
L 97.011288 353.2239 
L 106.160312 353.2239 
L 115.309335 353.2239 
L 124.458358 353.050322 
L 142.756405 353.223766 
L 161.054452 353.22138 
L 179.352499 353.211804 
L 197.650545 353.2239 
L 215.948592 353.2239 
L 234.246639 353.2239 
L 252.544685 353.187537 
L 270.842732 353.206153 
L 289.140779 353.219631 
L 307.438825 353.165436 
L 325.736872 353.2239 
L 344.034919 353.197166 
L 362.332965 353.222992 
L 380.631012 353.139201 
L 398.929059 353.061135 
L 417.227105 353.209061 
L 435.525152 353.19758 
L 453.823199 353.204004 
L 472.121246 353.120283 
L 490.419292 353.012257 
L 508.717339 353.223058 
L 527.015386 353.202561 
L 545.313432 353.223799 
L 563.611479 353.011944 
L 581.909526 345.378055 
L 600.207572 353.211836 
L 618.505619 351.316858 
L 636.803666 351.379539 
L 655.101712 353.146514 
L 673.399759 353.177366 
L 691.697806 353.22373 
L 709.995852 353.049963 
L 728.293899 353.077807 
L 746.591946 353.22366 
L 764.889993 353.223831 
L 783.188039 353.180058 
L 801.486086 353.220684 
L 819.784133 353.105832 
L 838.082179 353.048361 
L 856.380226 353.220981 
L 874.678273 349.570427 
L 892.976319 353.057691 
L 911.274366 353.081593 
L 929.572413 350.631935 
L 947.870459 353.201124 
" clip-path="url(#p9eb7645a6d)" style="fill: none; stroke: #5cb85c; stroke-linecap: square"/>
   </g>
   <g id="line2d_10">
    <path d="M 42.117148 353.221233 
L 51.266172 343.53869 
L 60.415195 348.254074 
L 69.564218 353.223842 
L 78.713242 353.221117 
L 87.862265 353.223726 
L 97.011288 353.2239 
L 106.160312 353.2239 
L 115.309335 353.2239 
L 124.458358 353.065287 
L 142.756405 353.223871 
L 161.054452 353.221523 
L 179.352499 353.214045 
L 197.650545 353.2239 
L 215.948592 353.2239 
L 234.246639 353.2239 
L 252.544685 353.196009 
L 270.842732 353.206763 
L 289.140779 353.219405 
L 307.438825 353.168533 
L 325.736872 353.2239 
L 344.034919 353.198749 
L 362.332965 353.223117 
L 380.631012 353.150921 
L 398.929059 353.066573 
L 417.227105 353.210112 
L 435.525152 353.197393 
L 453.823199 353.203746 
L 472.121246 353.125747 
L 490.419292 353.019804 
L 508.717339 353.223551 
L 527.015386 353.201711 
L 545.313432 353.223696 
L 563.611479 353.018456 
L 581.909526 345.427757 
L 600.207572 353.215325 
L 618.505619 351.333647 
L 636.803666 351.382023 
L 655.101712 353.14603 
L 673.399759 353.181241 
L 691.697806 353.223488 
L 709.995852 353.060134 
L 728.293899 353.085928 
L 746.591946 353.223811 
L 764.889993 353.22387 
L 783.188039 353.186831 
L 801.486086 353.220856 
L 819.784133 353.110125 
L 838.082179 353.060574 
L 856.380226 353.221398 
L 874.678273 349.557808 
L 892.976319 353.068965 
L 911.274366 353.085755 
L 929.572413 350.665656 
L 947.870459 353.205016 
" clip-path="url(#p9eb7645a6d)" style="fill: none; stroke: #5cb85c; stroke-linecap: square"/>
   </g>
   <g id="line2d_11">
    <path d="M 42.117148 353.221851 
L 51.266172 343.437168 
L 60.415195 348.162169 
L 69.564218 353.223834 
L 78.713242 353.22152 
L 87.862265 353.223702 
L 97.011288 353.2239 
L 106.160312 353.2239 
L 115.309335 353.2239 
L 124.458358 353.051007 
L 142.756405 353.223834 
L 161.054452 353.221454 
L 179.352499 353.212795 
L 197.650545 353.2239 
L 215.948592 353.2239 
L 234.246639 353.2239 
L 252.544685 353.186611 
L 270.842732 353.205683 
L 289.140779 353.219569 
L 307.438825 353.165107 
L 325.736872 353.2239 
L 344.034919 353.196548 
L 362.332965 353.223073 
L 380.631012 353.137958 
L 398.929059 353.058711 
L 417.227105 353.210102 
L 435.525152 353.196896 
L 453.823199 353.202684 
L 472.121246 353.121907 
L 490.419292 353.012921 
L 508.717339 353.223205 
L 527.015386 353.203593 
L 545.313432 353.223767 
L 563.611479 353.011883 
L 581.909526 345.359117 
L 600.207572 353.211856 
L 618.505619 351.303034 
L 636.803666 351.335786 
L 655.101712 353.145366 
L 673.399759 353.177606 
L 691.697806 353.223567 
L 709.995852 353.053369 
L 728.293899 353.075238 
L 746.591946 353.223699 
L 764.889993 353.223866 
L 783.188039 353.180105 
L 801.486086 353.220421 
L 819.784133 353.105994 
L 838.082179 353.050467 
L 856.380226 353.221364 
L 874.678273 349.526693 
L 892.976319 353.06081 
L 911.274366 353.079509 
L 929.572413 350.647577 
L 947.870459 353.20099 
" clip-path="url(#p9eb7645a6d)" style="fill: none; stroke: #5cb85c; stroke-linecap: square"/>
   </g>
   <g id="line2d_12">
    <path d="M 42.117148 353.220889 
L 51.266172 343.483686 
L 60.415195 348.211985 
L 69.564218 353.2239 
L 78.713242 353.22171 
L 87.862265 353.223736 
L 97.011288 353.2239 
L 106.160312 353.2239 
L 115.309335 353.2239 
L 124.458358 353.049986 
L 142.756405 353.223873 
L 161.054452 353.221491 
L 179.352499 353.213006 
L 197.650545 353.2239 
L 215.948592 353.2239 
L 234.246639 353.2239 
L 252.544685 353.189844 
L 270.842732 353.207171 
L 289.140779 353.218834 
L 307.438825 353.166064 
L 325.736872 353.2239 
L 344.034919 353.197551 
L 362.332965 353.222914 
L 380.631012 353.138096 
L 398.929059 353.062544 
L 417.227105 353.210226 
L 435.525152 353.196218 
L 453.823199 353.202709 
L 472.121246 353.121572 
L 490.419292 353.016369 
L 508.717339 353.223159 
L 527.015386 353.203812 
L 545.313432 353.223845 
L 563.611479 353.016833 
L 581.909526 345.383167 
L 600.207572 353.212488 
L 618.505619 351.310726 
L 636.803666 351.358069 
L 655.101712 353.147053 
L 673.399759 353.177686 
L 691.697806 353.223541 
L 709.995852 353.056676 
L 728.293899 353.078664 
L 746.591946 353.223733 
L 764.889993 353.223844 
L 783.188039 353.18047 
L 801.486086 353.220554 
L 819.784133 353.106601 
L 838.082179 353.052081 
L 856.380226 353.221326 
L 874.678273 349.532192 
L 892.976319 353.06196 
L 911.274366 353.085463 
L 929.572413 350.654618 
L 947.870459 353.202224 
" clip-path="url(#p9eb7645a6d)" style="fill: none; stroke: #5cb85c; stroke-linecap: square"/>
   </g>
   <g id="line2d_13">
    <path d="M 42.117148 353.220479 
L 51.266172 343.444278 
L 60.415195 348.207682 
L 69.564218 353.2239 
L 78.713242 353.221088 
L 87.862265 353.223672 
L 97.011288 353.2239 
L 106.160312 353.2239 
L 115.309335 353.2239 
L 124.458358 353.052722 
L 142.756405 353.223786 
L 161.054452 353.221468 
L 179.352499 353.212498 
L 197.650545 353.2239 
L 215.948592 353.2239 
L 234.246639 353.2239 
L 252.544685 353.190791 
L 270.842732 353.205044 
L 289.140779 353.219718 
L 307.438825 353.166674 
L 325.736872 353.2239 
L 344.034919 353.198076 
L 362.332965 353.222987 
L 380.631012 353.137284 
L 398.929059 353.066627 
L 417.227105 353.208452 
L 435.525152 353.1973 
L 453.823199 353.205022 
L 472.121246 353.118725 
L 490.419292 353.020251 
L 508.717339 353.2231 
L 527.015386 353.202913 
L 545.313432 353.223595 
L 563.611479 353.014898 
L 581.909526 345.402409 
L 600.207572 353.211008 
L 618.505619 351.304371 
L 636.803666 351.3591 
L 655.101712 353.146822 
L 673.399759 353.179266 
L 691.697806 353.223632 
L 709.995852 353.055806 
L 728.293899 353.077624 
L 746.591946 353.223785 
L 764.889993 353.223823 
L 783.188039 353.179695 
L 801.486086 353.220955 
L 819.784133 353.104103 
L 838.082179 353.055777 
L 856.380226 353.221505 
L 874.678273 349.50435 
L 892.976319 353.057617 
L 911.274366 353.0831 
L 929.572413 350.662196 
L 947.870459 353.200263 
" clip-path="url(#p9eb7645a6d)" style="fill: none; stroke: #5cb85c; stroke-linecap: square"/>
   </g>
   <g id="line2d_14">
    <path d="M 42.117148 353.221426 
L 51.266172 343.422685 
L 60.415195 348.167489 
L 69.564218 353.2239 
L 78.713242 353.222478 
L 87.862265 353.223714 
L 97.011288 353.2239 
L 106.160312 353.2239 
L 115.309335 353.2239 
L 124.458358 353.052172 
L 142.756405 353.223776 
L 161.054452 353.221736 
L 179.352499 353.213511 
L 197.650545 353.2239 
L 215.948592 353.2239 
L 234.246639 353.2239 
L 252.544685 353.1879 
L 270.842732 353.205743 
L 289.140779 353.21926 
L 307.438825 353.165176 
L 325.736872 353.2239 
L 344.034919 353.198368 
L 362.332965 353.2226 
L 380.631012 353.138956 
L 398.929059 353.062346 
L 417.227105 353.208634 
L 435.525152 353.196582 
L 453.823199 353.204693 
L 472.121246 353.118698 
L 490.419292 353.018519 
L 508.717339 353.223311 
L 527.015386 353.202714 
L 545.313432 353.223652 
L 563.611479 353.014027 
L 581.909526 345.460171 
L 600.207572 353.213203 
L 618.505619 351.294711 
L 636.803666 351.391894 
L 655.101712 353.147051 
L 673.399759 353.177651 
L 691.697806 353.223556 
L 709.995852 353.053941 
L 728.293899 353.079247 
L 746.591946 353.223679 
L 764.889993 353.2239 
L 783.188039 353.180377 
L 801.486086 353.220606 
L 819.784133 353.104124 
L 838.082179 353.054517 
L 856.380226 353.221515 
L 874.678273 349.493089 
L 892.976319 353.06089 
L 911.274366 353.083712 
L 929.572413 350.664286 
L 947.870459 353.200461 
" clip-path="url(#p9eb7645a6d)" style="fill: none; stroke: #5cb85c; stroke-linecap: square"/>
   </g>
   <g id="line2d_15">
    <path d="M 42.117148 353.221185 
L 51.266172 343.435852 
L 60.415195 348.200623 
L 69.564218 353.2239 
L 78.713242 353.22137 
L 87.862265 353.223777 
L 97.011288 353.2239 
L 106.160312 353.2239 
L 115.309335 353.2239 
L 124.458358 353.054853 
L 142.756405 353.223869 
L 161.054452 353.220784 
L 179.352499 353.212054 
L 197.650545 353.2239 
L 215.948592 353.2239 
L 234.246639 353.2239 
L 252.544685 353.18598 
L 270.842732 353.206527 
L 289.140779 353.21924 
L 307.438825 353.16572 
L 325.736872 353.2239 
L 344.034919 353.197813 
L 362.332965 353.222819 
L 380.631012 353.138486 
L 398.929059 353.061664 
L 417.227105 353.209505 
L 435.525152 353.196094 
L 453.823199 353.203288 
L 472.121246 353.119206 
L 490.419292 353.016153 
L 508.717339 353.223343 
L 527.015386 353.202086 
L 545.313432 353.223776 
L 563.611479 353.017051 
L 581.909526 345.456794 
L 600.207572 353.21202 
L 618.505619 351.304616 
L 636.803666 351.363557 
L 655.101712 353.147952 
L 673.399759 353.177732 
L 691.697806 353.223619 
L 709.995852 353.055375 
L 728.293899 353.078056 
L 746.591946 353.223774 
L 764.889993 353.223868 
L 783.188039 353.182196 
L 801.486086 353.220586 
L 819.784133 353.103404 
L 838.082179 353.055795 
L 856.380226 353.221299 
L 874.678273 349.486379 
L 892.976319 353.062893 
L 911.274366 353.085577 
L 929.572413 350.642963 
L 947.870459 353.202595 
" clip-path="url(#p9eb7645a6d)" style="fill: none; stroke: #5cb85c; stroke-linecap: square"/>
   </g>
   <g id="line2d_16">
    <path d="M 42.117148 353.220948 
L 51.266172 343.437835 
L 60.415195 348.168812 
L 69.564218 353.2239 
L 78.713242 353.22145 
L 87.862265 353.223844 
L 97.011288 353.2239 
L 106.160312 353.2239 
L 115.309335 353.2239 
L 124.458358 353.054298 
L 142.756405 353.223844 
L 161.054452 353.220976 
L 179.352499 353.21357 
L 197.650545 353.2239 
L 215.948592 353.2239 
L 234.246639 353.2239 
L 252.544685 353.192485 
L 270.842732 353.205573 
L 289.140779 353.219582 
L 307.438825 353.165842 
L 325.736872 353.2239 
L 344.034919 353.198292 
L 362.332965 353.223008 
L 380.631012 353.141877 
L 398.929059 353.059582 
L 417.227105 353.210045 
L 435.525152 353.196325 
L 453.823199 353.204881 
L 472.121246 353.121592 
L 490.419292 353.013524 
L 508.717339 353.223286 
L 527.015386 353.201124 
L 545.313432 353.223788 
L 563.611479 353.015112 
L 581.909526 345.393087 
L 600.207572 353.212884 
L 618.505619 351.306033 
L 636.803666 351.378209 
L 655.101712 353.146279 
L 673.399759 353.179186 
L 691.697806 353.223535 
L 709.995852 353.056035 
L 728.293899 353.080807 
L 746.591946 353.223815 
L 764.889993 353.2239 
L 783.188039 353.182096 
L 801.486086 353.220451 
L 819.784133 353.106424 
L 838.082179 353.051284 
L 856.380226 353.2217 
L 874.678273 349.567973 
L 892.976319 353.064153 
L 911.274366 353.082949 
L 929.572413 350.6462 
L 947.870459 353.202924 
" clip-path="url(#p9eb7645a6d)" style="fill: none; stroke: #5cb85c; stroke-linecap: square"/>
   </g>
   <g id="line2d_17">
    <path d="M 42.117148 353.221363 
L 51.266172 343.393166 
L 60.415195 348.164114 
L 69.564218 353.2239 
L 78.713242 353.222031 
L 87.862265 353.223766 
L 97.011288 353.2239 
L 106.160312 353.2239 
L 115.309335 353.2239 
L 124.458358 353.049809 
L 142.756405 353.2238 
L 161.054452 353.221197 
L 179.352499 353.213653 
L 197.650545 353.2239 
L 215.948592 353.2239 
L 234.246639 353.2239 
L 252.544685 353.187578 
L 270.842732 353.205436 
L 289.140779 353.219659 
L 307.438825 353.165689 
L 325.736872 353.223867 
L 344.034919 353.198446 
L 362.332965 353.223065 
L 380.631012 353.135289 
L 398.929059 353.059755 
L 417.227105 353.209529 
L 435.525152 353.198595 
L 453.823199 353.205645 
L 472.121246 353.120769 
L 490.419292 353.014683 
L 508.717339 353.223565 
L 527.015386 353.202146 
L 545.313432 353.223833 
L 563.611479 353.013061 
L 581.909526 345.470849 
L 600.207572 353.211192 
L 618.505619 351.293448 
L 636.803666 351.396496 
L 655.101712 353.146277 
L 673.399759 353.177789 
L 691.697806 353.223428 
L 709.995852 353.055953 
L 728.293899 353.079342 
L 746.591946 353.223662 
L 764.889993 353.223866 
L 783.188039 353.176526 
L 801.486086 353.220504 
L 819.784133 353.102795 
L 838.082179 353.051822 
L 856.380226 353.221244 
L 874.678273 349.443083 
L 892.976319 353.059184 
L 911.274366 353.083303 
L 929.572413 350.64779 
L 947.870459 353.200843 
" clip-path="url(#p9eb7645a6d)" style="fill: none; stroke: #5cb85c; stroke-linecap: square"/>
   </g>
   <g id="line2d_18">
    <path d="M 42.117148 353.221732 
L 51.266172 343.435899 
L 60.415195 348.19354 
L 69.564218 353.2239 
L 78.713242 353.222012 
L 87.862265 353.22369 
L 97.011288 353.2239 
L 106.160312 353.2239 
L 115.309335 353.2239 
L 124.458358 353.04831 
L 142.756405 353.22376 
L 161.054452 353.221278 
L 179.352499 353.212781 
L 197.650545 353.2239 
L 215.948592 353.2239 
L 234.246639 353.2239 
L 252.544685 353.187248 
L 270.842732 353.204521 
L 289.140779 353.219876 
L 307.438825 353.16738 
L 325.736872 353.2239 
L 344.034919 353.197243 
L 362.332965 353.222709 
L 380.631012 353.134963 
L 398.929059 353.069712 
L 417.227105 353.208455 
L 435.525152 353.198076 
L 453.823199 353.205617 
L 472.121246 353.122299 
L 490.419292 353.025631 
L 508.717339 353.223653 
L 527.015386 353.202935 
L 545.313432 353.223759 
L 563.611479 353.017691 
L 581.909526 345.451335 
L 600.207572 353.211766 
L 618.505619 351.288235 
L 636.803666 351.381887 
L 655.101712 353.147187 
L 673.399759 353.179093 
L 691.697806 353.223398 
L 709.995852 353.060517 
L 728.293899 353.074272 
L 746.591946 353.223646 
L 764.889993 353.223864 
L 783.188039 353.177642 
L 801.486086 353.220887 
L 819.784133 353.104343 
L 838.082179 353.062702 
L 856.380226 353.221012 
L 874.678273 349.471862 
L 892.976319 353.056478 
L 911.274366 353.081848 
L 929.572413 350.6437 
L 947.870459 353.200688 
" clip-path="url(#p9eb7645a6d)" style="fill: none; stroke: #5cb85c; stroke-linecap: square"/>
   </g>
   <g id="line2d_19">
    <path d="M 42.117148 353.221229 
L 51.266172 343.450148 
L 60.415195 348.210258 
L 69.564218 353.2239 
L 78.713242 353.221897 
L 87.862265 353.223779 
L 97.011288 353.2239 
L 106.160312 353.2239 
L 115.309335 353.2239 
L 124.458358 353.050325 
L 142.756405 353.22387 
L 161.054452 353.221107 
L 179.352499 353.213731 
L 197.650545 353.2239 
L 215.948592 353.2239 
L 234.246639 353.2239 
L 252.544685 353.188497 
L 270.842732 353.206348 
L 289.140779 353.219435 
L 307.438825 353.167006 
L 325.736872 353.2239 
L 344.034919 353.196888 
L 362.332965 353.222897 
L 380.631012 353.135904 
L 398.929059 353.065837 
L 417.227105 353.210763 
L 435.525152 353.196309 
L 453.823199 353.20415 
L 472.121246 353.12283 
L 490.419292 353.02261 
L 508.717339 353.223108 
L 527.015386 353.202615 
L 545.313432 353.223717 
L 563.611479 353.020515 
L 581.909526 345.514231 
L 600.207572 353.212421 
L 618.505619 351.288614 
L 636.803666 351.399792 
L 655.101712 353.149136 
L 673.399759 353.180329 
L 691.697806 353.223498 
L 709.995852 353.060591 
L 728.293899 353.079874 
L 746.591946 353.223775 
L 764.889993 353.223869 
L 783.188039 353.180707 
L 801.486086 353.220242 
L 819.784133 353.107451 
L 838.082179 353.059628 
L 856.380226 353.221645 
L 874.678273 349.399315 
L 892.976319 353.064431 
L 911.274366 353.087049 
L 929.572413 350.666474 
L 947.870459 353.201367 
" clip-path="url(#p9eb7645a6d)" style="fill: none; stroke: #5cb85c; stroke-linecap: square"/>
   </g>
   <g id="line2d_20">
    <path d="M 42.117148 353.220719 
L 51.266172 343.438509 
L 60.415195 348.175159 
L 69.564218 353.2239 
L 78.713242 353.221483 
L 87.862265 353.223709 
L 97.011288 353.2239 
L 106.160312 353.2239 
L 115.309335 353.2239 
L 124.458358 353.056372 
L 142.756405 353.223868 
L 161.054452 353.220687 
L 179.352499 353.212895 
L 197.650545 353.2239 
L 215.948592 353.2239 
L 234.246639 353.2239 
L 252.544685 353.189255 
L 270.842732 353.206241 
L 289.140779 353.219381 
L 307.438825 353.166551 
L 325.736872 353.2239 
L 344.034919 353.199643 
L 362.332965 353.222627 
L 380.631012 353.140285 
L 398.929059 353.063236 
L 417.227105 353.209662 
L 435.525152 353.195514 
L 453.823199 353.204271 
L 472.121246 353.119706 
L 490.419292 353.018799 
L 508.717339 353.223422 
L 527.015386 353.202076 
L 545.313432 353.223772 
L 563.611479 353.014368 
L 581.909526 345.379406 
L 600.207572 353.212896 
L 618.505619 351.319328 
L 636.803666 351.387397 
L 655.101712 353.144602 
L 673.399759 353.177079 
L 691.697806 353.223546 
L 709.995852 353.05906 
L 728.293899 353.076239 
L 746.591946 353.223705 
L 764.889993 353.2239 
L 783.188039 353.183033 
L 801.486086 353.22077 
L 819.784133 353.108452 
L 838.082179 353.056049 
L 856.380226 353.221643 
L 874.678273 349.5185 
L 892.976319 353.058062 
L 911.274366 353.081153 
L 929.572413 350.651089 
L 947.870459 353.20217 
" clip-path="url(#p9eb7645a6d)" style="fill: none; stroke: #5cb85c; stroke-linecap: square"/>
   </g>
   <g id="line2d_21">
    <path d="M 42.117148 353.221575 
L 51.266172 343.504256 
L 60.415195 348.169477 
L 69.564218 353.2239 
L 78.713242 353.221178 
L 87.862265 353.223787 
L 97.011288 353.2239 
L 106.160312 353.2239 
L 115.309335 353.2239 
L 124.458358 353.055158 
L 142.756405 353.223815 
L 161.054452 353.22183 
L 179.352499 353.213664 
L 197.650545 353.2239 
L 215.948592 353.2239 
L 234.246639 353.2239 
L 252.544685 353.192646 
L 270.842732 353.205151 
L 289.140779 353.219021 
L 307.438825 353.16469 
L 325.736872 353.2239 
L 344.034919 353.198133 
L 362.332965 353.222992 
L 380.631012 353.144078 
L 398.929059 353.062469 
L 417.227105 353.208537 
L 435.525152 353.196178 
L 453.823199 353.204268 
L 472.121246 353.119313 
L 490.419292 353.018742 
L 508.717339 353.223331 
L 527.015386 353.202328 
L 545.313432 353.223729 
L 563.611479 353.011673 
L 581.909526 345.442238 
L 600.207572 353.21325 
L 618.505619 351.298886 
L 636.803666 351.394814 
L 655.101712 353.140989 
L 673.399759 353.180254 
L 691.697806 353.223842 
L 709.995852 353.057042 
L 728.293899 353.080436 
L 746.591946 353.223813 
L 764.889993 353.2239 
L 783.188039 353.183949 
L 801.486086 353.220449 
L 819.784133 353.104087 
L 838.082179 353.057581 
L 856.380226 353.221516 
L 874.678273 349.459788 
L 892.976319 353.057427 
L 911.274366 353.081651 
L 929.572413 350.655833 
L 947.870459 353.203602 
" clip-path="url(#p9eb7645a6d)" style="fill: none; stroke: #5cb85c; stroke-linecap: square"/>
   </g>
   <g id="line2d_22">
    <path d="M 42.117148 353.220717 
L 51.266172 343.468697 
L 60.415195 348.169142 
L 69.564218 353.2239 
L 78.713242 353.22168 
L 87.862265 353.223826 
L 97.011288 353.2239 
L 106.160312 353.2239 
L 115.309335 353.2239 
L 124.458358 353.05655 
L 142.756405 353.223789 
L 161.054452 353.221124 
L 179.352499 353.214759 
L 197.650545 353.2239 
L 215.948592 353.2239 
L 234.246639 353.2239 
L 252.544685 353.189217 
L 270.842732 353.206427 
L 289.140779 353.218939 
L 307.438825 353.166472 
L 325.736872 353.2239 
L 344.034919 353.197606 
L 362.332965 353.223122 
L 380.631012 353.140555 
L 398.929059 353.062488 
L 417.227105 353.209932 
L 435.525152 353.196218 
L 453.823199 353.204034 
L 472.121246 353.122255 
L 490.419292 353.019533 
L 508.717339 353.223344 
L 527.015386 353.202497 
L 545.313432 353.223789 
L 563.611479 353.014743 
L 581.909526 345.404923 
L 600.207572 353.212272 
L 618.505619 351.297552 
L 636.803666 351.37656 
L 655.101712 353.144358 
L 673.399759 353.178637 
L 691.697806 353.223452 
L 709.995852 353.057105 
L 728.293899 353.07764 
L 746.591946 353.223788 
L 764.889993 353.223825 
L 783.188039 353.18125 
L 801.486086 353.220275 
L 819.784133 353.105807 
L 838.082179 353.054684 
L 856.380226 353.221757 
L 874.678273 349.459509 
L 892.976319 353.059037 
L 911.274366 353.078538 
L 929.572413 350.672433 
L 947.870459 353.202662 
" clip-path="url(#p9eb7645a6d)" style="fill: none; stroke: #5cb85c; stroke-linecap: square"/>
   </g>
   <g id="line2d_23">
    <path d="M 42.117148 353.221095 
L 51.266172 343.404195 
L 60.415195 348.173675 
L 69.564218 353.2239 
L 78.713242 353.221432 
L 87.862265 353.223788 
L 97.011288 353.2239 
L 106.160312 353.2239 
L 115.309335 353.2239 
L 124.458358 353.051947 
L 142.756405 353.223844 
L 161.054452 353.221039 
L 179.352499 353.21327 
L 197.650545 353.2239 
L 215.948592 353.2239 
L 234.246639 353.2239 
L 252.544685 353.186673 
L 270.842732 353.205579 
L 289.140779 353.219719 
L 307.438825 353.165358 
L 325.736872 353.2239 
L 344.034919 353.198692 
L 362.332965 353.222805 
L 380.631012 353.136991 
L 398.929059 353.063729 
L 417.227105 353.208787 
L 435.525152 353.196447 
L 453.823199 353.205658 
L 472.121246 353.118126 
L 490.419292 353.019309 
L 508.717339 353.223422 
L 527.015386 353.202532 
L 545.313432 353.223675 
L 563.611479 353.013191 
L 581.909526 345.455606 
L 600.207572 353.212802 
L 618.505619 351.286267 
L 636.803666 351.383894 
L 655.101712 353.145938 
L 673.399759 353.177527 
L 691.697806 353.223501 
L 709.995852 353.055581 
L 728.293899 353.07771 
L 746.591946 353.223785 
L 764.889993 353.223871 
L 783.188039 353.182124 
L 801.486086 353.220539 
L 819.784133 353.104648 
L 838.082179 353.05595 
L 856.380226 353.221651 
L 874.678273 349.474092 
L 892.976319 353.056661 
L 911.274366 353.08312 
L 929.572413 350.648451 
L 947.870459 353.202346 
" clip-path="url(#p9eb7645a6d)" style="fill: none; stroke: #5cb85c; stroke-linecap: square"/>
   </g>
   <g id="line2d_24">
    <path d="M 42.117148 353.220425 
L 51.266172 343.460247 
L 60.415195 348.164567 
L 69.564218 353.2239 
L 78.713242 353.222162 
L 87.862265 353.223663 
L 97.011288 353.2239 
L 106.160312 353.2239 
L 115.309335 353.2239 
L 124.458358 353.052476 
L 142.756405 353.223861 
L 161.054452 353.221412 
L 179.352499 353.213554 
L 197.650545 353.2239 
L 215.948592 353.2239 
L 234.246639 353.2239 
L 252.544685 353.191789 
L 270.842732 353.206756 
L 289.140779 353.218883 
L 307.438825 353.16511 
L 325.736872 353.2239 
L 344.034919 353.196119 
L 362.332965 353.222872 
L 380.631012 353.141721 
L 398.929059 353.063786 
L 417.227105 353.208281 
L 435.525152 353.197521 
L 453.823199 353.20428 
L 472.121246 353.118929 
L 490.419292 353.017265 
L 508.717339 353.223385 
L 527.015386 353.203623 
L 545.313432 353.223821 
L 563.611479 353.013581 
L 581.909526 345.508086 
L 600.207572 353.213702 
L 618.505619 351.279508 
L 636.803666 351.367484 
L 655.101712 353.143479 
L 673.399759 353.180665 
L 691.697806 353.223541 
L 709.995852 353.057801 
L 728.293899 353.076165 
L 746.591946 353.2237 
L 764.889993 353.22386 
L 783.188039 353.183715 
L 801.486086 353.22039 
L 819.784133 353.104774 
L 838.082179 353.056093 
L 856.380226 353.222103 
L 874.678273 349.381288 
L 892.976319 353.057299 
L 911.274366 353.081522 
L 929.572413 350.627223 
L 947.870459 353.204431 
" clip-path="url(#p9eb7645a6d)" style="fill: none; stroke: #5cb85c; stroke-linecap: square"/>
   </g>
   <g id="line2d_25">
    <path d="M 32.968125 353.2239 
L 993.158125 353.2239 
" clip-path="url(#p9eb7645a6d)" style="fill: none; stroke: #dedede; stroke-width: 2; stroke-linecap: square"/>
   </g>
   <g id="text_15">
    <!-- FastQC: Per Base N Content -->
    <g transform="translate(402.209375 19.3575) scale(0.16 -0.16)">
     <defs>
      <path id="DejaVuSans-46" d="M 628 4666 
L 3309 4666 
L 3309 4134 
L 1259 4134 
L 1259 2759 
L 3109 2759 
L 3109 2228 
L 1259 2228 
L 1259 0 
L 628 0 
L 628 4666 
z
" transform="scale(0.015625)"/>
      <path id="DejaVuSans-51" d="M 2522 4238 
Q 1834 4238 1429 3725 
Q 1025 3213 1025 2328 
Q 1025 1447 1429 934 
Q 1834 422 2522 422 
Q 3209 422 3611 934 
Q 4013 1447 4013 2328 
Q 4013 3213 3611 3725 
Q 3209 4238 2522 4238 
z
M 3406 84 
L 4238 -825 
L 3475 -825 
L 2784 -78 
Q 2681 -84 2626 -87 
Q 2572 -91 2522 -91 
Q 1538 -91 948 567 
Q 359 1225 359 2328 
Q 359 3434 948 4092 
Q 1538 4750 2522 4750 
Q 3503 4750 4090 4092 
Q 4678 3434 4678 2328 
Q 4678 1516 4351 937 
Q 4025 359 3406 84 
z
" transform="scale(0.015625)"/>
      <path id="DejaVuSans-3a" d="M 750 794 
L 1409 794 
L 1409 0 
L 750 0 
L 750 794 
z
M 750 3309 
L 1409 3309 
L 1409 2516 
L 750 2516 
L 750 3309 
z
" transform="scale(0.015625)"/>
      <path id="DejaVuSans-42" d="M 1259 2228 
L 1259 519 
L 2272 519 
Q 2781 519 3026 730 
Q 3272 941 3272 1375 
Q 3272 1813 3026 2020 
Q 2781 2228 2272 2228 
L 1259 2228 
z
M 1259 4147 
L 1259 2741 
L 2194 2741 
Q 2656 2741 2882 2914 
Q 3109 3088 3109 3444 
Q 3109 3797 2882 3972 
Q 2656 4147 2194 4147 
L 1259 4147 
z
M 628 4666 
L 2241 4666 
Q 2963 4666 3353 4366 
Q 3744 4066 3744 3513 
Q 3744 3084 3544 2831 
Q 3344 2578 2956 2516 
Q 3422 2416 3680 2098 
Q 3938 1781 3938 1306 
Q 3938 681 3513 340 
Q 3088 0 2303 0 
L 628 0 
L 628 4666 
z
" transform="scale(0.015625)"/>
     </defs>
     <use xlink:href="#DejaVuSans-46"/>
     <use xlink:href="#DejaVuSans-61" x="48.394531"/>
     <use xlink:href="#DejaVuSans-73" x="109.673828"/>
     <use xlink:href="#DejaVuSans-74" x="161.773438"/>
     <use xlink:href="#DejaVuSans-51" x="200.982422"/>
     <use xlink:href="#DejaVuSans-43" x="279.693359"/>
     <use xlink:href="#DejaVuSans-3a" x="349.517578"/>
     <use xlink:href="#DejaVuSans-20" x="383.208984"/>
     <use xlink:href="#DejaVuSans-50" x="414.996094"/>
     <use xlink:href="#DejaVuSans-65" x="471.673828"/>
     <use xlink:href="#DejaVuSans-72" x="533.197266"/>
     <use xlink:href="#DejaVuSans-20" x="574.310547"/>
     <use xlink:href="#DejaVuSans-42" x="606.097656"/>
     <use xlink:href="#DejaVuSans-61" x="674.701172"/>
     <use xlink:href="#DejaVuSans-73" x="735.980469"/>
     <use xlink:href="#DejaVuSans-65" x="788.080078"/>
     <use xlink:href="#DejaVuSans-20" x="849.603516"/>
     <use xlink:href="#DejaVuSans-4e" x="881.390625"/>
     <use xlink:href="#DejaVuSans-20" x="956.195312"/>
     <use xlink:href="#DejaVuSans-43" x="987.982422"/>
     <use xlink:href="#DejaVuSans-6f" x="1057.806641"/>
     <use xlink:href="#DejaVuSans-6e" x="1118.988281"/>
     <use xlink:href="#DejaVuSans-74" x="1182.367188"/>
     <use xlink:href="#DejaVuSans-65" x="1221.576172"/>
     <use xlink:href="#DejaVuSans-6e" x="1283.099609"/>
     <use xlink:href="#DejaVuSans-74" x="1346.478516"/>
    </g>
   </g>
  </g>
 </g>
 <defs>
  <clipPath id="p9eb7645a6d">
   <rect x="32.968125" y="35.2559" width="960.19" height="317.968"/>
  </clipPath>
 </defs>
</svg>
