<?xml version="1.0" encoding="utf-8" standalone="no"?>
<!DOCTYPE svg PUBLIC "-//W3C//DTD SVG 1.1//EN"
  "http://www.w3.org/Graphics/SVG/1.1/DTD/svg11.dtd">
<svg xmlns:xlink="http://www.w3.org/1999/xlink" width="1000.280625pt" height="388.844525pt" viewBox="0 0 1000.280625 388.844525" xmlns="http://www.w3.org/2000/svg" version="1.1">
 <metadata>
  <rdf:RDF xmlns:dc="http://purl.org/dc/elements/1.1/" xmlns:cc="http://creativecommons.org/ns#" xmlns:rdf="http://www.w3.org/1999/02/22-rdf-syntax-ns#">
   <cc:Work>
    <dc:type rdf:resource="http://purl.org/dc/dcmitype/StillImage"/>
    <dc:date>2025-03-11T15:51:06.721158</dc:date>
    <dc:format>image/svg+xml</dc:format>
    <dc:creator>
     <cc:Agent>
      <dc:title>Matplotlib v3.8.2, https://matplotlib.org/</dc:title>
     </cc:Agent>
    </dc:creator>
   </cc:Work>
  </rdf:RDF>
 </metadata>
 <defs>
  <style type="text/css">*{stroke-linejoin: round; stroke-linecap: butt}</style>
 </defs>
 <g id="figure_1">
  <g id="axes_1">
   <g id="patch_1">
    <path d="M 40.600625 353.2239 
L 985.445625 353.2239 
L 985.445625 35.2559 
L 40.600625 35.2559 
z
" style="fill: #ffffff"/>
   </g>
   <g id="matplotlib.axis_1">
    <g id="xtick_1">
     <g id="text_1">
      <!-- 0 -->
      <g transform="translate(38.055625 366.30265) scale(0.08 -0.08)">
       <defs>
        <path id="DejaVuSans-30" d="M 2034 4250 
Q 1547 4250 1301 3770 
Q 1056 3291 1056 2328 
Q 1056 1369 1301 889 
Q 1547 409 2034 409 
Q 2525 409 2770 889 
Q 3016 1369 3016 2328 
Q 3016 3291 2770 3770 
Q 2525 4250 2034 4250 
z
M 2034 4750 
Q 2819 4750 3233 4129 
Q 3647 3509 3647 2328 
Q 3647 1150 3233 529 
Q 2819 -91 2034 -91 
Q 1250 -91 836 529 
Q 422 1150 422 2328 
Q 422 3509 836 4129 
Q 1250 4750 2034 4750 
z
" transform="scale(0.015625)"/>
       </defs>
       <use xlink:href="#DejaVuSans-30"/>
      </g>
     </g>
    </g>
    <g id="xtick_2">
     <g id="text_2">
      <!-- 20 -->
      <g transform="translate(224.479625 366.30265) scale(0.08 -0.08)">
       <defs>
        <path id="DejaVuSans-32" d="M 1228 531 
L 3431 531 
L 3431 0 
L 469 0 
L 469 531 
Q 828 903 1448 1529 
Q 2069 2156 2228 2338 
Q 2531 2678 2651 2914 
Q 2772 3150 2772 3378 
Q 2772 3750 2511 3984 
Q 2250 4219 1831 4219 
Q 1534 4219 1204 4116 
Q 875 4013 500 3803 
L 500 4441 
Q 881 4594 1212 4672 
Q 1544 4750 1819 4750 
Q 2544 4750 2975 4387 
Q 3406 4025 3406 3419 
Q 3406 3131 3298 2873 
Q 3191 2616 2906 2266 
Q 2828 2175 2409 1742 
Q 1991 1309 1228 531 
z
" transform="scale(0.015625)"/>
       </defs>
       <use xlink:href="#DejaVuSans-32"/>
       <use xlink:href="#DejaVuSans-30" x="63.623047"/>
      </g>
     </g>
    </g>
    <g id="xtick_3">
     <g id="text_3">
      <!-- 40 -->
      <g transform="translate(413.448625 366.30265) scale(0.08 -0.08)">
       <defs>
        <path id="DejaVuSans-34" d="M 2419 4116 
L 825 1625 
L 2419 1625 
L 2419 4116 
z
M 2253 4666 
L 3047 4666 
L 3047 1625 
L 3713 1625 
L 3713 1100 
L 3047 1100 
L 3047 0 
L 2419 0 
L 2419 1100 
L 313 1100 
L 313 1709 
L 2253 4666 
z
" transform="scale(0.015625)"/>
       </defs>
       <use xlink:href="#DejaVuSans-34"/>
       <use xlink:href="#DejaVuSans-30" x="63.623047"/>
      </g>
     </g>
    </g>
    <g id="xtick_4">
     <g id="text_4">
      <!-- 60 -->
      <g transform="translate(602.417625 366.30265) scale(0.08 -0.08)">
       <defs>
        <path id="DejaVuSans-36" d="M 2113 2584 
Q 1688 2584 1439 2293 
Q 1191 2003 1191 1497 
Q 1191 994 1439 701 
Q 1688 409 2113 409 
Q 2538 409 2786 701 
Q 3034 994 3034 1497 
Q 3034 2003 2786 2293 
Q 2538 2584 2113 2584 
z
M 3366 4563 
L 3366 3988 
Q 3128 4100 2886 4159 
Q 2644 4219 2406 4219 
Q 1781 4219 1451 3797 
Q 1122 3375 1075 2522 
Q 1259 2794 1537 2939 
Q 1816 3084 2150 3084 
Q 2853 3084 3261 2657 
Q 3669 2231 3669 1497 
Q 3669 778 3244 343 
Q 2819 -91 2113 -91 
Q 1303 -91 875 529 
Q 447 1150 447 2328 
Q 447 3434 972 4092 
Q 1497 4750 2381 4750 
Q 2619 4750 2861 4703 
Q 3103 4656 3366 4563 
z
" transform="scale(0.015625)"/>
       </defs>
       <use xlink:href="#DejaVuSans-36"/>
       <use xlink:href="#DejaVuSans-30" x="63.623047"/>
      </g>
     </g>
    </g>
    <g id="xtick_5">
     <g id="text_5">
      <!-- 80 -->
      <g transform="translate(791.386625 366.30265) scale(0.08 -0.08)">
       <defs>
        <path id="DejaVuSans-38" d="M 2034 2216 
Q 1584 2216 1326 1975 
Q 1069 1734 1069 1313 
Q 1069 891 1326 650 
Q 1584 409 2034 409 
Q 2484 409 2743 651 
Q 3003 894 3003 1313 
Q 3003 1734 2745 1975 
Q 2488 2216 2034 2216 
z
M 1403 2484 
Q 997 2584 770 2862 
Q 544 3141 544 3541 
Q 544 4100 942 4425 
Q 1341 4750 2034 4750 
Q 2731 4750 3128 4425 
Q 3525 4100 3525 3541 
Q 3525 3141 3298 2862 
Q 3072 2584 2669 2484 
Q 3125 2378 3379 2068 
Q 3634 1759 3634 1313 
Q 3634 634 3220 271 
Q 2806 -91 2034 -91 
Q 1263 -91 848 271 
Q 434 634 434 1313 
Q 434 1759 690 2068 
Q 947 2378 1403 2484 
z
M 1172 3481 
Q 1172 3119 1398 2916 
Q 1625 2713 2034 2713 
Q 2441 2713 2670 2916 
Q 2900 3119 2900 3481 
Q 2900 3844 2670 4047 
Q 2441 4250 2034 4250 
Q 1625 4250 1398 4047 
Q 1172 3844 1172 3481 
z
" transform="scale(0.015625)"/>
       </defs>
       <use xlink:href="#DejaVuSans-38"/>
       <use xlink:href="#DejaVuSans-30" x="63.623047"/>
      </g>
     </g>
    </g>
    <g id="xtick_6">
     <g id="text_6">
      <!-- 100 -->
      <g transform="translate(977.810625 366.30265) scale(0.08 -0.08)">
       <defs>
        <path id="DejaVuSans-31" d="M 794 531 
L 1825 531 
L 1825 4091 
L 703 3866 
L 703 4441 
L 1819 4666 
L 2450 4666 
L 2450 531 
L 3481 531 
L 3481 0 
L 794 0 
L 794 531 
z
" transform="scale(0.015625)"/>
       </defs>
       <use xlink:href="#DejaVuSans-31"/>
       <use xlink:href="#DejaVuSans-30" x="63.623047"/>
       <use xlink:href="#DejaVuSans-30" x="127.246094"/>
      </g>
     </g>
    </g>
    <g id="text_7">
     <!-- Transcript Position (%) -->
     <g transform="translate(457.191094 379.564837) scale(0.1 -0.1)">
      <defs>
       <path id="DejaVuSans-54" d="M -19 4666 
L 3928 4666 
L 3928 4134 
L 2272 4134 
L 2272 0 
L 1638 0 
L 1638 4134 
L -19 4134 
L -19 4666 
z
" transform="scale(0.015625)"/>
       <path id="DejaVuSans-72" d="M 2631 2963 
Q 2534 3019 2420 3045 
Q 2306 3072 2169 3072 
Q 1681 3072 1420 2755 
Q 1159 2438 1159 1844 
L 1159 0 
L 581 0 
L 581 3500 
L 1159 3500 
L 1159 2956 
Q 1341 3275 1631 3429 
Q 1922 3584 2338 3584 
Q 2397 3584 2469 3576 
Q 2541 3569 2628 3553 
L 2631 2963 
z
" transform="scale(0.015625)"/>
       <path id="DejaVuSans-61" d="M 2194 1759 
Q 1497 1759 1228 1600 
Q 959 1441 959 1056 
Q 959 750 1161 570 
Q 1363 391 1709 391 
Q 2188 391 2477 730 
Q 2766 1069 2766 1631 
L 2766 1759 
L 2194 1759 
z
M 3341 1997 
L 3341 0 
L 2766 0 
L 2766 531 
Q 2569 213 2275 61 
Q 1981 -91 1556 -91 
Q 1019 -91 701 211 
Q 384 513 384 1019 
Q 384 1609 779 1909 
Q 1175 2209 1959 2209 
L 2766 2209 
L 2766 2266 
Q 2766 2663 2505 2880 
Q 2244 3097 1772 3097 
Q 1472 3097 1187 3025 
Q 903 2953 641 2809 
L 641 3341 
Q 956 3463 1253 3523 
Q 1550 3584 1831 3584 
Q 2591 3584 2966 3190 
Q 3341 2797 3341 1997 
z
" transform="scale(0.015625)"/>
       <path id="DejaVuSans-6e" d="M 3513 2113 
L 3513 0 
L 2938 0 
L 2938 2094 
Q 2938 2591 2744 2837 
Q 2550 3084 2163 3084 
Q 1697 3084 1428 2787 
Q 1159 2491 1159 1978 
L 1159 0 
L 581 0 
L 581 3500 
L 1159 3500 
L 1159 2956 
Q 1366 3272 1645 3428 
Q 1925 3584 2291 3584 
Q 2894 3584 3203 3211 
Q 3513 2838 3513 2113 
z
" transform="scale(0.015625)"/>
       <path id="DejaVuSans-73" d="M 2834 3397 
L 2834 2853 
Q 2591 2978 2328 3040 
Q 2066 3103 1784 3103 
Q 1356 3103 1142 2972 
Q 928 2841 928 2578 
Q 928 2378 1081 2264 
Q 1234 2150 1697 2047 
L 1894 2003 
Q 2506 1872 2764 1633 
Q 3022 1394 3022 966 
Q 3022 478 2636 193 
Q 2250 -91 1575 -91 
Q 1294 -91 989 -36 
Q 684 19 347 128 
L 347 722 
Q 666 556 975 473 
Q 1284 391 1588 391 
Q 1994 391 2212 530 
Q 2431 669 2431 922 
Q 2431 1156 2273 1281 
Q 2116 1406 1581 1522 
L 1381 1569 
Q 847 1681 609 1914 
Q 372 2147 372 2553 
Q 372 3047 722 3315 
Q 1072 3584 1716 3584 
Q 2034 3584 2315 3537 
Q 2597 3491 2834 3397 
z
" transform="scale(0.015625)"/>
       <path id="DejaVuSans-63" d="M 3122 3366 
L 3122 2828 
Q 2878 2963 2633 3030 
Q 2388 3097 2138 3097 
Q 1578 3097 1268 2742 
Q 959 2388 959 1747 
Q 959 1106 1268 751 
Q 1578 397 2138 397 
Q 2388 397 2633 464 
Q 2878 531 3122 666 
L 3122 134 
Q 2881 22 2623 -34 
Q 2366 -91 2075 -91 
Q 1284 -91 818 406 
Q 353 903 353 1747 
Q 353 2603 823 3093 
Q 1294 3584 2113 3584 
Q 2378 3584 2631 3529 
Q 2884 3475 3122 3366 
z
" transform="scale(0.015625)"/>
       <path id="DejaVuSans-69" d="M 603 3500 
L 1178 3500 
L 1178 0 
L 603 0 
L 603 3500 
z
M 603 4863 
L 1178 4863 
L 1178 4134 
L 603 4134 
L 603 4863 
z
" transform="scale(0.015625)"/>
       <path id="DejaVuSans-70" d="M 1159 525 
L 1159 -1331 
L 581 -1331 
L 581 3500 
L 1159 3500 
L 1159 2969 
Q 1341 3281 1617 3432 
Q 1894 3584 2278 3584 
Q 2916 3584 3314 3078 
Q 3713 2572 3713 1747 
Q 3713 922 3314 415 
Q 2916 -91 2278 -91 
Q 1894 -91 1617 61 
Q 1341 213 1159 525 
z
M 3116 1747 
Q 3116 2381 2855 2742 
Q 2594 3103 2138 3103 
Q 1681 3103 1420 2742 
Q 1159 2381 1159 1747 
Q 1159 1113 1420 752 
Q 1681 391 2138 391 
Q 2594 391 2855 752 
Q 3116 1113 3116 1747 
z
" transform="scale(0.015625)"/>
       <path id="DejaVuSans-74" d="M 1172 4494 
L 1172 3500 
L 2356 3500 
L 2356 3053 
L 1172 3053 
L 1172 1153 
Q 1172 725 1289 603 
Q 1406 481 1766 481 
L 2356 481 
L 2356 0 
L 1766 0 
Q 1100 0 847 248 
Q 594 497 594 1153 
L 594 3053 
L 172 3053 
L 172 3500 
L 594 3500 
L 594 4494 
L 1172 4494 
z
" transform="scale(0.015625)"/>
       <path id="DejaVuSans-20" transform="scale(0.015625)"/>
       <path id="DejaVuSans-50" d="M 1259 4147 
L 1259 2394 
L 2053 2394 
Q 2494 2394 2734 2622 
Q 2975 2850 2975 3272 
Q 2975 3691 2734 3919 
Q 2494 4147 2053 4147 
L 1259 4147 
z
M 628 4666 
L 2053 4666 
Q 2838 4666 3239 4311 
Q 3641 3956 3641 3272 
Q 3641 2581 3239 2228 
Q 2838 1875 2053 1875 
L 1259 1875 
L 1259 0 
L 628 0 
L 628 4666 
z
" transform="scale(0.015625)"/>
       <path id="DejaVuSans-6f" d="M 1959 3097 
Q 1497 3097 1228 2736 
Q 959 2375 959 1747 
Q 959 1119 1226 758 
Q 1494 397 1959 397 
Q 2419 397 2687 759 
Q 2956 1122 2956 1747 
Q 2956 2369 2687 2733 
Q 2419 3097 1959 3097 
z
M 1959 3584 
Q 2709 3584 3137 3096 
Q 3566 2609 3566 1747 
Q 3566 888 3137 398 
Q 2709 -91 1959 -91 
Q 1206 -91 779 398 
Q 353 888 353 1747 
Q 353 2609 779 3096 
Q 1206 3584 1959 3584 
z
" transform="scale(0.015625)"/>
       <path id="DejaVuSans-28" d="M 1984 4856 
Q 1566 4138 1362 3434 
Q 1159 2731 1159 2009 
Q 1159 1288 1364 580 
Q 1569 -128 1984 -844 
L 1484 -844 
Q 1016 -109 783 600 
Q 550 1309 550 2009 
Q 550 2706 781 3412 
Q 1013 4119 1484 4856 
L 1984 4856 
z
" transform="scale(0.015625)"/>
       <path id="DejaVuSans-25" d="M 4653 2053 
Q 4381 2053 4226 1822 
Q 4072 1591 4072 1178 
Q 4072 772 4226 539 
Q 4381 306 4653 306 
Q 4919 306 5073 539 
Q 5228 772 5228 1178 
Q 5228 1588 5073 1820 
Q 4919 2053 4653 2053 
z
M 4653 2450 
Q 5147 2450 5437 2106 
Q 5728 1763 5728 1178 
Q 5728 594 5436 251 
Q 5144 -91 4653 -91 
Q 4153 -91 3862 251 
Q 3572 594 3572 1178 
Q 3572 1766 3864 2108 
Q 4156 2450 4653 2450 
z
M 1428 4353 
Q 1159 4353 1004 4120 
Q 850 3888 850 3481 
Q 850 3069 1003 2837 
Q 1156 2606 1428 2606 
Q 1700 2606 1854 2837 
Q 2009 3069 2009 3481 
Q 2009 3884 1853 4118 
Q 1697 4353 1428 4353 
z
M 4250 4750 
L 4750 4750 
L 1831 -91 
L 1331 -91 
L 4250 4750 
z
M 1428 4750 
Q 1922 4750 2215 4408 
Q 2509 4066 2509 3481 
Q 2509 2891 2217 2550 
Q 1925 2209 1428 2209 
Q 931 2209 642 2551 
Q 353 2894 353 3481 
Q 353 4063 643 4406 
Q 934 4750 1428 4750 
z
" transform="scale(0.015625)"/>
       <path id="DejaVuSans-29" d="M 513 4856 
L 1013 4856 
Q 1481 4119 1714 3412 
Q 1947 2706 1947 2009 
Q 1947 1309 1714 600 
Q 1481 -109 1013 -844 
L 513 -844 
Q 928 -128 1133 580 
Q 1338 1288 1338 2009 
Q 1338 2731 1133 3434 
Q 928 4138 513 4856 
z
" transform="scale(0.015625)"/>
      </defs>
      <use xlink:href="#DejaVuSans-54"/>
      <use xlink:href="#DejaVuSans-72" x="46.333984"/>
      <use xlink:href="#DejaVuSans-61" x="87.447266"/>
      <use xlink:href="#DejaVuSans-6e" x="148.726562"/>
      <use xlink:href="#DejaVuSans-73" x="212.105469"/>
      <use xlink:href="#DejaVuSans-63" x="264.205078"/>
      <use xlink:href="#DejaVuSans-72" x="319.185547"/>
      <use xlink:href="#DejaVuSans-69" x="360.298828"/>
      <use xlink:href="#DejaVuSans-70" x="388.082031"/>
      <use xlink:href="#DejaVuSans-74" x="451.558594"/>
      <use xlink:href="#DejaVuSans-20" x="490.767578"/>
      <use xlink:href="#DejaVuSans-50" x="522.554688"/>
      <use xlink:href="#DejaVuSans-6f" x="579.232422"/>
      <use xlink:href="#DejaVuSans-73" x="640.414062"/>
      <use xlink:href="#DejaVuSans-69" x="692.513672"/>
      <use xlink:href="#DejaVuSans-74" x="720.296875"/>
      <use xlink:href="#DejaVuSans-69" x="759.505859"/>
      <use xlink:href="#DejaVuSans-6f" x="787.289062"/>
      <use xlink:href="#DejaVuSans-6e" x="848.470703"/>
      <use xlink:href="#DejaVuSans-20" x="911.849609"/>
      <use xlink:href="#DejaVuSans-28" x="943.636719"/>
      <use xlink:href="#DejaVuSans-25" x="982.650391"/>
      <use xlink:href="#DejaVuSans-29" x="1077.669922"/>
     </g>
    </g>
   </g>
   <g id="matplotlib.axis_2">
    <g id="ytick_1">
     <g id="line2d_1">
      <path d="M 40.600625 353.2239 
L 985.445625 353.2239 
" clip-path="url(#p9aa7074d46)" style="fill: none; stroke: #dedede; stroke-linecap: square"/>
     </g>
     <g id="text_8">
      <!-- 0.0 -->
      <g transform="translate(20.878125 356.263275) scale(0.08 -0.08)">
       <defs>
        <path id="DejaVuSans-2e" d="M 684 794 
L 1344 794 
L 1344 0 
L 684 0 
L 684 794 
z
" transform="scale(0.015625)"/>
       </defs>
       <use xlink:href="#DejaVuSans-30"/>
       <use xlink:href="#DejaVuSans-2e" x="63.623047"/>
       <use xlink:href="#DejaVuSans-30" x="95.410156"/>
      </g>
     </g>
    </g>
    <g id="ytick_2">
     <g id="line2d_2">
      <path d="M 40.600625 305.710198 
L 985.445625 305.710198 
" clip-path="url(#p9aa7074d46)" style="fill: none; stroke: #dedede; stroke-linecap: square"/>
     </g>
     <g id="text_9">
      <!-- 0.2 -->
      <g transform="translate(20.878125 308.749573) scale(0.08 -0.08)">
       <use xlink:href="#DejaVuSans-30"/>
       <use xlink:href="#DejaVuSans-2e" x="63.623047"/>
       <use xlink:href="#DejaVuSans-32" x="95.410156"/>
      </g>
     </g>
    </g>
    <g id="ytick_3">
     <g id="line2d_3">
      <path d="M 40.600625 258.196497 
L 985.445625 258.196497 
" clip-path="url(#p9aa7074d46)" style="fill: none; stroke: #dedede; stroke-linecap: square"/>
     </g>
     <g id="text_10">
      <!-- 0.4 -->
      <g transform="translate(20.878125 261.235872) scale(0.08 -0.08)">
       <use xlink:href="#DejaVuSans-30"/>
       <use xlink:href="#DejaVuSans-2e" x="63.623047"/>
       <use xlink:href="#DejaVuSans-34" x="95.410156"/>
      </g>
     </g>
    </g>
    <g id="ytick_4">
     <g id="line2d_4">
      <path d="M 40.600625 210.682795 
L 985.445625 210.682795 
" clip-path="url(#p9aa7074d46)" style="fill: none; stroke: #dedede; stroke-linecap: square"/>
     </g>
     <g id="text_11">
      <!-- 0.6 -->
      <g transform="translate(20.878125 213.72217) scale(0.08 -0.08)">
       <use xlink:href="#DejaVuSans-30"/>
       <use xlink:href="#DejaVuSans-2e" x="63.623047"/>
       <use xlink:href="#DejaVuSans-36" x="95.410156"/>
      </g>
     </g>
    </g>
    <g id="ytick_5">
     <g id="line2d_5">
      <path d="M 40.600625 163.169093 
L 985.445625 163.169093 
" clip-path="url(#p9aa7074d46)" style="fill: none; stroke: #dedede; stroke-linecap: square"/>
     </g>
     <g id="text_12">
      <!-- 0.8 -->
      <g transform="translate(20.878125 166.208468) scale(0.08 -0.08)">
       <use xlink:href="#DejaVuSans-30"/>
       <use xlink:href="#DejaVuSans-2e" x="63.623047"/>
       <use xlink:href="#DejaVuSans-38" x="95.410156"/>
      </g>
     </g>
    </g>
    <g id="ytick_6">
     <g id="line2d_6">
      <path d="M 40.600625 115.655392 
L 985.445625 115.655392 
" clip-path="url(#p9aa7074d46)" style="fill: none; stroke: #dedede; stroke-linecap: square"/>
     </g>
     <g id="text_13">
      <!-- 1.0 -->
      <g transform="translate(20.878125 118.694767) scale(0.08 -0.08)">
       <use xlink:href="#DejaVuSans-31"/>
       <use xlink:href="#DejaVuSans-2e" x="63.623047"/>
       <use xlink:href="#DejaVuSans-30" x="95.410156"/>
      </g>
     </g>
    </g>
    <g id="ytick_7">
     <g id="line2d_7">
      <path d="M 40.600625 68.14169 
L 985.445625 68.14169 
" clip-path="url(#p9aa7074d46)" style="fill: none; stroke: #dedede; stroke-linecap: square"/>
     </g>
     <g id="text_14">
      <!-- 1.2 -->
      <g transform="translate(20.878125 71.181065) scale(0.08 -0.08)">
       <use xlink:href="#DejaVuSans-31"/>
       <use xlink:href="#DejaVuSans-2e" x="63.623047"/>
       <use xlink:href="#DejaVuSans-32" x="95.410156"/>
      </g>
     </g>
    </g>
    <g id="text_15">
     <!-- Percentage total cumulative mapped-read depth -->
     <g transform="translate(14.798438 316.09615) rotate(-90) scale(0.1 -0.1)">
      <defs>
       <path id="DejaVuSans-65" d="M 3597 1894 
L 3597 1613 
L 953 1613 
Q 991 1019 1311 708 
Q 1631 397 2203 397 
Q 2534 397 2845 478 
Q 3156 559 3463 722 
L 3463 178 
Q 3153 47 2828 -22 
Q 2503 -91 2169 -91 
Q 1331 -91 842 396 
Q 353 884 353 1716 
Q 353 2575 817 3079 
Q 1281 3584 2069 3584 
Q 2775 3584 3186 3129 
Q 3597 2675 3597 1894 
z
M 3022 2063 
Q 3016 2534 2758 2815 
Q 2500 3097 2075 3097 
Q 1594 3097 1305 2825 
Q 1016 2553 972 2059 
L 3022 2063 
z
" transform="scale(0.015625)"/>
       <path id="DejaVuSans-67" d="M 2906 1791 
Q 2906 2416 2648 2759 
Q 2391 3103 1925 3103 
Q 1463 3103 1205 2759 
Q 947 2416 947 1791 
Q 947 1169 1205 825 
Q 1463 481 1925 481 
Q 2391 481 2648 825 
Q 2906 1169 2906 1791 
z
M 3481 434 
Q 3481 -459 3084 -895 
Q 2688 -1331 1869 -1331 
Q 1566 -1331 1297 -1286 
Q 1028 -1241 775 -1147 
L 775 -588 
Q 1028 -725 1275 -790 
Q 1522 -856 1778 -856 
Q 2344 -856 2625 -561 
Q 2906 -266 2906 331 
L 2906 616 
Q 2728 306 2450 153 
Q 2172 0 1784 0 
Q 1141 0 747 490 
Q 353 981 353 1791 
Q 353 2603 747 3093 
Q 1141 3584 1784 3584 
Q 2172 3584 2450 3431 
Q 2728 3278 2906 2969 
L 2906 3500 
L 3481 3500 
L 3481 434 
z
" transform="scale(0.015625)"/>
       <path id="DejaVuSans-6c" d="M 603 4863 
L 1178 4863 
L 1178 0 
L 603 0 
L 603 4863 
z
" transform="scale(0.015625)"/>
       <path id="DejaVuSans-75" d="M 544 1381 
L 544 3500 
L 1119 3500 
L 1119 1403 
Q 1119 906 1312 657 
Q 1506 409 1894 409 
Q 2359 409 2629 706 
Q 2900 1003 2900 1516 
L 2900 3500 
L 3475 3500 
L 3475 0 
L 2900 0 
L 2900 538 
Q 2691 219 2414 64 
Q 2138 -91 1772 -91 
Q 1169 -91 856 284 
Q 544 659 544 1381 
z
M 1991 3584 
L 1991 3584 
z
" transform="scale(0.015625)"/>
       <path id="DejaVuSans-6d" d="M 3328 2828 
Q 3544 3216 3844 3400 
Q 4144 3584 4550 3584 
Q 5097 3584 5394 3201 
Q 5691 2819 5691 2113 
L 5691 0 
L 5113 0 
L 5113 2094 
Q 5113 2597 4934 2840 
Q 4756 3084 4391 3084 
Q 3944 3084 3684 2787 
Q 3425 2491 3425 1978 
L 3425 0 
L 2847 0 
L 2847 2094 
Q 2847 2600 2669 2842 
Q 2491 3084 2119 3084 
Q 1678 3084 1418 2786 
Q 1159 2488 1159 1978 
L 1159 0 
L 581 0 
L 581 3500 
L 1159 3500 
L 1159 2956 
Q 1356 3278 1631 3431 
Q 1906 3584 2284 3584 
Q 2666 3584 2933 3390 
Q 3200 3197 3328 2828 
z
" transform="scale(0.015625)"/>
       <path id="DejaVuSans-76" d="M 191 3500 
L 800 3500 
L 1894 563 
L 2988 3500 
L 3597 3500 
L 2284 0 
L 1503 0 
L 191 3500 
z
" transform="scale(0.015625)"/>
       <path id="DejaVuSans-64" d="M 2906 2969 
L 2906 4863 
L 3481 4863 
L 3481 0 
L 2906 0 
L 2906 525 
Q 2725 213 2448 61 
Q 2172 -91 1784 -91 
Q 1150 -91 751 415 
Q 353 922 353 1747 
Q 353 2572 751 3078 
Q 1150 3584 1784 3584 
Q 2172 3584 2448 3432 
Q 2725 3281 2906 2969 
z
M 947 1747 
Q 947 1113 1208 752 
Q 1469 391 1925 391 
Q 2381 391 2643 752 
Q 2906 1113 2906 1747 
Q 2906 2381 2643 2742 
Q 2381 3103 1925 3103 
Q 1469 3103 1208 2742 
Q 947 2381 947 1747 
z
" transform="scale(0.015625)"/>
       <path id="DejaVuSans-2d" d="M 313 2009 
L 1997 2009 
L 1997 1497 
L 313 1497 
L 313 2009 
z
" transform="scale(0.015625)"/>
       <path id="DejaVuSans-68" d="M 3513 2113 
L 3513 0 
L 2938 0 
L 2938 2094 
Q 2938 2591 2744 2837 
Q 2550 3084 2163 3084 
Q 1697 3084 1428 2787 
Q 1159 2491 1159 1978 
L 1159 0 
L 581 0 
L 581 4863 
L 1159 4863 
L 1159 2956 
Q 1366 3272 1645 3428 
Q 1925 3584 2291 3584 
Q 2894 3584 3203 3211 
Q 3513 2838 3513 2113 
z
" transform="scale(0.015625)"/>
      </defs>
      <use xlink:href="#DejaVuSans-50"/>
      <use xlink:href="#DejaVuSans-65" x="56.677734"/>
      <use xlink:href="#DejaVuSans-72" x="118.201172"/>
      <use xlink:href="#DejaVuSans-63" x="157.064453"/>
      <use xlink:href="#DejaVuSans-65" x="212.044922"/>
      <use xlink:href="#DejaVuSans-6e" x="273.568359"/>
      <use xlink:href="#DejaVuSans-74" x="336.947266"/>
      <use xlink:href="#DejaVuSans-61" x="376.15625"/>
      <use xlink:href="#DejaVuSans-67" x="437.435547"/>
      <use xlink:href="#DejaVuSans-65" x="500.912109"/>
      <use xlink:href="#DejaVuSans-20" x="562.435547"/>
      <use xlink:href="#DejaVuSans-74" x="594.222656"/>
      <use xlink:href="#DejaVuSans-6f" x="633.431641"/>
      <use xlink:href="#DejaVuSans-74" x="694.613281"/>
      <use xlink:href="#DejaVuSans-61" x="733.822266"/>
      <use xlink:href="#DejaVuSans-6c" x="795.101562"/>
      <use xlink:href="#DejaVuSans-20" x="822.884766"/>
      <use xlink:href="#DejaVuSans-63" x="854.671875"/>
      <use xlink:href="#DejaVuSans-75" x="909.652344"/>
      <use xlink:href="#DejaVuSans-6d" x="973.03125"/>
      <use xlink:href="#DejaVuSans-75" x="1070.443359"/>
      <use xlink:href="#DejaVuSans-6c" x="1133.822266"/>
      <use xlink:href="#DejaVuSans-61" x="1161.605469"/>
      <use xlink:href="#DejaVuSans-74" x="1222.884766"/>
      <use xlink:href="#DejaVuSans-69" x="1262.09375"/>
      <use xlink:href="#DejaVuSans-76" x="1289.876953"/>
      <use xlink:href="#DejaVuSans-65" x="1349.056641"/>
      <use xlink:href="#DejaVuSans-20" x="1410.580078"/>
      <use xlink:href="#DejaVuSans-6d" x="1442.367188"/>
      <use xlink:href="#DejaVuSans-61" x="1539.779297"/>
      <use xlink:href="#DejaVuSans-70" x="1601.058594"/>
      <use xlink:href="#DejaVuSans-70" x="1664.535156"/>
      <use xlink:href="#DejaVuSans-65" x="1728.011719"/>
      <use xlink:href="#DejaVuSans-64" x="1789.535156"/>
      <use xlink:href="#DejaVuSans-2d" x="1853.011719"/>
      <use xlink:href="#DejaVuSans-72" x="1889.095703"/>
      <use xlink:href="#DejaVuSans-65" x="1927.958984"/>
      <use xlink:href="#DejaVuSans-61" x="1989.482422"/>
      <use xlink:href="#DejaVuSans-64" x="2050.761719"/>
      <use xlink:href="#DejaVuSans-20" x="2114.238281"/>
      <use xlink:href="#DejaVuSans-64" x="2146.025391"/>
      <use xlink:href="#DejaVuSans-65" x="2209.501953"/>
      <use xlink:href="#DejaVuSans-70" x="2271.025391"/>
      <use xlink:href="#DejaVuSans-74" x="2334.501953"/>
      <use xlink:href="#DejaVuSans-68" x="2373.710938"/>
     </g>
    </g>
   </g>
   <g id="line2d_8">
    <path d="M 40.600625 255.577989 
L 50.049075 253.6404 
L 59.497525 246.979956 
L 68.945975 235.847904 
L 78.394425 222.661829 
L 87.842875 207.292091 
L 97.291325 192.337574 
L 106.739775 179.643898 
L 116.188225 167.192658 
L 125.636675 154.591004 
L 135.085125 141.97201 
L 144.533575 132.346976 
L 153.982025 124.753697 
L 163.430475 116.751575 
L 172.878925 112.220845 
L 182.327375 107.91375 
L 191.775825 102.975069 
L 201.224275 98.330759 
L 210.672725 94.180602 
L 220.121175 90.130424 
L 229.569625 85.119082 
L 239.018075 79.65709 
L 248.466525 75.969325 
L 257.914975 72.412934 
L 267.363425 69.198898 
L 276.811875 67.903187 
L 286.260325 69.035016 
L 295.708775 67.200843 
L 305.157225 65.198707 
L 314.605675 63.813683 
L 324.054125 62.901027 
L 333.502575 61.18859 
L 342.951025 62.0446 
L 352.399475 62.168835 
L 361.847925 62.811811 
L 371.296375 59.581888 
L 380.744825 59.110431 
L 390.193275 61.7626 
L 399.641725 63.206212 
L 409.090175 65.648736 
L 418.538625 66.467523 
L 427.987075 67.130049 
L 437.435525 68.500939 
L 446.883975 67.852123 
L 456.332425 68.321387 
L 465.780875 67.843641 
L 475.229325 68.135744 
L 484.677775 69.199851 
L 494.126225 70.663797 
L 503.574675 70.7285 
L 513.023125 71.868398 
L 522.471575 71.128327 
L 531.920025 73.092114 
L 541.368475 76.134147 
L 550.816925 79.23854 
L 560.265375 81.328851 
L 569.713825 84.668356 
L 579.162275 86.663525 
L 588.610725 89.449686 
L 598.059175 90.940239 
L 607.507625 90.482267 
L 616.956075 90.830428 
L 626.404525 91.033121 
L 635.852975 93.483209 
L 645.301425 96.316079 
L 654.749875 98.025952 
L 664.198325 99.569749 
L 673.646775 101.755152 
L 683.095225 104.826444 
L 692.543675 106.89767 
L 701.992125 109.183104 
L 711.440575 110.618091 
L 720.889025 112.928875 
L 730.337475 114.99502 
L 739.785925 117.212833 
L 749.234375 120.069566 
L 758.682825 123.249451 
L 768.131275 124.210588 
L 777.579725 126.68648 
L 787.028175 129.871208 
L 796.476625 131.04015 
L 805.925075 130.369656 
L 815.373525 130.410103 
L 824.821975 131.646236 
L 834.270425 131.895599 
L 843.718875 130.701001 
L 853.167325 131.551404 
L 862.615775 132.32404 
L 872.064225 133.314566 
L 881.512675 134.924776 
L 890.961125 139.572667 
L 900.409575 143.958998 
L 909.858025 150.085251 
L 919.306475 159.563288 
L 928.754925 171.427077 
L 938.203375 187.677735 
L 947.651825 211.420858 
L 957.100275 243.266737 
L 966.548725 283.84888 
L 975.997175 331.664625 
" clip-path="url(#p9aa7074d46)" style="fill: none; stroke: #7cb5ec; stroke-linecap: square"/>
   </g>
   <g id="line2d_9">
    <path d="M 40.600625 249.329542 
L 50.049075 247.076679 
L 59.497525 240.314073 
L 68.945975 229.244994 
L 78.394425 215.648059 
L 87.842875 199.394216 
L 97.291325 183.987018 
L 106.739775 171.282407 
L 116.188225 158.741216 
L 125.636675 145.801822 
L 135.085125 132.816606 
L 144.533575 123.191832 
L 153.982025 115.526859 
L 163.430475 107.218447 
L 172.878925 102.910018 
L 182.327375 98.733399 
L 191.775825 94.009645 
L 201.224275 89.391479 
L 210.672725 85.212181 
L 220.121175 81.437554 
L 229.569625 76.843801 
L 239.018075 71.541436 
L 248.466525 68.038876 
L 257.914975 64.492161 
L 267.363425 61.10046 
L 276.811875 59.691885 
L 286.260325 60.981355 
L 295.708775 59.294378 
L 305.157225 57.371047 
L 314.605675 56.820784 
L 324.054125 56.511263 
L 333.502575 55.11624 
L 342.951025 56.291538 
L 352.399475 56.780839 
L 361.847925 57.81048 
L 371.296375 55.050983 
L 380.744825 55.044004 
L 390.193275 58.063728 
L 399.641725 59.685057 
L 409.090175 62.590795 
L 418.538625 63.693604 
L 427.987075 64.641194 
L 437.435525 66.438241 
L 446.883975 66.397322 
L 456.332425 67.376662 
L 465.780875 67.2388 
L 475.229325 67.693493 
L 484.677775 68.96961 
L 494.126225 70.926788 
L 503.574675 71.410946 
L 513.023125 72.749258 
L 522.471575 72.377029 
L 531.920025 74.838658 
L 541.368475 78.014141 
L 550.816925 81.58213 
L 560.265375 84.012426 
L 569.713825 87.521341 
L 579.162275 89.981244 
L 588.610725 93.113054 
L 598.059175 94.956698 
L 607.507625 94.857478 
L 616.956075 95.609815 
L 626.404525 96.144817 
L 635.852975 98.949306 
L 645.301425 101.913804 
L 654.749875 104.076851 
L 664.198325 105.982388 
L 673.646775 108.08214 
L 683.095225 111.050967 
L 692.543675 113.200259 
L 701.992125 115.540483 
L 711.440575 117.340213 
L 720.889025 120.024592 
L 730.337475 122.351431 
L 739.785925 124.691486 
L 749.234375 127.624868 
L 758.682825 131.152014 
L 768.131275 132.123343 
L 777.579725 134.360406 
L 787.028175 137.312768 
L 796.476625 138.573095 
L 805.925075 138.154708 
L 815.373525 138.354516 
L 824.821975 139.801565 
L 834.270425 140.327214 
L 843.718875 139.203259 
L 853.167325 139.957034 
L 862.615775 140.999176 
L 872.064225 142.154214 
L 881.512675 143.618132 
L 890.961125 148.330462 
L 900.409575 152.629041 
L 909.858025 158.502948 
L 919.306475 167.878446 
L 928.754925 179.3705 
L 938.203375 194.792662 
L 947.651825 217.61626 
L 957.100275 248.466926 
L 966.548725 287.380376 
L 975.997175 332.717417 
" clip-path="url(#p9aa7074d46)" style="fill: none; stroke: #434348; stroke-linecap: square"/>
   </g>
   <g id="line2d_10">
    <path d="M 40.600625 260.433613 
L 50.049075 259.258892 
L 59.497525 252.938018 
L 68.945975 242.424525 
L 78.394425 229.452056 
L 87.842875 213.226376 
L 97.291325 197.383979 
L 106.739775 184.326898 
L 116.188225 171.627117 
L 125.636675 158.326562 
L 135.085125 144.449176 
L 144.533575 134.13867 
L 153.982025 126.060745 
L 163.430475 117.002322 
L 172.878925 112.135367 
L 182.327375 107.899028 
L 191.775825 102.71047 
L 201.224275 97.490715 
L 210.672725 92.557167 
L 220.121175 88.666316 
L 229.569625 83.398321 
L 239.018075 77.299245 
L 248.466525 73.329651 
L 257.914975 69.208873 
L 267.363425 64.964669 
L 276.811875 63.440158 
L 286.260325 64.604103 
L 295.708775 62.880444 
L 305.157225 60.746024 
L 314.605675 59.652351 
L 324.054125 58.734082 
L 333.502575 57.088043 
L 342.951025 57.950844 
L 352.399475 57.993005 
L 361.847925 58.797141 
L 371.296375 55.612696 
L 380.744825 54.886869 
L 390.193275 57.663714 
L 399.641725 59.53958 
L 409.090175 62.304414 
L 418.538625 63.16046 
L 427.987075 63.745029 
L 437.435525 65.412235 
L 446.883975 64.172143 
L 456.332425 64.855244 
L 465.780875 64.078714 
L 475.229325 63.809512 
L 484.677775 64.917925 
L 494.126225 66.646762 
L 503.574675 66.68759 
L 513.023125 67.838556 
L 522.471575 67.285619 
L 531.920025 69.704733 
L 541.368475 72.889928 
L 550.816925 76.630042 
L 560.265375 78.827733 
L 569.713825 82.467488 
L 579.162275 84.773291 
L 588.610725 87.867969 
L 598.059175 89.724712 
L 607.507625 89.232331 
L 616.956075 89.70343 
L 626.404525 89.937953 
L 635.852975 92.303658 
L 645.301425 95.377108 
L 654.749875 97.711908 
L 664.198325 99.58952 
L 673.646775 101.395208 
L 683.095225 104.429742 
L 692.543675 106.500258 
L 701.992125 108.846301 
L 711.440575 110.544316 
L 720.889025 113.173458 
L 730.337475 115.567583 
L 739.785925 118.133121 
L 749.234375 121.238161 
L 758.682825 124.637526 
L 768.131275 125.875416 
L 777.579725 128.58643 
L 787.028175 132.156323 
L 796.476625 133.272961 
L 805.925075 132.472622 
L 815.373525 133.035977 
L 824.821975 134.90366 
L 834.270425 135.671943 
L 843.718875 134.905595 
L 853.167325 135.539676 
L 862.615775 135.867307 
L 872.064225 136.806339 
L 881.512675 138.257679 
L 890.961125 143.279598 
L 900.409575 148.697592 
L 909.858025 155.354224 
L 919.306475 165.583271 
L 928.754925 178.085943 
L 938.203375 194.490053 
L 947.651825 217.597521 
L 957.100275 248.428557 
L 966.548725 287.438715 
L 975.997175 332.81227 
" clip-path="url(#p9aa7074d46)" style="fill: none; stroke: #90ed7d; stroke-linecap: square"/>
   </g>
   <g id="line2d_11">
    <path d="M 40.600625 251.504594 
L 50.049075 249.402074 
L 59.497525 243.579588 
L 68.945975 232.879471 
L 78.394425 219.018824 
L 87.842875 203.093776 
L 97.291325 186.59722 
L 106.739775 173.650509 
L 116.188225 162.340521 
L 125.636675 150.285597 
L 135.085125 136.222893 
L 144.533575 126.400737 
L 153.982025 118.844769 
L 163.430475 111.092731 
L 172.878925 105.079962 
L 182.327375 99.86329 
L 191.775825 97.068183 
L 201.224275 92.370372 
L 210.672725 88.421463 
L 220.121175 84.844954 
L 229.569625 82.297844 
L 239.018075 76.555475 
L 248.466525 71.584836 
L 257.914975 68.612798 
L 267.363425 66.40392 
L 276.811875 64.260772 
L 286.260325 65.357693 
L 295.708775 63.951973 
L 305.157225 63.457393 
L 314.605675 62.86201 
L 324.054125 61.698334 
L 333.502575 61.054106 
L 342.951025 62.701597 
L 352.399475 62.35428 
L 361.847925 62.038996 
L 371.296375 59.119336 
L 380.744825 59.126146 
L 390.193275 61.869322 
L 399.641725 61.224052 
L 409.090175 61.295124 
L 418.538625 61.370298 
L 427.987075 62.522337 
L 437.435525 64.640869 
L 446.883975 64.150583 
L 456.332425 65.834684 
L 465.780875 67.305792 
L 475.229325 68.04653 
L 484.677775 69.533815 
L 494.126225 71.407718 
L 503.574675 71.888385 
L 513.023125 73.466147 
L 522.471575 73.650508 
L 531.920025 75.760731 
L 541.368475 78.150205 
L 550.816925 81.449054 
L 560.265375 83.686743 
L 569.713825 87.61429 
L 579.162275 90.21389 
L 588.610725 92.595043 
L 598.059175 93.609936 
L 607.507625 93.38346 
L 616.956075 93.260072 
L 626.404525 93.553226 
L 635.852975 94.814971 
L 645.301425 97.505942 
L 654.749875 98.693481 
L 664.198325 100.470887 
L 673.646775 102.843286 
L 683.095225 106.549759 
L 692.543675 108.938979 
L 701.992125 111.780362 
L 711.440575 114.268643 
L 720.889025 115.404335 
L 730.337475 116.282355 
L 739.785925 118.671158 
L 749.234375 122.225929 
L 758.682825 124.473598 
L 768.131275 126.419558 
L 777.579725 129.130547 
L 787.028175 132.591759 
L 796.476625 134.279191 
L 805.925075 135.386675 
L 815.373525 136.006292 
L 824.821975 137.380433 
L 834.270425 137.233689 
L 843.718875 136.96321 
L 853.167325 137.634266 
L 862.615775 138.856686 
L 872.064225 139.901493 
L 881.512675 140.336309 
L 890.961125 144.082676 
L 900.409575 148.656133 
L 909.858025 155.220327 
L 919.306475 164.954003 
L 928.754925 177.787517 
L 938.203375 193.683984 
L 947.651825 215.19234 
L 957.100275 245.777551 
L 966.548725 285.706304 
L 975.997175 331.9527 
" clip-path="url(#p9aa7074d46)" style="fill: none; stroke: #f7a35c; stroke-linecap: square"/>
   </g>
   <g id="line2d_12">
    <path d="M 40.600625 270.147536 
L 50.049075 269.19322 
L 59.497525 264.284805 
L 68.945975 254.593428 
L 78.394425 241.188948 
L 87.842875 225.160189 
L 97.291325 208.189941 
L 106.739775 194.910057 
L 116.188225 183.427245 
L 125.636675 170.790242 
L 135.085125 155.821774 
L 144.533575 144.669966 
L 153.982025 136.230129 
L 163.430475 127.558852 
L 172.878925 120.802974 
L 182.327375 115.161213 
L 191.775825 111.085418 
L 201.224275 105.352002 
L 210.672725 100.063812 
L 220.121175 95.963323 
L 229.569625 92.319922 
L 239.018075 86.09192 
L 248.466525 80.833412 
L 257.914975 77.136759 
L 267.363425 74.029673 
L 276.811875 71.74307 
L 286.260325 72.473879 
L 295.708775 70.538093 
L 305.157225 69.258756 
L 314.605675 68.210636 
L 324.054125 66.381471 
L 333.502575 65.168186 
L 342.951025 66.734341 
L 352.399475 65.500556 
L 361.847925 64.300074 
L 371.296375 61.056421 
L 380.744825 60.730758 
L 390.193275 62.440366 
L 399.641725 60.955851 
L 409.090175 60.058644 
L 418.538625 59.567611 
L 427.987075 60.569882 
L 437.435525 62.534651 
L 446.883975 61.898464 
L 456.332425 63.56813 
L 465.780875 64.715287 
L 475.229325 65.411681 
L 484.677775 67.024624 
L 494.126225 68.619894 
L 503.574675 69.103633 
L 513.023125 69.798659 
L 522.471575 70.08589 
L 531.920025 71.654675 
L 541.368475 73.809028 
L 550.816925 76.986045 
L 560.265375 79.078198 
L 569.713825 82.85355 
L 579.162275 84.849084 
L 588.610725 86.600115 
L 598.059175 86.93973 
L 607.507625 85.724021 
L 616.956075 85.104462 
L 626.404525 85.131501 
L 635.852975 86.053109 
L 645.301425 88.270553 
L 654.749875 89.265612 
L 664.198325 90.554658 
L 673.646775 92.786513 
L 683.095225 96.384871 
L 692.543675 98.717304 
L 701.992125 101.514085 
L 711.440575 103.560261 
L 720.889025 103.817052 
L 730.337475 104.58924 
L 739.785925 106.779448 
L 749.234375 110.050411 
L 758.682825 112.051569 
L 768.131275 113.412012 
L 777.579725 116.074463 
L 787.028175 119.200237 
L 796.476625 120.408391 
L 805.925075 121.130863 
L 815.373525 122.08564 
L 824.821975 124.015454 
L 834.270425 124.401092 
L 843.718875 124.586668 
L 853.167325 126.02905 
L 862.615775 127.54468 
L 872.064225 128.80499 
L 881.512675 129.393138 
L 890.961125 133.696552 
L 900.409575 138.980768 
L 909.858025 146.537459 
L 919.306475 157.132234 
L 928.754925 171.351721 
L 938.203375 188.865694 
L 947.651825 212.133302 
L 957.100275 244.810109 
L 966.548725 286.119854 
L 975.997175 332.243448 
" clip-path="url(#p9aa7074d46)" style="fill: none; stroke: #8085e9; stroke-linecap: square"/>
   </g>
   <g id="line2d_13">
    <path d="M 40.600625 260.293497 
L 50.049075 258.862306 
L 59.497525 253.570534 
L 68.945975 243.371143 
L 78.394425 229.374266 
L 87.842875 212.738548 
L 97.291325 195.412915 
L 106.739775 181.77066 
L 116.188225 170.325986 
L 125.636675 157.587828 
L 135.085125 142.789943 
L 144.533575 132.010644 
L 153.982025 123.540453 
L 163.430475 115.171492 
L 172.878925 109.028308 
L 182.327375 103.635354 
L 191.775825 99.940668 
L 201.224275 94.75886 
L 210.672725 90.093599 
L 220.121175 86.481921 
L 229.569625 83.504438 
L 239.018075 77.27382 
L 248.466525 71.982813 
L 257.914975 68.80063 
L 267.363425 66.140278 
L 276.811875 63.80174 
L 286.260325 64.809309 
L 295.708775 63.142967 
L 305.157225 62.20294 
L 314.605675 61.520408 
L 324.054125 60.18251 
L 333.502575 59.293367 
L 342.951025 60.66143 
L 352.399475 59.80647 
L 361.847925 59.00004 
L 371.296375 55.630902 
L 380.744825 55.820223 
L 390.193275 58.379353 
L 399.641725 57.833946 
L 409.090175 57.993909 
L 418.538625 58.138331 
L 427.987075 59.390711 
L 437.435525 61.420472 
L 446.883975 60.598158 
L 456.332425 62.240441 
L 465.780875 63.336566 
L 475.229325 64.001765 
L 484.677775 65.727728 
L 494.126225 67.788774 
L 503.574675 68.327925 
L 513.023125 70.045939 
L 522.471575 70.542549 
L 531.920025 72.719067 
L 541.368475 75.564442 
L 550.816925 79.107842 
L 560.265375 81.391732 
L 569.713825 85.65302 
L 579.162275 88.279654 
L 588.610725 90.440071 
L 598.059175 91.449018 
L 607.507625 91.089029 
L 616.956075 91.120605 
L 626.404525 91.6072 
L 635.852975 92.799844 
L 645.301425 95.396637 
L 654.749875 96.661639 
L 664.198325 98.230967 
L 673.646775 100.423032 
L 683.095225 104.368846 
L 692.543675 106.679178 
L 701.992125 109.857629 
L 711.440575 112.4865 
L 720.889025 113.589029 
L 730.337475 114.863798 
L 739.785925 117.203866 
L 749.234375 120.663913 
L 758.682825 122.873667 
L 768.131275 124.544863 
L 777.579725 127.563375 
L 787.028175 131.250021 
L 796.476625 132.708192 
L 805.925075 133.454687 
L 815.373525 134.567787 
L 824.821975 136.341792 
L 834.270425 136.395903 
L 843.718875 136.096339 
L 853.167325 136.905501 
L 862.615775 138.405359 
L 872.064225 139.569368 
L 881.512675 140.181359 
L 890.961125 144.290512 
L 900.409575 149.378513 
L 909.858025 156.621389 
L 919.306475 166.486222 
L 928.754925 179.228583 
L 938.203375 194.93839 
L 947.651825 216.407252 
L 957.100275 246.878119 
L 966.548725 286.522974 
L 975.997175 332.182681 
" clip-path="url(#p9aa7074d46)" style="fill: none; stroke: #f15c80; stroke-linecap: square"/>
   </g>
   <g id="line2d_14">
    <path d="M 40.600625 259.698687 
L 50.049075 257.965865 
L 59.497525 251.177459 
L 68.945975 239.68279 
L 78.394425 225.980449 
L 87.842875 210.052934 
L 97.291325 194.556281 
L 106.739775 181.729075 
L 116.188225 169.441339 
L 125.636675 157.072747 
L 135.085125 143.951959 
L 144.533575 133.95147 
L 153.982025 126.001419 
L 163.430475 117.63864 
L 172.878925 112.723641 
L 182.327375 108.236369 
L 191.775825 103.007868 
L 201.224275 97.891346 
L 210.672725 93.541319 
L 220.121175 89.616016 
L 229.569625 84.376729 
L 239.018075 78.615426 
L 248.466525 74.902061 
L 257.914975 71.276102 
L 267.363425 67.521237 
L 276.811875 65.9457 
L 286.260325 66.755505 
L 295.708775 64.764587 
L 305.157225 62.583514 
L 314.605675 61.346543 
L 324.054125 60.629937 
L 333.502575 58.812962 
L 342.951025 59.697125 
L 352.399475 59.889776 
L 361.847925 60.647383 
L 371.296375 57.557564 
L 380.744825 56.819991 
L 390.193275 59.218267 
L 399.641725 60.466099 
L 409.090175 63.113941 
L 418.538625 63.86584 
L 427.987075 64.693667 
L 437.435525 66.326109 
L 446.883975 65.583137 
L 456.332425 66.029257 
L 465.780875 65.461848 
L 475.229325 65.456381 
L 484.677775 66.708619 
L 494.126225 68.505394 
L 503.574675 68.6747 
L 513.023125 69.83378 
L 522.471575 69.359702 
L 531.920025 71.843846 
L 541.368475 75.067189 
L 550.816925 78.220602 
L 560.265375 80.315009 
L 569.713825 83.833897 
L 579.162275 86.096247 
L 588.610725 88.982666 
L 598.059175 90.708468 
L 607.507625 90.569157 
L 616.956075 91.048285 
L 626.404525 91.258452 
L 635.852975 93.350256 
L 645.301425 96.00867 
L 654.749875 97.888865 
L 664.198325 99.53489 
L 673.646775 101.700518 
L 683.095225 104.852317 
L 692.543675 106.949223 
L 701.992125 109.38111 
L 711.440575 110.936753 
L 720.889025 113.278922 
L 730.337475 115.490781 
L 739.785925 117.92529 
L 749.234375 120.996145 
L 758.682825 124.241297 
L 768.131275 125.465558 
L 777.579725 128.176799 
L 787.028175 131.591645 
L 796.476625 132.967017 
L 805.925075 132.310715 
L 815.373525 132.501531 
L 824.821975 133.901082 
L 834.270425 134.174263 
L 843.718875 132.966407 
L 853.167325 133.708674 
L 862.615775 134.302438 
L 872.064225 135.036151 
L 881.512675 136.573167 
L 890.961125 141.18383 
L 900.409575 145.751187 
L 909.858025 151.597996 
L 919.306475 161.026441 
L 928.754925 172.683497 
L 938.203375 188.769963 
L 947.651825 212.061641 
L 957.100275 243.390592 
L 966.548725 283.847403 
L 975.997175 331.71577 
" clip-path="url(#p9aa7074d46)" style="fill: none; stroke: #e4d354; stroke-linecap: square"/>
   </g>
   <g id="line2d_15">
    <path d="M 40.600625 256.362925 
L 50.049075 254.903324 
L 59.497525 248.774854 
L 68.945975 238.298093 
L 78.394425 224.975301 
L 87.842875 208.509277 
L 97.291325 192.789536 
L 106.739775 179.919168 
L 116.188225 167.33126 
L 125.636675 154.166036 
L 135.085125 140.705916 
L 144.533575 130.510188 
L 153.982025 122.399693 
L 163.430475 113.671155 
L 172.878925 108.821047 
L 182.327375 104.469886 
L 191.775825 99.411198 
L 201.224275 94.582563 
L 210.672725 90.148647 
L 220.121175 86.310079 
L 229.569625 81.328886 
L 239.018075 75.785919 
L 248.466525 71.929576 
L 257.914975 68.021089 
L 267.363425 64.393521 
L 276.811875 63.042749 
L 286.260325 64.195082 
L 295.708775 62.487439 
L 305.157225 60.705464 
L 314.605675 59.946459 
L 324.054125 59.012865 
L 333.502575 57.21677 
L 342.951025 58.277323 
L 352.399475 58.342461 
L 361.847925 58.954957 
L 371.296375 55.592144 
L 380.744825 55.251096 
L 390.193275 58.110157 
L 399.641725 59.904709 
L 409.090175 62.718268 
L 418.538625 63.796932 
L 427.987075 64.643541 
L 437.435525 66.179695 
L 446.883975 65.572427 
L 456.332425 66.538751 
L 465.780875 66.248588 
L 475.229325 66.594023 
L 484.677775 68.042934 
L 494.126225 69.931273 
L 503.574675 70.310647 
L 513.023125 71.339053 
L 522.471575 70.761185 
L 531.920025 72.873627 
L 541.368475 75.937173 
L 550.816925 79.66712 
L 560.265375 81.943613 
L 569.713825 85.320574 
L 579.162275 87.520318 
L 588.610725 90.350005 
L 598.059175 91.964929 
L 607.507625 91.431587 
L 616.956075 91.842734 
L 626.404525 92.159279 
L 635.852975 94.646635 
L 645.301425 97.478915 
L 654.749875 99.506192 
L 664.198325 101.33595 
L 673.646775 103.406869 
L 683.095225 106.63281 
L 692.543675 108.680163 
L 701.992125 110.958977 
L 711.440575 112.370111 
L 720.889025 114.409404 
L 730.337475 116.53986 
L 739.785925 118.988957 
L 749.234375 122.197824 
L 758.682825 125.685891 
L 768.131275 126.53443 
L 777.579725 128.790739 
L 787.028175 132.00147 
L 796.476625 133.395895 
L 805.925075 132.829132 
L 815.373525 133.117058 
L 824.821975 134.830357 
L 834.270425 135.482915 
L 843.718875 134.518197 
L 853.167325 135.360301 
L 862.615775 136.206462 
L 872.064225 137.290925 
L 881.512675 138.938668 
L 890.961125 143.860653 
L 900.409575 148.684471 
L 909.858025 155.189184 
L 919.306475 165.181583 
L 928.754925 177.578472 
L 938.203375 193.92373 
L 947.651825 217.336643 
L 957.100275 248.383919 
L 966.548725 287.317935 
L 975.997175 332.700395 
" clip-path="url(#p9aa7074d46)" style="fill: none; stroke: #2b908f; stroke-linecap: square"/>
   </g>
   <g id="line2d_16">
    <path d="M 40.600625 257.26041 
L 50.049075 255.888532 
L 59.497525 249.647459 
L 68.945975 238.892679 
L 78.394425 225.570944 
L 87.842875 209.405168 
L 97.291325 193.55547 
L 106.739775 180.660307 
L 116.188225 167.758784 
L 125.636675 154.59782 
L 135.085125 141.095634 
L 144.533575 130.979208 
L 153.982025 123.045586 
L 163.430475 114.503342 
L 172.878925 109.562513 
L 182.327375 105.262283 
L 191.775825 100.231339 
L 201.224275 95.468333 
L 210.672725 90.941612 
L 220.121175 86.836065 
L 229.569625 82.054835 
L 239.018075 76.471984 
L 248.466525 72.699025 
L 257.914975 68.823604 
L 267.363425 65.258287 
L 276.811875 63.869667 
L 286.260325 64.898865 
L 295.708775 63.082757 
L 305.157225 61.021447 
L 314.605675 60.037702 
L 324.054125 59.250531 
L 333.502575 57.522784 
L 342.951025 58.257444 
L 352.399475 58.311234 
L 361.847925 59.077188 
L 371.296375 56.139627 
L 380.744825 55.526361 
L 390.193275 58.450717 
L 399.641725 60.20957 
L 409.090175 62.99396 
L 418.538625 63.988153 
L 427.987075 64.846122 
L 437.435525 66.379667 
L 446.883975 65.756393 
L 456.332425 66.321251 
L 465.780875 66.047598 
L 475.229325 66.430074 
L 484.677775 67.679282 
L 494.126225 69.454871 
L 503.574675 69.764016 
L 513.023125 70.805529 
L 522.471575 70.140212 
L 531.920025 72.305597 
L 541.368475 75.334401 
L 550.816925 78.862992 
L 560.265375 81.283966 
L 569.713825 84.927622 
L 579.162275 87.078088 
L 588.610725 90.045231 
L 598.059175 91.580882 
L 607.507625 91.08034 
L 616.956075 91.642662 
L 626.404525 91.99473 
L 635.852975 94.640672 
L 645.301425 97.646169 
L 654.749875 99.566618 
L 664.198325 101.280838 
L 673.646775 103.207042 
L 683.095225 106.156529 
L 692.543675 108.214526 
L 701.992125 110.668216 
L 711.440575 112.220374 
L 720.889025 114.595981 
L 730.337475 116.734879 
L 739.785925 119.184503 
L 749.234375 122.002833 
L 758.682825 125.159197 
L 768.131275 126.182097 
L 777.579725 128.525525 
L 787.028175 131.904009 
L 796.476625 133.158539 
L 805.925075 132.43961 
L 815.373525 132.831532 
L 824.821975 134.264361 
L 834.270425 134.883748 
L 843.718875 134.005723 
L 853.167325 134.940098 
L 862.615775 135.984633 
L 872.064225 137.206893 
L 881.512675 138.726614 
L 890.961125 143.557736 
L 900.409575 148.121539 
L 909.858025 154.273808 
L 919.306475 163.944977 
L 928.754925 176.204451 
L 938.203375 192.312392 
L 947.651825 215.815722 
L 957.100275 247.148214 
L 966.548725 286.522374 
L 975.997175 332.435447 
" clip-path="url(#p9aa7074d46)" style="fill: none; stroke: #f45b5b; stroke-linecap: square"/>
   </g>
   <g id="line2d_17">
    <path d="M 40.600625 258.196168 
L 50.049075 257.230231 
L 59.497525 252.428294 
L 68.945975 242.149721 
L 78.394425 228.172333 
L 87.842875 211.67395 
L 97.291325 194.348209 
L 106.739775 180.759387 
L 116.188225 169.110605 
L 125.636675 156.661281 
L 135.085125 141.953373 
L 144.533575 131.461755 
L 153.982025 123.195896 
L 163.430475 115.032524 
L 172.878925 108.868383 
L 182.327375 103.575708 
L 191.775825 100.143105 
L 201.224275 94.817553 
L 210.672725 90.094113 
L 220.121175 86.174238 
L 229.569625 82.969665 
L 239.018075 76.867946 
L 248.466525 71.482582 
L 257.914975 68.246122 
L 267.363425 65.759476 
L 276.811875 63.401707 
L 286.260325 64.37433 
L 295.708775 62.479126 
L 305.157225 61.48994 
L 314.605675 60.8305 
L 324.054125 59.429924 
L 333.502575 58.607005 
L 342.951025 60.239216 
L 352.399475 59.418173 
L 361.847925 58.768864 
L 371.296375 55.444311 
L 380.744825 55.75578 
L 390.193275 58.304552 
L 399.641725 57.576093 
L 409.090175 57.568701 
L 418.538625 57.781025 
L 427.987075 59.074232 
L 437.435525 61.123061 
L 446.883975 60.766599 
L 456.332425 62.744135 
L 465.780875 64.071146 
L 475.229325 64.806356 
L 484.677775 66.301544 
L 494.126225 68.316994 
L 503.574675 68.738413 
L 513.023125 70.434763 
L 522.471575 70.617699 
L 531.920025 72.741634 
L 541.368475 75.415191 
L 550.816925 78.940759 
L 560.265375 81.255242 
L 569.713825 85.426768 
L 579.162275 88.270604 
L 588.610725 90.831138 
L 598.059175 91.887553 
L 607.507625 91.239161 
L 616.956075 91.018922 
L 626.404525 91.370901 
L 635.852975 92.880537 
L 645.301425 95.713171 
L 654.749875 97.174063 
L 664.198325 98.829255 
L 673.646775 101.316973 
L 683.095225 105.319089 
L 692.543675 107.63701 
L 701.992125 110.839913 
L 711.440575 113.482835 
L 720.889025 114.838337 
L 730.337475 116.199609 
L 739.785925 118.51457 
L 749.234375 122.172346 
L 758.682825 124.566767 
L 768.131275 126.024734 
L 777.579725 129.014938 
L 787.028175 132.416607 
L 796.476625 133.760228 
L 805.925075 134.618322 
L 815.373525 135.3552 
L 824.821975 136.704526 
L 834.270425 136.692743 
L 843.718875 136.460141 
L 853.167325 137.323424 
L 862.615775 138.485157 
L 872.064225 139.709674 
L 881.512675 140.370663 
L 890.961125 144.478101 
L 900.409575 149.309242 
L 909.858025 156.106552 
L 919.306475 165.908836 
L 928.754925 178.906406 
L 938.203375 194.69384 
L 947.651825 216.196448 
L 957.100275 246.774561 
L 966.548725 286.355766 
L 975.997175 332.153914 
" clip-path="url(#p9aa7074d46)" style="fill: none; stroke: #91e8e1; stroke-linecap: square"/>
   </g>
   <g id="line2d_18">
    <path d="M 40.600625 260.112449 
L 50.049075 259.278414 
L 59.497525 254.629556 
L 68.945975 245.005367 
L 78.394425 231.486157 
L 87.842875 215.496047 
L 97.291325 198.831 
L 106.739775 185.559068 
L 116.188225 173.727152 
L 125.636675 160.974762 
L 135.085125 146.521042 
L 144.533575 135.948064 
L 153.982025 127.592494 
L 163.430475 119.120637 
L 172.878925 112.720644 
L 182.327375 107.481142 
L 191.775825 103.93907 
L 201.224275 98.366785 
L 210.672725 93.485613 
L 220.121175 89.472213 
L 229.569625 86.415214 
L 239.018075 80.165272 
L 248.466525 74.472589 
L 257.914975 70.851944 
L 267.363425 68.861877 
L 276.811875 66.61412 
L 286.260325 67.549357 
L 295.708775 65.870569 
L 305.157225 65.117766 
L 314.605675 64.247583 
L 324.054125 62.707813 
L 333.502575 61.681405 
L 342.951025 63.061348 
L 352.399475 62.170268 
L 361.847925 61.181143 
L 371.296375 57.759123 
L 380.744825 57.776874 
L 390.193275 60.102353 
L 399.641725 59.408139 
L 409.090175 59.151495 
L 418.538625 59.018986 
L 427.987075 60.211303 
L 437.435525 62.08553 
L 446.883975 61.602569 
L 456.332425 63.298323 
L 465.780875 64.403155 
L 475.229325 65.080572 
L 484.677775 66.385852 
L 494.126225 68.096301 
L 503.574675 68.397403 
L 513.023125 69.803352 
L 522.471575 69.975633 
L 531.920025 71.647274 
L 541.368475 74.204595 
L 550.816925 77.919267 
L 560.265375 80.149178 
L 569.713825 84.308848 
L 579.162275 86.706236 
L 588.610725 88.713124 
L 598.059175 89.624264 
L 607.507625 89.085911 
L 616.956075 89.076351 
L 626.404525 89.454357 
L 635.852975 90.914209 
L 645.301425 93.811823 
L 654.749875 95.024654 
L 664.198325 96.281217 
L 673.646775 98.315995 
L 683.095225 101.942342 
L 692.543675 104.234688 
L 701.992125 107.091788 
L 711.440575 109.595987 
L 720.889025 110.608145 
L 730.337475 111.450972 
L 739.785925 113.616993 
L 749.234375 117.145656 
L 758.682825 119.501198 
L 768.131275 121.327613 
L 777.579725 124.384323 
L 787.028175 128.220468 
L 796.476625 129.859964 
L 805.925075 130.624735 
L 815.373525 131.509495 
L 824.821975 133.017584 
L 834.270425 132.70137 
L 843.718875 132.193451 
L 853.167325 133.122783 
L 862.615775 134.571516 
L 872.064225 135.998793 
L 881.512675 136.768776 
L 890.961125 141.160268 
L 900.409575 146.349372 
L 909.858025 153.664384 
L 919.306475 163.892671 
L 928.754925 177.376636 
L 938.203375 193.793783 
L 947.651825 215.796952 
L 957.100275 246.766864 
L 966.548725 286.539556 
L 975.997175 332.199846 
" clip-path="url(#p9aa7074d46)" style="fill: none; stroke: #7cb5ec; stroke-linecap: square"/>
   </g>
   <g id="line2d_19">
    <path d="M 40.600625 262.537671 
L 50.049075 261.683722 
L 59.497525 257.216504 
L 68.945975 247.828536 
L 78.394425 233.840453 
L 87.842875 217.00067 
L 97.291325 199.2815 
L 106.739775 185.52965 
L 116.188225 173.86452 
L 125.636675 161.032155 
L 135.085125 146.105154 
L 144.533575 135.216655 
L 153.982025 126.395801 
L 163.430475 118.035441 
L 172.878925 111.688926 
L 182.327375 106.159487 
L 191.775825 102.024712 
L 201.224275 96.183884 
L 210.672725 91.066972 
L 220.121175 87.341475 
L 229.569625 84.284434 
L 239.018075 77.843751 
L 248.466525 72.087999 
L 257.914975 68.536069 
L 267.363425 65.27569 
L 276.811875 62.532328 
L 286.260325 63.634889 
L 295.708775 61.606147 
L 305.157225 60.484526 
L 314.605675 59.687704 
L 324.054125 58.233964 
L 333.502575 57.256969 
L 342.951025 58.582017 
L 352.399475 57.378815 
L 361.847925 56.696145 
L 371.296375 53.218776 
L 380.744825 53.36422 
L 390.193275 55.783391 
L 399.641725 55.668003 
L 409.090175 56.243898 
L 418.538625 56.193132 
L 427.987075 57.426621 
L 437.435525 59.5339 
L 446.883975 57.795845 
L 456.332425 59.484024 
L 465.780875 60.417281 
L 475.229325 61.145457 
L 484.677775 62.84565 
L 494.126225 64.49357 
L 503.574675 64.770896 
L 513.023125 66.340898 
L 522.471575 66.927727 
L 531.920025 69.829146 
L 541.368475 73.138473 
L 550.816925 77.133634 
L 560.265375 79.453829 
L 569.713825 83.548622 
L 579.162275 86.543739 
L 588.610725 89.343278 
L 598.059175 90.361031 
L 607.507625 89.631087 
L 616.956075 89.643218 
L 626.404525 90.063811 
L 635.852975 91.097852 
L 645.301425 94.230149 
L 654.749875 95.732721 
L 664.198325 97.280128 
L 673.646775 99.740084 
L 683.095225 103.885266 
L 692.543675 106.73498 
L 701.992125 110.238517 
L 711.440575 113.026481 
L 720.889025 114.173506 
L 730.337475 115.439317 
L 739.785925 117.877132 
L 749.234375 121.398132 
L 758.682825 123.502867 
L 768.131275 125.260456 
L 777.579725 128.586124 
L 787.028175 132.182002 
L 796.476625 133.559359 
L 805.925075 134.199156 
L 815.373525 135.240359 
L 824.821975 136.849306 
L 834.270425 136.841205 
L 843.718875 136.264481 
L 853.167325 137.201242 
L 862.615775 138.965078 
L 872.064225 140.64161 
L 881.512675 141.786514 
L 890.961125 146.325242 
L 900.409575 151.881152 
L 909.858025 159.164875 
L 919.306475 169.095531 
L 928.754925 181.556127 
L 938.203375 196.796141 
L 947.651825 217.66788 
L 957.100275 247.465467 
L 966.548725 286.808636 
L 975.997175 332.345611 
" clip-path="url(#p9aa7074d46)" style="fill: none; stroke: #434348; stroke-linecap: square"/>
   </g>
   <g id="line2d_20">
    <path d="M 40.600625 256.41978 
L 50.049075 253.230092 
L 59.497525 245.581245 
L 68.945975 234.477905 
L 78.394425 220.920308 
L 87.842875 203.30219 
L 97.291325 187.095058 
L 106.739775 174.446601 
L 116.188225 162.82101 
L 125.636675 151.050489 
L 135.085125 138.834933 
L 144.533575 129.142019 
L 153.982025 121.30142 
L 163.430475 113.273633 
L 172.878925 108.65886 
L 182.327375 104.569075 
L 191.775825 99.091472 
L 201.224275 93.698157 
L 210.672725 89.892439 
L 220.121175 86.487271 
L 229.569625 81.575477 
L 239.018075 76.6432 
L 248.466525 73.116106 
L 257.914975 69.48144 
L 267.363425 66.348164 
L 276.811875 65.308153 
L 286.260325 66.504567 
L 295.708775 65.004634 
L 305.157225 63.097393 
L 314.605675 61.74102 
L 324.054125 60.628879 
L 333.502575 58.881601 
L 342.951025 59.781192 
L 352.399475 60.259803 
L 361.847925 60.793339 
L 371.296375 57.998522 
L 380.744825 58.054734 
L 390.193275 61.301132 
L 399.641725 63.147648 
L 409.090175 65.469805 
L 418.538625 66.203793 
L 427.987075 66.649564 
L 437.435525 68.7384 
L 446.883975 68.623338 
L 456.332425 69.454403 
L 465.780875 68.784761 
L 475.229325 68.731041 
L 484.677775 69.704924 
L 494.126225 71.210367 
L 503.574675 71.394536 
L 513.023125 72.125565 
L 522.471575 71.578396 
L 531.920025 74.044535 
L 541.368475 76.744528 
L 550.816925 80.098948 
L 560.265375 81.972977 
L 569.713825 85.145037 
L 579.162275 87.47495 
L 588.610725 90.528808 
L 598.059175 92.249648 
L 607.507625 91.918602 
L 616.956075 92.646676 
L 626.404525 93.759507 
L 635.852975 95.815741 
L 645.301425 98.762623 
L 654.749875 100.590418 
L 664.198325 102.521319 
L 673.646775 104.958539 
L 683.095225 108.160398 
L 692.543675 110.424006 
L 701.992125 112.455014 
L 711.440575 114.269866 
L 720.889025 115.928614 
L 730.337475 117.529415 
L 739.785925 120.201353 
L 749.234375 123.436962 
L 758.682825 126.397981 
L 768.131275 127.712598 
L 777.579725 130.227824 
L 787.028175 133.087033 
L 796.476625 134.069245 
L 805.925075 133.362456 
L 815.373525 133.456798 
L 824.821975 134.64579 
L 834.270425 135.061401 
L 843.718875 134.322638 
L 853.167325 135.432371 
L 862.615775 136.425163 
L 872.064225 137.393898 
L 881.512675 139.152059 
L 890.961125 143.729362 
L 900.409575 148.00717 
L 909.858025 153.012346 
L 919.306475 161.360655 
L 928.754925 171.98778 
L 938.203375 186.692698 
L 947.651825 208.281625 
L 957.100275 238.472543 
L 966.548725 279.060064 
L 975.997175 329.919342 
" clip-path="url(#p9aa7074d46)" style="fill: none; stroke: #90ed7d; stroke-linecap: square"/>
   </g>
   <g id="line2d_21">
    <path d="M 40.600625 258.42106 
L 50.049075 256.813966 
L 59.497525 250.381814 
L 68.945975 239.982358 
L 78.394425 227.004021 
L 87.842875 209.757336 
L 97.291325 193.788298 
L 106.739775 180.889389 
L 116.188225 168.417475 
L 125.636675 155.436102 
L 135.085125 141.814125 
L 144.533575 131.839597 
L 153.982025 124.368475 
L 163.430475 115.72881 
L 172.878925 110.950621 
L 182.327375 106.891359 
L 191.775825 101.436611 
L 201.224275 96.05882 
L 210.672725 91.51046 
L 220.121175 87.646149 
L 229.569625 82.598315 
L 239.018075 77.152214 
L 248.466525 73.308837 
L 257.914975 69.242121 
L 267.363425 65.428924 
L 276.811875 64.154631 
L 286.260325 65.163568 
L 295.708775 63.682413 
L 305.157225 61.790557 
L 314.605675 60.326458 
L 324.054125 59.31074 
L 333.502575 57.667096 
L 342.951025 58.969651 
L 352.399475 58.953718 
L 361.847925 59.254444 
L 371.296375 56.11151 
L 380.744825 55.718126 
L 390.193275 59.199322 
L 399.641725 61.055417 
L 409.090175 63.386575 
L 418.538625 64.07185 
L 427.987075 64.872839 
L 437.435525 66.544541 
L 446.883975 65.934485 
L 456.332425 66.728997 
L 465.780875 66.084759 
L 475.229325 66.239322 
L 484.677775 67.42331 
L 494.126225 69.094593 
L 503.574675 69.260217 
L 513.023125 70.234046 
L 522.471575 69.616608 
L 531.920025 71.686971 
L 541.368475 74.577434 
L 550.816925 78.377469 
L 560.265375 80.375273 
L 569.713825 83.726629 
L 579.162275 85.971432 
L 588.610725 88.581113 
L 598.059175 90.213182 
L 607.507625 89.549743 
L 616.956075 90.200658 
L 626.404525 90.653462 
L 635.852975 92.98805 
L 645.301425 96.091931 
L 654.749875 98.264911 
L 664.198325 100.280175 
L 673.646775 102.207986 
L 683.095225 105.210599 
L 692.543675 107.279165 
L 701.992125 109.402772 
L 711.440575 111.094856 
L 720.889025 113.327382 
L 730.337475 115.811276 
L 739.785925 118.648412 
L 749.234375 121.996827 
L 758.682825 125.707628 
L 768.131275 127.021267 
L 777.579725 129.457915 
L 787.028175 132.592094 
L 796.476625 133.328461 
L 805.925075 132.638271 
L 815.373525 133.200995 
L 824.821975 134.686412 
L 834.270425 135.133577 
L 843.718875 134.511105 
L 853.167325 135.400376 
L 862.615775 135.824038 
L 872.064225 136.914045 
L 881.512675 138.547833 
L 890.961125 143.881003 
L 900.409575 149.023438 
L 909.858025 155.360871 
L 919.306475 164.639188 
L 928.754925 176.447848 
L 938.203375 192.013848 
L 947.651825 214.197926 
L 957.100275 244.867755 
L 966.548725 284.332383 
L 975.997175 331.576146 
" clip-path="url(#p9aa7074d46)" style="fill: none; stroke: #f7a35c; stroke-linecap: square"/>
   </g>
   <g id="line2d_22">
    <path d="M 40.600625 258.186808 
L 50.049075 256.141137 
L 59.497525 249.600082 
L 68.945975 238.918799 
L 78.394425 225.546224 
L 87.842875 207.27948 
L 97.291325 190.261877 
L 106.739775 176.910299 
L 116.188225 164.74356 
L 125.636675 152.181209 
L 135.085125 139.240074 
L 144.533575 129.547937 
L 153.982025 121.507874 
L 163.430475 113.006913 
L 172.878925 108.34652 
L 182.327375 104.442998 
L 191.775825 99.037514 
L 201.224275 93.655123 
L 210.672725 89.012872 
L 220.121175 84.830191 
L 229.569625 79.916086 
L 239.018075 74.859355 
L 248.466525 71.285836 
L 257.914975 67.109837 
L 267.363425 63.882319 
L 276.811875 62.892035 
L 286.260325 63.540752 
L 295.708775 62.093583 
L 305.157225 60.265259 
L 314.605675 59.024169 
L 324.054125 57.94442 
L 333.502575 56.349839 
L 342.951025 58.063278 
L 352.399475 58.345821 
L 361.847925 58.560232 
L 371.296375 55.583582 
L 380.744825 55.562202 
L 390.193275 59.373682 
L 399.641725 61.306687 
L 409.090175 63.421986 
L 418.538625 64.031953 
L 427.987075 64.907144 
L 437.435525 67.011742 
L 446.883975 66.990591 
L 456.332425 67.691934 
L 465.780875 67.315793 
L 475.229325 67.603168 
L 484.677775 68.911145 
L 494.126225 70.852255 
L 503.574675 71.105894 
L 513.023125 71.768904 
L 522.471575 71.260241 
L 531.920025 72.998079 
L 541.368475 75.782842 
L 550.816925 79.660745 
L 560.265375 81.835765 
L 569.713825 85.22379 
L 579.162275 87.361366 
L 588.610725 90.354514 
L 598.059175 91.931731 
L 607.507625 91.242873 
L 616.956075 91.917783 
L 626.404525 92.636947 
L 635.852975 94.815927 
L 645.301425 97.675512 
L 654.749875 99.43159 
L 664.198325 101.206835 
L 673.646775 103.255784 
L 683.095225 106.494497 
L 692.543675 108.734061 
L 701.992125 110.822856 
L 711.440575 112.532164 
L 720.889025 114.432922 
L 730.337475 116.561909 
L 739.785925 119.628111 
L 749.234375 122.80172 
L 758.682825 125.777814 
L 768.131275 126.996143 
L 777.579725 129.570694 
L 787.028175 132.830582 
L 796.476625 133.777084 
L 805.925075 133.533395 
L 815.373525 134.398287 
L 824.821975 135.769815 
L 834.270425 136.389746 
L 843.718875 135.943127 
L 853.167325 136.884802 
L 862.615775 137.925961 
L 872.064225 139.266641 
L 881.512675 141.044742 
L 890.961125 145.982951 
L 900.409575 150.987797 
L 909.858025 156.939368 
L 919.306475 165.921171 
L 928.754925 177.6283 
L 938.203375 192.884769 
L 947.651825 214.579619 
L 957.100275 244.679639 
L 966.548725 283.804939 
L 975.997175 331.452255 
" clip-path="url(#p9aa7074d46)" style="fill: none; stroke: #8085e9; stroke-linecap: square"/>
   </g>
   <g id="line2d_23">
    <path d="M 40.600625 264.671087 
L 50.049075 263.574551 
L 59.497525 260.55195 
L 68.945975 252.330732 
L 78.394425 239.210922 
L 87.842875 221.336999 
L 97.291325 202.689643 
L 106.739775 190.11481 
L 116.188225 178.591639 
L 125.636675 165.588606 
L 135.085125 151.005229 
L 144.533575 141.285107 
L 153.982025 133.334302 
L 163.430475 125.374508 
L 172.878925 119.057864 
L 182.327375 114.084784 
L 191.775825 109.313535 
L 201.224275 102.267107 
L 210.672725 96.813534 
L 220.121175 92.972559 
L 229.569625 89.24009 
L 239.018075 83.177048 
L 248.466525 77.109905 
L 257.914975 72.470305 
L 267.363425 69.73561 
L 276.811875 67.742466 
L 286.260325 68.642938 
L 295.708775 66.593869 
L 305.157225 64.465906 
L 314.605675 62.644952 
L 324.054125 60.372625 
L 333.502575 58.581527 
L 342.951025 59.948497 
L 352.399475 58.325723 
L 361.847925 56.192341 
L 371.296375 52.295864 
L 380.744825 53.09468 
L 390.193275 56.766445 
L 399.641725 56.78629 
L 409.090175 56.020386 
L 418.538625 56.156604 
L 427.987075 57.807111 
L 437.435525 59.537992 
L 446.883975 59.616647 
L 456.332425 61.554897 
L 465.780875 62.559515 
L 475.229325 62.703215 
L 484.677775 63.640983 
L 494.126225 65.736673 
L 503.574675 66.0156 
L 513.023125 67.111278 
L 522.471575 67.24159 
L 531.920025 69.152679 
L 541.368475 71.790056 
L 550.816925 75.376501 
L 560.265375 77.54212 
L 569.713825 81.525925 
L 579.162275 84.136206 
L 588.610725 86.431493 
L 598.059175 87.905146 
L 607.507625 87.226981 
L 616.956075 87.013152 
L 626.404525 87.317067 
L 635.852975 88.189833 
L 645.301425 91.03684 
L 654.749875 92.422176 
L 664.198325 94.028286 
L 673.646775 96.008961 
L 683.095225 99.95374 
L 692.543675 101.930568 
L 701.992125 104.908333 
L 711.440575 107.89665 
L 720.889025 108.429833 
L 730.337475 109.643166 
L 739.785925 112.942104 
L 749.234375 116.458635 
L 758.682825 117.909796 
L 768.131275 119.656663 
L 777.579725 123.825358 
L 787.028175 128.088642 
L 796.476625 129.938121 
L 805.925075 130.852435 
L 815.373525 131.91918 
L 824.821975 133.194735 
L 834.270425 133.104346 
L 843.718875 132.64957 
L 853.167325 133.4125 
L 862.615775 135.29832 
L 872.064225 136.936719 
L 881.512675 137.556481 
L 890.961125 141.987021 
L 900.409575 147.596868 
L 909.858025 155.259987 
L 919.306475 165.739385 
L 928.754925 178.48651 
L 938.203375 193.64923 
L 947.651825 214.84231 
L 957.100275 244.881172 
L 966.548725 284.333518 
L 975.997175 331.094825 
" clip-path="url(#p9aa7074d46)" style="fill: none; stroke: #f15c80; stroke-linecap: square"/>
   </g>
   <g id="line2d_24">
    <path d="M 40.600625 251.914845 
L 50.049075 250.032454 
L 59.497525 249.176929 
L 68.945975 244.446882 
L 78.394425 233.061956 
L 87.842875 215.476462 
L 97.291325 197.630038 
L 106.739775 185.845622 
L 116.188225 173.42061 
L 125.636675 159.799224 
L 135.085125 144.062918 
L 144.533575 134.546584 
L 153.982025 127.411257 
L 163.430475 118.959688 
L 172.878925 112.673217 
L 182.327375 108.385227 
L 191.775825 104.905818 
L 201.224275 97.867086 
L 210.672725 92.175646 
L 220.121175 88.662048 
L 229.569625 85.948062 
L 239.018075 79.709418 
L 248.466525 73.164796 
L 257.914975 66.885534 
L 267.363425 65.502393 
L 276.811875 64.382812 
L 286.260325 65.487311 
L 295.708775 63.691229 
L 305.157225 61.482391 
L 314.605675 59.345138 
L 324.054125 57.229331 
L 333.502575 55.73769 
L 342.951025 57.740226 
L 352.399475 55.757276 
L 361.847925 53.799278 
L 371.296375 49.510558 
L 380.744825 50.13843 
L 390.193275 55.224817 
L 399.641725 56.255877 
L 409.090175 55.569456 
L 418.538625 55.955726 
L 427.987075 58.26871 
L 437.435525 60.354128 
L 446.883975 59.80137 
L 456.332425 61.486448 
L 465.780875 62.882626 
L 475.229325 63.507932 
L 484.677775 65.556784 
L 494.126225 67.77215 
L 503.574675 68.454325 
L 513.023125 69.56595 
L 522.471575 70.284076 
L 531.920025 71.473504 
L 541.368475 74.013949 
L 550.816925 78.339061 
L 560.265375 79.941459 
L 569.713825 83.658956 
L 579.162275 86.203536 
L 588.610725 88.166935 
L 598.059175 89.425516 
L 607.507625 88.437949 
L 616.956075 88.478406 
L 626.404525 88.184282 
L 635.852975 90.171764 
L 645.301425 93.251222 
L 654.749875 95.288124 
L 664.198325 96.265774 
L 673.646775 96.855426 
L 683.095225 99.746927 
L 692.543675 101.300768 
L 701.992125 103.666179 
L 711.440575 106.458045 
L 720.889025 106.951523 
L 730.337475 108.389503 
L 739.785925 111.237041 
L 749.234375 113.941512 
L 758.682825 115.955915 
L 768.131275 118.621612 
L 777.579725 123.070215 
L 787.028175 128.84683 
L 796.476625 131.047146 
L 805.925075 132.558256 
L 815.373525 134.359674 
L 824.821975 136.9022 
L 834.270425 137.823531 
L 843.718875 138.054437 
L 853.167325 138.759951 
L 862.615775 140.899842 
L 872.064225 143.572649 
L 881.512675 144.557196 
L 890.961125 150.341513 
L 900.409575 157.303248 
L 909.858025 167.16522 
L 919.306475 178.18844 
L 928.754925 192.586442 
L 938.203375 208.44393 
L 947.651825 230.258562 
L 957.100275 259.51516 
L 966.548725 295.349387 
L 975.997175 334.603709 
" clip-path="url(#p9aa7074d46)" style="fill: none; stroke: #e4d354; stroke-linecap: square"/>
   </g>
   <g id="line2d_25">
    <path d="M 40.600625 267.120888 
L 50.049075 265.406934 
L 59.497525 260.5969 
L 68.945975 251.174445 
L 78.394425 237.800224 
L 87.842875 220.879753 
L 97.291325 203.626051 
L 106.739775 191.43557 
L 116.188225 179.834986 
L 125.636675 167.130219 
L 135.085125 153.13288 
L 144.533575 143.020569 
L 153.982025 135.651919 
L 163.430475 127.745621 
L 172.878925 121.652861 
L 182.327375 116.784689 
L 191.775825 112.351421 
L 201.224275 106.226807 
L 210.672725 100.987623 
L 220.121175 96.791476 
L 229.569625 93.248431 
L 239.018075 87.711326 
L 248.466525 82.79345 
L 257.914975 78.689949 
L 267.363425 77.199211 
L 276.811875 75.690448 
L 286.260325 76.030108 
L 295.708775 74.370862 
L 305.157225 71.893975 
L 314.605675 70.056625 
L 324.054125 67.903379 
L 333.502575 65.987348 
L 342.951025 67.405734 
L 352.399475 66.338636 
L 361.847925 64.334725 
L 371.296375 60.945334 
L 380.744825 60.887283 
L 390.193275 63.992793 
L 399.641725 63.160615 
L 409.090175 62.066149 
L 418.538625 61.977146 
L 427.987075 63.628138 
L 437.435525 65.149416 
L 446.883975 65.012298 
L 456.332425 66.188714 
L 465.780875 67.351647 
L 475.229325 67.776699 
L 484.677775 68.850087 
L 494.126225 70.850517 
L 503.574675 71.34749 
L 513.023125 71.872349 
L 522.471575 71.183282 
L 531.920025 71.875538 
L 541.368475 73.890752 
L 550.816925 76.858377 
L 560.265375 78.879153 
L 569.713825 82.819946 
L 579.162275 85.034156 
L 588.610725 86.418253 
L 598.059175 87.734937 
L 607.507625 86.885528 
L 616.956075 86.61323 
L 626.404525 87.083277 
L 635.852975 86.957066 
L 645.301425 88.969231 
L 654.749875 90.197514 
L 664.198325 91.311813 
L 673.646775 92.578592 
L 683.095225 96.179517 
L 692.543675 98.299909 
L 701.992125 101.05139 
L 711.440575 103.486013 
L 720.889025 103.293545 
L 730.337475 103.562848 
L 739.785925 106.700941 
L 749.234375 109.516098 
L 758.682825 109.983018 
L 768.131275 112.203717 
L 777.579725 115.9795 
L 787.028175 119.834669 
L 796.476625 121.606345 
L 805.925075 122.588376 
L 815.373525 123.305709 
L 824.821975 125.077645 
L 834.270425 124.419111 
L 843.718875 123.723525 
L 853.167325 124.517744 
L 862.615775 125.968062 
L 872.064225 127.221476 
L 881.512675 127.513318 
L 890.961125 131.934876 
L 900.409575 137.476689 
L 909.858025 144.613228 
L 919.306475 155.212806 
L 928.754925 169.195708 
L 938.203375 185.390084 
L 947.651825 208.524508 
L 957.100275 240.259562 
L 966.548725 281.429831 
L 975.997175 330.116053 
" clip-path="url(#p9aa7074d46)" style="fill: none; stroke: #2b908f; stroke-linecap: square"/>
   </g>
   <g id="line2d_26">
    <path d="M 40.600625 353.2239 
L 985.445625 353.2239 
" clip-path="url(#p9aa7074d46)" style="fill: none; stroke: #dedede; stroke-width: 2; stroke-linecap: square"/>
   </g>
   <g id="text_16">
    <!-- Qualimap RNAseq: Coverage Profile Along Genes (total) -->
    <g transform="translate(289.641875 19.3575) scale(0.16 -0.16)">
     <defs>
      <path id="DejaVuSans-51" d="M 2522 4238 
Q 1834 4238 1429 3725 
Q 1025 3213 1025 2328 
Q 1025 1447 1429 934 
Q 1834 422 2522 422 
Q 3209 422 3611 934 
Q 4013 1447 4013 2328 
Q 4013 3213 3611 3725 
Q 3209 4238 2522 4238 
z
M 3406 84 
L 4238 -825 
L 3475 -825 
L 2784 -78 
Q 2681 -84 2626 -87 
Q 2572 -91 2522 -91 
Q 1538 -91 948 567 
Q 359 1225 359 2328 
Q 359 3434 948 4092 
Q 1538 4750 2522 4750 
Q 3503 4750 4090 4092 
Q 4678 3434 4678 2328 
Q 4678 1516 4351 937 
Q 4025 359 3406 84 
z
" transform="scale(0.015625)"/>
      <path id="DejaVuSans-52" d="M 2841 2188 
Q 3044 2119 3236 1894 
Q 3428 1669 3622 1275 
L 4263 0 
L 3584 0 
L 2988 1197 
Q 2756 1666 2539 1819 
Q 2322 1972 1947 1972 
L 1259 1972 
L 1259 0 
L 628 0 
L 628 4666 
L 2053 4666 
Q 2853 4666 3247 4331 
Q 3641 3997 3641 3322 
Q 3641 2881 3436 2590 
Q 3231 2300 2841 2188 
z
M 1259 4147 
L 1259 2491 
L 2053 2491 
Q 2509 2491 2742 2702 
Q 2975 2913 2975 3322 
Q 2975 3731 2742 3939 
Q 2509 4147 2053 4147 
L 1259 4147 
z
" transform="scale(0.015625)"/>
      <path id="DejaVuSans-4e" d="M 628 4666 
L 1478 4666 
L 3547 763 
L 3547 4666 
L 4159 4666 
L 4159 0 
L 3309 0 
L 1241 3903 
L 1241 0 
L 628 0 
L 628 4666 
z
" transform="scale(0.015625)"/>
      <path id="DejaVuSans-41" d="M 2188 4044 
L 1331 1722 
L 3047 1722 
L 2188 4044 
z
M 1831 4666 
L 2547 4666 
L 4325 0 
L 3669 0 
L 3244 1197 
L 1141 1197 
L 716 0 
L 50 0 
L 1831 4666 
z
" transform="scale(0.015625)"/>
      <path id="DejaVuSans-71" d="M 947 1747 
Q 947 1113 1208 752 
Q 1469 391 1925 391 
Q 2381 391 2643 752 
Q 2906 1113 2906 1747 
Q 2906 2381 2643 2742 
Q 2381 3103 1925 3103 
Q 1469 3103 1208 2742 
Q 947 2381 947 1747 
z
M 2906 525 
Q 2725 213 2448 61 
Q 2172 -91 1784 -91 
Q 1150 -91 751 415 
Q 353 922 353 1747 
Q 353 2572 751 3078 
Q 1150 3584 1784 3584 
Q 2172 3584 2448 3432 
Q 2725 3281 2906 2969 
L 2906 3500 
L 3481 3500 
L 3481 -1331 
L 2906 -1331 
L 2906 525 
z
" transform="scale(0.015625)"/>
      <path id="DejaVuSans-3a" d="M 750 794 
L 1409 794 
L 1409 0 
L 750 0 
L 750 794 
z
M 750 3309 
L 1409 3309 
L 1409 2516 
L 750 2516 
L 750 3309 
z
" transform="scale(0.015625)"/>
      <path id="DejaVuSans-43" d="M 4122 4306 
L 4122 3641 
Q 3803 3938 3442 4084 
Q 3081 4231 2675 4231 
Q 1875 4231 1450 3742 
Q 1025 3253 1025 2328 
Q 1025 1406 1450 917 
Q 1875 428 2675 428 
Q 3081 428 3442 575 
Q 3803 722 4122 1019 
L 4122 359 
Q 3791 134 3420 21 
Q 3050 -91 2638 -91 
Q 1578 -91 968 557 
Q 359 1206 359 2328 
Q 359 3453 968 4101 
Q 1578 4750 2638 4750 
Q 3056 4750 3426 4639 
Q 3797 4528 4122 4306 
z
" transform="scale(0.015625)"/>
      <path id="DejaVuSans-66" d="M 2375 4863 
L 2375 4384 
L 1825 4384 
Q 1516 4384 1395 4259 
Q 1275 4134 1275 3809 
L 1275 3500 
L 2222 3500 
L 2222 3053 
L 1275 3053 
L 1275 0 
L 697 0 
L 697 3053 
L 147 3053 
L 147 3500 
L 697 3500 
L 697 3744 
Q 697 4328 969 4595 
Q 1241 4863 1831 4863 
L 2375 4863 
z
" transform="scale(0.015625)"/>
      <path id="DejaVuSans-47" d="M 3809 666 
L 3809 1919 
L 2778 1919 
L 2778 2438 
L 4434 2438 
L 4434 434 
Q 4069 175 3628 42 
Q 3188 -91 2688 -91 
Q 1594 -91 976 548 
Q 359 1188 359 2328 
Q 359 3472 976 4111 
Q 1594 4750 2688 4750 
Q 3144 4750 3555 4637 
Q 3966 4525 4313 4306 
L 4313 3634 
Q 3963 3931 3569 4081 
Q 3175 4231 2741 4231 
Q 1884 4231 1454 3753 
Q 1025 3275 1025 2328 
Q 1025 1384 1454 906 
Q 1884 428 2741 428 
Q 3075 428 3337 486 
Q 3600 544 3809 666 
z
" transform="scale(0.015625)"/>
     </defs>
     <use xlink:href="#DejaVuSans-51"/>
     <use xlink:href="#DejaVuSans-75" x="78.710938"/>
     <use xlink:href="#DejaVuSans-61" x="142.089844"/>
     <use xlink:href="#DejaVuSans-6c" x="203.369141"/>
     <use xlink:href="#DejaVuSans-69" x="231.152344"/>
     <use xlink:href="#DejaVuSans-6d" x="258.935547"/>
     <use xlink:href="#DejaVuSans-61" x="356.347656"/>
     <use xlink:href="#DejaVuSans-70" x="417.626953"/>
     <use xlink:href="#DejaVuSans-20" x="481.103516"/>
     <use xlink:href="#DejaVuSans-52" x="512.890625"/>
     <use xlink:href="#DejaVuSans-4e" x="582.373047"/>
     <use xlink:href="#DejaVuSans-41" x="657.177734"/>
     <use xlink:href="#DejaVuSans-73" x="725.585938"/>
     <use xlink:href="#DejaVuSans-65" x="777.685547"/>
     <use xlink:href="#DejaVuSans-71" x="839.208984"/>
     <use xlink:href="#DejaVuSans-3a" x="902.685547"/>
     <use xlink:href="#DejaVuSans-20" x="936.376953"/>
     <use xlink:href="#DejaVuSans-43" x="968.164062"/>
     <use xlink:href="#DejaVuSans-6f" x="1037.988281"/>
     <use xlink:href="#DejaVuSans-76" x="1099.169922"/>
     <use xlink:href="#DejaVuSans-65" x="1158.349609"/>
     <use xlink:href="#DejaVuSans-72" x="1219.873047"/>
     <use xlink:href="#DejaVuSans-61" x="1260.986328"/>
     <use xlink:href="#DejaVuSans-67" x="1322.265625"/>
     <use xlink:href="#DejaVuSans-65" x="1385.742188"/>
     <use xlink:href="#DejaVuSans-20" x="1447.265625"/>
     <use xlink:href="#DejaVuSans-50" x="1479.052734"/>
     <use xlink:href="#DejaVuSans-72" x="1537.605469"/>
     <use xlink:href="#DejaVuSans-6f" x="1576.46875"/>
     <use xlink:href="#DejaVuSans-66" x="1637.650391"/>
     <use xlink:href="#DejaVuSans-69" x="1672.855469"/>
     <use xlink:href="#DejaVuSans-6c" x="1700.638672"/>
     <use xlink:href="#DejaVuSans-65" x="1728.421875"/>
     <use xlink:href="#DejaVuSans-20" x="1789.945312"/>
     <use xlink:href="#DejaVuSans-41" x="1821.732422"/>
     <use xlink:href="#DejaVuSans-6c" x="1890.140625"/>
     <use xlink:href="#DejaVuSans-6f" x="1917.923828"/>
     <use xlink:href="#DejaVuSans-6e" x="1979.105469"/>
     <use xlink:href="#DejaVuSans-67" x="2042.484375"/>
     <use xlink:href="#DejaVuSans-20" x="2105.960938"/>
     <use xlink:href="#DejaVuSans-47" x="2137.748047"/>
     <use xlink:href="#DejaVuSans-65" x="2215.238281"/>
     <use xlink:href="#DejaVuSans-6e" x="2276.761719"/>
     <use xlink:href="#DejaVuSans-65" x="2340.140625"/>
     <use xlink:href="#DejaVuSans-73" x="2401.664062"/>
     <use xlink:href="#DejaVuSans-20" x="2453.763672"/>
     <use xlink:href="#DejaVuSans-28" x="2485.550781"/>
     <use xlink:href="#DejaVuSans-74" x="2524.564453"/>
     <use xlink:href="#DejaVuSans-6f" x="2563.773438"/>
     <use xlink:href="#DejaVuSans-74" x="2624.955078"/>
     <use xlink:href="#DejaVuSans-61" x="2664.164062"/>
     <use xlink:href="#DejaVuSans-6c" x="2725.443359"/>
     <use xlink:href="#DejaVuSans-29" x="2753.226562"/>
    </g>
   </g>
  </g>
 </g>
 <defs>
  <clipPath id="p9aa7074d46">
   <rect x="40.600625" y="35.2559" width="944.845" height="317.968"/>
  </clipPath>
 </defs>
</svg>
